<svg width="256" height="256" viewBox="0 0 256 256" fill="none" xmlns="http://www.w3.org/2000/svg">
<path d="M128.001 170.667C136.89 170.667 138.668 172.444 138.668 181.333C138.668 190.222 136.89 192 128.001 192C119.112 192 117.334 190.222 117.334 181.333C117.334 172.444 119.112 170.667 128.001 170.667Z" fill="black"/>
<path d="M128.001 63.9998C133.892 63.9998 138.668 68.7755 138.668 74.6665V138.667C138.668 144.557 133.892 149.333 128.001 149.333C122.111 149.333 117.334 144.557 117.334 138.667V74.6665C117.334 68.7759 122.111 64.0005 128.001 63.9998Z" fill="black"/>
<path fill-rule="evenodd" clip-rule="evenodd" d="M128.001 10.6665C216.577 10.6665 283.596 176.886 244.699 216L242.793 217.802C201.635 254.511 54.3665 254.511 13.2093 217.802L11.3031 216C-27.5934 176.887 39.4248 10.6671 128.001 10.6665ZM128.001 31.9998C112.773 32 96.8175 39.1501 81.1364 53.1561C65.5009 67.1214 51.55 86.7265 40.9697 108.125C30.3841 129.535 23.7723 151.529 21.8864 169.625C19.8516 189.153 23.7881 198.303 26.4281 200.958C31.8705 206.43 44.1002 212.62 63.626 217.239C82.3621 221.672 104.981 224 128.001 224C151.022 224 173.64 221.672 192.376 217.239C211.902 212.62 224.131 206.43 229.574 200.958C232.214 198.303 236.15 189.153 234.116 169.625C232.23 151.528 225.618 129.535 215.032 108.125C204.452 86.7266 190.501 67.1213 174.866 53.1561C159.184 39.1503 143.229 31.9998 128.001 31.9998Z" fill="black"/>
</svg>
