<svg width="256" height="256" viewBox="0 0 256 256" fill="none" xmlns="http://www.w3.org/2000/svg">
<path fill-rule="evenodd" clip-rule="evenodd" d="M168.084 0.325778C173.799 -1.10122 179.583 2.37196 181.012 8.0862C182.437 13.7995 178.964 19.5848 173.251 21.0133L171.98 21.3362C155.826 25.3751 143.671 38.0614 139.907 53.7112C156.815 43.424 175.824 39.814 194.199 45.0549C237.458 57.3946 266.749 116.214 252.262 173.774C237.772 231.333 184.99 265.839 141.73 253.503C136.892 252.123 132.316 250.16 128.001 247.732C123.686 250.16 119.11 252.123 114.272 253.503C71.0125 265.84 18.2409 231.333 3.75109 173.774C-10.7382 116.212 18.5433 57.3941 61.8032 45.0549C80.8649 39.6183 100.598 43.7218 117.97 54.9091C121.617 28.8666 140.714 7.16186 166.803 0.638278L168.084 0.325778ZM188.345 65.5654C173.884 61.4423 157.258 65.4346 141.845 78.5758C133.87 85.3754 122.132 85.3746 114.157 78.5758C98.7441 65.435 82.1177 61.4427 67.6573 65.5654C53.4523 69.6171 39.4871 82.0757 30.4594 101.461C21.5438 120.607 18.4293 144.691 24.4386 168.565C36.894 218.043 80.0191 241.088 108.418 232.992C111.528 232.105 114.571 230.811 117.543 229.138L118.772 228.503C125.019 225.504 132.369 225.713 138.459 229.138C141.431 230.811 144.475 232.105 147.584 232.992C175.985 241.087 219.12 218.04 231.574 168.565C237.582 144.693 234.46 120.607 225.543 101.461C216.513 82.0776 202.549 69.6173 188.345 65.5654Z" fill="black"/>
</svg>
