<svg width="256" height="256" viewBox="0 0 256 256" fill="none" xmlns="http://www.w3.org/2000/svg">
<path fill-rule="evenodd" clip-rule="evenodd" d="M168.082 0.325845C173.797 -1.10134 179.581 2.37193 181.009 8.08626C182.435 13.7998 178.963 19.585 173.249 21.0133L171.978 21.3363C155.824 25.3754 143.669 38.0616 139.905 53.7113C156.813 43.4239 175.822 39.8145 194.197 45.055C217.1 51.5878 236.08 71.1532 246.728 96.6592C240.748 95.3397 234.333 96.0077 228.551 98.8988L226.134 100.107C216.987 104.685 212.589 115.297 215.822 125.003L216.624 127.399C217.518 130.082 217.315 133.015 216.051 135.545L215.499 136.638C212.609 142.424 212.608 149.238 215.499 155.024L216.051 156.107C217.316 158.637 217.519 161.569 216.624 164.253L215.822 166.659C212.59 176.364 216.987 186.978 226.134 191.555L228.551 192.763C233.644 195.31 239.228 196.117 244.572 195.378C223.927 239.647 179.255 264.205 141.728 253.503C136.889 252.123 132.314 250.161 127.999 247.732C123.685 250.16 119.108 252.123 114.27 253.503C71.0107 265.839 18.2386 231.333 3.74907 173.774C-10.7401 116.213 18.5419 57.3949 61.8011 45.055C80.8651 39.6178 100.605 43.7189 117.978 54.9092C121.625 28.8675 140.713 7.16205 166.801 0.638345L168.082 0.325845ZM188.343 65.5654C173.883 61.4431 157.256 65.4358 141.843 78.5758C133.868 85.3744 122.13 85.3751 114.155 78.5758C98.7423 65.4352 82.1159 61.4427 67.6553 65.5654C53.4507 69.6175 39.4848 82.0763 30.4574 101.461C21.5421 120.607 18.4273 144.692 24.4366 168.565C36.8917 218.043 80.017 241.087 108.416 232.993C111.526 232.105 114.569 230.811 117.541 229.138L118.77 228.503C125.019 225.503 132.377 225.71 138.468 229.138C141.439 230.81 144.473 232.106 147.582 232.993C166.891 238.497 192.849 229.87 211.634 207.722C196.875 197.615 190.025 179.016 195.072 161.545C190.991 151.463 190.99 140.186 195.072 130.107C189.815 111.9 197.483 92.4784 213.551 82.7113C206.011 73.9698 197.236 68.102 188.343 65.5654Z" fill="black"/>
</svg>
