<svg width="256" height="256" viewBox="0 0 256 256" fill="none" xmlns="http://www.w3.org/2000/svg">
<path d="M181.333 106.667C187.224 106.667 192 111.442 192 117.333C192 123.224 187.224 128 181.333 128H85.3333C79.4423 128 74.6667 123.224 74.6667 117.333C74.6667 111.442 79.4423 106.667 85.3333 106.667H181.333Z" fill="black"/>
<path d="M128 53.3333C133.891 53.3333 138.667 58.109 138.667 64C138.667 69.891 133.891 74.6667 128 74.6667H85.3333C79.4423 74.6667 74.6667 69.891 74.6667 64C74.6667 58.109 79.4423 53.3333 85.3333 53.3333H128Z" fill="black"/>
<path fill-rule="evenodd" clip-rule="evenodd" d="M136.125 0.0520833C217.982 1.12237 234.667 19.5272 234.667 101.333L234.615 109.052C234.549 113.59 234.399 117.916 234.198 122.042C251.087 133.096 256 151.482 256 181.333L255.938 187.021C254.585 244.319 231.333 256 128 256L118.25 255.958C23.1904 255.195 1.37136 242.471 0.0625 187.021L0 181.333C0.00024988 151.482 4.91259 133.096 21.8021 122.042C21.4898 115.637 21.3333 108.746 21.3333 101.333C21.3333 16.8889 39.1111 0 128 0L136.125 0.0520833ZM21.6146 170.667C21.4329 173.874 21.3334 177.418 21.3333 181.333C21.3335 196.08 22.665 205.51 25.0104 211.854C27.0249 217.3 29.845 220.711 34.75 223.573C40.4718 226.91 49.8504 229.927 65.6667 231.917C81.3112 233.885 101.572 234.667 128 234.667C154.428 234.667 174.689 233.885 190.333 231.917C206.15 229.927 215.528 226.91 221.25 223.573C226.155 220.711 228.975 217.3 230.99 211.854C233.335 205.51 234.667 196.08 234.667 181.333C234.667 177.418 234.567 173.874 234.385 170.667H194.583C188.928 170.668 183.5 172.918 179.5 176.917L176.917 179.5C168.916 187.5 158.064 191.999 146.75 192H109.25C97.9364 191.999 87.0836 187.5 79.0833 179.5L76.5 176.917C72.5005 172.918 67.0723 170.668 61.4167 170.667H21.6146ZM128 21.3333C106.177 21.3333 90.1275 22.3927 78.1146 24.8542C66.2825 27.2786 59.9358 30.7601 56.0313 34.4688C52.2227 38.0869 48.7514 43.8078 46.3021 54.5938C43.7836 65.6865 42.6667 80.67 42.6667 101.333C42.6667 121.997 43.7836 136.98 46.3021 148.073C46.3998 148.503 46.5239 148.919 46.625 149.333H61.4167C72.7303 149.335 83.583 153.834 91.5833 161.833L94.1667 164.417C98.1662 168.416 103.594 170.665 109.25 170.667H146.75C152.406 170.665 157.834 168.416 161.833 164.417L164.417 161.833C172.417 153.834 183.27 149.335 194.583 149.333H209.375C209.476 148.919 209.6 148.503 209.698 148.073C212.216 136.98 213.333 121.997 213.333 101.333C213.333 80.67 212.216 65.6865 209.698 54.5938C207.249 43.8078 203.777 38.0869 199.969 34.4688C196.064 30.7601 189.718 27.2786 177.885 24.8542C165.872 22.3927 149.823 21.3333 128 21.3333Z" fill="black"/>
</svg>
