<svg width="256" height="256" viewBox="0 0 256 256" fill="none" xmlns="http://www.w3.org/2000/svg">
<path d="M152.458 77.7917C156.624 73.6263 163.376 73.6268 167.542 77.7917L172.01 82.2604C183.991 94.2415 193.965 108.074 201.542 123.229L202.031 124.385C203.015 127.113 202.854 130.145 201.542 132.771C193.965 147.926 183.991 161.759 172.01 173.74L167.542 178.208C163.376 182.373 156.624 182.374 152.458 178.208C148.294 174.043 148.294 167.29 152.458 163.125L156.927 158.656C163.057 152.526 168.562 145.824 173.406 138.667H64C58.109 138.667 53.3333 133.891 53.3333 128C53.3341 122.11 58.1094 117.333 64 117.333H173.406C168.562 110.176 163.057 103.474 156.927 97.3438L152.458 92.875C148.294 88.7096 148.294 81.9571 152.458 77.7917Z" fill="black"/>
<path fill-rule="evenodd" clip-rule="evenodd" d="M128 0C234.667 0 256 21.3333 256 128C256 234.667 234.667 256 128 256C21.3333 256 0 234.667 0 128C0 21.3333 21.3333 0 128 0ZM128 21.3333C101.757 21.3333 82.2421 22.6747 67.5 25.8542C52.9976 28.9821 44.5872 33.5795 39.0833 39.0833C33.5795 44.5872 28.9821 52.9976 25.8542 67.5C22.6747 82.2421 21.3333 101.757 21.3333 128C21.3333 154.243 22.6747 173.758 25.8542 188.5C28.9821 203.002 33.5795 211.413 39.0833 216.917C44.5872 222.421 52.9976 227.018 67.5 230.146C82.2421 233.325 101.757 234.667 128 234.667C154.243 234.667 173.758 233.325 188.5 230.146C203.002 227.018 211.413 222.421 216.917 216.917C222.421 211.413 227.018 203.002 230.146 188.5C233.325 173.758 234.667 154.243 234.667 128C234.667 101.757 233.325 82.2421 230.146 67.5C227.018 52.9976 222.421 44.5872 216.917 39.0833C211.413 33.5795 203.002 28.9821 188.5 25.8542C173.758 22.6747 154.243 21.3333 128 21.3333Z" fill="black"/>
</svg>
