<svg width="256" height="256" viewBox="0 0 256 256" fill="none" xmlns="http://www.w3.org/2000/svg">
<path d="M55.125 68.75C58.3928 63.8484 65.015 62.5239 69.9167 65.7917C88.5721 78.2286 104.974 93.7507 118.427 111.688L125.865 121.604C128.707 125.396 128.707 130.604 125.865 134.396L118.427 144.313C104.974 162.249 88.5721 177.771 69.9167 190.208C65.015 193.476 58.3928 192.152 55.125 187.25C51.8572 182.348 53.1817 175.726 58.0833 172.458C74.7256 161.363 89.3634 147.522 101.365 131.521L104.01 128L101.365 124.479C89.3634 108.478 74.7256 94.6365 58.0833 83.5417C53.1817 80.2739 51.8572 73.6516 55.125 68.75Z" fill="black"/>
<path d="M129.792 68.75C133.059 63.8484 139.682 62.5239 144.583 65.7917C163.239 78.2286 179.641 93.7507 193.094 111.688L200.531 121.604C203.374 125.396 203.374 130.604 200.531 134.396L193.094 144.313C179.641 162.249 163.239 177.771 144.583 190.208C139.682 193.476 133.059 192.152 129.792 187.25C126.524 182.348 127.848 175.726 132.75 172.458C149.392 161.363 164.03 147.522 176.031 131.521L178.677 128L176.031 124.479C164.03 108.478 149.392 94.6365 132.75 83.5417C127.848 80.2739 126.524 73.6516 129.792 68.75Z" fill="black"/>
<path fill-rule="evenodd" clip-rule="evenodd" d="M128 0C234.667 0 256 21.3333 256 128C256 234.667 234.667 256 128 256C21.3333 256 0 234.667 0 128C0 21.3333 21.3333 0 128 0ZM128 21.3333C101.757 21.3333 82.2421 22.6747 67.5 25.8542C52.9976 28.9821 44.5872 33.5795 39.0833 39.0833C33.5795 44.5872 28.9821 52.9976 25.8542 67.5C22.6747 82.2421 21.3333 101.757 21.3333 128C21.3333 154.243 22.6747 173.758 25.8542 188.5C28.9821 203.002 33.5795 211.413 39.0833 216.917C44.5872 222.421 52.9976 227.018 67.5 230.146C82.2421 233.325 101.757 234.667 128 234.667C154.243 234.667 173.758 233.325 188.5 230.146C203.002 227.018 211.413 222.421 216.917 216.917C222.421 211.413 227.018 203.002 230.146 188.5C233.325 173.758 234.667 154.243 234.667 128C234.667 101.757 233.325 82.2421 230.146 67.5C227.018 52.9976 222.421 44.5872 216.917 39.0833C211.413 33.5795 203.002 28.9821 188.5 25.8542C173.758 22.6747 154.243 21.3333 128 21.3333Z" fill="black"/>
</svg>
