<svg width="256" height="256" viewBox="0 0 256 256" fill="none" xmlns="http://www.w3.org/2000/svg">
<path d="M161.792 68.751C165.06 63.8493 171.682 62.5249 176.584 65.7926L177.521 66.4176C199.198 80.8691 217.799 99.4698 232.251 121.147L232.876 122.084C235.264 125.667 235.264 130.335 232.876 133.918L232.251 134.855C217.799 156.532 199.198 175.133 177.521 189.584L176.584 190.209C171.682 193.477 165.06 192.153 161.792 187.251C158.525 182.349 159.849 175.727 164.751 172.459L165.688 171.834C179.58 162.573 192.047 151.395 202.751 138.668H32.0007C26.1096 138.668 21.334 133.892 21.334 128.001C21.334 122.11 26.1096 117.334 32.0007 117.334H202.751C192.047 104.607 179.58 93.4287 165.688 84.1676L164.751 83.5426C159.849 80.2749 158.525 73.6526 161.792 68.751Z" fill="black"/>
</svg>
