<svg width="256" height="256" viewBox="0 0 256 256" fill="none" xmlns="http://www.w3.org/2000/svg">
<path d="M223.376 88.0943C228.739 88.0963 233.272 92.1103 233.678 97.4589C234.368 106.564 234.667 116.709 234.667 128.001C234.667 216.888 216.889 234.667 128.001 234.667C91.5995 234.667 67.1412 231.671 50.9382 222.042C52.2432 226.577 53.9492 231.001 56.0736 235.251L57.3548 237.792C59.989 243.061 57.842 249.47 52.5736 252.105C47.3062 254.736 40.9066 252.6 38.2715 247.334L37.0007 244.792C30.0824 230.955 26.47 215.7 26.4694 200.23C26.4694 195.993 28.8683 192.116 32.6569 190.219L34.6152 189.23C48.6447 182.215 64.1278 178.563 79.8132 178.563C85.7018 178.566 90.4798 183.351 90.4798 189.24C90.4775 195.129 85.6923 199.907 79.8027 199.907C73.0462 199.907 66.3416 200.766 59.8444 202.448C63.8297 205.25 69.5653 207.755 78.334 209.646C90.2428 212.215 106.202 213.334 128.001 213.334C149.799 213.334 165.759 212.215 177.667 209.646C189.335 207.13 195.636 203.532 199.584 199.584C203.532 195.636 207.13 189.335 209.646 177.667C212.215 165.759 213.334 149.798 213.334 128.001C213.334 117.384 213.062 108.147 212.49 100.094C212.041 93.72 216.985 88.0943 223.376 88.0943Z" fill="black"/>
<path d="M197.896 3.88594C203.165 1.25265 209.575 3.39877 212.209 8.66719L213.469 11.1984C220.389 25.0374 224.011 40.2988 224.011 55.7714C224.011 60.0075 221.611 63.8851 217.824 65.7818L215.855 66.7609C201.826 73.7753 186.352 77.4275 170.667 77.4276C164.777 77.4271 160.001 72.6516 160.001 66.7609C160.001 60.8707 164.777 56.0948 170.667 56.0943C178.752 56.0942 186.758 54.8453 194.428 52.4484C190.555 50.0966 185.251 47.9904 177.667 46.3547C165.758 43.7864 149.799 42.6672 128.001 42.6672C106.202 42.6672 90.2428 43.7864 78.334 46.3547C66.6652 48.8715 60.3656 52.4689 56.4173 56.4172C52.4694 60.3656 48.8715 66.6658 46.3548 78.3339C43.7868 90.2425 42.6673 106.203 42.6673 128.001C42.6673 132.521 42.7189 136.79 42.8236 140.823C42.9824 146.944 38.1229 152.094 32.0007 152.094C26.3356 152.092 21.6486 147.654 21.5007 141.99C21.3843 137.535 21.334 132.875 21.334 128.001C21.334 39.1116 39.1118 21.3339 128.001 21.3339C159.769 21.3339 182.446 23.6166 198.48 30.5943C197.345 27.2318 195.993 23.9335 194.396 20.7401L193.126 18.1984C190.493 12.93 192.629 6.52048 197.896 3.88594Z" fill="black"/>
</svg>
