<svg width="256" height="256" viewBox="0 0 256 256" fill="none" xmlns="http://www.w3.org/2000/svg">
<path d="M23.5842 36.1128C27.2015 31.4661 33.9041 30.6329 38.553 34.2482L41.3863 36.4565C70.1587 58.8351 96.2192 84.4861 119.032 112.894L123.543 118.613C127.837 124.134 127.837 131.862 123.543 137.384C99.6729 168.073 72.0757 195.67 41.3863 219.54L38.553 221.748C33.9041 225.364 27.2016 224.531 23.5842 219.884C19.9689 215.235 20.8021 208.532 25.4488 204.915L28.2926 202.707C56.3414 180.891 81.6782 155.806 103.782 127.998C81.6783 100.19 56.3412 75.1055 28.2926 53.2899L25.4488 51.0815C20.8023 47.464 19.9685 40.7615 23.5842 36.1128Z" fill="black"/>
<path d="M119.584 36.1128C123.201 31.4661 129.904 30.633 134.553 34.2482L137.386 36.4565C166.159 58.8351 192.219 84.4861 215.032 112.894L219.543 118.613C223.837 124.134 223.837 131.862 219.543 137.384C195.673 168.073 168.076 195.67 137.386 219.54L134.553 221.748C129.904 225.364 123.202 224.53 119.584 219.884C115.969 215.235 116.802 208.532 121.449 204.915L124.293 202.707C152.341 180.891 177.678 155.806 199.782 127.998C177.678 100.191 152.341 75.1054 124.293 53.2899L121.449 51.0815C116.802 47.464 115.969 40.7615 119.584 36.1128Z" fill="black"/>
</svg>
