<svg width="256" height="256" viewBox="0 0 256 256" fill="none" xmlns="http://www.w3.org/2000/svg">
<path d="M168.532 219.726C164.998 224.438 158.317 225.395 153.605 221.862C124.324 199.901 99.5815 172.465 80.7505 141.08L76.188 133.487C74.1613 130.109 74.1613 125.885 76.188 122.507L80.7505 114.914C99.5815 83.5288 124.324 56.0928 153.605 34.1324C158.317 30.5993 164.998 31.5556 168.532 36.2678C172.065 40.9806 171.109 47.6607 166.396 51.1949C139.325 71.4988 116.453 96.8655 99.0422 125.882L97.7818 127.997L99.0422 130.112C116.453 159.128 139.325 184.495 166.396 204.799C171.109 208.333 172.065 215.013 168.532 219.726Z" fill="black"/>
</svg>
