<svg width="256" height="256" viewBox="0 0 256 256" fill="none" xmlns="http://www.w3.org/2000/svg">
<path d="M130.095 213.123C135.87 211.966 139.618 206.347 138.463 200.572C137.306 194.798 131.686 191.052 125.912 192.205C109.456 195.496 92.7167 196.392 76.0458 195.033L210.205 60.8742C214.37 56.7086 214.37 49.9548 210.205 45.7893C206.039 41.627 199.284 41.6248 195.12 45.7893L60.8357 180.073C59.4358 163.448 60.457 146.786 63.7967 130.09C64.9496 124.315 61.2029 118.695 55.4292 117.538C49.6537 116.383 44.035 120.131 42.8781 125.906C37.6315 152.136 37.4738 178.498 42.8855 204.815C43.7527 209.032 47.0706 212.316 51.2971 213.138C77.3258 218.195 103.977 218.347 130.095 213.123Z" fill="black"/>
</svg>
