<svg width="256" height="256" viewBox="0 0 256 256" fill="none" xmlns="http://www.w3.org/2000/svg">
<path d="M37.8962 150.458C54.086 142.363 72.8286 141.036 90.0004 146.76L99.3754 149.885C102.162 150.814 104.424 152.841 105.657 155.468L106.115 156.624L109.24 165.999C114.964 183.171 113.637 201.914 105.542 218.103C102.908 223.372 96.4987 225.509 91.2296 222.874C85.9606 220.24 83.8243 213.831 86.4588 208.562C90.8623 199.755 92.3528 189.849 90.8338 180.249L28.8754 242.208C24.7098 246.373 17.9576 246.373 13.7921 242.208C9.6266 238.042 9.6266 231.29 13.7921 227.124L75.7504 165.166C66.1502 163.647 56.245 165.137 47.4379 169.541C42.1688 172.175 35.7599 170.039 33.1254 164.77C30.4909 159.501 32.6273 153.092 37.8962 150.458Z" fill="black"/>
<path d="M166 146.76C183.172 141.036 201.915 142.363 218.105 150.458C223.374 153.092 225.51 159.501 222.875 164.77C220.241 170.039 213.832 172.175 208.563 169.541C199.756 165.137 189.851 163.647 180.25 165.166L242.209 227.124C246.374 231.29 246.374 238.042 242.209 242.208C238.043 246.373 231.291 246.373 227.125 242.208L165.167 180.249C163.648 189.849 165.139 199.755 169.542 208.562C172.177 213.831 170.04 220.24 164.771 222.874C159.502 225.509 153.093 223.372 150.459 218.103C142.364 201.914 141.037 183.171 146.761 165.999L149.886 156.624L150.344 155.468C151.577 152.841 153.839 150.814 156.625 149.885L166 146.76Z" fill="black"/>
<path d="M13.7921 13.7908C17.9576 9.62528 24.7098 9.62533 28.8754 13.7908L90.8338 75.7492C92.3528 66.1489 90.8623 56.2438 86.4588 47.4367C83.8243 42.1676 85.9606 35.7588 91.2296 33.1242C96.4987 30.4896 102.908 32.626 105.542 37.895C113.637 54.0848 114.964 72.8273 109.24 89.9992L106.115 99.3742L105.657 100.53C104.424 103.157 102.162 105.184 99.3754 106.114L90.0004 109.239C72.8286 114.963 54.086 113.636 37.8962 105.541C32.6273 102.906 30.4909 96.4974 33.1254 91.2283C35.7599 85.9593 42.1688 83.8231 47.4379 86.4575C56.245 90.8611 66.1502 92.3515 75.7504 90.8325L13.7921 28.8742C9.6266 24.7086 9.6266 17.9564 13.7921 13.7908Z" fill="black"/>
<path d="M227.125 13.7908C231.291 9.62528 238.043 9.62533 242.209 13.7908C246.374 17.9564 246.374 24.7086 242.209 28.8742L180.25 90.8325C189.851 92.3515 199.756 90.861 208.563 86.4575C213.832 83.823 220.241 85.9593 222.875 91.2283C225.51 96.4974 223.374 102.906 218.105 105.541C201.915 113.636 183.172 114.963 166 109.239L156.625 106.114C153.839 105.184 151.577 103.157 150.344 100.53L149.886 99.3742L146.761 89.9992C141.037 72.8273 142.364 54.0848 150.459 37.895C153.093 32.6259 159.502 30.4897 164.771 33.1242C170.04 35.7587 172.177 42.1676 169.542 47.4367C165.139 56.2438 163.648 66.1489 165.167 75.7492L227.125 13.7908Z" fill="black"/>
</svg>
