<svg width="256" height="256" viewBox="0 0 256 256" fill="none" xmlns="http://www.w3.org/2000/svg">
<path d="M124.375 43.3021C127.105 42.3152 130.142 42.4772 132.771 43.7917L145.271 50.0417C167.116 60.9653 183.723 80.1212 191.448 103.292C193.31 108.879 190.295 114.917 184.708 116.781C179.121 118.644 173.083 115.628 171.219 110.042C165.636 93.2921 154 79.2783 138.667 70.6875V202.667C138.667 208.558 133.891 213.333 128 213.333C122.109 213.333 117.333 208.558 117.333 202.667V70.6875C102 79.2783 90.3644 93.2921 84.7813 110.042C82.9171 115.628 76.8794 118.644 71.2917 116.781C65.7049 114.917 62.6895 108.879 64.5521 103.292C72.2765 80.1212 88.884 60.9653 110.729 50.0417L123.229 43.7917L124.375 43.3021Z" fill="black"/>
<path fill-rule="evenodd" clip-rule="evenodd" d="M137.75 0.0625C235.979 1.41443 256 24.666 256 128L255.938 137.75C254.586 235.979 231.334 256 128 256L118.25 255.938C20.0211 254.586 0 231.334 0 128C6.78174e-07 21.3333 21.3334 0 128 0L137.75 0.0625ZM128 21.3333C101.757 21.3333 82.2421 22.6747 67.5 25.8542C52.9976 28.9821 44.5872 33.5795 39.0833 39.0833C33.5795 44.5872 28.9821 52.9976 25.8542 67.5C22.6747 82.2421 21.3333 101.757 21.3333 128C21.3333 154.243 22.6747 173.758 25.8542 188.5C28.9821 203.002 33.5795 211.413 39.0833 216.917C44.5872 222.421 52.9976 227.018 67.5 230.146C82.2421 233.325 101.757 234.667 128 234.667C154.243 234.667 173.758 233.325 188.5 230.146C203.002 227.018 211.413 222.421 216.917 216.917C222.421 211.413 227.018 203.002 230.146 188.5C233.325 173.758 234.667 154.243 234.667 128C234.667 101.757 233.325 82.2421 230.146 67.5C227.018 52.9976 222.421 44.5872 216.917 39.0833C211.413 33.5795 203.002 28.9821 188.5 25.8542C173.758 22.6747 154.243 21.3333 128 21.3333Z" fill="black"/>
</svg>
