<svg width="256" height="256" viewBox="0 0 256 256" fill="none" xmlns="http://www.w3.org/2000/svg">
<path d="M87.4683 219.726C91.0026 224.438 97.6827 225.395 102.395 221.862C131.676 199.901 156.419 172.465 175.25 141.08L179.812 133.487C181.839 130.109 181.839 125.885 179.812 122.507L175.25 114.914C156.419 83.5288 131.676 56.0928 102.395 34.1324C97.6827 30.5993 91.0026 31.5556 87.4683 36.2678C83.9352 40.9806 84.8915 47.6607 89.6038 51.1949C116.675 71.4988 139.547 96.8655 156.958 125.882L158.218 127.997L156.958 130.112C139.547 159.128 116.675 184.495 89.6038 204.799C84.8915 208.333 83.9352 215.013 87.4683 219.726Z" fill="black"/>
</svg>
