<svg width="256" height="256" viewBox="0 0 256 256" fill="none" xmlns="http://www.w3.org/2000/svg">
<path d="M36.2717 87.4708C31.5595 91.005 30.6032 97.6851 34.1363 102.398C56.0967 131.678 83.5327 156.421 114.918 175.252L122.511 179.815C125.889 181.841 130.113 181.841 133.49 179.815L141.084 175.252C172.469 156.421 199.905 131.678 221.865 102.398C225.399 97.6851 224.442 91.005 219.73 87.4708C215.017 83.9376 208.337 84.8939 204.803 89.6062C184.499 116.678 159.132 139.55 130.115 156.96L128.001 158.221L125.886 156.96C96.8694 139.55 71.5027 116.678 51.1988 89.6062C47.6646 84.8939 40.9845 83.9376 36.2717 87.4708Z" fill="black"/>
</svg>
