<svg width="256" height="256" viewBox="0 0 256 256" fill="none" xmlns="http://www.w3.org/2000/svg">
<path d="M79.4171 65.7926C84.3188 62.5249 90.941 63.8493 94.2088 68.751C97.4765 73.6526 96.1521 80.2749 91.2504 83.5426L88.9796 85.053C75.4944 94.0434 63.4158 104.928 53.0838 117.334H224C229.891 117.334 234.667 122.11 234.667 128.001C234.667 133.892 229.891 138.668 224 138.668H53.0838C63.4158 151.074 75.4944 161.959 88.9796 170.949L91.2504 172.459C96.1521 175.727 97.4765 182.349 94.2088 187.251C90.941 192.153 84.3188 193.477 79.4171 190.209L77.1463 188.699C56.3485 174.833 38.5013 156.986 24.6359 136.188L23.1254 133.918C20.7368 130.335 20.7368 125.667 23.1254 122.084L24.6359 119.813C38.5013 99.0156 56.3485 81.1685 77.1463 67.303L79.4171 65.7926Z" fill="black"/>
</svg>
