<svg width="256" height="256" viewBox="0 0 256 256" fill="none" xmlns="http://www.w3.org/2000/svg">
<path d="M128 53.3333C133.89 53.3341 138.667 58.1094 138.667 64V173.406C145.824 168.562 152.526 163.057 158.656 156.927L163.125 152.458C167.29 148.294 174.043 148.294 178.208 152.458C182.374 156.624 182.373 163.376 178.208 167.542L173.74 172.01C161.759 183.991 147.926 193.965 132.771 201.542L131.615 202.031C128.887 203.015 125.855 202.854 123.229 201.542C108.074 193.965 94.2412 183.991 82.2604 172.01L77.7917 167.542C73.6268 163.376 73.6263 156.624 77.7917 152.458C81.9571 148.294 88.7096 148.294 92.875 152.458L97.3438 156.927C103.474 163.057 110.176 168.562 117.333 173.406V64C117.333 58.109 122.109 53.3333 128 53.3333Z" fill="black"/>
<path fill-rule="evenodd" clip-rule="evenodd" d="M128 0C234.667 0 256 21.3333 256 128C256 234.667 234.667 256 128 256C21.3333 256 0 234.667 0 128C0 21.3333 21.3333 0 128 0ZM128 21.3333C101.757 21.3333 82.2421 22.6747 67.5 25.8542C52.9976 28.9821 44.5872 33.5795 39.0833 39.0833C33.5795 44.5872 28.9821 52.9976 25.8542 67.5C22.6747 82.2421 21.3333 101.757 21.3333 128C21.3333 154.243 22.6747 173.758 25.8542 188.5C28.9821 203.002 33.5795 211.413 39.0833 216.917C44.5872 222.421 52.9976 227.018 67.5 230.146C82.2421 233.325 101.757 234.667 128 234.667C154.243 234.667 173.758 233.325 188.5 230.146C203.002 227.018 211.413 222.421 216.917 216.917C222.421 211.413 227.018 203.002 230.146 188.5C233.325 173.758 234.667 154.243 234.667 128C234.667 101.757 233.325 82.2421 230.146 67.5C227.018 52.9976 222.421 44.5872 216.917 39.0833C211.413 33.5795 203.002 28.9821 188.5 25.8542C173.758 22.6747 154.243 21.3333 128 21.3333Z" fill="black"/>
</svg>
