<svg width="256" height="256" viewBox="0 0 256 256" fill="none" xmlns="http://www.w3.org/2000/svg">
<path d="M219.73 179.197C224.442 175.663 225.399 168.983 221.865 164.27C199.905 134.989 172.469 110.247 141.084 91.4158L133.49 86.8533C130.113 84.8266 125.889 84.8266 122.511 86.8533L114.918 91.4158C83.5327 110.247 56.0968 134.989 34.1363 164.27C30.6032 168.983 31.5595 175.663 36.2717 179.197C40.9845 182.73 47.6646 181.774 51.1988 177.062C71.5027 149.99 96.8694 127.118 125.886 109.707L128.001 108.447L130.115 109.707C159.132 127.118 184.499 149.99 204.803 177.062C208.337 181.774 215.017 182.73 219.73 179.197Z" fill="black"/>
</svg>
