<svg width="256" height="256" viewBox="0 0 256 256" fill="none" xmlns="http://www.w3.org/2000/svg">
<path d="M97.7917 68.75C101.059 63.8484 107.682 62.5239 112.583 65.7917C131.239 78.2286 147.641 93.7507 161.094 111.688L168.531 121.604C171.374 125.396 171.374 130.604 168.531 134.396L161.094 144.313C147.641 162.249 131.239 177.771 112.583 190.208C107.682 193.476 101.059 192.152 97.7917 187.25C94.5239 182.348 95.8484 175.726 100.75 172.458C117.392 161.363 132.03 147.522 144.031 131.521L146.677 128L144.031 124.479C132.03 108.478 117.392 94.6365 100.75 83.5417C95.8484 80.2739 94.5239 73.6516 97.7917 68.75Z" fill="black"/>
<path fill-rule="evenodd" clip-rule="evenodd" d="M128 0C234.667 0 256 21.3333 256 128C256 234.667 234.667 256 128 256C21.3333 256 0 234.667 0 128C0 21.3333 21.3333 0 128 0ZM128 21.3333C101.757 21.3333 82.2421 22.6747 67.5 25.8542C52.9976 28.9821 44.5872 33.5795 39.0833 39.0833C33.5795 44.5872 28.9821 52.9976 25.8542 67.5C22.6747 82.2421 21.3333 101.757 21.3333 128C21.3333 154.243 22.6747 173.758 25.8542 188.5C28.9821 203.002 33.5795 211.413 39.0833 216.917C44.5872 222.421 52.9976 227.018 67.5 230.146C82.2421 233.325 101.757 234.667 128 234.667C154.243 234.667 173.758 233.325 188.5 230.146C203.002 227.018 211.413 222.421 216.917 216.917C222.421 211.413 227.018 203.002 230.146 188.5C233.325 173.758 234.667 154.243 234.667 128C234.667 101.757 233.325 82.2421 230.146 67.5C227.018 52.9976 222.421 44.5872 216.917 39.0833C211.413 33.5795 203.002 28.9821 188.5 25.8542C173.758 22.6747 154.243 21.3333 128 21.3333Z" fill="black"/>
</svg>
