<svg width="256" height="256" viewBox="0 0 256 256" fill="none" xmlns="http://www.w3.org/2000/svg">
<path d="M111.417 65.7917C116.318 62.5239 122.941 63.8484 126.208 68.75C129.476 73.6516 128.152 80.2739 123.25 83.5417C106.608 94.6365 91.9699 108.478 79.9688 124.479L77.3229 128L79.9688 131.521C91.9699 147.522 106.608 161.363 123.25 172.458C128.152 175.726 129.476 182.348 126.208 187.25C122.941 192.152 116.318 193.476 111.417 190.208C92.7612 177.771 76.3589 162.249 62.9063 144.313L55.4688 134.396C52.626 130.604 52.626 125.396 55.4688 121.604L62.9063 111.688C76.3589 93.7507 92.7612 78.2286 111.417 65.7917Z" fill="black"/>
<path d="M186.083 65.7917C190.985 62.5239 197.607 63.8484 200.875 68.75C204.143 73.6516 202.818 80.2739 197.917 83.5417C181.274 94.6365 166.637 108.478 154.635 124.479L151.99 128L154.635 131.521C166.637 147.522 181.274 161.363 197.917 172.458C202.818 175.726 204.143 182.348 200.875 187.25C197.607 192.152 190.985 193.476 186.083 190.208C167.428 177.771 151.026 162.249 137.573 144.313L130.135 134.396C127.293 130.604 127.293 125.396 130.135 121.604L137.573 111.688C151.026 93.7507 167.428 78.2286 186.083 65.7917Z" fill="black"/>
<path fill-rule="evenodd" clip-rule="evenodd" d="M128 0C234.667 0 256 21.3333 256 128C256 234.667 234.667 256 128 256C21.3333 256 0 234.667 0 128C0 21.3333 21.3333 0 128 0ZM128 21.3333C101.757 21.3333 82.2421 22.6747 67.5 25.8542C52.9976 28.9821 44.5872 33.5795 39.0833 39.0833C33.5795 44.5872 28.9821 52.9976 25.8542 67.5C22.6747 82.2421 21.3333 101.757 21.3333 128C21.3333 154.243 22.6747 173.758 25.8542 188.5C28.9821 203.002 33.5795 211.413 39.0833 216.917C44.5872 222.421 52.9976 227.018 67.5 230.146C82.2421 233.325 101.757 234.667 128 234.667C154.243 234.667 173.758 233.325 188.5 230.146C203.002 227.018 211.413 222.421 216.917 216.917C222.421 211.413 227.018 203.002 230.146 188.5C233.325 173.758 234.667 154.243 234.667 128C234.667 101.757 233.325 82.2421 230.146 67.5C227.018 52.9976 222.421 44.5872 216.917 39.0833C211.413 33.5795 203.002 28.9821 188.5 25.8542C173.758 22.6747 154.243 21.3333 128 21.3333Z" fill="black"/>
</svg>
