<svg width="256" height="256" viewBox="0 0 256 256" fill="none" xmlns="http://www.w3.org/2000/svg">
<path d="M143.417 65.7917C148.318 62.5239 154.941 63.8484 158.208 68.75C161.476 73.6516 160.152 80.2739 155.25 83.5417C138.608 94.6365 123.97 108.478 111.969 124.479L109.323 128L111.969 131.521C123.97 147.522 138.608 161.363 155.25 172.458C160.152 175.726 161.476 182.348 158.208 187.25C154.941 192.152 148.318 193.476 143.417 190.208C124.761 177.771 108.359 162.249 94.9063 144.313L87.4688 134.396C84.626 130.604 84.626 125.396 87.4688 121.604L94.9063 111.688C108.359 93.7507 124.761 78.2286 143.417 65.7917Z" fill="black"/>
<path fill-rule="evenodd" clip-rule="evenodd" d="M128 0C234.667 0 256 21.3333 256 128C256 234.667 234.667 256 128 256C21.3333 256 0 234.667 0 128C0 21.3333 21.3333 0 128 0ZM128 21.3333C101.757 21.3333 82.2421 22.6747 67.5 25.8542C52.9976 28.9821 44.5872 33.5795 39.0833 39.0833C33.5795 44.5872 28.9821 52.9976 25.8542 67.5C22.6747 82.2421 21.3333 101.757 21.3333 128C21.3333 154.243 22.6747 173.758 25.8542 188.5C28.9821 203.002 33.5795 211.413 39.0833 216.917C44.5872 222.421 52.9976 227.018 67.5 230.146C82.2421 233.325 101.757 234.667 128 234.667C154.243 234.667 173.758 233.325 188.5 230.146C203.002 227.018 211.413 222.421 216.917 216.917C222.421 211.413 227.018 203.002 230.146 188.5C233.325 173.758 234.667 154.243 234.667 128C234.667 101.757 233.325 82.2421 230.146 67.5C227.018 52.9976 222.421 44.5872 216.917 39.0833C211.413 33.5795 203.002 28.9821 188.5 25.8542C173.758 22.6747 154.243 21.3333 128 21.3333Z" fill="black"/>
</svg>
