<svg width="256" height="256" viewBox="0 0 256 256" fill="none" xmlns="http://www.w3.org/2000/svg">
<path d="M110.784 34.2535C115.433 30.6381 122.136 31.4713 125.753 36.1181C129.366 40.7668 128.534 47.4701 123.889 51.0869L121.045 53.2952C92.9961 75.111 67.6593 100.196 45.5553 128.004C67.6588 155.81 92.997 180.897 121.045 202.712L123.889 204.92C128.533 208.538 129.368 215.241 125.753 219.889C122.136 224.535 115.433 225.367 110.784 221.754L107.951 219.545C77.2627 195.676 49.664 168.077 25.7949 137.389C21.5006 131.868 21.5007 124.139 25.7949 118.618L30.3053 112.899C53.1184 84.4912 79.1786 58.8406 107.951 36.4619L110.784 34.2535Z" fill="black"/>
<path d="M206.784 34.2535C211.433 30.638 218.136 31.4713 221.753 36.1181C225.367 40.7668 224.534 47.4701 219.889 51.0869L217.045 53.2952C188.996 75.111 163.659 100.196 141.555 128.004C163.659 155.81 188.997 180.897 217.045 202.712L219.889 204.92C224.533 208.538 225.368 215.241 221.753 219.889C218.136 224.535 211.433 225.367 206.784 221.754L203.951 219.545C173.263 195.676 145.664 168.077 121.795 137.389C117.501 131.868 117.501 124.139 121.795 118.618L126.305 112.899C149.118 84.4912 175.179 58.8406 203.951 36.4619L206.784 34.2535Z" fill="black"/>
</svg>
