<svg width="256" height="256" viewBox="0 0 256 256" fill="none" xmlns="http://www.w3.org/2000/svg">
<path d="M88.4583 77.7917C92.624 73.6268 99.3763 73.6263 103.542 77.7917C107.706 81.9571 107.706 88.7096 103.542 92.875L99.0729 97.3438C92.9428 103.474 87.438 110.176 82.5938 117.333H192C197.891 117.333 202.667 122.109 202.667 128C202.666 133.89 197.891 138.667 192 138.667H82.5938C87.4377 145.824 92.9429 152.526 99.0729 158.656L103.542 163.125C107.706 167.29 107.706 174.043 103.542 178.208C99.3763 182.374 92.624 182.373 88.4583 178.208L83.9896 173.74C72.0086 161.759 62.0348 147.926 54.4583 132.771L53.9688 131.615C52.9852 128.887 53.1457 125.855 54.4583 123.229C62.0354 108.074 72.0088 94.2412 83.9896 82.2604L88.4583 77.7917Z" fill="black"/>
<path fill-rule="evenodd" clip-rule="evenodd" d="M128 0C234.667 0 256 21.3333 256 128C256 234.667 234.667 256 128 256C21.3333 256 0 234.667 0 128C0 21.3333 21.3333 0 128 0ZM128 21.3333C101.757 21.3333 82.2421 22.6747 67.5 25.8542C52.9976 28.9821 44.5872 33.5795 39.0833 39.0833C33.5795 44.5872 28.9821 52.9976 25.8542 67.5C22.6747 82.2421 21.3333 101.757 21.3333 128C21.3333 154.243 22.6747 173.758 25.8542 188.5C28.9821 203.002 33.5795 211.413 39.0833 216.917C44.5872 222.421 52.9976 227.018 67.5 230.146C82.2421 233.325 101.757 234.667 128 234.667C154.243 234.667 173.758 233.325 188.5 230.146C203.002 227.018 211.413 222.421 216.917 216.917C222.421 211.413 227.018 203.002 230.146 188.5C233.325 173.758 234.667 154.243 234.667 128C234.667 101.757 233.325 82.2421 230.146 67.5C227.018 52.9976 222.421 44.5872 216.917 39.0833C211.413 33.5795 203.002 28.9821 188.5 25.8542C173.758 22.6747 154.243 21.3333 128 21.3333Z" fill="black"/>
</svg>
