<svg width="256" height="256" viewBox="0 0 256 256" fill="none" xmlns="http://www.w3.org/2000/svg">
<path d="M125.905 213.123C120.131 211.966 116.383 206.347 117.538 200.572C118.695 194.797 124.321 191.057 130.096 192.212C146.549 195.502 163.281 196.398 179.947 195.041L45.7961 60.8744C41.6305 56.7088 41.6304 49.955 45.7961 45.7894C49.9619 41.6269 56.7165 41.6248 60.881 45.7894L195.165 180.088C196.567 163.46 195.551 146.797 192.211 130.097C191.056 124.322 194.797 118.696 200.571 117.539C206.348 116.383 211.975 120.137 213.13 125.913C218.376 152.142 218.526 178.5 213.115 204.815C212.248 209.032 208.93 212.316 204.704 213.138C178.675 218.195 152.023 218.347 125.905 213.123Z" fill="black"/>
</svg>
