<svg width="256" height="256" viewBox="0 0 256 256" fill="none" xmlns="http://www.w3.org/2000/svg">
<path fill-rule="evenodd" clip-rule="evenodd" d="M128.001 106.667C157.456 106.667 181.334 130.545 181.334 160C181.334 189.455 157.456 213.333 128.001 213.333C98.5455 213.333 74.6673 189.455 74.6673 160C74.6673 130.545 98.5455 106.667 128.001 106.667ZM128.001 128C110.328 128 96.0007 142.327 96.0007 160C96.0007 177.673 110.328 192 128.001 192C145.674 192 160.001 177.673 160.001 160C160.001 142.327 145.674 128 128.001 128Z" fill="black"/>
<path fill-rule="evenodd" clip-rule="evenodd" d="M128.001 0C177.299 0 202.662 34.3658 210.563 81.7917C225.628 100.185 234.667 123.703 234.667 149.333C234.667 234.667 210.964 256 128.001 256C45.0377 256 21.334 234.667 21.334 149.333C21.334 123.706 30.3656 100.184 45.4277 81.7917C53.3286 34.3649 78.702 1.77284e-06 128.001 0ZM128.001 21.3333C108.859 21.3333 95.9921 27.7583 86.8132 37.6354C77.0976 48.0916 69.9981 64.1203 66.4694 85.3021C65.8564 88.9763 64.2879 92.4305 61.9277 95.3125C49.8786 110.028 42.6673 128.81 42.6673 149.333C42.6673 191.754 49.0051 210.125 58.5007 219.448C68.0988 228.871 86.5678 234.667 128.001 234.667C169.434 234.667 187.902 228.871 197.501 219.448C206.996 210.125 213.334 191.754 213.334 149.333C213.334 128.812 206.118 110.032 194.063 95.3125C191.703 92.4303 190.135 88.9768 189.521 85.3021C185.992 64.1181 178.892 48.0914 169.178 37.6354C160.001 27.7592 147.141 21.3333 128.001 21.3333Z" fill="black"/>
</svg>
