<svg width="256" height="256" viewBox="0 0 256 256" fill="none" xmlns="http://www.w3.org/2000/svg">
<path fill-rule="evenodd" clip-rule="evenodd" d="M128 0C165.906 0.000565599 182.223 8.98954 188.51 46.1042C243.299 54.5198 256 80.7538 256 149.333C256 238.222 234.667 256 128 256C21.3333 256 0 238.222 0 149.333C0 80.7666 12.6957 54.5249 67.4583 46.1042C73.7454 8.98524 90.0922 0.000617209 128 0ZM233.573 120.854C220.524 130.202 206.54 137.614 192 143.094V149.333C192 155.224 187.224 160 181.333 160C175.547 160 170.843 155.392 170.677 149.646C142.642 156.419 113.347 156.42 85.3125 149.646C85.1469 155.392 80.453 160 74.6667 160C68.7756 160 64 155.224 64 149.333V143.094C49.4577 137.613 35.4678 130.204 22.4167 120.854C21.7044 128.823 21.3333 138.215 21.3333 149.333C21.3333 194.358 27.4095 211.076 37.6563 219.615C43.0722 224.128 51.724 228.128 66.7708 230.833C81.8646 233.546 101.679 234.667 128 234.667C154.321 234.667 174.135 233.546 189.229 230.833C204.276 228.128 212.928 224.128 218.344 219.615C228.59 211.076 234.667 194.358 234.667 149.333C234.667 138.215 234.285 128.823 233.573 120.854ZM128 64C101.679 64 81.8646 65.1204 66.7708 67.8333C51.724 70.5382 43.0722 74.5392 37.6563 79.0521C33.049 82.8914 29.2998 88.3887 26.5521 97.3646C27.0514 97.6454 27.5382 97.9639 28 98.3333C39.2079 107.3 51.3304 114.523 64 120.052V117.333C64 111.442 68.7756 106.667 74.6667 106.667C80.5577 106.667 85.3333 111.442 85.3333 117.333V127.594C113.236 135.3 142.764 135.3 170.667 127.594V117.333C170.667 111.442 175.442 106.667 181.333 106.667C187.224 106.667 192 111.442 192 117.333V120.052C204.67 114.523 216.792 107.3 228 98.3333C228.459 97.9658 228.941 97.6444 229.438 97.3646C226.69 88.3904 222.95 82.891 218.344 79.0521C212.928 74.5392 204.276 70.5382 189.229 67.8333C174.135 65.1204 154.321 64 128 64ZM128 21.3333C102.467 21.3338 97.3514 25.8805 94.2917 30.9792C92.6743 33.6762 91.0539 37.6916 89.6563 43.7604C88.9917 43.805 88.3323 43.8585 87.6771 43.9063C99.5319 43.0438 112.911 42.6667 128 42.6667C142.842 42.6667 156.03 43.0326 167.74 43.8646C167.271 43.8312 166.796 43.7922 166.323 43.7604C164.925 37.6936 163.325 33.6757 161.708 30.9792C158.649 25.8805 153.533 21.3338 128 21.3333Z" fill="black"/>
</svg>
