<svg width="256" height="256" viewBox="0 0 256 256" fill="none" xmlns="http://www.w3.org/2000/svg">
<path fill-rule="evenodd" clip-rule="evenodd" d="M128 0C165.906 0.000565599 182.223 8.98954 188.51 46.1042C243.299 54.5198 256 80.7538 256 149.333C256 238.222 234.667 256 128 256C21.3333 256 0 238.222 0 149.333C0 80.7666 12.6957 54.5249 67.4583 46.1042C73.7454 8.98524 90.0922 0.000617209 128 0ZM83.4375 149.208C78.4629 176.731 79.0041 204.998 85.0833 232.354C85.1441 232.628 85.1799 232.904 85.2188 233.177C97.1541 234.205 111.261 234.667 128 234.667C144.734 234.667 158.838 234.204 170.771 233.177C170.81 232.903 170.856 232.629 170.917 232.354C176.996 204.997 177.527 176.731 172.552 149.208C143.331 156.597 112.659 156.599 83.4375 149.208ZM233.573 120.854C220.839 129.975 207.214 137.249 193.052 142.688C198.624 171.538 198.661 201.18 193.167 230.042C205.815 227.374 213.419 223.718 218.344 219.615C228.59 211.076 234.667 194.358 234.667 149.333C234.667 138.215 234.285 128.823 233.573 120.854ZM22.4167 120.854C21.7044 128.823 21.3333 138.215 21.3333 149.333C21.3333 194.358 27.4095 211.076 37.6563 219.615C42.5792 223.717 50.1802 227.374 62.8229 230.042C57.3287 201.181 57.3661 171.537 62.9375 142.688C48.7765 137.249 35.1494 129.976 22.4167 120.854ZM128 64C101.679 64 81.8646 65.1204 66.7708 67.8333C51.724 70.5382 43.0722 74.5392 37.6563 79.0521C33.049 82.8914 29.2998 88.3887 26.5521 97.3646C27.0514 97.6454 27.5382 97.9639 28 98.3333C86.4654 145.106 169.535 145.106 228 98.3333C228.459 97.9658 228.941 97.6444 229.438 97.3646C226.69 88.3904 222.95 82.891 218.344 79.0521C212.928 74.5392 204.276 70.5382 189.229 67.8333C174.135 65.1204 154.321 64 128 64ZM128 21.3333C102.467 21.3338 97.3514 25.8805 94.2917 30.9792C92.6743 33.6762 91.0539 37.6916 89.6563 43.7604C88.9917 43.805 88.3323 43.8585 87.6771 43.9063C99.5319 43.0438 112.911 42.6667 128 42.6667C142.842 42.6667 156.03 43.0326 167.74 43.8646C167.271 43.8312 166.796 43.7922 166.323 43.7604C164.925 37.6936 163.325 33.6757 161.708 30.9792C158.649 25.8805 153.533 21.3338 128 21.3333Z" fill="black"/>
</svg>
