<svg width="256" height="256" viewBox="0 0 256 256" fill="none" xmlns="http://www.w3.org/2000/svg">
<path fill-rule="evenodd" clip-rule="evenodd" d="M127.999 0C158.152 0 183.419 20.8562 190.197 48.9271C210.785 52.1838 227.455 67.6999 232.02 88.2396L236.979 110.552C242.533 135.547 245.333 161.082 245.333 186.687C245.332 220.446 219.427 248.56 185.781 251.312L174.364 252.24C143.509 254.764 112.49 254.764 81.6348 252.24L70.2181 251.312C36.5719 248.56 10.6671 220.446 10.666 186.687C10.666 161.082 13.4657 135.547 19.0202 110.552L23.9785 88.2396C28.5434 67.7033 45.2076 52.1873 65.791 48.9271C72.5686 20.855 97.8456 0 127.999 0ZM170.666 68.5C142.262 66.3848 113.737 66.3848 85.3327 68.5V96C85.3327 101.891 80.557 106.667 74.666 106.667C68.775 106.667 63.9993 101.891 63.9993 96V71.2812C54.4519 74.6158 47.0759 82.6869 44.8118 92.875L39.8431 115.187C34.6268 138.662 31.9993 162.64 31.9993 186.687C32.0005 209.338 49.3821 228.195 71.9577 230.042L83.3743 230.979C113.071 233.409 142.927 233.409 172.624 230.979L184.041 230.042C206.617 228.195 223.998 209.338 223.999 186.687C223.999 162.64 221.372 138.662 216.156 115.187L211.187 92.875C208.923 82.6869 201.547 74.6158 191.999 71.2812V96C191.999 101.891 187.224 106.667 181.333 106.667C175.442 106.667 170.666 101.891 170.666 96V68.5ZM127.999 21.3333C110.527 21.3333 95.5139 31.8386 88.916 46.875C114.939 45.1646 141.049 45.165 167.072 46.875C160.474 31.8406 145.47 21.3333 127.999 21.3333Z" fill="black"/>
</svg>
