<svg width="256" height="256" viewBox="0 0 256 256" fill="none" xmlns="http://www.w3.org/2000/svg">
<path d="M106.667 170.667C115.556 170.667 117.333 172.444 117.333 181.333C117.333 190.222 115.556 192 106.667 192C97.7778 192 96 190.222 96 181.333C96 172.444 97.7778 170.667 106.667 170.667Z" fill="black"/>
<path d="M149.333 170.667C158.222 170.667 160 172.444 160 181.333C160 190.222 158.222 192 149.333 192C140.444 192 138.667 190.222 138.667 181.333C138.667 172.444 140.444 170.667 149.333 170.667Z" fill="black"/>
<path d="M106.667 117.333C115.556 117.333 117.333 119.111 117.333 128C117.333 136.889 115.556 138.667 106.667 138.667C97.7778 138.667 96 136.889 96 128C96 119.111 97.7778 117.333 106.667 117.333Z" fill="black"/>
<path d="M149.333 117.333C158.222 117.333 160 119.111 160 128C160 136.889 158.222 138.667 149.333 138.667C140.444 138.667 138.667 136.889 138.667 128C138.667 119.111 140.444 117.333 149.333 117.333Z" fill="black"/>
<path d="M106.667 63.9999C115.556 63.9999 117.333 65.7777 117.333 74.6666C117.333 83.5555 115.556 85.3333 106.667 85.3333C97.7778 85.3333 96 83.5555 96 74.6666C96 65.7777 97.7778 63.9999 106.667 63.9999Z" fill="black"/>
<path d="M149.333 63.9999C158.222 63.9999 160 65.7777 160 74.6666C160 83.5555 158.222 85.3333 149.333 85.3333C140.444 85.3333 138.667 83.5555 138.667 74.6666C138.667 65.7777 140.444 63.9999 149.333 63.9999Z" fill="black"/>
<path fill-rule="evenodd" clip-rule="evenodd" d="M128 21.3333C234.667 21.3333 256 39.111 256 128L255.938 136.125C254.586 217.982 231.334 234.667 128 234.667L118.25 234.615C23.1891 233.524 1.37083 215.342 0.0625 136.125L0 128C0 39.111 21.3333 21.3333 128 21.3333ZM128 42.6666C105.906 42.6666 88.3978 43.4647 74.4167 45.3228C67.6638 100.23 67.6647 155.759 74.4167 210.667C88.398 212.525 105.905 213.333 128 213.333C150.089 213.333 167.593 212.524 181.573 210.667C188.325 155.758 188.326 100.231 181.573 45.3228C167.593 43.4657 150.089 42.6666 128 42.6666ZM52.3958 50.0416C45.7002 52.2723 41.0448 54.8951 37.6563 57.7187C27.4095 66.2576 21.3333 82.975 21.3333 128C21.3333 173.025 27.4095 189.742 37.6563 198.281C41.0443 201.104 45.7019 203.717 52.3958 205.948C46.5793 154.141 46.5785 101.848 52.3958 50.0416ZM203.594 50.0416C209.411 101.849 209.41 154.14 203.594 205.948C210.293 203.717 214.954 201.106 218.344 198.281C228.59 189.742 234.667 173.025 234.667 128C234.667 82.975 228.59 66.2576 218.344 57.7187C214.954 54.8938 210.294 52.273 203.594 50.0416Z" fill="black"/>
</svg>
