<svg width="256" height="256" viewBox="0 0 256 256" fill="none" xmlns="http://www.w3.org/2000/svg">
<path fill-rule="evenodd" clip-rule="evenodd" d="M128 0C166.611 0 194.039 2.801 213.323 11.4271C213.523 11.5167 213.728 11.6174 213.927 11.7083C214.632 12.0311 215.327 12.359 216.01 12.6979C216.357 12.8698 216.701 13.0427 217.042 13.2188C217.555 13.4841 218.061 13.7563 218.563 14.0313C218.968 14.2535 219.374 14.4693 219.771 14.6979C221.433 15.6554 223.019 16.6772 224.542 17.75C224.841 17.9609 225.133 18.1804 225.427 18.3958C226.064 18.8621 226.69 19.3349 227.302 19.8229C227.403 19.9031 227.504 19.9817 227.604 20.0625C228.279 20.6079 228.938 21.1668 229.583 21.7396C229.721 21.8621 229.863 21.9803 230 22.1042C230.713 22.7496 231.406 23.4134 232.083 24.0938C232.238 24.2486 232.389 24.4058 232.542 24.5625C233.077 25.1135 233.601 25.6761 234.115 26.25C234.28 26.4352 234.441 26.6249 234.604 26.8125C235.11 27.3929 235.61 27.9795 236.094 28.5833C236.242 28.7685 236.385 28.9584 236.531 29.1458C236.918 29.6408 237.294 30.1456 237.667 30.6563C238.173 31.3499 238.665 32.0583 239.146 32.7813C239.396 33.1577 239.652 33.5322 239.896 33.9167C240.096 34.2316 240.284 34.5546 240.479 34.875C240.814 35.4238 241.147 35.9767 241.469 36.5417C241.672 36.8997 241.874 37.2604 242.073 37.625C242.857 39.0655 243.596 40.5594 244.302 42.1042C244.558 42.6643 244.816 43.2279 245.063 43.8021C245.375 44.5308 245.683 45.2693 245.979 46.0208C246.137 46.4195 246.285 46.824 246.438 47.2292C246.682 47.8762 246.913 48.5341 247.146 49.1979C247.293 49.6153 247.441 50.0343 247.583 50.4583C248.27 52.5028 248.921 54.6202 249.51 56.8229C249.963 58.5136 250.372 60.255 250.771 62.0417C250.903 62.6335 251.03 63.2308 251.156 63.8333C251.97 67.718 252.673 71.8235 253.26 76.1667C253.293 76.4055 253.323 76.6452 253.354 76.8854C253.643 79.0792 253.909 81.3317 254.146 83.6458C254.189 84.0708 254.229 84.498 254.271 84.9271C254.61 88.4141 254.882 92.0377 255.115 95.8021C255.247 97.9405 255.369 100.124 255.469 102.354C255.531 103.736 255.575 105.135 255.625 106.552C255.699 108.648 255.763 110.783 255.813 112.958C255.842 114.24 255.875 115.534 255.896 116.844C255.954 120.455 256 124.172 256 128C256 131.868 255.955 135.624 255.896 139.271C255.88 140.258 255.854 141.237 255.833 142.208C255.776 144.912 255.699 147.554 255.604 150.135C255.564 151.237 255.527 152.327 255.479 153.406C255.376 155.745 255.243 158.033 255.104 160.271C254.884 163.829 254.639 167.263 254.323 170.573C254.266 171.174 254.207 171.771 254.146 172.365C253.929 174.478 253.687 176.539 253.427 178.552C253.341 179.221 253.248 179.884 253.156 180.542C252.595 184.581 251.937 188.414 251.177 192.052C251.056 192.634 250.929 193.21 250.802 193.781C250.399 195.597 249.99 197.367 249.531 199.083C248.601 202.568 247.539 205.845 246.365 208.938C246.25 209.238 246.137 209.537 246.021 209.833C244.807 212.925 243.457 215.817 241.969 218.531C241.835 218.774 241.709 219.02 241.573 219.26C235.654 229.747 227.547 237.44 216.594 243C216.504 243.046 216.413 243.09 216.323 243.135C196.916 252.882 168.663 256 128 256C87.3308 256 59.0734 252.885 39.6667 243.135C39.5764 243.09 39.4857 243.046 39.3958 243C28.4448 237.44 20.3347 229.747 14.4167 219.26C14.281 219.02 14.1542 218.774 14.0208 218.531C12.5332 215.817 11.1822 212.925 9.96875 209.833C9.84711 209.524 9.73359 209.209 9.61458 208.896C9.31727 208.112 9.02069 207.319 8.73958 206.51C8.65543 206.269 8.57231 206.025 8.48958 205.781C7.76259 203.634 7.07808 201.406 6.45833 199.083C5.99998 197.367 5.59016 195.597 5.1875 193.781C5.06077 193.21 4.93388 192.634 4.8125 192.052C4.01445 188.23 3.3293 184.192 2.75 179.927C2.70401 179.588 2.65927 179.248 2.61458 178.906C2.33567 176.775 2.07344 174.589 1.84375 172.344C1.78381 171.758 1.73378 171.167 1.67708 170.573C1.35411 167.192 1.09815 163.682 0.875 160.042C0.742366 157.877 0.620667 155.666 0.520833 153.406C0.463793 152.116 0.4114 150.811 0.364583 149.49C0.289419 147.367 0.227039 145.204 0.177083 143C0.146794 141.664 0.115202 140.314 0.09375 138.948C0.038109 135.402 0 131.754 0 128C2.4336e-08 124.172 0.0358505 120.455 0.09375 116.844C0.114744 115.535 0.147947 114.24 0.177083 112.958C0.22655 110.783 0.290551 108.648 0.364583 106.552C0.414644 105.135 0.459012 103.735 0.520833 102.354C0.62065 100.124 0.743069 97.9405 0.875 95.8021C1.10726 92.0378 1.37929 88.414 1.71875 84.9271C1.76052 84.498 1.80028 84.0708 1.84375 83.6458C2.0805 81.3318 2.34632 79.0791 2.63542 76.8854C2.66707 76.6452 2.69687 76.4054 2.72917 76.1667C3.31666 71.8238 4.01948 67.7178 4.83333 63.8333C4.95972 63.2301 5.097 62.6342 5.22917 62.0417C5.62771 60.255 6.03686 58.5136 6.48958 56.8229C7.02219 54.8339 7.59714 52.9119 8.20833 51.0521L8.59375 49.8958C8.68377 49.6331 8.78331 49.3747 8.875 49.1146C9.09924 48.4783 9.32812 47.85 9.5625 47.2292C9.71501 46.8252 9.85356 46.4183 10.0104 46.0208C10.3075 45.2681 10.6246 44.5319 10.9375 43.8021C11.1836 43.2279 11.4418 42.6643 11.6979 42.1042C12.4036 40.5609 13.1331 39.0641 13.9167 37.625C14.0209 37.4336 14.1235 37.2417 14.2292 37.0521L14.8542 35.9583C15.0675 35.5921 15.2916 35.2343 15.5104 34.875C15.7056 34.5546 15.8941 34.2316 16.0938 33.9167C16.3374 33.5322 16.5933 33.1577 16.8438 32.7813C17.3247 32.0584 17.8168 31.3498 18.3229 30.6563C18.6955 30.1456 19.0718 29.6408 19.4583 29.1458C19.6047 28.9584 19.7475 28.7685 19.8958 28.5833C20.4072 27.945 20.9435 27.331 21.4792 26.7188C21.6139 26.5648 21.7387 26.4023 21.875 26.25C22.3883 25.6761 22.9123 25.1135 23.4479 24.5625C23.5729 24.434 23.6967 24.3044 23.8229 24.1771L24 24C24.6474 23.3526 25.3097 22.7199 25.9896 22.1042C26.1263 21.9803 26.2682 21.8621 26.4063 21.7396C27.0514 21.1668 27.7109 20.6079 28.3854 20.0625C28.4853 19.9817 28.587 19.9031 28.6875 19.8229C29.2995 19.3349 29.9262 18.8621 30.5625 18.3958C30.8566 18.1803 31.1486 17.9609 31.4479 17.75C32.9706 16.677 34.5568 15.6556 36.2188 14.6979C36.6156 14.4692 37.0221 14.2536 37.4271 14.0313C37.9282 13.7562 38.4343 13.4841 38.9479 13.2188C39.2887 13.0427 39.6328 12.8698 39.9792 12.6979C59.3763 3.07283 87.5516 0 128 0ZM85.2396 138.667C84.5593 183.288 79.2757 211.629 63.8542 229.26C65.0275 229.555 66.2363 229.873 67.5 230.146C80.1712 232.879 96.3686 234.241 117.333 234.573V138.667H85.2396ZM138.667 138.667V234.573C159.631 234.241 175.829 232.879 188.5 230.146C189.76 229.874 190.965 229.554 192.135 229.26C176.717 211.629 171.441 183.283 170.76 138.667H138.667ZM21.4271 138.667C21.4286 138.76 21.4255 138.854 21.4271 138.948C21.764 159.577 23.1123 175.575 25.7813 188.135C25.8287 188.358 25.8684 188.582 25.9167 188.802C26.9233 193.412 28.1079 197.392 29.3958 200.865C30.3262 203.374 31.3373 205.655 32.4479 207.74C34.262 211.152 36.258 213.885 38.3958 216.156C39.0002 216.796 39.6233 217.411 40.2708 218C41.0181 218.68 41.8133 219.341 42.6667 219.99C48.8816 215.261 53.263 208.806 56.5625 199.177C61.1832 185.69 63.4608 166.546 63.9063 138.667H21.4271ZM192.094 138.667C192.539 166.546 194.817 185.69 199.438 199.177C202.736 208.802 207.111 215.261 213.323 219.99C214.177 219.341 214.971 218.68 215.719 218C216.367 217.411 216.989 216.796 217.594 216.156C219.733 213.885 221.727 211.153 223.542 207.74C224.653 205.654 225.663 203.374 226.594 200.865C227.882 197.391 229.066 193.413 230.073 188.802C230.121 188.582 230.161 188.358 230.208 188.135C232.878 175.575 234.226 159.578 234.563 138.948C234.564 138.854 234.561 138.76 234.563 138.667H192.094ZM42.6771 35.9896C41.7109 36.7226 40.8209 37.4771 39.9896 38.25C39.5084 38.6976 39.0297 39.1485 38.5729 39.625C33.2996 45.1359 28.883 53.4571 25.8542 67.5C23.1427 80.0724 21.773 96.1161 21.4271 116.844V117.333H63.9063C63.461 89.4497 61.1836 70.3032 56.5625 56.8125C53.2633 47.1821 48.8911 40.7183 42.6771 35.9896ZM117.333 21.4167C96.3685 21.749 80.1712 23.1214 67.5 25.8542C66.2416 26.1256 65.0334 26.4256 63.8646 26.7188C79.2874 44.3523 84.5596 72.7081 85.2396 117.333H117.333V21.4167ZM138.667 117.333H170.76C171.44 72.7124 176.706 44.3527 192.125 26.7188C190.959 26.4264 189.755 26.1248 188.5 25.8542C175.829 23.1214 159.631 21.749 138.667 21.4167V117.333ZM213.313 35.9896C207.102 40.7179 202.736 47.1855 199.438 56.8125C194.898 70.0648 192.606 88.776 192.104 115.865L192.094 117.333H234.563C234.561 117.236 234.564 117.139 234.563 117.042C234.224 96.3598 232.871 80.3343 230.188 67.7604C230.153 67.6 230.118 67.4404 230.083 67.2813C227.055 53.368 222.664 45.1068 217.417 39.625C216.961 39.1503 216.49 38.696 216.01 38.25C215.177 37.4753 214.281 36.7242 213.313 35.9896Z" fill="black"/>
</svg>
