<svg width="256" height="256" viewBox="0 0 256 256" fill="none" xmlns="http://www.w3.org/2000/svg">
<path fill-rule="evenodd" clip-rule="evenodd" d="M128 10.6667C234.667 10.6667 256 30.2223 256 128C256 225.778 234.667 245.333 128 245.333C21.3333 245.333 0 225.778 0 128C3.69913e-07 30.2223 21.3333 10.6667 128 10.6667ZM117.333 64.4272V32.0834C96.2977 32.3877 79.961 33.6414 67.1354 36.1772C52.3598 39.0987 43.8549 43.4109 38.4167 48.3959C34.0067 52.4387 30.3962 58.0694 27.6354 66.5938C57.0602 72.156 64.01 88.1765 64.0104 128L63.9688 132.875C63.3858 169.146 55.8255 184.065 27.6354 189.396C30.3966 197.926 34.005 203.56 38.4167 207.604C43.8549 212.589 52.3598 216.901 67.1354 219.823C79.961 222.359 96.2978 223.602 117.333 223.906V191.552C90.9768 189.134 85.3333 175.503 85.3333 128C85.3333 80.496 90.9752 66.8445 117.333 64.4272ZM138.667 64.4272C165.025 66.8445 170.667 80.496 170.667 128C170.667 175.503 165.023 189.134 138.667 191.552V223.906C159.702 223.602 176.039 222.359 188.865 219.823C203.64 216.901 212.145 212.589 217.583 207.604C221.996 203.559 225.593 197.919 228.354 189.385C198.943 183.822 192.011 167.817 192.01 128C192.011 88.1866 198.94 72.1624 228.344 66.5938C225.583 58.0728 221.992 52.4378 217.583 48.3959C212.145 43.4109 203.64 39.0987 188.865 36.1772C176.039 33.6414 159.702 32.3877 138.667 32.0834V64.4272ZM128 85.3334C119.792 85.3334 115.349 86.0086 112.896 86.8022C111.22 87.3451 111.202 87.655 111.083 87.8334C110.497 88.7131 109.132 91.4601 108.115 98.5313C107.114 105.49 106.667 114.939 106.667 128C106.667 141.061 107.114 150.51 108.115 157.469C109.132 164.54 110.497 167.287 111.083 168.167C111.202 168.345 111.22 168.655 112.896 169.198C115.349 169.992 119.792 170.667 128 170.667C136.208 170.667 140.651 169.992 143.104 169.198C144.78 168.655 144.798 168.345 144.917 168.167C145.503 167.287 146.868 164.54 147.885 157.469C148.886 150.51 149.333 141.061 149.333 128C149.333 114.939 148.886 105.49 147.885 98.5313C146.868 91.4601 145.503 88.7131 144.917 87.8334C144.798 87.655 144.78 87.3451 143.104 86.8022C140.651 86.0086 136.208 85.3334 128 85.3334ZM23.3542 87.4688C22.0394 98.1486 21.3333 111.407 21.3333 128C21.3333 144.587 22.0402 157.843 23.3542 168.521H23.3854C31.2634 167.063 34.5968 165.112 36.125 163.802C38.8004 161.505 42.6767 155.318 42.6771 128C42.6767 100.683 38.8004 94.4955 36.125 92.198C34.5968 90.8884 31.2633 88.9372 23.3854 87.4792L23.3542 87.4688ZM232.635 87.4792C224.76 88.9355 221.427 90.8879 219.896 92.198C217.22 94.4913 213.344 100.662 213.344 128C213.344 155.338 217.22 161.509 219.896 163.802C221.236 164.948 223.952 166.582 229.885 167.948L232.635 168.521C233.95 157.843 234.667 144.588 234.667 128C234.667 111.407 233.95 98.1592 232.635 87.4792Z" fill="black"/>
</svg>
