<svg width="256" height="256" viewBox="0 0 256 256" fill="none" xmlns="http://www.w3.org/2000/svg">
<path d="M53.4792 62.2498C54.4475 56.4401 59.9404 52.5126 65.75 53.479C71.5598 54.4473 75.4872 59.9402 74.5208 65.7498C67.6519 106.963 67.6519 149.036 74.5208 190.25C75.4872 196.059 71.5598 201.552 65.75 202.521C59.9404 203.487 54.4475 199.56 53.4792 193.75C46.224 150.217 46.224 105.783 53.4792 62.2498Z" fill="black"/>
<path d="M85.4792 62.2498C86.4475 56.4401 91.9404 52.5126 97.75 53.479C103.56 54.4473 107.487 59.9402 106.521 65.7498C99.6519 106.963 99.6519 149.036 106.521 190.25C107.487 196.059 103.56 201.552 97.75 202.521C91.9404 203.487 86.4475 199.56 85.4792 193.75C78.224 150.217 78.224 105.783 85.4792 62.2498Z" fill="black"/>
<path d="M117.479 62.2498C118.447 56.4401 123.94 52.5126 129.75 53.479C135.56 54.4473 139.487 59.9402 138.521 65.7498C131.652 106.963 131.652 149.036 138.521 190.25C139.487 196.059 135.56 201.552 129.75 202.521C123.94 203.487 118.447 199.56 117.479 193.75C110.224 150.217 110.224 105.783 117.479 62.2498Z" fill="black"/>
<path fill-rule="evenodd" clip-rule="evenodd" d="M117.333 10.6665C196.26 10.6665 224.205 23.4103 232.052 79.7498C251.091 86.2232 256 100.104 256 128L255.958 132.062C255.473 157.259 250.139 170.087 232.052 176.239C224.207 232.588 196.264 245.333 117.333 245.333C19.5556 245.333 0 225.778 0 128C3.39087e-07 30.2221 19.5556 10.6665 117.333 10.6665ZM117.333 31.9998C93.3127 31.9998 75.5755 33.2301 62.25 36.104C49.1643 38.9264 41.8094 43.0237 37.0833 47.7498C32.3572 52.4759 28.2599 59.8308 25.4375 72.9165C22.5636 86.242 21.3333 103.979 21.3333 128C21.3333 152.02 22.5636 169.758 25.4375 183.083C28.2599 196.169 32.3572 203.524 37.0833 208.25C41.8094 212.976 49.1643 217.073 62.25 219.896C75.5755 222.77 93.3127 224 117.333 224C141.354 224 159.091 222.77 172.417 219.896C185.502 217.073 192.857 212.976 197.583 208.25C202.309 203.524 206.407 196.169 209.229 183.083C212.103 169.758 213.333 152.02 213.333 128C213.333 103.979 212.103 86.242 209.229 72.9165C206.407 59.8308 202.309 52.4759 197.583 47.7498C192.857 43.0237 185.502 38.9264 172.417 36.104C159.091 33.2301 141.354 31.9998 117.333 31.9998Z" fill="black"/>
</svg>
