<svg width="256" height="256" viewBox="0 0 256 256" fill="none" xmlns="http://www.w3.org/2000/svg">
<path fill-rule="evenodd" clip-rule="evenodd" d="M117.333 10.6665C196.26 10.6665 224.205 23.4103 232.052 79.7498C251.091 86.2232 256 100.104 256 128L255.958 132.062C255.473 157.259 250.139 170.087 232.052 176.239C224.207 232.588 196.264 245.333 117.333 245.333C19.5556 245.333 0 225.778 0 128C3.39087e-07 30.2221 19.5556 10.6665 117.333 10.6665ZM117.333 31.9998C93.3127 31.9998 75.5755 33.2301 62.25 36.104C49.1643 38.9264 41.8094 43.0237 37.0833 47.7498C32.3572 52.4759 28.2599 59.8308 25.4375 72.9165C22.5636 86.242 21.3333 103.979 21.3333 128C21.3333 152.02 22.5636 169.758 25.4375 183.083C28.2599 196.169 32.3572 203.524 37.0833 208.25C41.8094 212.976 49.1643 217.073 62.25 219.896C75.5755 222.77 93.3127 224 117.333 224C141.354 224 159.091 222.77 172.417 219.896C185.502 217.073 192.857 212.976 197.583 208.25C202.309 203.524 206.407 196.169 209.229 183.083C212.103 169.758 213.333 152.02 213.333 128C213.333 103.979 212.103 86.242 209.229 72.9165C206.407 59.8308 202.309 52.4759 197.583 47.7498C192.857 43.0237 185.502 38.9264 172.417 36.104C159.091 33.2301 141.354 31.9998 117.333 31.9998Z" fill="black"/>
</svg>
