<svg width="256" height="256" viewBox="0 0 256 256" fill="none" xmlns="http://www.w3.org/2000/svg">
<path fill-rule="evenodd" clip-rule="evenodd" d="M128.001 32.0009C199.111 32.001 213.335 48.0013 213.335 128.001C213.335 130.76 213.308 133.444 213.272 136.053C226.167 144.659 234.668 159.334 234.668 176.001C234.667 202.51 213.177 224 186.668 224.001H167.47C163.869 249.92 153.244 256 126.407 256.001L120.074 255.865C97.8586 254.857 88.6694 247.772 85.3658 224.001H69.3345C42.8252 224.001 21.3351 202.51 21.3345 176.001C21.3345 159.337 29.8279 144.659 42.7199 136.053C42.6843 133.444 42.6678 130.76 42.6678 128.001C42.6678 48.0009 56.8901 32.0009 128.001 32.0009ZM106.928 224.001C107.876 229.219 108.98 231.402 109.491 232.168C109.608 232.346 109.634 232.658 111.303 233.199C113.757 233.992 118.203 234.668 126.407 234.668C134.614 234.667 139.059 233.992 141.512 233.199C143.184 232.657 143.205 232.346 143.324 232.168C143.835 231.401 144.939 229.218 145.887 224.001H106.928ZM128.001 53.3342C91.6609 53.3342 80 58.1207 74.6158 64.1779C71.8671 67.2704 68.9847 72.6542 66.9491 83.2717C64.8936 93.9962 64.0012 108.375 64.0012 128.001C64.0012 130.676 64.0192 133.262 64.0533 135.761C64.1515 142.991 60.577 149.778 54.5637 153.793C47.345 158.611 42.6678 166.767 42.6678 176.001C42.6684 190.728 54.6073 202.668 69.3345 202.668H186.668C201.395 202.667 213.334 190.728 213.335 176.001C213.335 166.771 208.653 158.625 201.428 153.803C195.412 149.788 191.84 142.993 191.939 135.761C191.974 133.202 192.001 130.625 192.001 128.001C192.001 108.375 191.109 93.9962 189.053 83.2717C187.018 72.6554 184.135 67.2706 181.387 64.1779C176.002 58.1207 164.341 53.3343 128.001 53.3342Z" fill="black"/>
<path d="M55.3449 2.54252C61.0332 1.02037 66.8818 4.3968 68.4074 10.0842C69.931 15.773 66.5536 21.6206 60.8658 23.1467C51.8228 25.5697 43.5794 30.3393 36.9595 36.9592C30.3396 43.5791 25.5701 51.8225 23.147 60.8654C21.621 66.5533 15.7733 69.9307 10.0845 68.4071C4.39711 66.8815 1.02065 61.0329 2.54284 55.3446C5.93512 42.6845 12.5979 31.1333 21.8658 21.8654C31.1336 12.5976 42.6848 5.93479 55.3449 2.54252Z" fill="black"/>
<path d="M187.595 10.0842C189.121 4.39656 194.969 1.01989 200.657 2.54252C213.317 5.9349 224.869 12.5979 234.137 21.8654C243.404 31.1331 250.067 42.6849 253.46 55.3446C254.981 61.0324 251.605 66.8812 245.918 68.4071C240.229 69.9315 234.382 66.5534 232.855 60.8654C230.432 51.823 225.662 43.5789 219.043 36.9592C212.423 30.3396 204.179 25.5698 195.137 23.1467C189.448 21.6209 186.071 15.7734 187.595 10.0842Z" fill="black"/>
</svg>
