<svg width="256" height="256" viewBox="0 0 256 256" fill="none" xmlns="http://www.w3.org/2000/svg">
<path fill-rule="evenodd" clip-rule="evenodd" d="M167.469 224C163.868 249.92 153.244 256 126.406 256L120.073 255.865C97.8571 254.856 88.6681 247.772 85.3646 224H53.3333C23.8781 224 0 200.122 0 170.667C0 152.636 8.9482 136.695 22.6458 127.042C21.7259 117.954 21.3333 107.657 21.3333 96C21.3333 16 39.1111 3.81498e-07 128 0C216.889 0 234.667 16 234.667 96C234.667 107.658 234.264 117.954 233.344 127.042C247.045 136.694 256 152.633 256 170.667C256 200.122 232.122 224 202.667 224H167.469ZM106.927 224C107.875 229.219 108.979 231.401 109.49 232.167C109.608 232.345 109.629 232.656 111.302 233.198C113.755 233.991 118.2 234.667 126.406 234.667C134.613 234.667 139.058 233.991 141.51 233.198C143.184 232.655 143.204 232.345 143.323 232.167C143.834 231.4 144.938 229.217 145.885 224H106.927ZM128 21.3333C106.154 21.3333 90.014 22.3351 77.8958 24.6875C65.8997 27.0164 59.4788 30.3675 55.6042 33.8542C47.8982 40.7895 42.6667 55.1802 42.6667 96C42.6667 107.226 43.0514 116.759 43.875 124.896C44.6494 132.557 41.2315 140.043 34.9375 144.479C26.6669 150.308 21.3333 159.866 21.3333 170.667C21.3333 188.34 35.6602 202.667 53.3333 202.667H202.667C220.34 202.667 234.667 188.34 234.667 170.667C234.667 159.87 229.338 150.311 221.063 144.479C214.766 140.043 211.34 132.559 212.115 124.896C212.733 118.783 213.112 111.888 213.26 104.094L213.333 96C213.333 55.1802 208.102 40.7895 200.396 33.8542C196.521 30.3675 190.1 27.0164 178.104 24.6875C165.986 22.3351 149.846 21.3333 128 21.3333Z" fill="black"/>
</svg>
