<svg width="256" height="256" viewBox="0 0 256 256" fill="none" xmlns="http://www.w3.org/2000/svg">
<path fill-rule="evenodd" clip-rule="evenodd" d="M127.998 0C170.487 0.000240545 180.451 8.12584 181.248 47.6771C181.162 47.6515 181.074 47.6295 180.987 47.6042C206.883 55.1836 213.331 73.1115 213.331 112C213.331 112.143 213.321 112.285 213.321 112.427C218.229 114.666 222.976 116.881 227.227 118.938C238.353 124.325 245.058 135.881 244.144 148.208L243.269 158.802C242.256 169.895 240.809 182.108 238.821 192C236.203 205.026 231.121 221.505 226.8 234.479C228.328 234.597 229.906 234.667 231.529 234.667C235.671 234.667 239.608 234.254 243.206 233.521C248.976 232.348 254.602 236.075 255.779 241.844C256.955 247.616 253.229 253.251 247.456 254.427C242.423 255.452 237.063 256 231.529 256C218.8 256 206.507 253.068 197.019 247.625C187.53 253.068 175.238 256 162.508 256C149.779 256 137.486 253.068 127.998 247.625C118.509 253.068 106.217 256 93.4874 256C80.758 256 68.4653 253.068 58.9769 247.625C49.4884 253.067 37.1953 256 24.4665 256C18.9321 256 13.573 255.452 8.53944 254.427C2.76803 253.251 -0.958724 247.616 0.216522 241.844C1.39349 236.075 7.02022 232.349 12.7894 233.521C16.3879 234.254 20.3246 234.666 24.4665 234.667C26.0926 234.667 27.675 234.597 29.2061 234.479C25.4337 223.153 21.0838 209.153 18.2999 197.115L17.1957 192C14.5455 178.813 12.8609 161.499 11.8728 148.208C11.0151 136.649 16.8455 125.773 26.7478 120.021L28.7894 118.938C33.0341 116.884 37.7651 114.662 42.6644 112.427C42.6643 112.285 42.6644 112.143 42.6644 112C42.6644 73.0762 49.1264 55.1508 75.0811 47.5833C74.9678 47.6164 74.8499 47.6436 74.7374 47.6771C75.5336 8.12607 85.5095 0.000403319 127.998 0ZM128.008 107.219C117.264 109.72 92.4371 115.75 76.4978 121.427C64.8636 125.571 49.9411 132.408 38.0811 138.146C34.793 139.737 32.8895 143.075 33.154 146.635C34.1323 159.791 35.7396 175.983 38.1124 187.792C40.4935 199.638 45.3115 215.375 49.6332 228.313L49.6436 228.333C50.5172 227.766 51.3114 227.199 51.9978 226.604L52.7686 226C56.7404 223.15 62.2078 223.348 65.9665 226.604C70.9 230.879 80.8219 234.666 93.4874 234.667C106.152 234.667 116.074 230.879 121.008 226.604L121.789 226C125.761 223.15 131.229 223.348 134.987 226.604C139.921 230.879 149.843 234.666 162.508 234.667C175.174 234.667 185.095 230.879 190.029 226.604L190.81 226C194.781 223.152 200.24 223.351 203.998 226.604C204.687 227.201 205.484 227.775 206.362 228.344L206.383 228.313C210.705 215.374 215.523 199.637 217.904 187.792C220.277 175.983 221.884 159.791 222.862 146.635C223.126 143.078 221.218 139.738 217.935 138.146C206.077 132.408 191.153 125.572 179.519 121.427C163.584 115.751 138.759 109.722 128.008 107.219ZM127.998 64C110.56 64 97.8232 64.7262 88.3519 66.3854C78.9019 68.0416 74.42 70.3438 72.1124 72.2188C68.6854 75.0039 64.926 81.1029 64.154 103.25C65.9224 102.568 67.6615 101.932 69.3415 101.333C86.6932 95.1531 112.877 88.8302 123.394 86.3854C126.431 85.6804 129.585 85.6793 132.623 86.3854C143.146 88.832 169.328 95.1541 186.675 101.333C188.343 101.928 190.065 102.562 191.821 103.24C191.049 81.0998 187.31 75.0031 183.883 72.2188C181.575 70.3438 177.093 68.0415 167.644 66.3854C158.172 64.7263 145.435 64 127.998 64ZM127.998 21.3333C117.314 21.3334 110.24 21.8973 105.414 22.9375C100.854 23.9216 99.8163 25.0142 99.7478 25.0833C99.6727 25.1575 98.5832 26.2007 97.6019 30.75C96.9057 33.979 96.4389 38.2145 96.1957 43.8646C105.265 43.0085 115.793 42.6667 127.998 42.6667C140.188 42.6667 150.707 43.0108 159.769 43.8646C159.525 38.215 159.09 33.9788 158.394 30.75C157.409 26.1873 156.317 25.1519 156.248 25.0833C156.174 25.0084 155.13 23.9188 150.581 22.9375C145.756 21.8974 138.682 21.3334 127.998 21.3333Z" fill="black"/>
</svg>
