<svg width="256" height="256" viewBox="0 0 256 256" fill="none" xmlns="http://www.w3.org/2000/svg">
<path d="M128 0C148.451 1.02436e-07 168.777 1.89893 189.094 4.77083C215.911 8.56253 236.353 29.6511 241.094 55.7292C251.068 110.59 250.571 166.843 239.636 221.521L239.229 223.583C235.472 242.353 213.561 250.948 198.042 239.74L133.49 193.125C130.212 190.758 125.789 190.758 122.511 193.125L57.9586 239.74C42.4395 250.948 20.5283 242.353 16.7711 223.583L16.3649 221.521C5.4293 166.843 4.93221 110.59 14.9065 55.7292C19.648 29.6511 40.0897 8.56251 66.9065 4.77083C87.2234 1.89893 107.55 -9.91362e-08 128 0ZM128 21.3333C108.849 21.3333 89.5715 23.1043 69.8961 25.8854C52.7478 28.3094 39.0977 41.9334 35.8961 59.5417C26.4026 111.756 26.874 165.294 37.2815 217.333L37.6878 219.396C38.3972 222.941 42.5379 224.564 45.469 222.448L110.021 175.833C120.756 168.081 135.245 168.081 145.979 175.833L210.532 222.448C213.463 224.564 217.603 222.941 218.313 219.396L218.719 217.333C229.127 165.294 229.598 111.756 220.104 59.5417C216.903 41.9334 203.253 28.3094 186.104 25.8854C166.429 23.1043 147.152 21.3333 128 21.3333Z" fill="black"/>
</svg>
