<svg width="256" height="256" viewBox="0 0 256 256" fill="none" xmlns="http://www.w3.org/2000/svg">
<path d="M96.0007 128C101.892 128 106.667 132.776 106.667 138.667V202.667C106.667 208.558 101.892 213.333 96.0007 213.333C90.1096 213.333 85.334 208.558 85.334 202.667V138.667C85.334 132.776 90.1096 128 96.0007 128Z" fill="black"/>
<path d="M160.001 128C165.892 128 170.667 132.776 170.667 138.667V202.667C170.667 208.558 165.892 213.333 160.001 213.333C154.11 213.333 149.334 208.558 149.334 202.667V138.667C149.334 132.776 154.11 128 160.001 128Z" fill="black"/>
<path fill-rule="evenodd" clip-rule="evenodd" d="M132.063 0.0625C156.487 0.802085 169.249 8.70254 175.615 35.0729C223.653 43.3271 234.667 70.5353 234.667 144L234.615 152.531C233.489 238.482 214.112 256 128.001 256L119.876 255.948C38.0182 254.765 21.334 234.417 21.334 144C21.334 70.5574 32.3432 43.3558 80.3444 35.0938C87.0529 7.27236 100.908 0 128.001 0L132.063 0.0625ZM212.459 114.198C157.374 97.6094 98.6164 97.6074 43.5319 114.198C42.9415 122.812 42.6673 132.674 42.6673 144C42.6673 166.933 43.7844 183.867 46.3965 196.583C48.9712 209.117 52.6914 215.997 56.7819 220.292C60.7859 224.495 67.0405 228.218 78.5423 230.823C90.3488 233.497 106.225 234.667 128.001 234.667C149.776 234.667 165.653 233.497 177.459 230.823C188.961 228.218 195.215 224.495 199.219 220.292C203.31 215.997 207.03 209.117 209.605 196.583C212.217 183.867 213.334 166.933 213.334 144C213.334 132.674 213.049 122.812 212.459 114.198ZM128.001 53.3333C106.225 53.3333 90.3488 54.5033 78.5423 57.1771C67.0405 59.7823 60.7859 63.5051 56.7819 67.7083C52.7163 71.9773 49.011 78.7982 46.4382 91.1875C99.8561 76.8308 156.134 76.8326 209.553 91.1875C206.98 78.7995 203.285 71.977 199.219 67.7083C195.215 63.5051 188.961 59.7823 177.459 57.1771C165.653 54.5033 149.776 53.3333 128.001 53.3333ZM128.001 21.3333C118.017 21.3333 112.891 22.513 110.063 23.8542C108.141 24.766 106.186 26.2003 104.084 30.8229C103.827 31.3887 103.565 31.99 103.313 32.6354C110.861 32.202 119.072 32 128.001 32L136.126 32.0521C141.962 32.1364 147.466 32.3274 152.657 32.625C152.409 31.9865 152.172 31.3829 151.917 30.8229C149.816 26.2003 147.86 24.766 145.938 23.8542C143.111 22.5129 137.984 21.3333 128.001 21.3333Z" fill="black"/>
</svg>
