<svg width="256" height="256" viewBox="0 0 256 256" fill="none" xmlns="http://www.w3.org/2000/svg">
<path fill-rule="evenodd" clip-rule="evenodd" d="M128.958 0C150.293 7.32935e-08 214.29 0.00201797 235.625 21.3333C254.871 40.5799 260.305 85.8651 249.438 102.375C253.614 109.981 256 118.71 256 128V197.333C256 206.252 251.599 214.117 244.875 218.958C242.274 223.966 239.192 228.433 235.625 232C214.289 253.33 150.293 253.333 128.958 253.333C107.622 253.333 43.6259 253.33 22.2917 232C12.1678 221.874 5.43777 204.538 2.86458 187.979C1.04685 184.375 0 180.313 0 176V136.937C0 129.873 1.14088 122.848 3.375 116.146L7.53125 103.656C-4.31251 88.3557 2.52003 41.1075 22.2917 21.3333C43.6245 0.00138219 107.622 2.5373e-08 128.958 0ZM85.3333 192V197.333C85.3333 212.061 73.3943 224 58.6667 224C45.5394 224 34.6434 214.512 32.4271 202.021C31.2389 202.283 30.0217 202.459 28.7813 202.562C31.2592 208.764 34.2779 213.818 37.375 216.917C39.2445 218.785 43.5513 221.469 51.4896 224.021C59.0984 226.466 68.3406 228.259 78.2708 229.5C98.134 231.983 118.261 232 128.958 232C139.656 232 159.782 231.983 179.646 229.5C189.578 228.258 198.827 226.467 206.438 224.021C210.376 222.754 213.414 221.445 215.708 220.229C207.907 215.576 202.667 207.077 202.667 197.333V192H175.958C171.092 198.465 163.382 202.667 154.667 202.667C145.952 202.667 138.241 198.465 133.375 192H85.3333ZM229.375 110.406C186.144 116.012 72.0988 116.055 27.7083 110.542L23.6146 122.896C22.1056 127.423 21.3333 132.166 21.3333 136.937V176C21.3333 178.946 23.7211 181.333 26.6667 181.333C29.6122 181.333 32 178.946 32 176V149.333C32 143.442 36.7756 138.667 42.6667 138.667C48.5577 138.667 53.3333 143.442 53.3333 149.333V197.333C53.3333 200.279 55.7211 202.667 58.6667 202.667C61.6122 202.667 64 200.279 64 197.333V170.667C64 147.103 83.1025 128 106.667 128H112C132.619 128 149.333 144.715 149.333 165.333V176C149.333 178.946 151.721 181.333 154.667 181.333C157.612 181.333 160 178.946 160 176V149.333C160 131.66 174.327 117.333 192 117.333C209.673 117.333 224 131.66 224 149.333V197.333C224 200.279 226.388 202.667 229.333 202.667C232.279 202.667 234.667 200.279 234.667 197.333V128C234.667 121.496 232.709 115.457 229.375 110.406ZM106.667 149.333C94.8846 149.333 85.3333 158.885 85.3333 170.667H128V165.333C128 156.497 120.837 149.333 112 149.333H106.667ZM192 138.667C186.109 138.667 181.333 143.442 181.333 149.333V170.667H202.667V149.333C202.667 143.442 197.891 138.667 192 138.667ZM128.958 21.3333C118.261 21.3333 98.1349 21.3504 78.2708 23.8333C68.3396 25.0749 59.099 26.8667 51.4896 29.3125C43.548 31.8653 39.2437 34.5483 37.375 36.4167C31.3548 42.4384 25.563 55.8205 23.6354 70.7292C22.7199 77.8132 22.8994 83.7652 23.6771 87.7708C23.7226 88.0051 23.7776 88.2224 23.8229 88.4271C24.9027 88.6197 26.1817 88.8326 27.6667 89.0417C33.9832 89.9306 42.6534 90.7237 53.1563 91.375C74.0804 92.6726 100.948 93.3333 128 93.3333C155.051 93.3333 181.92 92.6725 202.844 91.375C213.349 90.7235 222.027 89.9308 228.344 89.0417C229.947 88.816 231.306 88.5914 232.438 88.3854C232.529 88.0475 232.645 87.6696 232.74 87.2396C233.638 83.1639 233.975 77.1944 233.26 70.1562C231.748 55.2565 226.318 42.1932 220.542 36.4167C218.673 34.5486 214.374 31.8643 206.438 29.3125C198.827 26.8664 189.578 25.0749 179.646 23.8333C159.781 21.3505 139.656 21.3333 128.958 21.3333Z" fill="black"/>
</svg>
