<svg width="256" height="256" viewBox="0 0 256 256" fill="none" xmlns="http://www.w3.org/2000/svg">
<path d="M164 119.667C168.6 115.987 175.32 116.733 179 121.333C182.68 125.933 181.933 132.653 177.333 136.333C160.622 149.703 146.291 165.8 134.948 183.948L126.375 197.656C124.511 200.637 121.294 202.507 117.781 202.656C114.269 202.804 110.911 201.208 108.802 198.396L104.333 192.448C97.4232 183.235 88.9988 175.263 79.4167 168.875C74.515 165.607 73.1906 158.985 76.4583 154.083C79.7261 149.182 86.3484 147.857 91.25 151.125C100.617 157.37 109.053 164.879 116.365 173.406L116.854 172.635C129.471 152.448 145.411 134.538 164 119.667Z" fill="black"/>
<path fill-rule="evenodd" clip-rule="evenodd" d="M181.333 0C187.224 0 192 4.77563 192 10.6667V15.2708C243.841 25.6193 256 56.1696 256 133.333L255.938 142.677C254.586 236.813 231.334 256 128 256L118.25 255.938C23.1891 254.684 1.37083 233.777 0.0625 142.677L0 133.333C0 56.1696 12.1591 25.6193 64 15.2708V10.6667C64 4.77563 68.7756 0 74.6667 0C80.5577 0 85.3333 4.77563 85.3333 10.6667V12.2813C97.7603 11.1402 111.909 10.6667 128 10.6667C144.091 10.6667 158.24 11.1402 170.667 12.2813V10.6667C170.667 4.77563 175.442 0 181.333 0ZM233.885 104.833C163.774 93.1701 92.2152 93.1689 22.1042 104.833C21.5893 113.258 21.3333 122.708 21.3333 133.333C21.3333 158.444 22.6745 176.993 25.8125 190.938C28.8846 204.587 33.3739 212.431 38.7604 217.594C44.2268 222.832 52.6834 227.287 67.3229 230.313C82.1514 233.377 101.738 234.667 128 234.667C154.262 234.667 173.849 233.377 188.677 230.313C203.317 227.287 211.773 222.832 217.24 217.594C222.626 212.431 227.115 204.587 230.188 190.938C233.325 176.993 234.667 158.444 234.667 133.333C234.667 122.707 234.4 113.258 233.885 104.833ZM128 32C111.219 32 97.1636 32.5286 85.3333 33.7083V42.6667C85.3333 48.5577 80.5577 53.3333 74.6667 53.3333C68.7756 53.3333 64 48.5577 64 42.6667V37.1146C51.3822 40.1061 43.7986 44.2447 38.7604 49.0729C33.3739 54.2359 28.8846 62.0793 25.8125 75.7292C25.3066 77.9774 24.8623 80.3479 24.4479 82.8438C93.0569 72.0544 162.933 72.0555 231.542 82.8438C231.127 80.3485 230.693 77.9769 230.188 75.7292C227.115 62.0793 222.626 54.2359 217.24 49.0729C212.201 44.2447 204.618 40.1061 192 37.1146V42.6667C192 48.5577 187.224 53.3333 181.333 53.3333C175.442 53.3333 170.667 48.5577 170.667 42.6667V33.7083C158.836 32.5286 144.781 32 128 32Z" fill="black"/>
</svg>
