<svg width="256" height="256" viewBox="0 0 256 256" fill="none" xmlns="http://www.w3.org/2000/svg">
<path d="M128 170.667C133.891 170.667 138.667 175.442 138.667 181.333C138.667 187.224 133.891 192 128 192H64C58.109 192 53.3333 187.224 53.3333 181.333C53.3333 175.442 58.109 170.667 64 170.667H128Z" fill="black"/>
<path d="M170.667 128C176.558 128 181.333 132.776 181.333 138.667C181.333 144.558 176.558 149.333 170.667 149.333H64C58.109 149.333 53.3333 144.558 53.3333 138.667C53.3333 132.776 58.109 128 64 128H170.667Z" fill="black"/>
<path fill-rule="evenodd" clip-rule="evenodd" d="M181.333 0C187.224 0 192 4.77563 192 10.6667V15.2708C243.841 25.6193 256 56.1696 256 133.333C256 235.556 234.667 256 128 256C21.3333 256 0 235.556 0 133.333C0 56.1696 12.1591 25.6193 64 15.2708V10.6667C64 4.7759 68.776 0.000431542 74.6667 0C80.5577 0 85.3333 4.77563 85.3333 10.6667V12.2813C97.7603 11.1402 111.909 10.6667 128 10.6667C144.091 10.6667 158.24 11.1402 170.667 12.2813V10.6667C170.667 4.77589 175.443 0.000428793 181.333 0ZM233.604 106.615C163.377 99.592 92.6233 99.5919 22.3958 106.615C22.2605 106.628 22.1242 106.617 21.9896 106.625C21.5467 114.592 21.3333 123.455 21.3333 133.333C21.3333 158.444 22.6745 176.993 25.8125 190.938C28.8846 204.587 33.3739 212.431 38.7604 217.594C44.2268 222.832 52.6834 227.287 67.3229 230.313C82.1514 233.377 101.738 234.667 128 234.667C154.262 234.667 173.849 233.377 188.677 230.313C203.317 227.287 211.773 222.832 217.24 217.594C222.626 212.431 227.115 204.587 230.188 190.938C233.325 176.993 234.667 158.444 234.667 133.333C234.667 123.454 234.443 114.592 234 106.625C233.869 106.617 233.736 106.628 233.604 106.615ZM128 32C111.219 32 97.1636 32.5286 85.3333 33.7083V42.6667C85.3333 48.5577 80.5577 53.3333 74.6667 53.3333C68.776 53.3329 64 48.5574 64 42.6667V37.1146C51.3822 40.1061 43.7986 44.2447 38.7604 49.0729C33.3739 54.2359 28.8846 62.0793 25.8125 75.7292C25.1617 78.6212 24.6149 81.7153 24.1146 85.0208C93.2079 78.3603 162.782 78.361 231.875 85.0208C231.375 81.7158 230.838 78.6207 230.188 75.7292C227.115 62.0793 222.626 54.2359 217.24 49.0729C212.201 44.2447 204.618 40.1061 192 37.1146V42.6667C192 48.5577 187.224 53.3333 181.333 53.3333C175.443 53.3329 170.667 48.5574 170.667 42.6667V33.7083C158.836 32.5286 144.781 32 128 32Z" fill="black"/>
</svg>
