<svg width="256" height="256" viewBox="0 0 256 256" fill="none" xmlns="http://www.w3.org/2000/svg">
<path d="M64 128C72.8889 128 74.6667 129.778 74.6667 138.667C74.6667 147.556 72.8889 149.333 64 149.333C55.1111 149.333 53.3333 147.556 53.3333 138.667C53.3333 129.778 55.1111 128 64 128Z" fill="black"/>
<path d="M128 128C136.889 128 138.667 129.778 138.667 138.667C138.667 147.556 136.889 149.333 128 149.333C119.111 149.333 117.333 147.556 117.333 138.667C117.333 129.778 119.111 128 128 128Z" fill="black"/>
<path d="M192 128C200.889 128 202.667 129.778 202.667 138.667C202.667 147.556 200.889 149.333 192 149.333C183.111 149.333 181.333 147.556 181.333 138.667C181.333 129.778 183.111 128 192 128Z" fill="black"/>
<path fill-rule="evenodd" clip-rule="evenodd" d="M181.333 0C187.224 0 192 4.77563 192 10.6667V15.2708C243.841 25.6193 256 56.1696 256 133.333L255.938 142.677C254.586 236.813 231.334 256 128 256L118.25 255.938C23.1891 254.684 1.37083 233.777 0.0625 142.677L0 133.333C0 56.1696 12.1591 25.6193 64 15.2708V10.6667C64 4.77563 68.7756 0 74.6667 0C80.5577 0 85.3333 4.77563 85.3333 10.6667V12.2813C97.7603 11.1402 111.909 10.6667 128 10.6667C144.091 10.6667 158.24 11.1402 170.667 12.2813V10.6667C170.667 4.77563 175.442 0 181.333 0ZM233.604 106.615C163.376 99.5919 92.6236 99.5919 22.3958 106.615C22.2605 106.628 22.1242 106.617 21.9896 106.625C21.5467 114.592 21.3333 123.455 21.3333 133.333C21.3333 158.444 22.6745 176.993 25.8125 190.938C28.8846 204.587 33.3739 212.431 38.7604 217.594C44.2268 222.832 52.6834 227.287 67.3229 230.313C82.1514 233.377 101.738 234.667 128 234.667C136.423 234.667 144.158 234.51 151.271 234.229C157.919 184.867 179.18 166.674 233.896 161.625C234.402 153.253 234.667 143.872 234.667 133.333C234.667 123.454 234.443 114.592 234 106.625C233.869 106.617 233.736 106.628 233.604 106.615ZM230.969 183.385C208.174 185.968 195.751 190.929 188.229 197.688C181.424 203.806 176.145 213.735 173.073 232.594C195.881 230.013 208.302 225.061 215.823 218.302C222.628 212.185 227.898 202.254 230.969 183.385ZM128 32C111.219 32 97.1636 32.5286 85.3333 33.7083V42.6667C85.3333 48.5577 80.5577 53.3333 74.6667 53.3333C68.7756 53.3333 64 48.5577 64 42.6667V37.1146C51.3822 40.1061 43.7986 44.2447 38.7604 49.0729C33.3739 54.2359 28.8846 62.0793 25.8125 75.7292C25.1617 78.6212 24.6149 81.7153 24.1146 85.0208C93.2081 78.3603 162.781 78.3609 231.875 85.0208C231.375 81.7158 230.838 78.6207 230.188 75.7292C227.115 62.0793 222.626 54.2359 217.24 49.0729C212.201 44.2447 204.618 40.1061 192 37.1146V42.6667C192 48.5577 187.224 53.3333 181.333 53.3333C175.442 53.3333 170.667 48.5577 170.667 42.6667V33.7083C158.836 32.5286 144.781 32 128 32Z" fill="black"/>
</svg>
