<svg width="256" height="256" viewBox="0 0 256 256" fill="none" xmlns="http://www.w3.org/2000/svg">
<path fill-rule="evenodd" clip-rule="evenodd" d="M135.927 96.1144C173.521 97.2544 181.333 107.668 181.333 149.333L181.219 157.26C180.079 194.854 169.665 202.666 128 202.666L120.073 202.552C84.9864 201.488 75.8452 192.347 74.7813 157.26L74.6667 149.333C74.6667 104.889 83.5556 95.9998 128 95.9998L135.927 96.1144ZM128 117.333C117.313 117.333 110.242 117.897 105.417 118.937C100.831 119.926 99.8094 121.024 99.75 121.083C99.6906 121.143 98.5932 122.164 97.6042 126.75C96.5636 131.575 96 138.646 96 149.333C96 160.02 96.5636 167.091 97.6042 171.916C98.5932 176.502 99.6906 177.524 99.75 177.583C99.8094 177.643 100.831 178.74 105.417 179.729C110.242 180.77 117.313 181.333 128 181.333C138.687 181.333 145.758 180.77 150.583 179.729C155.169 178.74 156.191 177.643 156.25 177.583C156.309 177.524 157.407 176.502 158.396 171.916C159.436 167.091 160 160.02 160 149.333C160 138.646 159.436 131.575 158.396 126.75C157.407 122.164 156.309 121.143 156.25 121.083C156.191 121.024 155.169 119.926 150.583 118.937C145.758 117.897 138.687 117.333 128 117.333Z" fill="black"/>
<path fill-rule="evenodd" clip-rule="evenodd" d="M128 10.6665C172.44 10.6665 191.471 17.9253 198.729 47.979C204.073 49.1528 208.944 50.5593 213.385 52.2186C213.942 46.8511 218.485 42.6665 224 42.6665C229.891 42.6665 234.667 47.4421 234.667 53.3332V63.9998C234.667 64.3443 234.647 64.6846 234.615 65.0207C251.164 80.8606 256 107.044 256 149.333C256 238.222 234.667 256 128 256C21.3333 256 4.06931e-07 238.222 0 149.333C0 85.2432 11.091 58.1242 57.2604 47.979C64.5179 17.9233 83.559 10.6665 128 10.6665ZM128 31.9998C105.94 31.9998 94.5493 33.9949 88.1771 37.1561C84.0322 39.2137 80.5675 42.3564 78 52.9894C76.0843 60.9191 69.8109 67.0596 61.8438 68.8123C42.7112 73.0165 34.8542 79.5978 30.1458 88.4477C24.3033 99.4313 21.3333 117.465 21.3333 149.333C21.3333 194.358 27.4095 211.075 37.6563 219.614C43.0722 224.127 51.724 228.128 66.7708 230.833C81.8646 233.546 101.679 234.666 128 234.666C154.321 234.666 174.135 233.546 189.229 230.833C204.276 228.128 212.928 224.127 218.344 219.614C227.95 211.609 233.889 196.415 234.594 157.448L234.667 149.333C234.667 117.46 231.688 99.43 225.844 88.4477C221.135 79.5997 213.292 73.0162 194.156 68.8123C186.186 67.0616 179.906 60.9214 177.99 52.9894C175.421 42.3548 171.965 39.2128 167.823 37.1561C162.251 34.3892 152.833 32.5191 135.781 32.0936L128 31.9998Z" fill="black"/>
</svg>
