<svg width="257" height="256" viewBox="0 0 257 256" fill="none" xmlns="http://www.w3.org/2000/svg">
<path fill-rule="evenodd" clip-rule="evenodd" d="M64.9969 21.333C82.6984 21.333 96.5081 27.9828 106.403 40.3226C115.823 52.072 121.059 68.1843 124.174 86.1768C130.378 122.02 128.996 171.4 128.997 224C128.997 229.891 124.221 234.666 118.33 234.666C112.441 234.664 107.664 229.889 107.664 224C107.663 205.247 107.808 187.391 107.768 170.666H22.2364C22.1781 187.591 22.33 205.49 22.3302 224C22.3302 229.891 17.5545 234.666 11.6635 234.666C5.77478 234.664 0.996913 229.889 0.996851 224C0.996322 174.041 -0.375879 124.705 5.81977 88.2184C8.92657 69.9245 14.1329 53.3805 23.4552 41.2497C33.2474 28.5093 47.0601 21.3345 64.9969 21.333ZM64.9969 42.6663C53.607 42.6677 46.0778 46.8259 40.3719 54.2497C34.1973 62.2845 29.7442 74.7475 26.851 91.7809C24.0404 108.331 22.9029 127.81 22.4656 149.333H107.58C107.179 126.677 106.057 106.601 103.153 89.8226C100.268 73.1523 95.8354 61.2597 89.7573 53.6768C84.1532 46.6874 76.6243 42.6663 64.9969 42.6663Z" fill="black"/>
<path fill-rule="evenodd" clip-rule="evenodd" d="M198.33 117.333C213.459 117.333 227.249 123.065 237.653 132.468C239.587 129.765 242.753 128.001 246.33 128C252.221 128 256.997 132.775 256.997 138.666V213.333C256.997 219.224 252.221 224 246.33 224C242.75 223.998 239.587 222.228 237.653 219.521C227.248 228.927 213.461 234.666 198.33 234.666C165.931 234.664 139.664 208.399 139.664 176C139.664 143.6 165.931 117.335 198.33 117.333ZM198.33 138.666C177.713 138.668 160.997 155.382 160.997 176C160.997 196.617 177.713 213.331 198.33 213.333C218.949 213.333 235.664 196.618 235.664 176C235.664 155.381 218.949 138.666 198.33 138.666Z" fill="black"/>
</svg>
