<svg width="256" height="256" viewBox="0 0 256 256" fill="none" xmlns="http://www.w3.org/2000/svg">
<path d="M127.043 0C151.898 0.000117422 172.528 1.23268 189.366 4.86458C206.323 8.52276 220.161 14.7633 230.7 25.3021C241.238 35.8411 247.479 49.6788 251.137 66.6354C254.769 83.4746 256.002 104.103 256.002 128.958C256.002 169.852 252.765 200.143 239.866 220.99C226.194 243.084 203.314 252.369 171.241 255.938C165.387 256.589 160.111 252.365 159.46 246.51C158.81 240.657 163.023 235.381 168.877 234.729C198.386 231.447 213.153 223.612 221.721 209.771C231.06 194.678 234.668 170.198 234.668 128.958C234.668 104.526 233.428 85.7171 230.283 71.1354C227.164 56.6761 222.326 47.0957 215.616 40.3854C208.906 33.6754 199.325 28.838 184.866 25.7188C170.285 22.5738 151.475 21.3335 127.043 21.3333C85.8047 21.3333 61.3239 24.9419 46.231 34.2813C32.3891 42.8493 24.5549 57.6147 21.2726 87.125C20.6208 92.978 15.3444 97.1906 9.49138 96.5417C3.63645 95.8905 -0.586915 90.6154 0.0642951 84.7604C3.63232 52.6864 12.9179 29.8084 35.0122 16.1354C55.8592 3.2368 86.1499 0 127.043 0Z" fill="black"/>
<path d="M2.54346 202.677C4.06955 196.99 9.91812 193.613 15.606 195.135C26.4573 198.043 36.3497 203.765 44.2935 211.708C52.2361 219.652 57.959 229.545 60.8664 240.396C62.3851 246.082 59.0097 251.933 53.3247 253.458C47.6375 254.98 41.7786 251.602 40.2518 245.917C38.3136 238.683 34.5048 232.087 29.2101 226.792C23.9143 221.496 17.3193 217.688 10.0851 215.75C4.39767 214.226 1.02342 208.365 2.54346 202.677Z" fill="black"/>
<path d="M13.5851 161.469C15.1095 155.78 20.9585 152.405 26.6476 153.927C44.7333 158.773 61.2309 168.292 74.4705 181.531C87.7091 194.771 97.2289 211.269 102.075 229.354C103.594 235.042 100.22 240.893 94.533 242.417C88.8469 243.938 82.9985 240.559 81.4705 234.875C77.5939 220.407 69.9778 207.206 59.3872 196.615C48.7955 186.023 35.5953 178.408 21.1268 174.531C15.4411 173.006 12.0656 167.156 13.5851 161.469Z" fill="black"/>
<path d="M24.6268 120.26C26.1509 114.572 32.001 111.188 37.6893 112.708C63.0093 119.493 86.1016 132.829 104.637 151.365C123.172 169.9 136.509 192.993 143.293 218.313C144.811 223.999 141.428 229.851 135.741 231.375C130.057 232.893 124.206 229.516 122.679 223.833C116.864 202.131 105.44 182.335 89.5539 166.448C73.6662 150.56 53.8713 139.138 32.1685 133.323C26.4843 131.798 23.1103 125.946 24.6268 120.26Z" fill="black"/>
</svg>
