<svg width="256" height="256" viewBox="0 0 256 256" fill="none" xmlns="http://www.w3.org/2000/svg">
<path d="M234.667 128C234.667 101.757 233.326 82.2421 230.147 67.5C227.019 52.9976 222.421 44.5872 216.917 39.0833C211.414 33.5795 203.003 28.9821 188.501 25.8542C173.759 22.6747 154.244 21.3333 128.001 21.3333C101.758 21.3333 82.243 22.6747 67.5009 25.8542C52.9985 28.9821 44.5881 33.5795 39.0842 39.0833C33.5803 44.5872 28.983 52.9976 25.855 67.5C22.6756 82.2421 21.3342 101.757 21.3342 128C21.3342 168.202 24.5725 191.739 31.6571 206.25C34.2328 211.528 34.5196 217.629 32.4488 223.125C30.9972 226.977 29.4174 230.81 27.73 234.625C36.1571 234.414 44.4802 232.874 52.4071 230.063L53.8967 229.594C57.3817 228.637 61.0668 228.579 64.5946 229.438C79.5884 233.088 99.9234 234.667 128.001 234.667V256C99.4887 256 77.0829 254.438 59.5425 250.167C42.9905 256.038 25.0326 257.586 7.35503 254.302C1.48694 253.21 -1.71516 246.67 0.948777 241.219L5.28211 232.365C7.95819 226.897 10.3456 221.295 12.4904 215.604C3.02732 196.221 0.000860754 168.159 0.000860754 128C0.000860754 21.3333 21.3342 0 128.001 0C234.668 0 256.001 21.3333 256.001 128C256.001 234.667 234.668 256 128.001 256V234.667C154.244 234.667 173.759 233.325 188.501 230.146C203.003 227.018 211.414 222.421 216.917 216.917C222.421 211.413 227.019 203.002 230.147 188.5C233.326 173.758 234.667 154.243 234.667 128Z" fill="black"/>
</svg>
