<svg width="256" height="256" viewBox="0 0 256 256" fill="none" xmlns="http://www.w3.org/2000/svg">
<path fill-rule="evenodd" clip-rule="evenodd" d="M170.667 0C241.778 3.64045e-07 256 14.2222 256 85.3333C256 111.166 254.101 129.481 248.302 142.344C249.097 146.809 250.287 151.063 252.302 154.75L255.333 160.292C257.201 163.71 254.962 167.814 250.854 168.5C237.63 170.7 218.996 171.698 202.688 169.146C193.569 170.218 182.971 170.667 170.667 170.667C170.667 241.778 156.444 256 85.3333 256C73.0294 256 62.4312 255.552 53.3125 254.479C37.004 257.031 18.3704 256.034 5.14583 253.833C1.0382 253.147 -1.20103 249.043 0.666667 245.625L3.69792 240.083C5.71251 236.396 6.90317 232.143 7.69792 227.677C1.89903 214.814 0 196.499 0 170.667C3.39086e-07 99.5556 14.2222 85.3333 85.3333 85.3333C85.3333 14.2222 99.5556 0 170.667 0ZM85.3333 106.667C67.9794 106.667 55.5755 107.564 46.5 109.521C37.6643 111.427 33.4761 114.024 31.0833 116.417C28.6906 118.809 26.0932 122.998 24.1875 131.833C22.2303 140.909 21.3333 153.313 21.3333 170.667C21.3333 196.433 23.4048 210.606 27.1458 218.906C28.9116 222.823 29.4507 227.187 28.6979 231.417C28.516 232.439 28.2785 233.492 28.0417 234.583C35.4167 234.792 43.0741 234.491 50.0104 233.406L51.4583 233.229C52.9035 233.103 54.3588 233.122 55.8021 233.292C63.7806 234.23 73.4725 234.667 85.3333 234.667C102.687 234.667 115.091 233.77 124.167 231.813C133.002 229.907 137.191 227.309 139.583 224.917C141.976 222.524 144.573 218.336 146.479 209.5C148.436 200.424 149.333 188.021 149.333 170.667C149.333 153.313 148.436 140.909 146.479 131.833C144.573 122.998 141.976 118.809 139.583 116.417C137.191 114.024 133.002 111.427 124.167 109.521C115.091 107.564 102.687 106.667 85.3333 106.667ZM170.667 21.3333C153.313 21.3333 140.909 22.2303 131.833 24.1875C122.998 26.0932 118.809 28.6906 116.417 31.0833C114.024 33.4761 111.427 37.6643 109.521 46.5C107.564 55.5755 106.667 67.9794 106.667 85.3333C106.667 85.5249 106.666 85.7159 106.667 85.9063C106.428 85.8917 106.188 85.8786 105.948 85.8646C152.762 88.5875 167.24 102.845 170.083 149.323C170.277 149.323 170.472 149.333 170.667 149.333C182.527 149.333 192.219 148.897 200.198 147.958C201.641 147.789 203.096 147.77 204.542 147.896L205.99 148.073C212.926 149.158 220.583 149.458 227.958 149.25C227.722 148.159 227.484 147.105 227.302 146.083C226.549 141.853 227.088 137.49 228.854 133.573C232.595 125.272 234.667 111.1 234.667 85.3333C234.667 67.9794 233.77 55.5755 231.813 46.5C229.907 37.6643 227.309 33.4761 224.917 31.0833C222.524 28.6906 218.336 26.0932 209.5 24.1875C200.424 22.2303 188.021 21.3333 170.667 21.3333Z" fill="black"/>
</svg>
