<svg width="256" height="256" viewBox="0 0 256 256" fill="none" xmlns="http://www.w3.org/2000/svg">
<path d="M186.51 65.5208C191.561 62.4902 198.115 64.1268 201.146 69.1771C204.176 74.2281 202.54 80.7812 197.49 83.8125C163.727 104.07 134.882 131.573 113.042 164.333L104.875 176.583C102.847 179.625 99.404 181.419 95.75 181.333C92.0952 181.246 88.7356 179.291 86.8542 176.156L80.75 165.979C75.0482 156.476 67.3044 148.356 58.0833 142.208C53.1817 138.941 51.8572 132.318 55.125 127.417C58.3928 122.515 65.015 121.191 69.9167 124.458C80.4046 131.45 89.3862 140.437 96.3958 150.875C119.854 116.204 150.602 87.0664 186.51 65.5208Z" fill="black"/>
<path fill-rule="evenodd" clip-rule="evenodd" d="M128 0C234.667 0 256 21.3333 256 128C256 234.667 234.667 256 128 256C21.3333 256 0 234.667 0 128C0 21.3333 21.3333 0 128 0ZM128 21.3333C101.757 21.3333 82.2421 22.6747 67.5 25.8542C52.9976 28.9821 44.5872 33.5795 39.0833 39.0833C33.5795 44.5872 28.9821 52.9976 25.8542 67.5C22.6747 82.2421 21.3333 101.757 21.3333 128C21.3333 154.243 22.6747 173.758 25.8542 188.5C28.9821 203.002 33.5795 211.413 39.0833 216.917C44.5872 222.421 52.9976 227.018 67.5 230.146C82.2421 233.325 101.757 234.667 128 234.667C154.243 234.667 173.758 233.325 188.5 230.146C203.002 227.018 211.413 222.421 216.917 216.917C222.421 211.413 227.018 203.002 230.146 188.5C233.325 173.758 234.667 154.243 234.667 128C234.667 101.757 233.325 82.2421 230.146 67.5C227.018 52.9976 222.421 44.5872 216.917 39.0833C211.413 33.5795 203.002 28.9821 188.5 25.8542C173.758 22.6747 154.243 21.3333 128 21.3333Z" fill="black"/>
</svg>
