<svg width="256" height="256" viewBox="0 0 256 256" fill="none" xmlns="http://www.w3.org/2000/svg">
<path d="M186.51 76.1889C191.561 73.1583 198.114 74.7948 201.145 79.8452C204.176 84.8962 202.54 91.4493 197.489 94.4806C163.727 114.738 134.882 142.241 113.041 175.001L104.875 187.251C102.847 190.293 99.4037 192.087 95.7496 192.001C92.0948 191.914 88.7352 189.959 86.8538 186.824L80.7496 176.647C75.0478 167.144 67.304 159.024 58.083 152.876C53.1813 149.609 51.8569 142.986 55.1246 138.085C58.3924 133.183 65.0147 131.859 69.9163 135.126C80.4042 142.118 89.3858 151.105 96.3955 161.543C119.853 126.872 150.601 97.7345 186.51 76.1889Z" fill="black"/>
</svg>
