<svg width="256" height="256" viewBox="0 0 256 256" fill="none" xmlns="http://www.w3.org/2000/svg">
<path fill-rule="evenodd" clip-rule="evenodd" d="M128 0C151.909 0 172.741 13.1181 183.729 32.5417C184.058 32.4993 184.389 32.4752 184.719 32.4375C185.457 32.3528 186.196 32.2777 186.938 32.2188C187.457 32.177 187.977 32.1335 188.5 32.1042C189.336 32.0582 190.173 32.0443 191.01 32.0313C191.34 32.026 191.669 32 192 32C192.177 32 192.354 32.009 192.531 32.0104C192.885 32.0133 193.239 32.0225 193.594 32.0313C194.319 32.049 195.041 32.0729 195.76 32.1146C195.902 32.1229 196.046 32.1261 196.188 32.1354C196.556 32.1596 196.924 32.1986 197.292 32.2292C197.888 32.278 198.482 32.3308 199.073 32.3958C199.505 32.4438 199.934 32.5058 200.365 32.5625C201.165 32.667 201.96 32.783 202.75 32.9167C202.906 32.9433 203.063 32.9722 203.219 33C205.348 33.3765 207.439 33.856 209.49 34.4375C209.538 34.4513 209.587 34.4652 209.635 34.4792C211.752 35.0847 213.823 35.7923 215.844 36.6042C215.917 36.6337 215.989 36.6681 216.063 36.6979C221.311 38.8297 226.21 41.6341 230.656 45.0104C230.782 45.1062 230.906 45.2054 231.031 45.3021C231.767 45.8697 232.498 46.4432 233.208 47.0417C233.395 47.1987 233.576 47.3617 233.76 47.5208C234.414 48.0847 235.057 48.6605 235.688 49.25C235.91 49.458 236.124 49.6742 236.344 49.8854C236.843 50.3656 237.339 50.8477 237.823 51.3438C238.118 51.6463 238.409 51.9519 238.698 52.2604C239.191 52.7862 239.671 53.3224 240.146 53.8646C240.379 54.1313 240.615 54.396 240.844 54.6667C241.335 55.2468 241.81 55.8399 242.281 56.4375C242.441 56.6411 242.613 56.836 242.771 57.0417C242.822 57.1084 242.866 57.1831 242.917 57.25C248.204 64.187 252.103 72.2296 254.208 80.9792C254.248 81.1428 254.295 81.3047 254.333 81.4688C254.365 81.6057 254.386 81.7483 254.417 81.8854C254.583 82.6239 254.735 83.3667 254.875 84.1146C254.952 84.5204 255.025 84.9264 255.094 85.3333C255.209 86.0209 255.313 86.7115 255.406 87.4063C255.457 87.7846 255.508 88.1627 255.552 88.5417C255.636 89.2672 255.701 89.9964 255.76 90.7292C255.796 91.1562 255.828 91.5829 255.854 92.0104C255.896 92.6884 255.927 93.3685 255.948 94.0521C255.962 94.507 255.975 94.9616 255.979 95.4167C255.981 95.611 256 95.8053 256 96C256 96.5259 255.981 97.0501 255.969 97.5729C255.961 97.8715 255.959 98.1702 255.948 98.4688C255.549 108.98 252.606 118.832 247.729 127.448C247.668 127.556 247.603 127.663 247.542 127.771C247.078 128.58 246.602 129.38 246.104 130.167C246.005 130.324 245.903 130.479 245.802 130.635C245.373 131.3 244.932 131.957 244.479 132.604C244.323 132.828 244.18 133.06 244.021 133.281L243.99 133.323C243.423 134.11 242.83 134.876 242.229 135.635C242.022 135.897 241.815 136.158 241.604 136.417C241.303 136.785 240.996 137.149 240.688 137.51C239.254 139.192 237.732 140.791 236.135 142.313C236.066 142.379 235.997 142.445 235.927 142.51C235.394 143.014 234.852 143.505 234.302 143.99C234.094 144.173 233.888 144.361 233.677 144.542C232.108 145.889 230.477 147.163 228.781 148.354C228.513 148.543 228.24 148.722 227.969 148.906C227.505 149.221 227.045 149.541 226.573 149.844C226.117 150.137 225.651 150.416 225.188 150.698C224.791 150.939 224.403 151.195 224 151.427C223.856 151.51 223.698 151.57 223.552 151.646C220.302 153.492 216.886 155.082 213.313 156.344C213.319 157.547 213.333 158.766 213.333 160C213.333 240 199.111 256 128 256C56.8889 256 42.6667 240 42.6667 160C42.6667 158.766 42.6702 157.547 42.6771 156.344C41.6242 155.972 40.5893 155.56 39.5625 155.135C39.3497 155.047 39.139 154.955 38.9271 154.865C36.7742 153.947 34.6804 152.921 32.6563 151.781C32.3959 151.635 32.1331 151.494 31.875 151.344C31.0317 150.853 30.2037 150.34 29.3854 149.813C28.9704 149.546 28.5647 149.266 28.1563 148.99C27.5448 148.575 26.9399 148.153 26.3438 147.719C25.8201 147.338 25.3033 146.949 24.7917 146.552C24.243 146.126 23.7009 145.693 23.1667 145.25C22.8249 144.967 22.4816 144.686 22.1458 144.396C21.4093 143.759 20.6858 143.107 19.9792 142.438C19.6119 142.09 19.2548 141.732 18.8958 141.375C18.4986 140.98 18.1056 140.582 17.7188 140.177C17.1928 139.626 16.6732 139.07 16.1667 138.5C15.6938 137.969 15.226 137.432 14.7708 136.885C14.4601 136.511 14.1566 136.131 13.8542 135.75C13.3148 135.071 12.7932 134.378 12.2813 133.677C12.1839 133.543 12.0755 133.416 11.9792 133.281C11.8204 133.06 11.6767 132.828 11.5208 132.604C11.0133 131.878 10.5194 131.143 10.0417 130.396C9.89563 130.167 9.74719 129.939 9.60417 129.708C9.0003 128.737 8.42729 127.745 7.875 126.74C7.81604 126.632 7.75624 126.525 7.69792 126.417C3.48705 118.644 0.82911 109.908 0.166667 100.615C0.154133 100.441 0.146532 100.267 0.135417 100.094C0.071114 99.0756 0.026538 98.0514 0.0104167 97.0208C0.00770826 96.8507 0.00135109 96.6806 0 96.5104V96C0 93.6378 0.136014 91.3063 0.385417 89.0104C0.422103 88.6765 0.468478 88.3437 0.510417 88.0104C0.635028 87.01 0.77768 86.0167 0.947917 85.0313C0.974524 84.8783 1.00353 84.7257 1.03125 84.5729C2.67596 75.4497 6.2401 66.9958 11.3125 59.6563C11.3941 59.538 11.4906 59.4302 11.5729 59.3125C12.1652 58.4677 12.7749 57.6371 13.4063 56.8229C13.6347 56.5279 13.8705 56.2389 14.1042 55.9479C14.7176 55.1847 15.3424 54.4319 15.9896 53.6979C16.1036 53.5686 16.2079 53.4306 16.3229 53.3021C17.105 52.4293 17.9112 51.5785 18.7396 50.75C19.0121 50.4775 19.2953 50.2157 19.5729 49.9479C20.2112 49.332 20.8575 48.7246 21.5208 48.1354C21.6138 48.0529 21.7086 47.9674 21.8021 47.8854C21.9392 47.7652 22.0807 47.6502 22.2188 47.5313C22.9734 46.8802 23.7465 46.2512 24.5313 45.6354C24.7024 45.5013 24.8692 45.3615 25.0417 45.2292C28.0463 42.9201 31.2639 40.8788 34.6563 39.125C34.7294 39.0872 34.8017 39.0479 34.875 39.0104C35.9459 38.462 37.0306 37.9367 38.1354 37.4479C38.2109 37.4146 38.289 37.3872 38.3646 37.3542C41.8305 35.837 45.4543 34.6175 49.2083 33.7292C49.2944 33.7087 49.3826 33.6868 49.4688 33.6667C49.5795 33.6408 49.6912 33.619 49.8021 33.5938C50.8446 33.3576 51.8972 33.1533 52.9583 32.9688C53.1462 32.9359 53.3328 32.8958 53.5208 32.8646C54.4964 32.7039 55.4788 32.564 56.4688 32.4479C56.778 32.4113 57.0862 32.3654 57.3958 32.3333C58.557 32.2143 59.7276 32.129 60.9063 32.0729C61.2637 32.0557 61.6216 32.0529 61.9792 32.0417C62.6503 32.0208 63.3238 32 64 32C64.1738 32 64.3474 32.0089 64.5208 32.0104C65.3063 32.0169 66.0903 32.0584 66.875 32.0938C67.404 32.1183 67.9328 32.1188 68.4583 32.1563C69.4745 32.2273 70.4874 32.3387 71.5 32.4583C71.7535 32.4882 72.0078 32.5091 72.2604 32.5417C83.2477 13.1156 104.089 0 128 0ZM128 21.3333C112.093 21.3333 98.1924 30.0335 90.8333 43.0417C90.086 44.3629 89.1991 45.5708 88.2188 46.6771C88.1794 46.8633 88.1539 47.0535 88.1042 47.2396C86.578 52.9275 80.7306 56.3156 75.0417 54.7917C72.8695 54.2097 70.6593 53.8165 68.4375 53.5833C67.0857 53.4417 65.7503 53.3578 64.4271 53.3438C61.0646 53.3089 57.6966 53.6647 54.3958 54.4271C54.34 54.4399 54.2849 54.4557 54.2292 54.4688C49.2586 55.6382 44.5487 57.6846 40.3229 60.5C35.7992 63.5232 31.8918 67.3923 28.8125 71.875C26.8812 74.6954 25.2862 77.7467 24.0729 80.9688C22.2461 85.8239 21.3208 90.9651 21.3333 96.125C21.3449 100.168 21.9458 104.073 23.0104 107.781C23.311 108.826 23.6521 109.857 24.0313 110.875C28.424 122.665 37.8604 132.016 49.7813 136.229C49.8476 136.253 49.9132 136.278 49.9792 136.302C54.9162 138.018 60.1434 138.818 65.3958 138.646C72.407 138.416 79.258 136.455 85.3333 132.948C90.434 130.006 96.961 131.755 99.9063 136.854C102.849 141.955 101.099 148.481 96 151.427C86.8865 156.688 76.6111 159.624 66.0938 159.969C65.396 159.992 64.6968 159.969 64 159.969V160C64 179.626 64.8923 194.005 66.9479 204.729C68.9835 215.347 71.866 220.73 74.6146 223.823C79.9988 229.88 91.6597 234.667 128 234.667C164.34 234.667 176.001 229.88 181.385 223.823C184.134 220.73 187.016 215.347 189.052 204.729C191.108 194.005 192 179.626 192 160C192 158.839 191.987 157.841 191.979 156.469C191.927 147.381 197.639 139.256 206.208 136.229C222.672 130.415 234.431 114.826 234.646 96.5104C234.65 96.1666 234.65 95.823 234.646 95.4792C234.634 94.509 234.596 93.5473 234.521 92.5938C234.352 90.4852 234.035 88.3829 233.552 86.3125C232.188 80.4639 229.601 74.968 225.969 70.1875C225.84 70.0183 225.704 69.8547 225.573 69.6875C224.78 68.6757 223.941 67.7039 223.063 66.7708C221.426 65.0328 219.655 63.4236 217.75 61.9792C215.974 60.6351 214.088 59.4302 212.115 58.375C207.48 55.8977 202.431 54.299 197.229 53.6563C195.667 53.4653 194.079 53.3611 192.469 53.3438C192.021 53.3389 191.573 53.3449 191.125 53.3542C189.833 53.3818 188.531 53.4673 187.219 53.6146C183.723 54.0093 180.278 54.8276 176.969 56.0729C171.288 58.2119 166.126 61.5415 161.833 65.8333C157.669 69.9948 150.915 69.9932 146.75 65.8333C142.586 61.6685 142.587 54.9155 146.75 50.75C151.425 46.0755 156.788 42.1671 162.635 39.1458C154.865 28.332 142.248 21.3333 128 21.3333Z" fill="black"/>
</svg>
