<svg width="256" height="256" viewBox="0 0 256 256" fill="none" xmlns="http://www.w3.org/2000/svg">
<path d="M170.667 149.333C176.558 149.333 181.334 154.109 181.334 160C181.334 165.891 176.558 170.667 170.667 170.667H85.334C79.4429 170.667 74.6673 165.891 74.6673 160C74.6673 154.109 79.4429 149.333 85.334 149.333H170.667Z" fill="black"/>
<path d="M170.667 106.667C176.558 106.667 181.334 111.442 181.334 117.333C181.334 123.224 176.558 128 170.667 128H85.334C79.4429 128 74.6673 123.224 74.6673 117.333C74.6673 111.442 79.4429 106.667 85.334 106.667H170.667Z" fill="black"/>
<path fill-rule="evenodd" clip-rule="evenodd" d="M139.094 0.09375C186.541 0.915462 200.1 7.7641 202.313 33.5208L204.667 34.9375C228.391 50.1119 234.667 80.5883 234.667 138.667L234.615 147.604C233.488 237.644 214.111 256 128.001 256L119.876 255.938C38.0194 254.698 21.3344 233.386 21.334 138.667C21.3343 78.7177 28.018 48.1707 53.6777 33.5104C56.0576 5.8556 71.5356 0 128.001 0L139.094 0.09375ZM55.0215 60.3229C51.641 65.0542 48.6174 72.0755 46.4382 83.1875C43.7887 96.702 42.6674 114.606 42.6673 138.667C42.6674 162.727 43.7887 180.631 46.4382 194.146C49.0615 207.522 52.8846 214.989 57.1152 219.646C65.6041 228.982 82.7122 234.667 128.001 234.667C173.289 234.667 190.397 228.982 198.886 219.646C203.117 214.989 206.94 207.522 209.563 194.146C212.213 180.631 213.334 162.727 213.334 138.667C213.334 114.606 212.213 96.702 209.563 83.1875C207.383 72.0716 204.351 65.0542 200.969 60.3229C200.986 60.2555 200.995 60.1824 201.011 60.1146C196.05 80.681 178.303 85.3333 128.001 85.3333L116.907 85.25C74.7574 84.52 59.3534 79.0259 54.8861 59.75C54.9304 59.9411 54.975 60.1346 55.0215 60.3229ZM128.001 21.3333C112.679 21.3333 101.287 21.7856 92.6986 22.8438C83.9306 23.9244 79.782 25.4553 77.9173 26.5208C76.8767 27.1154 76.6348 27.4035 76.209 28.5313C75.4396 30.5696 74.6673 34.6053 74.6673 42.6667C74.6673 50.7281 75.4396 54.7637 76.209 56.8021C76.6348 57.9298 76.8767 58.2179 77.9173 58.8125C79.782 59.878 83.9306 61.4089 92.6986 62.4896C101.287 63.5477 112.679 64 128.001 64C143.322 64 154.715 63.5477 163.303 62.4896C172.071 61.4089 176.219 59.878 178.084 58.8125C179.125 58.2179 179.367 57.9298 179.792 56.8021C180.562 54.7637 181.334 50.7281 181.334 42.6667C181.334 34.6053 180.562 30.5696 179.792 28.5313C179.367 27.4035 179.125 27.1154 178.084 26.5208C176.219 25.4553 172.071 23.9244 163.303 22.8438C154.715 21.7856 143.322 21.3333 128.001 21.3333ZM53.4277 47.6458C53.434 47.8027 53.4417 47.9589 53.4486 48.1146C53.3722 46.3773 53.334 44.5625 53.334 42.6667L53.4277 47.6458Z" fill="black"/>
</svg>
