<svg width="256" height="256" viewBox="0 0 256 256" fill="none" xmlns="http://www.w3.org/2000/svg">
<path d="M128 85.3337C133.891 85.3337 138.667 90.1093 138.667 96.0003V152.875C143.64 149.688 148.27 145.981 152.458 141.792C156.624 137.626 163.376 137.626 167.542 141.792C171.707 145.958 171.707 152.71 167.542 156.875C159.666 164.751 150.576 171.311 140.615 176.292L132.771 180.209C130.142 181.523 127.105 181.685 124.375 180.698L123.229 180.209L115.385 176.292C105.423 171.312 96.3329 164.752 88.4583 156.875C84.2936 152.71 84.2931 145.957 88.4583 141.792C92.6241 137.627 99.3765 137.627 103.542 141.792C107.73 145.981 112.361 149.688 117.333 152.875V96.0003C117.333 90.1093 122.109 85.3337 128 85.3337Z" fill="black"/>
<path fill-rule="evenodd" clip-rule="evenodd" d="M106.667 10.667C146.588 10.6674 180.07 38.0784 189.396 75.1045C226.84 79.1259 256 110.822 256 149.334C256 181.172 235.832 212.919 206.219 223.386C155.55 241.294 100.45 241.295 49.7813 223.386C20.1688 212.919 0.000481085 181.173 0 149.334C0 128.987 8.15786 110.54 21.3438 97.0837C21.3392 96.723 21.3333 96.3619 21.3333 96.0003C21.3333 48.8724 59.5388 10.667 106.667 10.667ZM106.667 32.0003C71.3208 32.0003 42.6667 60.6544 42.6667 96.0003C42.6667 97.578 42.7217 99.1421 42.8333 100.688C43.0717 103.995 41.7598 107.225 39.2813 109.427C28.258 119.213 21.3333 133.461 21.3333 149.334C21.3338 173.223 36.7865 196.164 56.8854 203.271C102.954 219.554 153.046 219.554 199.115 203.271C219.213 196.165 234.666 173.224 234.667 149.334C234.667 119.879 210.788 96.0012 181.333 96.0003C181.122 96.0003 180.908 95.9979 180.698 96.0003C175.344 96.0614 170.779 92.1443 170.021 86.8441C165.586 55.8388 138.899 32.0008 106.667 32.0003Z" fill="black"/>
</svg>
