<svg width="256" height="256" viewBox="0 0 256 256" fill="none" xmlns="http://www.w3.org/2000/svg">
<path d="M124.375 96.6357C127.105 95.6488 130.142 95.811 132.771 97.1253L140.615 101.042C150.576 106.023 159.666 112.583 167.542 120.459C171.707 124.624 171.707 131.376 167.542 135.542C163.376 139.708 156.624 139.708 152.458 135.542C148.27 131.353 143.64 127.646 138.667 124.459V181.334C138.667 187.225 133.891 192 128 192C122.109 192 117.333 187.225 117.333 181.334V124.459C112.361 127.646 107.73 131.353 103.542 135.542C99.3765 139.707 92.6241 139.707 88.4583 135.542C84.2931 131.377 84.2936 124.624 88.4583 120.459C96.3329 112.582 105.423 106.022 115.385 101.042L123.229 97.1253L124.375 96.6357Z" fill="black"/>
<path fill-rule="evenodd" clip-rule="evenodd" d="M106.667 10.667C146.588 10.6674 180.07 38.0784 189.396 75.1045C226.84 79.1259 256 110.822 256 149.334C256 181.172 235.832 212.919 206.219 223.386C155.55 241.294 100.45 241.295 49.7813 223.386C20.1688 212.919 0.000481085 181.173 0 149.334C0 128.987 8.15786 110.54 21.3438 97.0837C21.3392 96.723 21.3333 96.3619 21.3333 96.0003C21.3333 48.8724 59.5388 10.667 106.667 10.667ZM106.667 32.0003C71.3208 32.0003 42.6667 60.6544 42.6667 96.0003C42.6667 97.578 42.7217 99.1421 42.8333 100.688C43.0717 103.995 41.7598 107.225 39.2813 109.427C28.258 119.213 21.3333 133.461 21.3333 149.334C21.3338 173.223 36.7865 196.164 56.8854 203.271C102.954 219.554 153.046 219.554 199.115 203.271C219.213 196.165 234.666 173.224 234.667 149.334C234.667 119.879 210.788 96.0012 181.333 96.0003C181.122 96.0003 180.908 95.9979 180.698 96.0003C175.344 96.0614 170.779 92.1443 170.021 86.8441C165.586 55.8388 138.899 32.0008 106.667 32.0003Z" fill="black"/>
</svg>
