<svg width="256" height="256" viewBox="0 0 256 256" fill="none" xmlns="http://www.w3.org/2000/svg">
<path d="M234.667 149.334C234.667 119.879 210.788 96.0012 181.333 96.0003C181.122 96.0003 180.908 95.9979 180.698 96.0003C175.344 96.0614 170.779 92.1443 170.021 86.8441C165.586 55.8388 138.899 32.0008 106.667 32.0003C71.3208 32.0003 42.6667 60.6544 42.6667 96.0003C42.6667 97.578 42.7217 99.1421 42.8333 100.688C43.0717 103.995 41.7598 107.225 39.2813 109.427C28.258 119.213 21.3333 133.461 21.3333 149.334C21.3338 173.223 36.7865 196.164 56.8854 203.271C102.954 219.554 153.046 219.554 199.115 203.271C219.213 196.165 234.666 173.224 234.667 149.334ZM256 149.334C256 181.172 235.832 212.919 206.219 223.386C155.55 241.294 100.45 241.295 49.7813 223.386C20.1688 212.919 0.000481085 181.173 0 149.334C0 128.987 8.15786 110.54 21.3438 97.0837C21.3392 96.723 21.3333 96.3619 21.3333 96.0003C21.3333 48.8724 59.5388 10.667 106.667 10.667C146.588 10.6674 180.07 38.0784 189.396 75.1045C226.84 79.1259 256 110.822 256 149.334Z" fill="black"/>
</svg>
