<svg width="256" height="256" viewBox="0 0 256 256" fill="none" xmlns="http://www.w3.org/2000/svg">
<path d="M161.125 133.896C163.76 128.627 170.168 126.49 175.438 129.125C191.217 137.015 204.209 149.899 212.125 165.729C213.678 168.835 213.678 172.499 212.125 175.604C204.209 191.434 191.217 204.319 175.438 212.208C170.168 214.843 163.76 212.707 161.125 207.438C158.49 202.168 160.627 195.76 165.896 193.125C176.015 188.065 184.57 180.228 190.469 170.667C184.57 161.106 176.015 153.268 165.896 148.208C160.627 145.574 158.49 139.165 161.125 133.896Z" fill="black"/>
<path d="M184.458 56.4583C188.624 52.2927 195.376 52.2927 199.542 56.4583C203.707 60.6239 203.707 67.3761 199.542 71.5417L71.5417 199.542C67.3761 203.707 60.6239 203.707 56.4583 199.542C52.2927 195.376 52.2927 188.624 56.4583 184.458L184.458 56.4583Z" fill="black"/>
<path d="M80.5625 43.7917C85.8316 41.1571 92.2405 43.2934 94.875 48.5625C97.5096 53.8316 95.3733 60.2404 90.1042 62.875C79.9847 67.9347 71.4296 75.7723 65.5313 85.3333C71.4296 94.8944 79.9847 102.732 90.1042 107.792C95.3733 110.426 97.5096 116.835 94.875 122.104C92.2405 127.373 85.8316 129.51 80.5625 126.875C64.7829 118.985 51.7909 106.101 43.875 90.2708C42.3223 87.1654 42.3223 83.5013 43.875 80.3958C51.7909 64.5661 64.7829 51.6815 80.5625 43.7917Z" fill="black"/>
<path fill-rule="evenodd" clip-rule="evenodd" d="M128 0C234.667 0 256 21.3333 256 128C256 234.667 234.667 256 128 256C21.3333 256 0 234.667 0 128C0 21.3333 21.3333 0 128 0ZM128 21.3333C101.757 21.3333 82.2421 22.6747 67.5 25.8542C52.9976 28.9821 44.5872 33.5795 39.0833 39.0833C33.5795 44.5872 28.9821 52.9976 25.8542 67.5C22.6747 82.2421 21.3333 101.757 21.3333 128C21.3333 154.243 22.6747 173.758 25.8542 188.5C28.9821 203.002 33.5795 211.413 39.0833 216.917C44.5872 222.421 52.9976 227.018 67.5 230.146C82.2421 233.325 101.757 234.667 128 234.667C154.243 234.667 173.758 233.325 188.5 230.146C203.002 227.018 211.413 222.421 216.917 216.917C222.421 211.413 227.018 203.002 230.146 188.5C233.325 173.758 234.667 154.243 234.667 128C234.667 101.757 233.325 82.2421 230.146 67.5C227.018 52.9976 222.421 44.5872 216.917 39.0833C211.413 33.5795 203.002 28.9821 188.5 25.8542C173.758 22.6747 154.243 21.3333 128 21.3333Z" fill="black"/>
</svg>
