<svg width="256" height="256" viewBox="0 0 256 256" fill="none" xmlns="http://www.w3.org/2000/svg">
<path fill-rule="evenodd" clip-rule="evenodd" d="M106.667 85.3317C146.365 85.3317 194.294 84.8076 208.896 120.353L212.365 120.905C247.418 126.948 256.01 142.031 256.01 175.998L255.958 180.467C255.061 216.331 242.569 229.417 194 233.269C178.424 250.685 151.514 255.998 106.667 255.998C22.1213 255.998 1.28263 237.154 0.0625 153.832L0 145.571C0 84.5818 59.217 85.3317 106.667 85.3317ZM106.667 106.665C81.6798 106.665 59.2314 106.752 42.7396 112.665C35.1331 115.393 30.2551 118.911 27.1458 123.113C24.1162 127.208 21.3333 133.881 21.3333 145.571C21.3335 167.654 22.5469 184.049 25.2396 196.394C27.8875 208.533 31.6829 215.426 35.9479 219.842C44.7615 228.966 62.467 234.665 106.667 234.665C150.866 234.665 168.572 228.966 177.385 219.842C181.65 215.426 185.446 208.533 188.094 196.394C190.786 184.049 192 167.654 192 145.571C192 133.881 189.217 127.208 186.187 123.113C183.078 118.911 178.2 115.393 170.594 112.665C154.102 106.752 131.654 106.665 106.667 106.665ZM213.333 145.571L213.271 153.832C212.923 177.593 210.957 196.104 206.396 210.436C216.165 208.935 222.096 206.975 225.729 204.978C229.151 203.094 230.753 201.126 231.979 197.998C233.57 193.94 234.677 187.347 234.677 175.998C234.677 164.652 233.569 158.057 231.979 153.998C230.753 150.871 229.15 148.902 225.729 147.019C223.045 145.543 219.103 144.081 213.292 142.811C213.319 143.716 213.333 144.637 213.333 145.571Z" fill="black"/>
<path d="M60.0417 0.758833C65.5105 -1.42644 71.7188 1.23826 73.9062 6.70675L75.7083 11.2276C82.4732 28.1419 81.6886 47.1421 73.5417 63.4359C70.9068 68.7038 64.4977 70.8406 59.2292 68.2068C53.9605 65.5724 51.8248 59.1631 54.4583 53.8943C59.8803 43.0503 60.4085 30.4011 55.9062 19.1442L54.0937 14.6234C51.9085 9.15479 54.5736 2.94643 60.0417 0.758833Z" fill="black"/>
<path d="M134.708 0.758833C140.177 -1.42644 146.386 1.23826 148.573 6.70675L150.375 11.2276C157.14 28.1419 156.355 47.1421 148.208 63.4359C145.573 68.7038 139.164 70.8406 133.896 68.2068C128.627 65.5724 126.491 59.1631 129.125 53.8943C134.547 43.0503 135.075 30.4011 130.573 19.1442L128.76 14.6234C126.575 9.15479 129.24 2.94643 134.708 0.758833Z" fill="black"/>
</svg>
