<svg width="256" height="256" viewBox="0 0 256 256" fill="none" xmlns="http://www.w3.org/2000/svg">
<path fill-rule="evenodd" clip-rule="evenodd" d="M128.001 21.333C138.301 21.333 234.667 117.699 234.667 128C234.667 138.3 138.301 234.666 128.001 234.666C117.7 234.666 21.334 138.3 21.334 128C21.334 117.699 117.7 21.333 128.001 21.333ZM121.053 52.5934C111.033 61.3828 98.3723 73.3988 85.8861 85.8851C73.3998 98.3714 61.3838 111.032 52.5944 121.052C50.3306 123.633 48.3433 125.957 46.6673 128C48.3433 130.042 50.3306 132.367 52.5944 134.948C61.3838 144.967 73.3998 157.628 85.8861 170.114C98.3723 182.601 111.033 194.617 121.053 203.406C123.631 205.668 125.96 207.648 128.001 209.323C130.042 207.648 132.37 205.668 134.949 203.406C144.968 194.617 157.629 182.601 170.115 170.114C182.602 157.628 194.618 144.967 203.407 134.948C205.669 132.369 207.649 130.041 209.324 128C207.649 125.959 205.669 123.63 203.407 121.052C194.618 111.032 182.602 98.3714 170.115 85.8851C157.629 73.3988 144.968 61.3828 134.949 52.5934C132.368 50.3296 130.043 48.3423 128.001 46.6663C125.958 48.3423 123.634 50.3296 121.053 52.5934Z" fill="black"/>
</svg>
