<svg width="256" height="256" viewBox="0 0 256 256" fill="none" xmlns="http://www.w3.org/2000/svg">
<path fill-rule="evenodd" clip-rule="evenodd" d="M128.001 149.333C138.667 149.333 170.667 181.333 170.667 192C170.667 202.666 138.667 234.666 128.001 234.666C117.334 234.666 85.334 202.666 85.334 192C85.334 181.333 117.334 149.333 128.001 149.333ZM128.001 172.771C124.963 175.029 121.345 178.156 117.751 181.75C114.156 185.344 111.03 188.962 108.771 192C111.03 195.037 114.156 198.656 117.751 202.25C121.343 205.842 124.964 208.96 128.001 211.218C131.037 208.96 134.658 205.842 138.251 202.25C141.843 198.657 144.961 195.036 147.219 192C144.961 188.963 141.843 185.342 138.251 181.75C134.656 178.156 131.038 175.029 128.001 172.771Z" fill="black"/>
<path fill-rule="evenodd" clip-rule="evenodd" d="M64.0007 85.333C74.6673 85.333 106.667 117.333 106.667 128C106.667 138.666 74.6673 170.666 64.0007 170.666C53.334 170.666 21.334 138.666 21.334 128C21.334 117.333 53.334 85.333 64.0007 85.333ZM64.0007 108.771C60.9633 111.029 57.3448 114.156 53.7507 117.75C50.1565 121.344 47.0304 124.962 44.7715 128C47.0304 131.037 50.1565 134.656 53.7507 138.25C57.3429 141.842 60.9643 144.96 64.0007 147.218C67.037 144.96 70.6585 141.842 74.2507 138.25C77.8429 134.657 80.9608 131.036 83.2194 128C80.9608 124.963 77.8429 121.342 74.2507 117.75C70.6565 114.156 67.038 111.029 64.0007 108.771Z" fill="black"/>
<path fill-rule="evenodd" clip-rule="evenodd" d="M192.001 85.333C202.667 85.333 234.667 117.333 234.667 128C234.667 138.666 202.667 170.666 192.001 170.666C181.334 170.666 149.334 138.666 149.334 128C149.334 117.333 181.334 85.333 192.001 85.333ZM192.001 108.771C188.963 111.029 185.345 114.156 181.751 117.75C178.156 121.344 175.03 124.962 172.771 128C175.03 131.037 178.156 134.656 181.751 138.25C185.343 141.842 188.964 144.96 192.001 147.218C195.037 144.96 198.658 141.842 202.251 138.25C205.843 134.657 208.961 131.036 211.219 128C208.961 124.963 205.843 121.342 202.251 117.75C198.656 114.156 195.038 111.029 192.001 108.771Z" fill="black"/>
<path fill-rule="evenodd" clip-rule="evenodd" d="M128.001 21.333C138.667 21.333 170.667 53.333 170.667 63.9997C170.667 74.6663 138.667 106.666 128.001 106.666C117.334 106.666 85.334 74.6663 85.334 63.9997C85.334 53.333 117.334 21.333 128.001 21.333ZM128.001 44.7705C124.963 47.0294 121.345 50.1555 117.751 53.7497C114.156 57.3438 111.03 60.9623 108.771 63.9997C111.03 67.037 114.156 70.6555 117.751 74.2497C121.343 77.8419 124.964 80.9598 128.001 83.2184C131.037 80.9598 134.658 77.8419 138.251 74.2497C141.843 70.6575 144.961 67.036 147.219 63.9997C144.961 60.9633 141.843 57.3419 138.251 53.7497C134.656 50.1555 131.038 47.0294 128.001 44.7705Z" fill="black"/>
</svg>
