<svg width="256" height="256" viewBox="0 0 256 256" fill="none" xmlns="http://www.w3.org/2000/svg">
<path fill-rule="evenodd" clip-rule="evenodd" d="M114.792 0.0520833C173.183 0.855726 198.386 10.9522 208.052 47.9271C207.924 47.8937 207.795 47.8663 207.667 47.8333C246.657 57.852 256 84.9039 256 149.333C256 238.222 238.222 256 149.333 256C85.112 256 58.023 246.716 47.9271 208.042C10.9546 198.375 0.855705 173.182 0.0520833 114.792L0 106.667C0 17.7778 17.7778 0 106.667 0L114.792 0.0520833ZM149.333 64C127.536 64 111.575 65.1192 99.6667 67.6875C87.9984 70.2043 81.6982 73.8018 77.75 77.75C73.8019 81.6984 70.2042 87.9983 67.6875 99.6667C65.1192 111.575 64 127.535 64 149.333C64 171.132 65.1192 187.091 67.6875 199C70.2042 210.668 73.8019 216.968 77.75 220.917C81.6982 224.865 87.9984 228.462 99.6667 230.979C111.575 233.547 127.536 234.667 149.333 234.667C171.131 234.667 187.091 233.547 199 230.979C210.668 228.462 216.968 224.865 220.917 220.917C224.865 216.968 228.462 210.669 230.979 199C233.547 187.091 234.667 171.132 234.667 149.333C234.667 127.535 233.547 111.575 230.979 99.6667C228.462 87.9978 224.865 81.6983 220.917 77.75C216.968 73.8019 210.668 70.2042 199 67.6875C187.091 65.1194 171.131 64 149.333 64ZM106.667 21.3333C84.8682 21.3333 68.9088 22.4525 57 25.0208C45.3309 27.5377 39.0317 31.135 35.0833 35.0833C31.135 39.0317 27.5377 45.3309 25.0208 57C22.4525 68.9088 21.3333 84.8682 21.3333 106.667C21.3333 128.465 22.4525 144.425 25.0208 156.333C27.5377 168.002 31.135 174.302 35.0833 178.25C37.2135 180.38 40.0377 182.387 44.0104 184.198C44.024 184.344 44.0383 184.49 44.0521 184.635C43.0774 174.341 42.6667 162.634 42.6667 149.333C42.6667 60.4449 60.4456 42.6668 149.333 42.6667C162.633 42.6667 174.341 43.0775 184.635 44.0521C184.49 44.0383 184.344 44.024 184.198 44.0104C182.387 40.0377 180.38 37.2135 178.25 35.0833C174.302 31.135 168.002 27.5377 156.333 25.0208C144.425 22.4525 128.465 21.3333 106.667 21.3333Z" fill="black"/>
</svg>
