<svg width="256" height="256" viewBox="0 0 256 256" fill="none" xmlns="http://www.w3.org/2000/svg">
<path d="M96 160C101.891 160 106.667 164.775 106.667 170.666C106.667 176.557 101.891 181.333 96 181.333H53.3333C47.4423 181.333 42.6667 176.557 42.6667 170.666C42.6667 164.775 47.4423 160 53.3333 160H96Z" fill="black"/>
<path d="M160 160C165.891 160 170.667 164.775 170.667 170.666C170.667 176.557 165.891 181.333 160 181.333H138.667C132.776 181.333 128 176.557 128 170.666C128 164.775 132.776 160 138.667 160H160Z" fill="black"/>
<path fill-rule="evenodd" clip-rule="evenodd" d="M128 21.333C234.667 21.333 256 39.1108 256 128L255.938 136.125C254.586 217.982 231.334 234.666 128 234.666L118.25 234.614C23.1891 233.524 1.37083 215.342 0.0625 136.125L0 128C0 39.1108 21.3333 21.333 128 21.333ZM234.073 106.166C163.5 99.7453 92.4897 99.7447 21.9167 106.166C21.528 112.592 21.3333 119.83 21.3333 128C21.3333 173.025 27.4095 189.742 37.6563 198.281C43.0722 202.794 51.724 206.795 66.7708 209.5C81.8646 212.213 101.679 213.333 128 213.333C154.321 213.333 174.135 212.213 189.229 209.5C204.276 206.795 212.928 202.794 218.344 198.281C228.59 189.742 234.667 173.025 234.667 128C234.667 119.83 234.462 112.592 234.073 106.166ZM128 42.6663C101.679 42.6663 81.8646 43.7867 66.7708 46.4997C51.724 49.2046 43.0722 53.2055 37.6563 57.7184C31.7449 62.6446 27.2382 70.2959 24.4688 84.5309C93.3562 78.5249 162.633 78.5255 231.521 84.5309C228.751 70.2972 224.255 62.6444 218.344 57.7184C212.928 53.2055 204.276 49.2046 189.229 46.4997C174.135 43.7867 154.321 42.6663 128 42.6663Z" fill="black"/>
</svg>
