<svg width="256" height="256" viewBox="0 0 256 256" fill="none" xmlns="http://www.w3.org/2000/svg">
<path fill-rule="evenodd" clip-rule="evenodd" d="M106.667 21.3336C149.924 21.3336 202.945 20.5526 211.979 78.1773C247.353 84.1774 256 99.2435 256 133.334L255.948 137.802C255.106 171.436 244.077 185.061 202.646 189.802C189.314 224.837 161.281 234.667 106.667 234.667C19.3939 234.667 9.53329e-07 209.567 0 96.6252C0.00130723 20.3909 59.2175 21.3336 106.667 21.3336ZM106.667 42.6669C81.4568 42.6669 59.9583 42.8185 44.2604 49.8544C37.2639 52.9907 32.0621 57.2996 28.3542 63.5627C24.5132 70.0523 21.3337 80.2607 21.3333 96.6252C21.3333 124.466 22.5424 145.764 25.4063 162.177C28.2703 178.591 32.538 188.551 37.4896 194.959C46.472 206.58 63.2585 213.334 106.667 213.334C150.075 213.334 166.861 206.58 175.844 194.959C180.795 188.551 185.063 178.591 187.927 162.177C190.791 145.764 192 124.466 192 96.6252C192 80.2607 188.82 70.0523 184.979 63.5627C181.271 57.2996 176.069 52.9907 169.073 49.8544C153.375 42.8185 131.877 42.6669 106.667 42.6669ZM213.271 106.959C212.986 131.248 211.614 151.15 208.635 167.396C217.083 165.947 222.372 164.152 225.719 162.313C229.142 160.429 230.742 158.461 231.969 155.334C233.559 151.275 234.666 144.68 234.667 133.334C234.667 121.986 233.559 115.392 231.969 111.334C230.742 108.205 229.144 106.238 225.719 104.354C223.037 102.88 219.114 101.405 213.313 100.136L213.271 106.959Z" fill="black"/>
</svg>
