<svg width="256" height="256" viewBox="0 0 256 256" fill="none" xmlns="http://www.w3.org/2000/svg">
<path fill-rule="evenodd" clip-rule="evenodd" d="M21.3349 21.3328C48.0049 -5.33364 197.336 -5.33353 234.668 21.3328C256.001 42.6666 250.843 86.5004 245.335 127.999L244.127 136.197C237.574 176.466 223.094 206.342 192.002 234.666L188.179 238.01C169.366 253.788 154.195 255.999 128.002 255.999L122.897 255.968C99.7611 255.646 85.3734 252.738 67.814 238.01L64.0015 234.666C32.9087 206.342 18.4289 176.466 11.8765 136.197L10.6682 127.999C5.33247 87.7963 0.319328 45.401 19.4078 23.3953L21.3349 21.3328ZM188.616 120.468C177.065 118.543 165.237 119.014 153.877 121.854C136.887 126.101 119.116 126.101 102.127 121.854C90.7658 119.013 78.938 118.543 67.3869 120.468L31.9807 126.364C37.4222 166.089 49.8069 192.879 78.3661 218.895C86.9466 226.712 93.2447 230.107 99.4078 231.958C106.143 233.98 114.307 234.666 128.002 234.666C141.697 234.666 149.859 233.981 156.595 231.958C162.759 230.107 169.057 226.711 177.637 218.895C206.195 192.88 218.57 166.087 224.012 126.364L188.616 120.468ZM124.002 22.6661C102.241 22.666 81.2337 24.2764 64.4807 27.3224C56.0926 28.8476 49.2331 30.6499 44.0744 32.5724C41.5172 33.5254 39.6088 34.4266 38.2515 35.1974C36.9661 35.9274 36.4604 36.3782 36.4182 36.4161C31.5608 41.2736 27.8791 50.7353 27.2515 67.8849C26.8389 79.164 27.7941 91.7353 29.314 105.187L63.8765 99.4265C78.3132 97.0206 93.0943 97.617 107.293 101.166C120.886 104.564 135.117 104.564 148.71 101.166C162.909 97.6172 177.69 97.0204 192.127 99.4265L226.679 105.187C228.199 91.7348 229.164 79.1642 228.752 67.8849C228.178 52.2114 225.045 42.9649 220.804 37.7807C215.02 34.3231 203.352 30.344 185.772 27.364C167.514 24.2693 145.732 22.6663 124.002 22.6661Z" fill="black"/>
</svg>
