<svg width="256" height="256" viewBox="0 0 256 256" fill="none" xmlns="http://www.w3.org/2000/svg">
<path fill-rule="evenodd" clip-rule="evenodd" d="M106.667 85.3337C146.365 85.3337 194.294 84.8096 208.896 120.355L212.365 120.907C247.418 126.95 256.01 142.032 256.01 176L255.958 180.469C255.061 216.332 242.569 229.419 194 233.271C178.424 250.687 151.514 256 106.667 256C22.1213 256 1.28263 237.156 0.0625 153.834L0 145.573C0 84.5838 59.217 85.3337 106.667 85.3337ZM106.667 138.667C106.667 138.934 106.644 139.197 106.625 139.459C115.3 141.25 117.333 146.559 117.333 160C117.333 177.777 113.777 181.334 96 181.334C78.2228 181.334 74.6669 177.777 74.6667 160C74.6667 146.564 76.6979 141.252 85.3646 139.459C85.3454 139.197 85.3334 138.933 85.3333 138.667V106.844C68.9713 107.231 54.3732 108.496 42.7396 112.667C35.1331 115.395 30.2551 118.913 27.1458 123.115C24.1162 127.21 21.3333 133.883 21.3333 145.573C21.3335 167.656 22.5469 184.051 25.2396 196.396C27.8875 208.535 31.6829 215.428 35.9479 219.844C44.7615 228.968 62.467 234.667 106.667 234.667C150.866 234.667 168.572 228.968 177.385 219.844C181.65 215.428 185.446 208.535 188.094 196.396C190.786 184.051 192 167.656 192 145.573C192 133.883 189.217 127.21 186.187 123.115C183.078 118.913 178.2 115.395 170.594 112.667C158.224 108.232 142.504 107.073 124.875 106.771L106.667 106.667V138.667ZM213.333 145.573L213.271 153.834C212.923 177.595 210.957 196.106 206.396 210.438C216.165 208.937 222.096 206.977 225.729 204.98C229.151 203.096 230.753 201.128 231.979 198C233.57 193.942 234.677 187.349 234.677 176C234.677 164.654 233.569 158.059 231.979 154C230.753 150.873 229.15 148.904 225.729 147.021C223.045 145.545 219.103 144.083 213.292 142.813C213.319 143.718 213.333 144.639 213.333 145.573Z" fill="black"/>
<path d="M60.0417 0.760786C65.5105 -1.42449 71.7188 1.24021 73.9062 6.7087L75.7083 11.2295C82.4732 28.1439 81.6886 47.144 73.5417 63.4379C70.9068 68.7058 64.4977 70.8425 59.2292 68.2087C53.9605 65.5744 51.8248 59.1651 54.4583 53.8962C59.8803 43.0523 60.4085 30.403 55.9062 19.1462L54.0937 14.6254C51.9085 9.15674 54.5736 2.94839 60.0417 0.760786Z" fill="black"/>
<path d="M134.708 0.760786C140.177 -1.42449 146.386 1.24021 148.573 6.7087L150.375 11.2295C157.14 28.1439 156.355 47.144 148.208 63.4379C145.573 68.7058 139.164 70.8425 133.896 68.2087C128.627 65.5744 126.491 59.1651 129.125 53.8962C134.547 43.0523 135.075 30.403 130.573 19.1462L128.76 14.6254C126.575 9.15674 129.24 2.94839 134.708 0.760786Z" fill="black"/>
</svg>
