<svg width="256" height="256" viewBox="0 0 256 256" fill="none" xmlns="http://www.w3.org/2000/svg">
<path d="M64 160C72.8889 160 74.6667 161.777 74.6667 170.666C74.6667 179.555 72.8889 181.333 64 181.333C55.1111 181.333 53.3333 179.555 53.3333 170.666C53.3333 161.777 55.1111 160 64 160Z" fill="black"/>
<path d="M192 160C200.889 160 202.667 161.777 202.667 170.666C202.667 179.555 200.889 181.333 192 181.333C183.111 181.333 181.333 179.555 181.333 170.666C181.333 161.777 183.111 160 192 160Z" fill="black"/>
<path fill-rule="evenodd" clip-rule="evenodd" d="M128 85.333C151.564 85.333 170.667 104.436 170.667 128C170.667 151.564 151.564 170.666 128 170.666C104.436 170.666 85.3333 151.564 85.3333 128C85.3333 104.436 104.436 85.333 128 85.333ZM128 106.666C116.218 106.666 106.667 116.218 106.667 128C106.667 139.782 116.218 149.333 128 149.333C139.782 149.333 149.333 139.782 149.333 128C149.333 116.218 139.782 106.666 128 106.666Z" fill="black"/>
<path d="M64 74.6663C72.8889 74.6663 74.6667 76.4441 74.6667 85.333C74.6667 94.2219 72.8889 95.9997 64 95.9997C55.1111 95.9997 53.3333 94.2219 53.3333 85.333C53.3333 76.4441 55.1111 74.6663 64 74.6663Z" fill="black"/>
<path d="M192 74.6663C200.889 74.6663 202.667 76.4441 202.667 85.333C202.667 94.2219 200.889 95.9997 192 95.9997C183.111 95.9997 181.333 94.2219 181.333 85.333C181.333 76.4441 183.111 74.6663 192 74.6663Z" fill="black"/>
<path fill-rule="evenodd" clip-rule="evenodd" d="M128 21.333C234.667 21.333 256 39.1108 256 128C256 216.889 234.667 234.666 128 234.666C21.3333 234.666 0 216.889 0 128C0 39.1108 21.3333 21.333 128 21.333ZM128 42.6663C101.679 42.6663 81.8646 43.7867 66.7708 46.4997C51.724 49.2046 43.0722 53.2055 37.6563 57.7184C27.4095 66.2573 21.3333 82.9747 21.3333 128C21.3333 173.025 27.4095 189.742 37.6563 198.281C43.0722 202.794 51.724 206.795 66.7708 209.5C81.8646 212.213 101.679 213.333 128 213.333C154.321 213.333 174.135 212.213 189.229 209.5C204.276 206.795 212.928 202.794 218.344 198.281C228.59 189.742 234.667 173.025 234.667 128C234.667 82.9747 228.59 66.2573 218.344 57.7184C212.928 53.2055 204.276 49.2046 189.229 46.4997C174.135 43.7867 154.321 42.6663 128 42.6663Z" fill="black"/>
</svg>
