<svg width="256" height="256" viewBox="0 0 256 256" fill="none" xmlns="http://www.w3.org/2000/svg">
<path fill-rule="evenodd" clip-rule="evenodd" d="M73.9079 9.02999C81.6283 5.10908 89.6059 12.7353 88.335 21.3008L87.835 24.9258C83.3453 62.5526 95.533 101.79 124.408 130.665L127.241 133.405C156.768 161.197 196.257 172.29 233.762 166.728C242.327 165.457 249.962 173.434 246.043 181.155L243.72 185.52C238.907 194.154 233.018 202.349 226.043 209.905L222.46 213.634C173.253 262.838 93.9493 263.605 43.8038 215.936L41.4392 213.634C-7.76684 164.428 -8.53121 85.1244 39.1371 34.9779L41.4392 32.6133C51.2234 22.8293 62.2068 14.9743 73.9079 9.02999ZM65.6059 39.5821C62.4668 42.0793 59.4324 44.7869 56.5225 47.6967L52.7413 51.6758C14.912 93.5468 16.1726 158.187 56.5225 198.54C98.1785 240.196 165.721 240.196 207.377 198.54C210.286 195.631 212.985 192.596 215.481 189.457C177.112 189.609 138.639 175.062 109.325 145.749C80.0099 116.434 65.4551 77.9555 65.6059 39.5821Z" fill="black"/>
<path d="M209.179 100.155C211.475 97.8634 215.197 97.8616 217.491 100.155C218.266 100.93 218.868 101.862 219.262 102.884L221.387 108.415C221.539 108.809 221.858 109.129 222.252 109.28L227.783 111.405C228.805 111.799 229.737 112.401 230.512 113.176C232.806 115.471 232.804 119.192 230.512 121.488C229.737 122.263 228.806 122.876 227.783 123.27L222.252 125.395C221.858 125.546 221.539 125.855 221.387 126.249L219.262 131.78C218.869 132.803 218.266 133.734 217.491 134.509C215.196 136.805 211.475 136.804 209.179 134.509C208.403 133.734 207.791 132.804 207.398 131.78L205.273 126.249C205.121 125.856 204.811 125.546 204.418 125.395L198.887 123.27C197.864 122.876 196.933 122.264 196.158 121.488C193.863 119.192 193.862 115.471 196.158 113.176C196.933 112.401 197.864 111.798 198.887 111.405L204.418 109.28C204.812 109.129 205.121 108.809 205.273 108.415L207.398 102.884C207.791 101.861 208.404 100.93 209.179 100.155Z" fill="black"/>
<path d="M217.762 6.23832C221.205 2.79496 226.787 2.79616 230.231 6.23832C231.394 7.40148 232.307 8.7968 232.898 10.3321L236.085 18.6342C236.313 19.2231 236.787 19.6887 237.377 19.9154L245.668 23.1029C247.204 23.6935 248.599 24.6064 249.762 25.7696C253.205 29.2136 253.206 34.7947 249.762 38.2383C248.599 39.4011 247.203 40.3041 245.668 40.8946L237.377 44.0925C236.786 44.3196 236.312 44.7833 236.085 45.3737L232.898 53.6758C232.307 55.2106 231.394 56.6067 230.231 57.7696C226.787 61.2094 221.205 61.2111 217.762 57.7696C216.6 56.6072 215.696 55.2099 215.106 53.6758L211.908 45.3737C211.681 44.7843 211.216 44.3195 210.627 44.0925L202.325 40.8946C200.791 40.3039 199.393 39.4005 198.231 38.2383C194.79 34.7955 194.791 29.2132 198.231 25.7696C199.394 24.6068 200.79 23.6935 202.325 23.1029L210.627 19.9154C211.215 19.6889 211.68 19.2222 211.908 18.6342L215.106 10.3321C215.696 8.79716 216.599 7.40132 217.762 6.23832Z" fill="black"/>
<path d="M134.512 14.8217C136.808 12.53 140.53 12.5283 142.825 14.8217C143.599 15.5962 144.202 16.5286 144.595 17.5508L146.72 23.0821C146.872 23.4757 147.191 23.7952 147.585 23.9467L153.116 26.0717C154.139 26.4654 155.071 27.0677 155.845 27.8425C158.139 30.1372 158.137 33.8589 155.845 36.155C155.07 36.9301 154.139 37.5425 153.116 37.9362L147.585 40.0612C147.191 40.2127 146.872 40.5218 146.72 40.9154L144.595 46.4467C144.202 47.4693 143.599 48.4008 142.825 49.1758C140.529 51.4716 136.808 51.4711 134.512 49.1758C133.737 48.4004 133.125 47.4702 132.731 46.4467L130.606 40.9154C130.454 40.5229 130.144 40.2126 129.752 40.0612L124.22 37.9362C123.197 37.5425 122.267 36.9304 121.491 36.155C119.197 33.8589 119.196 30.138 121.491 27.8425C122.266 27.068 123.198 26.4651 124.22 26.0717L129.752 23.9467C130.145 23.7952 130.454 23.4757 130.606 23.0821L132.731 17.5508C133.125 16.5279 133.737 15.5967 134.512 14.8217Z" fill="black"/>
</svg>
