<svg width="256" height="256" viewBox="0 0 256 256" fill="none" xmlns="http://www.w3.org/2000/svg">
<path fill-rule="evenodd" clip-rule="evenodd" d="M88.3332 21.2973C89.6041 12.7318 81.6265 5.10552 73.9062 9.02642C62.2057 14.9706 51.2211 22.8263 41.4374 32.6098C-8.5458 82.597 -8.54789 163.645 41.4374 213.631C91.4233 263.616 172.471 263.614 222.458 213.631C231.02 205.069 238.112 195.592 243.729 185.516L246.042 181.151C249.96 173.431 242.334 165.456 233.771 166.724C195.053 172.468 154.21 160.466 124.406 130.662C95.5316 101.787 83.354 62.5488 87.8437 24.9223L88.3332 21.2973ZM65.6145 39.5785C65.4638 77.9517 80.0085 116.431 109.323 145.745C138.637 175.059 177.109 189.605 215.479 189.454C212.983 192.593 210.284 195.627 207.375 198.537C165.719 240.193 98.1871 240.193 56.5312 198.537C14.8758 156.881 14.8754 89.3488 56.5312 47.6931C59.4405 44.7839 62.4759 42.0753 65.6145 39.5785Z" fill="black"/>
<path d="M193.312 38.2348C189.869 34.7916 184.288 34.7927 180.844 38.2348C179.68 39.3979 178.768 40.7932 178.177 42.3285L174.989 50.6306C174.762 51.2186 174.296 51.6846 173.708 51.9118L165.406 55.0993C163.871 55.6899 162.476 56.6028 161.312 57.766C157.87 61.21 157.869 66.7912 161.312 70.2348C162.475 71.3978 163.871 72.3004 165.406 72.891L173.708 76.0889C174.296 76.3165 174.763 76.7816 174.989 77.3702L178.177 85.6723C178.768 87.2075 179.68 88.6028 180.844 89.766C184.287 93.2068 189.869 93.2079 193.312 89.766C194.475 88.6035 195.378 87.2066 195.969 85.6723L199.167 77.3702C199.394 76.7812 199.859 76.316 200.448 76.0889L208.75 72.891C210.284 72.3004 211.681 71.3971 212.844 70.2348C216.285 66.7916 216.284 61.2096 212.844 57.766C211.681 56.6029 210.285 55.69 208.75 55.0993L200.448 51.9118C199.859 51.6851 199.394 51.219 199.167 50.6306L195.969 42.3285C195.378 40.7935 194.475 39.3977 193.312 38.2348Z" fill="black"/>
</svg>
