<svg width="256" height="256" viewBox="0 0 256 256" fill="none" xmlns="http://www.w3.org/2000/svg">
<path fill-rule="evenodd" clip-rule="evenodd" d="M128 0C234.667 0 256 21.3333 256 128C256 234.667 234.667 256 128 256C21.3333 256 0 234.667 0 128C0 21.3333 21.3333 0 128 0ZM231.406 74.3333C181.618 67.8542 131.212 67.721 81.3958 73.9063C78.692 126.886 79.9626 180.017 85.2083 232.854C97.0382 234.095 111.128 234.667 128 234.667C154.243 234.667 173.758 233.325 188.5 230.146C203.002 227.018 211.413 222.421 216.917 216.917C222.421 211.413 227.018 203.002 230.146 188.5C233.325 173.758 234.667 154.243 234.667 128C234.667 105.621 233.665 88.1395 231.406 74.3333ZM63.4271 26.8229C51.3862 29.8996 44.0499 34.1167 39.0833 39.0833C33.5795 44.5872 28.9821 52.9976 25.8542 67.5C22.6747 82.2421 21.3333 101.757 21.3333 128C21.3333 154.243 22.6747 173.758 25.8542 188.5C28.9821 203.002 33.5795 211.413 39.0833 216.917C44.0496 221.883 51.3877 226.09 63.4271 229.167C57.1107 161.867 57.1101 94.123 63.4271 26.8229ZM128 21.3333C111.128 21.3333 97.0379 21.8946 85.2083 23.1354C84.2463 32.8239 83.4343 42.5235 82.7396 52.2292C130.123 46.6582 177.994 46.6166 225.385 52.0938C222.926 46.393 220.084 42.2511 216.917 39.0833C211.413 33.5795 203.002 28.9821 188.5 25.8542C173.758 22.6747 154.243 21.3333 128 21.3333Z" fill="black"/>
</svg>
