<svg width="256" height="256" viewBox="0 0 256 256" fill="none" xmlns="http://www.w3.org/2000/svg">
<path fill-rule="evenodd" clip-rule="evenodd" d="M71.9264 138.782C109.521 139.922 117.333 150.335 117.333 192L117.218 199.927C116.078 237.522 105.665 245.334 63.9993 245.334L56.0723 245.219C20.9858 244.155 11.8445 235.014 10.7806 199.927L10.666 192C10.666 147.556 19.5549 138.667 63.9993 138.667L71.9264 138.782ZM63.9993 160C53.3123 160 46.2417 160.564 41.416 161.604C36.8303 162.594 35.8088 163.691 35.7493 163.75C35.6899 163.81 34.5926 164.831 33.6035 169.417C32.5629 174.243 31.9993 181.313 31.9993 192C31.9993 202.687 32.5629 209.758 33.6035 214.584C34.5926 219.169 35.6899 220.191 35.7493 220.25C35.8088 220.31 36.8303 221.407 41.416 222.396C46.2417 223.437 53.3123 224 63.9993 224C74.6864 224 81.757 223.437 86.5827 222.396C91.1684 221.407 92.1899 220.31 92.2493 220.25C92.3088 220.191 93.4061 219.169 94.3952 214.584C95.4357 209.758 95.9993 202.687 95.9993 192C95.9993 181.313 95.4357 174.243 94.3952 169.417C93.4061 164.831 92.3088 163.81 92.2493 163.75C92.1899 163.691 91.1684 162.594 86.5827 161.604C81.757 160.564 74.6864 160 63.9993 160Z" fill="black"/>
<path fill-rule="evenodd" clip-rule="evenodd" d="M199.926 138.782C237.521 139.922 245.333 150.335 245.333 192L245.218 199.927C244.078 237.522 233.665 245.334 191.999 245.334L184.072 245.219C148.986 244.155 139.844 235.014 138.781 199.927L138.666 192C138.666 147.556 147.555 138.667 191.999 138.667L199.926 138.782ZM191.999 160C181.312 160 174.242 160.564 169.416 161.604C164.83 162.594 163.809 163.691 163.749 163.75C163.69 163.81 162.593 164.831 161.604 169.417C160.563 174.243 159.999 181.313 159.999 192C159.999 202.687 160.563 209.758 161.604 214.584C162.593 219.169 163.69 220.191 163.749 220.25C163.809 220.31 164.83 221.407 169.416 222.396C174.242 223.437 181.312 224 191.999 224C202.686 224 209.757 223.437 214.583 222.396C219.168 221.407 220.19 220.31 220.249 220.25C220.309 220.191 221.406 219.169 222.395 214.584C223.436 209.758 223.999 202.687 223.999 192C223.999 181.313 223.436 174.243 222.395 169.417C221.406 164.831 220.309 163.81 220.249 163.75C220.19 163.691 219.168 162.594 214.583 161.604C209.757 160.564 202.686 160 191.999 160Z" fill="black"/>
<path fill-rule="evenodd" clip-rule="evenodd" d="M71.9264 10.7816C109.521 11.9215 117.333 22.3351 117.333 64.0003L117.218 71.9274C116.078 109.522 105.665 117.334 63.9993 117.334L56.0723 117.219C20.9858 116.155 11.8445 107.014 10.7806 71.9274L10.666 64.0003C10.666 19.5559 19.5549 10.667 63.9993 10.667L71.9264 10.7816ZM63.9993 32.0003C53.3123 32.0003 46.2417 32.5639 41.416 33.6045C36.8303 34.5936 35.8088 35.6909 35.7493 35.7503C35.6899 35.8098 34.5926 36.8313 33.6035 41.417C32.5629 46.2426 31.9993 53.3133 31.9993 64.0003C31.9993 74.6874 32.5629 81.758 33.6035 86.5837C34.5926 91.1694 35.6899 92.1909 35.7493 92.2503C35.8088 92.3098 36.8303 93.4071 41.416 94.3962C46.2417 95.4367 53.3123 96.0003 63.9993 96.0003C74.6864 96.0003 81.757 95.4367 86.5827 94.3962C91.1684 93.4071 92.1899 92.3098 92.2493 92.2503C92.3088 92.1909 93.4061 91.1694 94.3952 86.5837C95.4357 81.758 95.9993 74.6874 95.9993 64.0003C95.9993 53.3133 95.4357 46.2426 94.3952 41.417C93.4061 36.8313 92.3088 35.8098 92.2493 35.7503C92.1899 35.6909 91.1684 34.5936 86.5827 33.6045C81.757 32.5639 74.6864 32.0003 63.9993 32.0003Z" fill="black"/>
<path d="M191.999 10.667C197.89 10.667 202.666 15.4426 202.666 21.3337V53.3337H234.666C240.557 53.3337 245.333 58.1093 245.333 64.0003C245.333 69.8914 240.557 74.667 234.666 74.667H202.666V106.667C202.666 112.558 197.89 117.334 191.999 117.334C186.108 117.334 181.333 112.558 181.333 106.667V74.667H149.333C143.442 74.667 138.666 69.8914 138.666 64.0003C138.666 58.1093 143.442 53.3337 149.333 53.3337H181.333V21.3337C181.333 15.4426 186.108 10.667 191.999 10.667Z" fill="black"/>
</svg>
