<svg width="256" height="256" viewBox="0 0 256 256" fill="none" xmlns="http://www.w3.org/2000/svg">
<path fill-rule="evenodd" clip-rule="evenodd" d="M128 0C234.667 0 256 17.7778 256 106.667L255.938 114.792C254.633 193.754 232.951 212.053 138.667 213.25V229.729C150.293 230.395 161.872 232.145 173.25 234.99C178.964 236.418 182.438 242.202 181.01 247.917C179.582 253.631 173.798 257.104 168.083 255.677C141.769 249.098 114.231 249.098 87.9167 255.677C82.2023 257.104 76.4182 253.631 74.9896 247.917C73.5624 242.202 77.0357 236.418 82.75 234.99C94.1282 232.145 105.707 230.395 117.333 229.729V213.26C23.0488 212.063 1.36661 193.754 0.0625 114.792L0 106.667C0 17.7778 21.3333 0 128 0ZM128 21.3333C101.679 21.3333 81.8646 22.4537 66.7708 25.1667C51.724 27.8716 43.0722 31.8725 37.6563 36.3854C27.4095 44.9243 21.3333 61.6417 21.3333 106.667C21.3333 151.692 27.4095 168.409 37.6563 176.948C43.0722 181.461 51.724 185.462 66.7708 188.167C81.8646 190.88 101.679 192 128 192C154.321 192 174.135 190.88 189.229 188.167C204.276 185.462 212.928 181.461 218.344 176.948C228.59 168.409 234.667 151.692 234.667 106.667C234.667 61.6417 228.59 44.9243 218.344 36.3854C212.928 31.8725 204.276 27.8716 189.229 25.1667C174.135 22.4537 154.321 21.3333 128 21.3333Z" fill="black"/>
</svg>
