<svg width="256" height="256" viewBox="0 0 256 256" fill="none" xmlns="http://www.w3.org/2000/svg">
<path d="M245.333 117.333C251.224 117.333 256 122.109 256 128C256 152.656 254.782 173.121 251.177 189.833C247.547 206.665 241.345 220.405 230.875 230.875C220.405 241.345 206.665 247.547 189.833 251.177C173.121 254.782 152.656 256 128 256C103.344 256 82.8788 254.782 66.1667 251.177C49.335 247.547 35.5951 241.345 25.125 230.875C14.6549 220.405 8.45341 206.665 4.82292 189.833C1.21834 173.121 0 152.656 0 128C0 122.109 4.77563 117.333 10.6667 117.333C16.5577 117.333 21.3333 122.109 21.3333 128C21.3333 152.233 22.5596 170.879 25.6771 185.333C28.7688 199.668 33.5675 209.151 40.2083 215.792C46.8492 222.432 56.3321 227.231 70.6667 230.323C85.121 233.44 103.767 234.667 128 234.667C152.233 234.667 170.879 233.44 185.333 230.323C199.668 227.231 209.151 222.432 215.792 215.792C222.432 209.151 227.231 199.668 230.323 185.333C233.44 170.879 234.667 152.233 234.667 128C234.667 122.109 239.442 117.333 245.333 117.333Z" fill="black"/>
<path d="M128 0C133.891 0 138.667 4.77563 138.667 10.6667V166.292C156.983 151.861 171.967 133.544 182.458 112.563C185.093 107.293 191.502 105.157 196.771 107.792C202.04 110.426 204.176 116.835 201.542 122.104C186.713 151.762 163.983 176.749 135.865 194.323L133.656 195.708C130.197 197.87 125.803 197.87 122.344 195.708L120.135 194.323C92.0167 176.749 69.2875 151.762 54.4583 122.104C51.8238 116.835 53.9601 110.426 59.2292 107.792C64.4983 105.157 70.9071 107.293 73.5417 112.563C84.0326 133.544 99.0174 151.861 117.333 166.292V10.6667C117.333 4.77563 122.109 0 128 0Z" fill="black"/>
</svg>
