<svg width="256" height="256" viewBox="0 0 256 256" fill="none" xmlns="http://www.w3.org/2000/svg">
<path d="M128 85.3333C133.891 85.3333 138.667 90.109 138.667 96V117.333C138.667 123.224 133.891 128 128 128C122.109 128 117.333 123.224 117.333 117.333V96C117.333 90.109 122.109 85.3333 128 85.3333Z" fill="black"/>
<path d="M101.333 53.3333C107.224 53.3333 112 58.109 112 64C112 81.6731 97.6731 96 80 96H74.6667C68.7756 96 64 91.2244 64 85.3333C64 79.4423 68.7756 74.6667 74.6667 74.6667H80C85.5219 74.6667 90.067 70.4711 90.6146 65.0938L90.7188 62.9063C91.2663 57.5289 95.8115 53.3333 101.333 53.3333Z" fill="black"/>
<path d="M160 53.3333C165.522 53.3333 170.067 57.5289 170.615 62.9063L170.719 65.0938C171.266 70.4711 175.811 74.6667 181.333 74.6667H186.667C192.558 74.6667 197.333 79.4423 197.333 85.3333C197.333 91.2244 192.558 96 186.667 96H181.333C163.66 96 149.333 81.6731 149.333 64C149.333 58.109 154.109 53.3333 160 53.3333Z" fill="black"/>
<path fill-rule="evenodd" clip-rule="evenodd" d="M128 0C217.6 18.7317 256 49.956 256 143.615L255.938 152.177C254.585 238.421 231.331 256 128 256C24.6685 256 1.41547 238.421 0.0625 152.177L0 143.615C0 49.956 38.4 18.7317 128 0ZM128 21.8229C86.6954 30.8425 61.4222 42.06 45.8542 58.4167C30.4193 74.6335 21.3333 99.4112 21.3333 143.615C21.3337 191.186 27.4421 209.56 38.0729 218.896C43.4949 223.657 52.0657 227.823 66.9688 230.646C81.9669 233.486 101.699 234.667 128 234.667C154.301 234.667 174.033 233.486 189.031 230.646C203.934 227.823 212.505 223.657 217.927 218.896C228.558 209.56 234.666 191.186 234.667 143.615C234.667 99.4112 225.581 74.6335 210.146 58.4167C194.578 42.06 169.305 30.8425 128 21.8229Z" fill="black"/>
</svg>
