<svg width="256" height="256" viewBox="0 0 256 256" fill="none" xmlns="http://www.w3.org/2000/svg">
<path d="M31.9993 106.666C49.7771 106.666 53.3327 110.222 53.3327 127.999C53.3327 145.777 49.7771 149.333 31.9993 149.333C14.2216 149.333 10.666 145.777 10.666 127.999C10.666 110.222 14.2216 106.666 31.9993 106.666Z" fill="black"/>
<path d="M127.999 106.666C145.777 106.666 149.333 110.222 149.333 127.999C149.333 145.777 145.777 149.333 127.999 149.333C110.222 149.333 106.666 145.777 106.666 127.999C106.666 110.222 110.222 106.666 127.999 106.666Z" fill="black"/>
<path d="M223.999 106.666C241.777 106.666 245.333 110.222 245.333 127.999C245.333 145.777 241.777 149.333 223.999 149.333C206.222 149.333 202.666 145.777 202.666 127.999C202.666 110.222 206.222 106.666 223.999 106.666Z" fill="black"/>
</svg>
