<svg width="257" height="256" viewBox="0 0 257 256" fill="none" xmlns="http://www.w3.org/2000/svg">
<path d="M174.417 10.7083C195.794 10.1908 216.905 14.1201 229.979 27.1875C243.082 40.2862 246.899 61.4457 246.271 82.8229C245.626 104.783 240.23 129.758 231.865 153.49C223.495 177.235 211.942 200.334 198.573 218.427C185.512 236.104 169.359 250.827 151.25 254.448C118.122 261.07 93.7047 245.433 78.396 229.448C70.7442 221.458 65.1075 213.148 61.3856 206.885C59.7076 204.062 58.4009 201.619 57.4585 199.76C55.5878 198.853 53.1326 197.602 50.3022 195.979C43.9949 192.363 35.6248 186.842 27.5835 179.26C11.4359 164.035 -4.14833 139.609 2.60431 105.875C6.2861 87.4833 21 71.1792 38.7501 58.0209C56.882 44.5799 79.9988 33.0639 103.75 24.7813C127.491 16.5025 152.465 11.2405 174.417 10.7083ZM174.927 32.0417C155.725 32.5074 132.993 37.182 110.781 44.9271C88.5798 52.6692 67.4902 63.2726 51.4585 75.1563C35.0467 87.3221 25.6352 99.5572 23.5314 110.063C18.7147 134.125 29.3031 151.562 42.2189 163.74C48.7064 169.856 55.5937 174.422 60.9064 177.469C61.7279 177.94 62.5203 178.356 63.2501 178.75L99.7397 142.281C103.905 138.118 110.658 138.117 114.823 142.281C118.987 146.448 118.989 153.2 114.823 157.365L78.4376 193.729C78.8346 194.435 79.2488 195.199 79.7189 195.99C82.8751 201.3 87.5875 208.187 93.8126 214.688C106.258 227.682 123.717 238.197 147.063 233.531C157.191 231.507 169.267 222.193 181.417 205.75C193.259 189.722 203.908 168.615 211.74 146.396C219.576 124.165 224.383 101.413 224.948 82.1979C225.529 62.3998 221.558 48.9295 214.896 42.2708C208.204 35.5826 194.703 31.5623 174.927 32.0417Z" fill="black"/>
</svg>
