<svg width="256" height="257" viewBox="0 0 256 257" fill="none" xmlns="http://www.w3.org/2000/svg">
<path fill-rule="evenodd" clip-rule="evenodd" d="M128 0.962891C152.656 0.962891 173.121 2.18123 189.833 5.78581C206.665 9.4163 220.405 15.6178 230.875 26.0879C241.345 36.558 247.547 50.2979 251.177 67.1296C254.782 83.8417 256 104.307 256 128.963C256 136.404 255.881 143.492 255.625 150.234H255.833L255.167 159.494C254.74 166.298 254.117 172.714 253.271 178.755C253.212 179.173 253.144 179.589 253.083 180.005C252.891 181.315 252.684 182.605 252.469 183.88C252.363 184.505 252.257 185.127 252.146 185.744C251.956 186.791 251.759 187.826 251.552 188.848C251.372 189.743 251.184 190.628 250.99 191.505C250.802 192.35 250.617 193.187 250.417 194.015C250.229 194.793 250.033 195.564 249.833 196.327C249.583 197.281 249.321 198.221 249.052 199.15C248.863 199.803 248.657 200.446 248.458 201.088C248.171 202.015 247.891 202.935 247.583 203.838C247.387 204.414 247.174 204.98 246.969 205.546C246.618 206.517 246.272 207.48 245.896 208.421C245.676 208.971 245.427 209.506 245.198 210.046C244.816 210.947 244.438 211.84 244.031 212.713C243.84 213.124 243.635 213.527 243.438 213.932C242.972 214.887 242.509 215.833 242.01 216.755C241.736 217.262 241.442 217.757 241.156 218.255C240.764 218.939 240.391 219.631 239.979 220.296C233.463 230.825 224.823 238.381 214.104 243.828C213.894 243.934 213.691 244.056 213.479 244.161C212.36 244.717 211.217 245.244 210.052 245.755C209.809 245.861 209.568 245.973 209.323 246.078C208.169 246.571 206.99 247.032 205.792 247.484C205.466 247.607 205.142 247.739 204.813 247.859C203.626 248.291 202.416 248.694 201.188 249.088C200.893 249.182 200.599 249.277 200.302 249.369C199.046 249.76 197.768 250.13 196.469 250.484C196.133 250.575 195.797 250.666 195.458 250.755C194.123 251.106 192.766 251.44 191.385 251.755C191.122 251.815 190.859 251.883 190.594 251.942C184.739 253.241 178.493 254.255 171.844 254.994C164.611 255.799 156.804 256.295 148.396 256.598L138.833 257.005V256.859C135.319 256.918 131.709 256.963 128 256.963C103.344 256.963 82.8788 255.745 66.1667 252.14C49.335 248.51 35.5951 242.308 25.125 231.838C14.6549 221.368 8.45341 207.628 4.82292 190.796C1.21834 174.084 0 153.619 0 128.963C0 104.307 1.21834 83.8417 4.82292 67.1296C8.45341 50.2979 14.6549 36.558 25.125 26.0879C35.5951 15.6178 49.335 9.4163 66.1667 5.78581C82.8788 2.18123 103.344 0.962891 128 0.962891ZM128 22.2962C103.767 22.2962 85.121 23.5225 70.6667 26.64C56.3321 29.7317 46.8492 34.5304 40.2083 41.1712C33.5675 47.8121 28.7688 57.295 25.6771 71.6296C22.5596 86.0839 21.3333 104.73 21.3333 128.963C21.3333 153.196 22.5596 171.842 25.6771 186.296C28.7688 200.631 33.5675 210.114 40.2083 216.755C46.8492 223.395 56.3321 228.194 70.6667 231.286C85.121 234.403 103.767 235.63 128 235.63C132.354 235.63 136.532 235.578 140.542 235.494C143.473 207.986 150.502 187.101 166.406 172.952C182.153 158.945 204.714 153.283 234.219 151.265C234.513 144.44 234.667 137.025 234.667 128.963C234.667 104.73 233.44 86.0839 230.323 71.6296C227.231 57.295 222.432 47.8121 215.792 41.1712C209.151 34.5304 199.668 29.7317 185.333 26.64C170.879 23.5225 152.233 22.2962 128 22.2962ZM232.531 172.775C206.283 174.88 190.56 180.026 180.583 188.9C170.977 197.449 165.009 211.029 162.125 234.453C186.579 232.494 201.889 227.907 211.938 220.119C212.676 219.546 213.388 218.957 214.073 218.348C223.683 209.801 229.648 196.216 232.531 172.775Z" fill="black"/>
</svg>
