<svg width="256" height="256" viewBox="0 0 256 256" fill="none" xmlns="http://www.w3.org/2000/svg">
<path d="M163.125 77.7917C167.291 73.6266 174.043 73.6266 178.208 77.7917C182.374 81.9571 182.374 88.7094 178.208 92.875L143.083 128L178.208 163.125C182.374 167.29 182.374 174.043 178.208 178.208C174.043 182.374 167.291 182.374 163.125 178.208L128 143.083L92.875 178.208C88.7094 182.374 81.9573 182.374 77.7917 178.208C73.6264 174.043 73.6262 167.29 77.7917 163.125L112.917 128L77.7917 92.875C73.6264 88.7094 73.6262 81.9571 77.7917 77.7917C81.9572 73.6266 88.7095 73.6266 92.875 77.7917L128 112.917L163.125 77.7917Z" fill="black"/>
<path fill-rule="evenodd" clip-rule="evenodd" d="M128 0C198.692 0 256 57.3076 256 128C256 198.692 198.692 256 128 256C57.3076 256 0 198.692 0 128C0 57.3076 57.3076 0 128 0ZM128 21.3333C69.0896 21.3333 21.3333 69.0896 21.3333 128C21.3333 186.91 69.0896 234.667 128 234.667C186.91 234.667 234.667 186.91 234.667 128C234.667 69.0896 186.91 21.3333 128 21.3333Z" fill="black"/>
</svg>
