<svg width="256" height="256" viewBox="0 0 256 256" fill="none" xmlns="http://www.w3.org/2000/svg">
<path d="M173.792 67.125C177.957 62.9596 184.709 62.9595 188.875 67.125C193.04 71.2906 193.04 78.0428 188.875 82.2083L143.083 128L188.875 173.792C193.04 177.957 193.04 184.709 188.875 188.875C184.709 193.041 177.957 193.04 173.792 188.875L128 143.083L82.2083 188.875C78.0428 193.041 71.2906 193.04 67.125 188.875C62.9594 184.709 62.9594 177.957 67.125 173.792L112.917 128L67.125 82.2083C62.9594 78.0427 62.9594 71.2906 67.125 67.125C71.2906 62.9596 78.0428 62.9595 82.2083 67.125L128 112.917L173.792 67.125Z" fill="black"/>
<path fill-rule="evenodd" clip-rule="evenodd" d="M137.75 0.0625C235.979 1.41443 256 24.666 256 128L255.938 137.75C254.586 235.979 231.334 256 128 256L118.25 255.938C20.0211 254.586 0 231.334 0 128C6.78174e-07 21.3333 21.3334 0 128 0L137.75 0.0625ZM128 21.3333C101.757 21.3333 82.2421 22.6747 67.5 25.8542C52.9976 28.9821 44.5872 33.5795 39.0833 39.0833C33.5795 44.5872 28.9821 52.9976 25.8542 67.5C22.6747 82.2421 21.3333 101.757 21.3333 128C21.3333 154.243 22.6747 173.758 25.8542 188.5C28.9821 203.002 33.5795 211.413 39.0833 216.917C44.5872 222.421 52.9976 227.018 67.5 230.146C82.2421 233.325 101.757 234.667 128 234.667C154.243 234.667 173.758 233.325 188.5 230.146C203.002 227.018 211.413 222.421 216.917 216.917C222.421 211.413 227.018 203.002 230.146 188.5C233.325 173.758 234.667 154.243 234.667 128C234.667 101.757 233.325 82.2421 230.146 67.5C227.018 52.9976 222.421 44.5872 216.917 39.0833C211.413 33.5795 203.002 28.9821 188.5 25.8542C173.758 22.6747 154.243 21.3333 128 21.3333Z" fill="black"/>
</svg>
