<svg width="256" height="256" viewBox="0 0 256 256" fill="none" xmlns="http://www.w3.org/2000/svg">
<path d="M128 96.0007C145.673 96.0007 160 110.328 160 128.001C160 145.674 145.673 160.001 128 160.001C110.327 160.001 96 145.674 96 128.001C96 110.328 110.327 96.0007 128 96.0007Z" fill="black"/>
<path fill-rule="evenodd" clip-rule="evenodd" d="M128 21.334C202.667 21.334 256 85.334 256 128.001C256 170.667 202.667 234.667 128 234.667C53.3333 234.667 0 170.667 0 128.001C0 85.334 53.3333 21.334 128 21.334ZM128 42.6673C96.9476 42.6673 69.9951 55.9695 50.625 74.1986C30.6178 93.0288 21.3333 114.459 21.3333 128.001C21.3333 141.542 30.6178 162.972 50.625 181.803C69.9951 200.032 96.9476 213.334 128 213.334C159.052 213.334 186.005 200.032 205.375 181.803C225.382 162.972 234.667 141.542 234.667 128.001C234.667 114.459 225.382 93.0288 205.375 74.1986C186.005 55.9695 159.052 42.6673 128 42.6673Z" fill="black"/>
</svg>
