<svg width="256" height="256" viewBox="0 0 256 256" fill="none" xmlns="http://www.w3.org/2000/svg">
<path d="M127.999 117.334C145.672 117.334 159.999 131.661 159.999 149.334C159.999 167.007 145.672 181.334 127.999 181.334C110.326 181.334 95.9992 167.007 95.9992 149.334C95.9992 131.661 110.326 117.334 127.999 117.334Z" fill="black"/>
<path fill-rule="evenodd" clip-rule="evenodd" d="M127.999 21.334C133.89 21.334 138.666 26.1096 138.666 32.0007V53.8132C162.578 55.9285 183.735 65.0155 200.78 77.459L211.124 67.1257C215.29 62.9601 222.042 62.9601 226.208 67.1257C230.373 71.2912 230.373 78.0434 226.208 82.209L216.958 91.4486C228.387 103.136 236.746 116.227 241.322 128.771C245.172 127.213 249.752 128.003 252.874 131.126C257.04 135.291 257.04 142.043 252.874 146.209L245.072 154.001C241.381 192.223 193.721 245.334 127.999 245.334L124.801 245.292C60.7348 243.608 14.5456 191.6 10.9159 154.001L3.12419 146.209C-1.0414 142.043 -1.0414 135.291 3.12419 131.126C6.24426 128.006 10.8174 127.218 14.6659 128.771C18.8872 117.198 26.3227 105.15 36.4263 94.1777L24.4575 82.209C20.2919 78.0434 20.2919 71.2912 24.4575 67.1257C28.6231 62.9601 35.3753 62.9601 39.5409 67.1257L52.1554 79.7402C69.6984 66.1253 91.9722 56.0566 117.333 53.8132V32.0007C117.333 26.1096 122.108 21.334 127.999 21.334ZM127.999 74.6673C99.9285 74.6673 75.5979 86.4772 58.145 102.605C40.0214 119.353 31.9992 138.076 31.9992 149.334C31.9992 160.592 40.0214 179.315 58.145 196.063C75.5979 212.191 99.9285 224.001 127.999 224.001C156.07 224.001 180.4 212.191 197.853 196.063C215.977 179.315 223.999 160.592 223.999 149.334C223.999 138.076 215.977 119.353 197.853 102.605C180.4 86.4772 156.07 74.6673 127.999 74.6673Z" fill="black"/>
</svg>
