<svg width="256" height="256" viewBox="0 0 256 256" fill="none" xmlns="http://www.w3.org/2000/svg">
<path fill-rule="evenodd" clip-rule="evenodd" d="M149.333 10.666C162.614 10.666 174.874 12.2092 184.531 18.9993C193.815 25.5281 198.844 35.5608 201.75 48.1035C245.389 57.7024 256 82.2625 256 138.666C256 205.324 241.185 227.544 174.542 233.104C161.203 234.216 145.788 234.666 128 234.666C21.3333 234.666 0 218.666 0 138.666C0 134.038 0.0740034 129.625 0.229167 125.416C0.0753545 119.595 0 113.354 0 106.666C0 26.666 9.77778 10.666 58.6667 10.666C82.4131 10.666 96.915 14.4476 105.563 27.4993C107.927 24.2337 110.748 21.3817 114.135 18.9993C123.793 12.2092 136.052 10.666 149.333 10.666ZM58.6667 31.9993C35.225 31.9993 31.4275 36.1603 29.2083 39.791C27.179 43.1118 24.9518 49.219 23.4375 60.7077C21.9442 72.0397 21.3333 86.9168 21.3333 106.666C21.3333 113.196 21.404 119.248 21.5521 124.854C21.5639 125.301 21.5685 125.75 21.5521 126.197C21.4079 130.109 21.3333 134.263 21.3333 138.666C21.3333 178.827 27.2973 192.475 36.8021 199.604C42.2508 203.689 51.0925 207.376 66.4063 209.854C81.6809 212.324 101.642 213.333 128 213.333C145.485 213.333 160.253 212.887 172.771 211.843C205.118 209.144 217.642 202.696 223.813 195.218C230.56 187.04 234.667 171.973 234.667 138.666C234.667 98.5048 228.703 84.8571 219.198 77.7285C213.749 73.6432 204.907 69.9558 189.594 67.4785C174.319 65.0076 154.358 63.9994 128 63.9994C122.617 63.9994 117.452 64.055 112.5 64.1452C102.731 64.3217 94.0936 57.8343 91.5313 48.4056C89.0378 39.2218 86.1572 36.9257 84.0313 35.7285C80.5007 33.7403 73.6119 31.9993 58.6667 31.9993ZM149.333 31.9993C136.931 31.9993 130.393 33.6535 126.406 36.4577C124.572 37.7482 122.796 39.6431 121.188 42.7285C123.419 42.7109 125.689 42.666 128 42.666C147.504 42.666 164.155 43.1986 178.344 44.5618C176.519 40.3632 174.433 37.986 172.26 36.4577C168.273 33.6535 161.736 31.9994 149.333 31.9993Z" fill="black"/>
</svg>
