<svg width="256" height="256" viewBox="0 0 256 256" fill="none" xmlns="http://www.w3.org/2000/svg">
<path d="M160 192C165.891 192 170.667 196.776 170.667 202.667C170.667 208.558 165.891 213.333 160 213.333H96C90.109 213.333 85.3333 208.558 85.3333 202.667C85.3333 196.776 90.109 192 96 192H160Z" fill="black"/>
<path fill-rule="evenodd" clip-rule="evenodd" d="M128 0C234.667 0 256 18.6667 256 112C256 121.32 255.76 129.894 255.271 137.781C255.766 144.575 256 151.964 256 160L255.938 167.313C254.586 240.984 231.334 256 128 256L118.25 255.948C23.1891 254.967 1.37082 238.608 0.0625 167.313L0 160C0 151.989 0.22658 144.62 0.71875 137.844C0.226822 129.94 0 121.345 0 112C0 18.6667 21.3333 0 128 0ZM128 85.3333C101.642 85.3333 81.6809 86.3416 66.4063 88.8125C51.0925 91.2898 42.2508 94.9772 36.8021 99.0625C27.2973 106.191 21.3333 119.839 21.3333 160C21.3333 200.161 27.2973 213.809 36.8021 220.938C42.2508 225.023 51.0925 228.71 66.4063 231.188C81.6809 233.658 101.642 234.667 128 234.667C154.358 234.667 174.319 233.658 189.594 231.188C204.907 228.71 213.749 225.023 219.198 220.938C228.703 213.809 234.667 200.161 234.667 160C234.667 119.839 228.703 106.191 219.198 99.0625C213.749 94.9772 204.907 91.2898 189.594 88.8125C174.319 86.3416 154.358 85.3333 128 85.3333ZM128 21.3333C101.699 21.3333 81.9626 22.502 66.9583 25.3333C52.0478 28.1473 43.4736 32.3098 38.0521 37.0521C29.9225 44.1655 24.4433 56.5565 22.3229 83.3021C22.0767 83.5036 21.8454 83.7217 21.6042 83.9271C39.8806 68.3698 72.3047 64 128 64C183.244 64 215.591 68.3004 233.948 83.5521C233.852 83.472 233.764 83.3815 233.667 83.3021C231.546 56.557 226.077 44.1654 217.948 37.0521C212.526 32.3098 203.952 28.1473 189.042 25.3333C174.037 22.502 154.301 21.3333 128 21.3333Z" fill="black"/>
</svg>
