<svg width="256" height="256" viewBox="0 0 256 256" fill="none" xmlns="http://www.w3.org/2000/svg">
<path d="M181.334 176C185.752 176 189.334 179.582 189.334 184C189.334 188.418 185.752 192 181.334 192H74.6673C70.249 192 66.6673 188.418 66.6673 184C66.6673 179.582 70.249 176 74.6673 176H181.334Z" fill="black"/>
<path d="M181.334 133.333C185.752 133.334 189.334 136.915 189.334 141.333C189.334 145.751 185.752 149.333 181.334 149.333H74.6673C70.249 149.333 66.6673 145.752 66.6673 141.333C66.6673 136.915 70.249 133.333 74.6673 133.333H181.334Z" fill="black"/>
<path d="M117.334 90.6667C121.752 90.667 125.334 94.2486 125.334 98.6667C125.334 103.085 121.752 106.666 117.334 106.667H74.6673C70.249 106.667 66.6673 103.085 66.6673 98.6667C66.6673 94.2484 70.249 90.6667 74.6673 90.6667H117.334Z" fill="black"/>
<path fill-rule="evenodd" clip-rule="evenodd" d="M135.48 0.0520847C137.892 0.0878832 140.252 0.143532 142.553 0.218751L143.021 0.250001C148.143 0.540752 152.943 2.80523 156.542 6.47917L227.824 79.2292C231.18 82.6547 233.279 87.111 233.699 91.875C233.722 92.0584 233.75 92.242 233.761 92.4271C233.817 93.3585 233.847 94.3003 233.896 95.25C234.038 97.9342 234.162 100.69 234.261 103.521C234.295 104.512 234.325 105.512 234.355 106.521C234.554 113.265 234.667 120.417 234.667 128C234.667 234.667 216.89 256 128.001 256C39.1118 256 21.334 234.667 21.334 128C21.334 21.3333 39.1118 1.37758e-06 128.001 1.37758e-06C128.025 1.37758e-06 128.049 -1.72197e-06 128.074 1.37758e-06L135.48 0.0520847ZM128.001 14.9375C83.1498 14.9375 63.4466 20.7898 52.8027 33.5625C47.3111 40.1539 43.0083 50.0133 40.1986 65.6458C37.3834 81.311 36.2715 101.577 36.2715 128C36.2715 154.423 37.3834 174.689 40.1986 190.354C43.0083 205.987 47.3111 215.846 52.8027 222.438C63.4466 235.21 83.1498 241.063 128.001 241.063C172.851 241.063 192.555 235.21 203.199 222.438C208.69 215.846 212.993 205.987 215.803 190.354C218.618 174.689 219.73 154.423 219.73 128C219.73 120.396 219.617 113.283 219.417 106.625C150.691 105.933 131.52 89.0021 128.469 14.9375C128.313 14.9374 128.157 14.9375 128.001 14.9375ZM143.449 15.4167C143.974 27.4879 144.934 37.6825 146.459 46.3229C148.974 60.573 152.807 69.394 157.563 75.2083C166.237 85.8071 182.063 91.1926 218.459 91.6771C218.179 90.9873 217.76 90.3028 217.157 89.6875L145.876 16.9271C145.134 16.17 144.288 15.69 143.449 15.4167Z" fill="black"/>
</svg>
