<svg width="256" height="256" viewBox="0 0 256 256" fill="none" xmlns="http://www.w3.org/2000/svg">
<path fill-rule="evenodd" clip-rule="evenodd" d="M53.3333 170.667C80 170.667 85.3333 176.001 85.3333 202.667C85.3333 229.334 80 234.667 53.3333 234.667C30.6906 234.667 23.4573 230.819 21.7813 213.334H10.6667C4.77563 213.334 0 208.558 0 202.667C0 196.776 4.77563 192.001 10.6667 192.001H21.7813C23.4573 174.515 30.6906 170.667 53.3333 170.667ZM53.3333 192.001C48.4894 192.001 45.2893 192.218 43.1667 192.511C42.8749 194.634 42.6667 197.832 42.6667 202.667C42.6667 207.51 42.8742 210.711 43.1667 212.834C45.2893 213.126 48.4905 213.334 53.3333 213.334C58.1684 213.334 61.3669 213.126 63.4896 212.834C63.7822 210.711 64 207.511 64 202.667C64 197.831 63.7814 194.634 63.4896 192.511C61.3669 192.219 58.1694 192.001 53.3333 192.001Z" fill="black"/>
<path d="M245.333 192.001C251.224 192.001 256 196.776 256 202.667C256 208.558 251.224 213.334 245.333 213.334H117.333C111.442 213.334 106.667 208.558 106.667 202.667C106.667 196.776 111.442 192.001 117.333 192.001H245.333Z" fill="black"/>
<path fill-rule="evenodd" clip-rule="evenodd" d="M202.667 96.0007C225.309 96.0007 232.543 99.8486 234.219 117.334H245.333C251.224 117.334 256 122.11 256 128.001C256 133.892 251.224 138.667 245.333 138.667H234.219C232.543 156.153 225.309 160.001 202.667 160.001C176 160.001 170.667 154.667 170.667 128.001C170.667 101.334 176 96.0007 202.667 96.0007ZM202.667 117.334C197.831 117.334 194.633 117.553 192.51 117.844C192.219 119.967 192 123.165 192 128.001C192 132.845 192.218 136.045 192.51 138.167C194.633 138.459 197.832 138.667 202.667 138.667C207.509 138.667 210.711 138.46 212.833 138.167C213.126 136.045 213.333 132.843 213.333 128.001C213.333 123.166 213.125 119.967 212.833 117.844C210.711 117.552 207.511 117.334 202.667 117.334Z" fill="black"/>
<path d="M138.667 117.334C144.558 117.334 149.333 122.11 149.333 128.001C149.333 133.892 144.558 138.667 138.667 138.667H10.6667C4.77563 138.667 0 133.892 0 128.001C0 122.11 4.77563 117.334 10.6667 117.334H138.667Z" fill="black"/>
<path fill-rule="evenodd" clip-rule="evenodd" d="M53.3333 21.334C80 21.334 85.3333 26.6673 85.3333 53.334C85.3333 80.0007 80 85.334 53.3333 85.334C30.6906 85.334 23.4573 81.486 21.7813 64.0007H10.6667C4.77563 64.0007 0 59.225 0 53.334C0 47.4429 4.77563 42.6673 10.6667 42.6673H21.7813C23.4573 25.1819 30.6906 21.334 53.3333 21.334ZM53.3333 42.6673C48.4894 42.6673 45.2893 42.8852 43.1667 43.1777C42.8749 45.3004 42.6667 48.4989 42.6667 53.334C42.6667 58.1768 42.8742 61.3781 43.1667 63.5007C45.2893 63.7931 48.4905 64.0007 53.3333 64.0007C58.1684 64.0007 61.3669 63.7924 63.4896 63.5007C63.7822 61.3781 64 58.1779 64 53.334C64 48.4979 63.7814 45.3004 63.4896 43.1777C61.3669 42.8859 58.1694 42.6673 53.3333 42.6673Z" fill="black"/>
<path d="M245.333 42.6673C251.224 42.6673 256 47.4429 256 53.334C256 59.225 251.224 64.0007 245.333 64.0007H117.333C111.442 64.0007 106.667 59.225 106.667 53.334C106.667 47.4429 111.442 42.6673 117.333 42.6673H245.333Z" fill="black"/>
</svg>
