<svg width="256" height="256" viewBox="0 0 256 256" fill="none" xmlns="http://www.w3.org/2000/svg">
<path fill-rule="evenodd" clip-rule="evenodd" d="M107.802 22.0741C114.177 10.9603 127.816 4.2304 139.271 9.96992C178.36 29.5562 256 77.5012 256 149.334C256 218.769 200.713 254.682 131.76 255.939C131.806 255.937 131.851 255.93 131.896 255.928C130.604 255.965 129.306 256.001 128 256.001C126.691 256.001 125.389 255.965 124.094 255.928C124.139 255.93 124.184 255.937 124.229 255.939C55.2813 254.678 0.000341448 218.765 0 149.334C0.000303899 128.001 21.3338 85.3344 64 64.0012C84.9738 53.5142 98.2178 37.873 106.26 24.6783L107.802 22.0741ZM132.74 114.949C132.06 115.213 131.141 115.713 130.125 116.522C129.116 117.326 128.18 118.298 127.427 119.334C120.385 129.031 109.93 139.557 94.875 147.084C84.4491 152.298 76.4515 160.23 71.0833 168.282C65.3307 176.912 64.0022 183.46 64 184.887C64.0002 201.976 70.5964 213.45 80.6771 221.21C91.4184 229.477 107.751 234.668 128 234.668C148.249 234.668 164.582 229.477 175.323 221.21C185.404 213.45 192 201.976 192 184.887C191.999 170.437 184.906 156.858 172.792 144.147C160.899 131.668 145.698 121.716 133.135 114.824C133.027 114.856 132.893 114.889 132.74 114.949ZM46.5 208.96C44.007 201.756 42.6667 193.722 42.6667 184.887C42.669 170.663 56.8914 142.222 85.3333 128.001C96.7317 122.302 104.705 114.314 110.167 106.793C117.696 96.4267 131.38 89.5784 142.635 95.6991C169.963 110.561 213.331 141.052 213.333 184.887C213.333 193.724 211.983 201.745 209.49 208.949C224.969 195.345 234.667 175.973 234.667 149.334C234.667 121.573 219.691 96.8122 197.49 75.4178C175.575 54.3004 148.791 38.6396 130.167 29.272C130.081 29.2984 129.971 29.3337 129.844 29.3866C129.352 29.5925 128.698 29.9805 128.01 30.5949C127.326 31.207 126.735 31.9332 126.302 32.6887C117.03 48.8546 100.715 69.4977 73.5417 83.0845C56.0048 91.853 42.6737 105.116 33.75 118.501C24.436 132.472 21.3335 144.359 21.3333 149.334C21.3335 175.972 31.0214 195.355 46.5 208.96Z" fill="black"/>
<path d="M128 256.001L124.427 255.949C124.361 255.947 124.295 255.94 124.229 255.939C125.482 255.962 126.739 256.001 128 256.001Z" fill="black"/>
<path d="M131.76 255.939C130.514 255.973 129.26 256.001 128 256.001C129.258 256.001 130.511 255.961 131.76 255.939Z" fill="black"/>
</svg>
