<svg width="256" height="256" viewBox="0 0 256 256" fill="none" xmlns="http://www.w3.org/2000/svg">
<path d="M128 149.333C133.891 149.333 138.667 154.109 138.667 160V170.667H149.333C155.224 170.667 160 175.442 160 181.333C160 187.224 155.224 192 149.333 192H138.667V202.667C138.667 208.558 133.891 213.333 128 213.333C122.109 213.333 117.333 208.557 117.333 202.667V192H106.667C100.776 192 96 187.224 96 181.333C96 175.443 100.776 170.667 106.667 170.667H117.333V160C117.333 154.109 122.109 149.334 128 149.333Z" fill="black"/>
<path fill-rule="evenodd" clip-rule="evenodd" d="M133.688 0.0520833C174.6 0.856761 192.238 10.969 198.99 48.0313C197.199 47.6344 195.356 47.2614 193.458 46.9167C244.072 56.1608 256 82.8669 256 149.333L255.938 157.458C254.586 239.316 231.334 256 128 256L118.25 255.948C23.1891 254.858 1.37083 236.676 0.0625 157.458L0 149.333C0 82.8256 11.9423 56.124 62.6354 46.8958C60.6969 47.2464 58.8158 47.6262 56.9896 48.0313C64.0456 9.293 83.0169 0.00038244 128 0L133.688 0.0520833ZM233.229 117.51C215.956 119.197 198.653 120.479 181.333 121.333V128C181.333 133.891 176.558 138.667 170.667 138.667C164.776 138.666 160 133.891 160 128V122.156C138.671 122.787 117.329 122.787 96 122.156V128C96 133.891 91.2244 138.667 85.3333 138.667C79.4427 138.666 74.6667 133.891 74.6667 128V121.333C57.3439 120.479 40.0372 119.197 22.7604 117.51C21.8343 126.164 21.3333 136.619 21.3333 149.333C21.3333 194.358 27.4095 211.076 37.6563 219.615C43.0722 224.128 51.724 228.128 66.7708 230.833C81.8646 233.546 101.679 234.667 128 234.667C154.321 234.667 174.135 233.546 189.229 230.833C204.276 228.128 212.928 224.128 218.344 219.615C228.59 211.076 234.667 194.358 234.667 149.333C234.667 136.618 234.155 126.164 233.229 117.51ZM128 64C101.679 64 81.8646 65.1204 66.7708 67.8333C51.724 70.5382 43.0722 74.5392 37.6563 79.0521C33.2055 82.7611 29.5438 88.0138 26.8229 96.4583C42.7497 97.9823 58.7006 99.1654 74.6667 99.9688V96C74.6667 90.1092 79.4427 85.3338 85.3333 85.3333C91.2244 85.3333 96 90.109 96 96V100.813C117.329 101.456 138.671 101.456 160 100.813V96C160 90.1092 164.776 85.3338 170.667 85.3333C176.558 85.3333 181.333 90.109 181.333 96V99.9688C197.296 99.1656 213.243 97.9818 229.167 96.4583C226.446 88.0155 222.794 82.7606 218.344 79.0521C212.928 74.5392 204.276 70.5382 189.229 67.8333C174.135 65.1204 154.321 64 128 64ZM128 21.3333C97.0762 21.3336 88.9751 26.2864 84.8125 32.2292C83.0003 34.8184 81.1766 38.6751 79.5938 44.5938C79.3393 44.619 79.0863 44.6513 78.8333 44.6771C92.7645 43.2528 109.032 42.6667 128 42.6667C146.902 42.6667 163.122 43.243 177.021 44.6563C176.813 44.6351 176.605 44.6145 176.396 44.5938C174.813 38.6761 173 34.818 171.188 32.2292C167.025 26.2865 158.924 21.3335 128 21.3333Z" fill="black"/>
</svg>
