<svg width="256" height="256" viewBox="0 0 256 256" fill="none" xmlns="http://www.w3.org/2000/svg">
<path fill-rule="evenodd" clip-rule="evenodd" d="M109.667 9.59603C138.665 -0.4215 169.855 -2.32183 199.854 4.10645L231.25 10.8356C234.794 11.5955 237.718 14.0135 239.156 17.2731L239.677 18.721L240.99 23.4606C254.15 72.5614 254.602 124.238 242.26 173.606L239.677 183.919C238.919 186.951 236.872 189.499 234.073 190.888C231.274 192.276 228.008 192.368 225.135 191.138L195.021 178.231C169.096 167.121 139.813 166.767 113.625 177.242C88.921 187.123 61.9742 190.033 35.7292 185.659L21.3333 183.252V245.336C21.3333 251.227 16.5577 256.002 10.6667 256.002C4.77563 256.002 0 251.227 0 245.336V21.7835C0.00021249 18.6345 1.39193 15.6434 3.80208 13.6169C6.21284 11.5912 9.39818 10.732 12.5 11.2731L36.3958 15.4502C60.9206 19.7386 86.1344 17.7252 109.667 9.59603ZM195.385 24.971C169.191 19.358 141.956 21.0158 116.635 29.7627C89.6854 39.0727 60.8053 41.3823 32.7187 36.471L21.3333 34.471V161.627L39.2396 164.617C61.6326 168.349 84.6196 165.86 105.698 157.429C137.139 144.853 172.291 145.288 203.417 158.627L221.99 166.586C232.872 121.762 232.417 74.9712 220.719 30.3981L195.385 24.971Z" fill="black"/>
</svg>
