<svg width="256" height="256" viewBox="0 0 256 256" fill="none" xmlns="http://www.w3.org/2000/svg">
<path fill-rule="evenodd" clip-rule="evenodd" d="M128 85.3333C163.556 85.3333 170.667 92.4444 170.667 128C170.667 163.556 163.556 170.667 128 170.667C92.4444 170.667 85.3333 163.556 85.3333 128C85.3333 92.4444 92.4444 85.3333 128 85.3333ZM128 106.667C119.535 106.667 114.242 107.119 110.833 107.854C109.674 108.104 108.945 108.354 108.521 108.521C108.354 108.945 108.104 109.674 107.854 110.833C107.119 114.242 106.667 119.535 106.667 128C106.667 136.465 107.119 141.758 107.854 145.167C108.103 146.318 108.354 147.043 108.521 147.469C108.945 147.636 109.67 147.895 110.833 148.146C114.242 148.881 119.535 149.333 128 149.333C136.465 149.333 141.758 148.881 145.167 148.146C146.321 147.897 147.043 147.636 147.469 147.469C147.636 147.043 147.897 146.321 148.146 145.167C148.881 141.758 149.333 136.465 149.333 128C149.333 119.535 148.881 114.242 148.146 110.833C147.895 109.67 147.636 108.945 147.469 108.521C147.043 108.354 146.318 108.103 145.167 107.854C141.758 107.119 136.465 106.667 128 106.667Z" fill="black"/>
<path fill-rule="evenodd" clip-rule="evenodd" d="M128 0C150.104 2.02371e-07 163.403 5.28148 171.198 23.7083C189.74 16.1901 202.88 21.8593 218.51 37.4896C234.139 53.1184 239.796 66.2521 232.281 84.7917C250.718 92.5862 256 105.891 256 128C256 150.108 250.715 163.403 232.281 171.198C239.801 189.742 234.141 202.88 218.51 218.51C202.88 234.141 189.741 239.801 171.198 232.281C163.403 250.715 150.108 256 128 256C105.891 256 92.5862 250.718 84.7917 232.281C66.2518 239.797 53.1185 234.139 37.4896 218.51C21.8591 202.88 16.1898 189.741 23.7083 171.198C5.28148 163.403 -6.01872e-07 150.104 0 128C9.6605e-07 105.899 5.27822 92.5979 23.6979 84.8021C16.1812 66.261 21.86 53.1192 37.4896 37.4896C53.1175 21.862 66.2533 16.1943 84.7917 23.7083C92.5867 5.27846 105.894 0 128 0ZM128 21.3333C118.218 21.3333 113.37 22.5887 110.76 23.9271C108.969 24.8466 106.775 26.4954 104.438 32.0208C99.8961 42.7542 87.5829 47.8556 76.7813 43.4792C71.2156 41.2233 68.4978 41.6131 66.5833 42.2292C63.7957 43.1265 59.4866 45.6594 52.5729 52.5729C45.6563 59.4895 43.1179 63.8018 42.2188 66.5938C41.6013 68.5111 41.2139 71.2299 43.4688 76.7917C47.8448 87.5923 42.7428 99.9056 32.0104 104.448C26.4874 106.786 24.8458 108.98 23.9271 110.771C22.5896 113.379 21.3333 118.221 21.3333 128C21.3333 137.78 22.5898 142.623 23.9271 145.229C24.8459 147.018 26.4921 149.213 32.0208 151.552C42.7561 156.094 47.8594 168.416 43.4792 179.219C41.2233 184.784 41.613 187.502 42.2292 189.417C43.1279 192.206 45.6613 196.516 52.5729 203.427C59.4816 210.336 63.7883 212.864 66.5729 213.76C68.4855 214.375 71.2097 214.769 76.7813 212.51L78.8229 211.802C89.0948 208.795 100.182 213.913 104.438 223.979C106.778 229.513 108.981 231.154 110.771 232.073C113.379 233.411 118.219 234.667 128 234.667C137.778 234.667 142.614 233.409 145.219 232.073C147.007 231.155 149.21 229.508 151.552 223.969L152.49 222.031C157.623 212.636 169.088 208.402 179.219 212.51C184.787 214.768 187.503 214.386 189.417 213.771C192.203 212.875 196.513 210.341 203.427 203.427C210.341 196.513 212.875 192.203 213.771 189.417C214.386 187.503 214.768 184.787 212.51 179.219C208.129 168.416 213.233 156.094 223.969 151.552C229.508 149.21 231.155 147.007 232.073 145.219C233.243 142.939 234.357 138.952 234.615 131.438L234.667 128C234.667 118.219 233.411 113.379 232.073 110.771C231.154 108.981 229.513 106.778 223.979 104.438C213.242 99.8982 208.133 87.585 212.51 76.7813C214.769 71.2099 214.375 68.4858 213.76 66.5729C212.864 63.7882 210.336 59.4814 203.427 52.5729C196.516 45.6615 192.206 43.1279 189.417 42.2292C187.501 41.6129 184.783 41.2236 179.219 43.4792C168.416 47.8592 156.094 42.7561 151.552 32.0208C149.213 26.4921 147.018 24.8459 145.229 23.9271C142.948 22.7568 138.954 21.6435 131.438 21.3854L128 21.3333Z" fill="black"/>
</svg>
