<svg width="256" height="256" viewBox="0 0 256 256" fill="none" xmlns="http://www.w3.org/2000/svg">
<path fill-rule="evenodd" clip-rule="evenodd" d="M138.791 120C140.135 78.2052 152.745 64 186.666 64C220.587 64 233.187 78.2054 234.531 120H245.333C249.751 120 253.333 123.582 253.333 128C253.333 132.418 249.751 136 245.333 136H234.531L234.52 136.625C233.071 177.937 220.417 192 186.666 192C152.915 192 140.261 177.937 138.812 136.625L138.801 136H117.197L117.187 136.625C115.737 177.937 103.084 192 69.3327 192C35.5816 192 22.9281 177.937 21.4785 136.625L21.4681 136H10.666C6.24774 136 2.66602 132.418 2.66602 128C2.66602 123.582 6.24774 120 10.666 120H21.4577C22.8015 78.2052 35.412 64 69.3327 64C103.253 64 115.853 78.2054 117.197 120H138.791ZM69.3327 85.3333C53.983 85.3333 50.4307 88.7548 48.8952 90.8021C45.9307 94.7576 42.666 104.387 42.666 128C42.666 151.613 45.9307 161.242 48.8952 165.198C50.4307 167.245 53.983 170.667 69.3327 170.667C84.6823 170.667 88.2347 167.245 89.7702 165.198C92.7346 161.242 95.9993 151.613 95.9993 128C95.9993 104.387 92.7346 94.7576 89.7702 90.8021C88.2347 88.7548 84.6823 85.3333 69.3327 85.3333ZM186.666 85.3333C171.316 85.3333 167.764 88.7548 166.229 90.8021C163.264 94.7576 159.999 104.387 159.999 128C159.999 151.613 163.264 161.242 166.229 165.198C167.764 167.245 171.316 170.667 186.666 170.667C202.016 170.667 205.568 167.245 207.104 165.198C210.068 161.242 213.333 151.613 213.333 128C213.333 104.387 210.068 94.7576 207.104 90.8021C205.568 88.7548 202.016 85.3333 186.666 85.3333Z" fill="black"/>
</svg>
