<svg width="256" height="256" viewBox="0 0 256 256" fill="none" xmlns="http://www.w3.org/2000/svg">
<path fill-rule="evenodd" clip-rule="evenodd" d="M128 0C234.667 0 256 21.3333 256 128C256 234.667 234.667 256 128 256C21.3333 256 0 234.667 0 128C0 21.3333 21.3333 0 128 0ZM87.7292 193.406C83.7634 191.307 80.5814 190.789 77.4375 191.635C74.1024 192.534 71.504 195.031 69.4271 200.948C67.2603 207.123 66.4875 214.778 65.75 222.75C65.5525 224.885 65.3214 227.226 65.0417 229.552C65.8437 229.744 66.6575 229.964 67.5 230.146C82.2421 233.325 101.757 234.667 128 234.667C154.243 234.667 173.758 233.325 188.5 230.146C188.571 230.131 188.638 230.099 188.708 230.083C188.531 229.558 188.36 229.048 188.198 228.563C186.753 224.226 185.524 220.677 183.719 217.76C182.076 215.107 180.306 213.564 177.958 212.781C171.762 210.717 166.564 212.097 157.771 214.865C152.478 216.53 145.546 218.768 137.792 219.01C129.633 219.264 121.058 217.341 111.844 211.813C107.941 209.471 104.008 206.01 100.823 203.25C96.0788 199.138 91.9735 195.654 87.7292 193.406ZM194.729 27.4063C197.994 34.0391 200.937 42.0793 202.521 51.5833C204.36 62.6209 203.023 72.2631 196.021 78.8854C190.07 84.5127 181.725 85.7767 177.729 86.5417C176.016 86.8696 174.673 87.1355 173.438 87.4479C172.223 87.7551 171.409 88.0406 170.854 88.3021C170.35 88.5398 170.18 88.6953 170.156 88.7188C170.156 88.7188 170.137 88.7407 170.125 88.7604L170.01 89.0208C169.105 91.4783 169.262 93.9842 171.042 97.6146C173.018 101.645 176.356 105.776 180.667 111.01C184.719 115.931 190.176 122.413 193.063 129.396C194.607 133.131 195.642 137.476 195.229 142.24C194.808 147.088 192.95 151.615 189.865 155.729C185.392 161.693 179.794 165.592 173.344 167.25C167.088 168.857 160.995 168.118 155.76 166.583C145.701 163.633 136.153 156.889 130.094 152.688C126.584 150.254 124.53 148.859 123.229 148.208C121.348 147.268 118.064 146.417 112.458 145.073C106.794 143.715 99.1826 141.927 92.5313 138.771C85.7588 135.556 78.3618 130.169 75.2083 120.708C73.6462 116.022 72.8789 112.113 72.2917 109.177C71.358 104.509 70.9857 103.412 70.1354 102.26C69.1767 100.963 66.7469 98.6339 59.2292 94.875C52.0149 91.2679 47.5441 85.0477 44.8229 78.6667C42.1247 72.3395 40.841 65.1825 40.3021 58.3021C39.7709 51.5179 39.9314 44.4659 40.4479 37.8333C39.9811 38.2519 39.5132 38.6535 39.0833 39.0833C33.5795 44.5872 28.9821 52.9976 25.8542 67.5C22.6747 82.2421 21.3333 101.757 21.3333 128C21.3333 154.243 22.6747 173.758 25.8542 188.5C28.9821 203.002 33.5795 211.413 39.0833 216.917C40.6203 218.454 42.3987 219.898 44.4583 221.281C44.4737 221.116 44.4948 220.95 44.5104 220.781C45.1948 213.384 46.0963 202.993 49.2917 193.885C52.5764 184.525 59.0372 174.493 71.8958 171.031C81.8345 168.356 90.6573 170.819 97.7083 174.552C104.48 178.137 110.408 183.336 114.792 187.135C118.45 190.306 120.857 192.341 122.823 193.521C128.625 197.002 133.172 197.81 137.125 197.688C141.484 197.551 145.673 196.302 151.365 194.51C159.6 191.918 171.145 188.031 184.708 192.552C201.21 198.055 206.03 214.588 208.438 221.813C208.573 222.218 208.702 222.599 208.823 222.958C212.101 221.102 214.742 219.091 216.917 216.917C222.421 211.413 227.018 203.002 230.146 188.5C233.325 173.758 234.667 154.243 234.667 128C234.667 101.757 233.325 82.2421 230.146 67.5C227.018 52.9976 222.421 44.5872 216.917 39.0833C212.254 34.4206 205.501 30.4255 194.729 27.4063ZM128 21.3333C101.757 21.3333 82.2421 22.6747 67.5 25.8542C66.0008 26.1775 64.5705 26.5313 63.1979 26.8854C61.7972 35.751 60.7947 46.8283 61.5625 56.6354C62.0016 62.2425 62.9911 66.886 64.4479 70.3021C65.8818 73.6628 67.4522 75.1324 68.7708 75.7917C77.2481 80.0304 83.3223 84.2034 87.3021 89.5938C91.3869 95.1279 92.3922 100.909 93.2083 104.99C93.7876 107.886 94.3444 110.647 95.4479 113.958C96.0124 115.652 97.5265 117.53 101.677 119.5C105.951 121.528 111.295 122.85 117.438 124.323C122.086 125.437 128.194 126.836 132.771 129.125C135.767 130.623 139.303 133.113 142.25 135.156C148.99 139.829 155.636 144.306 161.76 146.104C164.617 146.942 166.623 146.955 168.031 146.594C169.244 146.282 170.888 145.489 172.802 142.938C173.785 141.627 173.942 140.821 173.979 140.396C174.023 139.886 173.961 139.01 173.354 137.542C171.939 134.12 168.878 130.256 164.198 124.573C160.276 119.81 155.18 113.706 151.896 107.01C148.415 99.9124 146.476 91.1835 149.99 81.6458L150.99 79.3229C153.542 74.1863 157.585 70.9684 161.76 69C165.999 67.0023 170.721 66.1676 173.719 65.5938C176.285 65.1024 178.021 64.7505 179.479 64.2708C180.856 63.8177 181.285 63.4603 181.365 63.3854C181.389 63.362 181.41 63.3387 181.448 63.2708C181.492 63.1909 181.615 62.9349 181.729 62.4063C181.974 61.2698 182.136 59.022 181.479 55.0833C178.853 39.3318 171.419 28.9283 166.49 22.7396C155.583 21.7875 142.873 21.3333 128 21.3333Z" fill="black"/>
</svg>
