<svg width="256" height="256" viewBox="0 0 256 256" fill="none" xmlns="http://www.w3.org/2000/svg">
<path fill-rule="evenodd" clip-rule="evenodd" d="M128 0C147.556 0 256 35.9506 256 74.6667C256 83.1845 241.746 96.7149 222.656 110.531C222.768 110.45 222.889 110.383 223 110.302C223.693 120.278 224 131.467 224 144L223.948 152.531C222.934 238.479 205.499 256 128 256L120.688 255.948C49.3928 254.803 33.0337 235.707 32.0521 152.531L32 144C32.0001 131.467 32.2963 120.278 32.9896 110.302C33.2571 110.496 33.5326 110.681 33.8021 110.875C29.3515 107.666 25.1516 104.479 21.3333 101.354V186.667C21.3333 192.558 16.5577 197.333 10.6667 197.333C4.77563 197.333 0 192.558 0 186.667V74.6667C0 35.9506 108.444 0 128 0ZM53.6458 124.24C53.4403 130.293 53.3334 136.865 53.3333 144C53.3334 166.973 54.3416 184.083 56.7292 197C59.1037 209.84 62.5558 216.864 66.1979 221.115C73.1586 229.234 87.329 234.667 128 234.667C168.671 234.667 182.841 229.234 189.802 221.115C193.444 216.864 196.896 209.84 199.271 197C201.658 184.083 202.667 166.973 202.667 144C202.667 136.865 202.549 130.293 202.344 124.24C171.981 143.455 138.112 160 128 160C117.877 160 83.941 143.421 53.5521 124.177C53.5833 124.197 53.6146 124.22 53.6458 124.24ZM126.417 21.5208C125.167 21.7033 123.511 22.0068 121.448 22.4583C117.315 23.363 112.053 24.758 106.021 26.6146C93.9452 30.3313 79.4928 35.6867 65.7083 42.1354C51.7333 48.6734 39.4401 55.8765 30.9896 62.9896C25.5663 67.5545 23.1886 70.8285 22.1458 72.7292C23.9755 75.002 26.9383 78.0738 31.2396 81.8125C40.5276 89.8851 53.6578 99.1435 67.9375 108.031C82.1303 116.865 96.8247 124.939 108.938 130.719C115.014 133.619 120.158 135.806 124.094 137.219C126.008 137.906 127.276 138.263 128 138.458C128.724 138.263 129.992 137.906 131.906 137.219C135.842 135.806 140.986 133.619 147.063 130.719C159.175 124.939 173.87 116.865 188.063 108.031C202.342 99.1435 215.472 89.8851 224.76 81.8125C229.058 78.0766 232.014 75.0015 233.844 72.7292C232.8 70.8279 230.43 67.551 225.01 62.9896C216.56 55.8765 204.267 48.6734 190.292 42.1354C176.507 35.6867 162.055 30.3313 149.979 26.6146C143.947 24.758 138.685 23.363 134.552 22.4583C132.489 22.0068 130.833 21.7033 129.583 21.5208C128.229 21.3231 127.781 21.3333 128 21.3333C128.219 21.3333 127.771 21.3231 126.417 21.5208Z" fill="black"/>
</svg>
