<svg width="256" height="256" viewBox="0 0 256 256" fill="none" xmlns="http://www.w3.org/2000/svg">
<path d="M9.70245 192.039C88.4048 184.885 167.604 184.884 246.307 192.039C252.169 192.576 256.494 197.77 255.963 203.633C255.428 209.497 250.233 213.82 244.369 213.289C166.954 206.252 89.0555 206.252 11.6399 213.289C5.77404 213.822 0.580949 209.498 0.0461955 203.633C-0.485578 197.768 3.83789 192.574 9.70245 192.039Z" fill="black"/>
<path d="M9.70245 117.372C88.4048 110.218 167.604 110.218 246.307 117.372C252.169 117.909 256.494 123.103 255.963 128.966C255.428 134.83 250.233 139.153 244.369 138.622C166.954 131.585 89.0555 131.585 11.6399 138.622C5.77404 139.156 0.580949 134.832 0.0461955 128.966C-0.485578 123.101 3.83789 117.907 9.70245 117.372Z" fill="black"/>
<path d="M9.70245 42.7058C88.4048 35.5513 167.604 35.5511 246.307 42.7058C252.169 43.2424 256.494 48.4363 255.963 54.2996C255.428 60.1637 250.233 64.4868 244.369 63.9558C166.954 56.9182 89.0555 56.9185 11.6399 63.9558C5.77404 64.4891 0.580949 60.165 0.0461955 54.2996C-0.485578 48.4347 3.83789 43.2405 9.70245 42.7058Z" fill="black"/>
</svg>
