<svg width="256" height="256" viewBox="0 0 256 256" fill="none" xmlns="http://www.w3.org/2000/svg">
<path fill-rule="evenodd" clip-rule="evenodd" d="M128 0C234.667 0 256 21.3333 256 128C256 234.667 234.667 256 128 256C21.3333 256 0 234.667 0 128C0 21.3333 21.3333 0 128 0ZM233.604 95.9479C163.376 88.9252 92.6236 88.9252 22.3958 95.9479C22.3476 95.9527 22.2982 95.9438 22.25 95.9479C21.6376 105.343 21.3333 115.963 21.3333 128C21.3333 154.243 22.6747 173.758 25.8542 188.5C28.9821 203.002 33.5795 211.413 39.0833 216.917C44.5872 222.421 52.9976 227.018 67.5 230.146C82.2421 233.325 101.757 234.667 128 234.667C154.243 234.667 173.758 233.325 188.5 230.146C203.002 227.018 211.413 222.421 216.917 216.917C222.421 211.413 227.018 203.002 230.146 188.5C233.325 173.758 234.667 154.243 234.667 128C234.667 115.963 234.352 105.343 233.74 95.9479C233.695 95.944 233.649 95.9524 233.604 95.9479ZM75.0521 24.4688C72.4048 24.8895 69.8884 25.3391 67.5 25.8542C52.9976 28.9821 44.5872 33.5795 39.0833 39.0833C33.5795 44.5872 28.9821 52.9976 25.8542 67.5C25.3872 69.6651 24.9726 71.9353 24.5833 74.3125C41.4349 72.6954 58.3136 71.4602 75.2083 70.6354C78.0132 55.3679 77.9687 39.7207 75.0521 24.4688ZM175.74 23.7083C172.694 39.1183 172.6 54.9521 175.406 70.3958C194.096 71.215 212.768 72.5241 231.406 74.3125C231.017 71.9359 230.613 69.6646 230.146 67.5C227.018 52.9976 222.421 44.5872 216.917 39.0833C211.413 33.5795 203.002 28.9821 188.5 25.8542C184.594 25.0117 180.352 24.3019 175.74 23.7083ZM128 21.3333C116.132 21.3333 105.641 21.6241 96.3438 22.2188C99.1527 37.9469 99.3829 54.02 97.0104 69.8021C115.878 69.2618 134.756 69.1991 153.625 69.6458C151.262 53.81 151.522 37.6815 154.375 21.9063C146.432 21.5169 137.673 21.3333 128 21.3333Z" fill="black"/>
</svg>
