<svg width="258" height="256" viewBox="0 0 258 256" fill="none" xmlns="http://www.w3.org/2000/svg">
<path fill-rule="evenodd" clip-rule="evenodd" d="M135.585 27.032C167.729 1.27217 214.64 6.49026 240.356 38.6883C266.072 70.8891 260.367 137.677 235.669 170.667L233.2 173.834C206.947 206.353 156.89 232.198 137.179 241.553C132.566 243.742 127.398 244.012 122.648 242.365L120.648 241.542C100.97 232.181 51.0324 206.346 24.7937 173.834L22.3354 170.667C-2.3633 137.677 -7.94281 70.8893 17.7729 38.6883C43.489 6.48828 90.3991 1.27157 122.544 27.032L128.908 32.0008L135.585 27.032ZM109.2 43.6778C86.2676 25.3019 52.8098 29.0162 34.45 52.0008C26.1469 62.398 21.3292 81.1111 22.4604 103.303C23.5789 125.227 30.2886 145.705 39.4083 157.886C49.9007 171.9 66.9419 185.573 85.0437 197.345C97.9394 205.73 110.588 212.634 120.252 217.553L133.596 190.876C136.599 184.87 136.599 177.798 133.596 171.792L126.575 157.751C120.569 145.739 120.569 131.596 126.575 119.584L134.002 104.74C136.853 99.0388 136.997 92.3572 134.408 86.532L119.21 52.3341C118.973 51.8008 118.792 51.2558 118.648 50.7091C117.656 50.1648 116.697 49.5369 115.783 48.8237L109.419 43.8549L109.315 43.7612L109.2 43.6778ZM223.69 52.0008C205.33 29.013 171.862 25.2993 148.929 43.6778L148.627 43.9174L148.325 44.1466L141.648 49.1153C141.519 49.2114 141.372 49.283 141.242 49.3758L153.908 77.8653C159.086 89.5158 158.787 102.879 153.085 114.282L145.658 129.126C142.656 135.132 142.655 142.203 145.658 148.209L152.679 162.251C158.685 174.263 158.685 188.406 152.679 200.417L146.408 212.938C154.427 208.626 163.603 203.377 172.898 197.345C191.038 185.571 208.097 171.894 218.585 157.886C227.717 145.69 234.469 125.196 235.617 103.272C236.778 81.0756 231.98 62.3825 223.69 52.0008Z" fill="black"/>
</svg>
