<svg width="258" height="256" viewBox="0 0 258 256" fill="none" xmlns="http://www.w3.org/2000/svg">
<path fill-rule="evenodd" clip-rule="evenodd" d="M135.585 27.032C167.729 1.27217 214.64 6.49026 240.356 38.6883C266.072 70.8891 260.367 137.677 235.669 170.667L233.2 173.834C206.947 206.353 156.89 232.198 137.179 241.553C132.566 243.742 127.398 244.012 122.648 242.365L120.648 241.542C100.97 232.181 51.0324 206.346 24.7937 173.834L22.3354 170.667C-2.3633 137.677 -7.94281 70.8893 17.7729 38.6883C43.489 6.48828 90.3991 1.27157 122.544 27.032L128.908 32.0008L135.585 27.032ZM223.69 52.0008C205.33 29.013 171.862 25.2993 148.929 43.6778L148.627 43.9174L148.325 44.1466L141.648 49.1153C133.944 54.8459 123.353 54.7303 115.783 48.8237L109.419 43.8549L109.315 43.7612L109.2 43.6778C86.2676 25.3019 52.8098 29.0162 34.45 52.0008C26.1469 62.398 21.3292 81.1111 22.4604 103.303C22.5266 104.6 22.6161 105.892 22.7208 107.178H64.9604C68.3176 107.178 71.4772 108.763 73.4916 111.449L92.2104 136.407L107.648 82.407C108.856 78.1783 112.54 75.1171 116.919 74.7091C121.299 74.302 125.483 76.6289 127.45 80.5633L145.835 117.334H181.908C187.799 117.334 192.575 122.11 192.575 128.001C192.575 133.892 187.799 138.667 181.908 138.667H139.242C135.202 138.667 131.507 136.385 129.7 132.772L120.627 114.636L106.835 162.928C105.722 166.822 102.496 169.755 98.5125 170.49C94.5292 171.226 90.4742 169.637 88.0437 166.397L59.627 128.511H26.3041C29.3537 140.299 33.9419 150.585 39.4083 157.886C49.9007 171.9 66.9419 185.573 85.0437 197.345C102.297 208.564 119.103 217.142 128.919 221.845C138.752 217.145 155.604 208.569 172.898 197.345C191.038 185.571 208.097 171.894 218.585 157.886C227.717 145.69 234.469 125.196 235.617 103.272C236.778 81.0756 231.98 62.3825 223.69 52.0008Z" fill="black"/>
</svg>
