<svg width="258" height="256" viewBox="0 0 258 256" fill="none" xmlns="http://www.w3.org/2000/svg">
<path d="M135.586 27.032C167.729 1.27217 214.64 6.49026 240.356 38.6883C266.072 70.889 260.367 137.677 235.669 170.667L233.2 173.834C206.947 206.353 156.89 232.198 137.179 241.553C132.566 243.742 127.398 244.012 122.648 242.365L120.648 241.542C100.97 232.181 51.0325 206.346 24.7939 173.834L22.3355 170.667C-2.36323 137.677 -7.94296 70.8892 17.773 38.6883C43.4892 6.48828 90.3992 1.27157 122.544 27.032L128.908 32.0008L135.586 27.032ZM223.69 52.0008C205.33 29.013 171.863 25.2993 148.929 43.6778L148.627 43.9174L148.325 44.1466L141.648 49.1153C133.944 54.8461 123.353 54.7305 115.783 48.8237L109.419 43.8549L109.315 43.7612L109.2 43.6778C86.2678 25.3019 52.8099 29.0162 34.4501 52.0008C26.1468 62.3979 21.3293 81.1109 22.4605 103.303C23.579 125.227 30.2887 145.705 39.4084 157.886C49.9008 171.9 66.942 185.573 85.0439 197.345C102.297 208.564 119.103 217.142 128.919 221.845C138.753 217.145 155.605 208.569 172.898 197.345C191.038 185.571 208.097 171.894 218.586 157.886C227.717 145.689 234.47 125.196 235.617 103.272C236.778 81.0754 231.981 62.3824 223.69 52.0008Z" fill="black"/>
</svg>
