<svg width="256" height="256" viewBox="0 0 256 256" fill="none" xmlns="http://www.w3.org/2000/svg">
<path fill-rule="evenodd" clip-rule="evenodd" d="M137.75 0.0625C235.979 1.41443 256 24.666 256 128L255.938 137.75C254.586 235.979 231.334 256 128 256L118.25 255.938C20.0211 254.586 0 231.334 0 128C6.78174e-07 21.3333 21.3333 0 128 0L137.75 0.0625ZM21.4167 138.667C21.749 159.631 23.1214 175.829 25.8542 188.5C28.9821 203.002 33.5795 211.413 39.0833 216.917C44.5872 222.421 52.9976 227.018 67.5 230.146C80.1712 232.879 96.3686 234.241 117.333 234.573V202.51C67.712 201.078 54.9111 188.288 53.4792 138.667H21.4167ZM202.51 138.656C201.08 188.286 188.291 201.078 138.667 202.51V234.573C159.631 234.241 175.829 232.879 188.5 230.146C203.002 227.018 211.413 222.421 216.917 216.917C222.421 211.413 227.018 203.002 230.146 188.5C232.879 175.829 234.251 159.631 234.583 138.667H202.667C202.614 138.667 202.562 138.657 202.51 138.656ZM128 74.6667C112.868 74.6667 102.242 75.4525 94.5833 77.1042C87.1643 78.7044 84.0317 80.8017 82.4167 82.4167C80.8017 84.0317 78.7044 87.1643 77.1042 94.5833C75.4525 102.242 74.6667 112.868 74.6667 128C74.6667 143.132 75.4525 153.758 77.1042 161.417C78.7044 168.836 80.8017 171.968 82.4167 173.583C84.0317 175.198 87.1643 177.296 94.5833 178.896C102.242 180.547 112.868 181.333 128 181.333C143.132 181.333 153.758 180.547 161.417 178.896C168.836 177.296 171.968 175.198 173.583 173.583C175.198 171.968 177.296 168.836 178.896 161.417C180.547 153.758 181.333 143.132 181.333 128C181.333 112.868 180.547 102.242 178.896 94.5833C177.296 87.1643 175.198 84.0317 173.583 82.4167C171.968 80.8017 168.836 78.7044 161.417 77.1042C153.758 75.4525 143.132 74.6667 128 74.6667ZM138.667 53.4792C188.288 54.9111 201.078 67.712 202.51 117.333H234.583C234.251 96.3685 232.879 80.1712 230.146 67.5C227.018 52.9976 222.421 44.5872 216.917 39.0833C211.413 33.5795 203.002 28.9821 188.5 25.8542C175.829 23.1214 159.631 21.749 138.667 21.4167V53.4792ZM117.333 21.4167C96.3685 21.749 80.1712 23.1214 67.5 25.8542C52.9976 28.9821 44.5872 33.5795 39.0833 39.0833C33.5795 44.5872 28.9821 52.9976 25.8542 67.5C23.1214 80.1712 21.749 96.3685 21.4167 117.333H53.4792C54.9111 67.7117 67.7117 54.9111 117.333 53.4792V21.4167Z" fill="black"/>
</svg>
