<svg width="256" height="256" viewBox="0 0 256 256" fill="none" xmlns="http://www.w3.org/2000/svg">
<path d="M144.563 86.4583C149.832 83.8238 156.24 85.9601 158.875 91.2292C161.51 96.4983 159.373 102.907 154.104 105.542C148.056 108.566 142.615 112.573 137.938 117.333H192C197.891 117.333 202.667 122.109 202.667 128C202.667 133.891 197.891 138.667 192 138.667H137.938C142.615 143.427 148.056 147.434 154.104 150.458C159.373 153.093 161.51 159.502 158.875 164.771C156.24 170.04 149.832 172.176 144.563 169.542C128.651 161.586 115.748 148.683 107.792 132.771C107.761 132.71 107.738 132.645 107.708 132.583C107.572 132.298 107.444 132.007 107.333 131.708C107.309 131.643 107.294 131.576 107.271 131.51C107.175 131.237 107.084 130.961 107.01 130.677C106.99 130.597 106.967 130.518 106.948 130.438L106.885 130.146C106.744 129.452 106.667 128.735 106.667 128C106.667 127.21 106.754 126.439 106.917 125.698C106.945 125.569 106.977 125.441 107.01 125.313C107.086 125.023 107.172 124.738 107.271 124.458C107.292 124.399 107.311 124.34 107.333 124.281C107.444 123.982 107.572 123.692 107.708 123.406C107.736 123.347 107.762 123.288 107.792 123.229C115.748 107.317 128.651 94.4143 144.563 86.4583Z" fill="black"/>
<path fill-rule="evenodd" clip-rule="evenodd" d="M128 0C234.667 0 256 21.3333 256 128C256 234.667 234.667 256 128 256C21.3333 256 0 234.667 0 128C0 21.3333 21.3333 0 128 0ZM128 21.3333C111.128 21.3333 97.0379 21.8946 85.2083 23.1354C78.2842 92.8704 78.2849 163.119 85.2083 232.854C97.0382 234.095 111.128 234.667 128 234.667C154.243 234.667 173.758 233.325 188.5 230.146C203.002 227.018 211.413 222.421 216.917 216.917C222.421 211.413 227.018 203.002 230.146 188.5C233.325 173.758 234.667 154.243 234.667 128C234.667 101.757 233.325 82.2421 230.146 67.5C227.018 52.9976 222.421 44.5872 216.917 39.0833C211.413 33.5795 203.002 28.9821 188.5 25.8542C173.758 22.6747 154.243 21.3333 128 21.3333ZM63.4271 26.8229C51.3862 29.8996 44.0499 34.1167 39.0833 39.0833C33.5795 44.5872 28.9821 52.9976 25.8542 67.5C22.6747 82.2421 21.3333 101.757 21.3333 128C21.3333 154.243 22.6747 173.758 25.8542 188.5C28.9821 203.002 33.5795 211.413 39.0833 216.917C44.0496 221.883 51.3877 226.09 63.4271 229.167C57.1107 161.867 57.1101 94.123 63.4271 26.8229Z" fill="black"/>
</svg>
