<svg width="256" height="256" viewBox="0 0 256 256" fill="none" xmlns="http://www.w3.org/2000/svg">
<path d="M97.125 91.2292C99.7596 85.9601 106.168 83.8238 111.438 86.4583C127.349 94.4143 140.252 107.317 148.208 123.229C148.237 123.286 148.254 123.349 148.281 123.406C148.418 123.692 148.545 123.982 148.656 124.281C148.678 124.34 148.698 124.399 148.719 124.458C148.817 124.738 148.904 125.023 148.979 125.313C149.013 125.441 149.044 125.569 149.073 125.698C149.236 126.44 149.333 127.209 149.333 128C149.333 128.788 149.235 129.553 149.073 130.292C149.044 130.421 149.012 130.549 148.979 130.677C148.906 130.96 148.824 131.237 148.729 131.51C148.706 131.577 148.681 131.642 148.656 131.708C148.545 132.008 148.418 132.297 148.281 132.583C148.253 132.644 148.238 132.711 148.208 132.771C140.252 148.683 127.349 161.586 111.438 169.542C106.168 172.176 99.7596 170.04 97.125 164.771C94.4905 159.502 96.6267 153.093 101.896 150.458C107.944 147.434 113.385 143.427 118.063 138.667H64C58.109 138.667 53.3333 133.891 53.3333 128C53.3333 122.109 58.109 117.333 64 117.333H118.063C113.385 112.573 107.944 108.566 101.896 105.542C96.6267 102.907 94.4905 96.4983 97.125 91.2292Z" fill="black"/>
<path fill-rule="evenodd" clip-rule="evenodd" d="M128 0C234.667 0 256 21.3333 256 128C256 234.667 234.667 256 128 256C21.3333 256 0 234.667 0 128C0 21.3333 21.3333 0 128 0ZM128 21.3333C101.757 21.3333 82.2421 22.6747 67.5 25.8542C52.9976 28.9821 44.5872 33.5795 39.0833 39.0833C33.5795 44.5872 28.9821 52.9976 25.8542 67.5C22.6747 82.2421 21.3333 101.757 21.3333 128C21.3333 154.243 22.6747 173.758 25.8542 188.5C28.9821 203.002 33.5795 211.413 39.0833 216.917C44.5872 222.421 52.9976 227.018 67.5 230.146C82.2421 233.325 101.757 234.667 128 234.667C144.867 234.667 158.954 234.094 170.781 232.854C177.705 163.118 177.706 92.8711 170.781 23.1354C158.954 21.8953 144.867 21.3333 128 21.3333ZM192.563 26.8229C198.88 94.1236 198.879 161.866 192.563 229.167C204.608 226.09 211.949 221.884 216.917 216.917C222.421 211.413 227.018 203.002 230.146 188.5C233.325 173.758 234.667 154.243 234.667 128C234.667 101.757 233.325 82.2421 230.146 67.5C227.018 52.9976 222.421 44.5872 216.917 39.0833C211.949 34.1154 204.609 29.8998 192.563 26.8229Z" fill="black"/>
</svg>
