<svg width="256" height="256" viewBox="0 0 256 256" fill="none" xmlns="http://www.w3.org/2000/svg">
<path d="M128 53.3333C133.891 53.3333 138.667 58.109 138.667 64V118.052C143.425 113.375 147.436 107.941 150.458 101.896C153.093 96.6267 159.502 94.4905 164.771 97.125C170.04 99.7596 172.176 106.168 169.542 111.438C161.586 127.349 148.683 140.252 132.771 148.208C132.711 148.238 132.644 148.253 132.583 148.281C132.297 148.418 132.008 148.545 131.708 148.656C131.65 148.678 131.59 148.698 131.531 148.719C131.251 148.817 130.967 148.904 130.677 148.979C130.549 149.012 130.421 149.044 130.292 149.073C129.553 149.235 128.788 149.333 128 149.333L126.906 149.281C126.495 149.239 126.094 149.16 125.698 149.073C125.569 149.044 125.441 149.013 125.313 148.979C125.023 148.904 124.738 148.817 124.458 148.719C124.399 148.698 124.34 148.678 124.281 148.656C123.982 148.545 123.692 148.418 123.406 148.281C123.349 148.254 123.286 148.237 123.229 148.208C107.317 140.252 94.4143 127.349 86.4583 111.438C83.8238 106.168 85.9601 99.7596 91.2292 97.125C96.4983 94.4905 102.907 96.6267 105.542 101.896C108.564 107.941 112.575 113.375 117.333 118.052V64C117.333 58.109 122.109 53.3333 128 53.3333Z" fill="black"/>
<path fill-rule="evenodd" clip-rule="evenodd" d="M128 0C234.667 0 256 21.3333 256 128C256 234.667 234.667 256 128 256C21.3333 256 0 234.667 0 128C0 21.3333 21.3333 0 128 0ZM226.219 201.917C160.876 195.843 95.1135 195.843 29.7708 201.917C32.4051 208.668 35.5565 213.39 39.0833 216.917C44.5872 222.421 52.9976 227.018 67.5 230.146C82.2421 233.325 101.757 234.667 128 234.667C154.243 234.667 173.758 233.325 188.5 230.146C203.002 227.018 211.413 222.421 216.917 216.917C220.443 213.39 223.585 208.667 226.219 201.917ZM128 21.3333C101.757 21.3333 82.2421 22.6747 67.5 25.8542C52.9976 28.9821 44.5872 33.5795 39.0833 39.0833C33.5795 44.5872 28.9821 52.9976 25.8542 67.5C22.6747 82.2421 21.3333 101.757 21.3333 128C21.3333 150.014 22.2982 167.29 24.4792 180.99C93.3315 174.376 162.658 174.376 231.51 180.99C233.692 167.29 234.667 150.015 234.667 128C234.667 101.757 233.325 82.2421 230.146 67.5C227.018 52.9976 222.421 44.5872 216.917 39.0833C211.413 33.5795 203.002 28.9821 188.5 25.8542C173.758 22.6747 154.243 21.3333 128 21.3333Z" fill="black"/>
</svg>
