<svg width="256" height="256" viewBox="0 0 256 256" fill="none" xmlns="http://www.w3.org/2000/svg">
<path d="M128 106.667C128.735 106.667 129.452 106.744 130.146 106.885L130.438 106.948C130.518 106.967 130.597 106.99 130.677 107.01C130.967 107.085 131.251 107.173 131.531 107.271C131.59 107.292 131.65 107.312 131.708 107.333C132.007 107.444 132.298 107.572 132.583 107.708C132.645 107.738 132.71 107.761 132.771 107.792C148.683 115.748 161.586 128.651 169.542 144.563C172.176 149.832 170.04 156.24 164.771 158.875C159.502 161.51 153.093 159.373 150.458 154.104C147.434 148.056 143.427 142.615 138.667 137.938V192C138.667 197.891 133.891 202.667 128 202.667C122.109 202.667 117.333 197.891 117.333 192V137.938C112.573 142.615 108.566 148.056 105.542 154.104C102.907 159.373 96.4983 161.51 91.2292 158.875C85.9601 156.24 83.8238 149.832 86.4583 144.563C94.4143 128.651 107.317 115.748 123.229 107.792C123.288 107.762 123.347 107.736 123.406 107.708C123.692 107.572 123.982 107.444 124.281 107.333C124.34 107.311 124.399 107.292 124.458 107.271C124.738 107.172 125.023 107.086 125.313 107.01C125.441 106.977 125.569 106.945 125.698 106.917C126.439 106.754 127.21 106.667 128 106.667Z" fill="black"/>
<path fill-rule="evenodd" clip-rule="evenodd" d="M128 0C234.667 0 256 21.3333 256 128C256 234.667 234.667 256 128 256C21.3333 256 0 234.667 0 128C0 21.3333 21.3333 0 128 0ZM232.854 85.2083C163.119 78.2849 92.8704 78.2842 23.1354 85.2083C21.8946 97.0379 21.3333 111.128 21.3333 128C21.3333 154.243 22.6747 173.758 25.8542 188.5C28.9821 203.002 33.5795 211.413 39.0833 216.917C44.5872 222.421 52.9976 227.018 67.5 230.146C82.2421 233.325 101.757 234.667 128 234.667C154.243 234.667 173.758 233.325 188.5 230.146C203.002 227.018 211.413 222.421 216.917 216.917C222.421 211.413 227.018 203.002 230.146 188.5C233.325 173.758 234.667 154.243 234.667 128C234.667 111.128 234.095 97.0382 232.854 85.2083ZM128 21.3333C101.757 21.3333 82.2421 22.6747 67.5 25.8542C52.9976 28.9821 44.5872 33.5795 39.0833 39.0833C34.1167 44.0499 29.8996 51.3862 26.8229 63.4271C94.123 57.1101 161.867 57.1107 229.167 63.4271C226.09 51.3877 221.883 44.0496 216.917 39.0833C211.413 33.5795 203.002 28.9821 188.5 25.8542C173.758 22.6747 154.243 21.3333 128 21.3333Z" fill="black"/>
</svg>
