<svg width="256" height="256" viewBox="0 0 256 256" fill="none" xmlns="http://www.w3.org/2000/svg">
<path fill-rule="evenodd" clip-rule="evenodd" d="M71.9264 138.781C109.521 139.921 117.333 150.334 117.333 191.999L117.218 199.926C116.078 237.521 105.665 245.333 63.9993 245.333L56.0723 245.218C20.9858 244.154 11.8445 235.013 10.7806 199.926L10.666 191.999C10.666 147.555 19.5549 138.666 63.9993 138.666L71.9264 138.781ZM63.9993 159.999C53.3123 159.999 46.2417 160.563 41.416 161.604C36.8303 162.593 35.8088 163.69 35.7493 163.749C35.6899 163.809 34.5926 164.83 33.6035 169.416C32.5629 174.242 31.9993 181.312 31.9993 191.999C31.9993 202.686 32.5629 209.757 33.6035 214.583C34.5926 219.168 35.6899 220.19 35.7493 220.249C35.8088 220.309 36.8303 221.406 41.416 222.395C46.2417 223.436 53.3123 223.999 63.9993 223.999C74.6864 223.999 81.757 223.436 86.5827 222.395C91.1684 221.406 92.1899 220.309 92.2493 220.249C92.3088 220.19 93.4061 219.168 94.3952 214.583C95.4357 209.757 95.9993 202.686 95.9993 191.999C95.9993 181.312 95.4357 174.242 94.3952 169.416C93.4061 164.83 92.3088 163.809 92.2493 163.749C92.1899 163.69 91.1684 162.593 86.5827 161.604C81.757 160.563 74.6864 159.999 63.9993 159.999Z" fill="black"/>
<path fill-rule="evenodd" clip-rule="evenodd" d="M199.926 138.781C237.521 139.921 245.333 150.334 245.333 191.999L245.218 199.926C244.078 237.521 233.665 245.333 191.999 245.333L184.072 245.218C148.986 244.154 139.844 235.013 138.781 199.926L138.666 191.999C138.666 147.555 147.555 138.666 191.999 138.666L199.926 138.781ZM191.999 159.999C181.312 159.999 174.242 160.563 169.416 161.604C164.83 162.593 163.809 163.69 163.749 163.749C163.69 163.809 162.593 164.83 161.604 169.416C160.563 174.242 159.999 181.312 159.999 191.999C159.999 202.686 160.563 209.757 161.604 214.583C162.593 219.168 163.69 220.19 163.749 220.249C163.809 220.309 164.83 221.406 169.416 222.395C174.242 223.436 181.312 223.999 191.999 223.999C202.686 223.999 209.757 223.436 214.583 222.395C219.168 221.406 220.19 220.309 220.249 220.249C220.309 220.19 221.406 219.168 222.395 214.583C223.436 209.757 223.999 202.686 223.999 191.999C223.999 181.312 223.436 174.242 222.395 169.416C221.406 164.83 220.309 163.809 220.249 163.749C220.19 163.69 219.168 162.593 214.583 161.604C209.757 160.563 202.686 159.999 191.999 159.999Z" fill="black"/>
<path fill-rule="evenodd" clip-rule="evenodd" d="M71.9264 10.7806C109.521 11.9205 117.333 22.3342 117.333 63.9993L117.218 71.9264C116.078 109.521 105.665 117.333 63.9993 117.333L56.0723 117.218C20.9858 116.154 11.8445 107.013 10.7806 71.9264L10.666 63.9993C10.666 19.5549 19.5549 10.666 63.9993 10.666L71.9264 10.7806ZM63.9993 31.9993C53.3123 31.9993 46.2417 32.5629 41.416 33.6035C36.8303 34.5926 35.8088 35.6899 35.7493 35.7493C35.6899 35.8088 34.5926 36.8303 33.6035 41.416C32.5629 46.2417 31.9993 53.3123 31.9993 63.9993C31.9993 74.6864 32.5629 81.757 33.6035 86.5827C34.5926 91.1684 35.6899 92.1899 35.7493 92.2493C35.8088 92.3088 36.8303 93.4061 41.416 94.3952C46.2417 95.4357 53.3123 95.9993 63.9993 95.9993C74.6864 95.9993 81.757 95.4357 86.5827 94.3952C91.1684 93.4061 92.1899 92.3088 92.2493 92.2493C92.3088 92.1899 93.4061 91.1684 94.3952 86.5827C95.4357 81.757 95.9993 74.6864 95.9993 63.9993C95.9993 53.3123 95.4357 46.2417 94.3952 41.416C93.4061 36.8303 92.3088 35.8088 92.2493 35.7493C92.1899 35.6899 91.1684 34.5926 86.5827 33.6035C81.757 32.5629 74.6864 31.9993 63.9993 31.9993Z" fill="black"/>
<path fill-rule="evenodd" clip-rule="evenodd" d="M199.926 10.7806C237.521 11.9205 245.333 22.3342 245.333 63.9993L245.218 71.9264C244.078 109.521 233.665 117.333 191.999 117.333L184.072 117.218C148.986 116.154 139.844 107.013 138.781 71.9264L138.666 63.9993C138.666 19.5549 147.555 10.666 191.999 10.666L199.926 10.7806ZM191.999 31.9993C181.312 31.9993 174.242 32.5629 169.416 33.6035C164.83 34.5926 163.809 35.6899 163.749 35.7493C163.69 35.8088 162.593 36.8303 161.604 41.416C160.563 46.2417 159.999 53.3123 159.999 63.9993C159.999 74.6864 160.563 81.757 161.604 86.5827C162.593 91.1684 163.69 92.1899 163.749 92.2493C163.809 92.3088 164.83 93.4061 169.416 94.3952C174.242 95.4357 181.312 95.9993 191.999 95.9993C202.686 95.9993 209.757 95.4357 214.583 94.3952C219.168 93.4061 220.19 92.3088 220.249 92.2493C220.309 92.1899 221.406 91.1684 222.395 86.5827C223.436 81.757 223.999 74.6864 223.999 63.9993C223.999 53.3123 223.436 46.2417 222.395 41.416C221.406 36.8303 220.309 35.8088 220.249 35.7493C220.19 35.6899 219.168 34.5926 214.583 33.6035C209.757 32.5629 202.686 31.9993 191.999 31.9993Z" fill="black"/>
</svg>
