<svg width="256" height="256" viewBox="0 0 256 256" fill="none" xmlns="http://www.w3.org/2000/svg">
<path fill-rule="evenodd" clip-rule="evenodd" d="M128 0C168.479 0 221.249 55.3014 244.333 81.9583C252.097 90.9236 256 102.432 256 114.292V170.667C256 233.593 241.202 243.458 174.635 245.01C171.995 245.072 169.274 245.128 166.469 245.167C164.254 245.197 161.987 245.221 159.667 245.24C157.415 245.258 155.113 245.271 152.76 245.281C145.067 245.313 136.826 245.333 128 245.333C119.17 245.333 110.926 245.313 103.229 245.281C100.876 245.271 98.5745 245.258 96.3229 245.24C94.0062 245.221 91.7428 245.197 89.5313 245.167C86.6853 245.127 83.926 245.063 81.25 245C14.7814 243.439 0 233.556 0 170.667V114.292C0.000246596 103.171 3.43217 92.3622 10.2604 83.6667L11.6667 81.9583C34.7511 55.3014 87.5206 0 128 0ZM128 149.333C106.641 149.333 104.128 153.114 102.76 155.302C101.19 157.815 99.2481 162.822 97.8958 172.854C96.5637 182.738 96 195.812 96 213.333C96 217.045 96.0302 220.566 96.0833 223.906C105.636 223.988 116.213 224 128 224C139.783 224 150.356 223.988 159.906 223.906C159.961 220.564 160 217.044 160 213.333C160 195.812 159.436 182.738 158.104 172.854C156.752 162.822 154.81 157.815 153.24 155.302C151.957 153.251 149.669 149.799 131.792 149.375L128 149.333ZM128 21.3333C122.516 21.3333 115.056 23.292 105.667 28.0729C96.4479 32.7677 86.6135 39.5457 76.75 47.5521C57.0084 63.5774 38.9785 83.009 27.7917 95.9271C23.6906 100.664 21.3336 107.079 21.3333 114.292V170.667C21.3333 189.125 22.7184 200.217 25.1458 207.198C27.1124 212.852 29.4997 215.258 33.4479 217.208C38.8164 219.861 47.9356 221.939 64.375 223C67.6452 223.211 71.0945 223.358 74.7396 223.49C74.6921 220.24 74.6667 216.857 74.6667 213.333C74.6667 142.222 83.5556 128 128 128C172.444 128 181.333 142.222 181.333 213.333C181.333 216.857 181.299 220.24 181.25 223.49C184.899 223.358 188.352 223.211 191.625 223C208.064 221.939 217.184 219.861 222.552 217.208C226.5 215.258 228.888 212.852 230.854 207.198C233.282 200.217 234.667 189.125 234.667 170.667V114.292C234.666 107.079 232.309 100.664 228.208 95.9271C217.022 83.009 198.992 63.5774 179.25 47.5521C169.386 39.5457 159.552 32.7677 150.333 28.0729C140.944 23.292 133.484 21.3333 128 21.3333Z" fill="black"/>
</svg>
