<svg width="256" height="256" viewBox="0 0 256 256" fill="none" xmlns="http://www.w3.org/2000/svg">
<path fill-rule="evenodd" clip-rule="evenodd" d="M123.246 1.11321C126.733 -0.622227 130.951 -0.327082 134.194 1.98821L153.288 15.6236C190.96 42.533 224.742 74.5142 253.663 110.665C257.343 115.265 256.596 121.985 251.996 125.665C247.396 129.343 240.675 128.598 236.996 123.999C235.929 122.664 234.848 121.342 233.767 120.019C234.385 128.807 234.663 138.546 234.663 149.332C234.663 234.143 218.482 254.2 139.788 255.863C139.456 255.87 139.122 255.877 138.788 255.884C135.314 255.95 131.715 255.999 127.996 255.999C124.279 255.999 120.687 255.95 117.215 255.884C116.866 255.877 116.519 255.871 116.173 255.863C105.545 255.638 96.0612 255.063 87.6003 254.051C87.5602 254.046 87.5154 254.045 87.4753 254.04L87.4649 254.03C33.4202 247.526 21.3296 222.61 21.3295 149.332C21.3295 138.55 21.597 128.814 22.2149 120.03C21.1377 121.348 20.0597 122.669 18.9961 123.999C15.3156 128.596 8.5954 129.345 3.99613 125.665C-0.601096 121.985 -1.34769 115.265 2.32947 110.665C31.2501 74.5146 65.0327 42.533 102.704 15.6236L121.798 1.98821L123.246 1.11321ZM133.184 172.717C129.784 171.836 126.209 171.835 122.809 172.717C114.522 174.871 108.943 181.612 108.267 189.186C107.367 199.269 106.663 209.902 106.663 218.259C106.663 223.035 106.892 228.534 107.257 234.228C110.278 234.369 113.441 234.457 116.746 234.53C116.992 234.535 117.238 234.546 117.486 234.551C120.838 234.619 124.339 234.665 127.996 234.665C131.909 234.665 135.637 234.604 139.184 234.53C142.505 234.457 145.68 234.37 148.715 234.228C148.895 231.43 149.059 228.68 149.163 226.04L149.329 218.259C149.329 209.902 148.625 199.269 147.725 189.186C147.049 181.611 141.473 174.869 133.184 172.717ZM115.111 32.9778C91.4507 49.8781 69.4055 68.8802 49.2149 89.7174C48.1658 92.517 47.1858 95.7915 46.3503 99.6653C43.7822 111.574 42.6628 127.535 42.6628 149.332C42.6628 171.13 43.782 187.09 46.3503 198.999C48.8668 210.666 52.4652 216.967 56.4128 220.915C60.3607 224.863 66.663 228.461 78.3295 230.978C80.657 231.48 83.1479 231.897 85.7982 232.29C85.5252 227.379 85.3296 222.597 85.3295 218.259C85.3295 208.943 86.1005 197.562 87.017 187.29C88.5367 170.264 100.899 156.369 117.444 152.072C124.362 150.275 131.63 150.276 138.548 152.072C155.095 156.368 167.455 170.262 168.975 187.29C169.892 197.563 170.663 208.943 170.663 218.259C170.663 222.597 170.469 227.379 170.194 232.29C172.846 231.896 175.334 231.48 177.663 230.978C189.329 228.461 195.631 224.863 199.579 220.915C203.528 216.967 207.125 210.667 209.642 198.999C212.21 187.09 213.329 171.13 213.329 149.332C213.329 127.534 212.21 111.574 209.642 99.6653C208.805 95.7845 207.818 92.5099 206.767 89.707C186.579 68.8747 164.537 49.8746 140.882 32.9778L127.996 23.7695L115.111 32.9778Z" fill="black"/>
</svg>
