<svg width="256" height="256" viewBox="0 0 256 256" fill="none" xmlns="http://www.w3.org/2000/svg">
<path fill-rule="evenodd" clip-rule="evenodd" d="M123.246 1.11321C126.733 -0.622227 130.951 -0.327082 134.194 1.98821L153.288 15.6236C190.96 42.533 224.742 74.5142 253.663 110.665C257.343 115.265 256.596 121.985 251.996 125.665C247.396 129.343 240.675 128.598 236.996 123.999C235.929 122.664 234.848 121.342 233.767 120.019C234.385 128.807 234.663 138.546 234.663 149.332C234.663 234.57 218.314 254.398 138.59 255.884C143.393 255.787 147.327 252.088 147.725 247.301C148.422 238.922 149.329 226.149 149.329 216.613C149.329 208.588 148.684 198.268 148.069 190.207C147.465 182.292 142.154 175.565 134.652 172.967C130.342 171.476 125.65 171.475 121.34 172.967C113.84 175.566 108.527 182.293 107.923 190.207C107.308 198.267 106.663 208.589 106.663 216.613C106.663 224.795 107.33 235.362 107.954 243.488C108.417 249.524 103.862 254.758 97.9857 254.978L96.7878 254.957C34.7854 250.148 21.3296 226.65 21.3295 149.332C21.3295 138.55 21.597 128.814 22.2149 120.03C21.1377 121.348 20.0597 122.669 18.9961 123.999C15.3156 128.596 8.5954 129.345 3.99613 125.665C-0.601096 121.985 -1.34769 115.265 2.32947 110.665C31.2501 74.5146 65.0327 42.533 102.704 15.6236L121.798 1.98821L123.246 1.11321ZM115.111 32.9778C91.4507 49.8781 69.4055 68.8802 49.2149 89.7174C48.1658 92.517 47.1858 95.7915 46.3503 99.6653C43.7822 111.574 42.6628 127.535 42.6628 149.332C42.6629 188.489 46.4848 207.222 53.3816 217.238C57.933 223.845 65.9341 229.339 85.8295 232.28C85.6744 229.439 85.5433 226.546 85.4545 223.728L85.3295 216.613C85.3296 207.726 86.0317 196.72 86.6524 188.582L87.0066 185.499C89.3296 170.275 99.9994 157.785 114.361 152.811L117.704 151.801C124.455 150.081 131.537 150.082 138.288 151.801L141.632 152.811L144.454 153.905C158.304 159.86 168.151 173.012 169.34 188.582C169.805 194.684 170.322 202.4 170.548 209.624L170.663 216.613C170.663 221.455 170.436 226.945 170.142 232.28C187.33 229.749 195.681 225.337 200.579 219.832C204.248 215.707 207.614 209.172 209.944 197.54C212.304 185.759 213.329 170.21 213.329 149.332C213.329 127.534 212.21 111.574 209.642 99.6653C208.805 95.7845 207.818 92.5099 206.767 89.707C186.579 68.8747 164.537 49.8746 140.882 32.9778L127.996 23.7695L115.111 32.9778Z" fill="black"/>
</svg>
