<svg width="256" height="256" viewBox="0 0 256 256" fill="none" xmlns="http://www.w3.org/2000/svg">
<path fill-rule="evenodd" clip-rule="evenodd" d="M128.001 0C158.634 0 184.946 18.4524 196.459 44.8438C218.547 51.3642 234.667 71.7987 234.667 96C234.667 118.858 220.281 138.339 200.074 145.927L137.146 250.823C135.219 254.035 131.747 256 128.001 256C124.255 256 120.783 254.035 118.855 250.823L55.9173 145.927C35.7152 138.337 21.334 118.855 21.334 96C21.334 71.8022 37.4486 51.3673 59.5319 44.8438C71.0442 18.4503 97.3662 0 128.001 0ZM166.386 147.198C155.691 155.23 142.406 160 128.001 160C113.593 160 100.301 155.233 89.6048 147.198C87.2911 147.872 84.9108 148.379 82.4798 148.74L128.001 224.594L173.501 148.74C171.073 148.379 168.696 147.871 166.386 147.198ZM128.001 21.3333C106.154 21.3333 87.3272 34.4763 79.084 53.375C76.5637 59.151 71.6174 63.5167 65.5736 65.3021C52.3106 69.2209 42.6673 81.5127 42.6673 96C42.6673 113.673 56.9942 128 74.6673 128C77.7722 128 80.7743 127.552 83.6361 126.719L86.0736 126.156C91.8005 125.195 97.7167 126.615 102.417 130.146C109.553 135.505 118.38 138.667 128.001 138.667C137.614 138.667 146.433 135.497 153.574 130.135C158.945 126.102 165.905 124.839 172.355 126.719C175.211 127.551 178.218 128 181.334 128C199.007 128 213.334 113.673 213.334 96C213.334 81.5119 203.686 69.219 190.417 65.3021C184.373 63.517 179.427 59.1516 176.907 53.375C168.661 34.4733 149.842 21.3333 128.001 21.3333Z" fill="black"/>
</svg>
