<svg width="256" height="256" viewBox="0 0 256 256" fill="none" xmlns="http://www.w3.org/2000/svg">
<path d="M157.76 160.021C217.476 160.167 213.396 161.334 213.396 170.667L213.448 174.188C213.229 181.334 207.393 181.334 128.063 181.334L98.3646 181.313C47.1741 181.188 42.8646 180.313 42.6771 174.188L42.7292 170.667C42.7292 160.001 37.3957 160.001 128.063 160.001L157.76 160.021Z" fill="black"/>
<path d="M58.6667 117.334C72 117.334 74.6667 119.112 74.6667 128.001C74.6667 136.89 72 138.667 58.6667 138.667C45.3333 138.667 42.6667 136.89 42.6667 128.001C42.6667 119.112 45.3333 117.334 58.6667 117.334Z" fill="black"/>
<path d="M106.667 117.334C115.556 117.334 117.333 119.112 117.333 128.001C117.333 136.89 115.556 138.667 106.667 138.667C97.7778 138.667 96 136.89 96 128.001C96 119.112 97.7778 117.334 106.667 117.334Z" fill="black"/>
<path d="M149.333 117.334C158.222 117.334 160 119.112 160 128.001C160 136.89 158.222 138.667 149.333 138.667C140.444 138.667 138.667 136.89 138.667 128.001C138.667 119.112 140.444 117.334 149.333 117.334Z" fill="black"/>
<path d="M192 117.334C200.889 117.334 202.667 119.112 202.667 128.001C202.667 136.89 200.889 138.667 192 138.667C183.111 138.667 181.333 136.89 181.333 128.001C181.333 119.112 183.111 117.334 192 117.334Z" fill="black"/>
<path d="M53.3333 74.6673C62.2222 74.6673 64 76.4451 64 85.334C64 94.2229 62.2222 96.0007 53.3333 96.0007C44.4444 96.0007 42.6667 94.2229 42.6667 85.334C42.6667 76.4451 44.4444 74.6673 53.3333 74.6673Z" fill="black"/>
<path d="M96 74.6673C104.889 74.6673 106.667 76.4451 106.667 85.334C106.667 94.2229 104.889 96.0007 96 96.0007C87.1111 96.0007 85.3333 94.2229 85.3333 85.334C85.3333 76.4451 87.1111 74.6673 96 74.6673Z" fill="black"/>
<path d="M138.667 74.6673C147.556 74.6673 149.333 76.4451 149.333 85.334C149.333 94.2229 147.556 96.0007 138.667 96.0007C129.778 96.0007 128 94.2229 128 85.334C128 76.4451 129.778 74.6673 138.667 74.6673Z" fill="black"/>
<path d="M186.667 74.6673C200 74.6673 202.667 76.4451 202.667 85.334C202.667 94.2229 200 96.0007 186.667 96.0007C173.333 96.0007 170.667 94.2229 170.667 85.334C170.667 76.4451 173.333 74.6673 186.667 74.6673Z" fill="black"/>
<path fill-rule="evenodd" clip-rule="evenodd" d="M128 21.334C234.667 21.334 256 39.1118 256 128.001L255.938 136.126C254.586 217.983 231.334 234.667 128 234.667L118.25 234.615C23.1891 233.525 1.37083 215.343 0.0625 136.126L0 128.001C0 39.1118 21.3333 21.334 128 21.334ZM128 42.6673C101.679 42.6673 81.8646 43.7877 66.7708 46.5007C51.724 49.2055 43.0722 53.2065 37.6563 57.7194C27.4095 66.2583 21.3333 82.9757 21.3333 128.001C21.3333 173.026 27.4095 189.743 37.6563 198.282C43.0722 202.795 51.724 206.796 66.7708 209.501C81.8646 212.214 101.679 213.334 128 213.334C154.321 213.334 174.135 212.214 189.229 209.501C204.276 206.796 212.928 202.795 218.344 198.282C228.59 189.743 234.667 173.026 234.667 128.001C234.667 82.9757 228.59 66.2583 218.344 57.7194C212.928 53.2065 204.276 49.2055 189.229 46.5007C174.135 43.7877 154.321 42.6673 128 42.6673Z" fill="black"/>
</svg>
