<svg width="256" height="256" viewBox="0 0 256 256" fill="none" xmlns="http://www.w3.org/2000/svg">
<path d="M234.667 234.667C240.558 234.667 245.333 239.442 245.333 245.333C245.333 251.224 240.558 256 234.667 256H21.3333C15.4423 256 10.6667 251.224 10.6667 245.333C10.6667 239.442 15.4423 234.667 21.3333 234.667H234.667Z" fill="black"/>
<path fill-rule="evenodd" clip-rule="evenodd" d="M128 0C234.667 0 256 17.7778 256 106.667C256 195.556 234.667 213.333 128 213.333C21.3333 213.333 0 195.556 0 106.667C0 17.7778 21.3333 0 128 0ZM128 21.3333C101.679 21.3333 81.8646 22.4537 66.7708 25.1667C51.724 27.8716 43.0722 31.8725 37.6563 36.3854C27.4095 44.9243 21.3333 61.6417 21.3333 106.667C21.3333 151.692 27.4095 168.409 37.6563 176.948C43.0722 181.461 51.724 185.462 66.7708 188.167C81.8646 190.88 101.679 192 128 192C154.321 192 174.135 190.88 189.229 188.167C204.276 185.462 212.928 181.461 218.344 176.948C228.59 168.409 234.667 151.692 234.667 106.667C234.667 61.6417 228.59 44.9243 218.344 36.3854C212.928 31.8725 204.276 27.8716 189.229 25.1667C174.135 22.4537 154.321 21.3333 128 21.3333Z" fill="black"/>
</svg>
