<svg width="256" height="256" viewBox="0 0 256 256" fill="none" xmlns="http://www.w3.org/2000/svg">
<path d="M143.667 1.98967C146.919 -0.332774 151.198 -0.651139 154.751 1.17717C158.303 3.0056 160.532 6.67141 160.532 10.6667V85.3334H222.178C230.947 85.3334 236.861 94.304 233.407 102.365C212.324 151.559 180.467 195.391 140.188 230.636L114.23 253.365C110.95 256.234 106.249 256.819 102.365 254.844C98.4802 252.866 96.1828 248.717 96.5735 244.375L105.136 149.333H31.4693C27.6466 149.333 24.1204 147.285 22.2193 143.969C20.3183 140.652 20.329 136.569 22.261 133.271C51.8493 82.7532 91.7776 39.05 139.417 5.02092L143.667 1.98967ZM139.199 31.8126C104.524 58.7331 74.5906 91.2384 50.6256 128H116.803C119.797 128.001 122.657 129.259 124.678 131.469C126.698 133.679 127.696 136.643 127.428 139.625L120.209 219.771L126.146 214.583C160.514 184.511 188.327 147.771 208.001 106.667H149.865C143.975 106.666 139.199 101.891 139.199 96.0001V31.8126Z" fill="black"/>
</svg>
