<svg width="256" height="256" viewBox="0 0 256 256" fill="none" xmlns="http://www.w3.org/2000/svg">
<path d="M127.999 10.6647C133.89 10.6647 138.665 15.4414 138.666 21.3314C138.666 27.2223 133.89 31.998 127.999 31.998C105.989 31.998 89.1203 33.1131 76.0827 35.9251C63.1657 38.7112 54.7374 43.0105 48.8743 48.873C43.0115 54.7358 38.7127 63.1648 35.9264 76.0814C33.1145 89.1186 31.9994 105.989 31.9993 127.998C31.9993 150.007 33.1147 166.877 35.9264 179.915C38.7125 192.832 43.0118 201.26 48.8743 207.123C54.7374 212.986 63.1651 217.285 76.0827 220.071C89.1204 222.883 105.989 223.998 127.999 223.998C150.01 223.998 166.878 222.883 179.916 220.071C192.834 217.285 201.261 212.986 207.124 207.123C212.987 201.26 217.286 192.832 220.072 179.915C222.884 166.877 223.999 150.007 223.999 127.998C224.001 122.108 228.776 117.331 234.666 117.331C240.556 117.331 245.331 122.108 245.333 127.998C245.333 150.43 244.225 169.12 240.926 184.415C237.602 199.829 231.899 212.514 222.208 222.206C212.516 231.898 199.831 237.6 184.416 240.925C169.121 244.224 150.433 245.331 127.999 245.331C105.566 245.331 86.8781 244.224 71.5827 240.925C56.168 237.6 43.4832 231.899 33.791 222.206C24.0994 212.514 18.3972 199.829 15.0723 184.415C11.7735 169.12 10.666 150.43 10.666 127.998C10.6661 105.566 11.7733 86.8763 15.0723 71.5814C18.3973 56.1675 24.0992 43.4815 33.791 33.7897C43.4831 24.0982 56.1684 18.3958 71.5827 15.0709C86.878 11.7719 105.566 10.6647 127.999 10.6647Z" fill="black"/>
<path d="M179.239 10.873C197.038 7.31327 215.336 7.09091 233.197 10.2064L236.76 10.873L236.812 10.8834C237.27 10.977 237.721 11.1043 238.166 11.2584L238.291 11.3001C238.326 11.3127 238.36 11.3288 238.395 11.3418C239.137 11.618 239.853 11.9783 240.531 12.4251L240.718 12.5501C240.791 12.6005 240.855 12.6646 240.926 12.7168C241.175 12.8976 241.42 13.0847 241.656 13.2897C241.734 13.3575 241.809 13.428 241.885 13.498C241.991 13.5959 242.105 13.6867 242.208 13.7897C242.33 13.9117 242.437 14.0488 242.551 14.1751C242.639 14.2717 242.728 14.367 242.812 14.4668C243.661 15.472 244.289 16.5949 244.708 17.7793C244.731 17.8455 244.758 17.9103 244.781 17.9772C244.902 18.3443 245.002 18.7158 245.083 19.0918C245.093 19.141 245.114 19.1881 245.124 19.2376C248.921 38.2212 248.921 57.7748 245.124 76.7584C243.968 82.5338 238.348 86.2782 232.572 85.123C226.797 83.9664 223.053 78.3466 224.208 72.5709C226.058 63.3178 226.812 53.9067 226.551 44.5189L124.874 146.206L124.062 146.946C119.873 150.36 113.695 150.11 109.791 146.206C105.626 142.041 105.626 135.288 109.791 131.123L211.468 29.4355C202.083 29.1756 192.677 29.9398 183.426 31.7897C177.65 32.9449 172.03 29.2006 170.874 23.4251C169.721 17.6502 173.465 12.0294 179.239 10.873Z" fill="black"/>
</svg>
