<svg width="256" height="256" viewBox="0 0 256 256" fill="none" xmlns="http://www.w3.org/2000/svg">
<path fill-rule="evenodd" clip-rule="evenodd" d="M128.001 138.667C154.667 138.667 160.001 144 160.001 170.667C160.001 195.668 155.313 201.921 132.751 202.604L128.001 202.667C102.999 202.667 96.7461 197.979 96.0632 175.417L96.0007 170.667C96.0007 145.665 100.689 139.412 123.251 138.729L128.001 138.667ZM128.001 160C123.166 160 119.967 160.208 117.844 160.5C117.552 162.623 117.334 165.823 117.334 170.667C117.334 175.503 117.553 178.7 117.844 180.823C119.967 181.115 123.165 181.333 128.001 181.333C132.845 181.333 136.045 181.116 138.167 180.823C138.459 178.7 138.667 175.502 138.667 170.667C138.667 165.824 138.46 162.623 138.167 160.5C136.045 160.208 132.843 160 128.001 160Z" fill="black"/>
<path fill-rule="evenodd" clip-rule="evenodd" d="M128.001 0C170.667 0.000394106 213.334 16.001 213.334 96C213.334 97.448 213.303 98.8749 213.292 100.281C229.961 112.562 234.667 134.086 234.667 170.667C234.667 241.778 216.89 256 128.001 256C39.1118 256 21.334 241.778 21.334 170.667C21.334 131.962 26.618 110.139 45.7507 98.2604C46.7255 97.3626 47.889 96.6823 49.1673 96.3125C65.3517 87.9197 90.261 85.3333 128.001 85.3333C155.653 85.3333 176.423 86.7127 191.917 90.75C191.035 57.9538 181.886 42.1642 172.615 34.0521C162.332 25.0566 147.261 21.3335 128.001 21.3333C108.741 21.3335 93.6698 25.0567 83.3861 34.0521C78.3263 38.4796 73.3177 45.1993 69.6569 55.7188C67.9964 60.4902 63.6882 64 58.6361 64C51.7964 63.997 46.5979 57.7178 48.6673 51.1979C61.8663 9.61587 94.9285 0.000275069 128.001 0ZM128.001 106.667C106.109 106.667 89.7914 107.56 77.459 109.688C65.1357 111.814 58.5232 114.897 54.6569 117.99C47.816 123.463 42.6673 134.682 42.6673 170.667C42.6673 206.651 47.816 217.87 54.6569 223.344C58.5232 226.437 65.1357 229.519 77.459 231.646C89.7914 233.774 106.109 234.667 128.001 234.667C149.892 234.667 166.21 233.774 178.542 231.646C190.866 229.519 197.478 226.437 201.344 223.344C208.185 217.87 213.334 206.651 213.334 170.667C213.334 134.682 208.185 123.463 201.344 117.99C197.478 114.897 190.866 111.814 178.542 109.688C166.21 107.56 149.892 106.667 128.001 106.667Z" fill="black"/>
</svg>
