<svg width="256" height="256" viewBox="0 0 256 256" fill="none" xmlns="http://www.w3.org/2000/svg">
<path fill-rule="evenodd" clip-rule="evenodd" d="M128.001 138.667C154.667 138.667 160.001 144 160.001 170.667C160.001 195.668 155.313 201.921 132.751 202.604L128.001 202.667C102.999 202.667 96.7461 197.979 96.0632 175.417L96.0007 170.667C96.0007 145.665 100.689 139.412 123.251 138.729L128.001 138.667ZM128.001 160C123.166 160 119.967 160.208 117.844 160.5C117.552 162.623 117.334 165.823 117.334 170.667C117.334 175.503 117.553 178.7 117.844 180.823C119.967 181.115 123.165 181.333 128.001 181.333C132.845 181.333 136.045 181.116 138.167 180.823C138.459 178.7 138.667 175.502 138.667 170.667C138.667 165.824 138.46 162.623 138.167 160.5C136.045 160.208 132.843 160 128.001 160Z" fill="black"/>
<path fill-rule="evenodd" clip-rule="evenodd" d="M128.001 0C170.667 0 213.334 16 213.334 96C213.334 97.448 213.312 98.8749 213.303 100.281C229.966 112.563 234.667 134.091 234.667 170.667C234.667 241.778 216.89 256 128.001 256C39.1118 256 21.334 241.778 21.334 170.667C21.334 133.999 26.0579 112.453 42.8236 100.188C42.7792 100.22 42.7323 100.249 42.6882 100.281C42.6786 98.8749 42.6673 97.448 42.6673 96C42.6673 16 85.334 0 128.001 0ZM128.001 106.667C106.109 106.667 89.7914 107.56 77.459 109.688C65.1357 111.814 58.5232 114.897 54.6569 117.99C47.816 123.463 42.6673 134.682 42.6673 170.667C42.6673 206.651 47.816 217.87 54.6569 223.344C58.5232 226.437 65.1357 229.519 77.459 231.646C89.7914 233.774 106.109 234.667 128.001 234.667C149.892 234.667 166.21 233.774 178.542 231.646C190.866 229.519 197.478 226.437 201.344 223.344C208.185 217.87 213.334 206.651 213.334 170.667C213.334 134.682 208.185 123.463 201.344 117.99C197.478 114.897 190.866 111.814 178.542 109.688C166.21 107.56 149.892 106.667 128.001 106.667ZM64.084 90.7396C79.578 86.7028 100.35 85.3333 128.001 85.3333C155.647 85.3333 176.414 86.7146 191.907 90.75C191.024 57.953 181.886 42.164 172.615 34.0521C162.331 25.0559 147.262 21.3333 128.001 21.3333C108.739 21.3333 93.67 25.0559 83.3861 34.0521C74.1163 42.1632 64.968 57.9495 64.084 90.7396Z" fill="black"/>
</svg>
