<svg width="256" height="256" viewBox="0 0 256 256" fill="none" xmlns="http://www.w3.org/2000/svg">
<path fill-rule="evenodd" clip-rule="evenodd" d="M128 10.666C234.667 10.666 256 30.2216 256 127.999C256 225.777 234.667 245.333 128 245.333C21.3333 245.333 0 225.777 0 127.999C3.69913e-07 30.2216 21.3333 10.666 128 10.666ZM159.281 141.791C149.438 146.372 138.893 149.333 128 149.333C117.104 149.333 106.554 146.375 96.7083 141.791C80.4975 156.779 64.645 172.687 52.3438 185.385C45.3923 192.56 39.5934 198.689 35.5417 203.02C35.3112 203.267 35.0835 203.504 34.8646 203.739C35.9884 205.171 37.1649 206.456 38.4167 207.604C43.8549 212.589 52.3598 216.901 67.1354 219.822C82.0517 222.771 101.717 223.999 128 223.999C154.283 223.999 173.948 222.771 188.865 219.822C203.64 216.901 212.145 212.589 217.583 207.604C218.834 206.457 220.002 205.169 221.125 203.739C220.908 203.506 220.687 203.265 220.458 203.02C216.407 198.689 210.608 192.56 203.656 185.385C191.354 172.685 175.494 156.78 159.281 141.791ZM24.9792 77.0202C22.5947 89.1365 21.3333 105.507 21.3333 127.999C21.3333 152.659 22.8458 169.96 25.6979 182.364C28.9636 178.916 32.7795 174.919 37.0208 170.541C48.2905 158.908 62.6209 144.518 77.5729 130.489C66.2814 122.465 55.9093 112.775 47.0104 103.301C38.2397 93.9643 30.7376 84.6464 24.9792 77.0202ZM231.01 77.0202C225.253 84.6455 217.758 93.9664 208.99 103.301C200.089 112.777 189.711 122.464 178.417 130.489C193.371 144.52 207.708 158.906 218.979 170.541C223.218 174.917 227.027 178.917 230.292 182.364C233.144 169.96 234.667 152.661 234.667 127.999C234.667 105.505 233.395 89.1367 231.01 77.0202ZM128 31.9993C101.717 31.9993 82.0517 33.2273 67.1354 36.1764C52.3598 39.098 43.8549 43.4102 38.4167 48.3952C36.8814 49.8026 35.4567 51.4132 34.1146 53.2598C35.4644 55.2235 37.1474 57.6346 39.1458 60.3639C44.8306 68.1275 52.9233 78.4356 62.5625 88.6973C72.2384 98.9977 83.236 108.996 94.7188 116.354C106.277 123.76 117.556 127.999 128 127.999C138.444 127.999 149.723 123.76 161.281 116.354C172.764 108.996 183.762 98.9977 193.438 88.6973C203.077 78.4356 211.169 68.1275 216.854 60.3639C218.851 57.6368 220.526 55.2226 221.875 53.2598C220.534 51.4153 219.117 49.8014 217.583 48.3952C212.145 43.4102 203.64 39.098 188.865 36.1764C173.948 33.2273 154.283 31.9993 128 31.9993Z" fill="black"/>
</svg>
