<svg width="256" height="256" viewBox="0 0 256 256" fill="none" xmlns="http://www.w3.org/2000/svg">
<path fill-rule="evenodd" clip-rule="evenodd" d="M41.619 15.9989C84.2872 -5.3342 169.622 -5.33693 212.286 15.9989C243.581 31.6499 267.392 93.2069 245.265 124.905L245.327 133.343L245.265 142.686C244.079 232.683 224.545 254.16 140.046 255.874C139.842 255.878 139.637 255.88 139.432 255.884C135.743 255.955 131.932 256.009 127.994 256.009L119.057 255.947C31.9201 254.693 11.9236 233.779 10.7232 142.686L10.6607 133.343C10.6607 131.407 10.6775 129.491 10.6919 127.613C-14.3591 97.4908 8.41985 34.772 39.6294 17.0614L41.619 15.9989ZM128.004 181.332C121.543 181.332 118.901 182.234 117.879 182.759C117.473 182.969 116.317 183.509 114.723 186.936C112.872 190.92 110.972 197.728 109.536 209.259C108.666 216.245 108.042 224.498 107.588 234.259C113.86 234.523 120.647 234.666 127.994 234.666C135.336 234.666 142.121 234.523 148.39 234.259C147.936 224.499 147.331 216.245 146.463 209.259C145.028 197.722 143.115 190.91 141.265 186.926C139.675 183.505 138.524 182.957 138.119 182.749C137.227 182.291 135.093 181.553 130.254 181.374L128.004 181.332ZM164.109 129.124C154.516 138.326 141.406 143.997 126.952 143.999L124.254 143.936C110.867 143.28 98.78 137.752 89.7857 129.124C80.2489 138.324 67.1847 143.999 52.7753 143.999C44.6176 143.999 37.5521 142.936 31.4732 141.041C31.6645 141.1 31.8528 141.18 32.0461 141.238C32.2875 162.462 33.5399 178.719 36.1398 191.322C39.0148 205.252 43.2237 213.184 48.0773 218.259C52.8532 223.25 60.169 227.489 73.0982 230.405C77.0806 231.303 81.4693 232.012 86.3065 232.613C89.131 173.381 99.2406 159.999 128.004 159.999C156.763 160.001 166.839 173.386 169.661 232.613C174.506 232.011 178.902 231.304 182.89 230.405C195.82 227.489 203.135 223.251 207.911 218.259C212.764 213.184 216.973 205.252 219.848 191.322C222.476 178.583 223.71 162.111 223.931 140.551C217.522 142.76 209.961 143.999 201.119 143.999L198.431 143.936C185.089 143.279 173.049 137.749 164.109 129.124ZM126.952 21.3322C96.5807 21.3331 68.324 26.5011 51.1607 35.0822C45.5533 37.886 38.4492 44.7452 32.2857 55.5614C26.2772 66.1068 22.3343 78.4112 21.494 89.6031C20.642 100.962 23.0725 108.944 26.8586 113.686C30.1213 117.772 36.94 122.665 52.7753 122.666C61.4871 122.665 69.2871 119.255 74.9732 113.77C83.2207 105.815 96.2865 105.797 104.557 113.728C110.303 119.241 118.173 122.666 126.952 122.666C135.728 122.664 143.592 119.248 149.338 113.738L150.942 112.343C159.221 105.835 171.188 106.311 178.921 113.77C184.607 119.255 192.407 122.666 201.119 122.666C216.953 122.665 223.772 117.773 227.036 113.686C230.823 108.943 233.252 100.954 232.4 89.5926C231.56 78.402 227.626 66.1055 221.619 55.5614C215.457 44.7442 208.351 37.8871 202.744 35.0822C185.583 26.5004 157.326 21.3316 126.952 21.3322Z" fill="black"/>
</svg>
