<svg width="256" height="256" viewBox="0 0 256 256" fill="none" xmlns="http://www.w3.org/2000/svg">
<path fill-rule="evenodd" clip-rule="evenodd" d="M170.667 42.6667C194.231 42.6667 213.333 61.7692 213.333 85.3333C213.333 108.897 194.231 128 170.667 128C147.103 128 128 108.897 128 85.3333C128 61.7692 147.103 42.6667 170.667 42.6667ZM170.667 64C158.885 64 149.333 73.5513 149.333 85.3333C149.333 97.1154 158.885 106.667 170.667 106.667C182.449 106.667 192 97.1154 192 85.3333C192 73.5513 182.449 64 170.667 64Z" fill="black"/>
<path fill-rule="evenodd" clip-rule="evenodd" d="M128 0C234.667 0 256 21.3333 256 128C256 205.278 244.794 237.735 198.063 249.771C197.089 250.022 196.098 250.256 195.094 250.49C194.192 250.699 193.282 250.919 192.354 251.115C190.594 251.486 188.791 251.843 186.938 252.167C185.827 252.36 184.696 252.521 183.552 252.698C182.751 252.822 181.943 252.957 181.125 253.073C179.787 253.263 178.426 253.435 177.042 253.604C176.183 253.709 175.315 253.809 174.438 253.906C173.208 254.042 171.963 254.181 170.698 254.302C169.452 254.422 168.187 254.519 166.906 254.625C165.178 254.767 163.418 254.903 161.625 255.021C159.965 255.13 158.279 255.244 156.563 255.333C155.175 255.405 153.769 255.461 152.344 255.521C151.407 255.56 150.463 255.602 149.51 255.635C147.841 255.695 146.147 255.748 144.427 255.792C143.163 255.824 141.885 255.851 140.594 255.875C139.244 255.9 137.88 255.921 136.5 255.938C133.745 255.97 130.93 255.989 128.052 255.99C128.035 255.99 128.017 256 128 256L127.99 255.99C125.21 255.99 122.488 255.968 119.823 255.938C117.858 255.915 115.924 255.883 114.021 255.844C113.09 255.824 112.166 255.805 111.25 255.781C109.491 255.736 107.758 255.677 106.052 255.615C104.997 255.576 103.952 255.535 102.917 255.49C101.459 255.426 100.022 255.358 98.6042 255.281C97.2351 255.207 95.885 255.118 94.5521 255.031C93.3753 254.954 92.2115 254.889 91.0625 254.802C89.0117 254.646 87.0053 254.472 85.0417 254.281C84.377 254.217 83.7173 254.152 83.0625 254.083C81.1023 253.878 79.1856 253.66 77.3125 253.417C76.3345 253.29 75.3713 253.138 74.4167 253C73.2254 252.828 72.0512 252.658 70.8958 252.469C69.928 252.311 68.9742 252.139 68.0313 251.969C66.8557 251.756 65.6998 251.534 64.5625 251.302C63.6724 251.12 62.7941 250.934 61.9271 250.74C60.8099 250.489 59.7148 250.219 58.6354 249.948C57.7355 249.722 56.8428 249.512 55.9688 249.271C55.902 249.252 55.8374 249.227 55.7708 249.208C52.7193 248.36 49.8276 247.417 47.0833 246.375C46.8122 246.272 46.539 246.178 46.2708 246.073C44.9579 245.559 43.6815 245.02 42.4375 244.458C42.3397 244.414 42.2432 244.367 42.1458 244.323C39.5217 243.125 37.0557 241.812 34.7292 240.385C34.6148 240.315 34.4991 240.248 34.3854 240.177C33.2526 239.473 32.1477 238.752 31.0833 237.99C31.015 237.941 30.9534 237.883 30.8854 237.833C27.5549 235.427 24.5585 232.734 21.8646 229.719C21.8024 229.649 21.739 229.58 21.6771 229.51C19.9501 227.558 18.3473 225.476 16.8646 223.25C16.7729 223.112 16.6845 222.972 16.5938 222.833C12.0683 215.919 8.6757 207.668 6.16667 197.854C5.97583 197.107 5.80556 196.348 5.625 195.583C4.23276 189.688 3.12424 183.256 2.29167 176.229C2.2307 175.715 2.16239 175.198 2.10417 174.677L2.11458 174.656C0.621621 161.291 0 145.84 0 128C0 21.3333 21.3333 0 128 0ZM85.6354 160.896C69.5277 157.784 51.9607 162.528 24.9167 183.625C25.1645 185.025 25.4217 186.386 25.6979 187.708C25.8507 188.442 26.0166 189.16 26.1771 189.865C27.5307 195.797 29.1443 200.666 30.9688 204.719C34.0181 211.462 37.7366 216.083 42.0625 219.531C42.263 219.69 42.4701 219.843 42.6771 220C43.3015 220.476 43.9349 220.932 44.5833 221.365C49.7877 224.831 56.8582 227.778 66.9167 230C67.4708 230.122 68.0336 230.237 68.6042 230.354C71.3361 230.918 74.2271 231.42 77.2917 231.865C81.6028 232.486 86.3065 233.005 91.4479 233.417C101.913 234.255 113.993 234.656 127.99 234.656C128.399 234.656 128.812 234.657 129.219 234.656C139.691 234.639 149.078 234.382 157.51 233.896C165.837 233.41 173.143 232.69 179.573 231.729C179.754 231.702 179.935 231.674 180.115 231.646C177.048 228.467 173.851 225.194 170.5 221.844C130.969 182.313 106.108 164.853 85.6354 160.896ZM128 21.3333C101.757 21.3333 82.2421 22.6747 67.5 25.8542C52.9976 28.9821 44.5872 33.5795 39.0833 39.0833C33.5795 44.5872 28.9821 52.9976 25.8542 67.5C22.6747 82.2421 21.3333 101.757 21.3333 128C21.3333 139.647 21.6156 149.968 22.1875 159.135C77.7004 120.634 115.317 136.495 185.583 206.76C192.083 213.26 198.106 219.491 203.667 225.479C209.49 222.997 213.705 220.128 216.917 216.917C222.421 211.413 227.018 203.002 230.146 188.5C233.325 173.758 234.667 154.243 234.667 128C234.667 101.757 233.325 82.2421 230.146 67.5C227.018 52.9976 222.421 44.5872 216.917 39.0833C211.413 33.5795 203.002 28.9821 188.5 25.8542C173.758 22.6747 154.243 21.3333 128 21.3333Z" fill="black"/>
</svg>
