<svg width="256" height="256" viewBox="0 0 256 256" fill="none" xmlns="http://www.w3.org/2000/svg">
<path fill-rule="evenodd" clip-rule="evenodd" d="M128 85.3333C148.412 85.3333 156.297 91.5859 158.885 118.438C185.747 121.025 192 128.918 192 149.333C192 169.748 185.746 177.631 158.885 180.219C156.298 207.079 148.415 213.333 128 213.333C107.585 213.333 99.6918 207.08 97.1042 180.219C70.2525 177.63 64 169.745 64 149.333C64 128.921 70.2517 121.026 97.1042 118.438C99.6928 91.585 107.588 85.3333 128 85.3333ZM128 106.667C124.021 106.667 121.913 106.992 120.927 107.219C120.79 107.532 120.628 107.97 120.438 108.552C119.689 110.848 118.914 114.57 118.344 120.49C117.362 130.65 109.316 138.695 99.1563 139.677C93.2366 140.248 89.5145 141.022 87.2188 141.771C86.6364 141.961 86.1991 142.123 85.8854 142.26C85.6588 143.247 85.3333 145.354 85.3333 149.333C85.3333 153.273 85.6491 155.378 85.875 156.375C86.1901 156.513 86.6272 156.693 87.2188 156.885C88.942 157.447 91.463 158.027 95.1146 158.521L99.1563 158.979L101.031 159.25C110.294 160.979 117.426 168.648 118.344 178.177C118.914 184.097 119.688 187.818 120.438 190.115C120.626 190.691 120.79 191.124 120.927 191.438C121.912 191.664 124.018 192 128 192C131.943 192 134.046 191.674 135.042 191.448C135.18 191.133 135.361 190.701 135.552 190.115C136.301 187.816 137.075 184.098 137.646 178.177L137.917 176.292C139.645 167.03 147.315 159.897 156.844 158.979C162.765 158.409 166.483 157.634 168.781 156.885C169.368 156.694 169.8 156.513 170.115 156.375C170.34 155.379 170.667 153.277 170.667 149.333C170.667 145.351 170.331 143.246 170.104 142.26C169.791 142.124 169.358 141.959 168.781 141.771C166.484 141.022 162.764 140.248 156.844 139.677C146.681 138.698 138.628 130.652 137.646 120.49C137.075 114.57 136.301 110.849 135.552 108.552C135.359 107.96 135.18 107.523 135.042 107.208C134.045 106.982 131.94 106.667 128 106.667Z" fill="black"/>
<path fill-rule="evenodd" clip-rule="evenodd" d="M133.688 0.0520833C174.6 0.856763 192.238 10.9689 198.99 48.0313C197.196 47.6337 195.349 47.2619 193.448 46.9167C244.07 56.1591 256 82.8624 256 149.333L255.938 157.458C254.586 239.316 231.334 256 128 256L118.25 255.948C23.1891 254.858 1.37083 236.676 0.0625 157.458L0 149.333C0 82.8256 11.9423 56.124 62.6354 46.8958C60.6977 47.2463 58.8153 47.6263 56.9896 48.0313C64.0456 9.29277 83.0163 0.000268971 128 0L133.688 0.0520833ZM128 64C101.679 64 81.8646 65.1204 66.7708 67.8333C51.724 70.5382 43.0722 74.5392 37.6563 79.0521C27.4095 87.591 21.3333 104.308 21.3333 149.333C21.3333 194.358 27.4095 211.076 37.6563 219.615C43.0722 224.128 51.724 228.128 66.7708 230.833C81.8646 233.546 101.679 234.667 128 234.667C154.321 234.667 174.135 233.546 189.229 230.833C204.276 228.128 212.928 224.128 218.344 219.615C228.59 211.076 234.667 194.358 234.667 149.333C234.667 104.308 228.59 87.591 218.344 79.0521C212.928 74.5392 204.276 70.5382 189.229 67.8333C174.135 65.1204 154.321 64 128 64ZM128 21.3333C97.0755 21.3335 88.9751 26.2863 84.8125 32.2292C83.0002 34.8184 81.1767 38.6748 79.5938 44.5938C79.3427 44.6187 79.0933 44.6516 78.8438 44.6771C92.7727 43.2536 109.036 42.6667 128 42.6667C146.902 42.6667 163.122 43.243 177.021 44.6563C176.814 44.6352 176.604 44.6144 176.396 44.5938C174.813 38.676 173 34.8181 171.188 32.2292C167.025 26.2864 158.925 21.3335 128 21.3333Z" fill="black"/>
</svg>
