<svg width="256" height="259" viewBox="0 0 256 259" fill="none" xmlns="http://www.w3.org/2000/svg">
<path fill-rule="evenodd" clip-rule="evenodd" d="M184.857 5.38992C212.061 -1.85931 239.853 14.9279 246.097 42.3795C256.129 86.5205 256.128 132.363 246.097 176.504L245.451 179.046C238.358 204.148 212.929 219.501 187.409 214.098L184.857 213.494L181.524 212.609C165.888 208.439 150.593 203.091 135.764 196.629L129.43 193.796L106.67 183.286C106.667 183.559 106.67 183.833 106.67 184.109C106.67 246.329 119.999 258.775 80.0032 258.775C40.0032 258.775 32.0032 246.331 32.0032 184.109C32.0033 178.936 32.0871 174.104 32.2116 169.598C32.8436 169.759 33.4835 169.885 34.1178 170.036C32.0793 169.554 30.0491 169.035 28.0345 168.452L23.1595 166.942C15.4353 164.366 9.68345 157.843 8.08656 149.859L7.02406 144.536C2.68135 122.819 2.41149 100.495 6.21156 78.7024L7.02406 74.3482L8.08656 69.0253C9.68499 61.0433 15.437 54.5174 23.1595 51.942C34.4624 48.1748 46.2406 46.0253 58.1282 45.5462L63.2324 45.442H84.9928L85.6491 45.2962L129.43 25.0878C146.223 17.3378 163.654 11.0408 181.524 6.27533L184.857 5.38992ZM53.4303 173.067C53.3602 176.493 53.3366 180.169 53.3366 184.109C53.3366 199.4 53.8455 210.671 55.0136 219.098C56.2003 227.655 57.8588 231.544 58.9511 233.244C59.455 234.034 60.709 237.442 80.0032 237.442C83.2563 237.442 85.6793 237.304 87.4511 237.171C87.4363 234.201 87.2476 229.891 86.8366 223.369C86.2141 213.492 85.3366 200.419 85.3366 184.109C85.3366 180.419 85.3744 176.894 85.4511 173.536C85.3013 173.489 85.1494 173.442 84.9928 173.442H63.2324L58.1282 173.338C56.2327 173.261 54.3392 173.124 52.4511 172.963C52.7772 172.99 53.104 173.042 53.4303 173.067ZM225.295 47.1087C221.732 31.4468 205.868 21.8681 190.347 26.0045L187.024 26.8899C170.335 31.3404 154.051 37.2248 138.368 44.4628L106.253 59.2753C99.7712 92.403 99.7738 126.47 106.253 159.598L138.368 174.421C154.052 181.66 170.333 187.543 187.024 191.994L190.347 192.879C205.87 197.018 221.733 187.44 225.295 171.775C234.619 130.746 234.62 88.1374 225.295 47.1087ZM63.2324 66.7753C51.9083 66.7753 40.6525 68.6011 29.9095 72.1816C29.4493 72.335 29.1014 72.7278 29.0032 73.2024L27.9407 78.5357C23.8612 98.9366 23.8618 119.947 27.9407 140.348L29.0032 145.682C29.0998 146.159 29.4474 146.548 29.9095 146.702C40.6535 150.284 51.9073 152.109 63.2324 152.109H83.3053C78.9868 123.828 78.9857 95.0561 83.3053 66.7753H63.2324Z" fill="black"/>
</svg>
