<svg width="256" height="256" viewBox="0 0 256 256" fill="none" xmlns="http://www.w3.org/2000/svg">
<path d="M32.8052 96.0208C38.6828 95.6832 43.7236 100.174 44.0656 106.052C46.3532 145.365 52.8292 165.52 64.1906 176.573C75.4116 187.486 93.9803 192 128.388 192C161.155 191.999 179.569 187.907 190.941 178.073C202.141 168.384 209.03 150.859 211.961 116.427C212.462 110.559 217.624 106.21 223.493 106.708C229.361 107.21 233.721 112.371 233.222 118.24C230.218 153.52 222.873 178.66 204.899 194.208C189.058 207.908 166.949 212.359 139.045 213.177V234.667H171.045C176.936 234.667 181.711 239.442 181.711 245.333C181.711 251.224 176.936 256 171.045 256H85.7114C79.8213 255.999 75.0447 251.224 75.0447 245.333C75.0447 239.443 79.8213 234.668 85.7114 234.667H117.711V213.167C88.2941 212.304 65.3 207.411 49.3156 191.865C31.5901 174.621 25.0718 146.778 22.7739 107.281C22.4344 101.402 26.9256 96.3629 32.8052 96.0208Z" fill="black"/>
<path fill-rule="evenodd" clip-rule="evenodd" d="M128.378 0C181.711 0 192.378 14.2222 192.378 85.3333C192.378 156.444 181.711 170.667 128.378 170.667C75.0464 170.666 64.3781 156.444 64.3781 85.3333C64.3781 14.2231 75.0464 0.000345422 128.378 0ZM128.378 21.3333C101.552 21.3335 95.9024 25.5196 93.4406 28.8021C91.6881 31.1408 89.5008 35.762 87.9406 45.4063C86.3864 55.0142 85.7114 67.8641 85.7114 85.3333C85.7114 102.803 86.3864 115.653 87.9406 125.26C89.5008 134.905 91.6881 139.526 93.4406 141.865C95.9024 145.147 101.552 149.333 128.378 149.333C155.203 149.333 160.853 145.147 163.316 141.865C165.068 139.526 167.255 134.906 168.816 125.26C170.37 115.652 171.045 102.803 171.045 85.3333C171.045 67.8639 170.37 55.0142 168.816 45.4063C167.255 35.7609 165.068 31.1405 163.316 28.8021C160.853 25.5196 155.203 21.3333 128.378 21.3333Z" fill="black"/>
</svg>
