<svg width="256" height="256" viewBox="0 0 256 256" fill="none" xmlns="http://www.w3.org/2000/svg">
<path d="M117.334 32C123.225 32 128.001 36.7756 128.001 42.6667V85.3333C128.001 91.2244 123.225 96 117.334 96C111.443 96 106.667 91.2244 106.667 85.3333V42.6667C106.667 36.7756 111.443 32 117.334 32Z" fill="black"/>
<path fill-rule="evenodd" clip-rule="evenodd" d="M136.126 0.0625C217.983 1.41443 234.667 24.666 234.667 128L234.615 137.75C233.489 235.979 214.112 256 128.001 256L119.876 255.938C38.0182 254.586 21.334 231.334 21.334 128C21.334 21.3333 39.1118 0 128.001 0L136.126 0.0625ZM128.001 21.3333C82.9757 21.3333 66.2583 27.4095 57.7194 37.6563C53.2065 43.0722 49.2055 51.724 46.5007 66.7708C43.7877 81.8646 42.6673 101.679 42.6673 128C42.6673 154.321 43.7877 174.135 46.5007 189.229C49.2055 204.276 53.2065 212.928 57.7194 218.344C66.2583 228.59 82.9757 234.667 128.001 234.667C173.026 234.667 189.743 228.59 198.282 218.344C202.795 212.928 206.796 204.276 209.501 189.229C212.214 174.135 213.334 154.321 213.334 128C213.334 101.679 212.214 81.8646 209.501 66.7708C206.796 51.724 202.795 43.0722 198.282 37.6563C189.743 27.4095 173.026 21.3333 128.001 21.3333Z" fill="black"/>
</svg>
