<svg width="256" height="256" viewBox="0 0 256 256" fill="none" xmlns="http://www.w3.org/2000/svg">
<path d="M181.333 74.6667C193.115 74.6667 202.667 84.2179 202.667 96C202.667 107.782 193.115 117.333 181.333 117.333C169.551 117.333 160 107.782 160 96C160 84.2181 169.551 74.6669 181.333 74.6667Z" fill="black"/>
<path d="M85.3333 74.6667C91.2239 74.6672 96 79.4426 96 85.3333C96 91.2241 91.2239 95.9995 85.3333 96C79.4423 96 74.6667 91.2244 74.6667 85.3333C74.6667 79.4423 79.4423 74.6667 85.3333 74.6667Z" fill="black"/>
<path fill-rule="evenodd" clip-rule="evenodd" d="M125.573 0C257.399 0 279.379 125.392 235.437 156.74L231.375 159.49C224.264 164.082 217.72 166.986 211.552 168.688C212.049 168.55 212.56 168.424 213.062 168.271C210.852 240.797 193.744 255.998 128.01 256C62.889 256 45.4817 241.09 43.0104 170.313C34.82 169.324 26.8061 166.163 18.8125 159.49L15.7187 156.74C-17.2373 125.392 -6.24918 0.00311827 125.573 0ZM125.573 156.74C102.687 156.741 82.7797 165.23 64.3021 168.948C64.7179 181.399 65.5946 191.547 67.0312 199.875C69.1577 212.194 72.2409 218.811 75.3333 222.677C80.8085 229.515 92.0355 234.667 128.01 234.667C163.986 234.666 175.214 229.517 180.687 222.677C183.779 218.81 186.864 212.19 188.99 199.875C190.37 191.871 191.201 182.181 191.635 170.385C172.179 168.557 154.379 157.908 129.635 156.823L125.573 156.74ZM149.25 22.9792C149.062 26.6192 148.293 30.2093 146.896 33.5833C145.288 37.4639 142.929 40.988 139.958 43.9583C136.988 46.9286 133.464 49.2877 129.583 50.8958C125.701 52.5039 121.535 53.3332 117.333 53.3333C113.131 53.3333 108.966 52.5038 105.083 50.8958C101.203 49.2878 97.6787 46.9285 94.7083 43.9583C91.738 40.988 89.3789 37.464 87.7708 33.5833C86.8204 31.2887 86.1772 28.8894 85.7812 26.4479C54.2551 35.4591 36.9916 55.1141 28.4687 75.0104C25.0234 83.0542 22.9214 91.3431 21.9583 99.3229C23.797 98.4908 25.7028 97.7973 27.6667 97.2708C33.9966 95.5747 40.67 95.5748 47 97.2708C53.3286 98.9672 59.0961 102.305 63.7292 106.938C68.3622 111.571 71.6994 117.338 73.3958 123.667C75.092 129.997 75.092 136.67 73.3958 143C73.2243 143.64 73.0172 144.268 72.8125 144.896C77.494 143.598 82.4724 142.165 89.3333 140.448C99.8706 137.811 112.088 135.407 125.573 135.406C139.172 135.406 150.82 137.849 160.75 140.573C165.595 141.902 170.302 143.371 174.302 144.594C178.471 145.868 182.029 146.929 185.437 147.74C192.081 149.319 197.288 149.756 202.448 148.906C207.566 148.063 214.179 145.687 223.042 139.365C227.798 135.971 232.633 128.522 234.187 116.323C235.708 104.388 233.721 89.8296 227.094 75.6458C216.197 52.3268 192.263 29.2167 149.25 22.9792ZM41.4792 117.875C38.7664 117.148 35.9003 117.148 33.1875 117.875C30.4761 118.602 28.0058 120.036 26.0208 122.021C24.8533 123.188 23.9002 124.536 23.1458 125.99C25.0506 133.993 28.0746 139.044 30.4271 141.281C34.9711 145.602 38.851 147.566 42.3125 148.5C44.6914 147.718 46.8692 146.422 48.6458 144.646C50.6309 142.661 52.0644 140.191 52.7917 137.479C53.5186 134.766 53.5186 131.9 52.7917 129.188C52.0644 126.476 50.6309 124.006 48.6458 122.021C46.6607 120.036 44.1906 118.602 41.4792 117.875ZM125.573 21.3333C118.889 21.3335 112.609 21.7029 106.708 22.375C106.811 23.4192 107.076 24.4442 107.479 25.4167C108.015 26.7101 108.802 27.8849 109.792 28.875C110.782 29.8649 111.957 30.6515 113.25 31.1875C114.544 31.7233 115.933 32 117.333 32C118.734 31.9999 120.123 31.7234 121.417 31.1875C122.71 30.6515 123.885 29.8649 124.875 28.875C125.865 27.8849 126.652 26.7101 127.187 25.4167C127.719 24.1323 127.985 22.7546 127.99 21.3646C127.189 21.3542 126.384 21.3333 125.573 21.3333Z" fill="black"/>
</svg>
