<svg width="256" height="256" viewBox="0 0 256 256" fill="none" xmlns="http://www.w3.org/2000/svg">
<path d="M138.667 165.332C144.558 165.332 149.333 170.108 149.333 175.999C149.333 181.89 144.558 186.665 138.667 186.665H53.3333C47.4423 186.665 42.6667 181.89 42.6667 175.999C42.6667 170.108 47.4423 165.332 53.3333 165.332H138.667Z" fill="black"/>
<path d="M202.667 111.999C208.558 111.999 213.333 116.774 213.333 122.665C213.333 128.556 208.558 133.332 202.667 133.332H53.3333C47.4423 133.332 42.6667 128.556 42.6667 122.665C42.6667 116.774 47.4423 111.999 53.3333 111.999H202.667Z" fill="black"/>
<path d="M202.667 63.9987C208.558 63.9987 213.333 68.7743 213.333 74.6654C213.333 80.5564 208.558 85.332 202.667 85.332H128C122.109 85.332 117.333 80.5564 117.333 74.6654C117.333 68.7743 122.109 63.9987 128 63.9987H202.667Z" fill="black"/>
<path fill-rule="evenodd" clip-rule="evenodd" d="M128 21.332C234.667 21.332 256 39.1098 256 127.999C256 216.888 234.667 234.665 128 234.665C21.3333 234.665 0 216.888 0 127.999C0 39.1098 21.3333 21.332 128 21.332ZM128 42.6654C101.679 42.6654 81.8646 43.7858 66.7708 46.4987C51.724 49.2036 43.0722 53.2045 37.6563 57.7174C27.4095 66.2564 21.3333 82.9737 21.3333 127.999C21.3333 173.024 27.4095 189.741 37.6563 198.28C43.0722 202.793 51.724 206.794 66.7708 209.499C81.8646 212.212 101.679 213.332 128 213.332C154.321 213.332 174.135 212.212 189.229 209.499C204.276 206.794 212.928 202.793 218.344 198.28C228.59 189.741 234.667 173.024 234.667 127.999C234.667 82.9737 228.59 66.2564 218.344 57.7174C212.928 53.2045 204.276 49.2036 189.229 46.4987C174.135 43.7858 154.321 42.6654 128 42.6654Z" fill="black"/>
</svg>
