<svg width="256" height="256" viewBox="0 0 256 256" fill="none" xmlns="http://www.w3.org/2000/svg">
<path fill-rule="evenodd" clip-rule="evenodd" d="M170.667 42.6667C194.231 42.6667 213.333 61.7692 213.333 85.3333V91.5833C213.333 97.2407 211.084 102.666 207.083 106.667L127.906 185.844C117.484 196.264 104.212 203.369 89.7604 206.26L71.1146 209.99C56.1874 212.975 43.0251 199.813 46.0104 184.885L49.7396 166.24C52.6305 151.788 59.7357 138.516 70.1563 128.094L149.333 48.9167C153.334 44.9163 158.759 42.6671 164.417 42.6667H170.667ZM85.2396 143.177C77.7965 150.622 72.7208 160.104 70.6563 170.427L66.9271 189.073L85.5729 185.344C95.8959 183.279 105.378 178.204 112.823 170.76L166.25 117.333L138.667 89.75L85.2396 143.177ZM153.75 74.6667L181.333 102.25L192 91.5833V85.3333C192 73.5513 182.449 64 170.667 64H164.417L153.75 74.6667Z" fill="black"/>
<path fill-rule="evenodd" clip-rule="evenodd" d="M128 0C234.667 0 256 21.3333 256 128C256 155.951 254.498 178.033 250.417 195.417C250.379 195.577 250.34 195.736 250.302 195.896C238.71 244.449 206.458 256 128 256C21.3333 256 0 234.667 0 128C0 21.3333 21.3333 0 128 0ZM128 21.3333C101.757 21.3333 82.2421 22.6747 67.5 25.8542C52.9976 28.9821 44.5872 33.5795 39.0833 39.0833C33.5795 44.5872 28.9821 52.9976 25.8542 67.5C22.6747 82.2421 21.3333 101.757 21.3333 128C21.3333 154.243 22.6747 173.758 25.8542 188.5C28.9821 203.002 33.5795 211.413 39.0833 216.917C44.5872 222.421 52.9976 227.018 67.5 230.146C82.2421 233.325 101.757 234.667 128 234.667C136.869 234.667 144.968 234.492 152.375 234.167C159.464 185.414 180.76 167.084 233.635 161.813C234.331 151.99 234.667 140.795 234.667 128C234.667 101.757 233.325 82.2421 230.146 67.5C227.018 52.9976 222.421 44.5872 216.917 39.0833C211.413 33.5795 203.002 28.9821 188.5 25.8542C173.758 22.6747 154.243 21.3333 128 21.3333ZM231.052 183.552C209.312 186.19 197.21 191.136 189.74 197.854C182.887 204.019 177.521 213.944 174.26 232.438C195.882 229.817 207.958 224.916 215.438 218.26C215.606 218.111 215.774 217.964 215.938 217.813C222.616 211.626 227.85 201.728 231.052 183.552Z" fill="black"/>
</svg>
