<svg width="256" height="257" viewBox="0 0 256 257" fill="none" xmlns="http://www.w3.org/2000/svg">
<path d="M181.333 106.667C187.224 106.667 192 111.442 192 117.333C192 123.224 187.224 128 181.333 128H74.6667C68.7756 128 64 123.224 64 117.333C64 111.442 68.7756 106.667 74.6667 106.667H181.333Z" fill="black"/>
<path d="M138.667 64C144.558 64 149.333 68.7756 149.333 74.6667C149.333 80.5577 144.558 85.3333 138.667 85.3333H74.6667C68.7756 85.3333 64 80.5577 64 74.6667C64 68.7756 68.7756 64 74.6667 64H138.667Z" fill="black"/>
<path fill-rule="evenodd" clip-rule="evenodd" d="M128 0C152.656 0 173.121 1.21834 189.833 4.82292C206.665 8.45341 220.405 14.6549 230.875 25.125C241.345 35.5951 247.547 49.335 251.177 66.1667C254.782 82.8788 256 103.344 256 128C256 135.441 255.881 142.529 255.625 149.271H255.833L255.167 158.531C254.74 165.335 254.117 171.751 253.271 177.792C253.212 178.21 253.144 178.626 253.083 179.042C252.891 180.352 252.684 181.643 252.469 182.917C252.363 183.542 252.257 184.164 252.146 184.781C251.956 185.829 251.759 186.863 251.552 187.885C251.372 188.78 251.184 189.665 250.99 190.542C250.802 191.387 250.617 192.225 250.417 193.052C250.229 193.83 250.033 194.601 249.833 195.365C249.583 196.318 249.321 197.258 249.052 198.187C248.863 198.84 248.657 199.483 248.458 200.125C248.171 201.053 247.891 201.972 247.583 202.875C247.387 203.451 247.174 204.017 246.969 204.583C246.618 205.554 246.272 206.517 245.896 207.458C245.676 208.008 245.427 208.543 245.198 209.083C244.816 209.984 244.438 210.877 244.031 211.75C243.84 212.161 243.635 212.564 243.438 212.969C242.972 213.924 242.509 214.87 242.01 215.792C241.736 216.299 241.442 216.794 241.156 217.292C240.764 217.976 240.391 218.668 239.979 219.333C233.463 229.862 224.823 237.418 214.104 242.865C213.894 242.971 213.691 243.093 213.479 243.198C212.36 243.754 211.217 244.281 210.052 244.792C209.809 244.898 209.568 245.01 209.323 245.115C208.169 245.608 206.99 246.069 205.792 246.521C205.466 246.644 205.142 246.776 204.813 246.896C203.626 247.328 202.416 247.731 201.188 248.125C200.893 248.219 200.599 248.314 200.302 248.406C199.046 248.797 197.768 249.167 196.469 249.521C196.133 249.612 195.797 249.703 195.458 249.792C194.123 250.143 192.766 250.477 191.385 250.792C191.122 250.852 190.859 250.92 190.594 250.979C184.739 252.278 178.493 253.292 171.844 254.031C164.611 254.836 156.804 255.332 148.396 255.635L138.833 256.042V255.896C135.319 255.955 131.709 256 128 256C103.344 256 82.8788 254.782 66.1667 251.177C49.335 247.547 35.5951 241.345 25.125 230.875C14.6549 220.405 8.45341 206.665 4.82292 189.833C1.21834 173.121 0 152.656 0 128C0 103.344 1.21834 82.8788 4.82292 66.1667C8.45341 49.335 14.6549 35.5951 25.125 25.125C35.5951 14.6549 49.335 8.45341 66.1667 4.82292C82.8788 1.21834 103.344 0 128 0ZM128 21.3333C103.767 21.3333 85.121 22.5596 70.6667 25.6771C56.3321 28.7688 46.8492 33.5675 40.2083 40.2083C33.5675 46.8492 28.7688 56.3321 25.6771 70.6667C22.5596 85.121 21.3333 103.767 21.3333 128C21.3333 152.233 22.5596 170.879 25.6771 185.333C28.7688 199.668 33.5675 209.151 40.2083 215.792C46.8492 222.432 56.3321 227.231 70.6667 230.323C85.121 233.44 103.767 234.667 128 234.667C132.354 234.667 136.532 234.615 140.542 234.531C143.473 207.023 150.502 186.138 166.406 171.99C182.153 157.982 204.714 152.32 234.219 150.302C234.513 143.477 234.667 136.063 234.667 128C234.667 103.767 233.44 85.121 230.323 70.6667C227.231 56.3321 222.432 46.8492 215.792 40.2083C209.151 33.5675 199.668 28.7688 185.333 25.6771C170.879 22.5596 152.233 21.3333 128 21.3333ZM232.531 171.812C206.283 173.917 190.56 179.063 180.583 187.937C170.977 196.486 165.009 210.066 162.125 233.49C186.579 231.531 201.889 226.944 211.938 219.156C212.676 218.583 213.388 217.994 214.073 217.385C223.683 208.838 229.648 195.253 232.531 171.812Z" fill="black"/>
</svg>
