<svg width="256" height="256" viewBox="0 0 256 256" fill="none" xmlns="http://www.w3.org/2000/svg">
<path d="M181.333 149.333C187.224 149.333 192 154.109 192 160C192 165.891 187.224 170.667 181.333 170.667H85.3333C79.4423 170.667 74.6667 165.891 74.6667 160C74.6667 154.109 79.4423 149.333 85.3333 149.333H181.333Z" fill="black"/>
<path d="M181.333 85.3333C187.224 85.3333 192 90.109 192 96C192 101.891 187.224 106.667 181.333 106.667H85.3333C79.4423 106.667 74.6667 101.891 74.6667 96C74.6667 90.109 79.4423 85.3333 85.3333 85.3333H181.333Z" fill="black"/>
<path fill-rule="evenodd" clip-rule="evenodd" d="M142.677 0.0625C236.813 1.41443 256 24.666 256 128L255.938 137.75C254.642 235.979 232.362 256 133.333 256L123.99 255.938C53.6738 254.928 25.1909 241.696 15.2708 192H10.6667C4.77563 192 0 187.224 0 181.333C0 175.442 4.77563 170.667 10.6667 170.667H12.2708C11.389 161.063 10.9217 150.429 10.75 138.667H10.6667C4.77563 138.667 0 133.891 0 128C0 122.109 4.77563 117.333 10.6667 117.333H10.75C10.9218 105.57 11.4097 94.9379 12.2917 85.3333H10.6667C4.77563 85.3333 0 80.5577 0 74.6667C0 68.7756 4.77563 64 10.6667 64H15.2708C25.6193 12.1591 56.1696 0 133.333 0L142.677 0.0625ZM133.333 21.3333C108.223 21.3333 89.6736 22.6745 75.7292 25.8125C62.0793 28.8846 54.2359 33.3739 49.0729 38.7604C44.2447 43.7986 40.1061 51.3822 37.1146 64H42.6667C48.5577 64 53.3333 68.7756 53.3333 74.6667C53.3333 80.5577 48.5577 85.3333 42.6667 85.3333H33.7083C32.7877 94.5656 32.2686 105.153 32.0833 117.333H42.6667C48.5577 117.333 53.3333 122.109 53.3333 128C53.3333 133.891 48.5577 138.667 42.6667 138.667H32.0833C32.2686 150.847 32.7877 161.434 33.7083 170.667H42.6667C48.5577 170.667 53.3333 175.442 53.3333 181.333C53.3333 187.224 48.5577 192 42.6667 192H37.1146C40.1061 204.618 44.2447 212.201 49.0729 217.24C54.2359 222.626 62.0793 227.115 75.7292 230.188C89.6736 233.325 108.223 234.667 133.333 234.667C158.444 234.667 176.993 233.325 190.938 230.188C204.587 227.115 212.431 222.626 217.594 217.24C222.832 211.773 227.287 203.317 230.313 188.677C233.377 173.849 234.667 154.262 234.667 128C234.667 101.738 233.377 82.1514 230.313 67.3229C227.287 52.6834 222.832 44.2268 217.594 38.7604C212.431 33.3739 204.587 28.8846 190.938 25.8125C176.993 22.6745 158.444 21.3333 133.333 21.3333Z" fill="black"/>
</svg>
