<svg width="256" height="256" viewBox="0 0 256 256" fill="none" xmlns="http://www.w3.org/2000/svg">
<path d="M124.375 53.9688C127.103 52.9838 130.144 53.1467 132.771 54.4583C148.679 62.4139 161.586 75.3204 169.542 91.2292C172.173 96.4966 170.037 102.907 164.771 105.542C159.504 108.173 153.093 106.036 150.458 100.771C147.432 94.7196 143.431 89.2542 138.667 84.5729V138.667C138.666 144.555 133.888 149.331 128 149.333C122.112 149.331 117.334 144.555 117.333 138.667V84.5729C112.568 89.2555 108.568 94.7174 105.542 100.771C102.908 106.038 96.4973 108.173 91.2292 105.542C85.9637 102.906 83.8249 96.4966 86.4583 91.2292C94.4138 75.3183 107.319 62.4144 123.229 54.4583L124.375 53.9688Z" fill="black"/>
<path fill-rule="evenodd" clip-rule="evenodd" d="M128 0C234.667 0 256 21.3333 256 128C256 234.667 234.667 256 128 256C21.3333 256 0 234.667 0 128C0 21.3333 21.3333 0 128 0ZM23.1354 170.667C23.8263 177.287 24.7117 183.203 25.8542 188.5C28.9821 203.002 33.5795 211.413 39.0833 216.917C44.5872 222.421 52.9976 227.018 67.5 230.146C82.2421 233.325 101.757 234.667 128 234.667C154.243 234.667 173.758 233.325 188.5 230.146C203.002 227.018 211.413 222.421 216.917 216.917C222.421 211.413 227.018 203.002 230.146 188.5C231.288 183.203 232.174 177.287 232.865 170.667H194.583C188.927 170.668 183.5 172.917 179.5 176.917L176.917 179.5C168.916 187.5 158.064 191.999 146.75 192H109.25C97.9358 191.999 87.0838 187.5 79.0833 179.5L76.5 176.917C72.5004 172.917 67.0729 170.668 61.4167 170.667H23.1354ZM128 21.3333C101.757 21.3333 82.2421 22.6747 67.5 25.8542C52.9976 28.9821 44.5872 33.5795 39.0833 39.0833C33.5795 44.5872 28.9821 52.9976 25.8542 67.5C22.6747 82.2421 21.3333 101.757 21.3333 128C21.3333 135.67 21.4668 142.764 21.7083 149.333H61.4167C72.7308 149.335 83.5829 153.833 91.5833 161.833L94.1667 164.417C98.1663 168.416 103.594 170.665 109.25 170.667H146.75C152.406 170.665 157.834 168.416 161.833 164.417L164.417 161.833C172.417 153.833 183.269 149.335 194.583 149.333H234.292C234.533 142.764 234.667 135.67 234.667 128C234.667 101.757 233.325 82.2421 230.146 67.5C227.018 52.9976 222.421 44.5872 216.917 39.0833C211.413 33.5795 203.002 28.9821 188.5 25.8542C173.758 22.6747 154.243 21.3333 128 21.3333Z" fill="black"/>
</svg>
