<svg width="256" height="256" viewBox="0 0 256 256" fill="none" xmlns="http://www.w3.org/2000/svg">
<path d="M140.042 90.7708C142.93 85.6379 149.429 83.8206 154.563 86.7083C175.031 98.2226 191.243 116.029 200.781 137.49L201.75 139.667C202.976 142.425 202.976 145.575 201.75 148.333L200.781 150.51C191.243 171.971 175.031 189.777 154.563 201.292C149.429 204.179 142.93 202.362 140.042 197.229C137.154 192.095 138.971 185.597 144.104 182.708C159.879 173.835 172.491 160.299 180.271 144C172.491 127.701 159.879 114.165 144.104 105.292C138.971 102.403 137.154 95.9047 140.042 90.7708Z" fill="black"/>
<path d="M101.438 54.7083C106.571 51.8206 113.07 53.6379 115.958 58.7708C118.846 63.9047 117.029 70.403 111.896 73.2917C96.1208 82.1651 83.5093 95.7008 75.7292 112C83.5092 128.299 96.1208 141.835 111.896 150.708C117.029 153.597 118.846 160.095 115.958 165.229C113.07 170.362 106.571 172.179 101.438 169.292C80.9687 157.777 64.757 139.971 55.2188 118.51L54.25 116.333C53.0242 113.575 53.0242 110.425 54.25 107.667L55.2188 105.49C64.757 84.0287 80.9687 66.2226 101.438 54.7083Z" fill="black"/>
<path fill-rule="evenodd" clip-rule="evenodd" d="M128 0C234.667 0 256 21.3333 256 128C256 234.667 234.667 256 128 256C21.3333 256 0 234.667 0 128C0 21.3333 21.3333 0 128 0ZM128 21.3333C101.757 21.3333 82.2421 22.6747 67.5 25.8542C52.9976 28.9821 44.5872 33.5795 39.0833 39.0833C33.5795 44.5872 28.9821 52.9976 25.8542 67.5C22.6747 82.2421 21.3333 101.757 21.3333 128C21.3333 154.243 22.6747 173.758 25.8542 188.5C28.9821 203.002 33.5795 211.413 39.0833 216.917C44.5872 222.421 52.9976 227.018 67.5 230.146C82.2421 233.325 101.757 234.667 128 234.667C154.243 234.667 173.758 233.325 188.5 230.146C203.002 227.018 211.413 222.421 216.917 216.917C222.421 211.413 227.018 203.002 230.146 188.5C233.325 173.758 234.667 154.243 234.667 128C234.667 101.757 233.325 82.2421 230.146 67.5C227.018 52.9976 222.421 44.5872 216.917 39.0833C211.413 33.5795 203.002 28.9821 188.5 25.8542C173.758 22.6747 154.243 21.3333 128 21.3333Z" fill="black"/>
</svg>
