<svg width="256" height="257" viewBox="0 0 256 257" fill="none" xmlns="http://www.w3.org/2000/svg">
<path fill-rule="evenodd" clip-rule="evenodd" d="M233.261 128.959C229.252 166.588 215.664 183.141 180.428 189.501C177.3 244.678 164.938 256.959 128.001 256.959C91.0628 256.959 78.6907 244.678 75.5632 189.501C40.3348 183.139 26.749 166.585 22.7402 128.959H22.5007C21.8704 122.216 21.51 114.824 21.3861 106.719L21.334 99.4069C21.334 78.3765 23.7687 61.7948 28.6048 48.7715L29.6048 46.2194C43.5268 12.322 82.7747 38.9553 153.094 11.5631L160.001 8.74022C234.667 -23.2597 234.667 50.6877 234.667 99.4069L234.615 106.719C234.491 114.823 234.131 122.216 233.501 128.959H233.261ZM44.209 128.959C45.5403 139.99 47.7096 147.449 50.6257 152.709C54.2256 159.202 60.1903 164.487 76.0527 167.855L79.3548 168.511L81.1465 168.907C89.9432 171.287 96.3414 179.058 96.8652 188.292C98.4383 216.046 102.338 226.386 105.657 230.469C107.351 232.552 110.936 235.626 128.001 235.626C145.065 235.626 148.643 232.55 150.334 230.469C153.652 226.386 157.552 216.048 159.126 188.292C159.684 178.443 166.928 170.265 176.636 168.511C195.002 165.196 201.536 159.633 205.376 152.709C208.292 147.45 210.441 139.989 211.771 128.959H44.209ZM196.959 22.959C193.258 21.8339 184.803 21.3179 168.407 28.3444C127.213 45.9991 94.7623 46.666 73.1777 47.6673C61.7316 48.1983 56.3944 48.8145 53.0423 50.0736C51.7015 50.5772 50.7473 50.8822 49.334 54.3236C45.2846 64.1841 42.6673 78.4915 42.6673 99.4069C42.6673 102.275 42.6988 105.012 42.7507 107.626H213.251C213.303 105.012 213.334 102.275 213.334 99.4069C213.334 87.0764 213.322 74.2511 212.251 62.0527C211.162 49.6558 209.099 39.654 205.907 32.6152C202.911 26.0103 199.849 23.8381 196.959 22.959Z" fill="black"/>
</svg>
