<svg width="256" height="257" viewBox="0 0 256 257" fill="none" xmlns="http://www.w3.org/2000/svg">
<path fill-rule="evenodd" clip-rule="evenodd" d="M117.334 0.957031C188.588 0.957031 209.051 6.60101 212.678 32.957H234.667C240.558 32.957 245.334 37.7327 245.334 43.6237V107.624C245.334 112.779 241.645 117.191 236.574 118.113L128.001 137.853V150.988C145.488 153.781 149.334 165.884 149.334 203.624C149.334 248.068 144.001 256.957 117.334 256.957C90.6673 256.957 85.334 248.068 85.334 203.624C85.334 165.884 89.1795 153.781 106.667 150.988V128.957C106.667 123.802 110.356 119.39 115.428 118.467L224.001 98.7175V54.2904H212.678C209.051 80.6464 188.588 86.2904 117.334 86.2904C37.334 86.2904 21.334 79.1793 21.334 43.6237C21.334 8.06814 37.334 0.957031 117.334 0.957031ZM117.334 171.624C112.949 171.624 110.504 171.928 109.23 172.197C108.839 173.285 108.238 175.435 107.74 179.28C107.004 184.971 106.667 192.757 106.667 203.624C106.667 214.49 107.004 222.277 107.74 227.967C108.236 231.802 108.839 233.949 109.23 235.04C110.504 235.309 112.947 235.624 117.334 235.624C121.71 235.624 124.151 235.309 125.428 235.04C125.819 233.95 126.431 231.806 126.928 227.967C127.664 222.277 128.001 214.49 128.001 203.624C128.001 192.757 127.664 184.971 126.928 179.28C126.43 175.431 125.819 173.284 125.428 172.197C124.151 171.928 121.707 171.624 117.334 171.624ZM117.334 22.2904C97.5124 22.2904 82.3264 22.7406 70.6152 23.8633C58.6896 25.0068 51.8774 26.7245 48.0007 28.4466C44.8668 29.8394 44.4961 30.8067 44.2715 31.2695C43.6162 32.6202 42.6673 35.8985 42.6673 43.6237C42.6673 51.3489 43.6162 54.6272 44.2715 55.9779C44.4961 56.4407 44.8668 57.408 48.0007 58.8008C51.8774 60.5229 58.6896 62.2406 70.6152 63.3841C82.3264 64.5068 97.5124 64.957 117.334 64.957C137.156 64.957 152.342 64.5068 164.053 63.3841C175.978 62.2406 182.791 60.5229 186.667 58.8008C189.801 57.408 190.172 56.4407 190.396 55.9779C191.052 54.6272 192.001 51.3489 192.001 43.6237C192.001 35.8985 191.052 32.6202 190.396 31.2695C190.172 30.8067 189.801 29.8394 186.667 28.4466C182.791 26.7245 175.978 25.0068 164.053 23.8633C152.342 22.7406 137.156 22.2904 117.334 22.2904Z" fill="black"/>
</svg>
