<svg width="256" height="256" viewBox="0 0 256 256" fill="none" xmlns="http://www.w3.org/2000/svg">
<path d="M91.7292 64.0521C97.5877 64.6401 101.865 69.8702 101.281 75.7292C97.8058 110.487 97.8058 145.513 101.281 180.271C101.865 186.13 97.5879 191.36 91.7292 191.948C85.8699 192.533 80.6408 188.254 80.0521 182.396C76.4353 146.226 76.4353 109.774 80.0521 73.6042C80.6406 67.7458 85.8701 63.4677 91.7292 64.0521Z" fill="black"/>
<path d="M164.271 64.0521C170.13 63.4674 175.359 67.7458 175.948 73.6042C179.565 109.774 179.565 146.226 175.948 182.396C175.359 188.254 170.13 192.532 164.271 191.948C158.412 191.36 154.135 186.13 154.719 180.271C158.194 145.513 158.194 110.487 154.719 75.7292C154.135 69.8701 158.412 64.6396 164.271 64.0521Z" fill="black"/>
<path fill-rule="evenodd" clip-rule="evenodd" d="M128 0C234.667 0 256 21.3333 256 128C256 234.667 234.667 256 128 256C21.3333 256 0 234.667 0 128C0 21.3333 21.3333 0 128 0ZM128 21.3333C101.757 21.3333 82.2421 22.6747 67.5 25.8542C52.9976 28.9821 44.5872 33.5795 39.0833 39.0833C33.5795 44.5872 28.9821 52.9976 25.8542 67.5C22.6747 82.2421 21.3333 101.757 21.3333 128C21.3333 154.243 22.6747 173.758 25.8542 188.5C28.9821 203.002 33.5795 211.413 39.0833 216.917C44.5872 222.421 52.9976 227.018 67.5 230.146C82.2421 233.325 101.757 234.667 128 234.667C154.243 234.667 173.758 233.325 188.5 230.146C203.002 227.018 211.413 222.421 216.917 216.917C222.421 211.413 227.018 203.002 230.146 188.5C233.325 173.758 234.667 154.243 234.667 128C234.667 101.757 233.325 82.2421 230.146 67.5C227.018 52.9976 222.421 44.5872 216.917 39.0833C211.413 33.5795 203.002 28.9821 188.5 25.8542C173.758 22.6747 154.243 21.3333 128 21.3333Z" fill="black"/>
</svg>
