<svg width="256" height="256" viewBox="0 0 256 256" fill="none" xmlns="http://www.w3.org/2000/svg">
<path fill-rule="evenodd" clip-rule="evenodd" d="M197.302 64.1458C207.169 65.0278 220.407 68.2816 230.729 78.6042C241.052 88.9267 244.305 102.164 245.187 112.031C246.532 127.081 238.576 139.684 229.969 148.292L148.458 229.792C137.365 240.885 123.079 248.244 107.604 250.823L78.2917 255.708C63.7877 258.123 51.2105 245.546 53.625 231.042L58.5104 201.729C61.0896 186.254 68.4483 171.968 79.5417 160.875L161.042 79.3646C169.649 70.7571 182.253 62.8012 197.302 64.1458ZM94.625 175.958C86.6764 183.907 81.4111 194.141 79.5625 205.229L74.6771 234.542L74.6667 234.583L74.6979 234.635L74.7396 234.656C74.7396 234.656 74.7674 234.66 74.7917 234.656L104.104 229.771C115.192 227.922 125.426 222.657 133.375 214.708L193.167 154.917L154.417 116.167L94.625 175.958ZM195.406 85.3958C189.284 84.8486 182.558 88.0265 176.135 94.4479L169.5 101.083L208.25 139.833L214.885 133.198C221.307 126.775 224.485 120.049 223.937 113.927C223.281 106.583 221.009 99.0505 215.646 93.6875C210.283 88.3245 202.75 86.0526 195.406 85.3958Z" fill="black"/>
<path d="M53.3333 0C59.2244 0 64 4.77563 64 10.6667V42.6667H96C101.891 42.6667 106.667 47.4423 106.667 53.3333C106.667 59.2244 101.891 64 96 64H64V96C64 101.891 59.2244 106.667 53.3333 106.667C47.4423 106.667 42.6667 101.891 42.6667 96V64H10.6667C4.77563 64 2.01036e-06 59.2244 0 53.3333C2.57505e-07 47.4423 4.77563 42.6667 10.6667 42.6667H42.6667V10.6667C42.6667 4.77563 47.4423 0 53.3333 0Z" fill="black"/>
</svg>
