<svg width="256" height="256" viewBox="0 0 256 256" fill="none" xmlns="http://www.w3.org/2000/svg">
<path fill-rule="evenodd" clip-rule="evenodd" d="M29.8859 11.8002C73.634 8.8967 190.87 7.06096 226.563 66.5398C242.328 92.8116 239.428 128.61 232.407 158.279C257.415 187.735 254.725 202.555 228.636 228.644C202.545 254.735 187.724 257.422 158.261 232.404C128.6 239.418 92.8228 242.296 66.563 226.54C7.08978 190.852 8.89954 73.6335 11.7921 29.894C12.4428 20.0808 20.0724 12.4517 29.8859 11.8002ZM127.698 36.8106C98.8721 31.9527 69.1322 31.5774 47.3963 32.3106L111.282 96.1961C112.191 96.1289 113.153 96.0705 114.167 96.0398L117.334 95.9982C135.108 95.9985 138.667 99.5574 138.667 117.331C138.667 135.109 135.11 138.665 117.334 138.665L114.167 138.623C99.1258 138.168 96.0005 133.999 96.0005 117.331L96.0421 114.165C96.073 113.146 96.1202 112.181 96.188 111.269L32.3026 47.3836C31.5739 69.1167 31.9593 98.8584 36.8234 127.686C43.2749 165.919 56.4126 195.569 77.5421 208.248C96.1518 219.412 124.588 218.446 153.355 211.644L155.834 211.206C161.657 210.539 167.549 212.302 172.073 216.144C186.174 228.117 191.487 228.537 193.105 228.415C195.272 228.25 200.601 226.512 213.553 213.561C226.503 200.61 228.241 195.281 228.407 193.113C228.529 191.497 228.116 186.18 216.146 172.081C211.758 166.912 210.085 159.962 211.646 153.363C218.457 124.579 219.44 96.1333 208.271 77.519C195.591 56.3885 165.938 43.2552 127.698 36.8106Z" fill="black"/>
</svg>
