<svg width="256" height="256" viewBox="0 0 256 256" fill="none" xmlns="http://www.w3.org/2000/svg">
<path d="M234.666 234.667C240.557 234.667 245.333 239.443 245.333 245.334C245.332 251.224 240.556 256.001 234.666 256.001H21.3327C15.4423 256.001 10.6671 251.224 10.666 245.334C10.666 239.443 15.4416 234.667 21.3327 234.667H234.666Z" fill="black"/>
<path fill-rule="evenodd" clip-rule="evenodd" d="M197.301 10.8131C207.168 11.6954 220.407 14.9509 230.729 25.2714C241.049 35.5935 244.305 48.8322 245.187 58.6985C246.53 73.7467 238.575 86.3519 229.968 94.9589L148.458 176.459C137.365 187.551 123.077 194.911 107.604 197.49L78.291 202.376C63.7887 204.788 51.2113 192.211 53.6243 177.709L58.5098 148.396C61.0888 132.922 68.4483 118.635 79.541 107.542L161.041 26.0318C169.648 17.4249 182.253 9.46956 197.301 10.8131ZM94.6243 122.626C86.6765 130.574 81.4104 140.809 79.5618 151.896L74.6764 181.209L74.666 181.251L74.6973 181.303L74.7389 181.323H74.791L104.104 176.438C115.19 174.589 125.426 169.323 133.374 161.376L193.166 101.584L154.416 62.8339L94.6243 122.626ZM195.406 32.0631C189.284 31.517 182.556 34.6948 176.135 41.1152L169.499 47.7506L208.249 86.5006L214.885 79.8652C221.305 73.4433 224.483 66.7158 223.937 60.5943C223.28 53.2518 221.007 45.7175 215.645 40.3547C210.283 34.9934 202.748 32.7201 195.406 32.0631Z" fill="black"/>
</svg>
