<svg width="256" height="256" viewBox="0 0 256 256" fill="none" xmlns="http://www.w3.org/2000/svg">
<path fill-rule="evenodd" clip-rule="evenodd" d="M197.302 64.1473C207.169 65.0292 220.406 68.2831 230.729 78.6056C241.051 88.9281 244.305 102.166 245.187 112.033C246.532 127.082 238.576 139.686 229.968 148.293L148.458 229.793C137.364 240.886 123.079 248.245 107.604 250.824L78.2911 255.71C63.7872 258.124 51.2099 245.547 53.6245 231.043L58.5099 201.731C61.089 186.256 68.4478 171.97 79.5411 160.876L161.041 79.366C169.649 70.7585 182.252 62.8026 197.302 64.1473ZM94.6245 175.96C86.6759 183.908 81.4106 194.143 79.562 205.231L74.6765 234.543L74.6661 234.585L74.6974 234.637L74.739 234.658C74.739 234.658 74.7669 234.662 74.7911 234.658L104.104 229.772C115.191 227.924 125.426 222.658 133.374 214.71L193.166 154.918L154.416 116.168L94.6245 175.96ZM195.406 85.3972C189.284 84.8501 182.557 88.028 176.135 94.4493L169.499 101.085L208.249 139.835L214.885 133.199C221.306 126.777 224.484 120.051 223.937 113.928C223.28 106.585 221.008 99.0519 215.645 93.6889C210.282 88.326 202.749 86.054 195.406 85.3972Z" fill="black"/>
<path d="M63.9474 42.6681C69.8375 42.6408 74.6374 47.3929 74.6661 53.2827C74.6934 59.1725 69.9409 63.9722 64.0515 64.0014L21.3849 64.1993C15.4949 64.2265 10.6949 59.4744 10.6661 53.5848C10.6388 47.6946 15.3909 42.8947 21.2807 42.866L63.9474 42.6681Z" fill="black"/>
</svg>
