<svg width="256" height="256" viewBox="0 0 256 256" fill="none" xmlns="http://www.w3.org/2000/svg">
<path d="M125.273 192C131.162 192.002 135.94 196.777 135.94 202.667C135.94 208.556 131.162 213.331 125.273 213.333C119.382 213.333 114.606 208.558 114.606 202.667C114.606 196.776 119.382 192 125.273 192Z" fill="black"/>
<path d="M101.356 37.6563C117.059 33.7318 133.487 33.7311 149.19 37.6563C154.901 39.0864 158.376 44.8706 156.95 50.5833C155.522 56.2963 149.736 59.7683 144.023 58.3438C131.716 55.2671 118.83 55.2677 106.523 58.3438C100.809 59.7708 95.025 56.2971 93.596 50.5833C92.1688 44.869 95.6421 39.0848 101.356 37.6563Z" fill="black"/>
<path fill-rule="evenodd" clip-rule="evenodd" d="M125.273 0C196.903 0.000547623 222.331 13.8586 229.513 75.0625C233.384 76.1387 236.486 79.3588 237.19 83.5833C240.914 105.929 240.914 128.738 237.19 151.083C236.596 154.643 234.296 157.484 231.273 158.938C228.117 224.011 212.575 247.45 164.065 253.927L159.815 254.438C149.706 255.545 138.245 256 125.273 256C49.5023 256 25.4132 240.498 19.9502 169.854C17.6478 168.909 15.661 167.171 14.4606 164.771C9.60168 155.053 9.60168 143.614 14.4606 133.896C15.4214 131.975 16.8804 130.467 18.6064 129.458C18.6057 128.974 18.6064 128.488 18.6064 128C18.6064 123.844 18.643 119.817 18.7002 115.917C16.9358 114.908 15.4377 113.391 14.4606 111.438C9.60168 101.72 9.60168 90.2803 14.4606 80.5625C15.8413 77.8016 18.256 75.8984 21.0022 75.0938C28.1788 13.8602 53.6264 0 125.273 0ZM125.273 21.3333C80.2512 21.3333 63.5313 27.4108 54.9918 37.6563C50.479 43.0721 46.478 51.7244 43.7731 66.7708C41.0601 81.8646 39.9397 101.679 39.9397 128C39.9397 154.321 41.0601 174.135 43.7731 189.229C46.478 204.276 50.479 212.928 54.9918 218.344C63.5313 228.589 80.2512 234.667 125.273 234.667C139.616 234.667 151.431 234.091 161.242 232.781C173.547 231.138 181.71 228.468 187.377 225.177C192.654 222.111 196.627 218.012 199.867 211.729C207.215 197.476 210.606 172.858 210.606 128C210.606 101.679 209.486 81.8646 206.773 66.7708C204.069 51.7259 200.067 43.0724 195.554 37.6563C187.016 27.4099 170.295 21.3337 125.273 21.3333Z" fill="black"/>
</svg>
