<svg width="256" height="256" viewBox="0 0 256 256" fill="none" xmlns="http://www.w3.org/2000/svg">
<path fill-rule="evenodd" clip-rule="evenodd" d="M128.068 53.3333C151.632 53.3333 170.735 72.4358 170.735 96C170.735 119.564 151.632 138.667 128.068 138.667C104.504 138.666 85.4012 119.564 85.4012 96C85.4012 72.4359 104.504 53.3335 128.068 53.3333ZM128.068 74.6667C116.286 74.6668 106.735 84.218 106.735 96C106.735 107.782 116.286 117.333 128.068 117.333C139.85 117.333 149.401 107.782 149.401 96C149.401 84.2179 139.85 74.6667 128.068 74.6667Z" fill="black"/>
<path fill-rule="evenodd" clip-rule="evenodd" d="M128.016 0C216.905 0 245.297 53.3333 234.683 128C226.191 187.734 163.017 233.812 138.089 249.854L136.912 250.562C131.33 253.616 124.711 253.607 119.13 250.552L117.943 249.854C93.0322 233.807 29.9234 187.727 21.3492 128C10.6304 53.3335 39.1274 0.000218851 128.016 0ZM128.016 21.3333C87.7395 21.3334 65.9802 33.2578 54.4325 48.75C42.3203 65.0006 37.4928 90.3412 42.4637 124.969C45.846 148.53 60.3868 171.049 78.9846 190.604C96.5771 209.102 116.123 223.166 128.016 230.937C139.916 223.169 159.488 209.114 177.089 190.615C195.691 171.061 210.209 148.544 213.558 125C218.483 90.3526 213.666 64.9962 201.558 48.7396C190.022 33.252 168.289 21.3333 128.016 21.3333Z" fill="black"/>
</svg>
