<svg width="256" height="256" viewBox="0 0 256 256" fill="none" xmlns="http://www.w3.org/2000/svg">
<path fill-rule="evenodd" clip-rule="evenodd" d="M128.001 0C216.89 1.69544e-07 234.667 8.88889 234.667 53.3333C234.667 80.4818 228.027 94.3383 202.605 101.031C202.639 102.855 202.667 104.733 202.667 106.667C202.667 156.804 191.669 169.222 138.657 170.531C138.657 170.576 138.667 170.621 138.667 170.667V245.333C138.667 251.224 133.892 256 128.001 256C122.11 256 117.334 251.224 117.334 245.333V170.531C64.3307 169.22 53.334 156.801 53.334 106.667C53.334 104.733 53.3516 102.855 53.3861 101.031C27.9716 94.3373 21.334 80.4783 21.334 53.3333C21.334 8.88889 39.1118 0 128.001 0ZM128.001 21.3333C105.982 21.3333 89.1257 21.89 76.1257 23.2917C62.9156 24.7163 55.3037 26.8693 50.8757 29.0833C47.2706 30.8859 46.0085 32.5546 45.084 34.6979C43.7523 37.7851 42.6673 43.2102 42.6673 53.3333C42.6673 65.8786 44.3678 71.0678 45.8965 73.5C46.8456 75.009 49.1801 77.8662 58.8236 80.4063C68.3363 82.9141 74.9056 91.6011 74.7194 101.438C74.6876 103.12 74.6673 104.863 74.6673 106.667C74.6673 134.008 78.5437 140.175 81.2194 142.469C82.7483 143.779 86.0739 145.729 93.959 147.188C101.918 148.659 112.801 149.333 128.001 149.333C143.2 149.333 154.083 148.659 162.042 147.188C169.927 145.729 173.253 143.779 174.782 142.469C177.458 140.175 181.334 134.008 181.334 106.667C181.334 104.931 181.305 103.209 181.271 101.438C181.085 91.5985 187.661 82.9012 197.178 80.3958C206.821 77.8562 209.156 75.0084 210.105 73.5C211.442 71.3727 212.916 67.1326 213.261 57.6979L213.334 53.3333C213.334 43.2102 212.249 37.7851 210.917 34.6979C209.993 32.5546 208.731 30.8859 205.126 29.0833C200.698 26.8693 193.086 24.7163 179.876 23.2917C170.127 22.2406 158.21 21.6603 143.574 21.4375L128.001 21.3333Z" fill="black"/>
</svg>
