<svg width="256" height="256" viewBox="0 0 256 256" fill="none" xmlns="http://www.w3.org/2000/svg">
<path fill-rule="evenodd" clip-rule="evenodd" d="M95.9993 96C113.672 96 127.999 110.327 127.999 128C127.999 145.673 113.672 160 95.9993 160C78.3262 160 63.9993 145.673 63.9993 128C63.9993 110.327 78.3262 96 95.9993 96ZM95.9993 117.333C90.1083 117.333 85.3327 122.109 85.3327 128C85.3327 133.891 90.1083 138.667 95.9993 138.667C101.89 138.667 106.666 133.891 106.666 128C106.666 122.109 101.89 117.333 95.9993 117.333Z" fill="black"/>
<path fill-rule="evenodd" clip-rule="evenodd" d="M127.999 0C193.185 0 245.333 25.6 245.333 64C245.333 72.5641 243.744 83.1456 241.27 94.4167L239.989 99.9062C226.029 156.433 190.029 204.637 148.718 245.948L146.489 247.958C135.748 256.717 120.25 256.717 109.51 247.958L107.281 245.948C65.9698 204.637 29.9699 156.433 16.0098 99.9062L14.7285 94.4167C12.2552 83.1456 10.666 72.5641 10.666 64C10.666 25.6 62.8142 0 127.999 0ZM216.791 103.865C166.122 58.9337 89.8644 58.9303 39.1973 103.865C53.2908 151.199 84.6331 193.134 122.364 230.865C125.475 233.976 130.523 233.976 133.635 230.865C140.349 224.15 146.834 217.279 153.083 210.292C151.469 208.711 149.963 207.018 148.583 205.219C144.747 200.219 141.933 194.514 140.301 188.427C138.67 182.34 138.25 175.987 139.072 169.74C139.895 163.491 141.942 157.459 145.093 152C148.245 146.541 152.446 141.754 157.447 137.917C162.447 134.081 168.152 131.267 174.239 129.635C180.326 128.004 186.679 127.584 192.926 128.406C197.488 129.007 201.932 130.266 206.124 132.125C210.335 122.922 213.92 113.506 216.791 103.865ZM190.145 149.562C186.674 149.106 183.142 149.333 179.76 150.24C176.38 151.146 173.213 152.714 170.437 154.844C167.659 156.976 165.323 159.634 163.572 162.667C161.821 165.699 160.686 169.049 160.229 172.521C159.772 175.992 159.999 179.524 160.906 182.906C161.812 186.286 163.38 189.453 165.51 192.229C165.97 192.829 166.461 193.402 166.968 193.958C178.027 180.238 187.989 166.016 196.374 151.198C194.371 150.414 192.287 149.844 190.145 149.562ZM127.999 21.3333C97.8576 21.3333 72.1814 27.3044 54.8639 36.4583C37.2904 45.7489 31.9993 55.9094 31.9993 64C31.9993 68.4103 32.6171 74.0605 33.7806 80.7187C89.3068 38.2162 166.68 38.2195 222.208 80.7187C223.371 74.0597 223.999 68.4106 223.999 64C223.999 55.9094 218.708 45.7489 201.135 36.4583C183.817 27.3044 158.141 21.3333 127.999 21.3333Z" fill="black"/>
</svg>
