<svg width="256" height="256" viewBox="0 0 256 256" fill="none" xmlns="http://www.w3.org/2000/svg">
<path d="M51.2297 31.2378C53.3514 24.6335 60.3513 20.8439 67.0422 22.6753L68.4693 23.1545L76.0839 26.1962C133.868 49.3099 188.358 79.9382 238.146 117.28C245.292 122.641 245.292 133.355 238.146 138.717C188.358 176.058 133.868 206.687 76.0839 229.8L68.4693 232.842C60.9045 235.868 52.4526 231.29 50.8547 223.3C38.2724 160.388 38.2724 95.6086 50.8547 32.6962L51.2297 31.2378ZM69.9172 46.7274C60.3668 100.484 60.368 155.502 69.9172 209.259C122.001 188.258 171.312 160.978 216.74 127.998C171.311 95.0178 122.003 67.7287 69.9172 46.7274Z" fill="black"/>
</svg>
