<svg width="256" height="256" viewBox="0 0 256 256" fill="none" xmlns="http://www.w3.org/2000/svg">
<path fill-rule="evenodd" clip-rule="evenodd" d="M85.5853 72.7813C87.6768 66.2792 94.9104 62.7467 101.429 65.3542L105.658 67.0417C138.146 80.037 168.79 97.2555 196.783 118.25C203.278 123.125 203.279 132.875 196.783 137.75C168.79 158.745 138.147 175.963 105.658 188.958L101.429 190.646C94.4746 193.428 86.7005 189.219 85.2311 181.875C78.1184 146.311 78.1186 109.689 85.2311 74.125L85.5853 72.7813ZM104.179 89.5C100.257 115.014 100.258 140.976 104.179 166.49C128.708 156.148 152.073 143.253 173.877 128C152.072 112.746 128.709 99.8414 104.179 89.5Z" fill="black"/>
<path fill-rule="evenodd" clip-rule="evenodd" d="M137.752 0.0625C235.979 1.4146 256.002 24.6673 256.002 128L255.939 137.75C254.587 235.977 231.334 256 128.002 256L118.252 255.938C23.1914 254.629 1.37294 232.809 0.0644531 137.75L0.00195312 128C0.00195312 21.3343 21.3363 0 128.002 0L137.752 0.0625ZM128.002 21.3333C101.76 21.3333 82.2439 22.6749 67.502 25.8542C52.9997 28.9821 44.5891 33.5795 39.0853 39.0833C33.5815 44.5872 28.9841 52.9977 25.8561 67.5C22.6768 82.2419 21.3353 101.758 21.3353 128C21.3353 154.243 22.6765 173.758 25.8561 188.5C28.9841 203.002 33.5815 211.413 39.0853 216.917C44.5891 222.42 53.0007 227.018 67.502 230.146C82.2438 233.325 101.76 234.667 128.002 234.667C154.245 234.667 173.76 233.325 188.502 230.146C203.004 227.018 211.415 222.421 216.919 216.917C222.422 211.413 227.02 203.002 230.148 188.5C233.327 173.758 234.669 154.243 234.669 128C234.669 101.758 233.327 82.2419 230.148 67.5C227.02 52.9988 222.422 44.5872 216.919 39.0833C211.415 33.5795 203.004 28.9821 188.502 25.8542C173.76 22.6746 154.245 21.3334 128.002 21.3333Z" fill="black"/>
</svg>
