<svg width="256" height="256" viewBox="0 0 256 256" fill="none" xmlns="http://www.w3.org/2000/svg">
<path d="M128 64C133.891 64 138.667 68.7756 138.667 74.6667V117.333H181.333C187.224 117.333 192 122.109 192 128C191.999 133.89 187.224 138.667 181.333 138.667H138.667V181.333C138.666 187.224 133.891 192 128 192C122.109 192 117.334 187.224 117.333 181.333V138.667H74.6667C68.7761 138.667 64.0007 133.89 64 128C64 122.109 68.7756 117.333 74.6667 117.333H117.333V74.6667C117.333 68.7756 122.109 64 128 64Z" fill="black"/>
<path fill-rule="evenodd" clip-rule="evenodd" d="M137.75 0.0625C235.977 1.4146 256 24.6673 256 128L255.938 137.75C254.585 235.977 231.332 256 128 256L118.25 255.938C23.1894 254.629 1.37099 232.809 0.0625 137.75L0 128C0 21.3343 21.3343 0 128 0L137.75 0.0625ZM128 21.3333C101.758 21.3333 82.2419 22.6749 67.5 25.8542C52.9977 28.9821 44.5872 33.5795 39.0833 39.0833C33.5795 44.5872 28.9821 52.9977 25.8542 67.5C22.6749 82.2419 21.3333 101.758 21.3333 128C21.3334 154.243 22.6746 173.758 25.8542 188.5C28.9821 203.002 33.5795 211.413 39.0833 216.917C44.5872 222.42 52.9987 227.018 67.5 230.146C82.2419 233.325 101.758 234.667 128 234.667C154.243 234.667 173.758 233.325 188.5 230.146C203.002 227.018 211.413 222.421 216.917 216.917C222.42 211.413 227.018 203.002 230.146 188.5C233.325 173.758 234.667 154.243 234.667 128C234.667 101.758 233.325 82.2419 230.146 67.5C227.018 52.9988 222.42 44.5872 216.917 39.0833C211.413 33.5795 203.002 28.9821 188.5 25.8542C173.758 22.6746 154.243 21.3334 128 21.3333Z" fill="black"/>
</svg>
