<svg width="256" height="256" viewBox="0 0 256 256" fill="none" xmlns="http://www.w3.org/2000/svg">
<path fill-rule="evenodd" clip-rule="evenodd" d="M170.667 0C213.333 0 224 23.8781 224 53.3333C224 54.5982 223.93 55.8509 223.844 57.0938C223.744 57.0747 223.642 57.0605 223.542 57.0417C247.869 61.5952 255.999 71.7468 256 94.4375C256 107.988 252.506 116.15 244.406 121.042C245.041 129.561 245.333 138.962 245.333 149.333C245.333 238.22 225.777 256 128 256C30.2233 256 10.6671 238.22 10.6667 149.333C10.6667 138.959 10.9412 129.553 11.5729 121.031C3.48816 116.137 0 107.976 0 94.4375C0.00106345 71.7268 8.14349 61.5685 32.5208 57.0208C32.3953 57.0443 32.2705 57.07 32.1458 57.0938C32.0593 55.8512 32 54.5979 32 53.3333C32 23.8781 42.6667 0 85.3333 0C106.667 0 120 13.3333 128 26.6667C136 13.3333 149.333 0 170.667 0ZM32.6042 126.885C32.2245 133.48 32 140.92 32 149.333C32.0002 194.621 37.6848 211.73 47.0208 220.219C51.6777 224.45 59.142 228.272 72.5208 230.896C83.9588 233.139 98.5367 234.273 117.333 234.573V127.375C78.5547 127.605 51.1332 128.901 32.6042 126.885ZM223.375 126.885C205.915 128.78 180.563 127.728 145.26 127.406L138.667 127.375V234.573C157.463 234.273 172.041 233.139 183.479 230.896C196.858 228.272 204.322 224.45 208.979 220.219C218.315 211.73 224 194.621 224 149.333C224 140.919 223.758 133.48 223.375 126.885ZM117.333 74.6875C96.7887 74.6989 79.9759 74.7581 66.0625 75.2917C49.5985 75.9232 38.7411 77.1636 31.4792 79.0938C24.5517 80.9353 23.3267 82.7655 23.1771 82.9792C22.7886 83.5292 21.3338 86.0323 21.3333 94.4375C21.3333 100.057 22.1571 102.162 22.4271 102.688C22.9218 103.034 25.0437 104.262 31.25 105.219C39.333 106.465 50.7249 106.765 67.3333 106.635C80.7882 106.531 97.8425 106.156 117.333 106.042V74.6875ZM138.667 106.042C158.158 106.156 175.212 106.531 188.667 106.635C205.275 106.765 216.667 106.465 224.75 105.219C230.927 104.266 233.055 103.04 233.563 102.688C233.83 102.169 234.667 100.072 234.667 94.4375C234.666 86.0323 233.211 83.5292 232.823 82.9792C232.673 82.7655 231.448 80.9353 224.521 79.0938C217.259 77.1636 206.401 75.9232 189.938 75.2917C176.024 74.7581 159.211 74.6989 138.667 74.6875V106.042ZM85.3333 21.3333C67.9399 21.3333 61.7194 26.0719 59.0938 29.2396C55.7927 33.2231 53.3333 40.5004 53.3333 53.3333C53.3333 53.752 53.3486 54.1686 53.3646 54.5833C52.7325 54.6262 52.1082 54.6832 51.4896 54.7292C70.2661 53.3386 95.2281 53.3333 128 53.3333C123.403 53.3333 118.96 53.3607 114.667 53.3646C115.021 52.7283 115.378 52.1234 115.698 51.5313C115.763 51.4112 115.812 51.2844 115.875 51.1667C114.535 47.2522 112.538 42.362 109.708 37.6458C103.636 27.5259 96.0635 21.3333 85.3333 21.3333ZM170.667 21.3333C159.936 21.3333 152.364 27.5259 146.292 37.6458C143.462 42.3633 141.454 47.2517 140.115 51.1667C140.178 51.2858 140.236 51.4097 140.302 51.5313C140.621 52.122 140.969 52.7299 141.323 53.3646C137.032 53.3608 132.593 53.3333 128 53.3333C160.548 53.3333 185.393 53.3357 204.125 54.6979C203.629 54.6617 203.13 54.6175 202.625 54.5833C202.641 54.1684 202.667 53.7522 202.667 53.3333C202.667 40.5004 200.207 33.2231 196.906 29.2396C194.281 26.0719 188.06 21.3333 170.667 21.3333Z" fill="black"/>
</svg>
