<svg width="256" height="256" viewBox="0 0 256 256" fill="none" xmlns="http://www.w3.org/2000/svg">
<path d="M128.001 106.667C133.892 106.667 138.667 111.442 138.667 117.333V138.667H160.001C165.892 138.667 170.667 143.442 170.667 149.333C170.667 155.224 165.892 160 160.001 160H138.667V181.333C138.667 187.224 133.892 192 128.001 192C122.11 192 117.334 187.224 117.334 181.333V160H96.0007C90.1096 160 85.334 155.224 85.334 149.333C85.334 143.442 90.1096 138.667 96.0007 138.667H117.334V117.333C117.334 111.442 122.11 106.667 128.001 106.667Z" fill="black"/>
<path fill-rule="evenodd" clip-rule="evenodd" d="M128.001 0C204.938 2.21409e-05 213.355 11.4185 213.667 61.7083C230.028 77.1172 234.667 103.956 234.667 149.333C234.667 238.222 216.89 256 128.001 256C39.1118 256 21.334 238.222 21.334 149.333C21.334 103.961 25.9669 77.118 42.3236 61.7083C42.6364 11.4184 51.0634 1.85326e-09 128.001 0ZM197.188 75.4896C151.247 81.44 104.733 81.4418 58.7923 75.4896L56.9486 77.2396C52.8392 81.1127 49.1212 87.2871 46.5111 98.9479C43.8342 110.909 42.6673 127.066 42.6673 149.333C42.6673 171.132 43.7865 187.091 46.3548 199C48.8717 210.669 52.469 216.968 56.4173 220.917C60.3656 224.865 66.6649 228.462 78.334 230.979C90.2428 233.547 106.202 234.667 128.001 234.667C149.799 234.667 165.758 233.547 177.667 230.979C189.336 228.462 195.636 224.865 199.584 220.917C203.532 216.968 207.13 210.669 209.646 199C211.894 188.58 213.033 175.059 213.282 157.24L213.334 149.333C213.334 127.065 212.169 110.907 209.49 98.9479C206.878 87.287 203.155 81.1136 199.042 77.2396L197.188 75.4896ZM128.001 21.3333C109.059 21.3333 95.4657 22.0527 85.5632 23.6354C75.5672 25.2334 71.3472 27.4252 69.5215 28.8438C68.3122 29.7835 66.9087 31.2675 65.7194 36.0208C64.6377 40.3463 64.0393 46.2145 63.7923 54.6354C67.4131 55.0883 71.04 55.4782 74.6673 55.8542V53.3333C74.6673 47.4423 79.4429 42.6667 85.334 42.6667C91.225 42.6667 96.0007 47.4423 96.0007 53.3333V57.6354C103.107 58.0757 110.219 58.3639 117.334 58.5104V53.3333C117.334 47.4423 122.11 42.6667 128.001 42.6667C133.892 42.6667 138.667 47.4423 138.667 53.3333V58.5104C145.782 58.3635 152.895 58.076 160.001 57.6354V53.3333C160.001 47.4423 164.776 42.6667 170.667 42.6667C176.558 42.6667 181.334 47.4423 181.334 53.3333V55.8542C184.954 55.4788 188.574 55.0873 192.188 54.6354C191.941 46.2146 191.353 40.3469 190.271 36.0208C189.084 31.2709 187.687 29.7828 186.48 28.8438C184.656 27.4262 180.426 25.2335 170.428 23.6354C163.003 22.4489 153.504 21.7454 141.23 21.4688L128.001 21.3333Z" fill="black"/>
</svg>
