<svg width="256" height="256" viewBox="0 0 256 256" fill="none" xmlns="http://www.w3.org/2000/svg">
<path d="M192 96C197.891 96 202.667 100.776 202.667 106.667C202.667 112.558 197.891 117.333 192 117.333H181.333C175.442 117.333 170.667 112.558 170.667 106.667C170.667 100.776 175.442 96 181.333 96H192Z" fill="black"/>
<path fill-rule="evenodd" clip-rule="evenodd" d="M126.635 0C193.198 0.000590887 215.424 11.6973 221.021 64.2708C248.651 76.1393 256 99.6593 256 144C256 193.525 246.824 217.044 210.469 227.396C202.24 249.948 175.913 256 128 256L121.646 255.958C77.7563 255.417 53.4055 248.929 45.5417 227.406C9.17596 217.056 0 193.53 0 144C0 101.255 6.82775 77.8551 32.0729 65.5938C37.4384 11.8891 59.5132 0 126.635 0ZM71.3125 170.667C69.2314 176.11 67.3887 182.636 65.9479 190.51C61.0843 217.097 66.3276 223.161 69.5938 225.656C72.4768 227.859 77.8967 230.351 88.0521 232.125C98.0993 233.88 111.16 234.667 128 234.667C144.84 234.667 157.901 233.88 167.948 232.125C178.103 230.351 183.523 227.859 186.406 225.656C189.672 223.161 194.916 217.097 190.052 190.51C188.611 182.636 186.769 176.11 184.688 170.667H71.3125ZM128 74.6667C101.623 74.6667 81.5849 75.6211 66.2188 77.9688C50.7759 80.3284 41.8217 83.8529 36.3333 87.7396C27.2027 94.2071 21.3333 106.337 21.3333 144C21.3333 181.663 27.2027 193.793 36.3333 200.26C38.0879 201.503 40.2091 202.681 42.7708 203.823C42.7761 203.994 42.7859 204.164 42.7917 204.333C42.9881 200.454 43.418 196.3 44.0938 191.854L44.9688 186.667C46.0915 180.53 47.4634 174.913 49.0625 169.771C45.2987 168.123 42.6667 164.371 42.6667 160C42.6667 154.109 47.4423 149.333 53.3333 149.333H202.667C208.558 149.333 213.333 154.109 213.333 160C213.333 164.375 210.696 168.125 206.927 169.771C208.527 174.914 209.908 180.529 211.031 186.667C212.21 193.109 212.916 198.983 213.188 204.333C213.193 204.164 213.213 203.994 213.219 203.823C215.784 202.68 217.91 201.504 219.667 200.26C228.797 193.793 234.667 181.663 234.667 144C234.667 106.337 228.797 94.2071 219.667 87.7396C214.178 83.8529 205.224 80.3284 189.781 77.9688C174.415 75.6211 154.377 74.6667 128 74.6667ZM126.635 21.3333C107.09 21.3333 93.0027 22.3989 82.625 24.7604C72.5569 27.0526 67.3585 30.2651 64.125 33.6771C60.797 37.1906 57.5664 43.0146 55.2917 54.1458C55.0131 55.5093 54.7421 56.9278 54.5 58.4063C72.7254 54.6538 96.683 53.3333 128 53.3333C157.701 53.3333 180.785 54.5114 198.635 57.8333C198.425 56.5616 198.221 55.3305 197.979 54.1458C195.705 43.0166 192.473 37.191 189.146 33.6771C185.913 30.2647 180.713 27.0531 170.646 24.7604C160.269 22.3983 146.181 21.3335 126.635 21.3333Z" fill="black"/>
</svg>
