<svg width="256" height="256" viewBox="0 0 256 256" fill="none" xmlns="http://www.w3.org/2000/svg">
<path d="M44.6987 144.698C44.6983 132.089 34.4716 121.855 21.8445 121.854H10.9278C7.90967 121.854 5.03363 120.574 3.01116 118.333C0.989087 116.093 0.00587887 113.106 0.313239 110.104C2.68307 86.973 8.3611 68.7862 21.5112 56.125C32.854 45.206 48.3339 39.7702 67.6049 37.1354C70.9773 16.0807 89.235 1.92286e-06 111.24 0C133.371 0.000664244 151.698 16.268 154.917 37.5C173.43 40.3158 188.332 45.9108 199.261 56.8333C210.188 67.7556 215.776 82.6459 218.594 101.146C239.777 104.408 256.001 122.717 256.001 144.813C255.999 166.778 239.96 184.98 218.959 188.396C216.322 207.696 210.891 223.193 199.938 234.542C187.251 247.686 169.027 253.349 145.844 255.708C142.843 256.014 139.854 255.033 137.615 253.01C135.378 250.989 134.096 248.119 134.094 245.104V234.052C134.094 221.443 123.868 211.209 111.24 211.208C98.6123 211.208 88.3867 221.442 88.3862 234.052V245.333C88.3862 248.329 87.1181 251.188 84.907 253.208C82.6971 255.227 79.742 256.226 76.7612 255.958C52.7297 253.793 33.8678 248.341 20.7507 235.208C7.63575 222.076 2.19777 203.2 0.0424057 179.156C-0.224046 176.176 0.773793 173.22 2.79241 171.01C4.81315 168.8 7.67283 167.542 10.6674 167.542H21.8445C34.4718 167.54 44.6987 157.307 44.6987 144.698ZM66.032 144.698C66.032 168.81 46.7099 188.382 22.7091 188.844C25.2016 204.315 29.5582 213.829 35.8445 220.125C42.1263 226.415 51.6236 230.77 67.0632 233.271C67.4808 209.23 87.1007 189.875 111.24 189.875C135.236 189.876 154.755 209.002 155.397 232.844C169.745 230.229 178.648 225.89 184.594 219.729C192.075 211.979 196.748 199.457 198.74 177.365L198.886 176.344C199.821 171.353 204.192 167.647 209.365 167.646H211.813C224.439 167.644 234.666 157.42 234.667 144.813C234.667 132.203 224.44 121.97 211.813 121.969H209.136C203.665 121.969 199.077 117.828 198.522 112.385C196.375 91.3167 191.622 79.3558 184.178 71.9167C176.733 64.4771 164.76 59.7284 143.678 57.5833C138.235 57.027 134.094 52.44 134.094 46.9688V44.1771C134.094 31.5674 123.868 21.3341 111.24 21.3333C98.6119 21.3333 88.3862 31.567 88.3862 44.1771V46.7396C88.3852 52.2588 84.1646 56.8692 78.6674 57.3646C56.5896 59.3547 44.0687 64.0252 36.3132 71.4896C30.1582 77.4147 25.7881 86.2731 23.1674 100.552C46.9553 101.253 66.0317 120.74 66.032 144.698Z" fill="black"/>
</svg>
