<svg width="256" height="256" viewBox="0 0 256 256" fill="none" xmlns="http://www.w3.org/2000/svg">
<path d="M128 192C133.891 192 138.667 196.776 138.667 202.667C138.667 208.558 133.891 213.333 128 213.333C122.109 213.333 117.333 208.558 117.333 202.667C117.333 196.776 122.109 192 128 192Z" fill="black"/>
<path d="M117.594 43.6875C127.357 41.7455 137.475 42.5769 146.792 46.0833C156.106 49.5899 164.253 55.6353 170.313 63.5313C176.372 71.4282 180.097 80.865 181.073 90.7708C182.049 100.677 180.236 110.666 175.833 119.594C171.431 128.519 164.618 136.036 156.167 141.292C150.77 144.647 144.838 146.98 138.667 148.24V160C138.667 165.891 133.891 170.667 128 170.667C122.109 170.667 117.333 165.891 117.333 160V138.667C117.333 132.776 122.109 128 128 128C133.972 128 139.824 126.33 144.896 123.177C149.967 120.024 154.056 115.512 156.698 110.156C159.339 104.8 160.429 98.8082 159.844 92.8646C159.258 86.9207 157.021 81.2593 153.385 76.5208C149.749 71.7825 144.861 68.1559 139.271 66.0521C133.682 63.9488 127.617 63.4502 121.76 64.6146C115.903 65.7798 110.484 68.563 106.125 72.6458C101.766 76.7286 98.6395 81.9499 97.0938 87.7188C95.5694 93.4075 89.7201 96.7821 84.0313 95.2604C78.3418 93.7359 74.9562 87.8874 76.4792 82.1979C79.0556 72.5826 84.2763 63.8777 91.5417 57.0729C98.8068 50.2685 107.831 45.6296 117.594 43.6875Z" fill="black"/>
<path fill-rule="evenodd" clip-rule="evenodd" d="M128 0C198.692 0 256 57.3076 256 128C256 198.692 198.692 256 128 256C57.3076 256 0 198.692 0 128C0 57.3076 57.3076 0 128 0ZM128 21.3333C69.0896 21.3333 21.3333 69.0896 21.3333 128C21.3333 186.91 69.0896 234.667 128 234.667C186.91 234.667 234.667 186.91 234.667 128C234.667 69.0896 186.91 21.3333 128 21.3333Z" fill="black"/>
</svg>
