<svg width="256" height="256" viewBox="0 0 256 256" fill="none" xmlns="http://www.w3.org/2000/svg">
<path d="M128.002 192.012C133.892 192.014 138.668 196.789 138.668 202.679C138.666 208.567 133.89 213.344 128.002 213.346C122.112 213.346 117.338 208.568 117.335 202.679C117.335 196.788 122.111 192.012 128.002 192.012Z" fill="black"/>
<path d="M117.596 43.6997C127.358 41.7581 137.478 42.5893 146.793 46.0955C156.106 49.6023 164.256 55.6486 170.314 63.5435C176.372 71.4394 180.099 80.8791 181.075 90.783C182.049 100.688 180.237 110.68 175.835 119.606C171.433 128.53 164.619 136.049 156.168 141.304C150.773 144.659 144.839 146.982 138.668 148.241V160.012C138.666 165.9 133.89 170.677 128.002 170.679C122.112 170.679 117.338 165.901 117.335 160.012V138.679C117.335 132.788 122.111 128.012 128.002 128.012L130.231 127.929C135.421 127.566 140.46 125.948 144.898 123.189C149.968 120.037 154.058 115.522 156.7 110.168C159.34 104.814 160.43 98.8187 159.846 92.8768C159.26 86.9347 157.021 81.2706 153.387 76.533C149.752 71.7958 144.861 68.1684 139.273 66.0643C133.684 63.9612 127.618 63.4629 121.762 64.6268C115.904 65.792 110.486 68.5752 106.127 72.658C101.768 76.7407 98.6412 81.9626 97.0955 87.7309C95.5698 93.416 89.7194 96.7915 84.033 95.2726C78.345 93.7485 74.9607 87.8983 76.4809 82.2101C79.0572 72.5953 84.2786 63.8898 91.5434 57.0851C98.8086 50.2807 107.833 45.6418 117.596 43.6997Z" fill="black"/>
</svg>
