<svg width="256" height="256" viewBox="0 0 256 256" fill="none" xmlns="http://www.w3.org/2000/svg">
<path fill-rule="evenodd" clip-rule="evenodd" d="M85.3333 117.333C108.897 117.333 128 136.436 128 160C128 183.564 108.897 202.667 85.3333 202.667C61.7692 202.667 42.6667 183.564 42.6667 160C42.6667 136.436 61.7692 117.333 85.3333 117.333ZM85.3333 138.667C73.5513 138.667 64 148.218 64 160C64 171.782 73.5513 181.333 85.3333 181.333C97.1154 181.333 106.667 171.782 106.667 160C106.667 148.218 97.1154 138.667 85.3333 138.667Z" fill="black"/>
<path d="M158.25 117.479C164.06 116.513 169.553 120.44 170.521 126.25C174.245 148.596 174.245 171.404 170.521 193.75C169.553 199.56 164.06 203.487 158.25 202.521C152.44 201.553 148.513 196.06 149.479 190.25C152.817 170.224 152.817 149.776 149.479 129.75C148.513 123.94 152.44 118.447 158.25 117.479Z" fill="black"/>
<path d="M200.917 117.479C206.726 116.513 212.219 120.44 213.188 126.25C216.911 148.596 216.911 171.404 213.188 193.75C212.219 199.56 206.726 203.487 200.917 202.521C195.107 201.553 191.179 196.06 192.146 190.25C195.484 170.224 195.484 149.776 192.146 129.75C191.179 123.94 195.107 118.447 200.917 117.479Z" fill="black"/>
<path fill-rule="evenodd" clip-rule="evenodd" d="M42.6667 0C48.5577 0 53.3333 4.77563 53.3333 10.6667V69.6354C53.2149 69.6623 53.0971 69.6916 52.9792 69.7188C71.3866 65.4831 95.8029 64 128 64C234.667 64 256 80 256 160C256 240 234.667 256 128 256C21.3333 256 0 240 0 160C0 114.176 7.00381 89.3584 33.0313 76.5104C32.6854 76.681 32.3391 76.8459 32 77.0208V10.6667C32 4.77563 36.7756 0 42.6667 0ZM128 85.3333C101.642 85.3333 81.6809 86.3416 66.4063 88.8125C51.0925 91.2898 42.2508 94.9772 36.8021 99.0625C27.2973 106.191 21.3333 119.839 21.3333 160C21.3333 200.161 27.2973 213.809 36.8021 220.938C42.2508 225.023 51.0925 228.71 66.4063 231.188C81.6809 233.658 101.642 234.667 128 234.667C154.358 234.667 174.319 233.658 189.594 231.188C204.907 228.71 213.749 225.023 219.198 220.938C228.703 213.809 234.667 200.161 234.667 160C234.667 119.839 228.703 106.191 219.198 99.0625C213.749 94.9772 204.907 91.2898 189.594 88.8125C174.319 86.3416 154.358 85.3333 128 85.3333Z" fill="black"/>
</svg>
