<svg width="256" height="256" viewBox="0 0 256 256" fill="none" xmlns="http://www.w3.org/2000/svg">
<path d="M77.7917 67.125C81.9573 62.9594 88.7094 62.9594 92.875 67.125C97.0406 71.2906 97.0406 78.0427 92.875 82.2083C82.167 92.9163 73.7492 105.69 68.125 119.75L64.8333 128L68.125 136.25C73.7492 150.31 82.167 163.084 92.875 173.792C97.0406 177.957 97.0406 184.709 92.875 188.875C88.7094 193.041 81.9573 193.041 77.7917 188.875C65.0412 176.125 55.0097 160.919 48.3125 144.177L43.4271 131.958C42.4118 129.417 42.4118 126.583 43.4271 124.042L48.3125 111.823C55.0097 95.0809 65.0412 79.8755 77.7917 67.125Z" fill="black"/>
<path d="M143.677 65.625C148.671 62.5035 155.252 64.0178 158.375 69.0104C161.496 74.0048 159.982 80.5851 154.99 83.7083C141.711 92.0076 130.825 103.528 123.292 117.115C132.315 116.906 140.521 116.611 148.521 116.5C160.522 116.333 171.769 116.61 181.25 118.979C191.183 121.462 199.919 126.442 205.75 135.917C211.263 144.878 213.333 156.551 213.333 170.677C213.328 176.564 208.555 181.344 202.667 181.344C196.777 181.344 192.002 176.556 192 170.667C191.999 158.131 190.068 151.121 187.583 147.083C185.414 143.562 182.146 141.193 176.083 139.677C169.566 138.048 160.807 137.656 148.813 137.823C141.466 137.925 132.662 138.233 123.052 138.448C130.593 152.225 141.569 163.904 154.99 172.292C159.982 175.415 161.496 181.995 158.375 186.99C155.252 191.982 148.671 193.496 143.677 190.375C123.277 177.624 107.466 158.711 98.5313 136.375L96.7604 131.958C96.7151 131.845 96.6767 131.729 96.6354 131.615C96.4594 131.126 96.3121 130.623 96.2083 130.104C95.8636 128.39 95.9416 126.611 96.4479 124.927C96.5612 124.55 96.6912 124.181 96.8438 123.823L98.5313 119.625C107.466 97.2887 123.277 78.3761 143.677 65.625Z" fill="black"/>
<path fill-rule="evenodd" clip-rule="evenodd" d="M128 0C234.667 0 256 21.3333 256 128C256 234.667 234.667 256 128 256C21.3333 256 0 234.667 0 128C0 21.3333 21.3333 0 128 0ZM128 21.3333C101.757 21.3333 82.2421 22.6747 67.5 25.8542C52.9976 28.9821 44.5872 33.5795 39.0833 39.0833C33.5795 44.5872 28.9821 52.9976 25.8542 67.5C22.6747 82.2421 21.3333 101.757 21.3333 128C21.3333 154.243 22.6747 173.758 25.8542 188.5C28.9821 203.002 33.5795 211.413 39.0833 216.917C44.5872 222.421 52.9976 227.018 67.5 230.146C82.2421 233.325 101.757 234.667 128 234.667C154.243 234.667 173.758 233.325 188.5 230.146C203.002 227.018 211.413 222.421 216.917 216.917C222.421 211.413 227.018 203.002 230.146 188.5C233.325 173.758 234.667 154.243 234.667 128C234.667 101.757 233.325 82.2421 230.146 67.5C227.018 52.9976 222.421 44.5872 216.917 39.0833C211.413 33.5795 203.002 28.9821 188.5 25.8542C173.758 22.6747 154.243 21.3333 128 21.3333Z" fill="black"/>
</svg>
