<svg width="256" height="256" viewBox="0 0 256 256" fill="none" xmlns="http://www.w3.org/2000/svg">
<path d="M101.01 65.625C106.005 62.5035 112.585 64.0178 115.708 69.0104C118.83 74.0048 117.316 80.5851 112.323 83.7083C98.9922 92.04 88.0673 103.614 80.5313 117.271C96.9297 117.126 111.479 116.457 124.792 116.094C139.299 115.698 152.626 115.699 163.771 117.74C175.127 119.82 185.576 124.257 192.844 133.792C199.932 143.093 202.667 155.531 202.667 170.667C202.667 176.558 197.891 181.333 192 181.333C186.109 181.333 181.333 176.558 181.333 170.667C181.333 157.662 178.905 150.693 175.875 146.719C173.024 142.98 168.396 140.27 159.927 138.719C151.244 137.129 139.983 137.018 125.365 137.417C112.566 137.766 97.3428 138.459 80.4688 138.604C88.007 152.314 98.9524 163.935 112.323 172.292C117.316 175.415 118.83 181.995 115.708 186.99C112.585 191.982 106.005 193.496 101.01 190.375C80.6104 177.624 64.7998 158.711 55.8646 136.375L54.0938 131.958C53.0784 129.417 53.0784 126.583 54.0938 124.042L55.8646 119.625C64.7998 97.2887 80.6104 78.3761 101.01 65.625Z" fill="black"/>
<path fill-rule="evenodd" clip-rule="evenodd" d="M128 0C234.667 0 256 21.3333 256 128C256 234.667 234.667 256 128 256C21.3333 256 0 234.667 0 128C0 21.3333 21.3333 0 128 0ZM128 21.3333C101.757 21.3333 82.2421 22.6747 67.5 25.8542C52.9976 28.9821 44.5872 33.5795 39.0833 39.0833C33.5795 44.5872 28.9821 52.9976 25.8542 67.5C22.6747 82.2421 21.3333 101.757 21.3333 128C21.3333 154.243 22.6747 173.758 25.8542 188.5C28.9821 203.002 33.5795 211.413 39.0833 216.917C44.5872 222.421 52.9976 227.018 67.5 230.146C82.2421 233.325 101.757 234.667 128 234.667C154.243 234.667 173.758 233.325 188.5 230.146C203.002 227.018 211.413 222.421 216.917 216.917C222.421 211.413 227.018 203.002 230.146 188.5C233.325 173.758 234.667 154.243 234.667 128C234.667 101.757 233.325 82.2421 230.146 67.5C227.018 52.9976 222.421 44.5872 216.917 39.0833C211.413 33.5795 203.002 28.9821 188.5 25.8542C173.758 22.6747 154.243 21.3333 128 21.3333Z" fill="black"/>
</svg>
