<svg width="256" height="256" viewBox="0 0 256 256" fill="none" xmlns="http://www.w3.org/2000/svg">
<path d="M202.667 181.333C208.558 181.333 213.333 186.108 213.333 191.999C213.333 197.89 208.558 202.666 202.667 202.666C196.776 202.666 192 197.89 192 191.999C192 186.108 196.776 181.333 202.667 181.333Z" fill="black"/>
<path d="M202.667 138.666C208.558 138.666 213.333 143.441 213.333 149.333C213.333 155.224 208.558 159.999 202.667 159.999C196.776 159.999 192 155.224 192 149.333C192 143.441 196.776 138.666 202.667 138.666Z" fill="black"/>
<path d="M202.667 95.9992C208.558 95.9992 213.333 100.775 213.333 106.666C213.333 112.557 208.558 117.333 202.667 117.333C196.776 117.333 192 112.557 192 106.666C192 100.775 196.776 95.9992 202.667 95.9992Z" fill="black"/>
<path fill-rule="evenodd" clip-rule="evenodd" d="M152.458 3.12419C156.624 -1.0414 163.376 -1.0414 167.542 3.12419C171.707 7.28979 171.707 14.0419 167.542 18.2075L142.938 42.8013C236.687 44.563 256 64.7585 256 149.333C256 238.221 234.667 255.999 128 255.999C21.3333 255.999 0 238.221 0 149.333C0 64.7616 19.3111 44.5643 113.052 42.8013L88.4583 18.2075C84.2927 14.0419 84.2927 7.28979 88.4583 3.12419C92.6239 -1.0414 99.3761 -1.0414 103.542 3.12419L128 27.5825L152.458 3.12419ZM128 63.9992C101.679 63.9992 81.8646 65.1196 66.7708 67.8325C51.724 70.5374 43.0722 74.5384 37.6563 79.0513C27.4095 87.5902 21.3333 104.308 21.3333 149.333C21.3333 194.358 27.4095 211.075 37.6563 219.614C43.0722 224.127 51.724 228.128 66.7708 230.833C81.8646 233.545 101.679 234.666 128 234.666C136.066 234.666 143.521 234.536 150.417 234.312C156.038 177.794 156.038 120.86 150.417 64.3429C143.521 64.1189 136.066 63.9992 128 63.9992ZM171.979 65.6034C177.302 121.293 177.302 177.361 171.979 233.051C178.33 232.477 184.058 231.762 189.229 230.833C204.276 228.128 212.928 224.127 218.344 219.614C228.59 211.075 234.667 194.358 234.667 149.333C234.667 104.308 228.59 87.5902 218.344 79.0513C212.928 74.5384 204.276 70.5374 189.229 67.8325C184.058 66.903 178.331 66.178 171.979 65.6034Z" fill="black"/>
</svg>
