<svg width="256" height="256" viewBox="0 0 256 256" fill="none" xmlns="http://www.w3.org/2000/svg">
<path fill-rule="evenodd" clip-rule="evenodd" d="M128.001 64C145.674 64.0001 160.001 78.3269 160.001 96C160.001 113.673 145.674 128 128.001 128C110.328 128 96.0008 113.673 96.0008 96C96.0008 78.3269 110.328 64 128.001 64ZM128.001 85.3333C122.11 85.3333 117.334 90.109 117.334 96C117.334 101.891 122.11 106.667 128.001 106.667C133.892 106.667 138.668 101.891 138.668 96C138.668 90.109 133.892 85.3334 128.001 85.3333Z" fill="black"/>
<path fill-rule="evenodd" clip-rule="evenodd" d="M128.001 0C157.761 0 205.938 18.4535 212.543 106.833C218.419 109.255 224.226 111.865 229.938 114.677L236.053 117.688C241.886 120.56 246.011 126.039 247.168 132.438C253.015 164.824 253.623 197.941 248.97 230.521L247.428 241.354L247.157 242.667C245.543 248.613 239.142 251.963 233.334 249.906L232.095 249.385L207.501 237.083C204.116 235.391 200.769 233.623 197.449 231.813C185.022 250.627 163.672 256 128.001 256C92.4453 256 71.1119 250.667 58.6675 232L58.5425 231.813C55.224 233.622 51.8833 235.392 48.5008 237.083L23.9071 249.385L22.6675 249.906C16.859 251.965 10.4585 248.614 8.84458 242.667L8.57375 241.354L7.03208 230.521C2.37834 197.941 2.98687 164.825 8.83417 132.438C9.99022 126.038 14.1144 120.56 19.9488 117.688L26.0633 114.677C31.774 111.866 37.5744 109.254 43.4488 106.833C50.0527 18.4529 98.2409 2.83804e-05 128.001 0ZM128.001 21.3333C116.538 21.3333 101.406 25.1277 88.9696 38.5208C76.4749 51.9774 64.0008 78.0351 64.0008 128C64.0008 154.395 64.8926 174.51 67.1154 189.969C69.3549 205.541 72.7202 214.621 76.4175 220.167C82.2593 228.929 92.8924 234.667 128.001 234.667C163.109 234.667 173.742 228.929 179.584 220.167C183.282 214.621 186.647 205.541 188.886 189.969C191.109 174.51 192.001 154.395 192.001 128C192.001 78.0351 179.527 51.9774 167.032 38.5208C154.596 25.1277 139.464 21.3333 128.001 21.3333ZM42.6675 130.417C40.2603 131.514 37.8661 132.643 35.4904 133.813L29.7508 136.635C24.6059 165.371 23.9026 194.717 27.6363 223.656L38.9592 218C42.6743 216.142 46.3376 214.187 49.9696 212.177C50.0286 212.384 50.0972 212.587 50.1571 212.792C44.5278 193.535 42.6675 166.262 42.6675 128V130.417ZM213.293 137.75C212.991 170.569 211.029 194.648 206.022 212.177L211.501 215.146C213.336 216.117 215.184 217.071 217.043 218L228.365 223.656C232.099 194.718 231.396 165.371 226.251 136.635L220.511 133.813C218.132 132.641 215.735 131.505 213.324 130.406L213.293 137.75ZM213.334 128L213.251 122.427C213.249 122.351 213.243 122.274 213.24 122.198C213.276 124.104 213.334 126.037 213.334 128Z" fill="black"/>
</svg>
