<svg width="256" height="256" viewBox="0 0 256 256" fill="none" xmlns="http://www.w3.org/2000/svg">
<path fill-rule="evenodd" clip-rule="evenodd" d="M135.927 149.385C173.52 150.069 181.333 156.325 181.333 181.322L181.219 186.072C180.08 208.634 169.669 213.322 128 213.322L120.073 213.26C82.4786 212.576 74.6667 206.321 74.6667 181.322C74.6671 154.657 83.5567 149.322 128 149.322L135.927 149.385ZM128 170.656C117.134 170.656 109.347 170.992 103.656 171.729C99.8118 172.226 97.6619 172.827 96.5729 173.218C96.304 174.492 96.0001 176.939 96 181.322C96 185.693 96.3046 188.138 96.5729 189.416C97.6606 189.807 99.8073 190.418 103.656 190.916C109.347 191.652 117.133 191.989 128 191.989C138.867 191.989 146.653 191.652 152.344 190.916C156.182 190.419 158.326 189.807 159.417 189.416C159.685 188.139 160 185.696 160 181.322C160 176.936 159.686 174.492 159.417 173.218C158.325 172.827 156.177 172.225 152.344 171.729C146.653 170.992 138.866 170.656 128 170.656Z" fill="black"/>
<path fill-rule="evenodd" clip-rule="evenodd" d="M237.792 35.1139C241.957 30.9497 248.71 30.9497 252.875 35.1139C257.04 39.2792 257.04 46.0316 252.875 50.1973L193.438 109.624C244.069 116.093 256 134.791 256 181.322L255.938 187.01C254.586 244.31 231.334 255.989 128 255.989L118.25 255.947C23.1891 255.184 1.37082 242.462 0.0625 187.01L0 181.322C0.000351232 134.794 11.9297 116.094 62.5521 109.624L3.125 50.1973C-1.03955 46.0316 -1.04025 39.2792 3.125 35.1139C7.29033 30.9497 14.043 30.9497 18.2083 35.1139L90.4688 107.374C101.622 106.868 114.085 106.656 128 106.656C141.911 106.656 154.371 106.868 165.521 107.374L237.792 35.1139ZM128 127.989C101.572 127.989 81.3112 128.771 65.6667 130.739C49.8502 132.729 40.4718 135.745 34.75 139.083C29.8443 141.944 27.025 145.355 25.0104 150.801C22.6646 157.146 21.3335 166.574 21.3333 181.322C21.3333 196.071 22.6649 205.498 25.0104 211.843C27.0249 217.29 29.8443 220.7 34.75 223.562C40.4717 226.899 49.8495 229.916 65.6667 231.906C81.3112 233.874 101.572 234.656 128 234.656C154.428 234.656 174.689 233.874 190.333 231.906C206.151 229.916 215.528 226.899 221.25 223.562C226.156 220.7 228.975 217.29 230.99 211.843C233.335 205.498 234.667 196.071 234.667 181.322C234.667 166.574 233.335 157.146 230.99 150.801C228.975 145.355 226.156 141.944 221.25 139.083C215.528 135.745 206.15 132.729 190.333 130.739C174.689 128.771 154.428 127.989 128 127.989Z" fill="black"/>
<path d="M80.5625 65.1139C110.424 50.1834 145.576 50.1834 175.438 65.1139C180.706 67.7482 182.842 74.1576 180.208 79.4264C177.574 84.6955 171.165 86.8318 165.896 84.1973C142.04 72.2697 113.96 72.2696 90.1042 84.1973C84.8351 86.8318 78.4262 84.6955 75.7917 79.4264C73.1584 74.1576 75.294 67.7482 80.5625 65.1139Z" fill="black"/>
<path d="M60.625 21.8743C104.357 7.29709 151.643 7.2971 195.375 21.8743C200.961 23.7383 203.976 29.7768 202.115 35.3639C200.25 40.9507 194.213 43.9661 188.625 42.1035C149.274 28.9873 106.726 28.9873 67.375 42.1035C61.7873 43.9661 55.7495 40.9507 53.8854 35.3639C52.0241 29.7768 55.0389 23.7383 60.625 21.8743Z" fill="black"/>
</svg>
