<svg width="256" height="256" viewBox="0 0 256 256" fill="none" xmlns="http://www.w3.org/2000/svg">
<path d="M90.6667 224.001C99.5032 224.001 106.667 231.165 106.667 240.001C106.667 248.838 99.5032 256.001 90.6667 256.001C81.8301 256.001 74.6667 248.838 74.6667 240.001C74.6667 231.165 81.8301 224.001 90.6667 224.001Z" fill="black"/>
<path d="M176 224.001C184.837 224.001 192 231.165 192 240.001C192 248.838 184.837 256.001 176 256.001C167.163 256.001 160 248.838 160 240.001C160 231.165 167.163 224.001 176 224.001Z" fill="black"/>
<path d="M106.667 88.0013C111.085 88.0013 114.667 91.583 114.667 96.0013V128.001C114.667 132.42 111.085 136.001 106.667 136.001C102.248 136.001 98.6667 132.42 98.6667 128.001V96.0013C98.6667 91.583 102.248 88.0013 106.667 88.0013Z" fill="black"/>
<path d="M149.333 88.0013C153.752 88.0013 157.333 91.583 157.333 96.0013V128.001C157.333 132.42 153.752 136.001 149.333 136.001C144.915 136.001 141.333 132.42 141.333 128.001V96.0013C141.333 91.583 144.915 88.0013 149.333 88.0013Z" fill="black"/>
<path d="M192 88.0013C196.418 88.0013 200 91.583 200 96.0013V128.001C200 132.42 196.418 136.001 192 136.001C187.582 136.001 184 132.42 184 128.001V96.0013C184 91.583 187.582 88.0013 192 88.0013Z" fill="black"/>
<path fill-rule="evenodd" clip-rule="evenodd" d="M8 2.66797C30.312 2.66797 49.2387 17.0958 56 37.1263C69.3343 25.4517 96.004 21.3346 149.333 21.3346L159.021 21.3867C255.999 22.4104 256 39.7073 256 98.2617C256 158.706 232.296 202.668 149.333 202.668L141.729 202.543C64.9122 199.908 42.6667 156.818 42.6667 98.2617V53.3346C42.6667 34.1888 27.1459 18.668 8 18.668C3.58172 18.668 0 15.0862 0 10.668C0 6.24969 3.58172 2.66797 8 2.66797ZM149.333 37.3346C122.884 37.3346 103.945 38.3687 90.2813 40.6367C76.4913 42.9262 69.9382 46.1939 66.5417 49.168C63.6177 51.7286 61.4232 55.4782 60.1146 63.3659C58.7125 71.8198 58.6667 82.6777 58.6667 98.2617C58.6667 126.851 64.3507 148.286 76.9063 162.574C89.1003 176.451 110.549 186.668 149.333 186.668C188.117 186.668 209.566 176.451 221.76 162.574C234.316 148.286 240 126.851 240 98.2617C240 82.6777 239.954 71.8198 238.552 63.3659C237.243 55.4782 235.049 51.7286 232.125 49.168C228.729 46.1939 222.175 42.9262 208.385 40.6367C194.722 38.3687 175.783 37.3346 149.333 37.3346Z" fill="black"/>
</svg>
