<svg width="256" height="256" viewBox="0 0 256 256" fill="none" xmlns="http://www.w3.org/2000/svg">
<path fill-rule="evenodd" clip-rule="evenodd" d="M42.9203 29.6877C44.1997 23.9397 49.9007 20.3072 55.6495 21.5835C61.3965 22.8624 65.0277 28.5649 63.7537 34.3127C58.4607 58.1309 55.2104 82.2891 54.0037 106.521C94.1721 78.2143 137.526 54.6725 183.191 36.4064L189.962 33.6981L191.358 33.2293C197.912 31.4376 204.779 35.156 206.858 41.6252L207.222 43.0522C218.437 99.1274 218.437 156.873 207.222 212.948C205.656 220.775 197.373 225.265 189.962 222.302L183.191 219.594C137.523 201.327 94.1743 177.778 54.0037 149.469C55.2098 173.706 58.4598 197.865 63.7537 221.688C65.0299 227.436 61.397 233.137 55.6495 234.417C49.8995 235.693 44.1981 232.063 42.9203 226.313C28.5319 161.562 28.5316 94.4384 42.9203 29.6877ZM188.212 57.4064C143.008 75.7584 100.171 99.4557 60.6287 128C100.17 156.545 143.008 180.231 188.212 198.583C196.337 151.877 196.339 104.113 188.212 57.4064Z" fill="black"/>
</svg>
