<svg width="256" height="256" viewBox="0 0 256 256" fill="none" xmlns="http://www.w3.org/2000/svg">
<path fill-rule="evenodd" clip-rule="evenodd" d="M78.3854 64.0521C84.2461 64.6387 88.5227 69.8684 87.9375 75.7292C86.7085 88.0193 85.9224 100.344 85.5625 112.677C111.461 94.1968 139.491 78.8662 169.052 67.0417L173.281 65.3542C179.799 62.7474 187.032 66.2815 189.125 72.7813L189.479 74.125C196.592 109.689 196.592 146.311 189.479 181.875C188.01 189.22 180.236 193.428 173.281 190.646L169.052 188.958C139.49 177.133 111.463 161.794 85.5625 143.313C85.9222 155.649 86.7082 167.977 87.9375 180.271C88.523 186.132 84.2464 191.361 78.3854 191.948C72.526 192.532 67.296 188.255 66.7083 182.396C63.0914 146.225 63.0911 109.775 66.7083 73.6042C67.2957 67.745 72.526 63.4681 78.3854 64.0521ZM170.531 89.5C146.002 99.8412 122.637 112.747 100.833 128C122.636 143.252 146.004 156.149 170.531 166.49C174.452 140.976 174.453 115.013 170.531 89.5Z" fill="black"/>
<path fill-rule="evenodd" clip-rule="evenodd" d="M128 0C234.667 0 256 21.3333 256 128C256 234.667 234.667 256 128 256C21.3333 256 0 234.667 0 128C0 21.3333 21.3333 0 128 0ZM128 21.3333C101.757 21.3333 82.2421 22.6747 67.5 25.8542C52.9976 28.9821 44.5872 33.5795 39.0833 39.0833C33.5795 44.5872 28.9821 52.9976 25.8542 67.5C22.6747 82.2421 21.3333 101.757 21.3333 128C21.3333 154.243 22.6747 173.758 25.8542 188.5C28.9821 203.002 33.5795 211.413 39.0833 216.917C44.5872 222.421 52.9976 227.018 67.5 230.146C82.2421 233.325 101.757 234.667 128 234.667C154.243 234.667 173.758 233.325 188.5 230.146C203.002 227.018 211.413 222.421 216.917 216.917C222.421 211.413 227.018 203.002 230.146 188.5C233.325 173.758 234.667 154.243 234.667 128C234.667 101.757 233.325 82.2421 230.146 67.5C227.018 52.9976 222.421 44.5872 216.917 39.0833C211.413 33.5795 203.002 28.9821 188.5 25.8542C173.758 22.6747 154.243 21.3333 128 21.3333Z" fill="black"/>
</svg>
