<svg width="256" height="256" viewBox="0 0 256 256" fill="none" xmlns="http://www.w3.org/2000/svg">
<path fill-rule="evenodd" clip-rule="evenodd" d="M189.691 21.5829C195.44 20.3086 201.142 23.9391 202.42 29.6871C216.809 94.4375 216.809 161.562 202.42 226.312C201.143 232.061 195.44 235.691 189.691 234.416C183.941 233.138 180.311 227.437 181.587 221.687C186.881 197.865 190.11 173.704 191.316 149.468C151.149 177.774 107.813 201.328 62.1496 219.593L55.3787 222.302C47.967 225.266 39.6844 220.775 38.1183 212.948C26.9034 156.872 26.9032 99.1274 38.1183 43.0517L38.4829 41.6246C40.5628 35.1549 47.4277 31.4343 53.9829 33.2288L55.3787 33.6975L62.1496 36.4058C107.811 54.6704 151.151 78.2169 191.316 106.52C190.109 82.2886 186.88 58.1303 181.587 34.3121C180.312 28.5626 183.942 22.8606 189.691 21.5829ZM57.1287 57.4058C49.0019 104.113 49.0033 151.876 57.1287 198.583C102.332 180.231 145.171 156.544 184.712 128C145.17 99.4542 102.334 75.7583 57.1287 57.4058Z" fill="black"/>
</svg>
