<svg width="256" height="256" viewBox="0 0 256 256" fill="none" xmlns="http://www.w3.org/2000/svg">
<path d="M171.219 156.615C173.086 151.034 179.124 148.024 184.708 149.885C190.295 151.75 193.31 157.787 191.448 163.375L181.333 160C191.453 163.373 191.45 163.369 191.448 163.375V163.396L191.417 163.49C191.4 163.537 191.376 163.594 191.354 163.656C191.309 163.782 191.247 163.94 191.177 164.125C191.037 164.497 190.845 164.987 190.594 165.573C190.091 166.746 189.35 168.328 188.323 170.177C186.274 173.866 183.04 178.71 178.208 183.542C168.343 193.407 152.347 202.667 128 202.667C103.653 202.667 87.6574 193.407 77.7917 183.542C72.9604 178.71 69.7264 173.866 67.6771 170.177C66.6498 168.328 65.909 166.746 65.4063 165.573C65.155 164.987 64.9633 164.497 64.8229 164.125C64.7529 163.94 64.6906 163.782 64.6458 163.656C64.6237 163.594 64.5995 163.537 64.5833 163.49L64.5521 163.396C64.55 163.39 64.5474 163.373 74.6667 160L64.5521 163.375C62.6895 157.787 65.7049 151.75 71.2917 149.885C76.8762 148.024 82.9135 151.034 84.7813 156.615C84.8208 156.718 84.8965 156.911 85.0104 157.177C85.2577 157.754 85.6849 158.675 86.3229 159.823C87.607 162.134 89.7071 165.29 92.875 168.458C99.0093 174.593 109.681 181.333 128 181.333C146.319 181.333 156.991 174.593 163.125 168.458C166.293 165.29 168.393 162.134 169.677 159.823C170.315 158.675 170.742 157.754 170.99 157.177C171.103 156.911 171.179 156.718 171.219 156.615Z" fill="black"/>
<path d="M80 53.3333C93.3333 53.3333 96 59.5556 96 90.6667L95.9688 96.2083C95.6273 122.531 92.5007 128 80 128L77.625 127.927C67.0951 127.183 64.35 120.778 64.0313 96.2083L64 90.6667C64 59.5556 66.6667 53.3333 80 53.3333Z" fill="black"/>
<path d="M176 53.3333C189.333 53.3333 192 59.5556 192 90.6667L191.969 96.2083C191.627 122.531 188.501 128 176 128L173.625 127.927C163.095 127.183 160.35 120.778 160.031 96.2083L160 90.6667C160 59.5556 162.667 53.3333 176 53.3333Z" fill="black"/>
<path fill-rule="evenodd" clip-rule="evenodd" d="M128 0C234.667 0 256 21.3333 256 128C256 234.667 234.667 256 128 256C21.3333 256 0 234.667 0 128C0 21.3333 21.3333 0 128 0ZM128 21.3333C101.757 21.3333 82.2421 22.6747 67.5 25.8542C52.9976 28.9821 44.5872 33.5795 39.0833 39.0833C33.5795 44.5872 28.9821 52.9976 25.8542 67.5C22.6747 82.2421 21.3333 101.757 21.3333 128C21.3333 154.243 22.6747 173.758 25.8542 188.5C28.9821 203.002 33.5795 211.413 39.0833 216.917C44.5872 222.421 52.9976 227.018 67.5 230.146C82.2421 233.325 101.757 234.667 128 234.667C154.243 234.667 173.758 233.325 188.5 230.146C203.002 227.018 211.413 222.421 216.917 216.917C222.421 211.413 227.018 203.002 230.146 188.5C233.325 173.758 234.667 154.243 234.667 128C234.667 101.757 233.325 82.2421 230.146 67.5C227.018 52.9976 222.421 44.5872 216.917 39.0833C211.413 33.5795 203.002 28.9821 188.5 25.8542C173.758 22.6747 154.243 21.3333 128 21.3333Z" fill="black"/>
</svg>
