<svg width="256" height="256" viewBox="0 0 256 256" fill="none" xmlns="http://www.w3.org/2000/svg">
<path d="M163.125 77.9479C167.291 73.7823 174.043 73.7823 178.208 77.9479C182.374 82.1135 182.374 88.8657 178.208 93.0313L143.083 128.156L178.208 163.281C182.374 167.447 182.374 174.199 178.208 178.365C174.043 182.53 167.291 182.53 163.125 178.365L128 143.24L92.875 178.365C88.7094 182.53 81.9573 182.53 77.7917 178.365C73.6261 174.199 73.6261 167.447 77.7917 163.281L112.917 128.156L77.7917 93.0313C73.6261 88.8657 73.6261 82.1135 77.7917 77.9479C81.9573 73.7823 88.7094 73.7823 92.875 77.9479L128 113.073L163.125 77.9479Z" fill="black"/>
<path fill-rule="evenodd" clip-rule="evenodd" d="M128 0.15625C133.137 0.15625 137.91 2.59648 141.49 6.28125C156.991 22.2351 178.664 32.1563 202.667 32.1563C207.067 32.1563 211.386 31.8148 215.604 31.1667L219.792 30.4167C228.5 28.6287 238.181 30.4689 242.365 38.3125C252.732 57.7523 256 86.4209 256 128.156C256 224.352 151.897 251.146 131.458 255.479L129.729 255.75C128.002 255.934 126.27 255.846 124.542 255.479C104.103 251.146 0 224.352 0 128.156C0 86.4239 3.27143 57.7535 13.6354 38.3125C17.8194 30.4679 27.4987 28.6286 36.2083 30.4167C41.74 31.552 47.4656 32.1563 53.3333 32.1563C75.8335 32.1563 96.2808 23.4326 111.521 9.19792L114.5 6.28125C118.085 2.5941 122.858 0.15625 128 0.15625ZM127.99 22.9167C108.782 41.7723 82.4323 53.4896 53.3333 53.4896C46.0058 53.4896 38.8428 52.7342 31.9167 51.3125C31.6147 51.2505 31.3229 51.2082 31.0521 51.1771C24.4257 65.6673 21.3333 88.938 21.3333 128.156C21.3333 167.049 41.8313 191.936 66.5313 208.583C90.9529 225.043 117.975 232.178 128 234.385C138.025 232.178 165.047 225.043 189.469 208.583C214.169 191.936 234.667 167.049 234.667 128.156C234.667 88.9293 231.558 65.6648 224.927 51.1771C224.662 51.2081 224.379 51.2519 224.083 51.3125C217.159 52.7347 209.995 53.4896 202.667 53.4896C173.566 53.4896 147.201 41.7792 127.99 22.9167Z" fill="black"/>
</svg>
