<svg width="256" height="256" viewBox="0 0 256 256" fill="none" xmlns="http://www.w3.org/2000/svg">
<path d="M217.768 198.226C221.212 194.785 226.793 194.783 230.237 198.226C231.399 199.389 232.302 200.785 232.893 202.32L236.091 210.622C236.319 211.21 236.783 211.677 237.372 211.903L245.674 215.091C247.209 215.682 248.605 216.595 249.768 217.758C253.207 221.201 253.208 226.784 249.768 230.226C248.606 231.388 247.208 232.292 245.674 232.883L237.372 236.081C236.782 236.307 236.318 236.772 236.091 237.362L232.893 245.664C232.302 247.198 231.399 248.595 230.237 249.758C226.794 253.2 221.212 253.198 217.768 249.758C216.605 248.595 215.692 247.199 215.101 245.664L211.914 237.362C211.687 236.771 211.213 236.308 210.622 236.081L202.33 232.883C200.796 232.292 199.4 231.389 198.237 230.226C194.793 226.783 194.793 221.202 198.237 217.758C199.4 216.594 200.795 215.682 202.33 215.091L210.622 211.903C211.212 211.677 211.686 211.211 211.914 210.622L215.101 202.32C215.692 200.785 216.605 199.39 217.768 198.226Z" fill="black"/>
<path fill-rule="evenodd" clip-rule="evenodd" d="M86.9242 25.9764C103.717 9.18486 130.943 9.18627 147.737 25.9764C153.056 31.2955 157.202 37.6746 159.903 44.6952L171.216 74.091L200.622 85.4139C207.643 88.1147 214.021 92.2619 219.341 97.5806C236.134 114.374 236.133 141.6 219.341 158.393C214.021 163.713 207.644 167.858 200.622 170.56L171.216 181.872L159.903 211.278C157.202 218.3 153.056 224.677 147.737 229.997C130.943 246.79 103.718 246.79 86.9242 229.997C81.6055 224.678 77.4584 218.299 74.7575 211.278L63.4346 181.872L34.0388 170.56C27.0179 167.858 20.6394 163.712 15.3201 158.393C-1.47032 141.599 -1.47222 114.373 15.3201 97.5806C20.6398 92.261 27.0173 88.1151 34.0388 85.4139L63.4346 74.091L74.7575 44.6952C77.4589 37.6741 81.6048 31.2959 86.9242 25.9764ZM132.653 41.0597C124.191 32.6008 110.469 32.5994 102.008 41.0597C98.7987 44.2685 96.2936 48.1163 94.6638 52.3514L82.9659 82.7889C81.0496 87.768 77.1116 91.7059 72.1325 93.6222L41.695 105.32C37.4595 106.95 33.6125 109.455 30.4034 112.664C21.9423 121.125 21.9442 134.847 30.4034 143.31C33.612 146.518 37.4602 149.024 41.695 150.653L72.1325 162.351C76.489 164.028 80.0483 167.258 82.1534 171.372L82.9659 173.185L94.6638 203.622C96.2931 207.857 98.7995 211.705 102.008 214.914C110.47 223.376 124.191 223.376 132.653 214.914C135.862 211.705 138.367 207.858 139.997 203.622L151.695 173.185C153.612 168.207 157.55 164.267 162.528 162.351L192.966 150.653C197.202 149.024 201.048 146.519 204.258 143.31C212.719 134.847 212.719 121.126 204.258 112.664C201.049 109.456 197.201 106.949 192.966 105.32L162.528 93.6222C157.551 91.7055 153.611 87.767 151.695 82.7889L139.997 52.3514C138.367 48.1168 135.862 44.2682 132.653 41.0597Z" fill="black"/>
<path d="M217.768 6.2264C221.212 2.78464 226.793 2.78318 230.237 6.2264C231.399 7.38938 232.302 8.78527 232.893 10.3202L236.091 18.6222C236.319 19.2104 236.783 19.677 237.372 19.9035L245.674 23.091C247.209 23.6816 248.605 24.595 249.768 25.7577C253.207 29.2012 253.208 34.7835 249.768 38.2264C248.606 39.3885 247.208 40.292 245.674 40.8827L237.372 44.0806C236.782 44.3075 236.318 44.7724 236.091 45.3618L232.893 53.6639C232.302 55.1982 231.399 56.5951 230.237 57.7577C226.794 61.1996 221.212 61.1975 217.768 57.7577C216.605 56.5948 215.692 55.1988 215.101 53.6639L211.914 45.3618C211.687 44.7714 211.213 44.3077 210.622 44.0806L202.33 40.8827C200.796 40.2922 199.4 39.3891 198.237 38.2264C194.793 34.7827 194.793 29.2017 198.237 25.7577C199.4 24.5945 200.795 23.6816 202.33 23.091L210.622 19.9035C211.212 19.6767 211.686 19.2113 211.914 18.6222L215.101 10.3202C215.692 8.78488 216.605 7.38956 217.768 6.2264Z" fill="black"/>
</svg>
