<svg width="256" height="256" viewBox="0 0 256 256" fill="none" xmlns="http://www.w3.org/2000/svg">
<path d="M186.479 61.3333C188.722 61.3342 190.872 62.2266 192.458 63.8125C200.262 71.6166 206.145 81.134 209.635 91.6042L210.26 93.4688C211.658 97.6603 209.389 102.197 205.198 103.594C201.006 104.991 196.47 102.723 195.073 98.5313L194.458 96.6563C192.844 91.8139 190.548 87.2506 187.688 83.0625C175.293 134.772 134.806 175.406 82.6563 187.677L76.5 189.125C72.1992 190.137 67.887 187.467 66.875 183.167C65.863 178.866 68.5325 174.554 72.8333 173.542L78.9896 172.094C125.632 161.118 161.764 124.563 172.417 78.1458C167.382 78.7374 162.386 79.6536 157.458 80.8854L151.271 82.4271C146.985 83.4971 142.644 80.8897 141.573 76.6042C140.503 72.3186 143.11 67.9776 147.396 66.9063L153.573 65.3646C164.269 62.6906 175.256 61.3335 186.281 61.3333H186.479Z" fill="black"/>
<path fill-rule="evenodd" clip-rule="evenodd" d="M128 0C234.667 0 256 21.3333 256 128C256 234.667 234.667 256 128 256C21.3333 256 0 234.667 0 128C6.78175e-07 21.3333 21.3333 0 128 0ZM128 16C101.652 16 81.6814 17.3344 66.375 20.6354C51.2482 23.8981 41.7737 28.8513 35.3125 35.3125C28.8513 41.7737 23.8981 51.2482 20.6354 66.375C17.3344 81.6814 16 101.652 16 128C16 154.348 17.3344 174.319 20.6354 189.625C23.8981 204.752 28.8513 214.226 35.3125 220.688C41.7737 227.149 51.2482 232.102 66.375 235.365C81.6814 238.666 101.652 240 128 240C154.348 240 174.319 238.666 189.625 235.365C204.752 232.102 214.226 227.149 220.688 220.688C227.149 214.226 232.102 204.752 235.365 189.625C238.666 174.319 240 154.348 240 128C240 101.652 238.666 81.6814 235.365 66.375C232.102 51.2482 227.149 41.7737 220.688 35.3125C214.226 28.8513 204.752 23.8981 189.625 20.6354C174.319 17.3344 154.348 16 128 16Z" fill="black"/>
</svg>
