<svg width="256" height="256" viewBox="0 0 256 256" fill="none" xmlns="http://www.w3.org/2000/svg">
<path fill-rule="evenodd" clip-rule="evenodd" d="M128.002 74.6667C172.445 74.6668 181.335 83.556 181.335 128C181.335 172.443 172.445 181.333 128.002 181.333C83.5579 181.333 74.6688 172.443 74.6686 128C74.6686 83.5556 83.5575 74.6667 128.002 74.6667ZM128.002 96C117.316 96 110.244 96.5637 105.419 97.6042C100.835 98.5928 99.8123 99.6896 99.752 99.75C99.6925 99.8095 98.5952 100.831 97.6061 105.417C96.5657 110.242 96.002 117.314 96.002 128C96.002 138.686 96.5656 145.758 97.6061 150.583C98.5951 155.168 99.6925 156.191 99.752 156.25C99.823 156.322 100.861 157.413 105.419 158.396C110.244 159.436 117.316 160 128.002 160C138.688 160 145.76 159.436 150.585 158.396C155.17 157.407 156.192 156.309 156.252 156.25C156.312 156.19 157.409 155.166 158.398 150.583C159.438 145.758 160.002 138.686 160.002 128C160.002 117.314 159.438 110.242 158.398 105.417C157.415 100.859 156.324 99.8211 156.252 99.75C156.192 99.6905 155.17 98.5932 150.585 97.6042C145.76 96.5636 138.688 96 128.002 96Z" fill="black"/>
<path fill-rule="evenodd" clip-rule="evenodd" d="M137.752 0.0625C235.979 1.4146 256.002 24.6673 256.002 128L255.939 137.75C254.587 235.977 231.334 256 128.002 256L118.252 255.938C23.1914 254.629 1.37294 232.809 0.0644531 137.75L0.00195312 128C0.00195312 21.3343 21.3363 0 128.002 0L137.752 0.0625ZM128.002 21.3333C101.76 21.3333 82.2439 22.6749 67.502 25.8542C52.9997 28.9821 44.5891 33.5795 39.0853 39.0833C33.5815 44.5872 28.9841 52.9977 25.8561 67.5C22.6768 82.2419 21.3353 101.758 21.3353 128C21.3353 154.243 22.6765 173.758 25.8561 188.5C28.9841 203.002 33.5815 211.413 39.0853 216.917C44.5891 222.42 53.0007 227.018 67.502 230.146C82.2438 233.325 101.76 234.667 128.002 234.667C154.245 234.667 173.76 233.325 188.502 230.146C203.004 227.018 211.415 222.421 216.919 216.917C222.422 211.413 227.02 203.002 230.148 188.5C233.327 173.758 234.669 154.243 234.669 128C234.669 101.758 233.327 82.2419 230.148 67.5C227.02 52.9988 222.422 44.5872 216.919 39.0833C211.415 33.5795 203.004 28.9821 188.502 25.8542C173.76 22.6746 154.245 21.3334 128.002 21.3333Z" fill="black"/>
</svg>
