<svg width="256" height="256" viewBox="0 0 256 256" fill="none" xmlns="http://www.w3.org/2000/svg">
<path d="M213.334 127.999C213.334 106.2 212.215 90.2409 209.646 78.332C207.13 66.663 203.532 60.3637 199.584 56.4154C195.636 52.467 189.336 48.8697 177.667 46.3529C165.758 43.7845 149.799 42.6654 128.001 42.6654C106.202 42.6654 90.2428 43.7845 78.334 46.3529C66.6649 48.8697 60.3656 52.467 56.4173 56.4154C52.469 60.3637 48.8717 66.663 46.3548 78.332C43.7865 90.2409 42.6673 106.2 42.6673 127.999C42.6673 149.797 43.7865 165.757 46.3548 177.665C48.8717 189.334 52.469 195.634 56.4173 199.582C60.3656 203.53 66.6649 207.128 78.334 209.645C90.2428 212.213 106.202 213.332 128.001 213.332V234.665L119.876 234.613C40.6582 233.523 22.4763 215.341 21.3861 136.124L21.334 127.999C21.334 39.1098 39.1118 21.332 128.001 21.332L136.126 21.3841C217.983 22.5107 234.667 41.887 234.667 127.999L234.615 136.124C233.489 217.981 214.112 234.665 128.001 234.665V213.332C149.799 213.332 165.758 212.213 177.667 209.645C189.336 207.128 195.636 203.53 199.584 199.582C203.532 195.634 207.13 189.334 209.646 177.665C212.215 165.757 213.334 149.797 213.334 127.999Z" fill="black"/>
</svg>
