<svg width="256" height="256" viewBox="0 0 256 256" fill="none" xmlns="http://www.w3.org/2000/svg">
<path fill-rule="evenodd" clip-rule="evenodd" d="M128.002 53.3333C154.668 53.3335 160.002 58.667 160.002 85.3333C160.002 112 154.668 117.333 128.002 117.333C101.336 117.333 96.0023 112 96.0023 85.3333C96.0023 58.6667 101.336 53.3333 128.002 53.3333ZM128.002 74.6667C123.16 74.6667 119.958 74.8743 117.836 75.1667C117.543 77.2893 117.336 80.4905 117.336 85.3333C117.336 90.1684 117.544 93.3669 117.836 95.4896C119.958 95.7821 123.159 96 128.002 96C132.838 96 136.036 95.7814 138.159 95.4896C138.45 93.3669 138.669 90.1694 138.669 85.3333C138.669 80.4895 138.451 77.2893 138.159 75.1667C136.036 74.875 132.837 74.6667 128.002 74.6667Z" fill="black"/>
<path fill-rule="evenodd" clip-rule="evenodd" d="M128.002 0C138.684 0.00694932 245.336 42.6689 245.336 85.3333L245.544 134.01C245.836 235.583 240 256 128.002 256L116.398 255.948C0.657247 254.863 10.6689 235.165 10.6689 85.3333C10.6689 42.6654 117.336 0 128.002 0ZM126.356 22.25C123.076 23.2913 118.566 24.9226 113.19 27.1042C102.44 31.4664 88.9781 37.7252 75.9189 45.1875C62.6988 52.7419 50.784 61.0214 42.4606 69.2083C33.55 77.9732 32.0023 83.4 32.0023 85.3333C32.0023 124.772 31.341 153.689 32.3148 176.333C33.3058 199.378 35.9585 211.261 39.8564 218.083C42.6739 223.014 47.2315 227.244 60.4606 230.292C74.7794 233.59 95.8111 234.667 128.002 234.667C159.833 234.667 180.629 232.944 194.596 229.042C207.422 225.457 212.606 220.612 215.898 214.521C220.089 206.766 222.706 194.188 223.69 171.813C224.176 160.747 224.254 148.326 224.211 134.073L224.002 85.3333C224.002 83.4003 222.454 77.9725 213.544 69.2083C205.221 61.0216 193.305 52.7417 180.086 45.1875C167.027 37.7257 153.564 31.4665 142.815 27.1042C137.439 24.9226 132.928 23.2914 129.648 22.25C129.028 22.0532 128.471 21.9112 127.992 21.7708C127.517 21.91 126.968 22.0558 126.356 22.25Z" fill="black"/>
</svg>
