<svg width="257" height="256" viewBox="0 0 257 256" fill="none" xmlns="http://www.w3.org/2000/svg">
<path fill-rule="evenodd" clip-rule="evenodd" d="M128.889 0C134.78 2.60216e-07 139.555 4.77563 139.555 10.6667V32.1146C206.908 33.5472 223.331 49.9809 224.764 117.333H246.222C252.113 117.333 256.889 122.109 256.889 128C256.889 133.891 252.113 138.667 246.222 138.667H224.764C223.331 206.019 206.908 222.442 139.555 223.875V245.333C139.555 251.224 134.78 256 128.889 256C122.998 256 118.222 251.224 118.222 245.333V223.875C50.8696 222.442 34.4463 206.019 33.0137 138.667H11.5553C5.6643 138.667 0.888672 133.891 0.888672 128C0.888672 122.109 5.6643 117.333 11.5553 117.333H33.0137C34.4463 49.9809 50.8694 33.5472 118.222 32.1146V10.6667C118.222 4.77563 122.998 -1.08559e-08 128.889 0ZM139.555 74.6667C139.555 80.5577 134.78 85.3333 128.889 85.3333C122.998 85.3333 118.222 80.5577 118.222 74.6667V53.4583C104.016 53.7779 93.1212 54.7748 84.6387 56.6042C74.3863 58.8155 69.1426 61.9128 65.972 65.0833C62.8015 68.2539 59.7041 73.4976 57.4928 83.75C55.6635 92.2325 54.6769 103.127 54.3574 117.333H75.5553C81.4464 117.333 86.222 122.109 86.222 128C86.222 133.891 81.4464 138.667 75.5553 138.667H54.3574C54.6769 152.873 55.6635 163.768 57.4928 172.25C59.7041 182.502 62.8015 187.746 65.972 190.917C69.1426 194.087 74.3863 197.185 84.6387 199.396C93.1212 201.225 104.016 202.212 118.222 202.531V181.333C118.222 175.442 122.998 170.667 128.889 170.667C134.78 170.667 139.555 175.442 139.555 181.333V202.531C153.762 202.212 164.656 201.225 173.139 199.396C183.391 197.185 188.635 194.087 191.805 190.917C194.976 187.746 198.073 182.502 200.285 172.25C202.114 163.768 203.1 152.873 203.42 138.667H182.222C176.331 138.667 171.555 133.891 171.555 128C171.555 122.109 176.331 117.333 182.222 117.333H203.42C203.1 103.127 202.114 92.2325 200.285 83.75C198.073 73.4976 194.976 68.2539 191.805 65.0833C188.635 61.9128 183.391 58.8155 173.139 56.6042C164.656 54.7748 153.762 53.7779 139.555 53.4583V74.6667Z" fill="black"/>
</svg>
