<svg width="256" height="256" viewBox="0 0 256 256" fill="none" xmlns="http://www.w3.org/2000/svg">
<path fill-rule="evenodd" clip-rule="evenodd" d="M152.458 3.12419C156.624 -1.0414 163.376 -1.0414 167.542 3.12419C171.707 7.28979 171.707 14.0419 167.542 18.2075L153.354 32.3846C238.134 35.1865 256 54.7891 256 127.999L255.938 135.312C255.02 185.302 244.012 208.254 204.75 217.864L212.781 241.958C214.644 247.545 211.628 253.583 206.042 255.447C200.454 257.31 194.416 254.294 192.552 248.708L183.49 221.53C168.224 223.297 149.914 223.999 128 223.999L118.25 223.947C100.582 223.765 85.4462 223.04 72.5 221.541L63.4479 248.708C61.5838 254.294 55.546 257.31 49.9583 255.447C44.3716 253.583 41.3562 247.545 43.2188 241.958L51.25 217.853C11.9896 208.244 0.979838 185.301 0.0625 135.312L0 127.999C0 54.7921 17.8646 35.1877 102.635 32.3846L88.4583 18.2075C84.2927 14.0419 84.2927 7.28979 88.4583 3.12419C92.6239 -1.0414 99.3761 -1.0414 103.542 3.12419L127.99 27.5721L152.458 3.12419ZM128 53.3325C101.642 53.3325 81.6809 54.3408 66.4063 56.8117C51.0925 59.289 42.2508 62.9764 36.8021 67.0617C27.2973 74.1903 21.3333 87.838 21.3333 127.999C21.3333 168.16 27.2973 181.808 36.8021 188.937C42.2508 193.022 51.0925 196.709 66.4063 199.187C81.6809 201.658 101.642 202.666 128 202.666C154.358 202.666 174.319 201.658 189.594 199.187C204.907 196.709 213.749 193.022 219.198 188.937C228.703 181.808 234.667 168.16 234.667 127.999C234.667 87.838 228.703 74.1903 219.198 67.0617C213.749 62.9764 204.907 59.289 189.594 56.8117C174.319 54.3408 154.358 53.3325 128 53.3325Z" fill="black"/>
</svg>
