<svg width="256" height="256" viewBox="0 0 256 256" fill="none" xmlns="http://www.w3.org/2000/svg">
<path fill-rule="evenodd" clip-rule="evenodd" d="M128.001 117.333C145.674 117.333 160.001 131.66 160.001 149.333C160.001 167.006 145.674 181.333 128.001 181.333C110.328 181.333 96.0007 167.006 96.0007 149.333C96.0007 131.66 110.328 117.333 128.001 117.333ZM128.001 138.667C122.11 138.667 117.334 143.442 117.334 149.333C117.334 155.224 122.11 160 128.001 160C133.892 160 138.667 155.224 138.667 149.333C138.667 143.442 133.892 138.667 128.001 138.667Z" fill="black"/>
<path fill-rule="evenodd" clip-rule="evenodd" d="M160.001 0C165.892 0 170.667 4.77563 170.667 10.6667C170.667 16.5577 165.892 21.3333 160.001 21.3333H138.667V42.7708C218.329 44.2679 234.667 64.1204 234.667 149.333L234.615 157.458C233.489 239.316 214.112 256 128.001 256L119.876 255.948C40.6582 254.858 22.4763 236.676 21.3861 157.458L21.334 149.333C21.334 64.1204 37.672 44.2679 117.334 42.7708V21.3333H96.0007C90.1096 21.3333 85.334 16.5577 85.334 10.6667C85.334 4.77563 90.1096 0 96.0007 0H160.001ZM128.001 64C106.202 64 90.2428 65.1192 78.334 67.6875C66.6649 70.2044 60.3656 73.8017 56.4173 77.75C52.469 81.6983 48.8717 87.9976 46.3548 99.6667C43.7865 111.575 42.6673 127.535 42.6673 149.333C42.6673 171.132 43.7865 187.091 46.3548 199C48.8717 210.669 52.469 216.968 56.4173 220.917C60.3656 224.865 66.6649 228.462 78.334 230.979C90.2428 233.547 106.202 234.667 128.001 234.667C149.799 234.667 165.758 233.547 177.667 230.979C189.336 228.462 195.636 224.865 199.584 220.917C203.532 216.968 207.13 210.669 209.646 199C212.215 187.091 213.334 171.132 213.334 149.333C213.334 127.535 212.215 111.575 209.646 99.6667C207.13 87.9976 203.532 81.6983 199.584 77.75C195.636 73.8017 189.336 70.2044 177.667 67.6875C165.758 65.1192 149.799 64 128.001 64Z" fill="black"/>
</svg>
