<svg width="256" height="256" viewBox="0 0 256 256" fill="none" xmlns="http://www.w3.org/2000/svg">
<path fill-rule="evenodd" clip-rule="evenodd" d="M136.125 0.0520833C213.576 1.01214 232.669 16.6738 234.5 84.0104C234.439 83.9584 234.374 83.9059 234.313 83.8542C251.107 98.0843 256 121.707 256 160C256 240 234.667 256 128 256C21.3333 256 0 240 0 160C0 121.699 4.8946 98.0729 21.6979 83.8438C21.6321 83.8995 21.5655 83.9544 21.5 84.0104C23.3932 14.3777 43.7458 0.000463011 128 0L136.125 0.0520833ZM128 85.3333C101.642 85.3333 81.6809 86.3416 66.4063 88.8125C51.0925 91.2898 42.2508 94.9772 36.8021 99.0625C27.2973 106.191 21.3333 119.839 21.3333 160C21.3333 200.161 27.2973 213.809 36.8021 220.938C42.2508 225.023 51.0925 228.71 66.4063 231.188C81.6809 233.658 101.642 234.667 128 234.667C154.358 234.667 174.319 233.658 189.594 231.188C204.907 228.71 213.749 225.023 219.198 220.938C228.703 213.809 234.667 200.161 234.667 160C234.667 119.839 228.703 106.191 219.198 99.0625C213.749 94.9772 204.907 91.2898 189.594 88.8125C174.319 86.3416 154.358 85.3333 128 85.3333ZM128 21.3333C106.159 21.3335 90.0127 22.336 77.8958 24.6875C65.9052 27.0158 59.4786 30.3688 55.6042 33.8542C49.6248 39.2371 45.1482 49.1137 43.4375 72.3438C43.2475 72.4057 43.0531 72.4685 42.8646 72.5313C62.1394 66.1092 89.5098 64 128 64C166.341 64 193.644 66.1053 212.906 72.4688C212.788 72.4296 212.671 72.3826 212.552 72.3438C210.841 49.1152 206.375 39.2371 200.396 33.8542C196.522 30.3687 190.095 27.0159 178.104 24.6875C165.987 22.3359 149.841 21.3335 128 21.3333Z" fill="black"/>
</svg>
