<svg width="256" height="256" viewBox="0 0 256 256" fill="none" xmlns="http://www.w3.org/2000/svg">
<path fill-rule="evenodd" clip-rule="evenodd" d="M134.504 0.0520833C183.591 0.855408 203.381 11.4014 210.213 51.0938C209.974 51.0145 209.725 50.9529 209.484 50.875C246.661 62.8832 256.004 90.545 256.004 149.333L255.942 157.458C254.59 239.315 231.335 256 128.004 256L118.254 255.948C20.0255 254.821 0.00445431 235.445 0.00445431 149.333C0.0042779 149.19 -0.00108409 149.048 0.00445431 148.906C0.0504419 89.4813 9.73053 61.9922 48.3065 50.3229C47.4622 50.578 46.6233 50.8126 45.8065 51.0833C52.935 9.69236 74.1448 0 128.004 0L134.504 0.0520833ZM159.473 150.198C157.639 166.945 150.266 170.666 128.004 170.667L123.254 170.604C104.664 170.041 98.2016 165.697 96.5045 150.198C71.3803 151.426 46.308 154.116 21.4211 158.281C22.1954 196.633 28.1231 211.667 37.6607 219.615C43.0769 224.127 51.7309 228.129 66.7753 230.833C81.8685 233.546 101.686 234.667 128.004 234.667C154.323 234.667 174.141 233.546 189.234 230.833C204.278 228.128 212.933 224.127 218.348 219.615C227.884 211.666 233.793 196.629 234.567 158.281C209.676 154.116 184.602 151.425 159.473 150.198ZM128.004 128C123.165 128 119.96 128.208 117.838 128.5C117.545 130.623 117.338 133.824 117.338 138.667C117.338 143.502 117.546 146.7 117.838 148.823C119.96 149.115 123.164 149.333 128.004 149.333C132.838 149.333 136.039 149.115 138.161 148.823C138.452 146.7 138.671 143.502 138.671 138.667C138.671 133.823 138.453 130.623 138.161 128.5C136.039 128.208 132.837 128 128.004 128ZM95.994 138.667C95.9941 139.16 96.0106 139.646 96.0149 140.125L95.994 138.667ZM128.004 64C101.686 64 81.8685 65.121 66.7753 67.8333C51.731 70.5378 43.0769 74.5401 37.6607 79.0521C28.4395 86.7364 22.6026 101.045 21.5253 136.646C46.3348 132.634 71.3189 130.044 96.3482 128.854C96.3375 128.982 96.3271 129.11 96.317 129.24C97.7716 110.693 104.835 106.667 128.004 106.667L132.754 106.729C152.01 107.313 158.217 111.958 159.629 128.854C184.664 130.044 209.649 132.633 234.463 136.646C233.386 101.048 227.568 86.7369 218.348 79.0521C212.933 74.5396 204.278 70.5382 189.234 67.8333C174.141 65.1206 154.323 64.0001 128.004 64ZM128.004 21.3333C91.8463 21.3333 80.4149 26.3088 74.994 32.7396C72.8183 35.3233 70.6037 39.3069 68.7545 45.9063C68.1668 45.9926 67.5827 46.0972 67.0045 46.1875C83.3176 43.6386 103.389 42.6667 128.004 42.6667L137.754 42.7188C157.591 42.9464 174.235 43.9366 188.171 46.0521C187.863 46.0053 187.555 45.9519 187.244 45.9063C185.396 39.3099 183.19 35.3234 181.015 32.7396C175.596 26.3074 164.164 21.334 128.004 21.3333Z" fill="black"/>
</svg>
