<svg width="256" height="256" viewBox="0 0 256 256" fill="none" xmlns="http://www.w3.org/2000/svg">
<path fill-rule="evenodd" clip-rule="evenodd" d="M128 0C234.667 0 256 21.3333 256 128C256 234.667 234.667 256 128 256C21.3333 256 0 234.667 0 128C0 21.3333 21.3333 0 128 0ZM233.604 95.9479C163.376 88.9252 92.6236 88.9252 22.3958 95.9479C22.3476 95.9527 22.2982 95.9438 22.25 95.9479C21.6376 105.343 21.3333 115.963 21.3333 128C21.3333 154.243 22.6747 173.758 25.8542 188.5C28.9821 203.002 33.5795 211.413 39.0833 216.917C44.5872 222.421 52.9976 227.018 67.5 230.146C82.2421 233.325 101.757 234.667 128 234.667C154.243 234.667 173.758 233.325 188.5 230.146C203.002 227.018 211.413 222.421 216.917 216.917C222.421 211.413 227.018 203.002 230.146 188.5C233.325 173.758 234.667 154.243 234.667 128C234.667 115.963 234.352 105.343 233.74 95.9479C233.695 95.944 233.649 95.9524 233.604 95.9479ZM85.4896 23.1042C78.8052 23.7971 72.8393 24.7026 67.5 25.8542C52.9976 28.9821 44.5872 33.5795 39.0833 39.0833C33.5795 44.5872 28.9821 52.9976 25.8542 67.5C25.3872 69.6651 24.9726 71.9353 24.5833 74.3125C45.0085 72.3525 65.4742 70.9627 85.9583 70.1667C88.7389 54.7011 88.6259 38.8497 85.5417 23.4271C85.5202 23.3198 85.5077 23.2113 85.4896 23.1042ZM128 21.3333C120.427 21.3333 113.416 21.4626 106.917 21.6979C109.799 37.5092 110.067 53.6757 107.708 69.5521C148.976 68.7785 190.275 70.3659 231.406 74.3125C231.017 71.9359 230.613 69.6646 230.146 67.5C227.018 52.9976 222.421 44.5872 216.917 39.0833C211.413 33.5795 203.002 28.9821 188.5 25.8542C173.758 22.6747 154.243 21.3333 128 21.3333Z" fill="black"/>
</svg>
