<svg width="256" height="256" viewBox="0 0 256 256" fill="none" xmlns="http://www.w3.org/2000/svg">
<path d="M97.0607 85.3854C102.922 85.9721 107.199 91.201 106.613 97.0625L104.884 114.313C102.555 137.601 102.555 161.065 104.884 184.354L106.613 201.604C107.199 207.466 102.922 212.695 97.0607 213.281C91.1998 213.867 85.9703 209.59 85.3836 203.729L83.6649 186.479C81.1947 161.777 81.1947 136.89 83.6649 112.188L85.3836 94.9375C85.9703 89.0767 91.1998 84.8 97.0607 85.3854Z" fill="black"/>
<path d="M158.936 85.3854C164.797 84.7993 170.026 89.0763 170.613 94.9375L172.332 112.188C174.802 136.89 174.802 161.777 172.332 186.479L170.613 203.729C170.026 209.59 164.797 213.867 158.936 213.281C153.075 212.694 148.798 207.465 149.384 201.604L151.113 184.354C153.441 161.065 153.441 137.601 151.113 114.313L149.384 97.0625C148.798 91.2015 153.075 85.9727 158.936 85.3854Z" fill="black"/>
<path fill-rule="evenodd" clip-rule="evenodd" d="M133.696 0.0520833C174.34 0.852662 191.996 10.8437 198.842 47.3229C211.531 48.9572 224.178 51.0256 236.759 53.5417C242.534 54.6979 246.278 60.3178 245.123 66.0938C243.967 71.8691 238.347 75.6135 232.571 74.4583C229.122 73.7685 225.666 73.1209 222.207 72.5C231.713 88.7143 234.665 113.122 234.665 149.333C234.665 223.396 222.323 248.093 166.79 254.271L162.54 254.698C152.431 255.621 140.971 256 127.998 256C39.1104 256 21.3315 238.222 21.3315 149.333C21.3315 113.127 24.2759 88.7144 33.7795 72.5C30.3241 73.1203 26.871 73.7692 23.4253 74.4583C17.6497 75.6128 12.0294 71.8689 10.8732 66.0938C9.71824 60.3183 13.463 54.6984 19.2378 53.5417C31.8113 51.027 44.452 48.9568 57.1336 47.3229C64.2925 9.1804 83.2997 0 128.009 0L133.696 0.0520833ZM155.186 64.7917C137.069 63.8668 118.917 63.8664 100.8 64.7917C92.0115 65.3885 84.6081 66.3339 78.3315 67.6875C66.6632 70.2043 60.3631 73.8018 56.4149 77.75C52.4668 81.6984 48.8691 87.9982 46.3524 99.6667C43.7841 111.575 42.6649 127.535 42.6649 149.333C42.6649 171.132 43.7841 187.091 46.3524 199C48.8691 210.668 52.4668 216.968 56.4149 220.917C60.3631 224.865 66.6632 228.462 78.3315 230.979C90.2401 233.547 106.2 234.667 127.998 234.667C142.423 234.667 154.403 234.177 164.425 233.063C189.63 230.259 198.493 223.984 203.415 216.031C209.88 205.581 213.332 186.705 213.332 149.333C213.332 127.535 212.212 111.575 209.644 99.6667C207.127 87.9978 203.53 81.6983 199.582 77.75C195.633 73.8019 189.333 70.2042 177.665 67.6875C171.385 66.3333 163.98 65.3884 155.186 64.7917ZM128.009 21.3333C97.0885 21.3333 88.9845 26.2878 84.8211 32.2292C82.9783 34.8617 81.1297 38.8063 79.5295 44.8958C85.7837 44.3471 92.0451 43.9088 98.3107 43.5729C107.196 42.9349 117.058 42.6667 127.998 42.6667C138.933 42.6667 148.793 42.9355 157.675 43.5729C163.934 43.9083 170.188 44.3481 176.436 44.8958C174.838 38.8139 173.037 34.8605 171.196 32.2292C167.034 26.2864 158.929 21.3343 128.009 21.3333Z" fill="black"/>
</svg>
