<svg width="256" height="256" viewBox="0 0 256 256" fill="none" xmlns="http://www.w3.org/2000/svg">
<path fill-rule="evenodd" clip-rule="evenodd" d="M97.5729 21.3841C141.176 22.0185 163.014 29.0957 173.25 53.332C174.156 53.3267 175.073 53.332 176 53.332C242.666 53.3321 256 66.6666 256 133.332C256 173.422 251.164 194.2 232.823 204.415C227.505 221.922 211.244 234.665 192 234.665C175.934 234.665 161.945 225.785 154.667 212.665C151.933 212.477 149.319 212.269 146.823 211.988C138.594 213.318 128.528 213.424 116.25 213.29L90.6667 213.04C90.5937 213.04 90.5208 213.031 90.4479 213.03C83.1135 225.945 69.2474 234.665 53.3333 234.665C29.7692 234.665 10.6667 215.563 10.6667 191.999C10.6667 190.26 10.7771 188.547 10.9792 186.863C3.2404 173.398 0.41964 153.509 0.0416667 124.488L0 117.186C0 37.3095 15.1111 21.332 90.6667 21.332L97.5729 21.3841ZM53.3333 170.665C41.5513 170.665 32 180.217 32 191.999C32 203.781 41.5513 213.332 53.3333 213.332C65.1154 213.332 74.6667 203.781 74.6667 191.999C74.6667 180.217 65.1154 170.665 53.3333 170.665ZM192 170.665C180.218 170.665 170.667 180.217 170.667 191.999C170.667 203.781 180.218 213.332 192 213.332C203.782 213.332 213.333 203.781 213.333 191.999C213.333 180.217 203.782 170.665 192 170.665ZM90.6667 42.6654C72.2277 42.6654 59.0314 43.6694 49.3646 45.8737C40.0094 48.0072 35.3462 50.9585 32.5 53.9674C29.5562 57.08 26.5717 62.3628 24.4479 72.7695C22.2883 83.3547 21.3333 97.6142 21.3333 117.186C21.3334 136.235 22.2417 150.244 24.2813 160.738C31.8978 153.657 42.1129 149.332 53.3333 149.332C76.8106 149.332 95.8494 168.294 95.9896 191.738C113.379 191.832 125.231 192.308 135.531 191.738C143.559 191.295 147.443 190.233 149.417 189.332C149.945 180.773 152.993 172.895 157.833 166.436C159.309 154.893 160 139.081 160 117.186C160 97.6142 159.045 83.3547 156.885 72.7695C154.762 62.3628 151.777 57.08 148.833 53.9674C145.987 50.9585 141.324 48.0072 131.969 45.8737C122.302 43.6694 109.106 42.6654 90.6667 42.6654ZM181.271 127.999C181.173 136.428 180.935 144.028 180.563 150.884C180.476 150.908 180.389 150.932 180.302 150.957C184.02 149.9 187.943 149.332 192 149.332C209.204 149.332 224.021 159.519 230.771 174.186C231.203 172.803 231.636 171.241 232.021 169.457C233.825 161.09 234.667 149.574 234.667 133.332C234.667 131.494 234.647 129.718 234.625 127.999H181.271ZM177.177 151.978C177.054 152.023 176.935 152.077 176.813 152.124C176.986 152.058 177.159 151.99 177.333 151.926L177.177 151.978ZM178.875 74.6758C180.267 83.7907 180.973 94.381 181.219 106.665H233.49C233.098 103.126 232.621 99.9911 232.021 97.207C230.268 89.0806 227.92 85.4192 225.917 83.4154C223.913 81.4116 220.251 79.064 212.125 77.3112C204.26 75.6151 193.614 74.7712 178.875 74.6758Z" fill="black"/>
</svg>
