<svg width="256" height="256" viewBox="0 0 256 256" fill="none" xmlns="http://www.w3.org/2000/svg">
<path d="M234.666 32C240.557 32 245.333 36.7756 245.333 42.6667V64C245.333 69.891 240.557 74.6667 234.666 74.6667C228.775 74.6667 223.999 69.891 223.999 64V53.3333H138.666V213.333C144.557 213.333 149.333 218.109 149.333 224C149.333 229.891 144.557 234.667 138.666 234.667H117.333C111.442 234.667 106.666 229.891 106.666 224C106.666 218.478 110.862 213.933 116.239 213.385L117.333 213.333V53.3333H31.9993V64C31.9993 69.891 27.2237 74.6667 21.3327 74.6667C15.4416 74.6667 10.666 69.891 10.666 64V42.6667C10.666 36.7756 15.4416 32 21.3327 32H234.666Z" fill="black"/>
</svg>
