<svg width="256" height="256" viewBox="0 0 256 256" fill="none" xmlns="http://www.w3.org/2000/svg">
<path fill-rule="evenodd" clip-rule="evenodd" d="M128 0C133.889 0.00216548 138.667 4.77697 138.667 10.6667V21.4063C138.45 21.4029 138.228 21.3989 138.01 21.3958C236.014 22.7853 256 46.0907 256 149.333C256 158.178 241.93 162.497 233.792 158.563L232.25 157.667C212.792 144.135 183.138 139.359 138.667 138.74V218.969C138.664 239.418 122.084 255.995 101.635 256C87.6102 255.998 74.7735 248.075 68.5 235.531L65.125 228.771C62.4925 223.503 64.6301 217.094 69.8958 214.458C75.1637 211.827 81.5737 213.962 84.2083 219.229L87.5833 225.99C90.2432 231.306 95.6907 234.665 101.635 234.667C110.302 234.662 117.331 227.636 117.333 218.969V138.74C72.858 139.359 43.1995 144.134 23.7396 157.667L22.1979 158.563C14.0609 162.497 0 158.177 0 149.333C6.56382e-07 46.0943 19.9842 22.7868 117.979 21.3958C117.764 21.3989 117.548 21.403 117.333 21.4063V10.6667C117.333 4.77718 122.111 0.00251369 128 0ZM128 42.6667C101.757 42.6667 82.2421 44.0081 67.5 47.1875C52.9976 50.3155 44.5872 54.9128 39.0833 60.4167C33.5795 65.9205 28.9821 74.3309 25.8542 88.8333C23.3207 100.581 21.9713 115.359 21.5208 134.156C47.9914 120.42 83.8628 117.333 128 117.333C172.137 117.333 208.001 120.429 234.469 134.167C234.019 115.364 232.68 100.583 230.146 88.8333C227.018 74.3309 222.421 65.9205 216.917 60.4167C211.413 54.9128 203.002 50.3155 188.5 47.1875C173.758 44.0081 154.243 42.6667 128 42.6667Z" fill="black"/>
</svg>
