<svg width="256" height="256" viewBox="0 0 256 256" fill="none" xmlns="http://www.w3.org/2000/svg">
<path d="M245.331 120.013C249.749 120.013 253.331 123.595 253.331 128.013C253.331 152.616 252.114 172.854 248.57 189.284C245.007 205.804 238.979 219.011 228.987 229.003C218.995 238.994 205.788 245.023 189.268 248.586C172.838 252.13 152.6 253.347 127.997 253.347C103.394 253.347 83.1565 252.13 66.7266 248.586C50.2067 245.023 36.9994 238.994 27.0078 229.003C17.0163 219.011 10.9876 205.804 7.42448 189.284C3.88077 172.854 2.66406 152.616 2.66406 128.013C2.66406 123.595 6.24578 120.013 10.6641 120.013C15.0823 120.013 18.6641 123.595 18.6641 128.013C18.6641 152.299 19.8918 171.172 23.0703 185.909C26.2294 200.556 31.2008 210.571 38.3203 217.69C45.4398 224.81 55.4548 229.781 70.1016 232.94C84.8383 236.119 103.712 237.347 127.997 237.347C152.283 237.347 171.157 236.119 185.893 232.94C200.54 229.781 210.555 224.81 217.674 217.69C224.794 210.571 229.765 200.556 232.924 185.909C236.103 171.172 237.331 152.299 237.331 128.013C237.331 123.595 240.912 120.013 245.331 120.013Z" fill="black"/>
<path d="M124.747 3.35693C126.815 2.43795 129.179 2.43868 131.247 3.35693L137.602 6.19027C166.198 18.8998 188.498 42.5563 199.487 71.8569C201.038 75.9928 198.945 80.6064 194.81 82.159C190.675 83.7081 186.06 81.6158 184.508 77.4819C175.662 53.8936 158.319 34.5443 135.997 23.1486V181.336C135.997 185.754 132.416 189.336 127.997 189.336C123.58 189.335 119.997 185.753 119.997 181.336V23.1486C97.6762 34.5446 80.3324 53.894 71.487 77.4819C69.934 81.616 65.3204 83.7098 61.1849 82.159C57.0522 80.6056 54.9579 75.9916 56.5078 71.8569C67.4964 42.5567 89.7976 18.9002 118.393 6.19027L124.747 3.35693Z" fill="black"/>
</svg>
