<svg width="256" height="256" viewBox="0 0 256 256" fill="none" xmlns="http://www.w3.org/2000/svg">
<path fill-rule="evenodd" clip-rule="evenodd" d="M176.578 160.105C236.321 162.149 254.01 195.471 255.828 237.626C256.009 241.843 253.526 245.733 249.546 247.137L245.942 248.335C227.506 254.041 203.003 256.001 170.661 256.001L156.692 255.866C148.331 255.692 140.553 255.33 133.328 254.772C134.498 254.682 135.655 254.561 136.796 254.46C124.825 255.524 111.293 256.001 96.0047 256.001L83.4839 255.897C57.2381 255.416 36.702 253.28 20.7235 248.335L17.1193 247.137C13.1384 245.734 10.646 241.843 10.8277 237.626C12.7037 194.11 31.5017 160.001 96.0047 160.001L101.921 160.105C114.23 160.527 124.746 162.298 133.713 165.178C133.582 165.136 133.449 165.085 133.317 165.043C143.615 161.787 155.949 160.002 170.661 160.001L176.578 160.105ZM181.109 239.189C180.992 240.213 180.72 241.2 180.307 242.116C180.928 240.74 181.24 239.208 181.171 237.626L181.109 239.189ZM96.0047 181.335C67.4138 181.335 53.1862 188.823 45.5464 197.033C38.8146 204.27 34.5503 214.874 32.8485 229.533C47.545 233.077 67.744 234.668 96.0047 234.668C124.261 234.668 144.455 233.076 159.151 229.533C157.449 214.873 153.185 204.27 146.453 197.033C138.814 188.823 124.594 181.336 96.0047 181.335ZM170.661 181.335C167.332 181.335 164.197 181.445 161.244 181.637C174.217 195.014 179.686 213.609 180.994 234.574C203.933 234.218 220.969 232.627 233.807 229.533C232.105 214.872 227.843 204.27 221.109 197.033C213.469 188.823 199.25 181.335 170.661 181.335Z" fill="black"/>
<path fill-rule="evenodd" clip-rule="evenodd" d="M181.338 42.668C204.9 42.6703 224.005 61.7719 224.005 85.3346C224.005 108.897 204.9 127.999 181.338 128.001C157.774 128.001 138.671 108.899 138.671 85.3346C138.671 61.7705 157.774 42.668 181.338 42.668ZM181.338 64.0013C169.556 64.0013 160.005 73.5526 160.005 85.3346C160.005 97.1167 169.556 106.668 181.338 106.668C193.118 106.666 202.671 97.1153 202.671 85.3346C202.671 73.554 193.118 64.0037 181.338 64.0013Z" fill="black"/>
<path fill-rule="evenodd" clip-rule="evenodd" d="M85.3381 10.668C114.791 10.6703 138.671 34.5476 138.671 64.0013C138.671 93.455 114.791 117.332 85.3381 117.335C55.8829 117.335 32.0047 93.4565 32.0047 64.0013C32.0047 34.5461 55.8829 10.668 85.3381 10.668ZM85.3381 32.0013C67.665 32.0013 53.3381 46.3282 53.3381 64.0013C53.3381 81.6744 67.665 96.0013 85.3381 96.0013C103.009 95.9989 117.338 81.673 117.338 64.0013C117.338 46.3296 103.009 32.0037 85.3381 32.0013Z" fill="black"/>
</svg>
