<svg width="256" height="256" viewBox="0 0 256 256" fill="none" xmlns="http://www.w3.org/2000/svg">
<path fill-rule="evenodd" clip-rule="evenodd" d="M127.999 138.668C201.068 138.669 227.214 173.688 233.218 220.741C233.95 226.484 232.067 232.355 227.561 235.991L225.728 237.408C206.44 251.72 175.776 256.001 127.999 256.001C78.6847 256.001 47.606 251.436 28.4469 235.991C23.9403 232.356 22.0479 226.484 22.7802 220.741C28.7844 173.689 54.9314 138.67 127.999 138.668ZM127.999 160.001C94.724 160.002 75.6878 167.953 64.4365 177.98C53.5929 187.646 47.0752 201.843 44.2698 221.178C50.1049 225.144 58.4159 228.483 70.8635 230.824C85.2395 233.527 103.781 234.668 127.999 234.668C152.22 234.668 170.768 233.528 185.145 230.824C197.587 228.484 205.894 225.142 211.728 221.178C208.923 201.844 202.414 187.646 191.572 177.98C180.321 167.952 161.277 160.002 127.999 160.001Z" fill="black"/>
<path fill-rule="evenodd" clip-rule="evenodd" d="M127.999 10.668C157.454 10.668 181.332 34.5461 181.332 64.0013C181.332 93.4565 157.454 117.335 127.999 117.335C98.5446 117.334 74.6656 93.4559 74.6656 64.0013C74.6656 34.5467 98.5446 10.669 127.999 10.668ZM127.999 32.0013C110.327 32.0023 95.999 46.3288 95.999 64.0013C95.999 81.6738 110.327 96.0003 127.999 96.0013C145.672 96.0013 159.999 81.6744 159.999 64.0013C159.999 46.3282 145.672 32.0013 127.999 32.0013Z" fill="black"/>
</svg>
