<svg width="256" height="256" viewBox="0 0 256 256" fill="none" xmlns="http://www.w3.org/2000/svg">
<path fill-rule="evenodd" clip-rule="evenodd" d="M139.094 128.094C191.729 129.005 202.667 137.334 202.667 170.667L202.625 173.917C201.836 206.66 188.278 213.333 128 213.333L116.906 213.25C64.2706 212.338 53.3333 204 53.3333 170.667C53.3333 135.111 65.7778 128 128 128L139.094 128.094ZM128 149.333C112.678 149.333 101.286 149.786 92.6979 150.844C83.93 151.924 79.7814 153.455 77.9167 154.521C76.8761 155.115 76.6341 155.404 76.2083 156.531C75.439 158.57 74.6667 162.605 74.6667 170.667C74.6667 178.728 75.439 182.764 76.2083 184.802C76.6341 185.93 76.8761 186.218 77.9167 186.813C79.7814 187.878 83.93 189.409 92.6979 190.49C101.286 191.548 112.678 192 128 192C143.322 192 154.714 191.548 163.302 190.49C172.07 189.409 176.219 187.878 178.083 186.813C179.124 186.218 179.366 185.93 179.792 184.802C180.561 182.764 181.333 178.728 181.333 170.667C181.333 162.605 180.561 158.57 179.792 156.531C179.366 155.404 179.124 155.115 178.083 154.521C176.219 153.455 172.07 151.924 163.302 150.844C154.714 149.786 143.322 149.333 128 149.333Z" fill="black"/>
<path fill-rule="evenodd" clip-rule="evenodd" d="M128 42.6667C145.673 42.6667 160 56.9936 160 74.6667C160 92.3398 145.673 106.667 128 106.667C110.327 106.667 96 92.3398 96 74.6667C96 56.9936 110.327 42.6667 128 42.6667ZM128 64C122.109 64 117.333 68.7756 117.333 74.6667C117.333 80.5577 122.109 85.3333 128 85.3333C133.891 85.3333 138.667 80.5577 138.667 74.6667C138.667 68.7756 133.891 64 128 64Z" fill="black"/>
<path fill-rule="evenodd" clip-rule="evenodd" d="M128 0C234.667 0 256 21.3333 256 128C256 234.667 234.667 256 128 256C21.3333 256 0 234.667 0 128C0 21.3333 21.3333 0 128 0ZM128 21.3333C101.757 21.3333 82.2421 22.6747 67.5 25.8542C52.9976 28.9821 44.5872 33.5795 39.0833 39.0833C33.5795 44.5872 28.9821 52.9976 25.8542 67.5C22.6747 82.2421 21.3333 101.757 21.3333 128C21.3333 154.243 22.6747 173.758 25.8542 188.5C28.9821 203.002 33.5795 211.413 39.0833 216.917C44.5872 222.421 52.9976 227.018 67.5 230.146C82.2421 233.325 101.757 234.667 128 234.667C154.243 234.667 173.758 233.325 188.5 230.146C203.002 227.018 211.413 222.421 216.917 216.917C222.421 211.413 227.018 203.002 230.146 188.5C233.325 173.758 234.667 154.243 234.667 128C234.667 101.757 233.325 82.2421 230.146 67.5C227.018 52.9976 222.421 44.5872 216.917 39.0833C211.413 33.5795 203.002 28.9821 188.5 25.8542C173.758 22.6747 154.243 21.3333 128 21.3333Z" fill="black"/>
</svg>
