<svg width="256" height="256" viewBox="0 0 256 256" fill="none" xmlns="http://www.w3.org/2000/svg">
<path d="M174.938 76.8021C179.65 73.2689 186.33 74.2252 189.865 78.9375C193.398 83.6502 192.441 90.3304 187.729 93.8646C160.658 114.168 137.786 139.535 120.375 168.552L115.813 176.156C114.122 178.972 111.228 180.849 107.969 181.25C104.709 181.651 101.447 180.53 99.125 178.208L67.125 146.208C62.9614 142.043 62.9604 135.29 67.125 131.125C71.2901 126.962 78.0431 126.962 82.2083 131.125L104.583 153.5C123.084 123.816 146.934 97.8051 174.938 76.8021Z" fill="black"/>
<path fill-rule="evenodd" clip-rule="evenodd" d="M128 0C143.752 0 159.482 5.18409 171.417 23.1563C192.573 18.88 207.369 26.3483 218.51 37.4896C229.65 48.6298 237.107 63.42 232.833 84.5729C250.815 96.509 256 112.245 256 128C256 143.754 250.811 159.481 232.833 171.417C237.108 192.57 229.65 207.36 218.51 218.5C207.37 229.64 192.58 237.096 171.427 232.823C159.49 250.811 143.758 256 128 256C112.241 256 96.4995 250.815 84.5625 232.823C63.4162 237.092 48.6277 229.648 37.4896 218.51C26.349 207.37 18.8818 192.571 23.1563 171.417C5.18409 159.482 1.20324e-06 143.752 0 128C6.88591e-07 112.247 5.18021 96.5084 23.1563 84.5729C18.8828 63.4207 26.3506 48.6296 37.4896 37.4896C48.6292 26.3499 63.4212 18.8841 84.5729 23.1563C96.5084 5.18021 112.247 5.56429e-07 128 0ZM128 21.3333C117.857 21.3333 109.545 24.1119 102.344 34.9583C97.5462 42.1822 88.8546 45.7778 80.3542 44.0625C67.5914 41.4847 59.7453 45.4005 52.5729 52.5729C45.4004 59.7463 41.4866 67.5864 44.0625 80.3438C45.7802 88.8457 42.1836 97.5452 34.9583 102.344C25.4674 108.645 22.1484 115.797 21.4688 124.281L21.3333 128C21.3333 138.134 24.1094 146.441 34.9583 153.646C42.1838 158.444 45.7804 167.144 44.0625 175.646C41.485 188.409 45.4016 196.256 52.5729 203.427C59.7299 210.583 67.5691 214.485 80.3438 211.906L81.9375 211.656C89.9179 210.664 97.847 214.254 102.344 221.031C109.549 231.888 117.859 234.667 128 234.667C138.134 234.667 146.448 231.894 153.656 221.031L154.594 219.719C159.533 213.37 167.682 210.306 175.656 211.917C188.424 214.494 196.262 210.581 203.427 203.417C210.593 196.249 214.506 188.412 211.927 175.646C210.209 167.144 213.806 158.444 221.031 153.646C231.889 146.438 234.667 138.13 234.667 128C234.667 117.861 231.886 109.549 221.031 102.344C213.806 97.5452 210.209 88.8459 211.927 80.3438C214.505 67.5774 210.593 59.7395 203.427 52.5729C196.254 45.3994 188.41 41.4836 175.646 44.0625C167.143 45.781 158.445 42.1842 153.646 34.9583C146.441 24.1094 138.134 21.3333 128 21.3333Z" fill="black"/>
</svg>
