<svg width="256" height="256" viewBox="0 0 256 256" fill="none" xmlns="http://www.w3.org/2000/svg">
<path fill-rule="evenodd" clip-rule="evenodd" d="M96 10.668C153.391 10.668 177.835 20.7343 187.073 62.5221C187.064 62.4809 187.061 62.4383 187.052 62.3971L192 60.3971C245.324 37.8645 256 71.6645 256 128.001L255.865 138.293C254.497 188.344 241.998 216.731 192 195.605C190.312 194.892 188.656 194.223 187.052 193.574C177.798 235.283 153.348 245.335 96 245.335C16 245.335 0 225.779 0 128.001C2.77435e-07 30.2235 16 10.668 96 10.668ZM96 32.0013C55.4846 32.0013 41.5125 37.6203 34.5104 46.1784C30.7144 50.8185 27.1748 58.4449 24.7604 72.1263C22.3411 85.836 21.3333 103.896 21.3333 128.001C21.3333 152.107 22.3411 170.167 24.7604 183.876C27.1748 197.558 30.7144 205.184 34.5104 209.824C41.5125 218.382 55.4846 224.001 96 224.001C136.515 224.001 150.488 218.382 157.49 209.824C161.286 205.184 164.825 197.558 167.24 183.876C169.659 170.167 170.667 152.107 170.667 128.001C170.667 103.896 169.659 85.836 167.24 72.1263C164.825 58.4449 161.286 50.8185 157.49 46.1784C150.488 37.6203 136.515 32.0013 96 32.0013ZM222.302 74.7513C218.854 74.3944 212.024 75.0899 200.302 80.043C196.806 81.5204 193.465 82.8645 190.302 84.095C191.5 96.6054 192 111.139 192 128.001C192 144.864 191.5 159.397 190.302 171.908L200.302 175.96C212.026 180.913 218.853 181.608 222.302 181.251C224.654 181.007 225.621 180.362 226.823 178.73C228.661 176.229 230.889 171.16 232.469 161.908C234.008 152.884 234.667 141.57 234.667 128.001C234.667 114.432 234.009 103.119 232.469 94.095C230.888 84.8404 228.662 79.7729 226.823 77.2721C225.62 75.6389 224.654 74.9956 222.302 74.7513Z" fill="black"/>
</svg>
