<svg width="256" height="256" viewBox="0 0 256 256" fill="none" xmlns="http://www.w3.org/2000/svg">
<path d="M202.667 138.667C208.558 138.667 213.333 143.442 213.333 149.333C213.333 155.224 208.558 160 202.667 160C196.776 160 192 155.224 192 149.333C192 143.442 196.776 138.667 202.667 138.667Z" fill="black"/>
<path fill-rule="evenodd" clip-rule="evenodd" d="M128 0C234.667 0 256 21.3333 256 128C256 131.843 255.949 135.574 255.885 139.198C255.955 142.469 256 145.846 256 149.333L255.969 152.375C255.972 153.133 256 153.897 256 154.667C256 173.98 254.852 189.752 251.854 202.604C251.643 202.606 251.431 202.602 251.219 202.604C240.435 245.858 208.558 256 128 256L118.25 255.948C23.1891 254.858 1.37083 236.676 0.0625 157.458L0 149.333C0 145.869 0.0459702 142.512 0.114583 139.26C0.049865 135.617 0 131.865 0 128C0 21.3333 21.3333 0 128 0ZM128 64C101.679 64 81.8646 65.1204 66.7708 67.8333C51.724 70.5382 43.0722 74.5392 37.6563 79.0521C27.4095 87.591 21.3333 104.308 21.3333 149.333C21.3333 194.358 27.4095 211.076 37.6563 219.615C43.0722 224.128 51.724 228.128 66.7708 230.833C81.8646 233.546 101.679 234.667 128 234.667C154.321 234.667 174.135 233.546 189.229 230.833C204.276 228.128 212.928 224.128 218.344 219.615C222.744 215.948 226.351 210.766 229.063 202.49C163.117 201.176 149.333 190.584 149.333 149.333C149.333 108.082 163.117 97.4801 229.063 96.1667C226.352 87.8959 222.742 82.7173 218.344 79.0521C212.928 74.5392 204.276 70.5382 189.229 67.8333C174.135 65.1204 154.321 64 128 64ZM232.271 117.427C218.769 117.637 207.911 118.208 199.125 119.26C187.485 120.655 181.164 122.721 177.698 124.646C175.065 126.109 173.921 127.516 172.969 129.969C171.657 133.346 170.667 139.081 170.667 149.333L170.708 152.969C170.916 160.982 171.821 165.742 172.969 168.698C173.921 171.151 175.065 172.558 177.698 174.021C181.164 175.945 187.485 178.011 199.125 179.406C208.116 180.483 219.276 181.032 233.219 181.229C234.072 173.29 234.561 163.833 234.635 152.5C234.565 137.908 233.797 126.482 232.271 117.427ZM128 21.3333C101.757 21.3333 82.2421 22.6747 67.5 25.8542C52.9976 28.9821 44.5872 33.5795 39.0833 39.0833C34.6477 43.519 30.828 49.8506 27.8646 59.7292C46.9752 46.5402 78.1823 42.6667 128 42.6667C177.812 42.6667 209.014 46.5442 228.125 59.7292C225.162 49.8522 221.352 43.5186 216.917 39.0833C211.413 33.5795 203.002 28.9821 188.5 25.8542C173.758 22.6747 154.243 21.3333 128 21.3333Z" fill="black"/>
</svg>
