<svg width="256" height="256" viewBox="0 0 256 256" fill="none" xmlns="http://www.w3.org/2000/svg">
<path fill-rule="evenodd" clip-rule="evenodd" d="M128.001 0C234.666 0.000155301 256.001 21.3348 256.001 128C256.001 234.664 234.665 256 128.001 256C21.3357 256 0.00112848 234.665 0.000976562 128C0.000998265 21.3344 21.3353 0 128.001 0ZM128.001 181.333C119.112 181.333 117.334 183.111 117.334 192C117.334 200.888 119.113 202.667 128.001 202.667C136.888 202.667 138.667 200.887 138.668 192C138.668 183.112 136.889 181.333 128.001 181.333ZM128.001 53.3333C122.11 53.3333 117.334 58.1091 117.334 64V149.333C117.335 155.224 122.11 160 128.001 160C133.892 160 138.667 155.224 138.668 149.333V64C138.668 58.1091 133.892 53.3333 128.001 53.3333Z" fill="black"/>
</svg>
