<svg width="256" height="256" viewBox="0 0 256 256" fill="none" xmlns="http://www.w3.org/2000/svg">
<path fill-rule="evenodd" clip-rule="evenodd" d="M128 10.6665C216.576 10.6665 283.595 176.886 244.698 216C205.799 255.112 50.2006 255.111 11.3021 216C-27.5944 176.887 39.4238 10.667 128 10.6665ZM128 170.667C119.111 170.667 117.333 172.444 117.333 181.333C117.333 190.222 119.111 192 128 192C136.889 192 138.667 190.222 138.667 181.333C138.667 172.444 136.889 170.667 128 170.667ZM128 63.9998C122.11 64.0004 117.333 68.7759 117.333 74.6665V138.667C117.333 144.557 122.11 149.333 128 149.333C133.891 149.333 138.667 144.557 138.667 138.667V74.6665C138.667 68.7755 133.891 63.9998 128 63.9998Z" fill="black"/>
</svg>
