<svg width="256" height="256" viewBox="0 0 256 256" fill="none" xmlns="http://www.w3.org/2000/svg">
<path d="M168.083 0.325845C173.798 -1.10134 179.582 2.37193 181.01 8.08626C182.436 13.7998 178.963 19.585 173.25 21.0133L171.979 21.3363C155.825 25.3754 143.67 38.0615 139.906 53.7113C156.814 43.4235 175.823 39.814 194.198 45.055C217.101 51.5879 236.081 71.1534 246.729 96.6592C240.749 95.3397 234.334 96.0076 228.552 98.8988L226.135 100.107C216.987 104.685 212.59 115.297 215.823 125.003L216.625 127.399C217.519 130.082 217.316 133.015 216.052 135.545L215.5 136.638C212.61 142.424 212.609 149.238 215.5 155.024L216.052 156.107C217.317 158.637 217.519 161.57 216.625 164.253L215.823 166.659C212.591 176.364 216.988 186.978 226.135 191.555L228.552 192.763C233.645 195.31 239.229 196.117 244.573 195.378C223.928 239.646 179.256 264.205 141.729 253.503C136.891 252.123 132.315 250.16 128 247.732C123.686 250.16 119.109 252.123 114.271 253.503C71.0116 265.839 18.2397 231.333 3.75002 173.774C-10.7391 116.213 18.5428 57.3948 61.8021 45.055C80.866 39.6178 100.606 43.7189 117.979 54.9092C121.626 28.8674 140.714 7.162 166.802 0.638345L168.083 0.325845Z" fill="black"/>
</svg>
