<svg width="256" height="256" viewBox="0 0 256 256" fill="none" xmlns="http://www.w3.org/2000/svg">
<path d="M168.083 0.32573C173.798 -1.10113 179.582 2.37198 181.011 8.08615C182.436 13.7994 178.963 19.5847 173.25 21.0132L171.979 21.3361C155.825 25.3751 143.671 38.0613 139.906 53.7111C156.814 43.424 175.823 39.814 194.198 45.0549C237.457 57.3947 266.748 116.214 252.261 173.774C237.771 231.333 184.989 265.839 141.729 253.503C136.891 252.123 132.315 250.16 128 247.732C123.686 250.16 119.109 252.123 114.271 253.503C71.0116 265.84 18.2399 231.333 3.75011 173.774C-10.7392 116.212 18.5423 57.394 61.8022 45.0549C80.8639 39.6183 100.597 43.7217 117.969 54.9091C121.616 28.8665 140.713 7.16182 166.802 0.63823L168.083 0.32573Z" fill="black"/>
</svg>
