<svg width="256" height="256" viewBox="0 0 256 256" fill="none" xmlns="http://www.w3.org/2000/svg">
<path fill-rule="evenodd" clip-rule="evenodd" d="M128 0C234.667 0 256 21.3333 256 128C256 156.581 254.42 179.024 250.125 196.583C250.049 196.893 249.984 197.204 249.906 197.51C244.193 220.124 233.801 234.489 215.958 243.323C215.885 243.359 215.814 243.401 215.74 243.438C214.483 244.054 213.185 244.634 211.854 245.198C211.64 245.289 211.425 245.379 211.208 245.469C207.14 247.15 202.724 248.575 197.938 249.802C196.947 250.056 195.939 250.295 194.917 250.531C194.008 250.741 193.091 250.961 192.156 251.156C190.852 251.43 189.522 251.68 188.167 251.927C187.484 252.051 186.8 252.195 186.104 252.313C184.461 252.591 182.78 252.84 181.063 253.083C179.61 253.289 178.131 253.475 176.625 253.656C175.339 253.811 174.034 253.967 172.708 254.104C171.713 254.207 170.705 254.292 169.688 254.385C168.221 254.521 166.733 254.654 165.219 254.771C164.301 254.841 163.373 254.905 162.438 254.969C160.771 255.082 159.077 255.188 157.354 255.281C156.163 255.346 154.958 255.404 153.74 255.458C152.585 255.51 151.419 255.56 150.24 255.604C148.611 255.664 146.958 255.726 145.281 255.771C144.099 255.803 142.904 255.819 141.698 255.844C140.03 255.878 138.34 255.917 136.625 255.938C133.814 255.971 130.939 256 128 256L119.542 255.948C119.479 255.947 119.417 255.938 119.354 255.938C117.672 255.917 116.012 255.887 114.375 255.854C113.126 255.829 111.89 255.804 110.667 255.771C109.036 255.727 107.429 255.663 105.844 255.604C104.615 255.559 103.4 255.513 102.198 255.458C101.004 255.404 99.8237 255.344 98.6563 255.281C96.9152 255.187 95.2037 255.084 93.5208 254.969C92.6098 254.907 91.7067 254.85 90.8125 254.781C89.2375 254.66 87.69 254.516 86.1667 254.375C85.2127 254.287 84.2673 254.211 83.3333 254.115C81.8351 253.959 80.3641 253.781 78.9167 253.604C78.0293 253.496 77.1497 253.398 76.2813 253.281C74.068 252.983 71.9158 252.657 69.8229 252.302C69.2584 252.206 68.7017 252.09 68.1458 251.99C66.6572 251.721 65.1984 251.446 63.7708 251.146C62.9115 250.965 62.0667 250.765 61.2292 250.573C60.1201 250.318 59.0298 250.057 57.9583 249.781C54.9193 248.999 52.0265 248.149 49.2813 247.188C49.1348 247.136 48.9894 247.083 48.8438 247.031C47.4886 246.549 46.1709 246.04 44.8854 245.51C44.5921 245.39 44.3001 245.269 44.0104 245.146C42.8557 244.655 41.7237 244.157 40.625 243.625L40.1875 243.406C40.1345 243.38 40.0841 243.349 40.0313 243.323C37.4233 242.031 34.9764 240.62 32.6771 239.083C32.4895 238.958 32.3002 238.835 32.1146 238.708C28.7698 236.419 25.757 233.847 23.0313 230.979C22.8554 230.794 22.6734 230.615 22.5 230.427C22.2181 230.122 21.9422 229.812 21.6667 229.5C21.4484 229.253 21.2351 229.001 21.0208 228.75C14.2087 220.764 9.42529 210.624 6.15625 197.823C5.99245 197.181 5.84371 196.53 5.6875 195.875C1.52397 178.422 0 156.196 0 128C0 21.3333 21.3333 0 128 0ZM128 21.3333C101.757 21.3333 82.2421 22.6747 67.5 25.8542C52.9976 28.9821 44.5872 33.5795 39.0833 39.0833C33.5795 44.5872 28.9821 52.9976 25.8542 67.5C22.6747 82.2421 21.3333 101.757 21.3333 128C21.3333 140.015 21.64 150.618 22.25 160H61.4167C69.9016 160.001 78.0418 163.375 84.0417 169.375L86.6354 171.958C92.6363 177.958 100.775 181.333 109.26 181.333H146.75C155.235 181.332 163.375 177.958 169.375 171.958L171.969 169.375C177.97 163.376 186.108 160 194.594 160H233.75C234.36 150.618 234.667 140.015 234.667 128C234.667 101.757 233.325 82.2421 230.146 67.5C227.018 52.9976 222.421 44.5872 216.917 39.0833C211.413 33.5795 203.002 28.9821 188.5 25.8542C173.758 22.6747 154.243 21.3333 128 21.3333Z" fill="black"/>
</svg>
