<svg width="256" height="256" viewBox="0 0 256 256" fill="none" xmlns="http://www.w3.org/2000/svg">
<path d="M37.8953 150.458C54.085 142.363 72.8276 141.036 89.9994 146.76L99.3744 149.885C102.161 150.814 104.423 152.841 105.656 155.468L106.114 156.624L109.239 165.999C114.963 183.171 113.636 201.914 105.541 218.103C102.907 223.372 96.4977 225.509 91.2286 222.874C85.9596 220.24 83.8233 213.831 86.4578 208.562C90.8614 199.755 92.3518 189.849 90.8328 180.249L28.8744 242.208C24.7088 246.373 17.9567 246.373 13.7911 242.208C9.62562 238.042 9.62562 231.29 13.7911 227.124L75.7494 165.166C66.1492 163.647 56.2441 165.137 47.4369 169.541C42.1679 172.175 35.759 170.039 33.1244 164.77C30.49 159.501 32.6263 153.092 37.8953 150.458Z" fill="black"/>
<path d="M165.999 146.76C183.171 141.036 201.914 142.363 218.104 150.458C223.373 153.092 225.509 159.501 222.874 164.77C220.24 170.039 213.831 172.175 208.562 169.541C199.755 165.137 189.85 163.647 180.249 165.166L242.208 227.124C246.373 231.29 246.373 238.042 242.208 242.208C238.042 246.373 231.29 246.373 227.124 242.208L165.166 180.249C163.647 189.849 165.138 199.755 169.541 208.562C172.176 213.831 170.039 220.24 164.77 222.874C159.501 225.509 153.092 223.372 150.458 218.103C142.363 201.914 141.036 183.171 146.76 165.999L149.885 156.624L150.343 155.468C151.576 152.841 153.838 150.814 156.624 149.885L165.999 146.76Z" fill="black"/>
<path d="M13.7911 13.7908C17.9567 9.62528 24.7088 9.62533 28.8744 13.7908L90.8328 75.7492C92.3518 66.1489 90.8614 56.2438 86.4578 47.4367C83.8233 42.1676 85.9596 35.7588 91.2286 33.1242C96.4977 30.4896 102.907 32.626 105.541 37.895C113.636 54.0848 114.963 72.8273 109.239 89.9992L106.114 99.3742L105.656 100.53C104.423 103.157 102.161 105.184 99.3744 106.114L89.9994 109.239C72.8276 114.963 54.085 113.636 37.8953 105.541C32.6263 102.906 30.49 96.4974 33.1244 91.2283C35.759 85.9593 42.1679 83.8231 47.4369 86.4575C56.2441 90.8611 66.1492 92.3515 75.7494 90.8325L13.7911 28.8742C9.62562 24.7086 9.62562 17.9564 13.7911 13.7908Z" fill="black"/>
<path d="M227.124 13.7908C231.29 9.62528 238.042 9.62533 242.208 13.7908C246.373 17.9564 246.373 24.7086 242.208 28.8742L180.249 90.8325C189.85 92.3515 199.755 90.861 208.562 86.4575C213.831 83.823 220.24 85.9593 222.874 91.2283C225.509 96.4974 223.373 102.906 218.104 105.541C201.914 113.636 183.171 114.963 165.999 109.239L156.624 106.114C153.838 105.184 151.576 103.157 150.343 100.53L149.885 99.3742L146.76 89.9992C141.036 72.8273 142.363 54.0848 150.458 37.895C153.092 32.6259 159.501 30.4897 164.77 33.1242C170.039 35.7587 172.176 42.1676 169.541 47.4367C165.138 56.2438 163.647 66.1489 165.166 75.7492L227.124 13.7908Z" fill="black"/>
</svg>
