<svg width="256" height="256" viewBox="0 0 256 256" fill="none" xmlns="http://www.w3.org/2000/svg">
<path fill-rule="evenodd" clip-rule="evenodd" d="M128 0C234.667 0 256 21.3333 256 128C256 234.667 234.667 256 128 256C21.3333 256 0 234.667 0 128C0 21.3333 21.3333 0 128 0ZM158.208 68.75C154.941 63.8484 148.318 62.5239 143.417 65.7917C124.761 78.2286 108.359 93.7507 94.9063 111.688L87.4688 121.604C84.626 125.396 84.626 130.604 87.4688 134.396L94.9063 144.313C108.359 162.249 124.761 177.771 143.417 190.208C148.318 193.476 154.941 192.152 158.208 187.25C161.476 182.348 160.152 175.726 155.25 172.458C138.608 161.363 123.97 147.522 111.969 131.521L109.323 128L111.969 124.479C123.97 108.478 138.608 94.6365 155.25 83.5417C160.152 80.2739 161.476 73.6516 158.208 68.75Z" fill="black"/>
</svg>
