<svg width="256" height="256" viewBox="0 0 256 256" fill="none" xmlns="http://www.w3.org/2000/svg">
<path d="M125.904 213.123C120.13 211.966 116.382 206.347 117.537 200.572C118.694 194.797 124.32 191.057 130.095 192.212C146.548 195.502 163.28 196.398 179.947 195.041L45.7951 60.8744C41.6295 56.7088 41.6295 49.955 45.7951 45.7894C49.961 41.6269 56.7155 41.6248 60.88 45.7894L195.164 180.088C196.566 163.46 195.55 146.797 192.21 130.097C191.055 124.322 194.796 118.696 200.57 117.539C206.347 116.383 211.974 120.137 213.129 125.913C218.375 152.142 218.525 178.5 213.114 204.815C212.247 209.032 208.929 212.316 204.703 213.138C178.674 218.195 152.022 218.347 125.904 213.123Z" fill="black"/>
</svg>
