<svg width="256" height="256" viewBox="0 0 256 256" fill="none" xmlns="http://www.w3.org/2000/svg">
<path fill-rule="evenodd" clip-rule="evenodd" d="M128 0C234.667 0 256 21.3333 256 128C256 234.667 234.667 256 128 256C21.3333 256 0 234.667 0 128C0 21.3333 21.3333 0 128 0ZM69.9167 65.7917C65.015 62.5239 58.3928 63.8484 55.125 68.75C51.8572 73.6516 53.1817 80.2739 58.0833 83.5417C74.7256 94.6365 89.3634 108.478 101.365 124.479L104.01 128L101.365 131.521C89.3634 147.522 74.7256 161.363 58.0833 172.458C53.1817 175.726 51.8572 182.348 55.125 187.25C58.3928 192.152 65.015 193.476 69.9167 190.208C88.5721 177.771 104.974 162.249 118.427 144.313L125.865 134.396C128.707 130.604 128.707 125.396 125.865 121.604L118.427 111.688C104.974 93.7507 88.5721 78.2286 69.9167 65.7917ZM144.583 65.7917C139.682 62.5239 133.059 63.8484 129.792 68.75C126.524 73.6516 127.848 80.2739 132.75 83.5417C149.392 94.6365 164.03 108.478 176.031 124.479L178.677 128L176.031 131.521C164.03 147.522 149.392 161.363 132.75 172.458C127.848 175.726 126.524 182.348 129.792 187.25C133.059 192.152 139.682 193.476 144.583 190.208C163.239 177.771 179.641 162.249 193.094 144.313L200.531 134.396C203.374 130.604 203.374 125.396 200.531 121.604L193.094 111.688C179.641 93.7507 163.239 78.2286 144.583 65.7917Z" fill="black"/>
</svg>
