<svg width="256" height="256" viewBox="0 0 256 256" fill="none" xmlns="http://www.w3.org/2000/svg">
<path d="M107.792 5.89785C110.427 0.632297 116.837 -1.50599 122.104 1.12702C137.872 9.01076 150.869 21.8988 158.781 37.7208C160.338 40.8338 160.336 44.503 158.781 47.6166C150.87 63.439 137.871 76.326 122.104 84.2104C116.835 86.8446 110.426 84.7082 107.792 79.4395C105.16 74.1712 107.295 67.761 112.563 65.127C118.588 62.114 124.044 58.0985 128.729 53.3354H128C103.736 53.3354 84.9621 54.3976 70.3646 57.1166C55.8105 59.8282 46.2327 64.0449 39.6354 69.7416C26.6049 80.9967 21.3337 101.436 21.3333 144.002C21.3334 186.569 26.6055 207.007 39.6354 218.262C46.2327 223.96 55.809 228.175 70.3646 230.887C84.9622 233.607 103.735 234.669 128 234.669C152.262 234.669 171.028 233.606 185.625 230.887C200.183 228.176 209.767 223.961 216.365 218.262C229.393 207.007 234.667 186.567 234.667 144.002C234.666 118.038 232.749 100 227.969 87.2104C223.475 75.1924 216.418 67.6797 204.656 62.5958C199.251 60.2588 196.759 53.9813 199.094 48.5749C201.432 43.1705 207.709 40.6771 213.115 43.0124C230.292 50.436 241.465 62.371 247.958 79.7416C254.165 96.3465 256 117.667 256 144.002C256 185.873 251.49 216.108 230.302 234.408C219.79 243.486 206.138 248.773 189.531 251.867C172.964 254.952 152.621 256.002 128 256.002C103.376 256.002 83.0271 254.953 66.4583 251.867C49.854 248.773 36.2095 243.485 25.6979 234.408C4.51031 216.108 6.48419e-05 185.873 0 144.002C0.000326756 102.132 4.50908 71.8952 25.6979 53.5958C36.2093 44.5195 49.8547 39.2307 66.4583 36.1374C83.0269 33.0512 103.377 32.002 128 32.002H128.729C124.041 27.2424 118.586 23.2224 112.563 20.2104C107.294 17.5755 105.157 11.1666 107.792 5.89785Z" fill="black"/>
</svg>
