<svg width="256" height="256" viewBox="0 0 256 256" fill="none" xmlns="http://www.w3.org/2000/svg">
<path fill-rule="evenodd" clip-rule="evenodd" d="M128 0C234.667 0 256 21.3333 256 128C256 234.667 234.667 256 128 256C21.3333 256 0 234.667 0 128C0 21.3333 21.3333 0 128 0ZM167.542 77.7917C163.376 73.6268 156.624 73.6263 152.458 77.7917C148.294 81.9571 148.294 88.7096 152.458 92.875L156.927 97.3438C163.057 103.474 168.562 110.176 173.406 117.333H64C58.1094 117.333 53.3341 122.11 53.3333 128C53.3333 133.891 58.109 138.667 64 138.667H173.406C168.562 145.824 163.057 152.526 156.927 158.656L152.458 163.125C148.294 167.29 148.294 174.043 152.458 178.208C156.624 182.374 163.376 182.373 167.542 178.208L172.01 173.74C183.991 161.759 193.965 147.926 201.542 132.771C202.854 130.145 203.015 127.113 202.031 124.385L201.542 123.229C193.965 108.074 183.991 94.2415 172.01 82.2604L167.542 77.7917Z" fill="black"/>
</svg>
