<svg width="256" height="256" viewBox="0 0 256 256" fill="none" xmlns="http://www.w3.org/2000/svg">
<path d="M87.4693 219.726C91.0035 224.438 97.6837 225.395 102.396 221.862C131.677 199.901 156.42 172.465 175.251 141.08L179.813 133.487C181.84 130.109 181.84 125.885 179.813 122.507L175.251 114.914C156.42 83.5288 131.677 56.0928 102.396 34.1324C97.6837 30.5993 91.0035 31.5556 87.4693 36.2678C83.9362 40.9806 84.8925 47.6607 89.6047 51.1949C116.676 71.4988 139.548 96.8655 156.959 125.882L158.219 127.997L156.959 130.112C139.548 159.128 116.676 184.495 89.6047 204.799C84.8925 208.333 83.9362 215.013 87.4693 219.726Z" fill="black"/>
</svg>
