<svg width="256" height="256" viewBox="0 0 256 256" fill="none" xmlns="http://www.w3.org/2000/svg">
<path fill-rule="evenodd" clip-rule="evenodd" d="M128 0C234.667 0 256 21.3333 256 128C256 234.667 234.667 256 128 256C21.3333 256 0 234.667 0 128C0 21.3333 21.3333 0 128 0ZM128 53.3333C122.109 53.3333 117.333 58.109 117.333 64V173.406C110.176 168.562 103.474 163.057 97.3438 156.927L92.875 152.458C88.7096 148.294 81.9571 148.294 77.7917 152.458C73.6263 156.624 73.6268 163.376 77.7917 167.542L82.2604 172.01C94.2412 183.991 108.074 193.965 123.229 201.542C125.855 202.854 128.887 203.015 131.615 202.031L132.771 201.542C147.926 193.965 161.759 183.991 173.74 172.01L178.208 167.542C182.373 163.376 182.374 156.624 178.208 152.458C174.043 148.294 167.29 148.294 163.125 152.458L158.656 156.927C152.526 163.057 145.824 168.562 138.667 173.406V64C138.667 58.1094 133.89 53.3341 128 53.3333Z" fill="black"/>
</svg>
