<svg width="256" height="256" viewBox="0 0 256 256" fill="none" xmlns="http://www.w3.org/2000/svg">
<path d="M79.4161 65.7926C84.3178 62.5249 90.94 63.8493 94.2078 68.751C97.4756 73.6526 96.1511 80.2749 91.2495 83.5426L88.9786 85.053C75.4934 94.0434 63.4148 104.928 53.0828 117.334H223.999C229.891 117.334 234.666 122.11 234.666 128.001C234.666 133.892 229.891 138.668 223.999 138.668H53.0828C63.4148 151.074 75.4934 161.959 88.9786 170.949L91.2495 172.459C96.1511 175.727 97.4756 182.349 94.2078 187.251C90.94 192.153 84.3178 193.477 79.4161 190.209L77.1453 188.699C56.3475 174.833 38.5003 156.986 24.6349 136.188L23.1245 133.918C20.7359 130.335 20.7359 125.667 23.1245 122.084L24.6349 119.813C38.5003 99.0156 56.3475 81.1685 77.1453 67.303L79.4161 65.7926Z" fill="black"/>
</svg>
