<svg width="256" height="256" viewBox="0 0 256 256" fill="none" xmlns="http://www.w3.org/2000/svg">
<path d="M168.531 219.726C164.997 224.438 158.316 225.395 153.604 221.862C124.323 199.901 99.5805 172.465 80.7496 141.08L76.1871 133.487C74.1603 130.109 74.1603 125.885 76.1871 122.507L80.7496 114.914C99.5805 83.5288 124.323 56.0928 153.604 34.1324C158.316 30.5993 164.997 31.5556 168.531 36.2678C172.064 40.9806 171.108 47.6607 166.395 51.1949C139.324 71.4988 116.452 96.8655 99.0412 125.882L97.7808 127.997L99.0412 130.112C116.452 159.128 139.324 184.495 166.395 204.799C171.108 208.333 172.064 215.013 168.531 219.726Z" fill="black"/>
</svg>
