<svg width="256" height="256" viewBox="0 0 256 256" fill="none" xmlns="http://www.w3.org/2000/svg">
<path d="M125.905 43.1494C120.131 44.3067 116.383 49.9253 117.538 55.7005C118.694 61.4748 124.314 65.2204 130.089 64.0679C146.537 60.778 163.269 59.8759 179.933 61.2321L45.7959 195.118C41.628 199.279 41.6224 206.034 45.7812 210.203C49.9425 214.372 56.6966 214.378 60.8661 210.218L195.172 76.1624C196.57 92.7021 195.549 109.22 192.211 125.91C191.056 131.687 194.802 137.306 200.579 138.461C206.354 139.615 211.975 135.87 213.13 130.094C218.376 103.864 218.527 77.7743 213.115 51.4579C212.248 47.24 208.93 43.9563 204.703 43.1346C178.675 38.0779 152.023 37.9252 125.905 43.1494Z" fill="black"/>
</svg>
