<svg width="256" height="256" viewBox="0 0 256 256" fill="none" xmlns="http://www.w3.org/2000/svg">
<path d="M90.3438 44.2895C95.3376 41.1689 101.918 42.6837 105.042 47.6749C108.163 52.669 106.648 59.2494 101.656 62.3728C88.3076 70.7158 77.3809 82.3174 69.8438 95.9978C102.108 95.9978 131.679 95.998 154.688 95.9978C187.095 95.9976 213.332 122.272 213.333 154.664C213.333 187.065 187.067 213.33 154.667 213.331H138.667C132.776 213.331 128 208.555 128 202.664C128.002 196.776 132.777 191.998 138.667 191.998H154.667C175.285 191.997 192 175.283 192 154.664C191.998 134.039 175.298 117.331 154.688 117.331C131.679 117.331 102.108 117.331 69.8438 117.331C77.3808 131.013 88.3071 142.613 101.656 150.956C106.649 154.079 108.162 160.66 105.042 165.654C101.919 170.647 95.3382 172.161 90.3438 169.039C69.9443 156.288 54.1331 137.375 45.198 115.039L43.4272 110.623C42.4125 108.082 42.4121 105.247 43.4272 102.706L45.198 98.2895C54.1334 75.9538 69.9443 57.0403 90.3438 44.2895Z" fill="black"/>
</svg>
