<svg width="256" height="256" viewBox="0 0 256 256" fill="none" xmlns="http://www.w3.org/2000/svg">
<path d="M130.095 42.8785C135.87 44.0356 139.618 49.6542 138.463 55.4296C137.306 61.2035 131.686 64.9498 125.912 63.7971C109.456 60.5056 92.7167 59.6096 76.0458 60.9686L210.205 195.127C214.37 199.293 214.37 206.047 210.205 210.212C206.039 214.375 199.284 214.377 195.12 210.212L60.8357 75.9284C59.4358 92.5534 60.457 109.215 63.7967 125.912C64.9496 131.686 61.2029 137.307 55.4292 138.463C49.6537 139.618 44.035 135.87 42.8781 130.096C37.6315 103.865 37.4738 77.5037 42.8855 51.187C43.7527 46.9694 47.0706 43.6857 51.2971 42.8638C77.3258 37.807 103.977 37.6544 130.095 42.8785Z" fill="black"/>
</svg>
