<svg width="256" height="256" viewBox="0 0 256 256" fill="none" xmlns="http://www.w3.org/2000/svg">
<path fill-rule="evenodd" clip-rule="evenodd" d="M128 0C234.667 0 256 21.3333 256 128C256 234.667 234.667 256 128 256C21.3333 256 0 234.667 0 128C0 21.3333 21.3333 0 128 0ZM112.583 65.7917C107.682 62.5239 101.059 63.8484 97.7917 68.75C94.5239 73.6516 95.8484 80.2739 100.75 83.5417C117.392 94.6365 132.03 108.478 144.031 124.479L146.677 128L144.031 131.521C132.03 147.522 117.392 161.363 100.75 172.458C95.8484 175.726 94.5239 182.348 97.7917 187.25C101.059 192.152 107.682 193.476 112.583 190.208C131.239 177.771 147.641 162.249 161.094 144.313L168.531 134.396C171.374 130.604 171.374 125.396 168.531 121.604L161.094 111.688C147.641 93.7507 131.239 78.2286 112.583 65.7917Z" fill="black"/>
</svg>
