<svg width="256" height="256" viewBox="0 0 256 256" fill="none" xmlns="http://www.w3.org/2000/svg">
<path fill-rule="evenodd" clip-rule="evenodd" d="M128 0C234.667 0 256 21.3333 256 128C256 234.667 234.667 256 128 256C21.3333 256 0 234.667 0 128C0 21.3333 21.3333 0 128 0ZM126.208 68.75C122.941 63.8484 116.318 62.5239 111.417 65.7917C92.7612 78.2286 76.3589 93.7507 62.9063 111.688L55.4688 121.604C52.626 125.396 52.626 130.604 55.4688 134.396L62.9063 144.313C76.3589 162.249 92.7612 177.771 111.417 190.208C116.318 193.476 122.941 192.152 126.208 187.25C129.476 182.348 128.152 175.726 123.25 172.458C106.608 161.363 91.9699 147.522 79.9688 131.521L77.3229 128L79.9688 124.479C91.9699 108.478 106.608 94.6365 123.25 83.5417C128.152 80.2739 129.476 73.6516 126.208 68.75ZM200.875 68.75C197.607 63.8484 190.985 62.5239 186.083 65.7917C167.428 78.2286 151.026 93.7507 137.573 111.688L130.135 121.604C127.293 125.396 127.293 130.604 130.135 134.396L137.573 144.313C151.026 162.249 167.428 177.771 186.083 190.208C190.985 193.476 197.607 192.152 200.875 187.25C204.143 182.348 202.818 175.726 197.917 172.458C181.274 161.363 166.637 147.522 154.635 131.521L151.99 128L154.635 124.479C166.637 108.478 181.274 94.6365 197.917 83.5417C202.818 80.2739 204.143 73.6516 200.875 68.75Z" fill="black"/>
</svg>
