<svg width="256" height="256" viewBox="0 0 256 256" fill="none" xmlns="http://www.w3.org/2000/svg">
<path d="M219.729 179.197C224.441 175.663 225.398 168.983 221.864 164.27C199.904 134.989 172.468 110.247 141.083 91.4158L133.489 86.8533C130.112 84.8266 125.888 84.8266 122.51 86.8533L114.917 91.4158C83.5317 110.247 56.0958 134.989 34.1353 164.27C30.6022 168.983 31.5585 175.663 36.2708 179.197C40.9835 182.73 47.6636 181.774 51.1978 177.062C71.5017 149.99 96.8684 127.118 125.885 109.707L128 108.447L130.114 109.707C159.131 127.118 184.498 149.99 204.802 177.062C208.336 181.774 215.016 182.73 219.729 179.197Z" fill="black"/>
</svg>
