<svg width="256" height="256" viewBox="0 0 256 256" fill="none" xmlns="http://www.w3.org/2000/svg">
<path d="M36.2708 87.4708C31.5585 91.005 30.6022 97.6851 34.1353 102.398C56.0958 131.678 83.5317 156.421 114.917 175.252L122.51 179.815C125.888 181.841 130.112 181.841 133.49 179.815L141.083 175.252C172.468 156.421 199.904 131.678 221.865 102.398C225.398 97.6851 224.441 91.005 219.729 87.4708C215.016 83.9376 208.336 84.8939 204.802 89.6062C184.498 116.678 159.131 139.55 130.115 156.96L128 158.221L125.885 156.96C96.8685 139.55 71.5017 116.678 51.1978 89.6062C47.6636 84.8939 40.9835 83.9376 36.2708 87.4708Z" fill="black"/>
</svg>
