<svg width="256" height="256" viewBox="0 0 256 256" fill="none" xmlns="http://www.w3.org/2000/svg">
<path fill-rule="evenodd" clip-rule="evenodd" d="M128 0C234.667 0 256 21.3333 256 128C256 234.667 234.667 256 128 256C21.3333 256 0 234.667 0 128C0 21.3333 21.3333 0 128 0ZM103.542 77.7917C99.3763 73.6263 92.624 73.6268 88.4583 77.7917L83.9896 82.2604C72.0088 94.2412 62.0354 108.074 54.4583 123.229C53.1457 125.855 52.9852 128.887 53.9688 131.615L54.4583 132.771C62.0348 147.926 72.0086 161.759 83.9896 173.74L88.4583 178.208C92.624 182.373 99.3763 182.374 103.542 178.208C107.706 174.043 107.706 167.29 103.542 163.125L99.0729 158.656C92.9429 152.526 87.4377 145.824 82.5938 138.667H192C197.891 138.667 202.666 133.89 202.667 128C202.667 122.109 197.891 117.333 192 117.333H82.5938C87.438 110.176 92.9428 103.474 99.0729 97.3438L103.542 92.875C107.706 88.7096 107.706 81.9571 103.542 77.7917Z" fill="black"/>
</svg>
