<svg width="256" height="256" viewBox="0 0 256 256" fill="none" xmlns="http://www.w3.org/2000/svg">
<path d="M79.4167 119.125C84.318 115.858 90.9406 117.183 94.2083 122.084C97.4759 126.985 96.1511 133.608 91.25 136.875C82.7728 142.527 73.1654 151.066 64.8854 160H213.333C219.224 160.001 223.999 164.777 224 170.667C224 176.558 219.224 181.334 213.333 181.334H64.8854C73.1654 190.269 82.7727 198.807 91.25 204.459C96.1513 207.726 97.4754 214.349 94.2083 219.25C90.9406 224.152 84.3183 225.477 79.4167 222.209C63.3081 211.47 44.5307 192.692 33.7917 176.584C31.4036 173.001 31.4033 168.333 33.7917 164.75C44.5308 148.642 63.3082 129.864 79.4167 119.125Z" fill="black"/>
<path d="M161.792 36.7505C165.059 31.8497 171.682 30.525 176.583 33.7922C192.692 44.5311 211.469 63.3087 222.208 79.4172C224.597 82.9998 224.596 87.6677 222.208 91.2505C211.469 107.359 192.692 126.136 176.583 136.875C171.682 140.143 165.059 138.819 161.792 133.917C158.525 129.016 159.849 122.393 164.75 119.125C173.227 113.474 182.835 104.935 191.115 96.0005H42.6667C36.7757 96.0005 32 91.2248 32 85.3338C32.0006 79.4433 36.776 74.6672 42.6667 74.6672H191.115C182.835 65.7323 173.227 57.1937 164.75 51.5422C159.849 48.2743 158.524 41.652 161.792 36.7505Z" fill="black"/>
</svg>
