<svg width="256" height="256" viewBox="0 0 256 256" fill="none" xmlns="http://www.w3.org/2000/svg">
<path d="M99.1218 141.785C103.286 137.62 110.039 137.623 114.205 141.785C118.371 145.95 118.371 152.702 114.205 156.868L52.2468 218.826C61.8464 220.345 71.7524 218.854 80.5593 214.451C85.8266 211.818 92.2357 213.957 94.8718 219.222C97.5061 224.491 95.3699 230.9 90.1009 233.535C73.9112 241.628 55.1682 242.956 37.9968 237.232L28.6218 234.107C25.8377 233.177 23.5722 231.149 22.3405 228.524L21.8822 227.368L18.7572 217.993C13.0351 200.823 14.3606 182.076 22.4551 165.889C25.0895 160.623 31.5002 158.488 36.7676 161.118C42.0359 163.752 44.1716 170.162 41.5384 175.43C37.1353 184.236 35.6455 194.144 37.1634 203.743L99.1218 141.785Z" fill="black"/>
<path d="M141.788 141.785C145.953 137.62 152.706 137.623 156.872 141.785L218.83 203.743C220.348 194.144 218.858 184.236 214.455 175.43C211.825 170.163 213.96 163.752 219.226 161.118C224.493 158.484 230.902 160.623 233.538 165.889C241.632 182.077 242.959 200.822 237.236 217.993L234.111 227.368L233.653 228.524C232.421 231.151 230.158 233.178 227.372 234.107L217.997 237.232C200.826 242.955 182.081 241.629 165.893 233.535C160.627 230.898 158.488 224.489 161.122 219.222C163.756 213.956 170.167 211.821 175.434 214.451C184.24 218.854 194.148 220.344 203.747 218.826L141.788 156.868C137.627 152.702 137.624 145.949 141.788 141.785Z" fill="black"/>
<path d="M37.9968 18.7533C55.1668 13.0299 73.9123 14.3586 90.1009 22.4512C95.3695 25.0855 97.505 31.4949 94.8718 36.7637C92.2372 42.0328 85.8284 44.1691 80.5593 41.5345C71.7534 37.133 61.8452 35.6408 52.2468 37.1595L114.205 99.1179C118.371 103.283 118.371 110.036 114.205 114.201C110.04 118.367 103.287 118.367 99.1218 114.201L37.1634 52.2429C35.6447 61.8413 37.1369 71.7495 41.5384 80.5554C44.173 85.8245 42.0367 92.2333 36.7676 94.8679C31.4988 97.5011 25.0894 95.3656 22.4551 90.097C14.3625 73.9084 13.0338 55.1629 18.7572 37.9929L21.8822 28.6179L22.3405 27.4616C23.5728 24.8364 25.8372 22.8082 28.6218 21.8783L37.9968 18.7533Z" fill="black"/>
<path d="M165.893 22.4512C182.08 14.3567 200.827 13.0312 217.997 18.7533L227.372 21.8783C230.052 22.7727 232.273 24.6953 233.538 27.222C241.632 43.4106 242.959 62.1555 237.236 79.3262L234.111 88.7012C232.247 94.2878 226.209 97.3032 220.622 95.4408C215.038 93.5747 212.02 87.5371 213.882 81.9512L216.997 72.5762C219.222 65.8967 219.903 58.8708 219.059 52.0137L156.872 114.201C152.706 118.367 145.954 118.367 141.788 114.201C137.627 110.035 137.624 103.282 141.788 99.1179L203.747 37.1595C194.148 35.6416 184.24 37.1314 175.434 41.5345C170.166 44.1677 163.756 42.032 161.122 36.7637C158.492 31.4963 160.627 25.0856 165.893 22.4512Z" fill="black"/>
</svg>
