<svg width="256" height="256" viewBox="0 0 256 256" fill="none" xmlns="http://www.w3.org/2000/svg">
<path d="M23.5832 36.1128C27.2005 31.4661 33.9031 30.6329 38.552 34.2482L41.3853 36.4565C70.1577 58.8351 96.2182 84.4861 119.031 112.894L123.542 118.613C127.836 124.134 127.836 131.862 123.542 137.384C99.6719 168.073 72.0747 195.67 41.3853 219.54L38.552 221.748C33.9031 225.364 27.2006 224.531 23.5832 219.884C19.9679 215.235 20.8011 208.532 25.4478 204.915L28.2916 202.707C56.3404 180.891 81.6772 155.806 103.781 127.998C81.6773 100.19 56.3402 75.1055 28.2916 53.2899L25.4478 51.0815C20.8014 47.464 19.9676 40.7615 23.5832 36.1128Z" fill="black"/>
<path d="M119.583 36.1128C123.2 31.4661 129.903 30.633 134.552 34.2482L137.385 36.4565C166.158 58.8351 192.218 84.4861 215.031 112.894L219.542 118.613C223.836 124.134 223.836 131.862 219.542 137.384C195.672 168.073 168.075 195.67 137.385 219.54L134.552 221.748C129.903 225.364 123.201 224.53 119.583 219.884C115.968 215.235 116.801 208.532 121.448 204.915L124.292 202.707C152.34 180.891 177.677 155.806 199.781 127.998C177.677 100.191 152.34 75.1054 124.292 53.2899L121.448 51.0815C116.801 47.464 115.968 40.7615 119.583 36.1128Z" fill="black"/>
</svg>
