<svg width="256" height="256" viewBox="0 0 256 256" fill="none" xmlns="http://www.w3.org/2000/svg">
<path d="M161.791 68.751C165.059 63.8493 171.681 62.5249 176.583 65.7926L177.521 66.4176C199.197 80.8691 217.798 99.4698 232.25 121.147L232.875 122.084C235.263 125.667 235.263 130.335 232.875 133.918L232.25 134.855C217.798 156.532 199.197 175.133 177.521 189.584L176.583 190.209C171.681 193.477 165.059 192.153 161.791 187.251C158.524 182.349 159.848 175.727 164.75 172.459L165.687 171.834C179.579 162.573 192.046 151.395 202.75 138.668H31.9997C26.1086 138.668 21.333 133.892 21.333 128.001C21.333 122.11 26.1086 117.334 31.9997 117.334H202.75C192.046 104.607 179.579 93.4287 165.687 84.1676L164.75 83.5426C159.848 80.2749 158.524 73.6526 161.791 68.751Z" fill="black"/>
</svg>
