<svg width="256" height="256" viewBox="0 0 256 256" fill="none" xmlns="http://www.w3.org/2000/svg">
<path fill-rule="evenodd" clip-rule="evenodd" d="M128 0C234.667 4.06905e-06 256 21.3333 256 128C256 234.667 234.667 256 128 256C21.3334 256 0 234.667 0 128C0 21.3333 21.3334 0 128 0ZM132.771 43.7917C130.142 42.4772 127.105 42.3152 124.375 43.3021L123.229 43.7917L110.729 50.0417C88.884 60.9653 72.2765 80.1212 64.5521 103.292C62.6895 108.879 65.7049 114.917 71.2917 116.781C76.8794 118.644 82.9171 115.628 84.7813 110.042C90.3644 93.2921 102 79.2783 117.333 70.6875V202.667C117.333 208.558 122.109 213.333 128 213.333C133.891 213.333 138.667 208.558 138.667 202.667V70.6875C154 79.2783 165.636 93.2921 171.219 110.042C173.083 115.628 179.121 118.644 184.708 116.781C190.295 114.917 193.31 108.879 191.448 103.292C183.723 80.1212 167.116 60.9653 145.271 50.0417L132.771 43.7917Z" fill="black"/>
</svg>
