<svg width="256" height="256" viewBox="0 0 256 256" fill="none" xmlns="http://www.w3.org/2000/svg">
<path d="M223.375 88.0943C228.738 88.0963 233.271 92.1103 233.677 97.4589C234.367 106.564 234.666 116.709 234.666 128.001C234.666 216.888 216.888 234.667 128 234.667C91.5985 234.667 67.1402 231.671 50.9372 222.042C52.2422 226.577 53.9482 231.001 56.0726 235.251L57.3538 237.792C59.9881 243.061 57.841 249.47 52.5726 252.105C47.3052 254.736 40.9056 252.6 38.2705 247.334L36.9997 244.792C30.0815 230.955 26.469 215.7 26.4684 200.23C26.4684 195.993 28.8673 192.116 32.6559 190.219L34.6143 189.23C48.6437 182.215 64.1268 178.563 79.8122 178.563C85.7008 178.566 90.4788 183.351 90.4788 189.24C90.4765 195.129 85.6913 199.907 79.8018 199.907C73.0453 199.907 66.3406 200.766 59.8434 202.448C63.8287 205.25 69.5644 207.755 78.333 209.646C90.2418 212.215 106.202 213.334 128 213.334C149.798 213.334 165.758 212.215 177.666 209.646C189.334 207.13 195.635 203.532 199.583 199.584C203.531 195.636 207.129 189.335 209.646 177.667C212.214 165.759 213.333 149.798 213.333 128.001C213.333 117.384 213.061 108.147 212.489 100.094C212.04 93.72 216.984 88.0943 223.375 88.0943Z" fill="black"/>
<path d="M197.896 3.88594C203.164 1.25265 209.574 3.39877 212.208 8.66719L213.468 11.1984C220.388 25.0374 224.01 40.2988 224.01 55.7714C224.01 60.0075 221.61 63.8851 217.823 65.7818L215.854 66.7609C201.825 73.7753 186.351 77.4275 170.666 77.4276C164.776 77.4271 160 72.6516 160 66.7609C160 60.8707 164.776 56.0948 170.666 56.0943C178.751 56.0942 186.758 54.8453 194.427 52.4484C190.554 50.0966 185.25 47.9904 177.666 46.3547C165.758 43.7864 149.798 42.6672 128 42.6672C106.201 42.6672 90.2418 43.7864 78.333 46.3547C66.6642 48.8715 60.3646 52.4689 56.4163 56.4172C52.4684 60.3656 48.8705 66.6658 46.3538 78.3339C43.7858 90.2425 42.6663 106.203 42.6663 128.001C42.6664 132.521 42.718 136.79 42.8226 140.823C42.9814 146.944 38.1219 152.094 31.9997 152.094C26.3346 152.092 21.6476 147.654 21.4997 141.99C21.3833 137.535 21.333 132.875 21.333 128.001C21.333 39.1116 39.1108 21.3339 128 21.3339C159.768 21.3339 182.445 23.6166 198.479 30.5943C197.344 27.2318 195.992 23.9335 194.396 20.7401L193.125 18.1984C190.492 12.93 192.628 6.52048 197.896 3.88594Z" fill="black"/>
</svg>
