<svg width="256" height="256" viewBox="0 0 256 256" fill="none" xmlns="http://www.w3.org/2000/svg">
<path fill-rule="evenodd" clip-rule="evenodd" d="M128 0C175.335 0 200.604 31.684 209.535 76.1909C210.268 79.8452 211.843 83.2812 214.048 86.2859C227.01 103.947 234.666 125.746 234.666 149.333C234.666 234.667 210.963 256 128 256C45.0367 256 21.333 234.667 21.333 149.333C21.333 125.748 28.9823 103.947 41.9417 86.2857C44.1464 83.2811 45.7205 79.8454 46.4537 76.1915C55.3856 31.6835 80.6634 1.70227e-06 128 0ZM128 117.333C104.436 117.333 85.333 136.436 85.333 160C85.333 183.564 104.436 202.667 128 202.667C151.564 202.667 170.666 183.564 170.666 160C170.666 136.436 151.564 117.333 128 117.333Z" fill="black"/>
</svg>
