<svg width="256" height="256" viewBox="0 0 256 256" fill="none" xmlns="http://www.w3.org/2000/svg">
<path d="M253.458 107.417C255.272 119.234 256 133.096 256 149.333C256 238.222 234.667 256 128 256C21.3333 256 0 238.222 0 149.333C0 133.096 0.727778 119.234 2.54167 107.417C21.9301 119.451 42.641 128.431 64 134.385V149.333C64.0014 155.223 68.7765 160 74.6667 160C80.5568 160 85.3319 155.223 85.3333 149.333V139.271C113.538 144.399 142.462 144.399 170.667 139.271V149.333C170.668 155.223 175.443 160 181.333 160C187.224 160 191.999 155.223 192 149.333V134.385C213.359 128.431 234.07 119.451 253.458 107.417Z" fill="black"/>
<path fill-rule="evenodd" clip-rule="evenodd" d="M128 0C165.906 0.000565599 182.223 8.98954 188.51 46.1042C221.294 51.1406 239.008 62.5472 247.948 85.6042C230.036 97.516 210.772 106.466 190.833 112.5C189.07 109.039 185.484 106.667 181.333 106.667C175.442 106.667 170.667 111.442 170.667 117.333V117.542C142.511 123.184 113.489 123.184 85.3333 117.542V117.333C85.3333 111.442 80.5577 106.667 74.6667 106.667C70.5148 106.667 66.9187 109.037 65.1563 112.5C45.2211 106.466 25.9612 97.5141 8.05208 85.6042C16.9892 62.5544 34.6944 51.143 67.4583 46.1042C73.7454 8.98524 90.0922 0.000617209 128 0ZM128 21.3333C102.467 21.3338 97.3514 25.8805 94.2917 30.9792C92.6752 33.6749 91.0534 37.6862 89.6563 43.75C101.015 42.9877 113.746 42.6667 128 42.6667C142.241 42.6667 154.961 42.9892 166.313 43.75C164.916 37.69 163.324 33.6739 161.708 30.9792C158.649 25.8805 153.533 21.3338 128 21.3333Z" fill="black"/>
</svg>
