<svg width="256" height="256" viewBox="0 0 256 256" fill="none" xmlns="http://www.w3.org/2000/svg">
<path d="M172.469 140.792C177.663 178.522 177.391 216.83 171.594 254.51C158.947 255.557 144.489 256 128 256C111.859 256 97.6736 255.572 85.2188 254.573C85.2043 254.466 85.2053 254.357 85.1875 254.25C78.931 216.711 78.3903 178.458 83.5313 140.792C112.781 147.437 143.219 147.437 172.469 140.792Z" fill="black"/>
<path d="M3.42708 102.281C21.6163 116.775 41.7294 127.635 62.8021 134.885C57.2046 173.684 57.3598 213.096 63.2292 251.865C12.0374 242.736 0 216.099 0 149.333C0 130.681 0.957136 115.164 3.42708 102.281Z" fill="black"/>
<path d="M252.563 102.281C255.033 115.164 256 130.68 256 149.333C256 215.762 244.083 242.46 193.542 251.719C198.926 212.947 198.818 173.615 193.198 134.885C214.268 127.636 234.375 116.773 252.563 102.281Z" fill="black"/>
<path fill-rule="evenodd" clip-rule="evenodd" d="M128 0C165.903 0.000565548 182.221 8.98762 188.51 46.0938C218.669 50.7279 236.071 60.7623 245.625 80.2917C178.303 139.167 77.6847 139.17 10.3646 80.2917C19.9147 60.7658 37.3128 50.729 67.4583 46.0938C73.7466 8.98332 90.0957 0.000617153 128 0ZM128 16C102.185 16.0005 94.3469 20.5179 89.7188 28.2292C87.5854 31.7854 85.669 36.8441 84.1146 44.1667C83.8463 44.1891 83.5792 44.2165 83.3125 44.2396C96.2205 43.1249 111.03 42.6667 128 42.6667C144.948 42.6667 159.74 43.1277 172.635 44.2396C172.384 44.2178 172.128 44.1879 171.875 44.1667C170.321 36.8448 168.415 31.7852 166.281 28.2292C161.653 20.5179 153.815 16.0004 128 16Z" fill="black"/>
</svg>
