<svg width="256" height="256" viewBox="0 0 256 256" fill="none" xmlns="http://www.w3.org/2000/svg">
<path fill-rule="evenodd" clip-rule="evenodd" d="M128 0C158.153 0 183.42 20.8562 190.198 48.9271C210.786 52.1839 227.456 67.7 232.021 88.2396L236.979 110.552C242.534 135.547 245.334 161.083 245.334 186.688C245.331 220.445 219.427 248.56 185.782 251.313L174.365 252.24C143.51 254.764 112.491 254.764 81.6357 252.24L70.2191 251.313C36.5738 248.56 10.6695 220.445 10.667 186.688C10.667 161.083 13.467 135.547 19.0212 110.552L23.9795 88.2396C28.5443 67.7034 45.2087 52.1874 65.792 48.9271C72.5696 20.855 97.8465 0 128 0ZM85.3337 96C85.3337 101.891 80.558 106.667 74.667 106.667C68.776 106.667 64.0003 101.891 64.0003 96V77.5417C57.6288 81.2316 53.3337 88.1074 53.3337 96C53.3337 107.782 62.8849 117.333 74.667 117.333C86.4491 117.333 96.0003 107.782 96.0003 96C96.0003 88.1074 91.7052 81.2316 85.3337 77.5417V96ZM192 96C192 101.891 187.225 106.667 181.334 106.667C175.443 106.667 170.667 101.891 170.667 96V77.5417C164.295 81.2316 160 88.1074 160 96C160 107.782 169.552 117.333 181.334 117.333C193.116 117.333 202.667 107.782 202.667 96C202.667 88.1074 198.372 81.2316 192 77.5417V96ZM128 21.3333C110.528 21.3333 95.5149 31.8386 88.917 46.875C114.94 45.1646 141.05 45.165 167.073 46.875C160.474 31.8406 145.471 21.3333 128 21.3333Z" fill="black"/>
</svg>
