<svg width="256" height="256" viewBox="0 0 256 256" fill="none" xmlns="http://www.w3.org/2000/svg">
<path fill-rule="evenodd" clip-rule="evenodd" d="M128 21.3333C149.024 21.3333 166.731 22.0436 181.615 23.8333C195.311 92.5983 195.311 163.391 181.615 232.156C166.73 233.946 149.025 234.667 128 234.667C106.971 234.667 89.2613 233.947 74.375 232.156C60.6789 163.393 60.6788 92.597 74.375 23.8333C89.2611 22.0427 106.971 21.3333 128 21.3333ZM106.667 170.667C97.7778 170.667 96 172.444 96 181.333C96 190.222 97.7778 192 106.667 192C115.556 192 117.333 190.222 117.333 181.333C117.333 172.444 115.556 170.667 106.667 170.667ZM149.333 170.667C140.444 170.667 138.667 172.444 138.667 181.333C138.667 190.222 140.444 192 149.333 192C158.222 192 160 190.222 160 181.333C160 172.444 158.222 170.667 149.333 170.667ZM106.667 117.333C97.7778 117.333 96 119.111 96 128C96 136.889 97.7778 138.667 106.667 138.667C115.556 138.667 117.333 136.889 117.333 128C117.333 119.111 115.556 117.333 106.667 117.333ZM149.333 117.333C140.444 117.333 138.667 119.111 138.667 128C138.667 136.889 140.444 138.667 149.333 138.667C158.222 138.667 160 136.889 160 128C160 119.111 158.222 117.333 149.333 117.333ZM106.667 63.9999C97.7778 63.9999 96 65.7777 96 74.6666C96 83.5555 97.7778 85.3333 106.667 85.3333C115.556 85.3333 117.333 83.5555 117.333 74.6666C117.333 65.7777 115.556 63.9999 106.667 63.9999ZM149.333 63.9999C140.444 63.9999 138.667 65.7777 138.667 74.6666C138.667 83.5555 140.444 85.3333 149.333 85.3333C158.222 85.3333 160 83.5555 160 74.6666C160 65.7777 158.222 63.9999 149.333 63.9999Z" fill="black"/>
<path d="M51.875 27.9583C39.7457 94.0956 39.7458 161.894 51.875 228.031C10.2238 216.954 2.81628e-07 189.518 0 128C0 66.4806 10.2216 39.0346 51.875 27.9583Z" fill="black"/>
<path d="M204.115 27.9583C245.776 39.033 256 66.4758 256 128C256 189.523 245.774 216.956 204.115 228.031C216.244 161.892 216.244 94.0968 204.115 27.9583Z" fill="black"/>
</svg>
