<svg width="256" height="256" viewBox="0 0 256 256" fill="none" xmlns="http://www.w3.org/2000/svg">
<path d="M117.333 64.4374C90.9762 66.8549 85.3335 80.4977 85.3333 128C85.3333 175.503 90.9762 189.145 117.333 191.562V245.25C47.3727 244.273 17.427 232.929 6.08333 191.656C52.1978 189.587 63.2483 177.064 63.9583 132.875L64 128C63.9994 79.8423 53.8477 66.5043 6.0625 64.3645C17.4025 23.0715 47.3604 11.7167 117.333 10.7395V64.4374Z" fill="black"/>
<path fill-rule="evenodd" clip-rule="evenodd" d="M138.667 10.7395C236.103 12.1002 256 33.5739 256 128C256 222.427 236.103 243.889 138.667 245.25V191.562C165.024 189.145 170.667 175.503 170.667 128C170.667 80.4977 165.024 66.8549 138.667 64.4374V10.7395ZM249.917 64.3333C202.147 66.4757 192.001 79.8483 192 128C192 176.156 202.149 189.484 249.927 191.625C251.665 185.295 252.977 178.266 253.917 170.458C245.097 170.164 238.155 169.543 232.625 168.521C224.741 167.063 221.414 165.112 219.885 163.802C217.21 161.508 213.334 155.335 213.333 128C213.334 100.671 217.21 94.4928 219.885 92.1978C221.416 90.8878 224.747 88.9362 232.625 87.4791C238.153 86.4574 245.093 85.8252 253.906 85.5312C252.965 77.7109 251.66 70.671 249.917 64.3333Z" fill="black"/>
<path d="M128 85.3333C136.208 85.3333 140.651 86.0086 143.104 86.802C144.777 87.3437 144.798 87.6547 144.917 87.8333C145.503 88.7129 146.868 91.4612 147.885 98.5312C148.886 105.489 149.333 114.939 149.333 128C149.333 141.06 148.886 150.51 147.885 157.469C146.869 164.537 145.504 167.286 144.917 168.167C144.798 168.345 144.78 168.655 143.104 169.198C140.651 169.991 136.208 170.667 128 170.667C119.792 170.667 115.349 169.991 112.896 169.198C111.22 168.655 111.202 168.345 111.083 168.167C110.496 167.286 109.131 164.537 108.115 157.469C107.114 150.51 106.667 141.06 106.667 128C106.667 114.939 107.114 105.489 108.115 98.5312C109.132 91.4612 110.497 88.7129 111.083 87.8333C111.202 87.6547 111.223 87.3437 112.896 86.802C115.349 86.0086 119.792 85.3333 128 85.3333Z" fill="black"/>
<path d="M2.07292 85.5312C10.8963 85.825 17.8432 86.4565 23.375 87.4791C31.2575 88.9368 34.5852 90.8878 36.1146 92.1978C38.7901 94.4914 42.6663 100.664 42.6667 128C42.6664 155.328 38.7901 161.507 36.1146 163.802C34.5848 165.112 31.2542 167.063 23.375 168.521C17.8432 169.543 10.8962 170.154 2.07292 170.448C0.608526 158.27 0 144.21 0 128C4.05103e-05 111.779 0.606473 97.7141 2.07292 85.5312Z" fill="black"/>
</svg>
