<svg width="256" height="256" viewBox="0 0 256 256" fill="none" xmlns="http://www.w3.org/2000/svg">
<path d="M117.339 255.911C80.7579 255.354 55.1103 251.701 37.3389 241.911C65.2219 226.545 73.7036 196.065 74.5784 138.672H117.339V255.911Z" fill="black"/>
<path d="M181.422 138.672C182.297 196.064 190.78 226.545 218.662 241.911C200.892 251.7 175.248 255.354 138.672 255.911V138.672H181.422Z" fill="black"/>
<path d="M53.2451 138.672C52.9126 159.634 51.5506 175.835 48.818 188.505C45.6901 203.005 41.0923 211.418 35.5889 216.922C31.8492 220.662 26.7511 223.946 19.3284 226.672C5.55915 208.896 0.736482 181.159 0.0888672 138.672H53.2451Z" fill="black"/>
<path d="M255.912 138.672C255.264 181.159 250.441 208.896 236.672 226.672C229.253 223.947 224.161 220.659 220.422 216.922C214.919 211.419 210.321 203.004 207.193 188.505C204.46 175.835 203.088 159.634 202.756 138.672H255.912Z" fill="black"/>
<path d="M19.318 29.3177C26.7477 32.0447 31.847 35.3467 35.5889 39.0885C41.0907 44.5925 45.691 53.0069 48.818 67.5052C51.5502 80.1765 52.9129 96.3745 53.2451 117.339H0.0888672C0.735891 74.8472 5.54838 47.0979 19.318 29.3177Z" fill="black"/>
<path d="M138.672 0.078125C175.252 0.635697 200.902 4.28455 218.672 14.0781C190.778 29.4432 182.296 59.9314 181.422 117.339H138.672V0.078125Z" fill="black"/>
<path d="M236.672 29.3177C250.445 47.0978 255.265 74.8431 255.912 117.339H202.756C203.088 96.3734 204.461 80.1768 207.193 67.5052C210.321 53.0029 214.918 44.5924 220.422 39.0885C224.162 35.3484 229.248 32.044 236.672 29.3177Z" fill="black"/>
<path d="M117.339 117.339H74.5784C73.7042 59.9252 65.2192 29.4416 37.318 14.0781C55.09 4.28026 80.748 0.635293 117.339 0.078125V117.339Z" fill="black"/>
</svg>
