<svg width="256" height="256" viewBox="0 0 256 256" fill="none" xmlns="http://www.w3.org/2000/svg">
<path fill-rule="evenodd" clip-rule="evenodd" d="M117.333 10.6665C196.26 10.6665 224.205 23.4103 232.052 79.7498C251.091 86.2232 256 100.104 256 128L255.958 132.062C255.473 157.259 250.139 170.087 232.052 176.239C224.207 232.588 196.264 245.333 117.333 245.333C19.5556 245.333 0 225.778 0 128C3.39087e-07 30.2221 19.5556 10.6665 117.333 10.6665ZM55.0833 53.479C49.2737 52.5126 43.7808 56.4401 42.8125 62.2498C35.5573 105.783 35.5573 150.217 42.8125 193.75C43.7808 199.56 49.2737 203.487 55.0833 202.521C60.8931 201.552 64.8206 196.059 63.8542 190.25C56.9853 149.036 56.9853 106.963 63.8542 65.7498C64.8206 59.9402 60.8931 54.4473 55.0833 53.479ZM97.75 53.479C91.9404 52.5126 86.4475 56.4401 85.4792 62.2498C78.224 105.783 78.224 150.217 85.4792 193.75C86.4475 199.56 91.9404 203.487 97.75 202.521C103.56 201.552 107.487 196.059 106.521 190.25C99.6519 149.036 99.6519 106.963 106.521 65.7498C107.487 59.9402 103.56 54.4473 97.75 53.479ZM140.417 53.479C134.607 52.5126 129.114 56.4401 128.146 62.2498C120.891 105.783 120.891 150.217 128.146 193.75C129.114 199.56 134.607 203.487 140.417 202.521C146.226 201.552 150.154 196.059 149.188 190.25C142.319 149.036 142.319 106.963 149.188 65.7498C150.154 59.9402 146.226 54.4473 140.417 53.479Z" fill="black"/>
</svg>
