<svg width="256" height="256" viewBox="0 0 256 256" fill="none" xmlns="http://www.w3.org/2000/svg">
<path fill-rule="evenodd" clip-rule="evenodd" d="M117.333 10.6665C196.26 10.6665 224.205 23.4103 232.052 79.7498C251.091 86.2232 256 100.104 256 128L255.958 132.062C255.473 157.259 250.139 170.087 232.052 176.239C224.207 232.588 196.264 245.333 117.333 245.333C19.5556 245.333 0 225.778 0 128C3.39087e-07 30.2221 19.5556 10.6665 117.333 10.6665ZM90.6667 31.9998C32.8889 31.9998 21.3333 47.9998 21.3333 128C21.3333 208 32.8889 224 90.6667 224C148.444 224 160 208 160 128C160 47.9998 148.444 31.9998 90.6667 31.9998Z" fill="black"/>
</svg>
