<svg width="256" height="256" viewBox="0 0 256 256" fill="none" xmlns="http://www.w3.org/2000/svg">
<path d="M190.809 226C194.78 223.152 200.239 223.351 203.997 226.604C208.93 230.879 218.862 234.666 231.528 234.667C235.67 234.667 239.607 234.254 243.205 233.521C248.975 232.348 254.601 236.075 255.778 241.844C256.954 247.616 253.228 253.251 247.455 254.427C242.422 255.452 237.062 256 231.528 256C218.799 256 206.506 253.068 197.018 247.625C187.529 253.068 175.237 256 162.507 256C149.778 256 137.485 253.068 127.997 247.625C118.508 253.068 106.216 256 93.4864 256C80.757 256 68.4643 253.068 58.976 247.625C49.4874 253.067 37.1944 256 24.4655 256C18.9311 256 13.572 255.452 8.53846 254.427C2.76705 253.251 -0.959701 247.616 0.215545 241.844C1.39251 236.075 7.01924 232.349 12.7885 233.521C16.3869 234.254 20.3236 234.666 24.4655 234.667C37.1319 234.667 47.0629 230.879 51.9968 226.604L52.7676 226C56.7394 223.15 62.2068 223.348 65.9655 226.604C70.899 230.879 80.821 234.666 93.4864 234.667C106.151 234.667 116.073 230.879 121.007 226.604L121.788 226C125.76 223.15 131.228 223.348 134.986 226.604C139.474 230.492 148.09 233.964 159.143 234.563C160.259 234.611 161.382 234.667 162.507 234.667C175.173 234.667 185.094 230.879 190.028 226.604L190.809 226Z" fill="black"/>
<path d="M121.705 108.021C125.846 107.08 130.158 107.079 134.299 108.021C166.819 115.419 194.457 128.549 220.434 148.354C229.488 155.257 233.351 166.886 231.288 178.083C230.577 181.943 229.731 186.544 228.736 191.99C227.812 197.048 226.55 202.629 225.122 208.323C224.471 210.919 221.958 212.633 219.341 212.073C212.528 210.615 207.205 208.051 203.997 205.271C200.239 202.018 194.78 201.819 190.809 204.667L190.028 205.271C185.094 209.545 175.172 213.333 162.507 213.333C149.843 213.333 139.92 209.545 134.986 205.271C131.228 202.015 125.76 201.817 121.788 204.667L121.007 205.271C116.073 209.545 106.151 213.333 93.4864 213.333C80.8214 213.333 70.8991 209.545 65.9655 205.271C62.2069 202.015 56.7393 201.817 52.7676 204.667L51.9968 205.271C48.7867 208.052 43.4602 210.616 36.6426 212.073C34.0257 212.632 31.5112 210.919 30.8614 208.323C29.4361 202.629 28.1813 197.047 27.2572 191.99C26.2624 186.544 25.4164 181.943 24.7051 178.083C22.6429 166.886 26.5059 155.259 35.5593 148.354C61.5372 128.549 89.1837 115.418 121.705 108.021Z" fill="black"/>
<path d="M127.997 42.6667C199.107 42.6667 213.33 54.2224 213.33 112C213.33 112.271 213.331 112.544 213.33 112.813C213.317 117.051 208.524 119.435 204.976 117.115C183.262 102.916 160.115 92.7629 133.903 86.1875C129.354 85.0472 124.577 85.0464 120.028 86.1875C94.4383 92.6077 71.7642 102.431 50.4968 116.104C47.1465 118.258 42.6635 115.983 42.6635 112C42.6635 54.2229 56.8879 42.6669 127.997 42.6667Z" fill="black"/>
<path d="M127.997 0C162.8 0.000248293 175.773 5.45783 179.768 29.1667C180.385 32.8493 176.851 35.7694 173.184 35.0625C161.56 32.8133 146.757 32 127.997 32C109.234 32.0001 94.4339 32.8134 82.8093 35.0625C79.139 35.7728 75.594 32.8427 76.2155 29.1563C80.2136 5.45228 93.1974 0.00041419 127.997 0Z" fill="black"/>
</svg>
