<svg width="256" height="256" viewBox="0 0 256 256" fill="none" xmlns="http://www.w3.org/2000/svg">
<path fill-rule="evenodd" clip-rule="evenodd" d="M22.4997 109.51C90.8266 85.8229 165.162 85.8251 233.489 109.51C234.305 119.686 234.666 131.133 234.666 144C234.666 237.333 216.889 256 128 256C39.1108 256 21.333 237.333 21.333 144C21.333 131.133 21.6842 119.686 22.4997 109.51ZM95.9997 128C90.1086 128 85.333 132.776 85.333 138.667V202.667C85.333 208.558 90.1086 213.333 95.9997 213.333C101.891 213.333 106.666 208.558 106.666 202.667V138.667C106.666 132.776 101.891 128 95.9997 128ZM160 128C154.109 128 149.333 132.776 149.333 138.667V202.667C149.333 208.558 154.109 213.333 160 213.333C165.891 213.333 170.666 208.558 170.666 202.667V138.667C170.666 132.776 165.891 128 160 128Z" fill="black"/>
<path fill-rule="evenodd" clip-rule="evenodd" d="M132.062 0.0625C156.49 0.802199 169.259 8.70317 175.625 35.0833C207.996 40.6509 223.541 54.8308 230.239 85.9896C163.667 65.2288 92.3216 65.2268 25.7497 85.9896C32.4468 54.8352 47.9909 40.6526 80.3538 35.0833C87.0635 7.27204 100.911 0 128 0L132.062 0.0625ZM128 21.3333C118.016 21.3333 112.89 22.513 110.062 23.8542C108.14 24.766 106.185 26.2003 104.083 30.8229C103.828 31.385 103.573 31.9844 103.323 32.625C110.867 32.1919 119.075 32 128 32C136.917 32 145.117 32.1926 152.656 32.625C152.408 31.9865 152.171 31.3829 151.916 30.8229C149.815 26.2003 147.859 24.766 145.937 23.8542C143.11 22.5129 137.983 21.3333 128 21.3333Z" fill="black"/>
</svg>
