<svg width="256" height="256" viewBox="0 0 256 256" fill="none" xmlns="http://www.w3.org/2000/svg">
<path d="M228.769 221.486L229.181 219.429C239.853 166.069 240.334 111.172 230.6 57.6334C226.628 35.7898 209.582 18.4353 187.599 15.3278C167.602 12.5012 147.801 10.6665 128 10.6665C108.199 10.6665 88.3972 12.5012 68.4006 15.3278C46.4175 18.4353 29.3714 35.7898 25.3998 57.6333C15.6655 111.172 16.147 166.069 26.819 219.429L27.2305 221.486C29.4624 232.646 42.4888 237.758 51.7146 231.095L116.263 184.477C123.269 179.416 132.73 179.416 139.737 184.477L204.285 231.095C213.511 237.758 226.537 232.646 228.769 221.486Z" fill="black"/>
</svg>
