<svg width="256" height="256" viewBox="0 0 256 256" fill="none" xmlns="http://www.w3.org/2000/svg">
<path fill-rule="evenodd" clip-rule="evenodd" d="M128.958 0C150.292 0 214.29 0.000933329 235.625 21.3333C254.873 40.5808 260.319 85.8781 249.448 102.385C253.62 109.989 256 118.715 256 128V192C256 200.53 252.659 208.285 247.219 214.021C244.203 221.036 240.328 227.296 235.625 232C214.29 253.33 150.294 253.333 128.958 253.333C107.622 253.333 43.626 253.329 22.2917 232C10.9695 220.675 3.87792 200.335 2.11458 182.146C0.745467 178.583 0 174.711 0 170.667V136.937C0 129.873 1.14088 122.848 3.375 116.146L7.52083 103.687C-4.33717 88.4012 2.51381 41.1128 22.2917 21.3333C43.6243 0.000296275 107.624 4.26858e-09 128.958 0ZM229.385 110.427C186.161 116.033 72.1036 116.076 27.7083 110.562L23.6146 122.896C22.1056 127.423 21.3333 132.166 21.3333 136.937V170.667C21.3333 176.558 26.109 181.333 32 181.333C37.891 181.333 42.6667 176.558 42.6667 170.667V149.333C42.6667 143.442 47.4423 138.667 53.3333 138.667C59.2244 138.667 64 143.442 64 149.333V192C64 197.891 68.7756 202.667 74.6667 202.667C80.4773 202.667 85.2054 198.019 85.3333 192.24V154.667C85.3333 139.939 97.2724 128 112 128C126.728 128 138.667 139.939 138.667 154.667V170.667C138.667 176.558 143.442 181.333 149.333 181.333C155.224 181.333 160 176.558 160 170.667V144C160 129.272 171.939 117.333 186.667 117.333C201.394 117.333 213.333 129.272 213.333 144V192C213.333 197.891 218.109 202.667 224 202.667C229.891 202.667 234.667 197.891 234.667 192V128C234.667 121.505 232.711 115.473 229.385 110.427Z" fill="black"/>
</svg>
