<svg width="257" height="256" viewBox="0 0 257 256" fill="none" xmlns="http://www.w3.org/2000/svg">
<path fill-rule="evenodd" clip-rule="evenodd" d="M1.33887 116.553C86.185 110.524 171.559 110.514 256.401 116.553C256.711 123.438 256.87 130.799 256.87 138.667C256.87 236.445 235.537 256.001 128.87 256.001C22.2036 256.001 0.870163 236.445 0.870117 138.667C0.870117 130.799 1.02924 123.438 1.33887 116.553ZM64.8701 160.001C55.9812 160.001 54.2035 161.779 54.2035 170.667C54.2035 179.556 55.9812 181.334 64.8701 181.334C73.759 181.334 75.5368 179.556 75.5368 170.667C75.5368 161.779 73.759 160.001 64.8701 160.001ZM128.87 160.001C119.981 160.001 118.203 161.779 118.203 170.667C118.203 179.556 119.981 181.334 128.87 181.334C137.759 181.334 139.537 179.556 139.537 170.667C139.537 161.779 137.759 160.001 128.87 160.001ZM192.87 160.001C183.981 160.001 182.203 161.779 182.203 170.667C182.203 179.556 183.981 181.334 192.87 181.334C201.759 181.334 203.537 179.556 203.537 170.667C203.537 161.779 201.759 160.001 192.87 160.001Z" fill="black"/>
<path d="M182.464 0.000803405C188.354 0.0730717 193.067 4.91229 192.995 10.8029L192.87 21.4591C192.852 22.9207 192.532 24.3119 191.985 25.5737C232.698 33.115 249.243 52.2857 254.641 95.0321C170.954 89.2287 86.7741 89.2471 3.08887 95.0425C8.48522 52.2874 25.0346 33.1151 65.7555 25.5737C65.1741 24.2346 64.8511 22.7531 64.8701 21.1987L65.0055 10.5321C65.0803 4.64405 69.9087 -0.0707331 75.7972 0.000803405C81.6878 0.0730717 86.4007 4.91229 86.3285 10.8029L86.2035 21.4591C86.1975 21.9427 86.1361 22.4205 86.068 22.8862C98.5268 21.7858 112.72 21.3341 128.87 21.3341C145.012 21.3341 159.198 21.787 171.651 22.8862C171.571 22.3372 171.53 21.7711 171.537 21.1987L171.672 10.5321C171.747 4.64405 176.575 -0.0707331 182.464 0.000803405Z" fill="black"/>
</svg>
