<svg width="257" height="256" viewBox="0 0 257 256" fill="none" xmlns="http://www.w3.org/2000/svg">
<path fill-rule="evenodd" clip-rule="evenodd" d="M1.33887 116.553C86.185 110.524 171.559 110.514 256.401 116.553C256.711 123.439 256.87 130.799 256.87 138.667C256.87 236.445 235.537 256.001 128.87 256.001C22.2035 256.001 0.87014 236.445 0.870117 138.667C0.870117 130.799 1.02924 123.439 1.33887 116.553ZM179.87 142.667C176.19 138.067 169.47 137.321 164.87 141.001C146.281 155.872 130.342 173.783 117.724 193.97L117.235 194.74C109.923 186.213 101.487 178.704 92.1201 172.459C87.2185 169.191 80.5962 170.516 77.3285 175.417C74.0607 180.319 75.3851 186.941 80.2868 190.209C89.8689 196.597 98.2933 204.569 105.203 213.782L109.672 219.73C111.782 222.542 115.139 224.138 118.651 223.99C122.164 223.841 125.381 221.971 127.245 218.99L135.818 205.282C147.161 187.134 161.492 171.037 178.203 157.667C182.804 153.987 183.55 147.268 179.87 142.667Z" fill="black"/>
<path d="M182.464 0.000803405C188.354 0.0730706 193.067 4.91229 192.995 10.8029L192.87 21.4591C192.852 22.9208 192.532 24.3119 191.985 25.5737C232.698 33.115 249.243 52.2857 254.641 95.0321C170.954 89.2287 86.7741 89.2471 3.08887 95.0425C8.48523 52.2874 25.0346 33.1151 65.7555 25.5737C65.1741 24.2346 64.8511 22.7531 64.8701 21.1987L65.0055 10.5321C65.0803 4.64405 69.9087 -0.0707331 75.7972 0.000803405C81.6878 0.0730706 86.4007 4.91229 86.3285 10.8029L86.2035 21.4591C86.1975 21.9428 86.1361 22.4204 86.068 22.8862C98.5268 21.7858 112.72 21.3341 128.87 21.3341C145.012 21.3341 159.198 21.787 171.651 22.8862C171.571 22.3372 171.53 21.7711 171.537 21.1987L171.672 10.5321C171.747 4.64405 176.575 -0.0707331 182.464 0.000803405Z" fill="black"/>
</svg>
