<svg width="257" height="256" viewBox="0 0 257 256" fill="none" xmlns="http://www.w3.org/2000/svg">
<path d="M1.33887 116.553C86.185 110.524 171.559 110.514 256.401 116.553C256.711 123.439 256.87 130.799 256.87 138.667C256.87 236.445 235.537 256.001 128.87 256.001C22.2035 256.001 0.870117 236.445 0.870117 138.667C0.870117 130.799 1.02923 123.439 1.33887 116.553Z" fill="black"/>
<path d="M182.464 0.000803405C188.354 0.0730696 193.067 4.91229 192.995 10.8029L192.87 21.4591C192.852 22.9208 192.532 24.3118 191.985 25.5737C232.698 33.115 249.243 52.2856 254.641 95.0321C170.954 89.2287 86.7741 89.2471 3.08887 95.0425C8.48523 52.2874 25.0346 33.1151 65.7555 25.5737C65.174 24.2345 64.851 22.7532 64.8701 21.1987L65.0055 10.5321C65.0803 4.64405 69.9087 -0.0707331 75.7972 0.000803405C81.6878 0.0730696 86.4007 4.91229 86.3285 10.8029L86.2035 21.4591C86.1975 21.9428 86.1361 22.4204 86.068 22.8862C98.5268 21.7858 112.72 21.3341 128.87 21.3341C145.012 21.3341 159.198 21.787 171.651 22.8862C171.571 22.3371 171.53 21.7712 171.537 21.1987L171.672 10.5321C171.747 4.64405 176.575 -0.0707331 182.464 0.000803405Z" fill="black"/>
</svg>
