<svg width="257" height="256" viewBox="0 0 257 256" fill="none" xmlns="http://www.w3.org/2000/svg">
<path d="M1.33887 116.553C86.185 110.524 171.559 110.514 256.401 116.553C256.711 123.438 256.87 130.799 256.87 138.667C256.87 152.374 256.416 164.54 255.401 175.334C255.52 174.081 255.654 172.812 255.756 171.522C188.56 175.483 166.757 194.677 161.974 255.136C169.786 254.676 176.981 253.997 183.61 253.084C185.994 228.014 191.371 215.654 199.287 208.397C204.725 203.412 213.231 199.099 228.006 196.178C235.16 194.763 243.408 193.761 252.953 193.084C253.187 191.876 253.389 190.639 253.599 189.386C244.518 243.627 213.697 256.001 128.87 256.001C22.2036 256.001 0.870186 236.445 0.870117 138.667C0.870117 130.799 1.02925 123.438 1.33887 116.553Z" fill="black"/>
<path d="M182.464 0.000803405C188.354 0.0730727 193.067 4.91229 192.995 10.8029L192.87 21.4591C192.852 22.9206 192.532 24.312 191.985 25.5737C232.698 33.115 249.243 52.2857 254.641 95.0321C170.954 89.2287 86.7741 89.2471 3.08887 95.0425C8.48522 52.2874 25.0346 33.1151 65.7555 25.5737C65.1741 24.2346 64.8511 22.753 64.8701 21.1987L65.0055 10.5321C65.0803 4.64405 69.9087 -0.0707331 75.7972 0.000803405C81.6878 0.0730727 86.4007 4.91229 86.3285 10.8029L86.2035 21.4591C86.1975 21.9427 86.1361 22.4205 86.068 22.8862C98.5268 21.7858 112.72 21.3341 128.87 21.3341C145.012 21.3341 159.198 21.787 171.651 22.8862C171.571 22.3373 171.53 21.771 171.537 21.1987L171.672 10.5321C171.747 4.64405 176.575 -0.0707331 182.464 0.000803405Z" fill="black"/>
</svg>
