<svg width="257" height="256" viewBox="0 0 257 256" fill="none" xmlns="http://www.w3.org/2000/svg">
<path fill-rule="evenodd" clip-rule="evenodd" d="M1.33887 116.553C86.185 110.524 171.559 110.514 256.401 116.553C256.711 123.438 256.87 130.799 256.87 138.667C256.87 236.445 235.537 256.001 128.87 256.001C22.2036 256.001 0.870163 236.445 0.870117 138.667C0.870117 130.799 1.02924 123.438 1.33887 116.553ZM54.2035 192.001C48.3124 192.001 43.5368 196.776 43.5368 202.667C43.5368 208.559 48.3124 213.334 54.2035 213.334H118.203C124.094 213.334 128.87 208.559 128.87 202.667C128.87 196.776 124.094 192.001 118.203 192.001H54.2035ZM54.2035 149.334C48.3124 149.334 43.5368 154.11 43.5368 160.001C43.5368 165.892 48.3124 170.667 54.2035 170.667H160.87C166.761 170.667 171.537 165.892 171.537 160.001C171.537 154.11 166.761 149.334 160.87 149.334H54.2035Z" fill="black"/>
<path d="M182.464 0.000803405C188.354 0.0730717 193.067 4.91229 192.995 10.8029L192.87 21.4591C192.852 22.9207 192.532 24.3119 191.985 25.5737C232.698 33.115 249.243 52.2857 254.641 95.0321C170.954 89.2287 86.7741 89.2471 3.08887 95.0425C8.48522 52.2874 25.0346 33.1151 65.7555 25.5737C65.1741 24.2346 64.8511 22.7531 64.8701 21.1987L65.0055 10.5321C65.0803 4.64405 69.9087 -0.0707331 75.7972 0.000803405C81.6878 0.0730717 86.4007 4.91229 86.3285 10.8029L86.2035 21.4591C86.1975 21.9427 86.1361 22.4205 86.068 22.8862C98.5268 21.7858 112.72 21.3341 128.87 21.3341C145.012 21.3341 159.198 21.787 171.651 22.8862C171.571 22.3372 171.53 21.7711 171.537 21.1987L171.672 10.5321C171.747 4.64405 176.575 -0.0707331 182.464 0.000803405Z" fill="black"/>
</svg>
