<svg width="256" height="256" viewBox="0 0 256 256" fill="none" xmlns="http://www.w3.org/2000/svg">
<path d="M127.875 117.333C154.537 117.334 159.875 122.668 159.875 149.333C159.875 175.998 154.537 181.332 127.875 181.333C101.208 181.333 95.875 176 95.875 149.333C95.875 122.666 101.208 117.333 127.875 117.333Z" fill="black"/>
<path fill-rule="evenodd" clip-rule="evenodd" d="M127.875 10.6665C172.296 10.6671 191.331 17.921 198.594 47.9478C203.942 49.1171 208.814 50.5335 213.26 52.1873C213.832 46.8349 218.371 42.6665 223.875 42.6665C229.764 42.6693 234.542 47.4439 234.542 53.3332V63.9998C234.542 64.3018 234.514 64.6 234.49 64.8957C251.141 80.7235 256 106.936 256 149.333C256 238.222 234.667 256 128 256C21.3333 256 0 238.222 0 149.333C0 85.306 11.0696 58.1787 57.125 48.0103C64.3769 17.9288 83.4189 10.6665 127.875 10.6665ZM128 95.9998C83.5556 95.9998 74.6667 104.889 74.6667 149.333C74.6667 193.778 83.5556 202.666 128 202.666C172.444 202.666 181.333 193.778 181.333 149.333C181.333 104.889 172.444 95.9998 128 95.9998Z" fill="black"/>
</svg>
