<svg width="257" height="256" viewBox="0 0 257 256" fill="none" xmlns="http://www.w3.org/2000/svg">
<path fill-rule="evenodd" clip-rule="evenodd" d="M64.9959 21.333C82.6975 21.333 96.5071 27.9828 106.402 40.3226C115.822 52.072 121.059 68.1843 124.173 86.1768C130.377 122.02 128.995 171.4 128.996 224C128.996 229.891 124.22 234.666 118.329 234.666C112.44 234.664 107.663 229.889 107.663 224C107.662 205.247 107.807 187.391 107.767 170.666H22.2355C22.1771 187.591 22.329 205.49 22.3292 224C22.3292 229.891 17.5535 234.666 11.6625 234.666C5.77381 234.664 0.995936 229.889 0.995874 224C0.995345 174.041 -0.376856 124.705 5.81879 88.2184C8.92559 69.9245 14.132 53.3805 23.4542 41.2497C33.2465 28.5093 47.0591 21.3345 64.9959 21.333ZM64.9959 42.6663C53.6061 42.6677 46.0768 46.8259 40.3709 54.2497C34.1963 62.2845 29.7432 74.7475 26.85 91.7809C24.0394 108.331 22.9019 127.81 22.4646 149.333H107.579C107.178 126.677 106.056 106.601 103.152 89.8226C100.267 73.1523 95.8344 61.2597 89.7563 53.6768C84.1522 46.6874 76.6233 42.6663 64.9959 42.6663Z" fill="black"/>
<path fill-rule="evenodd" clip-rule="evenodd" d="M198.329 117.333C213.458 117.333 227.248 123.065 237.652 132.468C239.586 129.765 242.752 128.001 246.329 128C252.22 128 256.996 132.775 256.996 138.666V213.333C256.996 219.224 252.22 224 246.329 224C242.749 223.998 239.586 222.228 237.652 219.521C227.247 228.927 213.46 234.666 198.329 234.666C165.93 234.664 139.663 208.399 139.663 176C139.663 143.6 165.93 117.335 198.329 117.333ZM198.329 138.666C177.712 138.668 160.996 155.382 160.996 176C160.996 196.617 177.712 213.331 198.329 213.333C218.948 213.333 235.663 196.618 235.663 176C235.663 155.381 218.948 138.666 198.329 138.666Z" fill="black"/>
</svg>
