<svg width="256" height="256" viewBox="0 0 256 256" fill="none" xmlns="http://www.w3.org/2000/svg">
<path d="M0.323088 107.615C19.8228 107.657 39.1285 111.517 57.146 118.979C75.2632 126.484 91.7274 137.488 105.594 151.354C119.46 165.22 130.464 181.685 137.969 199.802C145.306 217.517 149.145 236.48 149.313 255.646C142.618 255.88 135.521 256 128 256L127.979 255.99C127.834 236.686 123.344 217.655 114.802 200.333C106.119 182.726 93.4923 167.347 77.9168 155.396C62.3418 143.446 44.2228 135.236 24.9689 131.406C16.7201 129.766 8.35651 128.957 0.000171663 128.958C-0.000214579 128.64 0.000171663 128.32 0.000171663 128C0.000171663 120.825 0.110564 114.037 0.323088 107.615Z" fill="black"/>
<path d="M0.396005 150.292C7.2298 150.317 14.0677 150.992 20.8127 152.333C36.8577 155.525 51.9586 162.364 64.9377 172.323C77.9164 182.282 88.4307 195.099 95.6668 209.771C102.709 224.051 106.45 239.725 106.646 255.635C99.0048 255.367 91.8879 254.939 85.2606 254.302C84.9399 244 82.7835 233.828 78.8335 224.292C74.5452 213.941 68.2665 204.527 60.3439 196.604C52.4209 188.682 43.0079 182.403 32.6564 178.115C22.8495 174.053 12.3734 171.877 1.771 171.656C1.11216 165.04 0.679651 157.929 0.396005 150.292Z" fill="black"/>
<path d="M128 0C234.667 0 256 21.3333 256 128C256 218.593 240.61 247.618 170.625 254.313C170.293 232.799 165.917 211.529 157.677 191.635C149.1 170.931 136.524 152.118 120.677 136.271C104.83 120.424 86.0179 107.847 65.3127 99.2708C45.1009 90.8991 23.4704 86.4971 1.60434 86.2917C8.13378 15.5242 37.0129 0 128 0Z" fill="black"/>
<path d="M5.03142 193.167C11.7112 193.695 18.2796 195.251 24.4898 197.823C32.2538 201.039 39.3076 205.756 45.2502 211.698C51.1923 217.64 55.9089 224.695 59.1252 232.458C61.5968 238.425 63.1328 244.726 63.7189 251.135C29.2927 243.894 12.4346 227.292 5.03142 193.167Z" fill="black"/>
</svg>
