<svg width="256" height="256" viewBox="0 0 256 256" fill="none" xmlns="http://www.w3.org/2000/svg">
<path d="M85.3333 85.3333C156.444 85.3333 170.667 99.5556 170.667 170.667C170.667 241.778 156.444 256 85.3333 256C73.0294 256 62.4312 255.552 53.3125 254.479C37.004 257.031 18.3704 256.034 5.14583 253.833C1.0382 253.147 -1.20103 249.043 0.666667 245.625L3.69792 240.083C5.71251 236.396 6.90317 232.143 7.69792 227.677C1.89903 214.814 0 196.499 0 170.667C3.39086e-07 99.5556 14.2222 85.3333 85.3333 85.3333Z" fill="black"/>
<path d="M170.667 0C241.776 0.000347592 256 14.2231 256 85.3333C256 111.165 254.101 129.481 248.302 142.344C249.097 146.809 250.288 151.063 252.302 154.75L255.333 160.292C257.2 163.709 254.96 167.813 250.854 168.5C237.63 170.7 218.994 171.697 202.688 169.146C199.328 169.541 195.761 169.818 191.99 170.052C191.908 81.8872 174.092 64.0768 85.9063 64C89.1293 11.2845 107.33 0.000309304 170.667 0Z" fill="black"/>
</svg>
