<svg width="256" height="256" viewBox="0 0 256 256" fill="none" xmlns="http://www.w3.org/2000/svg">
<path fill-rule="evenodd" clip-rule="evenodd" d="M128 0C234.667 0 256 21.3333 256 128C256 234.667 234.667 256 128 256C99.4877 256 77.0819 254.438 59.5416 250.167C42.9895 256.038 25.0317 257.586 7.35405 254.302C1.48596 253.21 -1.71614 246.67 0.947801 241.219L5.28113 232.365C7.95722 226.897 10.3446 221.295 12.4895 215.604C3.02635 196.221 -0.000115823 168.159 -0.000115823 128C-0.000115314 21.3333 21.3332 5.08663e-07 128 0ZM63.9999 117.333C55.1112 117.333 53.3332 119.111 53.3332 128C53.3332 136.889 55.1112 138.667 63.9999 138.667C72.8887 138.667 74.6666 136.889 74.6666 128C74.6665 119.111 72.8887 117.333 63.9999 117.333ZM128 117.333C119.111 117.333 117.333 119.111 117.333 128C117.333 136.889 119.111 138.667 128 138.667C136.889 138.667 138.667 136.889 138.667 128C138.667 119.111 136.889 117.333 128 117.333ZM192 117.333C183.111 117.333 181.333 119.111 181.333 128C181.333 136.889 183.111 138.667 192 138.667C200.889 138.667 202.667 136.889 202.667 128C202.667 119.111 200.889 117.333 192 117.333Z" fill="black"/>
</svg>
