<svg width="256" height="256" viewBox="0 0 256 256" fill="none" xmlns="http://www.w3.org/2000/svg">
<path fill-rule="evenodd" clip-rule="evenodd" d="M128 0C234.667 0 256 21.3333 256 128C256 234.667 234.667 256 128 256C99.4877 256 77.0819 254.438 59.5416 250.167C42.9895 256.038 25.0317 257.586 7.35405 254.302C1.48596 253.21 -1.71614 246.67 0.947801 241.219L5.28113 232.365C7.95722 226.897 10.3446 221.295 12.4895 215.604C3.02635 196.221 -0.000115823 168.159 -0.000115823 128C-0.000115314 21.3333 21.3332 5.08663e-07 128 0ZM128 192C122.109 192 117.333 196.776 117.333 202.667C117.333 208.558 122.109 213.333 128 213.333C133.891 213.333 138.667 208.558 138.667 202.667C138.667 196.776 133.891 192 128 192ZM128 42.6667C122.109 42.6667 117.333 47.4423 117.333 53.3333V160C117.333 165.891 122.109 170.667 128 170.667C133.891 170.667 138.667 165.891 138.667 160V53.3333C138.667 47.4423 133.891 42.6667 128 42.6667Z" fill="black"/>
</svg>
