<svg width="256" height="256" viewBox="0 0 256 256" fill="none" xmlns="http://www.w3.org/2000/svg">
<path fill-rule="evenodd" clip-rule="evenodd" d="M128 0C234.667 0 256 21.3333 256 128C256 234.667 234.667 256 128 256C21.3333 256 0 234.667 0 128C0 21.3333 21.3333 0 128 0ZM201.146 69.1771C198.115 64.1268 191.561 62.4902 186.51 65.5208C150.602 87.0664 119.854 116.204 96.3958 150.875C89.3862 140.437 80.4046 131.45 69.9167 124.458C65.015 121.191 58.3928 122.515 55.125 127.417C51.8572 132.318 53.1817 138.941 58.0833 142.208C67.3044 148.356 75.0482 156.476 80.75 165.979L86.8542 176.156C88.7356 179.291 92.0952 181.246 95.75 181.333C99.404 181.419 102.847 179.625 104.875 176.583L113.042 164.333C134.882 131.573 163.727 104.07 197.49 83.8125C202.54 80.7812 204.176 74.2281 201.146 69.1771Z" fill="black"/>
</svg>
