<svg width="256" height="256" viewBox="0 0 256 256" fill="none" xmlns="http://www.w3.org/2000/svg">
<path d="M186.511 76.1889C191.562 73.1583 198.115 74.7948 201.146 79.8452C204.177 84.8962 202.541 91.4493 197.49 94.4806C163.728 114.738 134.883 142.241 113.042 175.001L104.876 187.251C102.848 190.293 99.4046 192.087 95.7506 192.001C92.0958 191.914 88.7362 189.959 86.8548 186.824L80.7506 176.647C75.0488 167.144 67.305 159.024 58.084 152.876C53.1823 149.609 51.8579 142.986 55.1256 138.085C58.3934 133.183 65.0157 131.859 69.9173 135.126C80.4052 142.118 89.3868 151.105 96.3965 161.543C119.854 126.872 150.602 97.7345 186.511 76.1889Z" fill="black"/>
</svg>
