<svg width="256" height="256" viewBox="0 0 256 256" fill="none" xmlns="http://www.w3.org/2000/svg">
<path d="M127.999 0C147.602 7.76364e-08 165.127 8.82653 176.864 22.7083C171.789 23.6218 166.789 24.9759 161.937 26.8021C150.57 31.0808 140.243 37.7348 131.655 46.3229C127.49 50.4884 127.49 57.2512 131.655 61.4167C135.821 65.5817 142.584 65.5817 146.749 61.4167C153.191 54.975 160.932 49.9799 169.457 46.7708C177.983 43.5623 187.097 42.2064 196.187 42.8021C205.275 43.398 214.133 45.9261 222.166 50.2188C230.2 54.5131 237.224 60.4811 242.77 67.7083C248.316 74.9358 252.264 83.2634 254.332 92.1354C255.044 95.1861 255.513 98.2788 255.77 101.385C253.644 126.891 236.558 148.133 213.312 156.344C213.319 157.547 213.332 158.766 213.332 160C213.332 240 199.11 256 127.999 256C62.8051 256 45.4292 242.551 42.9887 178.667C51.6483 180.867 60.617 181.733 69.5825 181.146C82.6424 180.289 95.3312 176.44 106.666 169.896C111.765 166.95 113.514 160.434 110.572 155.333C107.626 150.232 101.101 148.482 95.9991 151.427C87.4983 156.335 77.9814 159.222 68.1866 159.865C58.4567 160.502 48.7155 158.891 39.697 155.188C30.2714 151.314 21.9754 145.267 15.4366 137.656C14.0944 136.091 12.8259 134.472 11.6449 132.792C11.4796 132.557 11.3176 132.32 11.1554 132.083C7.09663 126.141 4.04775 119.547 2.1762 112.563C0.92721 107.9 0.215128 103.126 0.0407805 98.3333C0.0304674 98.0457 0.0264494 97.7574 0.0199472 97.4688C0.00185496 96.6772 0.00866967 95.8856 0.0199472 95.0938C0.058828 92.293 0.267703 89.5361 0.655364 86.8333C0.816135 85.7222 1.00869 84.6144 1.22828 83.5104C3.12732 73.9661 7.1797 64.9815 13.072 57.2396C15.371 54.2235 17.9291 51.4157 20.7179 48.8542C22.4345 47.2784 24.2355 45.7959 26.1137 44.4167C27.1989 43.6183 28.3111 42.855 29.447 42.125C31.4564 40.8364 33.5457 39.6651 35.697 38.6042C41.1258 35.9272 46.8896 34.0428 52.8116 32.9896C56.4451 32.3488 60.1818 32 63.9991 32C66.7986 32 69.555 32.1931 72.2595 32.5417C83.2467 13.1158 104.089 0.000249966 127.999 0Z" fill="black"/>
</svg>
