<svg width="256" height="256" viewBox="0 0 256 256" fill="none" xmlns="http://www.w3.org/2000/svg">
<path fill-rule="evenodd" clip-rule="evenodd" d="M223.521 56.7604C231.987 74.5727 234.666 100.733 234.666 138.667C234.666 236.442 216.888 256 128 256C39.1115 256 21.3333 236.442 21.333 138.667C21.3331 100.736 24.0039 74.5727 32.4684 56.7604C35.6168 97.9341 55.6118 106.667 128 106.667C200.387 106.667 220.372 97.9334 223.521 56.7604ZM85.333 192C79.4428 192 74.6677 196.777 74.6663 202.667C74.6676 208.557 79.4428 213.333 85.333 213.333H170.666C176.557 213.333 181.332 208.557 181.333 202.667C181.332 196.777 176.557 192 170.666 192H85.333ZM85.333 138.667C79.4428 138.667 74.6676 143.443 74.6663 149.333C74.6676 155.223 79.4428 160 85.333 160H170.666C176.557 160 181.332 155.223 181.333 149.333C181.332 143.443 176.557 138.667 170.666 138.667H85.333Z" fill="black"/>
<path d="M128 0C190.222 1.93763e-07 202.666 7.11111 202.666 42.6667C202.666 78.2222 190.222 85.3333 128 85.3333C65.7775 85.3333 53.333 78.2222 53.333 42.6667C53.333 7.11111 65.7775 0 128 0Z" fill="black"/>
</svg>
