<svg width="256" height="256" viewBox="0 0 256 256" fill="none" xmlns="http://www.w3.org/2000/svg">
<path fill-rule="evenodd" clip-rule="evenodd" d="M128 0C234.667 0 256 21.3333 256 128C256 234.667 234.667 256 128 256C21.3333 256 0 234.667 0 128C0 21.3333 21.3333 0 128 0ZM128 53.3333C122.109 53.3333 117.333 58.109 117.333 64V138.667C117.333 144.558 122.109 149.333 128 149.333H170.667C176.558 149.333 181.333 144.558 181.333 138.667C181.333 132.776 176.558 128 170.667 128H138.667V64C138.667 58.109 133.891 53.3333 128 53.3333Z" fill="black"/>
</svg>
