<svg width="256" height="256" viewBox="0 0 256 256" fill="none" xmlns="http://www.w3.org/2000/svg">
<path fill-rule="evenodd" clip-rule="evenodd" d="M106.667 10.667C146.588 10.6674 180.07 38.0784 189.396 75.1045C226.84 79.1259 256 110.822 256 149.334C256 181.172 235.832 212.919 206.219 223.386C155.55 241.294 100.45 241.295 49.7813 223.386C20.1688 212.919 0.000481085 181.173 0 149.334C0 128.987 8.15786 110.54 21.3438 97.0837C21.3392 96.723 21.3333 96.3619 21.3333 96.0003C21.3333 48.8724 59.5388 10.667 106.667 10.667ZM132.771 97.1253C130.142 95.811 127.105 95.6488 124.375 96.6357L123.229 97.1253L115.385 101.042C105.423 106.022 96.3329 112.582 88.4583 120.459C84.2936 124.624 84.2931 131.377 88.4583 135.542C92.6241 139.707 99.3765 139.707 103.542 135.542C107.73 131.353 112.361 127.646 117.333 124.459V181.334C117.333 187.225 122.109 192 128 192C133.891 192 138.667 187.225 138.667 181.334V124.459C143.64 127.646 148.27 131.353 152.458 135.542C156.624 139.708 163.376 139.708 167.542 135.542C171.707 131.376 171.707 124.624 167.542 120.459C159.666 112.583 150.576 106.023 140.615 101.042L132.771 97.1253Z" fill="black"/>
</svg>
