<svg width="256" height="256" viewBox="0 0 256 256" fill="none" xmlns="http://www.w3.org/2000/svg">
<path fill-rule="evenodd" clip-rule="evenodd" d="M106.667 10.667C146.588 10.6674 180.07 38.0784 189.396 75.1045C226.84 79.1259 256 110.822 256 149.334C256 181.172 235.832 212.919 206.219 223.386C155.55 241.294 100.45 241.295 49.7813 223.386C20.1688 212.919 0.000481085 181.173 0 149.334C0 128.987 8.15786 110.54 21.3438 97.0837C21.3392 96.723 21.3333 96.3619 21.3333 96.0003C21.3333 48.8724 59.5388 10.667 106.667 10.667ZM128 85.3337C122.109 85.3337 117.333 90.1093 117.333 96.0003V152.875C112.361 149.688 107.73 145.981 103.542 141.792C99.3765 137.627 92.6241 137.627 88.4583 141.792C84.2931 145.957 84.2936 152.71 88.4583 156.875C96.3329 164.752 105.423 171.312 115.385 176.292L123.229 180.209L124.375 180.698C127.105 181.685 130.142 181.523 132.771 180.209L140.615 176.292C150.576 171.311 159.666 164.751 167.542 156.875C171.707 152.71 171.707 145.958 167.542 141.792C163.376 137.626 156.624 137.626 152.458 141.792C148.27 145.981 143.64 149.688 138.667 152.875V96.0003C138.667 90.1093 133.891 85.3337 128 85.3337Z" fill="black"/>
</svg>
