<svg width="256" height="256" viewBox="0 0 256 256" fill="none" xmlns="http://www.w3.org/2000/svg">
<path fill-rule="evenodd" clip-rule="evenodd" d="M128 0C234.667 0 256 21.3333 256 128C256 234.667 234.667 256 128 256C21.3333 256 0 234.667 0 128C0 21.3333 21.3333 0 128 0ZM186.104 139.792C180.835 137.157 174.426 139.293 171.792 144.563C169.157 149.832 171.293 156.24 176.563 158.875C186.682 163.935 195.237 171.772 201.135 181.333C195.237 190.894 186.682 198.732 176.563 203.792C171.293 206.426 169.157 212.835 171.792 218.104C174.426 223.373 180.835 225.51 186.104 222.875C201.884 214.985 214.876 202.101 222.792 186.271C224.344 183.165 224.344 179.501 222.792 176.396C214.876 160.566 201.884 147.681 186.104 139.792ZM199.542 56.4583C195.376 52.2927 188.624 52.2927 184.458 56.4583L56.4583 184.458C52.2927 188.624 52.2927 195.376 56.4583 199.542C60.6239 203.707 67.3761 203.707 71.5417 199.542L199.542 71.5417C203.707 67.3761 203.707 60.6239 199.542 56.4583ZM84.2083 37.8958C81.5738 32.6267 75.1649 30.4904 69.8958 33.125C54.1162 41.0148 41.1243 53.8994 33.2083 69.7292C31.6556 72.8346 31.6556 76.4987 33.2083 79.6042C41.1243 95.4339 54.1162 108.319 69.8958 116.208C75.1649 118.843 81.5738 116.707 84.2083 111.438C86.8429 106.168 84.7066 99.7596 79.4375 97.125C69.3181 92.0653 60.7629 84.2277 54.8646 74.6667C60.7629 65.1057 69.3181 57.2681 79.4375 52.2083C84.7066 49.5738 86.8429 43.1649 84.2083 37.8958Z" fill="black"/>
</svg>
