<svg width="257" height="256" viewBox="0 0 257 256" fill="none" xmlns="http://www.w3.org/2000/svg">
<path fill-rule="evenodd" clip-rule="evenodd" d="M106.667 85.3317C146.366 85.3317 194.295 84.8053 208.896 120.353L212.365 120.905C247.418 126.948 256.01 142.031 256.01 175.998L255.958 180.467C255.061 216.328 242.571 229.416 194.01 233.269C178.434 250.688 151.517 255.998 106.667 255.998C19.3939 255.998 0 235.914 0 145.561C0.0029271 84.5759 59.2181 85.3317 106.667 85.3317ZM213.333 145.561C213.333 173.339 211.481 194.473 206.406 210.426C216.172 208.925 222.097 206.975 225.729 204.978C229.151 203.094 230.753 201.126 231.979 197.998C233.57 193.94 234.677 187.347 234.677 175.998C234.677 164.652 233.569 158.057 231.979 153.998C230.753 150.871 229.15 148.902 225.729 147.019C223.045 145.543 219.103 144.081 213.292 142.811C213.319 143.713 213.333 144.63 213.333 145.561Z" fill="black"/>
<path d="M60.0417 0.758833C65.5105 -1.42644 71.7188 1.23826 73.9062 6.70675L75.7083 11.2276C82.4732 28.1419 81.6886 47.1421 73.5417 63.4359C70.9068 68.7038 64.4977 70.8406 59.2292 68.2068C53.9605 65.5724 51.8248 59.1631 54.4583 53.8943C59.8803 43.0503 60.4085 30.4011 55.9062 19.1442L54.0937 14.6234C51.9085 9.15479 54.5736 2.94643 60.0417 0.758833Z" fill="black"/>
<path d="M134.708 0.758833C140.177 -1.42644 146.386 1.23826 148.573 6.70675L150.375 11.2276C157.14 28.1419 156.355 47.1421 148.208 63.4359C145.573 68.7038 139.164 70.8406 133.896 68.2068C128.627 65.5724 126.491 59.1631 129.125 53.8943C134.547 43.0503 135.075 30.4011 130.573 19.1442L128.76 14.6234C126.575 9.15479 129.24 2.94643 134.708 0.758833Z" fill="black"/>
</svg>
