<svg width="256" height="256" viewBox="0 0 256 256" fill="none" xmlns="http://www.w3.org/2000/svg">
<path d="M128 149.333C138.666 149.333 170.666 181.333 170.666 192C170.666 202.666 138.666 234.666 128 234.666C117.333 234.666 85.333 202.666 85.333 192C85.333 181.333 117.333 149.333 128 149.333Z" fill="black"/>
<path d="M63.9997 85.333C74.6663 85.333 106.666 117.333 106.666 128C106.666 138.666 74.6663 170.666 63.9997 170.666C53.333 170.666 21.333 138.666 21.333 128C21.333 117.333 53.333 85.333 63.9997 85.333Z" fill="black"/>
<path d="M192 85.333C202.666 85.333 234.666 117.333 234.666 128C234.666 138.666 202.666 170.666 192 170.666C181.333 170.666 149.333 138.666 149.333 128C149.333 117.333 181.333 85.333 192 85.333Z" fill="black"/>
<path d="M128 21.333C138.666 21.333 170.666 53.333 170.666 63.9997C170.666 74.6663 138.666 106.666 128 106.666C117.333 106.666 85.333 74.6663 85.333 63.9997C85.333 53.333 117.333 21.333 128 21.333Z" fill="black"/>
</svg>
