<svg width="256" height="256" viewBox="0 0 256 256" fill="none" xmlns="http://www.w3.org/2000/svg">
<path d="M86.6979 2.15682C91.3991 -1.39102 98.0862 -0.459377 101.635 4.24015C105.183 8.94152 104.252 15.6288 99.5521 19.1777C89.93 26.4392 79.2394 36.1674 66.8542 48.5527C50.7904 64.6167 39.2732 77.7589 31.7917 89.3547C24.3771 100.848 21.3338 110.201 21.3333 118.844C21.3337 127.487 24.3767 136.841 31.7917 148.334C39.2738 159.931 50.7877 173.08 66.8542 189.146C82.9208 205.213 96.0695 216.727 107.667 224.209C119.16 231.624 128.513 234.667 137.156 234.667C145.799 234.667 155.153 231.624 166.646 224.209C178.242 216.727 191.384 205.21 207.448 189.146C219.833 176.761 229.561 166.071 236.823 156.448C240.372 151.748 247.059 150.817 251.76 154.365C256.459 157.915 257.391 164.602 253.844 169.303C245.725 180.061 235.217 191.544 222.531 204.23C206.167 220.594 191.745 233.402 178.208 242.136C164.568 250.936 151.215 256 137.156 256.001C123.098 256.001 109.744 250.935 96.1042 242.136C82.5663 233.402 68.1363 220.595 51.7708 204.23C35.4055 187.864 22.5988 173.434 13.8646 159.896C5.06523 146.257 0.000361136 132.902 0 118.844C0.000459112 104.786 5.06466 91.4324 13.8646 77.7922C22.5981 64.2553 35.407 49.8334 51.7708 33.4693C64.4564 20.7838 75.9397 10.2761 86.6979 2.15682Z" fill="black"/>
<path d="M168.917 10.8131C191.263 7.08911 214.071 7.08911 236.417 10.8131C236.441 10.8171 236.465 10.8193 236.49 10.8235C236.993 10.9104 237.49 11.0389 237.979 11.1985C238.039 11.218 238.097 11.2405 238.156 11.261C239.116 11.5927 240.034 12.0642 240.885 12.6777C240.938 12.7154 240.99 12.7536 241.042 12.7922C241.446 13.095 241.841 13.4245 242.208 13.7922C242.567 14.1514 242.89 14.5333 243.188 14.9277C243.226 14.9793 243.264 15.0316 243.302 15.0839C243.928 15.9466 244.404 16.8806 244.74 17.8547C244.756 17.9035 244.776 17.9515 244.792 18.0006C244.951 18.4859 245.069 18.9802 245.156 19.4797C245.162 19.5147 245.182 19.5488 245.188 19.5839C248.911 41.9295 248.911 64.7383 245.188 87.0839C244.219 92.8928 238.726 96.8209 232.917 95.8547C227.107 94.8865 223.18 89.393 224.146 83.5839C226.292 70.7073 227.03 57.6557 226.417 44.6568L156.875 114.209C152.71 118.372 145.957 118.372 141.792 114.209C137.627 110.044 137.628 103.291 141.792 99.1256L211.333 29.5735C198.338 28.9606 185.29 29.7092 172.417 31.8547C166.608 32.8209 161.115 28.8928 160.146 23.0839C159.179 17.2743 163.107 11.7815 168.917 10.8131Z" fill="black"/>
</svg>
