<svg width="256" height="256" viewBox="0 0 256 256" fill="none" xmlns="http://www.w3.org/2000/svg">
<path d="M160 64C238.283 64 255.265 79.3208 255.958 154.937C255.207 237.138 237.138 255.207 154.937 255.958C79.3208 255.265 64 238.283 64 160C64 80 80 64 160 64Z" fill="black"/>
<path d="M106.667 0C169.647 2.40253e-07 196.86 8.94002 207.406 45.7604C193.682 43.4136 177.832 42.6667 160 42.6667C139.577 42.6667 121.758 43.6589 106.75 46.8958C91.5032 50.1846 77.7457 56.0877 66.9167 66.9167C56.0877 77.7457 50.1846 91.5032 46.8958 106.75C43.6589 121.758 42.6667 139.577 42.6667 160C42.6667 177.832 43.4136 193.682 45.7604 207.406C8.94002 196.86 2.40268e-07 169.647 0 106.667C0 17.7778 17.7778 0 106.667 0Z" fill="black"/>
</svg>
