<svg width="256" height="256" viewBox="0 0 256 256" fill="none" xmlns="http://www.w3.org/2000/svg">
<path fill-rule="evenodd" clip-rule="evenodd" d="M0.59375 105.114C85.0992 93.0471 170.89 93.0481 255.396 105.114C255.812 112.162 256 119.777 256 128C256 216.889 234.667 234.666 128 234.666C21.3333 234.666 0 216.889 0 128C0 119.777 0.177964 112.162 0.59375 105.114ZM42.6667 160C36.7756 160 32 164.775 32 170.666C32 176.557 36.7756 181.333 42.6667 181.333H96C101.891 181.333 106.667 176.557 106.667 170.666C106.667 164.775 101.891 160 96 160H42.6667ZM138.667 160C132.776 160 128 164.775 128 170.666C128 176.557 132.776 181.333 138.667 181.333H160C165.891 181.333 170.667 176.557 170.667 170.666C170.667 164.775 165.891 160 160 160H138.667Z" fill="black"/>
<path d="M128 21.333C213.595 21.333 244.211 32.7858 252.979 83.2393C170.043 71.9002 85.9463 71.8993 3.01042 83.2393C11.7779 32.7843 42.4043 21.333 128 21.333Z" fill="black"/>
</svg>
