<svg width="256" height="256" viewBox="0 0 256 256" fill="none" xmlns="http://www.w3.org/2000/svg">
<path fill-rule="evenodd" clip-rule="evenodd" d="M106.667 21.3336C149.924 21.3336 202.945 20.5527 211.979 78.1773C247.353 84.1774 256 99.2435 256 133.334L255.948 137.802C255.106 171.436 244.077 185.061 202.646 189.802C189.314 224.838 161.282 234.667 106.667 234.667C19.3939 234.667 0 209.567 0 96.6252C0.00130291 20.3908 59.2175 21.3336 106.667 21.3336ZM213.271 106.959C212.986 131.248 211.613 151.15 208.635 167.396C217.083 165.947 222.372 164.152 225.719 162.313C229.142 160.429 230.742 158.461 231.969 155.334C233.559 151.275 234.666 144.68 234.667 133.334C234.667 121.986 233.559 115.392 231.969 111.334C230.742 108.205 229.144 106.238 225.719 104.354C223.037 102.88 219.114 101.405 213.313 100.136L213.271 106.959Z" fill="black"/>
</svg>
