<svg width="256" height="256" viewBox="0 0 256 256" fill="none" xmlns="http://www.w3.org/2000/svg">
<path fill-rule="evenodd" clip-rule="evenodd" d="M21.3349 21.3328C48.005 -5.33364 197.336 -5.33353 234.668 21.3328C256.001 42.6666 250.843 86.5003 245.335 127.999L244.127 136.197C243.707 138.778 243.249 141.315 242.762 143.812C242.585 144.719 242.375 145.614 242.189 146.51C241.852 148.133 241.516 149.743 241.147 151.333C240.895 152.422 240.613 153.498 240.345 154.572C240.032 155.827 239.732 157.077 239.397 158.312C239.044 159.617 238.651 160.903 238.272 162.187C237.967 163.224 237.668 164.258 237.345 165.281C236.764 167.124 236.169 168.949 235.533 170.749C235.435 171.027 235.341 171.306 235.241 171.583C234.543 173.523 233.81 175.439 233.043 177.333C232.949 177.567 232.847 177.798 232.752 178.031C231.985 179.898 231.193 181.747 230.356 183.572C230.225 183.856 230.081 184.133 229.949 184.416C228.384 187.772 226.698 191.061 224.877 194.291C224.006 195.834 223.111 197.367 222.179 198.885C221.784 199.528 221.376 200.163 220.97 200.802C220.707 201.215 220.446 201.63 220.179 202.041C219.952 202.39 219.721 202.736 219.491 203.083C219.007 203.813 218.522 204.545 218.022 205.27C217.856 205.512 217.68 205.748 217.512 205.989C217.022 206.692 216.528 207.395 216.022 208.093C215.81 208.387 215.602 208.686 215.387 208.979C214.876 209.674 214.35 210.361 213.824 211.052C213.579 211.374 213.334 211.698 213.085 212.02C212.723 212.488 212.35 212.95 211.981 213.416C210.699 215.033 209.381 216.643 208.012 218.239C207.826 218.455 207.637 218.669 207.449 218.885C206.064 220.484 204.635 222.074 203.158 223.656C202.902 223.93 202.646 224.205 202.387 224.479C199.147 227.903 195.696 231.3 192.002 234.666C188.716 237.659 185.541 240.213 182.449 242.437C181.993 242.766 181.55 243.103 181.095 243.416C180.622 243.742 180.139 244.044 179.668 244.354C178.918 244.847 178.175 245.327 177.429 245.781C177.038 246.018 176.642 246.241 176.252 246.468C175.523 246.892 174.803 247.31 174.074 247.697C173.518 247.994 172.955 248.265 172.397 248.541C171.806 248.834 171.22 249.124 170.627 249.395C170.038 249.664 169.447 249.918 168.856 250.166C168.28 250.407 167.705 250.642 167.127 250.864C166.528 251.094 165.928 251.31 165.324 251.52C164.734 251.726 164.139 251.916 163.543 252.104C162.932 252.296 162.318 252.481 161.699 252.656C161.143 252.813 160.586 252.971 160.022 253.114C159.377 253.278 158.729 253.436 158.074 253.583C157.362 253.742 156.644 253.891 155.918 254.031C155.438 254.123 154.956 254.217 154.47 254.302C153.677 254.439 152.875 254.559 152.064 254.677C151.547 254.751 151.027 254.828 150.502 254.895C149.675 255.001 148.839 255.1 147.991 255.187C147.437 255.244 146.878 255.304 146.314 255.354C145.675 255.41 145.029 255.452 144.377 255.499C143.534 255.561 142.68 255.629 141.814 255.677C141.264 255.707 140.708 255.724 140.147 255.749C139.335 255.786 138.513 255.827 137.679 255.854C137.347 255.864 137.014 255.865 136.679 255.874C135.507 255.907 134.314 255.951 133.095 255.968L128.002 255.999L122.897 255.968L122.856 255.958C120.28 255.922 117.814 255.842 115.439 255.729C114.949 255.705 114.463 255.693 113.981 255.666C113.544 255.641 113.11 255.611 112.679 255.583C111.659 255.516 110.656 255.441 109.668 255.354C109.203 255.313 108.741 255.264 108.283 255.218C107.506 255.14 106.74 255.051 105.981 254.958C105.396 254.886 104.816 254.81 104.241 254.729C103.337 254.601 102.446 254.455 101.564 254.302C101.268 254.25 100.972 254.21 100.679 254.156C99.7004 253.975 98.7376 253.767 97.7828 253.552C97.4673 253.48 97.148 253.429 96.8349 253.354C94.4083 252.77 92.0539 252.049 89.7307 251.197C89.5007 251.113 89.2725 251.024 89.0432 250.937C88.1082 250.581 87.1775 250.207 86.2515 249.802C85.8882 249.642 85.5306 249.469 85.1682 249.302C84.4482 248.97 83.7296 248.624 83.0119 248.26C82.5123 248.006 82.0112 247.749 81.5119 247.479C80.8241 247.106 80.1381 246.717 79.4494 246.312C79.0161 246.057 78.5815 245.799 78.1474 245.531C77.488 245.124 76.8307 244.698 76.1682 244.26C75.6963 243.948 75.2152 243.64 74.7411 243.312C73.9773 242.783 73.2208 242.218 72.4494 241.645C72.0643 241.359 71.6702 241.078 71.2828 240.781C70.1409 239.904 68.9804 238.988 67.814 238.01L64.0015 234.666C62.0582 232.896 60.1818 231.117 58.3661 229.333C31.1316 202.565 18.0195 173.949 11.8765 136.197L10.6682 127.999C5.33248 87.7962 0.319311 45.401 19.4078 23.3953L21.3349 21.3328ZM124.002 22.6661C102.241 22.666 81.2337 24.2764 64.4807 27.3224C56.0926 28.8476 49.2331 30.6499 44.0744 32.5724C41.5172 33.5254 39.6088 34.4266 38.2515 35.1974C36.9661 35.9274 36.4604 36.3782 36.4182 36.4161C31.5608 41.2735 27.8791 50.7353 27.2515 67.8849C26.7322 82.0781 28.3891 98.3162 30.6057 115.781L65.6369 109.947C78.63 107.783 91.931 108.315 104.71 111.51C120.001 115.332 136.002 115.333 151.293 111.51C164.072 108.316 177.373 107.782 190.366 109.947L225.387 115.781C227.604 98.3157 229.271 82.0784 228.752 67.8849C228.178 52.2114 225.045 42.9649 220.804 37.7807C215.02 34.3231 203.352 30.344 185.772 27.364C167.514 24.2693 145.732 22.6663 124.002 22.6661Z" fill="black"/>
</svg>
