<svg width="257" height="256" viewBox="0 0 257 256" fill="none" xmlns="http://www.w3.org/2000/svg">
<path fill-rule="evenodd" clip-rule="evenodd" d="M106.667 85.3337C146.364 85.3337 194.293 84.8116 208.896 120.355L212.365 120.907C247.418 126.95 256.01 142.032 256.01 176L255.958 180.469C255.061 216.33 242.571 229.418 194.01 233.271C178.434 250.691 151.518 256 106.667 256C19.3953 256 0.000604522 235.923 0 145.573C0.000447751 84.5844 59.2172 85.3337 106.667 85.3337ZM213.292 142.813C213.319 143.719 213.333 144.639 213.333 145.573C213.333 173.423 211.46 194.586 206.354 210.552C206.367 210.513 206.394 210.478 206.406 210.438C216.172 208.937 222.097 206.977 225.729 204.98C229.151 203.096 230.753 201.128 231.979 198C233.57 193.942 234.677 187.349 234.677 176C234.677 164.654 233.569 158.059 231.979 154C230.753 150.873 229.15 148.904 225.729 147.021C223.045 145.545 219.103 144.083 213.292 142.813Z" fill="black"/>
<path d="M60.0417 0.760786C65.5105 -1.42449 71.7188 1.24021 73.9062 6.7087L75.7083 11.2295C82.4732 28.1439 81.6886 47.144 73.5417 63.4379C70.9068 68.7058 64.4977 70.8425 59.2292 68.2087C53.9605 65.5744 51.8248 59.1651 54.4583 53.8962C59.8803 43.0523 60.4085 30.403 55.9062 19.1462L54.0937 14.6254C51.9085 9.15674 54.5736 2.94839 60.0417 0.760786Z" fill="black"/>
<path d="M134.708 0.760786C140.177 -1.42449 146.386 1.24021 148.573 6.7087L150.375 11.2295C157.14 28.1439 156.355 47.144 148.208 63.4379C145.573 68.7058 139.164 70.8425 133.896 68.2087C128.627 65.5744 126.491 59.1651 129.125 53.8962C134.547 43.0523 135.075 30.403 130.573 19.1462L128.76 14.6254C126.575 9.15674 129.24 2.94839 134.708 0.760786Z" fill="black"/>
</svg>
