<svg width="256" height="256" viewBox="0 0 256 256" fill="none" xmlns="http://www.w3.org/2000/svg">
<path d="M128 106.666C139.782 106.666 149.333 116.218 149.333 128C149.333 139.782 139.782 149.333 128 149.333C116.218 149.333 106.667 139.782 106.667 128C106.667 116.218 116.218 106.666 128 106.666Z" fill="black"/>
<path fill-rule="evenodd" clip-rule="evenodd" d="M128 21.333C234.667 21.333 256 39.1108 256 128C256 216.889 234.667 234.666 128 234.666C21.3333 234.666 0 216.889 0 128C0 39.1108 21.3333 21.333 128 21.333ZM53.3333 170.666C44.4444 170.666 42.6667 172.444 42.6667 181.333C42.6667 190.222 44.4444 192 53.3333 192C62.2222 192 64 190.222 64 181.333C64 172.444 62.2222 170.666 53.3333 170.666ZM202.667 170.666C193.778 170.666 192 172.444 192 181.333C192 190.222 193.778 192 202.667 192C211.556 192 213.333 190.222 213.333 181.333C213.333 172.444 211.556 170.666 202.667 170.666ZM128 85.333C104.436 85.333 85.3333 104.436 85.3333 128C85.3333 151.564 104.436 170.666 128 170.666C151.564 170.666 170.667 151.564 170.667 128C170.667 104.436 151.564 85.333 128 85.333ZM53.3333 63.9997C44.4444 63.9997 42.6667 65.7775 42.6667 74.6663C42.6667 83.5552 44.4444 85.333 53.3333 85.333C62.2222 85.333 64 83.5552 64 74.6663C64 65.7775 62.2222 63.9997 53.3333 63.9997ZM202.667 63.9997C193.778 63.9997 192 65.7775 192 74.6663C192 83.5552 193.778 85.333 202.667 85.333C211.556 85.333 213.333 83.5552 213.333 74.6663C213.333 65.7775 211.556 63.9997 202.667 63.9997Z" fill="black"/>
</svg>
