<svg width="256" height="256" viewBox="0 0 256 256" fill="none" xmlns="http://www.w3.org/2000/svg">
<path d="M88.3335 21.283C89.6022 12.7184 81.6261 5.1012 73.9064 9.0226C62.2053 14.9669 51.2218 22.822 41.4377 32.6059C-8.54621 82.593 -8.54766 163.641 41.4377 213.627C91.4238 263.613 172.471 263.611 222.458 213.627C232.245 203.84 240.1 192.853 246.042 181.148C249.961 173.427 242.336 165.46 233.771 166.731C195.053 172.475 154.211 160.463 124.406 130.658C94.6003 100.851 82.5884 60.0038 88.3335 21.283Z" fill="black"/>
<path d="M193.313 38.2309C189.87 34.7882 184.288 34.7897 180.844 38.2309C179.681 39.3941 178.768 40.7894 178.177 42.3247L174.99 50.6268C174.763 51.215 174.296 51.6805 173.708 51.908L165.406 55.1059C163.871 55.6965 162.476 56.5991 161.313 57.7622C157.869 61.206 157.869 66.7871 161.313 70.2309C162.476 71.394 163.871 72.2966 165.406 72.8872L173.708 76.0851C174.296 76.3126 174.763 76.7781 174.99 77.3663L178.177 85.6684C178.768 87.2037 179.681 88.599 180.844 89.7622C184.288 93.2035 189.87 93.2049 193.313 89.7622C194.475 88.5994 195.378 87.2032 195.969 85.6684L199.167 77.3663C199.394 76.7776 199.859 76.3119 200.448 76.0851L208.75 72.8872C210.284 72.2965 211.682 71.3931 212.844 70.2309C216.284 66.7876 216.284 61.2055 212.844 57.7622C211.682 56.6 210.284 55.6966 208.75 55.1059L200.448 51.908C199.859 51.6812 199.394 51.2155 199.167 50.6268L195.969 42.3247C195.378 40.79 194.475 39.3937 193.313 38.2309Z" fill="black"/>
</svg>
