<svg width="256" height="256" viewBox="0 0 256 256" fill="none" xmlns="http://www.w3.org/2000/svg">
<path d="M73.9089 9.0304C81.6291 5.10875 89.6059 12.7255 88.336 21.2908C82.5908 60.012 94.6022 100.859 124.409 130.666C154.215 160.471 195.055 172.474 233.773 166.728C242.339 165.457 249.964 173.434 246.044 181.155C240.102 192.861 232.247 203.848 222.461 213.635C172.474 263.618 91.4264 263.619 41.4401 213.635C-8.54606 163.648 -8.54423 82.6011 41.4401 32.6137C51.2246 22.8295 62.2074 14.9747 73.9089 9.0304Z" fill="black"/>
<path d="M209.159 100.155C211.455 97.8594 215.186 97.8594 217.482 100.155C218.257 100.93 218.859 101.862 219.253 102.885L221.378 108.416C221.529 108.809 221.839 109.129 222.232 109.28L227.763 111.405C228.785 111.799 229.717 112.402 230.492 113.176C232.788 115.472 232.788 119.193 230.492 121.489C229.717 122.264 228.787 122.876 227.763 123.27L222.232 125.395C221.84 125.547 221.529 125.857 221.378 126.249L219.253 131.78C218.859 132.802 218.256 133.735 217.482 134.51C215.186 136.806 211.455 136.806 209.159 134.51C208.385 133.735 207.781 132.802 207.388 131.78L205.263 126.249C205.112 125.857 204.801 125.547 204.409 125.395L198.878 123.27C197.854 122.876 196.924 122.264 196.148 121.489C193.852 119.193 193.852 115.472 196.148 113.176C196.923 112.402 197.856 111.799 198.878 111.405L204.409 109.28C204.802 109.129 205.112 108.809 205.263 108.416L207.388 102.885C207.782 101.862 208.384 100.93 209.159 100.155Z" fill="black"/>
<path d="M217.753 6.23873C221.196 2.79542 226.778 2.79542 230.221 6.23873C231.384 7.40179 232.287 8.79736 232.878 10.3325L236.076 18.6346C236.303 19.2225 236.769 19.689 237.357 19.9158L245.659 23.1033C247.194 23.6939 248.589 24.6068 249.753 25.77C253.194 29.214 253.195 34.7955 249.753 38.2387C248.59 39.4015 247.194 40.3044 245.659 40.895L237.357 44.0929C236.768 44.3204 236.302 44.7851 236.076 45.3741L232.878 53.6762C232.287 55.21 231.384 56.6078 230.221 57.77C226.778 61.2107 221.196 61.2107 217.753 57.77C216.59 56.6078 215.687 55.21 215.096 53.6762L211.898 45.3741C211.672 44.7851 211.206 44.3204 210.617 44.0929L202.315 40.895C200.78 40.3044 199.384 39.4015 198.221 38.2387C194.779 34.7955 194.78 29.214 198.221 25.77C199.385 24.6068 200.78 23.6939 202.315 23.1033L210.617 19.9158C211.205 19.689 211.671 19.2225 211.898 18.6346L215.096 10.3325C215.687 8.79736 216.59 7.40179 217.753 6.23873Z" fill="black"/>
<path d="M134.492 14.8221C136.788 12.5261 140.519 12.5261 142.815 14.8221C143.59 15.5969 144.192 16.5287 144.586 17.5512L146.711 23.0825C146.862 23.4755 147.172 23.7954 147.565 23.9471L153.096 26.0721C154.118 26.4652 155.051 27.069 155.826 27.8429C158.122 30.1389 158.122 33.8594 155.826 36.1554C155.05 36.9308 154.12 37.5429 153.096 37.9366L147.565 40.0616C147.173 40.2134 146.862 40.5236 146.711 40.9158L144.586 46.4471C144.193 47.4691 143.589 48.4014 142.815 49.1762C140.519 51.4722 136.788 51.4722 134.492 49.1762C133.718 48.4014 133.115 47.4691 132.721 46.4471L130.596 40.9158C130.445 40.5236 130.134 40.2134 129.742 40.0616L124.211 37.9366C123.187 37.5429 122.257 36.9308 121.482 36.1554C119.186 33.8594 119.186 30.1389 121.482 27.8429C122.257 27.069 123.189 26.4652 124.211 26.0721L129.742 23.9471C130.135 23.7954 130.445 23.4755 130.596 23.0825L132.721 17.5512C133.115 16.5287 133.717 15.5969 134.492 14.8221Z" fill="black"/>
</svg>
