<svg width="256" height="256" viewBox="0 0 256 256" fill="none" xmlns="http://www.w3.org/2000/svg">
<path d="M64.0003 138.667C108.445 138.667 117.334 147.556 117.334 192C117.334 236.445 108.445 245.334 64.0003 245.334C19.5559 245.334 10.667 236.445 10.667 192C10.667 147.556 19.5559 138.667 64.0003 138.667Z" fill="black"/>
<path d="M192 138.667C236.445 138.667 245.334 147.556 245.334 192C245.334 236.445 236.445 245.334 192 245.334C147.556 245.334 138.667 236.445 138.667 192C138.667 147.556 147.556 138.667 192 138.667Z" fill="black"/>
<path d="M64.0003 10.667C108.445 10.667 117.334 19.5559 117.334 64.0003C117.334 108.445 108.445 117.334 64.0003 117.334C19.5559 117.334 10.667 108.445 10.667 64.0003C10.667 19.5559 19.5559 10.667 64.0003 10.667Z" fill="black"/>
<path d="M192 10.667C197.891 10.667 202.667 15.4426 202.667 21.3337V53.3337H234.667C240.558 53.3337 245.334 58.1093 245.334 64.0003C245.334 69.8914 240.558 74.667 234.667 74.667H202.667V106.667C202.667 112.558 197.891 117.334 192 117.334C186.109 117.334 181.334 112.558 181.334 106.667V74.667H149.334C143.443 74.667 138.667 69.8914 138.667 64.0003C138.667 58.1093 143.443 53.3337 149.334 53.3337H181.334V21.3337C181.334 15.4426 186.109 10.667 192 10.667Z" fill="black"/>
</svg>
