<svg width="256" height="256" viewBox="0 0 256 256" fill="none" xmlns="http://www.w3.org/2000/svg">
<path d="M80.7604 74.0104C135.123 67.5666 190.03 67.052 244.51 72.5L252.833 73.3333C255.096 88.4335 256 106.477 256 128C256 234.667 234.667 256 128 256C111.53 256 97.0951 255.482 84.4583 254.229C80.1709 194.241 78.9276 134.092 80.7604 74.0104Z" fill="black"/>
<path d="M62.8229 5.03125C57.191 86.9104 57.1915 169.079 62.8229 250.958C11.9728 239.922 0 207.907 0 128C0 48.0919 11.971 16.0668 62.8229 5.03125Z" fill="black"/>
<path d="M128 0C201.546 0 234.517 10.1442 247.906 51.4063L246.635 51.2813C191.716 45.7893 136.374 46.1884 81.5521 52.4479C82.2741 35.5422 83.2514 18.6454 84.4583 1.76042C97.0949 0.507636 111.53 0 128 0Z" fill="black"/>
</svg>
