<svg width="256" height="256" viewBox="0 0 256 256" fill="none" xmlns="http://www.w3.org/2000/svg">
<path d="M128 0C234.667 0 256 17.7778 256 106.667C256 192.51 236.103 212.023 138.667 213.26V229.729C150.293 230.395 161.872 232.145 173.25 234.99C178.964 236.418 182.438 242.202 181.01 247.917C179.582 253.631 173.798 257.104 168.083 255.677C141.769 249.098 114.231 249.098 87.9167 255.677C82.2023 257.104 76.4182 253.631 74.9896 247.917C73.5624 242.202 77.0357 236.418 82.75 234.99C94.1282 232.145 105.707 230.395 117.333 229.729V213.26C19.8965 212.023 3.92987e-07 192.51 0 106.667C0 17.7778 21.3333 0 128 0Z" fill="black"/>
</svg>
