<svg width="256" height="256" viewBox="0 0 256 256" fill="none" xmlns="http://www.w3.org/2000/svg">
<path fill-rule="evenodd" clip-rule="evenodd" d="M114.906 2.91702C123.491 0.874013 132.509 0.874012 141.094 2.91702C221.355 22.0183 256 54.6525 256 143.615C255.999 237.269 234.665 256 128 256C21.3351 256 0.000703126 237.269 0 143.615C0 54.6525 34.6453 22.0183 114.906 2.91702ZM128 74.667C122.109 74.667 117.333 79.4427 117.333 85.3337V106.667C117.333 112.558 122.109 117.334 128 117.334C133.891 117.334 138.667 112.558 138.667 106.667V85.3337C138.667 79.4427 133.891 74.667 128 74.667ZM90.6667 42.667C85.1449 42.667 80.5997 46.8627 80.0521 52.2399L79.9479 54.4274C79.4004 59.8048 74.8552 64.0004 69.3333 64.0004H64C58.109 64.0004 53.3334 68.7761 53.3333 74.667C53.3333 80.5581 58.109 85.3337 64 85.3337H69.3333C87.0064 85.3337 101.333 71.0068 101.333 53.3337C101.333 47.4427 96.5576 42.667 90.6667 42.667ZM170.667 42.667C164.776 42.667 160 47.4427 160 53.3337C160 71.0068 174.327 85.3337 192 85.3337H197.333C203.224 85.3337 208 80.5581 208 74.667C208 68.7761 203.224 64.0004 197.333 64.0004H192C186.478 64.0004 181.933 59.8048 181.385 54.4274L181.281 52.2399C180.734 46.8627 176.188 42.667 170.667 42.667Z" fill="black"/>
</svg>
