<svg width="256" height="256" viewBox="0 0 256 256" fill="none" xmlns="http://www.w3.org/2000/svg">
<path d="M32.0003 106.666C49.7781 106.666 53.3337 110.222 53.3337 127.999C53.3337 145.777 49.7781 149.333 32.0003 149.333C14.2225 149.333 10.667 145.777 10.667 127.999C10.667 110.222 14.2225 106.666 32.0003 106.666Z" fill="black"/>
<path d="M128 106.666C145.778 106.666 149.334 110.222 149.334 127.999C149.334 145.777 145.778 149.333 128 149.333C110.223 149.333 106.667 145.777 106.667 127.999C106.667 110.222 110.223 106.666 128 106.666Z" fill="black"/>
<path d="M224 106.666C241.778 106.666 245.334 110.222 245.334 127.999C245.334 145.777 241.778 149.333 224 149.333C206.223 149.333 202.667 145.777 202.667 127.999C202.667 110.222 206.223 106.666 224 106.666Z" fill="black"/>
</svg>
