<svg width="257" height="257" viewBox="0 0 257 257" fill="none" xmlns="http://www.w3.org/2000/svg">
<path d="M174.414 10.7142C195.79 10.1969 216.902 14.1269 229.976 27.1933C243.077 40.2916 246.895 61.4532 246.268 82.8287C245.622 104.788 240.226 129.765 231.861 153.495C223.492 177.239 211.938 200.34 198.57 218.433C185.509 236.109 169.355 250.832 151.247 254.454C118.12 261.076 93.7015 245.438 78.3927 229.454C73.3602 224.199 69.2169 218.792 65.9079 213.928C64.088 211.252 64.5109 207.677 66.7975 205.387L70.5953 201.584C70.6109 201.569 70.6137 201.545 70.601 201.527C70.5883 201.509 70.5911 201.484 70.6067 201.469L93.8718 178.214C98.0351 174.049 98.0353 167.296 93.8718 163.131C89.7067 158.968 82.9535 158.968 78.7885 163.131L63.2245 178.684L63.2313 178.735L63.238 178.785L53.4056 188.618C50.022 192.001 44.7379 192.675 40.8082 189.945C36.5659 186.998 32.0195 183.452 27.5802 179.266C11.4331 164.041 -4.15065 139.613 2.60101 105.881C6.28359 87.4903 20.9976 71.1843 38.7468 58.0267C56.8784 44.5863 79.9963 33.0694 103.747 24.7871C127.487 16.5087 152.463 11.2463 174.414 10.7142Z" fill="black"/>
</svg>
