<svg width="256" height="257" viewBox="0 0 256 257" fill="none" xmlns="http://www.w3.org/2000/svg">
<path d="M128 0.962891C152.656 0.962891 173.121 2.18123 189.833 5.78581C206.665 9.4163 220.405 15.6178 230.875 26.0879C241.345 36.558 247.547 50.2979 251.177 67.1296C254.782 83.8417 256 104.307 256 128.963C256 136.404 255.881 143.492 255.625 150.234H255.833L255.167 159.494C255.126 160.14 255.065 160.782 255.021 161.421C240.013 162.031 226.885 163.372 215.5 165.827C198.669 169.458 184.928 175.66 174.458 186.13C163.99 196.599 157.786 210.341 154.156 227.171C152.273 235.904 151.049 245.661 150.302 256.505C149.67 256.53 149.035 256.575 148.396 256.598L138.833 257.005V256.859C135.319 256.918 131.709 256.963 128 256.963C103.344 256.963 82.8788 255.745 66.1667 252.14C49.335 248.51 35.5951 242.308 25.125 231.838C14.6549 221.368 8.45341 207.628 4.82292 190.796C1.21834 174.084 0 153.619 0 128.963C0 104.307 1.21834 83.8417 4.82292 67.1296C8.45341 50.2979 14.6549 36.558 25.125 26.0879C35.5951 15.6178 49.335 9.4163 66.1667 5.78581C82.8788 2.18123 103.344 0.962891 128 0.962891Z" fill="black"/>
<path d="M252.469 183.88C252.363 184.505 252.257 185.127 252.146 185.744C251.956 186.791 251.759 187.826 251.552 188.848C251.372 189.743 251.184 190.628 250.99 191.505C250.802 192.35 250.617 193.187 250.417 194.015C250.229 194.793 250.033 195.564 249.833 196.327C249.583 197.281 249.321 198.221 249.052 199.15C248.863 199.803 248.657 200.446 248.458 201.088C248.171 202.015 247.891 202.935 247.583 203.838C247.387 204.414 247.174 204.98 246.969 205.546C246.618 206.517 246.272 207.48 245.896 208.421C245.676 208.971 245.427 209.506 245.198 210.046C244.816 210.947 244.438 211.84 244.031 212.713C243.84 213.124 243.635 213.527 243.438 213.932C242.972 214.887 242.509 215.833 242.01 216.755C241.736 217.262 241.442 217.757 241.156 218.255C240.764 218.939 240.391 219.631 239.979 220.296C233.463 230.825 224.823 238.381 214.104 243.828C213.894 243.934 213.691 244.056 213.479 244.161C212.36 244.717 211.217 245.244 210.052 245.755C209.809 245.861 209.568 245.973 209.323 246.078C208.169 246.571 206.99 247.032 205.792 247.484C205.466 247.607 205.142 247.739 204.813 247.859C203.626 248.291 202.416 248.694 201.188 249.088C200.893 249.182 200.599 249.277 200.302 249.369C199.046 249.76 197.768 250.13 196.469 250.484C196.133 250.575 195.797 250.666 195.458 250.755C194.123 251.106 192.766 251.44 191.385 251.755C191.122 251.815 190.859 251.883 190.594 251.942C184.739 253.241 178.493 254.255 171.844 254.994H171.802C172.501 246.196 173.544 238.47 175.01 231.671C178.102 217.339 182.902 207.854 189.542 201.213C196.182 194.572 205.666 189.773 220 186.682C229.098 184.719 239.857 183.499 252.625 182.869C252.57 183.207 252.525 183.545 252.469 183.88Z" fill="black"/>
</svg>
