<svg width="256" height="256" viewBox="0 0 256 256" fill="none" xmlns="http://www.w3.org/2000/svg">
<path fill-rule="evenodd" clip-rule="evenodd" d="M128 0C198.692 0 256 57.3076 256 128C256 198.692 198.692 256 128 256C57.3076 256 0 198.692 0 128C0 57.3076 57.3076 0 128 0ZM188.875 67.125C184.71 62.9599 177.957 62.9599 173.792 67.125L128 112.917L82.2083 67.125C78.0428 62.9599 71.2905 62.9599 67.125 67.125C62.9595 71.2905 62.9598 78.0427 67.125 82.2083L112.917 128L67.125 173.792C62.9595 177.957 62.9598 184.709 67.125 188.875C71.2906 193.041 78.0427 193.041 82.2083 188.875L128 143.083L173.792 188.875C177.957 193.041 184.709 193.041 188.875 188.875C193.04 184.709 193.04 177.957 188.875 173.792L143.083 128L188.875 82.2083C193.04 78.0427 193.04 71.2905 188.875 67.125Z" fill="black"/>
</svg>
