<svg width="256" height="256" viewBox="0 0 256 256" fill="none" xmlns="http://www.w3.org/2000/svg">
<path d="M226.235 89.4851C229.838 84.8256 236.533 83.9668 241.193 87.5684C245.85 91.172 246.71 97.8675 243.11 102.527C241.936 104.045 240.709 105.543 239.453 107.037L252.88 120.464C257.041 124.63 257.043 131.383 252.88 135.548C248.716 139.711 241.962 139.71 237.797 135.548L224.589 122.339C216.275 129.773 206.872 136.54 196.526 142.225L211.547 164.756C214.812 169.657 213.489 176.28 208.589 179.548C203.688 182.815 197.066 181.488 193.797 176.589L176.88 151.214C165.005 155.61 152.214 158.552 138.672 159.579V192.006C138.671 197.895 133.894 202.671 128.005 202.673C122.115 202.673 117.34 197.896 117.339 192.006V159.579C103.793 158.552 90.9986 155.611 79.12 151.214L62.2137 176.589C58.9463 181.489 52.323 182.813 47.4221 179.548C42.5208 176.28 41.197 169.657 44.4637 164.756L59.4741 142.225C49.1287 136.539 39.7252 129.773 31.4116 122.339L18.2137 135.548C14.0494 139.711 7.29596 139.709 3.13039 135.548C-1.03309 131.382 -1.033 124.629 3.13039 120.464L16.5471 107.037C15.2931 105.544 14.0738 104.043 12.9012 102.527C9.29963 97.8666 10.1584 91.1715 14.8179 87.5684C19.478 83.9672 26.1733 84.8257 29.7762 89.4851C50.3951 116.146 85.5744 138.673 128.005 138.673C170.437 138.672 205.616 116.147 226.235 89.4851Z" fill="black"/>
</svg>
