<svg width="256" height="256" viewBox="0 0 256 256" fill="none" xmlns="http://www.w3.org/2000/svg">
<path d="M128 106.667C139.782 106.667 149.333 116.219 149.333 128.001C149.333 139.783 139.782 149.334 128 149.334C116.218 149.334 106.667 139.783 106.667 128.001C106.667 116.219 116.218 106.667 128 106.667Z" fill="black"/>
<path fill-rule="evenodd" clip-rule="evenodd" d="M128 21.334C202.667 21.334 256 85.334 256 128.001C256 170.667 202.667 234.667 128 234.667C53.3333 234.667 0 170.667 0 128.001C0 85.334 53.3333 21.334 128 21.334ZM128 85.334C104.436 85.334 85.3333 104.437 85.3333 128.001C85.3333 151.565 104.436 170.667 128 170.667C151.564 170.667 170.667 151.565 170.667 128.001C170.667 104.437 151.564 85.334 128 85.334Z" fill="black"/>
</svg>
