<svg width="256" height="256" viewBox="0 0 256 256" fill="none" xmlns="http://www.w3.org/2000/svg">
<path fill-rule="evenodd" clip-rule="evenodd" d="M128 21.334C133.891 21.334 138.667 26.1096 138.667 32.0007V53.8132C162.579 55.9285 183.736 65.0155 200.781 77.459L211.125 67.1257C215.291 62.9601 222.043 62.9601 226.208 67.1257C230.374 71.2912 230.374 78.0434 226.208 82.209L216.958 91.4486C228.388 103.136 236.747 116.227 241.323 128.771C245.173 127.213 249.753 128.003 252.875 131.126C257.041 135.291 257.041 142.043 252.875 146.209L245.073 154.001C241.382 192.223 193.722 245.334 128 245.334C62.2782 245.334 14.6068 192.223 10.9168 154.001L3.12517 146.209C-1.04042 142.043 -1.04042 135.291 3.12517 131.126C6.24523 128.006 10.8183 127.218 14.6668 128.771C18.8882 117.198 26.3236 105.15 36.4272 94.1777L24.4585 82.209C20.2929 78.0434 20.2929 71.2912 24.4585 67.1257C28.6241 62.9601 35.3762 62.9601 39.5418 67.1257L52.1564 79.7402C69.6994 66.1253 91.9731 56.0566 117.333 53.8132V32.0007C117.333 26.1096 122.109 21.334 128 21.334ZM128 117.334C110.327 117.334 96.0002 131.661 96.0002 149.334C96.0002 167.007 110.327 181.334 128 181.334C145.673 181.334 160 167.007 160 149.334C160 131.661 145.673 117.334 128 117.334Z" fill="black"/>
</svg>
