<svg width="256" height="256" viewBox="0 0 256 256" fill="none" xmlns="http://www.w3.org/2000/svg">
<path fill-rule="evenodd" clip-rule="evenodd" d="M128 0C234.667 0 256 18.6667 256 112C256 121.32 255.76 129.894 255.271 137.781C255.766 144.575 256 151.964 256 160L255.938 167.313C255.81 174.288 255.476 180.737 254.906 186.698C254.806 187.749 254.679 188.782 254.563 189.802C254.46 190.705 254.376 191.599 254.26 192.479C254.174 193.139 254.063 193.79 253.969 194.438C253.776 195.766 253.578 197.069 253.354 198.344C253.286 198.729 253.206 199.109 253.135 199.49C252.899 200.763 252.656 202.01 252.385 203.229C252.214 204.003 252.009 204.758 251.823 205.51C251.587 206.463 251.363 207.404 251.104 208.323C250.931 208.937 250.726 209.536 250.542 210.135C250.263 211.043 249.991 211.939 249.688 212.813C249.269 214.017 248.833 215.191 248.365 216.333C248.309 216.469 248.254 216.605 248.198 216.74C247.712 217.901 247.197 219.028 246.656 220.125C245.795 221.873 244.871 223.544 243.865 225.135C243.737 225.338 243.61 225.54 243.479 225.74C242.458 227.304 241.362 228.791 240.188 230.208C240.016 230.415 239.842 230.619 239.667 230.823C238.573 232.097 237.417 233.312 236.188 234.469C235.364 235.244 234.512 235.995 233.625 236.719C232.534 237.609 231.398 238.465 230.208 239.281C228.703 240.314 227.108 241.269 225.438 242.188C225.109 242.368 224.782 242.553 224.448 242.729C222.7 243.649 220.858 244.495 218.927 245.302C218.252 245.584 217.562 245.846 216.865 246.115C216.069 246.421 215.264 246.732 214.438 247.021C213.599 247.314 212.745 247.598 211.875 247.875C211.119 248.115 210.353 248.356 209.573 248.583C208.483 248.901 207.367 249.196 206.229 249.49C205.577 249.658 204.919 249.829 204.25 249.99C203.127 250.259 201.981 250.512 200.813 250.76C200.013 250.93 199.207 251.11 198.385 251.271C197.278 251.487 196.148 251.686 195 251.885C194.058 252.049 193.105 252.212 192.135 252.365C191.015 252.54 189.876 252.703 188.719 252.865C187.718 253.004 186.706 253.153 185.677 253.281C184.623 253.413 183.553 253.525 182.469 253.646C181.137 253.794 179.784 253.951 178.406 254.083C177.67 254.154 176.926 254.204 176.177 254.271C174.515 254.418 172.822 254.572 171.094 254.698C170.251 254.759 169.4 254.808 168.542 254.865C166.87 254.975 165.17 255.095 163.438 255.188C162.068 255.261 160.679 255.313 159.271 255.375C158.022 255.43 156.759 255.494 155.479 255.542C153.791 255.604 152.076 255.649 150.333 255.698C149.094 255.733 147.841 255.774 146.573 255.802C140.689 255.932 134.503 256 128 256L118.25 255.948C115.236 255.917 112.296 255.865 109.427 255.802C104.099 255.685 99.0195 255.501 94.1771 255.26C93.8672 255.245 93.558 255.235 93.25 255.219C91.4782 255.127 89.7393 255.017 88.0313 254.906C87.1053 254.847 86.1887 254.784 85.2813 254.719C83.7047 254.605 82.1569 254.475 80.6354 254.344C79.8223 254.274 79.0163 254.21 78.2188 254.135C76.7372 253.996 75.2829 253.845 73.8542 253.688C72.8943 253.582 71.9468 253.468 71.0104 253.354C69.9787 253.228 68.9618 253.095 67.9583 252.958C66.7362 252.792 65.535 252.62 64.3542 252.438C63.3319 252.28 62.3251 252.118 61.3333 251.948C60.3851 251.785 59.452 251.612 58.5313 251.438C57.5362 251.249 56.5572 251.056 55.5938 250.854C54.5326 250.632 53.4921 250.396 52.4688 250.156C51.666 249.968 50.8735 249.782 50.0938 249.583C49.1562 249.344 48.2382 249.089 47.3333 248.833C46.4724 248.59 45.6235 248.352 44.7917 248.094C43.9776 247.842 43.1824 247.569 42.3958 247.302C41.5801 247.025 40.7762 246.751 39.9896 246.458C39.2277 246.175 38.485 245.872 37.75 245.573C36.9212 245.236 36.0973 244.919 35.3021 244.563C35.1586 244.498 35.0174 244.43 34.875 244.365C33.6689 243.814 32.5047 243.234 31.375 242.635C31.1726 242.528 30.9708 242.421 30.7708 242.313C27.4446 240.501 24.4495 238.478 21.7604 236.208C21.417 235.919 21.0732 235.631 20.7396 235.333C20.4237 235.051 20.1197 234.758 19.8125 234.469C19.628 234.295 19.4417 234.124 19.2604 233.948C19.0665 233.76 18.8778 233.566 18.6875 233.375C17.3488 232.029 16.0958 230.612 14.9271 229.115C14.8327 228.994 14.7391 228.872 14.6458 228.75C14.3341 228.343 14.029 227.929 13.7292 227.51C13.6076 227.341 13.4842 227.172 13.3646 227C13.118 226.646 12.8739 226.289 12.6354 225.927C12.4836 225.697 12.336 225.463 12.1875 225.229C11.6112 224.322 11.0699 223.385 10.5417 222.427C10.0184 221.478 9.5089 220.51 9.03125 219.51C8.92102 219.28 8.81619 219.046 8.70833 218.813C7.77943 216.802 6.94678 214.688 6.1875 212.469C5.85026 211.483 5.5347 210.476 5.22917 209.448C5.05776 208.871 4.89086 208.288 4.72917 207.698C4.47043 206.753 4.22408 205.792 3.98958 204.813C3.83173 204.153 3.66799 203.488 3.52083 202.813C3.28434 201.727 3.07428 200.618 2.86458 199.49C2.77609 199.013 2.6776 198.536 2.59375 198.052C2.38606 196.854 2.2008 195.631 2.02083 194.385C1.91754 193.67 1.80279 192.95 1.70833 192.219C1.54672 190.968 1.40741 189.693 1.27083 188.396C1.21314 187.848 1.14711 187.296 1.09375 186.74C0.959244 185.336 0.847471 183.906 0.739583 182.448C0.69064 181.787 0.626992 181.121 0.583333 180.448C0.313597 176.292 0.146985 171.916 0.0625 167.313L0 160C0 151.989 0.22658 144.62 0.71875 137.844C0.226822 129.94 0 121.345 0 112C0 18.6667 21.3333 0 128 0ZM96 192C90.109 192 85.3333 196.776 85.3333 202.667C85.3333 208.558 90.109 213.333 96 213.333H160C165.891 213.333 170.667 208.558 170.667 202.667C170.667 196.776 165.891 192 160 192H96ZM128 21.3333C101.699 21.3333 81.9626 22.502 66.9583 25.3333C52.0478 28.1473 43.4736 32.3098 38.0521 37.0521C29.9225 44.1655 24.4433 56.5565 22.3229 83.3021C22.0767 83.5036 21.8454 83.7217 21.6042 83.9271C39.8806 68.3698 72.3047 64 128 64C183.244 64 215.591 68.3004 233.948 83.5521C233.852 83.472 233.764 83.3815 233.667 83.3021C231.546 56.557 226.077 44.1654 217.948 37.0521C212.526 32.3098 203.952 28.1473 189.042 25.3333C174.037 22.502 154.301 21.3333 128 21.3333Z" fill="black"/>
</svg>
