<svg width="256" height="256" viewBox="0 0 256 256" fill="none" xmlns="http://www.w3.org/2000/svg">
<path fill-rule="evenodd" clip-rule="evenodd" d="M149.333 10.666C162.614 10.666 174.874 12.2092 184.531 18.9993C193.815 25.5281 198.844 35.5608 201.75 48.1035C245.389 57.7024 256 82.2625 256 138.666C256 205.324 241.185 227.544 174.542 233.104C161.203 234.216 145.788 234.666 128 234.666C21.3333 234.666 0 218.666 0 138.666C0 134.038 0.0740034 129.625 0.229167 125.416C0.0753545 119.595 0 113.354 0 106.666C0 26.666 9.77778 10.666 58.6667 10.666C82.4131 10.666 96.915 14.4476 105.563 27.4993C107.927 24.2337 110.748 21.3817 114.135 18.9993C123.793 12.2092 136.052 10.666 149.333 10.666ZM149.333 31.9993C136.931 31.9993 130.393 33.6535 126.406 36.4577C124.572 37.7482 122.796 39.6431 121.188 42.7285C123.419 42.7109 125.689 42.666 128 42.666C147.504 42.666 164.155 43.1986 178.344 44.5618C176.519 40.3632 174.433 37.986 172.26 36.4577C168.273 33.6535 161.736 31.9994 149.333 31.9993Z" fill="black"/>
</svg>
