<svg width="256" height="256" viewBox="0 0 256 256" fill="none" xmlns="http://www.w3.org/2000/svg">
<path fill-rule="evenodd" clip-rule="evenodd" d="M128.041 1.33151C130.08 33.8883 135.942 61.3203 154.448 79.8211C173.162 98.5305 200.014 103.375 230.281 104.415C232.538 104.491 234.351 106.303 234.412 108.561C234.577 114.703 234.666 121.176 234.666 127.998C234.666 234.665 216.889 255.998 128 255.998C39.1108 255.998 21.333 234.665 21.333 127.998C21.333 21.9007 38.9215 0.228298 126.583 4.93558e-06C127.336 -0.00195575 127.989 0.580486 128.041 1.33151ZM74.6663 170.665C68.7753 170.665 63.9997 175.44 63.9997 181.332C63.9997 187.223 68.7753 191.998 74.6663 191.998H181.333C187.224 191.998 192 187.222 192 181.332C192 175.441 187.224 170.665 181.333 170.665H74.6663ZM74.6663 127.998C68.7753 127.998 63.9997 132.774 63.9997 138.665C63.9997 144.556 68.7753 149.332 74.6663 149.332H181.333C187.224 149.331 192 144.556 192 138.665C192 132.774 187.224 127.999 181.333 127.998H74.6663ZM74.6663 85.3315C68.7753 85.3315 63.9997 90.1071 63.9997 95.9982C63.9997 101.889 68.7753 106.665 74.6663 106.665H117.333C123.224 106.664 128 101.889 128 95.9982C128 90.1074 123.224 85.3319 117.333 85.3315H74.6663Z" fill="black"/>
<path d="M150.104 9.87317C149.744 6.11372 153.548 3.53635 156.245 6.18051C156.344 6.27837 156.443 6.37731 156.541 6.47734L227.823 79.2273C229.287 80.7225 228.011 82.9804 225.92 82.8738C224.39 82.7957 222.889 82.7059 221.416 82.6023C213.247 82.0279 205.948 81.0735 199.437 79.6336C173.597 73.9178 160.15 60.5438 153.687 32.9253C152.099 26.1351 150.928 18.4843 150.104 9.87317Z" fill="black"/>
</svg>
