<svg width="256" height="256" viewBox="0 0 256 256" fill="none" xmlns="http://www.w3.org/2000/svg">
<path d="M42.6667 181.333C56.0863 181.333 61.3981 183.36 63.1979 192H245.333C251.224 192 256 196.776 256 202.667C256 208.558 251.224 213.333 245.333 213.333H63.1979C61.3981 221.973 56.0863 224 42.6667 224C29.247 224 23.9352 221.973 22.1354 213.333H10.6667C4.77563 213.333 0 208.558 0 202.667C0 196.776 4.77563 192 10.6667 192H22.1354C23.9352 183.36 29.247 181.333 42.6667 181.333Z" fill="black"/>
<path d="M213.333 106.667C226.753 106.667 232.065 108.693 233.865 117.333H245.333C251.224 117.333 256 122.109 256 128C256 133.891 251.224 138.667 245.333 138.667H233.865C232.065 147.307 226.753 149.333 213.333 149.333C199.914 149.333 194.602 147.307 192.802 138.667H10.6667C4.77563 138.667 0 133.891 0 128C0 122.109 4.77563 117.333 10.6667 117.333H192.802C194.602 108.693 199.914 106.667 213.333 106.667Z" fill="black"/>
<path d="M42.6667 32C56.0863 32 61.3981 34.0268 63.1979 42.6667H245.333C251.224 42.6667 256 47.4423 256 53.3333C256 59.2244 251.224 64 245.333 64H63.1979C61.3981 72.6399 56.0863 74.6667 42.6667 74.6667C29.247 74.6667 23.9352 72.6399 22.1354 64H10.6667C4.77563 64 0 59.2244 0 53.3333C0 47.4423 4.77563 42.6667 10.6667 42.6667H22.1354C23.9352 34.0268 29.247 32 42.6667 32Z" fill="black"/>
</svg>
