<svg width="256" height="256" viewBox="0 0 256 256" fill="none" xmlns="http://www.w3.org/2000/svg">
<path fill-rule="evenodd" clip-rule="evenodd" d="M254.771 118.25C255.626 127.495 256 137.817 256 149.333C256 238.222 234.667 256 128 256C21.3333 256 4.06931e-07 238.222 0 149.333C0 137.817 0.363406 127.495 1.21875 118.25C25.6779 120.072 50.1656 121.369 74.6667 122.135V128C74.6667 133.891 79.4427 138.666 85.3333 138.667C91.2244 138.667 96 133.891 96 128V122.677C117.332 123.077 138.668 123.077 160 122.677V128C160 133.891 164.776 138.666 170.667 138.667C176.558 138.667 181.333 133.891 181.333 128V122.135C205.831 121.369 230.315 120.072 254.771 118.25ZM128 160C122.109 160.001 117.333 164.776 117.333 170.667V181.333H106.667C100.776 181.334 96 186.109 96 192C96 197.891 100.776 202.666 106.667 202.667H117.333V213.333C117.333 219.224 122.109 223.999 128 224C133.891 224 138.667 219.224 138.667 213.333V202.667H149.333C155.224 202.667 160 197.891 160 192C160 186.109 155.224 181.333 149.333 181.333H138.667V170.667C138.667 164.776 133.891 160 128 160Z" fill="black"/>
<path fill-rule="evenodd" clip-rule="evenodd" d="M133.688 0.0520833C174.6 0.856761 192.238 10.969 198.99 48.0313C198.247 47.8666 197.49 47.7284 196.729 47.5729C228.945 54.1771 244.633 68.5523 251.448 97.1042C228.098 98.8191 204.722 100.051 181.333 100.792V96C181.333 90.109 176.558 85.3333 170.667 85.3333C164.776 85.3339 160 90.1093 160 96V101.344C138.669 101.749 117.331 101.749 96 101.344V96C96 90.109 91.2244 85.3333 85.3333 85.3333C79.4427 85.3339 74.6667 90.1093 74.6667 96V100.792C51.2746 100.051 27.8951 98.8195 4.54167 97.1042C11.3102 68.7439 26.8342 54.3619 58.6146 47.6979C58.0701 47.8118 57.5245 47.9126 56.9896 48.0313C64.0456 9.293 83.0169 0.00038244 128 0L133.688 0.0520833ZM128 21.3333C97.0762 21.3336 88.9751 26.2864 84.8125 32.2292C83.0013 34.8171 81.176 38.6698 79.5938 44.5833C93.3541 43.215 109.375 42.6667 128 42.6667C146.616 42.6667 162.63 43.2162 176.385 44.5833C174.803 38.6726 172.998 34.8163 171.188 32.2292C167.025 26.2865 158.924 21.3335 128 21.3333Z" fill="black"/>
</svg>
