<svg width="256" height="256" viewBox="0 0 256 256" fill="none" xmlns="http://www.w3.org/2000/svg">
<path d="M109.667 9.59408C138.665 -0.423453 169.855 -2.32379 199.854 4.10449L231.25 10.8337C234.794 11.5936 237.718 14.0115 239.156 17.2712L239.677 18.7191L240.99 23.4587C254.15 72.5594 254.602 124.236 242.26 173.604L239.677 183.917C238.919 186.949 236.872 189.497 234.073 190.886C231.274 192.274 228.008 192.366 225.135 191.136L195.021 178.229C169.096 167.119 139.813 166.765 113.625 177.24C88.921 187.121 61.9742 190.031 35.7292 185.657L21.3333 183.25V245.334C21.3333 251.225 16.5577 256 10.6667 256C4.77568 256 8.02695e-05 251.225 0 245.334V21.7816C0.000212488 18.6326 1.39198 15.6414 3.80208 13.6149C6.21284 11.5893 9.39819 10.73 12.5 11.2712L36.3958 15.4482C60.9206 19.7366 86.1344 17.7232 109.667 9.59408Z" fill="black"/>
</svg>
