<svg width="256" height="256" viewBox="0 0 256 256" fill="none" xmlns="http://www.w3.org/2000/svg">
<path d="M128 106.667C136.465 106.667 141.758 107.119 145.167 107.854C146.318 108.103 147.043 108.354 147.469 108.521C147.636 108.945 147.895 109.67 148.146 110.833C148.881 114.242 149.333 119.535 149.333 128C149.333 136.465 148.881 141.758 148.146 145.167C147.897 146.321 147.636 147.043 147.469 147.469C147.043 147.636 146.321 147.897 145.167 148.146C141.758 148.881 136.465 149.333 128 149.333C119.535 149.333 114.242 148.881 110.833 148.146C109.67 147.895 108.945 147.636 108.521 147.469C108.354 147.043 108.103 146.318 107.854 145.167C107.119 141.758 106.667 136.465 106.667 128C106.667 119.535 107.119 114.242 107.854 110.833C108.104 109.674 108.354 108.945 108.521 108.521C108.945 108.354 109.674 108.104 110.833 107.854C114.242 107.119 119.535 106.667 128 106.667Z" fill="black"/>
<path fill-rule="evenodd" clip-rule="evenodd" d="M128 0C150.104 2.02371e-07 163.403 5.28148 171.198 23.7083C189.74 16.1901 202.88 21.8593 218.51 37.4896C234.139 53.1184 239.796 66.2521 232.281 84.7917C250.718 92.5862 256 105.891 256 128C256 150.108 250.715 163.403 232.281 171.198C239.801 189.742 234.141 202.88 218.51 218.51C202.88 234.141 189.741 239.801 171.198 232.281C163.403 250.715 150.108 256 128 256C105.891 256 92.5862 250.718 84.7917 232.281C66.2518 239.797 53.1185 234.139 37.4896 218.51C21.8591 202.88 16.1898 189.741 23.7083 171.198C5.28148 163.403 -6.01872e-07 150.104 0 128C9.6605e-07 105.899 5.27822 92.5979 23.6979 84.8021C16.1812 66.261 21.86 53.1192 37.4896 37.4896C53.1175 21.862 66.2533 16.1943 84.7917 23.7083C92.5867 5.27846 105.894 0 128 0ZM128 85.3333C92.4444 85.3333 85.3333 92.4444 85.3333 128C85.3333 163.556 92.4444 170.667 128 170.667C163.556 170.667 170.667 163.556 170.667 128C170.667 92.4444 163.556 85.3333 128 85.3333Z" fill="black"/>
</svg>
