<svg width="256" height="256" viewBox="0 0 256 256" fill="none" xmlns="http://www.w3.org/2000/svg">
<path fill-rule="evenodd" clip-rule="evenodd" d="M186.667 64C219.855 64 232.632 77.5993 234.427 117.333H245.333C251.224 117.333 256 122.109 256 128C256 133.891 251.224 138.667 245.333 138.667H234.427C232.632 178.401 219.855 192 186.667 192C153.478 192 140.702 178.401 138.906 138.667H117.094C115.298 178.401 102.522 192 69.3333 192C36.1446 192 23.3682 178.401 21.5729 138.667H10.6667C4.77563 138.667 0 133.891 0 128C0 122.109 4.77563 117.333 10.6667 117.333H21.5729C23.3682 77.5993 36.1446 64 69.3333 64C102.522 64 115.298 77.5993 117.094 117.333H138.906C140.702 77.5993 153.478 64 186.667 64ZM69.3333 85.3333C53.9837 85.3333 50.4313 88.7548 48.8958 90.8021C45.9314 94.7576 42.6667 104.387 42.6667 128C42.6667 151.613 45.9314 161.242 48.8958 165.198C50.4313 167.245 53.9837 170.667 69.3333 170.667C84.683 170.667 88.2354 167.245 89.7708 165.198C92.7353 161.242 96 151.613 96 128C96 104.387 92.7353 94.7576 89.7708 90.8021C88.2354 88.7548 84.683 85.3333 69.3333 85.3333ZM186.667 85.3333C171.317 85.3333 167.765 88.7548 166.229 90.8021C163.265 94.7576 160 104.387 160 128C160 151.613 163.265 161.242 166.229 165.198C167.765 167.245 171.317 170.667 186.667 170.667C202.016 170.667 205.569 167.245 207.104 165.198C210.069 161.242 213.333 151.613 213.333 128C213.333 104.387 210.069 94.7576 207.104 90.8021C205.569 88.7548 202.016 85.3333 186.667 85.3333Z" fill="black"/>
</svg>
