<svg width="256" height="256" viewBox="0 0 256 256" fill="none" xmlns="http://www.w3.org/2000/svg">
<path fill-rule="evenodd" clip-rule="evenodd" d="M128 0C134.699 0 141.062 0.086669 147.104 0.270833C147.891 0.295063 148.672 0.33693 149.448 0.364583C237.587 3.47795 256 28.9052 256 128C256 205.049 244.862 237.545 198.479 249.667C197.041 250.043 195.569 250.402 194.063 250.74C193.287 250.913 192.502 251.076 191.708 251.24C190.487 251.492 189.244 251.729 187.979 251.958C186.683 252.193 185.364 252.414 184.021 252.625C183.169 252.759 182.309 252.896 181.438 253.021C180.243 253.192 179.033 253.366 177.802 253.521C176.124 253.732 174.413 253.933 172.667 254.115C171.896 254.194 171.118 254.259 170.333 254.333C168.743 254.484 167.126 254.622 165.479 254.75C164.772 254.805 164.061 254.866 163.344 254.917C162.655 254.966 161.959 254.996 161.26 255.042C158.711 255.207 156.098 255.361 153.417 255.479C152.313 255.528 151.199 255.573 150.073 255.615C147.528 255.708 144.924 255.777 142.26 255.833C141.269 255.855 140.269 255.879 139.26 255.896C135.617 255.955 131.865 256 128 256C123.984 256 120.09 255.96 116.313 255.896C115.336 255.879 114.367 255.855 113.406 255.833C110.546 255.771 107.755 255.678 105.031 255.573C103.763 255.524 102.51 255.486 101.271 255.427C100.519 255.391 99.7725 255.352 99.0313 255.313C94.2934 255.061 89.7723 254.735 85.4583 254.323C84.4076 254.223 83.37 254.11 82.3438 254C81.1573 253.872 79.9875 253.736 78.8333 253.594C77.4561 253.425 76.1027 253.242 74.7708 253.052C73.4863 252.869 72.2221 252.682 70.9792 252.479C70.1149 252.338 69.2611 252.192 68.4167 252.042C67.0825 251.803 65.7749 251.545 64.4896 251.281C63.4457 251.067 62.4184 250.845 61.4063 250.615C60.2682 250.355 59.1506 250.084 58.0521 249.802C11.2237 237.79 0 205.342 0 128C0 40.8907 14.2297 10.7081 77.5417 2.5625L77.5729 2.55208C79.3869 2.31897 81.2401 2.09386 83.1354 1.89583C84.3707 1.76695 85.6254 1.66652 86.8958 1.55208C87.9058 1.46089 88.9259 1.36361 89.9583 1.28125C91.0432 1.19498 92.1401 1.10798 93.25 1.03125C94.8418 0.920761 96.4602 0.831155 98.1042 0.739583C99.1934 0.679228 100.294 0.614818 101.406 0.5625C103.76 0.45113 106.166 0.358163 108.625 0.28125C109.112 0.266126 109.602 0.253407 110.094 0.239583C111.744 0.192806 113.417 0.157464 115.115 0.125C119.265 0.0463993 123.558 0 128 0ZM194.729 27.4063C197.994 34.0391 200.937 42.0793 202.521 51.5833C204.36 62.6209 203.023 72.2631 196.021 78.8854C190.07 84.5127 181.725 85.7767 177.729 86.5417C176.016 86.8696 174.673 87.1355 173.438 87.4479C172.223 87.7551 171.409 88.0406 170.854 88.3021C170.35 88.5398 170.18 88.6953 170.156 88.7188C170.156 88.7188 170.137 88.7407 170.125 88.7604L170.01 89.0208C169.105 91.4783 169.262 93.9842 171.042 97.6146C173.018 101.645 176.356 105.776 180.667 111.01C184.719 115.931 190.176 122.413 193.063 129.396C194.607 133.131 195.642 137.476 195.229 142.24C194.808 147.088 192.95 151.615 189.865 155.729C185.392 161.693 179.794 165.592 173.344 167.25C167.088 168.857 160.995 168.118 155.76 166.583C145.701 163.633 136.153 156.889 130.094 152.688C126.584 150.254 124.53 148.859 123.229 148.208C121.348 147.268 118.064 146.417 112.458 145.073C106.794 143.715 99.1826 141.927 92.5313 138.771C85.7588 135.556 78.3618 130.169 75.2083 120.708C73.6462 116.022 72.8789 112.113 72.2917 109.177C71.358 104.509 70.9857 103.412 70.1354 102.26C69.1767 100.963 66.7469 98.6339 59.2292 94.875C51.6666 91.0937 47.2708 84.1782 44.6875 77.5C42.0784 70.7537 40.8197 63.0172 40.2917 55.5521C39.8827 49.7698 39.8853 43.8134 40.1563 38.0833C39.7914 38.4179 39.4251 38.7416 39.0833 39.0833C33.5795 44.5872 28.9821 52.9976 25.8542 67.5C22.6747 82.2421 21.3333 101.757 21.3333 128C21.3333 154.243 22.6747 173.758 25.8542 188.5C28.9821 203.002 33.5795 211.413 39.0833 216.917C40.7118 218.545 42.6135 220.066 44.8333 221.521C45.512 213.814 46.5539 204.242 49.2292 195.76C52.3089 185.997 58.5473 174.625 71.8958 171.031C81.8345 168.356 90.6573 170.819 97.7083 174.552C104.48 178.137 110.408 183.336 114.792 187.135C118.45 190.306 120.857 192.341 122.823 193.521C128.625 197.002 133.172 197.81 137.125 197.688C141.484 197.551 145.673 196.302 151.365 194.51C159.6 191.918 171.145 188.031 184.708 192.552C193.616 195.522 198.916 202.262 202.156 208.427C204.811 213.48 206.534 219.053 207.802 223.5C211.558 221.495 214.523 219.311 216.917 216.917C222.421 211.413 227.018 203.002 230.146 188.5C233.325 173.758 234.667 154.243 234.667 128C234.667 101.757 233.325 82.2421 230.146 67.5C227.018 52.9976 222.421 44.5872 216.917 39.0833C212.254 34.4206 205.501 30.4255 194.729 27.4063Z" fill="black"/>
</svg>
