<svg width="256" height="256" viewBox="0 0 256 256" fill="none" xmlns="http://www.w3.org/2000/svg">
<path d="M224 144C224 237.33 207.999 256 128 256C48.001 256 32.0004 237.33 32 144C32 141.139 32.0096 138.348 32.0417 135.625C36.4305 138.569 40.9072 141.467 45.3958 144.26C60.7581 153.822 76.8424 162.682 90.5625 169.229C97.4015 172.493 103.939 175.315 109.677 177.375C114.607 179.145 121.514 181.333 128 181.333C134.486 181.333 141.393 179.145 146.323 177.375C152.061 175.315 158.599 172.493 165.438 169.229C179.158 162.682 195.242 153.822 210.604 144.26C215.088 141.47 219.553 138.565 223.938 135.625C223.97 138.348 224 141.139 224 144Z" fill="black"/>
<path d="M126.25 159.833C111.533 157.864 65.8038 133.985 33.6354 110.76C29.24 107.587 25.1091 104.413 21.3333 101.323V192C21.3333 197.891 16.5577 202.667 10.6667 202.667C4.77563 202.667 0 197.891 0 192V74.6667C0 35.9506 108.444 1.70015e-06 128 0C147.556 0 256 35.9506 256 74.6667C256 83.1744 241.785 96.6902 222.729 110.49L216.375 114.979C183.29 137.817 139.711 160 128 160C127.477 160 126.896 159.922 126.25 159.833Z" fill="black"/>
</svg>
