<svg width="256" height="256" viewBox="0 0 256 256" fill="none" xmlns="http://www.w3.org/2000/svg">
<path d="M9.70342 192.039C88.4058 184.885 167.605 184.884 246.308 192.039C252.17 192.576 256.495 197.77 255.964 203.633C255.429 209.497 250.234 213.82 244.37 213.289C166.955 206.252 89.0564 206.252 11.6409 213.289C5.77502 213.822 0.581926 209.498 0.047172 203.633C-0.484601 197.768 3.83887 192.574 9.70342 192.039Z" fill="black"/>
<path d="M9.70342 117.372C88.4058 110.218 167.605 110.218 246.308 117.372C252.17 117.909 256.495 123.103 255.964 128.966C255.429 134.83 250.234 139.153 244.37 138.622C166.955 131.585 89.0564 131.585 11.6409 138.622C5.77502 139.156 0.581926 134.832 0.047172 128.966C-0.484601 123.101 3.83887 117.907 9.70342 117.372Z" fill="black"/>
<path d="M9.70342 42.7058C88.4058 35.5513 167.605 35.5511 246.308 42.7058C252.17 43.2424 256.495 48.4363 255.964 54.2996C255.429 60.1637 250.234 64.4868 244.37 63.9558C166.955 56.9182 89.0564 56.9185 11.6409 63.9558C5.77502 64.4891 0.581926 60.165 0.047172 54.2996C-0.484602 48.4347 3.83886 43.2405 9.70342 42.7058Z" fill="black"/>
</svg>
