<svg width="256" height="256" viewBox="0 0 256 256" fill="none" xmlns="http://www.w3.org/2000/svg">
<path fill-rule="evenodd" clip-rule="evenodd" d="M169.344 32.0835C175.189 31.3528 180.519 35.4986 181.25 41.3439C182.51 51.4224 183.536 61.5231 184.354 71.6356C194.471 72.4543 204.574 73.4899 214.656 74.7502C220.502 75.4808 224.647 80.811 223.917 86.6564C223.186 92.502 217.856 96.6475 212.011 95.9168C203.275 94.8249 194.523 93.9168 185.761 93.1668C186.919 116.372 186.919 139.618 185.761 162.823C194.523 162.073 203.276 161.175 212.011 160.083C217.856 159.353 223.186 163.499 223.917 169.344C224.648 175.189 220.502 180.519 214.656 181.25C204.574 182.51 194.47 183.536 184.354 184.354C183.536 194.47 182.51 204.574 181.25 214.656C180.519 220.502 175.189 224.648 169.344 223.917C163.499 223.186 159.353 217.856 160.083 212.011C161.175 203.276 162.073 194.523 162.823 185.761C139.618 186.919 116.372 186.919 93.1668 185.761C93.9168 194.523 94.8249 203.275 95.9168 212.011C96.6475 217.856 92.502 223.186 86.6564 223.917C80.8112 224.647 75.4808 220.502 74.7502 214.656C73.4899 204.574 72.4542 194.471 71.6356 184.354C61.5232 183.536 51.4223 182.51 41.3439 181.25C35.4989 180.519 31.3528 175.189 32.0835 169.344C32.8143 163.499 38.1447 159.353 43.9897 160.083C52.721 161.175 61.4711 162.073 70.2293 162.823C69.0713 139.619 69.0709 116.371 70.2293 93.1668C61.4708 93.9166 52.7213 94.8254 43.9897 95.9168C38.1445 96.647 32.8141 92.5017 32.0835 86.6564C31.3531 80.8113 35.499 75.4812 41.3439 74.7502C51.4226 73.4903 61.5229 72.4541 71.6356 71.6356C72.4541 61.5228 73.4903 51.4228 74.7502 41.3439C75.4809 35.4988 80.8113 31.3534 86.6564 32.0835C92.5019 32.8142 96.6473 38.1443 95.9168 43.9897C94.8253 52.7215 93.9166 61.4706 93.1668 70.2293C116.371 69.0709 139.619 69.0713 162.823 70.2293C162.073 61.471 161.175 52.7212 160.083 43.9897C159.353 38.1447 163.499 32.8146 169.344 32.0835ZM164.323 91.6772C140.125 90.3777 115.876 90.3776 91.6772 91.6772C90.3776 115.876 90.3776 140.125 91.6772 164.323C115.876 165.623 140.125 165.623 164.323 164.323C165.623 140.125 165.623 115.876 164.323 91.6772Z" fill="black"/>
</svg>
