<svg width="256" height="256" viewBox="0 0 256 256" fill="none" xmlns="http://www.w3.org/2000/svg">
<path fill-rule="evenodd" clip-rule="evenodd" d="M128 0C208 0 224 16 224 96C224 99.9381 223.938 103.721 223.854 107.354C250.21 110.118 256 122.19 256 160L255.896 167.927C254.87 205.521 245.499 213.333 208 213.333L200.865 213.219C169.288 212.155 161.062 203.013 160.104 167.927L160 160C160 116.35 167.717 107.018 205.885 106.698C204.834 106.687 203.761 106.667 202.667 106.667C202.621 106.667 202.576 106.667 202.531 106.667C202.607 103.301 202.667 99.7496 202.667 96C202.667 76.4238 201.659 62.2422 199.396 51.75C197.185 41.4976 194.087 36.2539 190.917 33.0833C187.746 29.9128 182.502 26.8155 172.25 24.6042C161.758 22.3414 147.576 21.3333 128 21.3333C108.424 21.3333 94.2422 22.3414 83.75 24.6042C73.4976 26.8155 68.2539 29.9128 65.0833 33.0833C61.9128 36.2539 58.8155 41.4976 56.6042 51.75C54.3414 62.2422 53.3333 76.4238 53.3333 96C53.3333 99.7496 53.3826 103.301 53.4583 106.667C53.4167 106.667 53.375 106.667 53.3333 106.667C52.2353 106.667 51.1592 106.687 50.1042 106.698L55.1354 106.781C88.9693 107.921 96 118.335 96 160L95.8958 167.927C94.9292 203.346 86.5547 212.319 54.2292 213.24C55.2202 218.485 56.9372 222.163 58.8958 224.781C61.9052 228.802 66.3754 231.525 72.8125 233.104C86.6083 236.487 105.604 233.833 126.323 230.531C132.139 229.605 137.603 233.57 138.531 239.385C139.458 245.203 135.495 250.677 129.677 251.604C110.239 254.702 86.5601 258.44 67.7292 253.823C57.858 251.402 48.5268 246.527 41.8125 237.552C36.7855 230.832 33.7442 222.516 32.5625 212.677C5.85186 209.997 0 198.008 0 160C0 122.2 5.78695 110.122 32.125 107.354C32.0415 103.721 32 99.9379 32 96C32 16 48 0 128 0ZM48 128C38.4762 128 32.4852 128.567 28.5938 129.5C26.7808 129.935 25.799 130.364 25.3333 130.615C24.9361 130.829 24.8542 130.937 24.8542 130.937C24.8277 130.967 24.5715 131.257 24.1979 132.115C23.7947 133.041 23.2812 134.565 22.8125 136.979C21.8351 142.014 21.3333 149.265 21.3333 160C21.3333 170.735 21.8351 177.986 22.8125 183.021C23.2812 185.435 23.7947 186.959 24.1979 187.885C24.5715 188.743 24.8277 189.033 24.8542 189.062C24.8542 189.062 24.9361 189.171 25.3333 189.385C25.799 189.636 26.7808 190.065 28.5938 190.5C32.4852 191.433 38.4762 192 48 192C57.5238 192 63.5148 191.433 67.4063 190.5C69.2192 190.065 70.201 189.636 70.6667 189.385C71.0639 189.171 71.1458 189.062 71.1458 189.062C71.1723 189.033 71.4285 188.743 71.8021 187.885C72.2053 186.959 72.7188 185.435 73.1875 183.021C74.1649 177.986 74.6667 170.735 74.6667 160C74.6667 149.265 74.1649 142.014 73.1875 136.979C72.7188 134.565 72.2053 133.041 71.8021 132.115C71.4285 131.257 71.1723 130.967 71.1458 130.937C71.1458 130.937 71.0639 130.829 70.6667 130.615C70.201 130.364 69.2192 129.935 67.4063 129.5C63.5148 128.567 57.5238 128 48 128ZM208 128C198.476 128 192.485 128.567 188.594 129.5C186.781 129.935 185.799 130.364 185.333 130.615C184.936 130.829 184.854 130.937 184.854 130.937C184.828 130.967 184.572 131.257 184.198 132.115C183.795 133.041 183.281 134.565 182.813 136.979C181.835 142.014 181.333 149.265 181.333 160C181.333 170.735 181.835 177.986 182.813 183.021C183.281 185.435 183.795 186.959 184.198 187.885C184.572 188.743 184.828 189.033 184.854 189.062C184.854 189.062 184.936 189.171 185.333 189.385C185.799 189.636 186.781 190.065 188.594 190.5C192.485 191.433 198.476 192 208 192C217.524 192 223.515 191.433 227.406 190.5C229.219 190.065 230.201 189.636 230.667 189.385C231.064 189.171 231.146 189.062 231.146 189.062C231.172 189.033 231.428 188.743 231.802 187.885C232.205 186.959 232.719 185.435 233.188 183.021C234.165 177.986 234.667 170.735 234.667 160C234.667 149.265 234.165 142.014 233.188 136.979C232.719 134.565 232.205 133.041 231.802 132.115C231.428 131.257 231.172 130.967 231.146 130.937C231.146 130.937 231.064 130.829 230.667 130.615C230.201 130.364 229.219 129.935 227.406 129.5C223.515 128.567 217.524 128 208 128Z" fill="black"/>
</svg>
