<svg width="256" height="256" viewBox="0 0 256 256" fill="none" xmlns="http://www.w3.org/2000/svg">
<path d="M0.416667 105.141C85.0419 93.0428 170.958 93.0428 255.583 105.141C255.858 112.289 256 119.901 256 128.006C256 234.673 234.667 256.006 128 256.006C21.3333 256.006 0 234.673 0 128.006C0 119.901 0.14224 112.289 0.416667 105.141Z" fill="black"/>
<path d="M66.9375 4.23503C71.0008 26.9738 70.7942 50.3146 66.25 73.0371L65.4792 76.8392C44.2234 78.2825 23.0064 80.4742 1.86458 83.3913C6.98275 33.8611 23.8348 12.3358 66.9375 4.23503Z" fill="black"/>
<path d="M189.052 4.23503C232.162 12.3343 249.006 33.858 254.125 83.3913C232.983 80.4745 211.766 78.2822 190.51 76.8392L189.75 73.0371C185.205 50.3136 184.988 26.9748 189.052 4.23503Z" fill="black"/>
<path d="M128 0.00585938C142.908 0.00585938 156.147 0.44564 167.896 1.45378C163.632 25.977 163.829 51.1027 168.531 75.6204C141.52 74.433 114.47 74.4327 87.4583 75.6204C92.1614 51.1015 92.3577 25.9783 88.0938 1.45378C99.8452 0.444997 113.088 0.00585938 128 0.00585938Z" fill="black"/>
</svg>
