<svg width="258" height="256" viewBox="0 0 258 256" fill="none" xmlns="http://www.w3.org/2000/svg">
<path d="M135.571 27.0324C167.715 1.2723 214.626 6.4899 240.342 38.6886C266.058 70.8894 260.353 137.677 235.655 170.668C210.198 204.67 157.512 231.897 137.165 241.553C131.895 244.053 125.901 244.048 120.634 241.543C100.322 231.88 47.7715 204.66 22.3213 170.668C14.0145 159.572 7.88034 144.651 4.36294 128.512H59.6129L88.0296 166.397C90.4601 169.637 94.5153 171.226 98.4983 170.491C102.481 169.755 105.708 166.822 106.821 162.928L120.613 114.637L129.686 132.772C131.493 136.385 135.188 138.668 139.228 138.668H181.894C187.785 138.668 192.56 133.891 192.561 128.001C192.561 122.11 187.785 117.335 181.894 117.334H145.821L127.436 80.5636C125.469 76.6293 121.284 74.3024 116.905 74.7094C112.526 75.1174 108.842 78.1786 107.634 82.4073L92.1963 136.407L73.4775 111.449C71.4631 108.763 68.3035 107.178 64.9463 107.178H1.32127C-0.48089 81.4062 4.4184 55.3931 17.7588 38.6886C43.4748 6.48785 90.3847 1.27168 122.53 27.0324L128.894 32.0011L135.571 27.0324Z" fill="black"/>
</svg>
