<svg width="258" height="256" viewBox="0 0 258 256" fill="none" xmlns="http://www.w3.org/2000/svg">
<path d="M17.7594 38.6865C43.4754 6.48608 90.3854 1.26968 122.53 27.0303L125.551 29.3948L135.239 61.6553C137.251 68.3668 135.845 75.6421 131.468 81.1136L115.28 101.343C102.814 116.925 102.814 139.073 115.28 154.655L132.166 175.77C136.28 180.913 137.786 187.667 136.249 194.072L124.52 242.905C123.196 242.592 121.894 242.14 120.634 241.541C100.322 231.878 47.7719 204.659 22.3218 170.666C-2.3769 137.675 -7.95663 70.8874 17.7594 38.6865Z" fill="black"/>
<path d="M145.166 20.4886C176.492 2.51292 217.084 9.56554 240.343 38.6865C266.059 70.8872 260.354 137.675 235.655 170.666C213.957 199.648 172.467 223.693 148.093 236.145L156.999 199.051C160.073 186.24 157.052 172.724 148.822 162.437L131.936 141.322C125.705 133.531 125.705 122.467 131.936 114.676L148.124 94.4365C156.879 83.4926 159.703 68.9438 155.676 55.5198L145.166 20.4886Z" fill="black"/>
</svg>
