<svg width="256" height="256" viewBox="0 0 256 256" fill="none" xmlns="http://www.w3.org/2000/svg">
<path d="M53.4743 138.672C54.9069 188.291 67.715 201.084 117.339 202.516V255.911C23.3568 254.48 1.52134 232.649 0.0888672 138.672H53.4743Z" fill="black"/>
<path d="M202.672 138.661H255.912C254.481 232.644 232.65 254.479 138.672 255.911V202.516C188.295 201.083 201.086 188.284 202.516 138.651C202.566 138.652 202.622 138.661 202.672 138.661Z" fill="black"/>
<path d="M128.006 74.6719C143.135 74.672 153.764 75.4579 161.422 77.1094C168.837 78.7094 171.974 80.8073 173.589 82.4219C175.203 84.0383 177.303 87.1768 178.901 94.5885C180.552 102.247 181.339 112.877 181.339 128.005C181.339 143.134 180.553 153.764 178.901 161.422C177.301 168.838 175.204 171.974 173.589 173.589C171.974 175.203 168.839 177.301 161.422 178.901C154.72 180.346 145.741 181.124 133.464 181.297L128.006 181.339L122.537 181.297C110.263 181.124 101.29 180.346 94.5889 178.901C87.1771 177.302 84.0386 175.203 82.4222 173.589C80.8076 171.974 78.7097 168.837 77.1097 161.422C75.4582 153.764 74.6724 143.134 74.6722 128.005C74.6722 112.876 75.4586 102.247 77.1097 94.5885C78.7099 87.1695 80.8072 84.0369 82.4222 82.4219C84.0372 80.8069 87.1698 78.7096 94.5889 77.1094C102.247 75.4582 112.876 74.6719 128.006 74.6719Z" fill="black"/>
<path d="M117.339 53.474C67.7115 54.9052 54.9055 67.7112 53.4743 117.339H0.0888672C1.52 23.3532 23.3534 1.50924 117.339 0.078125V53.474Z" fill="black"/>
<path d="M138.672 0.078125C232.646 1.51052 254.479 23.3548 255.912 117.328H202.516C201.083 67.7129 188.288 54.9065 138.672 53.474V0.078125Z" fill="black"/>
</svg>
