<svg width="256" height="256" viewBox="0 0 256 256" fill="none" xmlns="http://www.w3.org/2000/svg">
<path d="M4.98958 63.0625C15.977 12.0103 47.9677 0 128 0C208.033 0 240.034 12.0085 251.021 63.0625C169.514 50.2007 86.4967 50.2018 4.98958 63.0625Z" fill="black"/>
<path fill-rule="evenodd" clip-rule="evenodd" d="M128 256C21.3333 256 0 234.667 0 128C0 111.85 0.508096 97.6578 1.70833 85.1979L1.75 85.1875C85.3378 71.2562 170.662 71.2562 254.25 85.1875L254.302 85.1979C255.502 97.6575 256 111.85 256 128C256 234.667 234.667 256 128 256ZM128 213.333C133.891 213.333 138.667 208.558 138.667 202.667V148.615C143.425 153.291 147.436 158.725 150.458 164.771C153.093 170.04 159.502 172.176 164.771 169.542C170.04 166.907 172.176 160.498 169.542 155.229C161.586 139.317 148.683 126.414 132.771 118.458C132.714 118.43 132.651 118.413 132.594 118.385C132.308 118.249 132.018 118.122 131.719 118.01C131.66 117.989 131.601 117.969 131.542 117.948C131.262 117.849 130.977 117.763 130.688 117.688C130.559 117.654 130.431 117.622 130.302 117.594C129.906 117.507 129.505 117.427 129.094 117.385L128 117.333C127.212 117.333 126.447 117.432 125.708 117.594C125.579 117.622 125.451 117.654 125.323 117.688C125.033 117.763 124.749 117.85 124.469 117.948C124.41 117.969 124.35 117.989 124.292 118.01C123.992 118.122 123.703 118.249 123.417 118.385C123.356 118.414 123.289 118.428 123.229 118.458C107.317 126.414 94.4143 139.317 86.4583 155.229C83.8238 160.498 85.9601 166.907 91.2292 169.542C96.4983 172.176 102.907 170.04 105.542 164.771C108.564 158.725 112.575 153.291 117.333 148.615V202.667C117.333 208.558 122.109 213.333 128 213.333Z" fill="black"/>
</svg>
