<svg width="256" height="256" viewBox="0 0 256 256" fill="none" xmlns="http://www.w3.org/2000/svg">
<path fill-rule="evenodd" clip-rule="evenodd" d="M128 256C111.85 256 97.6575 255.502 85.1979 254.302L85.1875 254.25C71.2562 170.662 71.2562 85.3378 85.1875 1.75L85.1979 1.70833C97.6578 0.508096 111.85 0 128 0C234.667 0 256 21.3333 256 128C256 234.667 234.667 256 128 256ZM155.229 169.542C160.498 172.176 166.907 170.04 169.542 164.771C172.176 159.502 170.04 153.093 164.771 150.458C158.723 147.434 153.282 143.427 148.604 138.667H202.667C208.558 138.667 213.333 133.891 213.333 128C213.333 122.109 208.558 117.333 202.667 117.333H148.604C153.282 112.573 158.723 108.566 164.771 105.542C170.04 102.907 172.176 96.4983 169.542 91.2292C166.907 85.9601 160.498 83.8238 155.229 86.4583C139.317 94.4143 126.414 107.317 118.458 123.229C118.428 123.289 118.414 123.356 118.385 123.417C118.249 123.703 118.122 123.992 118.01 124.292C117.986 124.358 117.961 124.423 117.938 124.49C117.842 124.763 117.761 125.04 117.688 125.323C117.654 125.451 117.622 125.579 117.594 125.708C117.432 126.447 117.333 127.212 117.333 128C117.333 128.791 117.43 129.56 117.594 130.302C117.622 130.431 117.654 130.559 117.688 130.688C117.763 130.977 117.849 131.262 117.948 131.542C117.969 131.601 117.989 131.66 118.01 131.719C118.122 132.018 118.249 132.308 118.385 132.594C118.413 132.651 118.43 132.714 118.458 132.771C126.414 148.683 139.317 161.586 155.229 169.542Z" fill="black"/>
<path d="M63.0625 251.021C12.0085 240.034 0 208.033 0 128C0 47.9677 12.0103 15.977 63.0625 4.98958C50.2018 86.4967 50.2007 169.514 63.0625 251.021Z" fill="black"/>
</svg>
