<svg width="256" height="256" viewBox="0 0 256 256" fill="none" xmlns="http://www.w3.org/2000/svg">
<path fill-rule="evenodd" clip-rule="evenodd" d="M128 256C21.3333 256 0 234.667 0 128C0 21.3333 21.3333 0 128 0C144.155 0 158.35 0.507372 170.813 1.70833V1.75C184.744 85.3378 184.744 170.662 170.813 254.25V254.302C158.35 255.503 144.154 256 128 256ZM86.4583 164.771C89.0929 170.04 95.5017 172.176 100.771 169.542C116.683 161.586 129.586 148.683 137.542 132.771C137.571 132.712 137.597 132.653 137.625 132.594C137.761 132.308 137.889 132.018 138 131.719C138.022 131.66 138.042 131.601 138.063 131.542C138.161 131.262 138.248 130.977 138.323 130.688C138.356 130.559 138.388 130.431 138.417 130.302C138.58 129.561 138.667 128.79 138.667 128C138.667 127.265 138.59 126.548 138.448 125.854L138.385 125.563C138.367 125.482 138.344 125.403 138.323 125.323C138.25 125.039 138.158 124.763 138.063 124.49C138.04 124.424 138.024 124.357 138 124.292C137.889 123.993 137.761 123.702 137.625 123.417C137.596 123.355 137.572 123.29 137.542 123.229C129.586 107.317 116.683 94.4143 100.771 86.4583C95.5017 83.8238 89.0929 85.9601 86.4583 91.2292C83.8238 96.4983 85.9601 102.907 91.2292 105.542C97.2769 108.566 102.718 112.573 107.396 117.333H53.3333C47.4423 117.333 42.6667 122.109 42.6667 128C42.6667 133.891 47.4423 138.667 53.3333 138.667H107.396C102.718 143.427 97.277 147.434 91.2292 150.458C85.9601 153.093 83.8238 159.502 86.4583 164.771Z" fill="black"/>
<path d="M192.948 251.021C205.809 169.515 205.808 86.4957 192.948 4.98958C243.992 15.9791 256 47.9729 256 128C256 208.028 243.994 240.032 192.948 251.021Z" fill="black"/>
</svg>
