<svg width="256" height="256" viewBox="0 0 256 256" fill="none" xmlns="http://www.w3.org/2000/svg">
<path d="M7.17708 201.646C87.2163 188.894 168.773 188.895 248.813 201.646C236.036 245.375 203.267 256 128 256C52.7317 256 19.9525 245.378 7.17708 201.646Z" fill="black"/>
<path fill-rule="evenodd" clip-rule="evenodd" d="M128 0C234.667 0 256 21.3333 256 128C256 148.609 255.179 166.029 253.125 180.729C170.235 167.42 85.7544 167.419 2.86458 180.729C0.81035 166.03 0 148.609 0 128C0 21.3333 21.3333 0 128 0ZM128 32C122.109 32 117.333 36.7756 117.333 42.6667V96.7188C112.575 92.0419 108.564 86.6081 105.542 80.5625C102.907 75.2934 96.4983 73.1571 91.2292 75.7917C85.9601 78.4262 83.8238 84.8351 86.4583 90.1042C94.4143 106.016 107.317 118.919 123.229 126.875C123.286 126.904 123.349 126.92 123.406 126.948C123.692 127.085 123.982 127.212 124.281 127.323C124.34 127.345 124.399 127.365 124.458 127.385C124.738 127.484 125.023 127.57 125.313 127.646C125.441 127.679 125.569 127.711 125.698 127.74C126.094 127.827 126.495 127.906 126.906 127.948L128 128C128.788 128 129.553 127.902 130.292 127.74C130.421 127.711 130.549 127.679 130.677 127.646C130.967 127.571 131.251 127.484 131.531 127.385C131.59 127.365 131.65 127.345 131.708 127.323C132.008 127.212 132.297 127.084 132.583 126.948C132.644 126.919 132.711 126.905 132.771 126.875C148.683 118.919 161.586 106.016 169.542 90.1042C172.176 84.8351 170.04 78.4262 164.771 75.7917C159.502 73.1571 153.093 75.2934 150.458 80.5625C147.436 86.6081 143.425 92.0419 138.667 96.7188V42.6667C138.667 36.7756 133.891 32 128 32Z" fill="black"/>
</svg>
