<svg width="256" height="256" viewBox="0 0 256 256" fill="none" xmlns="http://www.w3.org/2000/svg">
<path fill-rule="evenodd" clip-rule="evenodd" d="M128 0C234.667 0 256 21.3333 256 128C256 234.667 234.667 256 128 256C21.3333 256 0 234.667 0 128C0 21.3333 21.3333 0 128 0ZM128 42.6667C122.109 42.6667 117.333 47.4423 117.333 53.3333V128C117.333 130.829 118.458 133.541 120.458 135.542L163.125 178.208C167.291 182.374 174.043 182.374 178.208 178.208C182.374 174.043 182.374 167.291 178.208 163.125L138.667 123.583V53.3333C138.667 47.4423 133.891 42.6667 128 42.6667Z" fill="black"/>
</svg>
