<svg width="256" height="256" viewBox="0 0 256 256" fill="none" xmlns="http://www.w3.org/2000/svg">
<path d="M64.0003 138.666C108.445 138.666 117.334 147.555 117.334 191.999C117.334 236.444 108.445 245.333 64.0003 245.333C19.5559 245.333 10.667 236.444 10.667 191.999C10.667 147.555 19.5559 138.666 64.0003 138.666Z" fill="black"/>
<path d="M192 138.666C236.445 138.666 245.334 147.555 245.334 191.999C245.334 236.444 236.445 245.333 192 245.333C147.556 245.333 138.667 236.444 138.667 191.999C138.667 147.555 147.556 138.666 192 138.666Z" fill="black"/>
<path d="M64.0003 10.666C108.445 10.666 117.334 19.5549 117.334 63.9993C117.334 108.444 108.445 117.333 64.0003 117.333C19.5559 117.333 10.667 108.444 10.667 63.9993C10.667 19.5549 19.5559 10.666 64.0003 10.666Z" fill="black"/>
<path d="M192 10.666C236.445 10.666 245.334 19.5549 245.334 63.9993C245.334 108.444 236.445 117.333 192 117.333C147.556 117.333 138.667 108.444 138.667 63.9993C138.667 19.5549 147.556 10.666 192 10.666Z" fill="black"/>
</svg>
