<svg width="256" height="256" viewBox="0 0 256 256" fill="none" xmlns="http://www.w3.org/2000/svg">
<path d="M128 0C168.479 0 221.249 55.3015 244.333 81.9583C252.097 90.9236 256 102.432 256 114.292V170.667C256 235.056 240.506 243.889 169.906 245.104C170.431 236.87 170.667 227.314 170.667 216.24C170.666 151.596 163.555 138.667 128 138.667C92.445 138.667 85.3335 151.596 85.3333 216.24C85.3333 227.314 85.5691 236.87 86.0938 245.104C15.4944 243.889 0 235.056 0 170.667V114.292C0.000262989 102.432 3.90295 90.9236 11.6667 81.9583C34.7511 55.3015 87.5206 0 128 0Z" fill="black"/>
</svg>
