<svg width="256" height="256" viewBox="0 0 256 256" fill="none" xmlns="http://www.w3.org/2000/svg">
<path d="M123.246 1.11321C126.733 -0.622227 130.951 -0.327082 134.194 1.98821L153.288 15.6236C190.96 42.533 224.742 74.5142 253.663 110.665C257.343 115.265 256.596 121.985 251.996 125.665C247.396 129.343 240.675 128.598 236.996 123.999C235.929 122.664 234.848 121.342 233.767 120.019C234.386 128.807 234.663 138.546 234.663 149.332C234.663 221.702 222.88 246.932 170.527 253.811C163.935 254.676 158.473 249.001 159.017 242.374C159.576 235.567 159.996 228.383 159.996 222.353C159.996 215.366 159.423 206.837 158.736 199.134C157.596 186.362 148.324 175.939 135.913 172.717C130.725 171.371 125.278 171.371 120.09 172.717C107.679 175.939 98.4065 186.362 97.267 199.134C96.5797 206.837 95.9964 215.366 95.9961 222.353C95.9961 228.383 96.4266 235.567 96.9857 242.374C97.5301 249 92.0669 254.675 85.4753 253.811C33.1224 246.932 21.3295 221.702 21.3295 149.332C21.3295 138.546 21.6065 128.807 22.2253 120.019C21.145 121.341 20.0627 122.665 18.9961 123.999C15.3156 128.596 8.5954 129.345 3.99613 125.665C-0.601096 121.985 -1.34769 115.265 2.32947 110.665C31.2501 74.5146 65.0327 42.533 102.704 15.6236L121.798 1.98821L123.246 1.11321Z" fill="black"/>
</svg>
