<svg width="256" height="256" viewBox="0 0 256 256" fill="none" xmlns="http://www.w3.org/2000/svg">
<path fill-rule="evenodd" clip-rule="evenodd" d="M128 0C158.633 0 184.945 18.4524 196.458 44.8438C218.546 51.3642 234.666 71.7987 234.666 96C234.666 118.858 220.28 138.339 200.073 145.927L137.146 250.823C135.218 254.035 131.746 256 128 256C124.254 256 120.782 254.035 118.854 250.823L55.9163 145.927C35.7142 138.337 21.333 118.855 21.333 96C21.333 71.8022 37.4476 51.3673 59.5309 44.8438C71.0432 18.4503 97.3652 0 128 0ZM166.385 147.198C155.69 155.23 142.405 160 128 160C113.592 160 100.3 155.233 89.6038 147.198C87.2902 147.872 84.9099 148.379 82.4788 148.74L128 224.594L173.5 148.74C171.072 148.379 168.695 147.871 166.385 147.198Z" fill="black"/>
</svg>
