<svg width="256" height="256" viewBox="0 0 256 256" fill="none" xmlns="http://www.w3.org/2000/svg">
<path fill-rule="evenodd" clip-rule="evenodd" d="M128 0C234.665 0.000155641 256 21.3347 256 128C256 234.664 234.664 256 128 256C21.3347 256 0.00015192 234.665 0 128C0 21.3343 21.3343 0 128 0ZM128 96C122.109 96 117.333 100.776 117.333 106.667V202.667C117.333 208.558 122.109 213.333 128 213.333C133.891 213.333 138.667 208.558 138.667 202.667V106.667C138.667 100.776 133.891 96 128 96ZM128 53.3333C119.111 53.3333 117.333 55.1112 117.333 64C117.333 72.8887 119.111 74.6667 128 74.6667C136.889 74.6667 138.667 72.8887 138.667 64C138.667 55.1112 136.889 53.3333 128 53.3333Z" fill="black"/>
</svg>
