<svg width="256" height="256" viewBox="0 0 256 256" fill="none" xmlns="http://www.w3.org/2000/svg">
<path fill-rule="evenodd" clip-rule="evenodd" d="M128 21.334C234.667 21.334 256 39.1118 256 128.001C256 216.89 234.667 234.667 128 234.667C21.3333 234.667 4.06931e-07 216.89 0 128.001C0 39.1118 21.3333 21.334 128 21.334ZM128 160.001C37.3959 160.001 42.7292 160.001 42.7292 170.667L42.6771 174.188C42.8645 180.313 47.1708 181.188 98.3229 181.313L128 181.334C218.604 181.334 213.271 181.334 213.271 170.667C213.271 161.334 217.355 160.167 157.677 160.021L128 160.001ZM58.6667 106.667C45.3333 106.667 42.6667 108.445 42.6667 117.334C42.6667 126.223 45.3333 128.001 58.6667 128.001C72 128.001 74.6667 126.223 74.6667 117.334C74.6667 108.445 72 106.667 58.6667 106.667ZM106.667 106.667C97.7778 106.667 96 108.445 96 117.334C96 126.223 97.7778 128.001 106.667 128.001C115.556 128.001 117.333 126.223 117.333 117.334C117.333 108.445 115.556 106.667 106.667 106.667ZM149.333 106.667C140.444 106.667 138.667 108.445 138.667 117.334C138.667 126.223 140.444 128.001 149.333 128.001C158.222 128.001 160 126.223 160 117.334C160 108.445 158.222 106.667 149.333 106.667ZM192 106.667C183.111 106.667 181.333 108.445 181.333 117.334C181.333 126.223 183.111 128.001 192 128.001C200.889 128.001 202.667 126.223 202.667 117.334C202.667 108.445 200.889 106.667 192 106.667ZM64 64.0007C55.1111 64.0007 53.3333 65.7784 53.3333 74.6673C53.3333 83.5562 55.1111 85.334 64 85.334C72.8889 85.334 74.6667 83.5562 74.6667 74.6673C74.6667 65.7784 72.8889 64.0007 64 64.0007ZM106.667 64.0007C97.7778 64.0007 96 65.7784 96 74.6673C96 83.5562 97.7778 85.334 106.667 85.334C115.556 85.334 117.333 83.5562 117.333 74.6673C117.333 65.7784 115.556 64.0007 106.667 64.0007ZM149.333 64.0007C140.444 64.0007 138.667 65.7784 138.667 74.6673C138.667 83.5562 140.444 85.334 149.333 85.334C158.222 85.334 160 83.5562 160 74.6673C160 65.7784 158.222 64.0007 149.333 64.0007ZM197.333 64.0007C184 64.0007 181.333 65.7784 181.333 74.6673C181.333 83.5562 184 85.334 197.333 85.334C210.667 85.334 213.333 83.5562 213.333 74.6673C213.333 65.7784 210.667 64.0007 197.333 64.0007Z" fill="black"/>
</svg>
