<svg width="256" height="256" viewBox="0 0 256 256" fill="none" xmlns="http://www.w3.org/2000/svg">
<path d="M128 10.6657C133.891 10.6658 138.667 15.4416 138.667 21.3324C138.667 27.2233 133.891 31.999 128 31.9991C105.99 31.9991 89.1213 33.1141 76.0837 35.9261C63.166 38.7124 54.7385 43.011 48.8753 48.8741C43.0122 54.7371 38.7137 63.1648 35.9274 76.0824C33.1154 89.12 32.0003 105.989 32.0003 127.999C32.0003 150.009 33.1154 166.878 35.9274 179.916C38.7136 192.833 43.0123 201.261 48.8753 207.124C54.7385 212.987 63.1658 217.286 76.0837 220.072C89.1214 222.884 105.99 223.999 128 223.999C150.011 223.999 166.879 222.884 179.917 220.072C192.835 217.286 201.262 212.987 207.125 207.124C212.988 201.261 217.287 192.833 220.073 179.916C222.885 166.878 224 150.009 224 127.999C224.001 122.108 228.776 117.332 234.667 117.332C240.558 117.332 245.333 122.108 245.334 127.999C245.334 150.432 244.226 169.12 240.927 184.416C237.602 199.83 231.901 212.515 222.209 222.207C212.516 231.9 199.832 237.601 184.417 240.926C169.122 244.225 150.434 245.332 128 245.332C105.567 245.332 86.8791 244.225 71.5837 240.926C56.1688 237.601 43.4842 231.9 33.792 222.207C24.0998 212.515 18.3982 199.831 15.0732 184.416C11.7742 169.12 10.667 150.432 10.667 127.999C10.667 105.566 11.7742 86.8777 15.0732 71.5824C18.3983 56.1677 24.0998 43.4829 33.792 33.7907C43.4842 24.0986 56.1689 18.397 71.5837 15.072C86.8791 11.7729 105.567 10.6657 128 10.6657Z" fill="black"/>
<path d="M179.24 10.8741C197.036 7.31491 215.33 7.09372 233.188 10.2074L236.761 10.8741L236.813 10.8845C237.271 10.9781 237.722 11.1053 238.167 11.2595L238.292 11.3011C238.326 11.3135 238.362 11.3301 238.396 11.3428C239.138 11.6191 239.854 11.9792 240.532 12.4261L240.719 12.5511C240.803 12.6087 240.877 12.6788 240.959 12.7386C241.175 12.8973 241.388 13.0616 241.594 13.2386C241.725 13.3507 241.854 13.4642 241.979 13.5824C242.054 13.653 242.135 13.7175 242.209 13.7907C242.294 13.8761 242.366 13.974 242.448 14.0616C242.591 14.2145 242.731 14.3691 242.865 14.5303C243.012 14.7067 243.148 14.8886 243.282 15.072C243.355 15.1726 243.431 15.2708 243.5 15.3741C243.745 15.7362 243.971 16.1054 244.167 16.4886C244.233 16.6173 244.284 16.7528 244.344 16.8845C244.467 17.152 244.578 17.4221 244.677 17.697C244.715 17.8012 244.757 17.9037 244.792 18.0095C244.908 18.3633 245.006 18.7205 245.084 19.0824C245.095 19.135 245.115 19.1858 245.125 19.2386C248.922 38.223 248.922 57.7751 245.125 76.7595C243.969 82.535 238.349 86.279 232.573 85.1241C226.798 83.9674 223.054 78.3475 224.209 72.572C226.059 63.3183 226.813 53.9082 226.552 44.5199L123.552 147.53C119.387 151.693 112.634 151.694 108.469 147.53C104.306 143.365 104.307 136.612 108.469 132.447L211.469 29.4366C202.085 29.1766 192.677 29.9412 183.427 31.7907C177.653 32.9441 172.032 29.2004 170.875 23.4261C169.721 17.6508 173.465 12.0305 179.24 10.8741Z" fill="black"/>
</svg>
