<svg width="256" height="256" viewBox="0 0 256 256" fill="none" xmlns="http://www.w3.org/2000/svg">
<path fill-rule="evenodd" clip-rule="evenodd" d="M128 0C170.666 0 213.333 16 213.333 96C213.333 97.448 213.311 98.8749 213.302 100.281C229.965 112.563 234.666 134.091 234.666 170.667C234.666 241.778 216.889 256 128 256C39.1108 256 21.333 241.778 21.333 170.667C21.333 133.999 26.0569 112.453 42.8226 100.188C42.7783 100.22 42.7313 100.249 42.6872 100.281C42.6776 98.8749 42.6663 97.448 42.6663 96C42.6663 16 85.333 0 128 0ZM128 138.667C101.333 138.667 95.9997 144 95.9997 170.667C95.9997 197.333 101.333 202.667 128 202.667C154.666 202.667 160 197.333 160 170.667C160 144 154.666 138.667 128 138.667ZM64.083 90.7396C79.577 86.7028 100.349 85.3333 128 85.3333C155.646 85.3333 176.413 86.7146 191.906 90.75C191.023 57.953 181.885 42.164 172.614 34.0521C162.33 25.0559 147.261 21.3333 128 21.3333C108.738 21.3333 93.6691 25.0559 83.3851 34.0521C74.1153 42.1632 64.9671 57.9495 64.083 90.7396Z" fill="black"/>
</svg>
