<svg width="256" height="256" viewBox="0 0 256 256" fill="none" xmlns="http://www.w3.org/2000/svg">
<path fill-rule="evenodd" clip-rule="evenodd" d="M128 0C170.666 0.000394106 213.333 16.001 213.333 96C213.333 97.448 213.302 98.8749 213.291 100.281C229.96 112.562 234.666 134.086 234.666 170.667C234.666 241.778 216.889 256 128 256C39.1108 256 21.333 241.778 21.333 170.667C21.333 131.962 26.617 110.139 45.7497 98.2604C46.7245 97.3626 47.888 96.6823 49.1663 96.3125C65.3507 87.9197 90.2601 85.3333 128 85.3333C155.652 85.3333 176.422 86.7127 191.916 90.75C191.034 57.9538 181.885 42.1642 172.614 34.0521C162.331 25.0566 147.26 21.3335 128 21.3333C108.74 21.3335 93.6688 25.0567 83.3851 34.0521C78.3254 38.4796 73.3167 45.1993 69.6559 55.7188C67.9955 60.4902 63.6872 64 58.6351 64C51.7954 63.997 46.5969 57.7178 48.6663 51.1979C61.8653 9.61587 94.9275 0.000275069 128 0ZM128 138.667C101.333 138.667 95.9997 144 95.9997 170.667C95.9997 197.333 101.333 202.667 128 202.667C154.666 202.667 160 197.333 160 170.667C160 144 154.666 138.667 128 138.667Z" fill="black"/>
</svg>
