<svg width="256" height="257" viewBox="0 0 256 257" fill="none" xmlns="http://www.w3.org/2000/svg">
<path fill-rule="evenodd" clip-rule="evenodd" d="M117.333 0C182.135 0 234.667 52.5319 234.667 117.333C234.667 145.909 224.436 172.086 207.458 192.438L252.875 237.844C257.038 242.008 257.036 248.762 252.875 252.927C248.71 257.092 241.957 257.091 237.792 252.927L192.375 207.521C172.033 224.465 145.877 234.667 117.333 234.667C52.5319 234.667 0 182.135 0 117.333C0 52.5319 52.5319 0 117.333 0ZM117.333 21.3333C64.314 21.3333 21.3333 64.314 21.3333 117.333C21.3333 170.353 64.314 213.333 117.333 213.333C170.353 213.333 213.333 170.353 213.333 117.333C213.333 64.314 170.353 21.3333 117.333 21.3333Z" fill="black"/>
</svg>
