<svg width="256" height="256" viewBox="0 0 256 256" fill="none" xmlns="http://www.w3.org/2000/svg">
<path d="M158.125 140.885C174.655 157.01 193.068 180.097 208.083 200.322C215.722 210.612 222.37 220.018 227.313 227.145C208.134 241.169 177.122 245.333 128 245.333C78.8726 245.333 47.8546 241.173 28.6771 227.145C33.6197 220.017 40.2759 210.614 47.9167 200.322C62.9301 180.099 81.3356 157.01 97.8646 140.885C107.652 146.008 117.848 149.333 128 149.333C138.149 149.333 148.34 146.006 158.125 140.885Z" fill="black"/>
<path d="M9.625 53.791C16.9048 63.6513 25.953 75.303 36.0521 86.9785C48.9715 101.915 63.8598 117.201 79.1771 128.833C79.2838 128.914 79.3931 128.991 79.5 129.072C62.6078 146.197 44.8697 168.641 30.7917 187.604C24.3608 196.266 18.6339 204.317 13.9896 210.947C3.3482 193.118 0 166.683 0 127.999C1.24097e-07 95.1974 2.4068 71.2012 9.625 53.791Z" fill="black"/>
<path d="M246.365 53.791C253.584 71.2015 256 95.195 256 127.999C256 166.686 252.644 193.118 242 210.947C237.356 204.318 231.638 196.264 225.208 187.604C211.129 168.639 193.383 146.197 176.49 129.072C176.599 128.99 176.714 128.915 176.823 128.833C192.14 117.201 207.029 101.915 219.948 86.9785C230.045 75.3049 239.085 63.6503 246.365 53.791Z" fill="black"/>
<path d="M128 10.666C183.261 10.666 215.615 15.9176 233.969 34.5723C226.296 45.2613 215.796 59.1655 203.813 73.0202C191.361 87.4158 177.568 101.465 163.917 111.833C149.941 122.446 137.667 127.999 128 127.999C118.333 127.999 106.059 122.446 92.0833 111.833C78.4317 101.465 64.6394 87.4158 52.1875 73.0202C40.2017 59.1633 29.6944 45.2619 22.0208 34.5723C40.3735 15.9134 72.7342 10.666 128 10.666Z" fill="black"/>
</svg>
