<svg width="256" height="256" viewBox="0 0 256 256" fill="none" xmlns="http://www.w3.org/2000/svg">
<path d="M244.995 154.01C242.491 227.533 224.446 250.356 159.745 255.01C158.145 203.323 150.959 192.012 127.995 192.01C105.028 192.011 97.8241 203.32 96.2239 255.01C31.9225 250.38 13.709 227.795 11.0364 155.313C22.5927 161.961 36.705 165.333 52.776 165.333C66.2365 165.333 78.8902 161.758 89.8072 155.531C100.761 161.762 113.456 165.333 126.953 165.333C140.444 165.332 153.127 161.758 164.078 155.531C174.997 161.761 187.656 165.333 201.12 165.333C218.199 165.333 233.057 161.515 244.995 154.01Z" fill="black"/>
<path d="M126.953 1.28542e-08C130.953 -3.78062e-05 134.953 0.0833579 138.932 0.25C142.911 0.416587 146.87 0.666732 150.786 1C154.703 1.33333 158.578 1.74998 162.391 2.25C181.453 4.74982 198.954 9.33252 212.286 16C219.831 19.7734 226.932 26.2226 233.068 34.2708C234.352 35.955 235.582 37.7161 236.776 39.5313C237.08 39.9936 237.384 40.4571 237.682 40.9271C239.426 43.6786 241.068 46.5535 242.578 49.5313C255.029 74.0893 258.991 105.241 245.266 124.906C237.227 136.422 223.13 143.999 201.12 144L198.432 143.938C185.089 143.28 173.05 137.75 164.109 129.125C155.716 137.177 144.63 142.527 132.307 143.74C131.472 143.822 130.622 143.881 129.776 143.927L129.641 143.938C128.747 143.981 127.846 143.99 126.943 143.99L124.255 143.938C122.459 143.849 120.687 143.665 118.943 143.406C118.38 143.326 117.822 143.224 117.266 143.125C106.679 141.209 97.1853 136.223 89.7864 129.125C86.2098 132.575 82.1357 135.53 77.6822 137.875C76.9388 138.266 76.1856 138.643 75.4218 139C68.5577 142.207 60.8795 144 52.776 144C32.8012 144 19.3529 137.75 11.026 127.99C-5.14014 109.037 -1.95668 76.8093 10.4947 51.1771C11.9606 48.1607 13.5596 45.2388 15.2655 42.4375C22.4686 30.6064 31.663 20.9788 41.6197 16C62.9533 5.33405 94.9539 0.000710145 126.953 1.28542e-08Z" fill="black"/>
</svg>
