<svg width="256" height="256" viewBox="0 0 256 256" fill="none" xmlns="http://www.w3.org/2000/svg">
<path d="M68.5521 168.854C79.0245 168.854 90.9212 172.505 106.365 182.469C122.013 192.565 140.021 208.302 162.417 230.698C170.258 238.539 177.268 245.856 183.521 252.708C168.249 255.068 149.93 256 128 256C52.1332 256 19.4433 245.206 6.88542 200.594C15.5072 193.24 23.3861 187.231 30.75 182.479C46.1916 172.517 58.0805 168.855 68.5521 168.854Z" fill="black"/>
<path fill-rule="evenodd" clip-rule="evenodd" d="M128 0C234.667 0 256 21.3333 256 128C256 200.055 246.261 233.158 207.063 247.063C198.601 237.279 188.749 226.864 177.5 215.615C102.392 140.507 64.5836 127.556 2.35417 176.719C0.685148 162.887 0 146.766 0 128C0 21.3333 21.3333 0 128 0ZM170.667 32C147.103 32 128 51.1025 128 74.6667C128 98.2308 147.103 117.333 170.667 117.333C194.228 117.331 213.333 98.2291 213.333 74.6667C213.333 51.1043 194.228 32.0028 170.667 32Z" fill="black"/>
</svg>
