<svg width="256" height="256" viewBox="0 0 256 256" fill="none" xmlns="http://www.w3.org/2000/svg">
<path fill-rule="evenodd" clip-rule="evenodd" d="M133.688 0.0520833C174.6 0.856763 192.238 10.9689 198.99 48.0313C197.196 47.6337 195.349 47.2619 193.448 46.9167C244.07 56.1591 256 82.8624 256 149.333C256 238.222 234.667 256 128 256C21.3333 256 4.06931e-07 238.222 0 149.333C0 82.8256 11.9423 56.124 62.6354 46.8958C60.6977 47.2463 58.8153 47.6263 56.9896 48.0313C64.0456 9.29277 83.0163 0.000268971 128 0L133.688 0.0520833ZM128 106.667C110.616 106.667 107.398 112.569 106.802 138.802C80.5689 139.398 74.6667 142.616 74.6667 160C74.6667 177.384 80.5689 180.602 106.802 181.198C107.398 207.431 110.616 213.333 128 213.333C145.379 213.332 148.592 207.428 149.188 181.198C175.425 180.602 181.333 177.385 181.333 160C181.333 142.615 175.425 139.398 149.188 138.802C148.592 112.572 145.379 106.668 128 106.667ZM128 21.3333C97.0755 21.3335 88.9751 26.2863 84.8125 32.2292C83.0002 34.8184 81.1767 38.6748 79.5938 44.5938C79.3427 44.6187 79.0933 44.6516 78.8438 44.6771C92.7727 43.2536 109.036 42.6667 128 42.6667C146.902 42.6667 163.122 43.243 177.021 44.6563C176.814 44.6352 176.604 44.6144 176.396 44.5938C174.813 38.676 173 34.8181 171.188 32.2292C167.025 26.2864 158.925 21.3335 128 21.3333Z" fill="black"/>
</svg>
