<svg width="256" height="259" viewBox="0 0 256 259" fill="none" xmlns="http://www.w3.org/2000/svg">
<path fill-rule="evenodd" clip-rule="evenodd" d="M184.858 5.39967C212.061 -1.84952 239.854 14.9377 246.098 42.3892C256.129 86.5296 256.129 132.374 246.098 176.514L245.452 179.056C238.358 204.157 212.929 219.51 187.41 214.108L184.858 213.504L181.525 212.618C165.889 208.449 150.593 203.1 135.764 196.639L129.431 193.806L106.671 183.295C106.668 183.568 106.671 183.844 106.671 184.118C106.671 246.337 119.999 258.784 80.004 258.785C40.0045 258.785 32.0042 246.339 32.004 184.118C32.0041 178.946 32.088 174.114 32.2124 169.608C42.2412 172.153 52.5607 173.451 62.9311 173.452H63.2332L58.129 173.348C47.9385 172.937 37.8328 171.295 28.0353 168.462L23.1603 166.952C15.4367 164.376 9.68481 157.852 8.08736 149.868L7.02486 144.545C2.68228 122.829 2.41262 100.504 6.21236 78.7122L7.02486 74.358L8.08736 69.0351C9.68579 61.0531 15.4378 54.5271 23.1603 51.9517C34.4633 48.1845 46.2414 46.0351 58.129 45.5559L63.2332 45.4517H84.9936L85.6499 45.3059L129.431 25.0976C146.223 17.3476 163.655 11.0505 181.525 6.28508L184.858 5.39967ZM225.296 47.1184C221.732 31.4566 205.868 21.8779 190.348 26.0143L187.025 26.8997C170.335 31.3502 154.052 37.2345 138.369 44.4726L106.254 59.2851C99.7724 92.4122 99.7747 126.481 106.254 159.608L138.369 174.431C154.052 181.669 170.335 187.553 187.025 192.004L190.348 192.889C205.87 197.027 221.733 187.449 225.296 171.785C234.619 130.757 234.62 88.1465 225.296 47.1184Z" fill="black"/>
</svg>
