<svg width="256" height="256" viewBox="0 0 256 256" fill="none" xmlns="http://www.w3.org/2000/svg">
<path d="M32.8042 96.0208C38.6818 95.6832 43.7226 100.174 44.0646 106.052C46.3522 145.365 52.8283 165.52 64.1896 176.573C75.4106 187.486 93.9793 192 128.388 192C161.154 191.999 179.568 187.907 190.94 178.073C202.14 168.384 209.029 150.859 211.96 116.427C212.461 110.559 217.623 106.21 223.492 106.708C229.36 107.21 233.72 112.371 233.221 118.24C230.217 153.52 222.872 178.66 204.898 194.208C189.057 207.908 166.948 212.359 139.044 213.177V234.667H171.044C176.935 234.667 181.71 239.442 181.71 245.333C181.71 251.224 176.935 256 171.044 256H85.7104C79.8203 255.999 75.0438 251.224 75.0438 245.333C75.0438 239.443 79.8203 234.668 85.7104 234.667H117.71V213.167C88.2932 212.304 65.299 207.411 49.3146 191.865C31.5892 174.621 25.0708 146.778 22.7729 107.281C22.4335 101.402 26.9247 96.3629 32.8042 96.0208Z" fill="black"/>
<path d="M128.377 0C181.71 0 192.377 14.2222 192.377 85.3333C192.377 156.444 181.71 170.667 128.377 170.667C75.0454 170.666 64.3771 156.444 64.3771 85.3333C64.3771 14.2231 75.0454 0.000345422 128.377 0Z" fill="black"/>
</svg>
