<svg width="256" height="256" viewBox="0 0 256 256" fill="none" xmlns="http://www.w3.org/2000/svg">
<path d="M128 224C133.891 224 138.667 228.776 138.667 234.667V245.333C138.667 251.224 133.891 256 128 256C122.109 256 117.333 251.224 117.333 245.333V234.667C117.333 228.776 122.109 224 128 224Z" fill="black"/>
<path d="M45.0313 195.885C49.1968 191.72 55.949 191.72 60.1146 195.885C64.2802 200.051 64.2802 206.803 60.1146 210.969L52.5729 218.51C48.4071 222.673 41.6543 222.675 37.4896 218.51C33.3249 214.346 33.3266 207.593 37.4896 203.427L45.0313 195.885Z" fill="black"/>
<path d="M195.885 195.885C200.051 191.72 206.803 191.72 210.969 195.885L218.51 203.427C222.674 207.593 222.675 214.345 218.51 218.51C214.345 222.675 207.593 222.674 203.427 218.51L195.885 210.969C191.72 206.803 191.72 200.051 195.885 195.885Z" fill="black"/>
<path d="M128 42.6667C179.2 42.6667 213.333 76.8 213.333 128C213.333 175.128 179.2 213.333 128 213.333C76.8 213.333 42.6667 179.2 42.6667 128C42.6667 76.8 76.8 42.6667 128 42.6667Z" fill="black"/>
<path d="M21.3333 117.333C27.2244 117.333 32 122.109 32 128C32 133.891 27.2244 138.667 21.3333 138.667H10.6667C4.77563 138.667 2.46465e-07 133.891 0 128C2.57505e-07 122.109 4.77563 117.333 10.6667 117.333H21.3333Z" fill="black"/>
<path d="M245.333 117.333C251.224 117.333 256 122.109 256 128C256 133.891 251.224 138.667 245.333 138.667H234.667C228.776 138.667 224 133.891 224 128C224 122.109 228.776 117.333 234.667 117.333H245.333Z" fill="black"/>
<path d="M37.4896 37.4896C41.6546 33.3246 48.4072 33.3258 52.5729 37.4896L60.1146 45.0313C64.2802 49.1968 64.2802 55.949 60.1146 60.1146C55.949 64.2802 49.1968 64.2802 45.0313 60.1146L37.4896 52.5729C33.3258 48.4072 33.3246 41.6546 37.4896 37.4896Z" fill="black"/>
<path d="M203.427 37.4896C207.593 33.3256 214.345 33.3248 218.51 37.4896C222.676 41.6547 222.675 48.4072 218.51 52.5729L210.969 60.1146C206.803 64.2802 200.051 64.2802 195.885 60.1146C191.72 55.949 191.72 49.1967 195.885 45.0313L203.427 37.4896Z" fill="black"/>
<path d="M128 0C133.891 0 138.667 4.77563 138.667 10.6667V21.3333C138.667 27.2244 133.891 32 128 32C122.109 32 117.333 27.2244 117.333 21.3333V10.6667C117.333 4.77563 122.109 0 128 0Z" fill="black"/>
</svg>
