<svg width="256" height="256" viewBox="0 0 256 256" fill="none" xmlns="http://www.w3.org/2000/svg">
<path d="M125.572 178.073C133.944 178.073 141.536 179.545 149.457 181.719C153.535 182.838 157.414 184.059 161.822 185.406C166.061 186.702 170.743 188.091 175.572 189.24C185.406 191.578 196.684 193.099 209.374 191.01C210.145 190.884 210.906 190.693 211.676 190.542C206.375 244.014 186.376 256 127.999 256C70.0923 255.999 49.9317 244.207 44.4365 191.823C54.0379 192.422 63.0942 191.081 71.1032 189.323C79.8781 187.397 92.1904 183.71 99.6865 181.833C108.713 179.574 117.092 178.074 125.572 178.073Z" fill="black"/>
<path fill-rule="evenodd" clip-rule="evenodd" d="M151.728 1.79167C176.389 5.28551 196.273 13.6923 211.801 24.9479C217.411 29.0142 222.456 33.4456 226.947 38.1563C234.417 45.9908 240.363 54.583 244.884 63.4792C247.403 68.4337 249.467 73.4857 251.114 78.5521C251.373 79.3508 251.625 80.1487 251.864 80.9479C252.714 83.799 253.435 86.6493 254.02 89.4896C255.914 98.697 256.415 107.772 255.634 116.25C255.485 117.874 255.294 119.476 255.051 121.052C254.944 121.748 254.823 122.439 254.697 123.125C254.416 124.659 254.099 126.168 253.728 127.646C251.084 138.193 246.167 147.239 239.218 153.646C238.015 154.755 236.76 155.795 235.437 156.74C227.414 162.463 220.116 166.072 213.291 168.188C183.9 177.3 163.135 158.291 129.634 156.823L125.572 156.74C93.6602 156.742 67.5428 173.249 43.0094 170.292C43.8129 170.389 44.6191 170.454 45.4261 170.51C38.8194 170.045 32.3357 168.271 25.8949 164.479C35.9955 157.798 42.6657 146.351 42.6657 133.333C42.6657 112.715 25.951 96 5.33236 96C3.80882 96.0001 2.30809 96.1039 0.832357 96.2813C0.835882 96.253 0.849642 96.2261 0.85319 96.1979C1.23592 93.1566 1.75062 90.0886 2.40527 87.0104C5.67767 71.622 12.4273 55.9992 23.4157 42.3125C24.0769 41.4888 24.7548 40.6738 25.4469 39.8646C38.8676 24.1763 58.1164 11.318 84.4261 4.75C84.8416 4.64628 85.2571 4.53807 85.6761 4.4375C86.0514 7.1139 86.7315 9.74328 87.7699 12.25C89.3779 16.1307 91.737 19.6546 94.7074 22.625C97.6777 25.5954 101.202 27.9544 105.082 29.5625C108.965 31.1706 113.13 32 117.332 32C121.535 32 125.7 31.1706 129.582 29.5625C133.463 27.9544 136.987 25.5954 139.957 22.625C142.928 19.6546 145.287 16.1308 146.895 12.25C148.318 8.81476 149.081 5.15577 149.249 1.44792C150.081 1.55335 150.907 1.67524 151.728 1.79167ZM202.666 85.3333C190.884 85.334 181.332 94.885 181.332 106.667C181.332 118.448 190.884 127.999 202.666 128C214.448 128 223.999 118.449 223.999 106.667C223.999 94.8846 214.448 85.3333 202.666 85.3333ZM106.666 74.6667C100.775 74.6674 95.999 79.4427 95.999 85.3333C95.999 91.2239 100.775 95.9993 106.666 96C112.557 96 117.332 91.2244 117.332 85.3333C117.332 79.4423 112.557 74.6667 106.666 74.6667Z" fill="black"/>
<path d="M5.33236 117.333C14.1689 117.333 21.3324 124.497 21.3324 133.333C21.3324 140.745 16.2866 146.953 9.44694 148.771C4.58944 140.757 1.40342 130.087 0.374023 118.115C1.93491 117.606 3.60188 117.333 5.33236 117.333Z" fill="black"/>
<path d="M127.978 0.03125C127.974 1.42139 127.719 2.79884 127.187 4.08333C126.65 5.37689 125.864 6.55154 124.874 7.54167C123.884 8.53175 122.709 9.31815 121.416 9.85417C120.122 10.3902 118.733 10.6667 117.332 10.6667C115.932 10.6666 114.543 10.3902 113.249 9.85417C111.955 9.31813 110.781 8.53176 109.791 7.54167C108.801 6.55155 108.014 5.37688 107.478 4.08333C107.059 3.07238 106.801 2.00363 106.707 0.916667C112.699 0.317883 118.987 0.000334518 125.572 0C126.378 0 127.181 0.021932 127.978 0.03125Z" fill="black"/>
</svg>
