<svg width="256" height="256" viewBox="0 0 256 256" fill="none" xmlns="http://www.w3.org/2000/svg">
<path fill-rule="evenodd" clip-rule="evenodd" d="M128 21.332C234.667 21.332 256 39.1098 256 127.999C256 216.888 234.667 234.665 128 234.665C21.3333 234.665 0 216.888 0 127.999C0 39.1098 21.3333 21.332 128 21.332ZM53.3333 170.665C47.4423 170.665 42.6667 175.441 42.6667 181.332C42.6667 187.223 47.4423 191.999 53.3333 191.999H138.667C144.558 191.999 149.333 187.223 149.333 181.332C149.333 175.441 144.558 170.665 138.667 170.665H53.3333ZM53.3333 117.332C47.4423 117.332 42.6667 122.108 42.6667 127.999C42.6667 133.89 47.4423 138.665 53.3333 138.665H202.667C208.558 138.665 213.333 133.89 213.333 127.999C213.333 122.108 208.558 117.332 202.667 117.332H53.3333ZM128 63.9987C122.109 63.9987 117.333 68.7743 117.333 74.6654C117.333 80.5564 122.109 85.332 128 85.332H202.667C208.558 85.332 213.333 80.5564 213.333 74.6654C213.333 68.7743 208.558 63.9987 202.667 63.9987H128Z" fill="black"/>
</svg>
