<svg width="256" height="256" viewBox="0 0 256 256" fill="none" xmlns="http://www.w3.org/2000/svg">
<path d="M144.198 1.98966C147.449 -0.332768 151.728 -0.651137 155.281 1.17716C158.833 3.00558 161.062 6.67141 161.062 10.6667V85.3334H222.708C231.478 85.3334 237.391 94.304 233.937 102.365C212.855 151.559 180.998 195.391 140.718 230.636L114.76 253.365C111.48 256.234 106.78 256.819 102.895 254.844C99.0105 252.866 96.7131 248.717 97.1038 244.375L105.666 149.333H31.9996C28.1769 149.333 24.6506 147.285 22.7496 143.969C20.8486 140.652 20.8593 136.569 22.7913 133.271C52.3795 82.7532 92.3079 39.0499 139.948 5.02091L144.198 1.98966Z" fill="black"/>
</svg>
