<svg width="256" height="256" viewBox="0 0 256 256" fill="none" xmlns="http://www.w3.org/2000/svg">
<path fill-rule="evenodd" clip-rule="evenodd" d="M128 0C234.667 0 256 21.3333 256 128C256 139.83 255.716 150.609 255.104 160.427C183.434 163.402 163.4 183.44 160.427 255.115C150.609 255.726 139.83 256 128 256C21.3333 256 0 234.667 0 128C5.08631e-07 21.3333 21.3333 5.08663e-07 128 0ZM64 128C58.109 128 53.3333 132.776 53.3333 138.667C53.3333 144.558 58.109 149.333 64 149.333H149.333C155.224 149.333 160 144.558 160 138.667C160 132.776 155.224 128 149.333 128H64ZM64 64C58.109 64 53.3333 68.7756 53.3333 74.6667C53.3333 80.5577 58.109 85.3333 64 85.3333H128C133.891 85.3333 138.667 80.5577 138.667 74.6667C138.667 68.7756 133.891 64 128 64H64Z" fill="black"/>
<path d="M252.958 181.865C246.335 227.346 227.344 246.346 181.865 252.969C182.476 240.688 183.636 230.603 185.438 222.25C188.26 209.164 192.357 201.809 197.083 197.083C201.809 192.357 209.164 188.26 222.25 185.438C230.6 183.637 240.683 182.476 252.958 181.865Z" fill="black"/>
</svg>
