<svg width="256" height="256" viewBox="0 0 256 256" fill="none" xmlns="http://www.w3.org/2000/svg">
<path fill-rule="evenodd" clip-rule="evenodd" d="M128 0C234.667 0 256 21.3333 256 128C256 139.818 255.705 150.586 255.094 160.396C178.097 163.246 154.725 183.404 150.229 255.604C143.266 255.862 135.865 256 128 256C21.3333 256 0 234.667 0 128C0 21.3333 21.3333 0 128 0ZM77.6979 135.635C68.766 144.569 62.6756 155.946 60.1979 168.333L56.4688 186.979C54.9779 194.441 61.5588 201.022 69.0208 199.531L87.6667 195.802C100.054 193.324 111.431 187.234 120.365 178.302L173.792 124.875L131.125 82.2083L77.6979 135.635ZM164.417 53.3333C161.588 53.3338 158.875 54.4583 156.875 56.4583L146.208 67.125L188.875 109.792L199.542 99.125C201.542 97.125 202.666 94.4117 202.667 91.5833V85.3333C202.667 67.6602 188.34 53.3333 170.667 53.3333H164.417Z" fill="black"/>
<path d="M252.958 181.823C245.868 230.594 224.575 248.947 171.677 254.219C172.408 243.882 173.557 235.062 175.188 227.5C178.315 212.999 182.913 204.587 188.417 199.083C193.921 193.58 202.333 188.982 216.833 185.854C226.594 183.749 238.447 182.461 252.958 181.823Z" fill="black"/>
</svg>
