<svg width="256" height="256" viewBox="0 0 256 256" fill="none" xmlns="http://www.w3.org/2000/svg">
<path fill-rule="evenodd" clip-rule="evenodd" d="M138.667 0C236.444 0 256 21.3333 256 128C256 234.667 236.444 256 138.667 256C64.8579 256 35.6381 243.841 25.7396 192H10.6667C4.77563 192 0 187.224 0 181.333C0 175.442 4.77563 170.667 10.6667 170.667H22.8854C22.0418 161.062 21.5809 150.43 21.4167 138.667H10.6667C4.77563 138.667 0 133.891 0 128C0 122.109 4.77563 117.333 10.6667 117.333H21.4167C21.5809 105.57 22.0418 94.9378 22.8854 85.3333H10.6667C4.77563 85.3333 0 80.5577 0 74.6667C0 68.7756 4.77563 64 10.6667 64H25.7396C35.6381 12.1593 64.8579 2.79252e-07 138.667 0ZM96 149.333C90.109 149.333 85.3333 154.109 85.3333 160C85.3333 165.891 90.109 170.667 96 170.667H192C197.891 170.667 202.667 165.891 202.667 160C202.667 154.109 197.891 149.333 192 149.333H96ZM96 85.3333C90.109 85.3333 85.3333 90.109 85.3333 96C85.3333 101.891 90.109 106.667 96 106.667H192C197.891 106.667 202.667 101.891 202.667 96C202.667 90.109 197.891 85.3333 192 85.3333H96Z" fill="black"/>
</svg>
