<svg width="256" height="256" viewBox="0 0 256 256" fill="none" xmlns="http://www.w3.org/2000/svg">
<path fill-rule="evenodd" clip-rule="evenodd" d="M128 0C234.667 0 256 21.3333 256 128C256 234.667 234.667 256 128 256C21.3333 256 0 234.667 0 128C0 21.3333 21.3333 0 128 0ZM154.563 86.7083C149.429 83.8206 142.93 85.6379 140.042 90.7708C137.154 95.9047 138.971 102.403 144.104 105.292C159.879 114.165 172.491 127.701 180.271 144C172.491 160.299 159.879 173.835 144.104 182.708C138.971 185.597 137.154 192.095 140.042 197.229C142.93 202.362 149.429 204.179 154.563 201.292C175.031 189.777 191.243 171.971 200.781 150.51L201.75 148.333C202.976 145.575 202.976 142.425 201.75 139.667L200.781 137.49C191.243 116.029 175.031 98.2226 154.563 86.7083ZM115.958 58.7708C113.07 53.6379 106.571 51.8206 101.438 54.7083C80.9687 66.2226 64.757 84.0287 55.2188 105.49L54.25 107.667C53.0242 110.425 53.0242 113.575 54.25 116.333L55.2188 118.51C64.757 139.971 80.9687 157.777 101.438 169.292C106.571 172.179 113.07 170.362 115.958 165.229C118.846 160.095 117.029 153.597 111.896 150.708C96.1208 141.835 83.5092 128.299 75.7292 112C83.5093 95.7008 96.1208 82.1651 111.896 73.2917C117.029 70.403 118.846 63.9047 115.958 58.7708Z" fill="black"/>
</svg>
