<svg width="256" height="257" viewBox="0 0 256 257" fill="none" xmlns="http://www.w3.org/2000/svg">
<path d="M233.25 129.001C229.235 166.6 215.649 183.143 180.427 189.501C177.299 244.678 164.937 256.959 128 256.959C91.0614 256.959 78.6897 244.679 75.5622 189.501C40.3465 183.142 26.7641 166.597 22.7497 129.001H233.25Z" fill="black"/>
<path d="M160 8.74023C234.666 -23.2598 234.666 50.6877 234.666 99.4069C234.666 102.24 234.632 104.993 234.583 107.667H21.4163C21.367 104.993 21.333 102.24 21.333 99.4069C21.333 76.9776 24.1053 59.6086 29.6038 46.2194C43.9751 11.228 85.3344 40.7393 160 8.74023Z" fill="black"/>
</svg>
