<svg width="256" height="257" viewBox="0 0 256 257" fill="none" xmlns="http://www.w3.org/2000/svg">
<path d="M117.333 0.957031C188.587 0.957031 209.05 6.60101 212.677 32.957H234.666C240.557 32.957 245.333 37.7327 245.333 43.6237V107.624C245.333 112.779 241.644 117.191 236.573 118.113L128 137.853V150.988C145.487 153.781 149.333 165.884 149.333 203.624C149.333 248.068 144 256.957 117.333 256.957C90.6663 256.957 85.333 248.068 85.333 203.624C85.333 165.884 89.1786 153.781 106.666 150.988V128.957C106.666 123.802 110.355 119.39 115.427 118.467L224 98.7175V54.2904H212.677C209.05 80.6464 188.587 86.2904 117.333 86.2904C37.333 86.2904 21.333 79.1793 21.333 43.6237C21.333 8.06814 37.333 0.957031 117.333 0.957031Z" fill="black"/>
</svg>
