<svg width="256" height="256" viewBox="0 0 256 256" fill="none" xmlns="http://www.w3.org/2000/svg">
<path fill-rule="evenodd" clip-rule="evenodd" d="M128 0C234.667 0 256 21.3333 256 128C256 234.666 234.666 256 128 256C21.3336 256 0.000108515 234.666 0 128C0 21.3333 21.3333 0 128 0ZM91.7292 64.0521C85.8677 63.4659 80.6388 67.7429 80.0521 73.6042C76.4349 109.777 76.4348 146.223 80.0521 182.396C80.6392 188.257 85.868 192.534 91.7292 191.948C97.5902 191.361 101.867 186.132 101.281 180.271C97.8053 145.51 97.8053 110.49 101.281 75.7292C101.867 69.8677 97.5904 64.6388 91.7292 64.0521ZM164.271 64.0521C158.41 64.6388 154.133 69.8677 154.719 75.7292C158.195 110.49 158.195 145.51 154.719 180.271C154.133 186.132 158.41 191.361 164.271 191.948C170.132 192.534 175.361 188.257 175.948 182.396C179.565 146.223 179.565 109.777 175.948 73.6042C175.361 67.7429 170.132 63.4659 164.271 64.0521Z" fill="black"/>
</svg>
