<svg width="256" height="256" viewBox="0 0 256 256" fill="none" xmlns="http://www.w3.org/2000/svg">
<path d="M29.8849 11.8002C73.6331 8.8967 190.869 7.06098 226.562 66.5398C242.327 92.8116 239.427 128.61 232.406 158.279C257.414 187.735 254.724 202.555 228.635 228.644C202.544 254.735 187.722 257.422 158.26 232.404C128.599 239.418 92.8218 242.296 66.562 226.54C7.08885 190.852 8.89856 73.6335 11.7912 29.894C11.8512 28.9883 11.9806 28.1024 12.1557 27.2377L96.187 111.269C96.1193 112.181 96.0721 113.146 96.0412 114.165L95.9995 117.331C95.9995 133.999 99.1248 138.168 114.166 138.623L117.333 138.665C135.108 138.664 138.666 135.108 138.666 117.331C138.666 99.5575 135.107 95.9985 117.333 95.9981L114.166 96.0398C113.152 96.0705 112.19 96.1289 111.281 96.1961L27.2495 12.1648C28.1081 11.9917 28.986 11.8599 29.8849 11.8002Z" fill="black"/>
</svg>
