<svg width="256" height="256" viewBox="0 0 256 256" fill="none" xmlns="http://www.w3.org/2000/svg">
<path d="M234.667 234.657C240.556 234.657 245.331 239.435 245.334 245.323C245.334 251.214 240.558 255.99 234.667 255.99H21.3337C15.4426 255.99 10.667 251.214 10.667 245.323C10.6697 239.435 15.4443 234.657 21.3337 234.657H234.667Z" fill="black"/>
<path d="M197.584 127.334L148.459 176.459C137.366 187.55 123.077 194.911 107.604 197.49L78.292 202.375C63.7912 204.787 51.2142 192.21 53.6253 177.709L58.5107 148.396C61.0898 132.923 68.4504 118.635 79.542 107.542L128.657 58.4067L197.584 127.334Z" fill="black"/>
<path d="M197.302 10.813C207.169 11.6954 220.408 14.9512 230.729 25.2713C241.049 35.5932 244.306 48.8323 245.188 58.6984C246.531 73.7455 238.575 86.3521 229.969 94.9588L212.667 112.25L143.74 43.3234L161.042 26.0317C169.649 17.4253 182.255 9.47005 197.302 10.813Z" fill="black"/>
</svg>
