<svg width="256" height="256" viewBox="0 0 256 256" fill="none" xmlns="http://www.w3.org/2000/svg">
<path d="M208.25 170.001L148.458 229.793C137.365 240.886 123.079 248.245 107.604 250.824L78.2913 255.71C63.7873 258.124 51.2102 245.547 53.6247 231.043L58.5101 201.73C61.0892 186.256 68.448 171.97 79.5413 160.876L139.323 101.074L208.25 170.001Z" fill="black"/>
<path d="M197.302 64.1471C207.169 65.0291 220.406 68.2829 230.729 78.6055C241.051 88.928 244.305 102.165 245.187 112.033C246.532 127.082 238.576 139.686 229.968 148.293L223.333 154.918L154.406 85.9909L161.041 79.3659C169.649 70.7584 182.252 62.8025 197.302 64.1471Z" fill="black"/>
<path d="M74.6663 42.668C80.5574 42.668 85.333 47.4436 85.333 53.3346C85.333 59.2257 80.5574 64.0013 74.6663 64.0013H31.9997C26.1086 64.0013 21.333 59.2257 21.333 53.3346C21.333 47.4436 26.1086 42.668 31.9997 42.668H74.6663Z" fill="black"/>
</svg>
