<svg width="256" height="256" viewBox="0 0 256 256" fill="none" xmlns="http://www.w3.org/2000/svg">
<path fill-rule="evenodd" clip-rule="evenodd" d="M125.274 0C196.904 0.000545656 222.332 13.8586 229.514 75.0625C233.385 76.1387 236.487 79.3588 237.191 83.5833C240.915 105.929 240.915 128.738 237.191 151.083C236.597 154.643 234.297 157.484 231.274 158.938C228.118 224.011 212.576 247.45 164.066 253.927C152.95 255.411 140.097 256 125.274 256C49.5032 256 25.4141 240.498 19.9511 169.854C17.6488 168.909 15.662 167.171 14.4616 164.771C9.60266 155.053 9.60266 143.614 14.4616 133.896C15.4223 131.975 16.8813 130.467 18.6074 129.458C18.6066 128.974 18.6074 128.488 18.6074 128C18.6074 123.844 18.644 119.817 18.7011 115.917C16.9367 114.908 15.4386 113.391 14.4616 111.438C9.60266 101.72 9.60266 90.2803 14.4616 80.5625C15.8423 77.8016 18.2569 75.8984 21.0032 75.0938C28.1798 13.8602 53.6274 0 125.274 0ZM125.274 192C119.383 192 114.607 196.776 114.607 202.667C114.607 208.558 119.383 213.333 125.274 213.333C131.163 213.331 135.941 208.556 135.941 202.667C135.941 196.777 131.163 192.002 125.274 192ZM149.191 37.6563C133.488 33.7311 117.06 33.7318 101.357 37.6563C95.643 39.0848 92.1698 44.869 93.597 50.5833C95.026 56.2971 100.81 59.7708 106.524 58.3438C118.831 55.2677 131.717 55.2671 144.024 58.3438C149.737 59.7683 155.523 56.2963 156.951 50.5833C158.377 44.8706 154.902 39.0864 149.191 37.6563Z" fill="black"/>
</svg>
