<svg width="256" height="256" viewBox="0 0 256 256" fill="none" xmlns="http://www.w3.org/2000/svg">
<path d="M127.995 74.6667C139.777 74.6667 149.328 84.2179 149.328 96C149.328 107.782 139.777 117.333 127.995 117.333C116.215 117.331 106.662 107.78 106.662 96C106.662 84.2196 116.215 74.6694 127.995 74.6667Z" fill="black"/>
<path fill-rule="evenodd" clip-rule="evenodd" d="M128.016 0C216.905 3.85518e-05 245.297 53.3334 234.683 128C225.539 192.318 153 240.805 133.068 253.01C129.926 254.935 126.116 254.935 122.974 253.01C103.064 240.806 30.5826 192.319 21.3492 128C10.6304 53.3335 39.1274 0.000227877 128.016 0ZM128.068 53.3333C104.504 53.3335 85.4012 72.436 85.4012 96C85.4012 119.564 104.504 138.666 128.068 138.667C151.632 138.667 170.735 119.564 170.735 96C170.735 72.4359 151.632 53.3334 128.068 53.3333Z" fill="black"/>
</svg>
