<svg width="256" height="256" viewBox="0 0 256 256" fill="none" xmlns="http://www.w3.org/2000/svg">
<path d="M128 0C216.889 1.69544e-07 234.666 8.88889 234.666 53.3333C234.666 80.4818 228.026 94.3383 202.604 101.031C202.638 102.855 202.666 104.733 202.666 106.667C202.666 156.804 191.668 169.222 138.656 170.531C138.656 170.576 138.666 170.621 138.666 170.667V245.333C138.666 251.224 133.891 256 128 256C122.109 256 117.333 251.224 117.333 245.333V170.531C64.3297 169.22 53.333 156.801 53.333 106.667C53.333 104.733 53.3506 102.855 53.3851 101.031C27.9706 94.3373 21.333 80.4783 21.333 53.3333C21.333 8.88889 39.1108 0 128 0Z" fill="black"/>
</svg>
