<svg width="256" height="256" viewBox="0 0 256 256" fill="none" xmlns="http://www.w3.org/2000/svg">
<path d="M96.0003 106.667C107.782 106.667 117.334 116.218 117.334 128C117.334 139.782 107.782 149.333 96.0003 149.333C84.2182 149.333 74.667 139.782 74.667 128C74.667 116.218 84.2182 106.667 96.0003 106.667Z" fill="black"/>
<path fill-rule="evenodd" clip-rule="evenodd" d="M128 0C193.185 0 245.334 25.6 245.334 64C245.334 72.5641 243.745 83.1456 241.271 94.4167L239.99 99.9063C232.573 129.938 218.934 157.619 201.584 183.167C201.198 183.734 200.795 184.289 200.407 184.854C200.269 185.054 200.138 185.259 200 185.458C199.497 186.187 199 186.921 198.49 187.646C196.398 190.622 194.26 193.571 192.073 196.49C191.717 196.965 191.338 197.422 190.979 197.896C189.901 199.321 188.808 200.735 187.709 202.146C186.736 203.394 185.77 204.648 184.782 205.885C182.981 208.141 181.162 210.384 179.313 212.604L179.292 212.594C179.004 212.939 178.737 213.301 178.448 213.646C169.045 224.859 159.048 235.619 148.719 245.948L146.49 247.958C141.791 251.79 136.182 253.948 130.459 254.427C128.823 254.564 127.178 254.564 125.542 254.427C119.819 253.948 114.21 251.79 109.511 247.958L107.282 245.948C65.9708 204.637 29.9709 156.433 16.0107 99.9063L14.7295 94.4167C12.2561 83.1456 10.667 72.5641 10.667 64C10.667 25.6 62.8151 0 128 0ZM153.667 72.6667C136.615 70.4658 119.344 70.4635 102.292 72.6667C79.5154 77.1088 57.6567 87.4947 39.1982 103.865C42.2414 114.085 46.0935 124.052 50.6357 133.781C53.0186 138.885 55.5945 143.922 58.3441 148.896C74.6265 178.35 97.0552 205.555 122.365 230.865C125.476 233.976 130.524 233.976 133.636 230.865C142.068 222.432 150.151 213.762 157.823 204.896C158.59 204.01 159.347 203.119 160.104 202.229C153.445 195.488 149.334 186.225 149.334 176C149.334 155.381 166.048 138.667 186.667 138.667C191.925 138.667 196.922 139.767 201.459 141.729C207.721 129.498 212.914 116.888 216.792 103.865C198.325 87.489 176.454 77.1061 153.667 72.6667Z" fill="black"/>
</svg>
