<svg width="256" height="256" viewBox="0 0 256 256" fill="none" xmlns="http://www.w3.org/2000/svg">
<path fill-rule="evenodd" clip-rule="evenodd" d="M128.001 0C234.666 0.000155301 256.001 21.3347 256.001 128C256.001 234.664 234.665 256 128.001 256C21.3357 256 0.00112848 234.665 0.000976562 128C0.000976562 21.3343 21.3353 0 128.001 0ZM101.428 65.3542C94.9106 62.7479 87.677 66.2815 85.5843 72.7813L85.2301 74.125C78.1181 109.688 78.1182 146.312 85.2301 181.875C86.7002 189.218 94.4741 193.427 101.428 190.646L105.657 188.958C138.145 175.963 168.79 158.744 196.782 137.75C203.276 132.875 203.276 123.125 196.782 118.25C168.79 97.256 138.145 80.0368 105.657 67.0417L101.428 65.3542Z" fill="black"/>
</svg>
