<svg width="256" height="256" viewBox="0 0 256 256" fill="none" xmlns="http://www.w3.org/2000/svg">
<path fill-rule="evenodd" clip-rule="evenodd" d="M128 0C234.665 0.000155301 256 21.3347 256 128C256 234.664 234.664 256 128 256C21.3347 256 0.00015192 234.665 0 128C0 21.3343 21.3343 0 128 0ZM128 64C122.109 64 117.333 68.7756 117.333 74.6667V117.333H74.6667C68.7756 117.333 64 122.109 64 128C64 133.891 68.7756 138.667 74.6667 138.667H117.333V181.333C117.333 187.224 122.109 192 128 192C133.891 192 138.667 187.224 138.667 181.333V138.667H181.333C187.224 138.667 192 133.891 192 128C192 122.109 187.224 117.333 181.333 117.333H138.667V74.6667C138.667 68.7756 133.891 64 128 64Z" fill="black"/>
</svg>
