<svg width="256" height="256" viewBox="0 0 256 256" fill="none" xmlns="http://www.w3.org/2000/svg">
<path d="M10.6979 144.021C15.3706 145.636 20.1453 146.676 24.75 147.385C36.6668 149.222 51.2755 149.43 67.6667 149.302C82.1958 149.189 98.1624 148.821 117.333 148.708V255.906C28.7859 254.551 10.6674 234.886 10.6667 149.333C10.6667 147.535 10.6814 145.761 10.6979 144.021Z" fill="black"/>
<path d="M245.333 149.333C245.333 234.886 227.214 254.551 138.667 255.906V148.708C157.838 148.821 173.804 149.189 188.333 149.302C204.724 149.43 219.333 149.222 231.25 147.385C235.852 146.676 240.622 145.635 245.292 144.021C245.308 145.761 245.333 147.535 245.333 149.333Z" fill="black"/>
<path fill-rule="evenodd" clip-rule="evenodd" d="M170.667 0C213.333 0 224 23.8781 224 53.3333C224 54.5982 223.93 55.8509 223.844 57.0938C223.754 57.0766 223.663 57.0587 223.573 57.0417C247.877 61.5979 255.999 71.7562 256 94.4375C256 107.985 252.502 116.138 244.406 121.031L244.417 121.042C244.377 121.066 244.332 121.08 244.292 121.104C236.842 125.554 225.537 127.26 209.458 127.781C207.001 127.862 204.433 127.906 201.75 127.938C200.394 127.953 199.009 127.974 197.594 127.979C196.655 127.983 195.704 127.98 194.74 127.979C190.733 127.976 186.5 127.94 182.031 127.885C173.132 127.779 163.3 127.629 152.469 127.5C144.819 127.408 136.67 127.333 128 127.333C117.368 127.333 107.522 127.439 98.4167 127.563C91.1176 127.66 84.295 127.748 77.9271 127.833C72.7253 127.905 67.8268 127.964 63.2188 127.979C61.4905 127.984 59.8033 127.986 58.1563 127.979C56.6141 127.973 55.1075 127.946 53.6354 127.927C51.9364 127.905 50.2842 127.865 48.6771 127.823C13.352 126.92 0 120.99 0 94.4375C0.00106298 71.7368 8.13717 61.5818 32.4896 57.0313C32.3748 57.0527 32.2599 57.072 32.1458 57.0938C32.0593 55.8512 32 54.5979 32 53.3333C32 23.8781 42.6667 0 85.3333 0C106.667 0 120 13.3333 128 26.6667C136 13.3333 149.333 0 170.667 0ZM85.3333 21.3333C67.9399 21.3333 61.7194 26.0719 59.0938 29.2396C55.7927 33.2231 53.3333 40.5004 53.3333 53.3333C53.3333 53.752 53.3486 54.1686 53.3646 54.5833C52.8176 54.6204 52.2764 54.6689 51.7396 54.7083C52.5675 54.6477 53.4085 54.6075 54.2604 54.5521C58.1561 54.2993 62.3036 54.0841 66.7188 53.9271C66.8194 53.9235 66.9199 53.9098 67.0208 53.9063C68.7307 53.8464 70.4807 53.8085 72.2708 53.7604C73.7735 53.7199 75.3044 53.6685 76.8646 53.6354C78.8519 53.5936 80.8864 53.5623 82.9688 53.5313C83.774 53.5191 84.5866 53.5107 85.4063 53.5C91.2356 53.4249 97.4305 53.3752 104.01 53.3542C107.459 53.3428 111.014 53.3471 114.677 53.3438C115.028 52.7149 115.382 52.1171 115.698 51.5313C115.763 51.4112 115.812 51.2844 115.875 51.1667C114.535 47.2522 112.538 42.362 109.708 37.6458C103.636 27.5259 96.0635 21.3333 85.3333 21.3333ZM170.667 21.3333C159.936 21.3333 152.364 27.5259 146.292 37.6458C143.462 42.3633 141.454 47.2517 140.115 51.1667C140.178 51.2858 140.236 51.4097 140.302 51.5313C140.617 52.1144 140.953 52.718 141.302 53.3438C144.925 53.347 148.441 53.3431 151.854 53.3542C158.047 53.3738 163.899 53.4128 169.427 53.4792C170.901 53.4971 172.353 53.5192 173.781 53.5417C175.813 53.5733 177.799 53.614 179.74 53.6563C180.285 53.6682 180.826 53.6851 181.365 53.6979C188.149 53.8589 194.368 54.0961 200.063 54.4375C201.346 54.5145 202.603 54.5888 203.833 54.6771C203.433 54.6483 203.031 54.6108 202.625 54.5833C202.641 54.1684 202.667 53.7522 202.667 53.3333C202.667 40.5004 200.207 33.2231 196.906 29.2396C194.281 26.0719 188.06 21.3333 170.667 21.3333Z" fill="black"/>
</svg>
