<svg width="256" height="256" viewBox="0 0 256 256" fill="none" xmlns="http://www.w3.org/2000/svg">
<path fill-rule="evenodd" clip-rule="evenodd" d="M128 0C209.651 2.34975e-05 214.118 12.8603 213.635 71.3958C216.14 73.6327 218.362 76.1267 220.343 78.8958C220.442 79.0336 220.538 79.1734 220.635 79.3125C221.752 80.9088 222.79 82.5922 223.75 84.375C223.775 84.4216 223.808 84.4637 223.833 84.5104L224.354 85.5C224.409 85.6092 224.455 85.7235 224.51 85.8333C224.984 86.7785 225.429 87.7528 225.864 88.75C226.295 89.7393 226.689 90.7604 227.083 91.8021C227.249 92.2411 227.434 92.6765 227.593 93.125C227.96 94.1539 228.292 95.2123 228.625 96.2917C228.77 96.7636 228.923 97.237 229.062 97.7188C229.393 98.861 229.703 100.031 230 101.229C230.113 101.684 230.235 102.141 230.343 102.604C230.594 103.678 230.816 104.777 231.041 105.896C231.179 106.576 231.33 107.261 231.458 107.958C231.569 108.563 231.666 109.175 231.771 109.792C231.984 111.05 232.198 112.333 232.385 113.646C232.458 114.155 232.514 114.67 232.583 115.188C233.031 118.566 233.416 122.117 233.708 125.854C234.011 129.73 234.22 133.803 234.375 138.083C234.382 138.295 234.399 138.506 234.406 138.719C234.426 139.305 234.451 139.895 234.468 140.49C234.602 144.989 234.666 149.712 234.666 154.667C234.666 215.361 225.482 241.156 187.312 250.865C183.994 251.709 180.456 252.428 176.687 253.042C163.489 255.189 147.446 256 128 256C39.1108 256 21.333 239.111 21.333 154.667C21.333 149.712 21.3977 144.99 21.5309 140.49C21.5485 139.895 21.5733 139.305 21.5934 138.719C21.6292 137.675 21.6744 136.644 21.7184 135.625C21.7632 134.589 21.7898 133.564 21.8434 132.552C22.1747 126.303 22.7084 120.528 23.4163 115.188C23.4868 114.656 23.5397 114.127 23.6143 113.604C23.7994 112.306 24.0176 111.037 24.2288 109.792C24.3334 109.175 24.4302 108.563 24.5413 107.958C24.6978 107.108 24.8716 106.273 25.0413 105.448C25.224 104.56 25.3949 103.682 25.5934 102.823C25.8087 101.891 26.0569 100.982 26.2913 100.083C26.4857 99.3377 26.6667 98.5983 26.8747 97.875C27.0881 97.1326 27.3237 96.4068 27.5518 95.6875C27.808 94.8795 28.0579 94.0813 28.333 93.3021C28.5805 92.601 28.851 91.9177 29.1143 91.2396C29.4156 90.4632 29.7085 89.6947 30.0309 88.9479C30.5186 87.8184 31.0248 86.7196 31.5622 85.6563C31.6668 85.4491 31.7785 85.2463 31.8851 85.0417C32.0234 84.7762 32.1602 84.5113 32.3018 84.25C32.8946 83.1554 33.5148 82.0963 34.1663 81.0729C34.2892 80.88 34.4164 80.6904 34.5413 80.5C34.6377 80.3532 34.7354 80.2078 34.833 80.0625L35.5101 79.0729C35.611 78.9305 35.71 78.7868 35.8122 78.6458C35.9931 78.3963 36.1792 78.1513 36.3643 77.9063C36.563 77.6431 36.7649 77.383 36.9684 77.125C37.2242 76.8008 37.4862 76.4828 37.7497 76.1667C37.9029 75.9828 38.0521 75.7957 38.208 75.6146C38.518 75.2544 38.8355 74.9016 39.1559 74.5521C39.2938 74.4017 39.4328 74.2526 39.5726 74.1042C40.3555 73.2731 41.175 72.4791 42.0205 71.7083C42.133 71.6058 42.2402 71.4973 42.3538 71.3958C41.8713 12.8604 46.3487 1.96681e-09 128 0ZM128 106.667C122.109 106.667 117.333 111.442 117.333 117.333V138.667H95.9997C90.1086 138.667 85.333 143.442 85.333 149.333C85.333 155.224 90.1086 160 95.9997 160H117.333V181.333C117.333 187.224 122.109 192 128 192C133.891 192 138.666 187.224 138.666 181.333V160H160C165.891 160 170.666 155.224 170.666 149.333C170.666 143.442 165.891 138.667 160 138.667H138.666V117.333C138.666 111.442 133.891 106.667 128 106.667ZM128 21.3333C107.857 21.3333 93.8102 22.1504 83.8434 23.9271C73.8603 25.7071 70.2979 28.0709 68.9476 29.3333C67.925 30.2895 66.2481 32.3544 65.0726 39.1667C64.1681 44.411 63.7958 51.0376 63.6976 59.875C67.0914 58.8074 70.7447 57.9114 74.6663 57.1354V53.3333C74.6663 47.4423 79.442 42.6667 85.333 42.6667C91.224 42.6667 95.9997 47.4423 95.9997 53.3333V54.375C102.55 53.8728 109.646 53.5643 117.333 53.4271V53.3333C117.333 47.4423 122.109 42.6667 128 42.6667C133.891 42.6667 138.666 47.4423 138.666 53.3333V53.4271C146.353 53.5643 153.45 53.8728 160 54.375V53.3333C160 47.4423 164.775 42.6667 170.666 42.6667C176.557 42.6667 181.333 47.4423 181.333 53.3333V57.1354C185.247 57.91 188.893 58.81 192.281 59.875C192.183 51.0377 191.82 44.4116 190.916 39.1667C189.741 32.351 188.063 30.2884 187.041 29.3333C185.692 28.0719 182.129 25.7068 172.146 23.9271C163.426 22.3731 151.586 21.5555 135.271 21.375L128 21.3333Z" fill="black"/>
</svg>
