<svg width="256" height="256" viewBox="0 0 256 256" fill="none" xmlns="http://www.w3.org/2000/svg">
<path fill-rule="evenodd" clip-rule="evenodd" d="M126.635 0C193.198 0.000590887 215.424 11.6973 221.021 64.2708C248.651 76.1393 256 99.6593 256 144C256 193.526 246.827 217.055 210.469 227.406C202.237 249.951 175.906 256 128 256L121.646 255.958C77.7563 255.417 53.4055 248.929 45.5417 227.406C9.17585 217.056 0 193.53 0 144C0 101.255 6.82775 77.8551 32.0729 65.5938C37.4384 11.8891 59.5132 0 126.635 0ZM71.3021 170.667C69.2235 176.11 67.3883 182.638 65.9479 190.51C61.0843 217.097 66.3276 223.161 69.5938 225.656C72.4768 227.859 77.8967 230.351 88.0521 232.125C98.0993 233.88 111.16 234.667 128 234.667C144.84 234.667 157.901 233.88 167.948 232.125C178.103 230.351 183.523 227.859 186.406 225.656C189.672 223.161 194.916 217.097 190.052 190.51C188.611 182.636 186.769 176.11 184.688 170.667H71.3021ZM181.333 96C175.442 96 170.667 100.776 170.667 106.667C170.667 112.558 175.442 117.333 181.333 117.333H202.667C208.558 117.333 213.333 112.558 213.333 106.667C213.333 100.776 208.558 96 202.667 96H181.333ZM126.635 21.3333C107.09 21.3333 93.0027 22.3989 82.625 24.7604C72.5569 27.0526 67.3585 30.2651 64.125 33.6771C60.797 37.1906 57.5664 43.0146 55.2917 54.1458C55.0131 55.5093 54.7421 56.9278 54.5 58.4063C72.7254 54.6538 96.683 53.3333 128 53.3333C157.701 53.3333 180.785 54.5114 198.635 57.8333C198.425 56.5616 198.221 55.3305 197.979 54.1458C195.705 43.0166 192.473 37.191 189.146 33.6771C185.913 30.2647 180.713 27.0531 170.646 24.7604C160.269 22.3983 146.181 21.3335 126.635 21.3333Z" fill="black"/>
</svg>
