<svg width="256" height="256" viewBox="0 0 256 256" fill="none" xmlns="http://www.w3.org/2000/svg">
<path d="M111.239 0C133.37 0.000664243 151.697 16.268 154.916 37.5C173.429 40.3158 188.331 45.9109 199.26 56.8333C210.187 67.7556 215.775 82.646 218.594 101.146C239.776 104.408 256 122.717 256 144.813C255.998 166.778 239.959 184.98 218.958 188.396C216.321 207.696 210.89 223.193 199.937 234.542C187.25 247.686 169.026 253.349 145.844 255.708C142.842 256.014 139.853 255.033 137.614 253.01C135.377 250.989 134.095 248.119 134.094 245.104V234.052C134.093 221.443 123.867 211.209 111.239 211.208C98.6113 211.208 88.3857 221.442 88.3852 234.052V245.333C88.3852 248.329 87.1171 251.188 84.906 253.208C82.6961 255.227 79.741 256.226 76.7602 255.958C52.7287 253.793 33.8668 248.341 20.7498 235.208C7.63478 222.076 2.19679 203.2 0.0414284 179.156C-0.225021 176.176 0.772826 173.219 2.79143 171.01C4.81217 168.8 7.67186 167.542 10.6664 167.542H21.8435C34.4708 167.54 44.6977 157.307 44.6977 144.698C44.6974 132.089 34.4706 121.855 21.8435 121.854H10.9268C7.90871 121.854 5.03265 120.574 3.01018 118.333C0.988121 116.093 0.00490342 113.106 0.312262 110.104C2.6821 86.973 8.36013 68.7862 21.5102 56.125C32.853 45.206 48.333 39.7702 67.6039 37.1354C70.9763 16.0807 89.234 1.80295e-05 111.239 0Z" fill="black"/>
</svg>
