<svg width="256" height="256" viewBox="0 0 256 256" fill="none" xmlns="http://www.w3.org/2000/svg">
<path d="M128.003 192.012C133.892 192.014 138.669 196.789 138.669 202.679C138.667 208.567 133.891 213.344 128.003 213.345C122.113 213.345 117.339 208.568 117.336 202.679C117.336 196.788 122.112 192.012 128.003 192.012Z" fill="black"/>
<path d="M117.597 43.6997C127.359 41.7581 137.479 42.5893 146.794 46.0955C156.107 49.6023 164.257 55.6487 170.315 63.5434C176.373 71.4394 180.1 80.8791 181.076 90.783C182.05 100.688 180.238 110.68 175.836 119.606C171.434 128.53 164.62 136.049 156.169 141.304C150.774 144.659 144.84 146.981 138.669 148.241V160.012C138.667 165.9 133.891 170.677 128.003 170.679C122.113 170.679 117.339 165.901 117.336 160.012V138.679C117.336 133.156 121.53 128.611 126.909 128.064C127.268 128.028 127.634 128.012 128.003 128.012L130.232 127.929C135.422 127.566 140.461 125.948 144.899 123.189C149.969 120.036 154.059 115.522 156.701 110.168C159.341 104.814 160.431 98.8186 159.847 92.8767C159.261 86.9348 157.022 81.2705 153.388 76.533C149.753 71.7958 144.862 68.1683 139.274 66.0642C133.686 63.9612 127.619 63.4629 121.763 64.6267C115.905 65.792 110.487 68.5751 106.128 72.658C101.769 76.7406 98.6421 81.9625 97.0965 87.7309C95.5709 93.4159 89.7202 96.7912 84.034 95.2726C78.3459 93.7485 74.9617 87.8983 76.4819 82.2101C79.0582 72.5952 84.2795 63.8897 91.5444 57.0851C98.8096 50.2807 107.834 45.6417 117.597 43.6997Z" fill="black"/>
</svg>
