<svg width="256" height="256" viewBox="0 0 256 256" fill="none" xmlns="http://www.w3.org/2000/svg">
<path fill-rule="evenodd" clip-rule="evenodd" d="M128 0C234.667 0 256 21.3333 256 128C256 234.667 234.667 256 128 256C21.3333 256 0 234.667 0 128C0 21.3333 21.3333 6.78218e-07 128 0ZM128 192C122.109 192 117.333 196.776 117.333 202.667C117.333 208.558 122.109 213.333 128 213.333C133.891 213.333 138.667 208.558 138.667 202.667C138.667 196.776 133.891 192 128 192ZM146.792 46.0833C137.475 42.5769 127.357 41.7455 117.594 43.6875C107.831 45.6296 98.8068 50.2685 91.5417 57.0729C84.2763 63.8777 79.0556 72.5826 76.4792 82.1979C74.9562 87.8874 78.3418 93.7359 84.0313 95.2604C89.7201 96.7821 95.5694 93.4075 97.0938 87.7188C98.6395 81.9499 101.766 76.7286 106.125 72.6458C110.484 68.563 115.903 65.7798 121.76 64.6146C127.617 63.4502 133.682 63.9488 139.271 66.0521C144.861 68.1559 149.749 71.7825 153.385 76.5208C157.021 81.2593 159.258 86.9207 159.844 92.8646C160.429 98.8082 159.339 104.8 156.698 110.156C154.056 115.512 149.967 120.024 144.896 123.177C139.824 126.33 133.972 128 128 128C122.109 128 117.333 132.776 117.333 138.667V160C117.333 165.891 122.109 170.667 128 170.667C133.891 170.667 138.667 165.891 138.667 160V148.24C144.838 146.98 150.77 144.647 156.167 141.292C164.618 136.036 171.431 128.519 175.833 119.594C180.236 110.666 182.049 100.677 181.073 90.7708C180.097 80.865 176.372 71.4282 170.313 63.5313C164.253 55.6353 156.106 49.5899 146.792 46.0833Z" fill="black"/>
</svg>
