<svg width="256" height="256" viewBox="0 0 256 256" fill="none" xmlns="http://www.w3.org/2000/svg">
<path d="M85.3333 138.667C97.1154 138.667 106.667 148.218 106.667 160C106.667 171.782 97.1154 181.333 85.3333 181.333C73.5513 181.333 64 171.782 64 160C64 148.218 73.5513 138.667 85.3333 138.667Z" fill="black"/>
<path fill-rule="evenodd" clip-rule="evenodd" d="M42.6667 0C48.5577 0 53.3333 4.77563 53.3333 10.6667V69.6354C53.2149 69.6623 53.0971 69.6916 52.9792 69.7188C71.3866 65.4831 95.8029 64 128 64C234.667 64 256 80 256 160C256 240 234.667 256 128 256C21.3333 256 0 240 0 160C0 114.176 7.00381 89.3584 33.0313 76.5104C32.6854 76.681 32.3391 76.8459 32 77.0208V10.6667C32 4.77563 36.7756 0 42.6667 0ZM85.3333 117.333C61.7692 117.333 42.6667 136.436 42.6667 160C42.6667 183.564 61.7692 202.667 85.3333 202.667C108.897 202.667 128 183.564 128 160C128 136.436 108.897 117.333 85.3333 117.333ZM170.521 126.25C169.553 120.44 164.06 116.513 158.25 117.479C152.44 118.447 148.513 123.94 149.479 129.75C152.817 149.776 152.817 170.224 149.479 190.25C148.513 196.06 152.44 201.553 158.25 202.521C164.06 203.487 169.553 199.56 170.521 193.75C174.245 171.404 174.245 148.596 170.521 126.25ZM213.188 126.25C212.219 120.44 206.726 116.513 200.917 117.479C195.107 118.447 191.179 123.94 192.146 129.75C195.484 149.776 195.484 170.224 192.146 190.25C191.179 196.06 195.107 201.553 200.917 202.521C206.726 203.487 212.219 199.56 213.188 193.75C216.911 171.404 216.911 148.596 213.188 126.25Z" fill="black"/>
</svg>
