<svg width="256" height="256" viewBox="0 0 256 256" fill="none" xmlns="http://www.w3.org/2000/svg">
<path fill-rule="evenodd" clip-rule="evenodd" d="M128 0C234.667 0 256 21.3333 256 128C256 234.667 234.667 256 128 256C21.3333 256 0 234.667 0 128C0 21.3333 21.3333 0 128 0ZM92.875 67.125C88.7095 62.9599 81.9571 62.9598 77.7917 67.125C65.0413 79.8753 55.0097 95.0811 48.3125 111.823L43.4271 124.042C42.4119 126.582 42.412 129.418 43.4271 131.958L48.3125 144.177C55.0096 160.919 65.0414 176.125 77.7917 188.875C81.9573 193.041 88.7094 193.041 92.875 188.875C97.0403 184.709 97.0405 177.957 92.875 173.792C82.1672 163.084 73.7491 150.31 68.125 136.25L64.8333 128L68.125 119.75C73.7492 105.69 82.1671 92.9162 92.875 82.2083C97.0403 78.0427 97.0405 71.2905 92.875 67.125ZM158.375 69.0104C155.252 64.0188 148.671 62.504 143.677 65.625C123.277 78.3759 107.467 97.2891 98.5313 119.625L96.8438 123.823C96.6913 124.181 96.5612 124.551 96.4479 124.927C95.9416 126.611 95.8638 128.39 96.2083 130.104C96.312 130.623 96.4595 131.126 96.6354 131.615C96.6766 131.729 96.7152 131.845 96.7604 131.958L98.5313 136.375C107.466 158.711 123.278 177.624 143.677 190.375C148.671 193.496 155.252 191.982 158.375 186.99C161.496 181.995 159.982 175.415 154.99 172.292C141.569 163.904 130.593 152.225 123.052 138.448C132.662 138.233 141.466 137.935 148.813 137.833C160.808 137.667 169.566 138.058 176.083 139.688C182.147 141.204 185.414 143.57 187.583 147.094C190.067 151.133 192 158.142 192 170.677C192.005 176.564 196.779 181.344 202.667 181.344C208.555 181.344 213.329 176.564 213.333 170.677C213.333 156.551 211.263 144.878 205.75 135.917C199.92 126.442 191.182 121.473 181.25 118.99C171.769 116.62 160.523 116.344 148.521 116.51C140.521 116.622 132.315 116.906 123.292 117.115C130.825 103.528 141.711 92.0074 154.99 83.7083C159.982 80.5851 161.496 74.0047 158.375 69.0104Z" fill="black"/>
</svg>
