<svg width="256" height="256" viewBox="0 0 256 256" fill="none" xmlns="http://www.w3.org/2000/svg">
<path fill-rule="evenodd" clip-rule="evenodd" d="M128 0C234.667 0 256 21.3333 256 128C256 234.667 234.667 256 128 256C21.3333 256 0 234.667 0 128C0 21.3333 21.3333 0 128 0ZM115.708 69.0104C112.585 64.0183 106.005 62.5039 101.01 65.625C80.6106 78.376 64.7999 97.2889 55.8646 119.625L54.0938 124.042C53.0785 126.582 53.0787 129.418 54.0938 131.958L55.8646 136.375C64.7998 158.711 80.6105 177.624 101.01 190.375C106.005 193.496 112.585 191.982 115.708 186.99C118.829 181.995 117.315 175.415 112.323 172.292C98.9524 163.935 88.007 152.314 80.4688 138.604C97.3427 138.459 112.566 137.766 125.365 137.417C139.983 137.018 151.244 137.129 159.927 138.719C168.396 140.27 173.024 142.98 175.875 146.719C178.904 150.693 181.333 157.662 181.333 170.667C181.333 176.558 186.109 181.333 192 181.333C197.891 181.333 202.667 176.558 202.667 170.667C202.667 155.531 199.932 143.093 192.844 133.792C185.576 124.257 175.127 119.82 163.771 117.74C152.626 115.699 139.299 115.698 124.792 116.094C111.479 116.457 96.9297 117.126 80.5313 117.271C88.0673 103.615 98.9924 92.0399 112.323 83.7083C117.315 80.5851 118.83 74.0046 115.708 69.0104Z" fill="black"/>
</svg>
