<svg width="256" height="256" viewBox="0 0 256 256" fill="none" xmlns="http://www.w3.org/2000/svg">
<path d="M152.458 3.12419C156.624 -1.0414 163.376 -1.0414 167.542 3.12419C171.707 7.28979 171.707 14.0419 167.542 18.2075L142.917 42.8221C145.406 42.8706 147.844 42.9152 150.229 42.9888C156.105 113.76 156.104 184.894 150.229 255.666C143.266 255.881 135.865 255.999 128 255.999C21.3333 255.999 0 238.221 0 149.333C0 64.7616 19.3111 44.5643 113.052 42.8013L88.4583 18.2075C84.2927 14.0419 84.2927 7.28979 88.4583 3.12419C92.6239 -1.0414 99.3761 -1.0414 103.542 3.12419L128 27.5825L152.458 3.12419Z" fill="black"/>
<path fill-rule="evenodd" clip-rule="evenodd" d="M171.74 44.1554C240.775 49.903 256 74.2403 256 149.333C256 224.424 240.774 248.752 171.74 254.499C177.392 184.499 177.392 114.155 171.74 44.1554ZM213.333 181.333C207.442 181.333 202.667 186.108 202.667 191.999C202.667 197.89 207.442 202.666 213.333 202.666C219.224 202.666 224 197.89 224 191.999C224 186.108 219.224 181.333 213.333 181.333ZM213.333 138.666C207.442 138.666 202.667 143.441 202.667 149.333C202.667 155.224 207.442 159.999 213.333 159.999C219.224 159.999 224 155.224 224 149.333C224 143.441 219.224 138.666 213.333 138.666ZM213.333 95.9992C207.442 95.9992 202.667 100.775 202.667 106.666C202.667 112.557 207.442 117.333 213.333 117.333C219.224 117.333 224 112.557 224 106.666C224 100.775 219.224 95.9992 213.333 95.9992Z" fill="black"/>
</svg>
