<svg width="256" height="256" viewBox="0 0 256 256" fill="none" xmlns="http://www.w3.org/2000/svg">
<path fill-rule="evenodd" clip-rule="evenodd" d="M127.999 0C156.47 1.28587e-06 201.788 16.892 211.447 95.7396C217.697 98.2838 223.872 101.024 229.937 104.01L236.062 107.021C241.893 109.894 246.02 115.363 247.177 121.76C253.025 154.149 253.633 187.272 248.979 219.854L247.427 230.677C246.397 237.884 238.605 241.964 232.093 238.708L207.499 226.417C205.631 225.482 203.785 224.505 201.937 223.531C190.445 249.09 168.432 256 127.999 256C87.558 256 65.5313 249.093 54.0411 223.521C52.1978 224.493 50.3642 225.484 48.4994 226.417L23.9057 238.708C17.3938 241.964 9.60207 237.884 8.57236 230.677L7.03069 219.854C2.3762 187.272 2.9847 154.15 8.83278 121.76C9.9895 115.362 14.1138 109.893 19.9474 107.021L26.0724 104.01C32.1322 101.027 38.2984 98.2836 44.5411 95.7396C54.1995 16.8915 99.5286 0.000356992 127.999 0ZM35.4994 123.146L35.4786 123.156L29.7494 125.969C24.6053 154.703 23.901 184.052 27.6349 212.99L38.9578 207.333C41.8993 205.863 44.8093 204.331 47.6974 202.76C43.9734 184.383 42.6661 160.045 42.6661 128C42.6661 125.169 42.7174 122.399 42.7911 119.688C40.3438 120.801 37.9143 121.957 35.4994 123.146ZM213.333 128C213.333 160.046 212.016 184.383 208.291 202.76C211.182 204.332 214.097 205.861 217.041 207.333L228.364 212.99C232.098 184.051 231.394 154.704 226.249 125.969L220.531 123.156L220.51 123.146C218.09 121.954 215.65 120.804 213.197 119.688C213.271 122.399 213.333 125.169 213.333 128ZM127.999 42.6667C110.327 42.6671 95.9994 56.9938 95.9994 74.6667C95.9994 92.3395 110.327 106.666 127.999 106.667C145.673 106.667 159.999 92.3398 159.999 74.6667C159.999 56.9936 145.673 42.6667 127.999 42.6667Z" fill="black"/>
</svg>
