<svg width="256" height="256" viewBox="0 0 256 256" fill="none" xmlns="http://www.w3.org/2000/svg">
<path fill-rule="evenodd" clip-rule="evenodd" d="M237.792 35.1139C241.957 30.9497 248.71 30.9497 252.875 35.1139C257.04 39.2792 257.04 46.0316 252.875 50.1973L193.438 109.624C244.069 116.093 256 134.79 256 181.322C256 243.544 234.667 255.989 128 255.989C21.3333 255.989 5.8133e-07 243.544 0 181.322C0.000285158 134.794 11.9296 116.094 62.5521 109.624L3.125 50.1973C-1.03955 46.0316 -1.04025 39.2792 3.125 35.1139C7.29033 30.9497 14.043 30.9497 18.2083 35.1139L90.4688 107.374C101.622 106.868 114.085 106.656 128 106.656C141.911 106.656 154.371 106.868 165.521 107.374L237.792 35.1139ZM128 159.989C92.4456 159.989 85.3338 163.546 85.3333 181.322C85.3333 199.1 92.4444 202.656 128 202.656C163.556 202.656 170.667 199.1 170.667 181.322C170.666 163.546 163.554 159.989 128 159.989Z" fill="black"/>
<path d="M80.5625 65.1139C110.424 50.1834 145.576 50.1834 175.438 65.1139C180.706 67.7482 182.842 74.1576 180.208 79.4264C177.574 84.6955 171.165 86.8318 165.896 84.1973C142.04 72.2697 113.96 72.2696 90.1042 84.1973C84.8351 86.8318 78.4262 84.6955 75.7917 79.4264C73.1584 74.1576 75.294 67.7482 80.5625 65.1139Z" fill="black"/>
<path d="M60.625 21.8743C104.357 7.29709 151.643 7.2971 195.375 21.8743C200.961 23.7383 203.976 29.7768 202.115 35.3639C200.25 40.9507 194.213 43.9661 188.625 42.1035C149.274 28.9873 106.726 28.9873 67.375 42.1035C61.7873 43.9661 55.7495 40.9507 53.8854 35.3639C52.0241 29.7768 55.0389 23.7383 60.625 21.8743Z" fill="black"/>
</svg>
