<svg width="256" height="256" viewBox="0 0 256 256" fill="none" xmlns="http://www.w3.org/2000/svg">
<path fill-rule="evenodd" clip-rule="evenodd" d="M237.792 35.125C241.957 30.9594 248.709 30.9594 252.875 35.125C257.041 39.2906 257.041 46.0427 252.875 50.2083L193.438 109.635C244.069 116.104 256 134.8 256 181.333C256 243.556 234.667 256 128 256C21.3333 256 5.8133e-07 243.556 0 181.333C0 134.803 11.9292 116.105 62.5521 109.635L3.125 50.2083C-1.04058 46.0427 -1.04058 39.2906 3.125 35.125C7.29059 30.9594 14.0427 30.9594 18.2083 35.125L90.4688 107.385C101.622 106.879 114.085 106.667 128 106.667C141.911 106.667 154.371 106.879 165.521 107.385L237.792 35.125ZM53.3333 170.667C47.4423 170.667 42.6667 175.442 42.6667 181.333C42.6667 187.224 47.4423 192 53.3333 192H202.667C208.558 192 213.333 187.224 213.333 181.333C213.333 175.442 208.558 170.667 202.667 170.667H53.3333Z" fill="black"/>
<path d="M128 42.6667C135.003 42.6667 141.936 44.0495 148.406 46.7292C154.877 49.4094 160.756 53.3392 165.708 58.2917C169.874 62.4573 169.874 69.2094 165.708 73.375C161.542 77.5374 154.79 77.5395 150.625 73.375C147.655 70.4046 144.131 68.0456 140.25 66.4375C136.368 64.8294 132.202 64 128 64C123.798 64 119.632 64.8294 115.75 66.4375C111.869 68.0456 108.345 70.4046 105.375 73.375C101.21 77.5395 94.4575 77.5374 90.2917 73.375C86.1261 69.2094 86.1261 62.4573 90.2917 58.2917C95.2441 53.3392 101.123 49.4094 107.594 46.7292C114.064 44.0495 120.997 42.6667 128 42.6667Z" fill="black"/>
<path d="M128 0C140.607 -2.48515e-10 153.092 2.48806 164.74 7.3125C176.385 12.1369 186.972 19.201 195.885 28.1146C200.05 32.2789 200.047 39.032 195.885 43.1979C191.72 47.3635 184.968 47.3635 180.802 43.1979C173.869 36.2647 165.632 30.7732 156.573 27.0208C147.514 23.2685 137.805 21.3333 128 21.3333C118.195 21.3333 108.486 23.2685 99.4271 27.0208C90.3684 30.7732 82.1312 36.2647 75.1979 43.1979C71.0323 47.3635 64.2802 47.3635 60.1146 43.1979C55.953 39.032 55.9503 32.2789 60.1146 28.1146C69.0281 19.201 79.6145 12.1369 91.2604 7.3125C102.908 2.48805 115.393 5.5322e-06 128 0Z" fill="black"/>
</svg>
