<svg width="256" height="256" viewBox="0 0 256 256" fill="none" xmlns="http://www.w3.org/2000/svg">
<path d="M96 213.333C107.782 213.333 117.333 222.885 117.333 234.667C117.333 246.449 107.782 256 96 256C84.2179 256 74.6667 246.449 74.6667 234.667C74.6667 222.885 84.2179 213.333 96 213.333Z" fill="black"/>
<path d="M181.333 213.333C193.115 213.333 202.667 222.885 202.667 234.667C202.667 246.449 193.115 256 181.333 256C169.551 256 160 246.449 160 234.667C160 222.885 169.551 213.333 181.333 213.333Z" fill="black"/>
<path fill-rule="evenodd" clip-rule="evenodd" d="M10.6667 0C33.2649 0 52.565 14.061 60.3333 33.9063C74.8359 24.6871 101.243 21.3333 149.333 21.3333C255.999 21.3333 256 37.8178 256 98.2604C256 158.705 232.296 202.667 149.333 202.667C66.3704 202.667 42.6667 158.705 42.6667 98.2604V53.3333C42.6667 35.6602 28.3398 21.3333 10.6667 21.3333C4.77563 21.3333 0 16.5577 0 10.6667C0 4.77563 4.77563 0 10.6667 0ZM106.667 85.3333C100.776 85.3333 96 90.109 96 96V128C96 133.891 100.776 138.667 106.667 138.667C112.558 138.667 117.333 133.891 117.333 128V96C117.333 90.109 112.558 85.3333 106.667 85.3333ZM149.333 85.3333C143.442 85.3333 138.667 90.109 138.667 96V128C138.667 133.891 143.442 138.667 149.333 138.667C155.224 138.667 160 133.891 160 128V96C160 90.109 155.224 85.3333 149.333 85.3333ZM192 85.3333C186.109 85.3333 181.333 90.109 181.333 96V128C181.333 133.891 186.109 138.667 192 138.667C197.891 138.667 202.667 133.891 202.667 128V96C202.667 90.109 197.891 85.3333 192 85.3333Z" fill="black"/>
</svg>
