<svg width="256" height="256" viewBox="0 0 256 256" fill="none" xmlns="http://www.w3.org/2000/svg">
<path d="M42.9203 29.6994C44.1996 23.9514 49.9006 20.319 55.6494 21.5952C61.3958 22.8746 65.0276 28.577 63.7536 34.3244C58.4607 58.1425 55.2104 82.301 54.0036 106.533C94.172 78.2261 137.526 54.6841 183.191 36.4181L189.962 33.7098L191.358 33.2411C197.912 31.4499 204.779 35.168 206.858 41.6369L207.222 43.064C218.437 99.1388 218.437 156.885 207.222 212.96C205.656 220.785 197.373 225.275 189.962 222.314L183.191 219.606C137.524 201.339 94.1739 177.789 54.0036 149.481C55.2097 173.717 58.4598 197.877 63.7536 221.699C65.0291 227.447 61.3961 233.149 55.6494 234.429C49.8998 235.705 44.1985 232.074 42.9203 226.324C28.5319 161.574 28.5317 94.45 42.9203 29.6994Z" fill="black"/>
</svg>
