<svg width="256" height="256" viewBox="0 0 256 256" fill="none" xmlns="http://www.w3.org/2000/svg">
<path d="M189.691 21.5828C195.439 20.3089 201.142 23.9391 202.42 29.687C216.809 94.437 216.808 161.562 202.42 226.312C201.142 232.06 195.44 235.69 189.691 234.416C183.941 233.138 180.311 227.437 181.587 221.687C186.881 197.865 190.11 173.704 191.316 149.468C151.149 177.774 107.813 201.328 62.1495 219.593L55.3786 222.302C47.9673 225.266 39.685 220.774 38.1182 212.947C26.9034 156.872 26.9033 99.127 38.1182 43.0515L38.4828 41.6245C40.5627 35.1548 47.4276 31.4342 53.9828 33.2286L55.3786 33.6974L62.1495 36.4057C107.81 54.6702 151.151 78.217 191.316 106.52C190.109 82.2889 186.88 58.1297 181.587 34.312C180.311 28.5625 183.942 22.8604 189.691 21.5828Z" fill="black"/>
</svg>
