<svg width="256" height="256" viewBox="0 0 256 256" fill="none" xmlns="http://www.w3.org/2000/svg">
<path d="M180.271 64.0521C186.131 63.4662 191.36 67.7441 191.948 73.6042C195.565 109.775 195.565 146.225 191.948 182.396C191.36 188.256 186.132 192.534 180.271 191.948C174.41 191.361 170.133 186.132 170.719 180.271C171.947 167.984 172.719 155.663 173.073 143.333C147.178 161.808 119.159 177.136 89.6042 188.958L85.375 190.646C78.4203 193.428 70.6461 189.22 69.1771 181.875C62.0643 146.311 62.0645 109.689 69.1771 74.125L69.5313 72.7813C71.6228 66.2793 78.8563 62.7467 85.375 65.3542L89.6042 67.0417C119.157 78.8628 147.18 94.1828 173.073 112.656C172.718 100.33 171.947 88.0124 170.719 75.7292C170.134 69.8685 174.41 64.6387 180.271 64.0521Z" fill="black"/>
<path fill-rule="evenodd" clip-rule="evenodd" d="M128 0C234.667 0 256 21.3333 256 128C256 234.667 234.667 256 128 256C21.3333 256 0 234.667 0 128C0 21.3333 21.3333 0 128 0ZM128 21.3333C101.757 21.3333 82.2421 22.6747 67.5 25.8542C52.9976 28.9821 44.5872 33.5795 39.0833 39.0833C33.5795 44.5872 28.9821 52.9976 25.8542 67.5C22.6747 82.2421 21.3333 101.757 21.3333 128C21.3333 154.243 22.6747 173.758 25.8542 188.5C28.9821 203.002 33.5795 211.413 39.0833 216.917C44.5872 222.421 52.9976 227.018 67.5 230.146C82.2421 233.325 101.757 234.667 128 234.667C154.243 234.667 173.758 233.325 188.5 230.146C203.002 227.018 211.413 222.421 216.917 216.917C222.421 211.413 227.018 203.002 230.146 188.5C233.325 173.758 234.667 154.243 234.667 128C234.667 101.757 233.325 82.2421 230.146 67.5C227.018 52.9976 222.421 44.5872 216.917 39.0833C211.413 33.5795 203.002 28.9821 188.5 25.8542C173.758 22.6747 154.243 21.3333 128 21.3333Z" fill="black"/>
</svg>
