<svg width="256" height="256" viewBox="0 0 256 256" fill="none" xmlns="http://www.w3.org/2000/svg">
<path fill-rule="evenodd" clip-rule="evenodd" d="M128 0C234.667 0 256 21.3333 256 128C256 234.667 234.667 256 128 256C21.3333 256 0 234.667 0 128C0 21.3333 21.3333 0 128 0ZM184.708 149.885C179.124 148.024 173.086 151.034 171.219 156.615C171.179 156.718 171.103 156.911 170.99 157.177C170.742 157.754 170.315 158.675 169.677 159.823C168.393 162.134 166.293 165.29 163.125 168.458C156.991 174.593 146.319 181.333 128 181.333C109.681 181.333 99.0093 174.593 92.875 168.458C89.7071 165.29 87.607 162.134 86.3229 159.823C85.6849 158.675 85.2577 157.754 85.0104 157.177C84.8965 156.911 84.8208 156.718 84.7813 156.615C82.9135 151.034 76.8762 148.024 71.2917 149.885C65.7049 151.75 62.6895 157.787 64.5521 163.375L74.6667 160C64.5474 163.373 64.55 163.369 64.5521 163.375V163.396L64.5833 163.49C64.5995 163.537 64.6237 163.594 64.6458 163.656C64.6906 163.782 64.7529 163.94 64.8229 164.125C64.9633 164.497 65.155 164.987 65.4063 165.573C65.909 166.746 66.6498 168.328 67.6771 170.177C69.7264 173.866 72.9604 178.71 77.7917 183.542C87.6574 193.407 103.653 202.667 128 202.667C152.347 202.667 168.343 193.407 178.208 183.542C183.04 178.71 186.274 173.866 188.323 170.177C189.35 168.328 190.091 166.746 190.594 165.573C190.845 164.987 191.037 164.497 191.177 164.125C191.247 163.94 191.309 163.782 191.354 163.656C191.376 163.594 191.4 163.537 191.417 163.49L191.448 163.396C191.45 163.39 191.453 163.373 181.333 160L191.448 163.375C193.31 157.787 190.295 151.75 184.708 149.885ZM80 53.3333C66.6667 53.3333 64 59.5556 64 90.6667L64.0313 96.2083C64.35 120.778 67.0951 127.183 77.625 127.927L80 128C92.5007 128 95.6273 122.531 95.9688 96.2083L96 90.6667C96 59.5556 93.3333 53.3333 80 53.3333ZM176 53.3333C162.667 53.3333 160 59.5556 160 90.6667L160.031 96.2083C160.35 120.778 163.095 127.183 173.625 127.927L176 128C188.501 128 191.627 122.531 191.969 96.2083L192 90.6667C192 59.5556 189.333 53.3333 176 53.3333Z" fill="black"/>
</svg>
