<svg width="256" height="256" viewBox="0 0 256 256" fill="none" xmlns="http://www.w3.org/2000/svg">
<path d="M123.698 21.332C172.096 21.332 172.096 234.665 123.698 234.665C102.443 234.664 79.2005 222.392 61.4271 202.634C10.3221 202.225 1.42965e-07 189.207 0 127.999C0 66.7903 10.322 53.7615 61.4271 53.3529C79.1998 33.5983 102.445 21.3335 123.698 21.332Z" fill="black"/>
<path d="M215.917 67.6549C220.082 63.4894 226.845 63.4894 231.01 67.6549C238.934 75.5784 245.212 84.9901 249.5 95.3425C253.788 105.696 256 116.793 256 127.999C256 139.205 253.788 150.302 249.5 160.655C245.212 171.007 238.934 180.419 231.01 188.342C226.845 192.508 220.082 192.508 215.917 188.342C211.752 184.177 211.751 177.414 215.917 173.249C221.86 167.306 226.575 160.253 229.792 152.488C233.008 144.724 234.667 136.403 234.667 127.999C234.667 119.594 233.008 111.274 229.792 103.509C226.575 95.7443 221.86 88.6916 215.917 82.7487C211.751 78.5833 211.752 71.8206 215.917 67.6549Z" fill="black"/>
<path d="M185.75 97.832C189.916 93.6664 196.668 93.6664 200.833 97.832C204.795 101.794 207.939 106.499 210.083 111.676C212.227 116.851 213.333 122.397 213.333 127.999C213.333 133.601 212.227 139.146 210.083 144.322C207.939 149.498 204.795 154.203 200.833 158.165C196.668 162.331 189.916 162.331 185.75 158.165C181.587 154 181.585 147.247 185.75 143.082C187.73 141.102 189.303 138.753 190.375 136.165C191.447 133.577 192 130.8 192 127.999C192 125.197 191.447 122.42 190.375 119.832C189.303 117.245 187.73 114.896 185.75 112.915C181.585 108.751 181.587 101.998 185.75 97.832Z" fill="black"/>
</svg>
