<svg width="256" height="256" viewBox="0 0 256 256" fill="none" xmlns="http://www.w3.org/2000/svg">
<path fill-rule="evenodd" clip-rule="evenodd" d="M128 0.15625C133.137 0.15625 137.91 2.59648 141.49 6.28125C156.991 22.2351 178.664 32.1563 202.667 32.1563C208.534 32.1563 214.261 31.5527 219.792 30.4167C228.5 28.6287 238.181 30.4689 242.365 38.3125C252.732 57.7523 256 86.4209 256 128.156C256 224.352 151.897 251.146 131.458 255.479C129.155 255.967 126.845 255.967 124.542 255.479C104.103 251.146 0 224.352 0 128.156C0 86.4239 3.27143 57.7535 13.6354 38.3125C17.8194 30.4679 27.4987 28.6286 36.2083 30.4167C41.74 31.552 47.4656 32.1563 53.3333 32.1563C77.3315 32.1563 99 22.2313 114.5 6.28125C118.085 2.5941 122.858 0.15625 128 0.15625ZM178.208 77.9479C174.043 73.7823 167.291 73.7823 163.125 77.9479L128 113.073L92.875 77.9479C88.7094 73.7823 81.9573 73.7823 77.7917 77.9479C73.6261 82.1135 73.6261 88.8657 77.7917 93.0313L112.917 128.156L77.7917 163.281C73.6261 167.447 73.6261 174.199 77.7917 178.365C81.9573 182.53 88.7094 182.53 92.875 178.365L128 143.24L163.125 178.365C167.291 182.53 174.043 182.53 178.208 178.365C182.374 174.199 182.374 167.447 178.208 163.281L143.083 128.156L178.208 93.0313C182.374 88.8657 182.374 82.1135 178.208 77.9479Z" fill="black"/>
</svg>
