<svg width="256" height="256" viewBox="0 0 256 256" fill="none" xmlns="http://www.w3.org/2000/svg">
<path d="M207.093 198.239C210.537 194.795 216.129 194.795 219.573 198.239C220.735 199.402 221.639 200.798 222.229 202.333L225.427 210.635C225.655 211.223 226.119 211.69 226.708 211.916L235.01 215.104C236.544 215.694 237.931 216.608 239.093 217.77C242.537 221.214 242.537 226.795 239.093 230.239C237.932 231.4 236.542 232.305 235.01 232.895L226.708 236.093C226.118 236.32 225.654 236.785 225.427 237.375L222.229 245.677C221.638 247.211 220.735 248.608 219.573 249.77C216.129 253.214 210.537 253.214 207.093 249.77C205.931 248.608 205.028 247.211 204.437 245.677L201.25 237.375C201.023 236.784 200.548 236.321 199.958 236.093L191.666 232.895C190.132 232.305 188.736 231.402 187.573 230.239C184.129 226.795 184.129 221.214 187.573 217.77C188.736 216.607 190.131 215.694 191.666 215.104L199.958 211.916C200.548 211.69 201.022 211.224 201.25 210.635L204.437 202.333C205.027 200.799 205.932 199.402 207.093 198.239Z" fill="black"/>
<path d="M101.562 38.5309C110.271 29.8236 124.395 29.8237 133.104 38.5309C136.407 41.8336 138.978 45.7969 140.656 50.1559L152.708 81.4788C154.68 86.6039 158.729 90.6517 163.854 92.6246L195.177 104.677C199.537 106.354 203.499 108.926 206.802 112.229C215.511 120.938 215.51 135.061 206.802 143.77C203.498 147.074 199.537 149.656 195.177 151.333L163.854 163.375C158.728 165.347 154.68 169.405 152.708 174.531L140.656 205.843C138.979 210.203 136.407 214.165 133.104 217.468C124.394 226.178 110.272 226.178 101.562 217.468C98.2593 214.165 95.6873 210.203 94.0101 205.843L81.9581 174.531C79.986 169.405 75.9381 165.347 70.8122 163.375L39.4893 151.333C35.1288 149.656 31.1679 147.074 27.8643 143.77C19.1566 135.061 19.1553 120.938 27.8643 112.229C31.1676 108.926 35.1294 106.354 39.4893 104.677L70.8122 92.6246C75.9368 90.6518 79.9862 86.6039 81.9581 81.4788L94.0101 50.1559C95.6876 45.7968 98.2595 41.8336 101.562 38.5309Z" fill="black"/>
<path d="M207.093 6.23922C210.537 2.79526 216.129 2.79526 219.573 6.23922C220.735 7.4021 221.639 8.79831 222.229 10.333L225.427 18.6351C225.655 19.2229 226.119 19.6899 226.708 19.9163L235.01 23.1038C236.544 23.6943 237.931 24.6084 239.093 25.7705C242.537 29.2144 242.537 34.7953 239.093 38.2392C237.932 39.3998 236.542 40.3053 235.01 40.8955L226.708 44.0934C226.118 44.3203 225.654 44.7851 225.427 45.3746L222.229 53.6767C221.638 55.211 220.735 56.608 219.573 57.7705C216.129 61.2139 210.537 61.2142 207.093 57.7705C205.931 56.6079 205.028 55.211 204.437 53.6767L201.25 45.3746C201.023 44.7842 200.548 44.3205 199.958 44.0934L191.666 40.8955C190.132 40.3051 188.736 39.4017 187.573 38.2392C184.129 34.7955 184.129 29.2145 187.573 25.7705C188.736 24.6073 190.131 23.6944 191.666 23.1038L199.958 19.9163C200.548 19.6895 201.022 19.2241 201.25 18.6351L204.437 10.333C205.027 8.79895 205.932 7.40181 207.093 6.23922Z" fill="black"/>
</svg>
