<svg width="256" height="256" viewBox="0 0 256 256" fill="none" xmlns="http://www.w3.org/2000/svg">
<path fill-rule="evenodd" clip-rule="evenodd" d="M128 0C234.667 0 256 21.3333 256 128C256 234.667 234.667 256 128 256C21.3333 256 0 234.667 0 128C6.78175e-07 21.3333 21.3333 0 128 0ZM186.281 58.6667C175.038 58.6668 163.835 60.0439 152.927 62.7708L146.75 64.3229C141.036 65.7515 137.562 71.5357 138.99 77.25C140.418 82.9643 146.202 86.4376 151.917 85.0104L158.104 83.4688C161.671 82.5771 165.278 81.8727 168.906 81.3229C157.43 124.955 122.756 159.058 78.375 169.5L72.2188 170.948C66.4867 172.299 62.9323 178.048 64.2813 183.781C65.6323 189.513 71.3815 193.068 77.1146 191.719L83.2604 190.271C134.306 178.26 174.385 139.579 188.656 89.8438C189.942 92.299 191.045 94.8541 191.927 97.5L192.552 99.375C194.416 104.962 200.454 107.977 206.042 106.115C211.628 104.25 214.644 98.2127 212.781 92.625L212.167 90.7604C208.546 79.8975 202.44 70.0239 194.344 61.9271C192.258 59.8411 189.429 58.6675 186.479 58.6667H186.281Z" fill="black"/>
</svg>
