<svg width="256" height="256" viewBox="0 0 256 256" fill="none" xmlns="http://www.w3.org/2000/svg">
<path d="M128.001 74.6667C172.444 74.6668 181.334 83.556 181.334 128C181.334 172.443 172.444 181.333 128.001 181.333C83.5569 181.333 74.6678 172.443 74.6676 128C74.6676 83.5556 83.5565 74.6667 128.001 74.6667Z" fill="black"/>
<path fill-rule="evenodd" clip-rule="evenodd" d="M137.751 0.0625C235.978 1.4146 256.001 24.6673 256.001 128L255.938 137.75C254.586 235.977 231.333 256 128.001 256L118.251 255.938C23.1904 254.629 1.37197 232.809 0.0634766 137.75L0.000976562 128C0.000976562 21.3343 21.3353 0 128.001 0L137.751 0.0625ZM128.001 21.3333C101.759 21.3333 82.2429 22.6749 67.501 25.8542C52.9987 28.9821 44.5881 33.5795 39.0843 39.0833C33.5805 44.5872 28.9831 52.9977 25.8551 67.5C22.6758 82.2419 21.3343 101.758 21.3343 128C21.3343 154.243 22.6755 173.758 25.8551 188.5C28.9831 203.002 33.5805 211.413 39.0843 216.917C44.5882 222.42 52.9997 227.018 67.501 230.146C82.2429 233.325 101.759 234.667 128.001 234.667C154.244 234.667 173.759 233.325 188.501 230.146C203.003 227.018 211.414 222.421 216.918 216.917C222.421 211.413 227.019 203.002 230.147 188.5C233.326 173.758 234.668 154.243 234.668 128C234.668 101.758 233.326 82.2419 230.147 67.5C227.019 52.9988 222.421 44.5872 216.918 39.0833C211.414 33.5795 203.003 28.9821 188.501 25.8542C173.759 22.6746 154.244 21.3334 128.001 21.3333Z" fill="black"/>
</svg>
