<svg width="257" height="256" viewBox="0 0 257 256" fill="none" xmlns="http://www.w3.org/2000/svg">
<path fill-rule="evenodd" clip-rule="evenodd" d="M128.888 0C134.779 2.60216e-07 139.554 4.77563 139.554 10.6667V32.1146C206.907 33.5472 223.33 49.9809 224.763 117.333H246.221C252.112 117.333 256.888 122.109 256.888 128C256.888 133.891 252.112 138.667 246.221 138.667H224.763C223.33 206.019 206.907 222.442 139.554 223.875V245.333C139.554 251.224 134.779 256 128.888 256C122.997 256 118.221 251.224 118.221 245.333V223.875C50.8687 222.442 34.4453 206.019 33.0127 138.667H11.5544C5.66332 138.667 0.887695 133.891 0.887695 128C0.887695 122.109 5.66332 117.333 11.5544 117.333H33.0127C34.4453 49.9809 50.8685 33.5472 118.221 32.1146V10.6667C118.221 4.77563 122.997 -1.08559e-08 128.888 0ZM75.5544 138.667H54.3564C54.676 152.873 55.6625 163.768 57.4919 172.25C59.7032 182.502 62.8005 187.746 65.971 190.917C69.1416 194.087 74.3853 197.185 84.6377 199.396C93.1202 201.225 104.015 202.212 118.221 202.531V181.333C118.221 181.246 118.229 181.16 118.231 181.073C86.2867 179.648 77.2273 170.596 75.8044 138.646C75.7211 138.648 75.6381 138.667 75.5544 138.667ZM181.961 138.646C180.537 170.599 171.487 179.65 139.534 181.073C139.536 181.16 139.554 181.246 139.554 181.333V202.531C153.761 202.212 164.655 201.225 173.138 199.396C183.39 197.185 188.634 194.087 191.804 190.917C194.975 187.746 198.072 182.502 200.284 172.25C202.113 163.768 203.099 152.873 203.419 138.667H182.221C182.134 138.667 182.047 138.648 181.961 138.646ZM118.221 53.4583C104.015 53.7779 93.1202 54.7748 84.6377 56.6042C74.3853 58.8155 69.1416 61.9128 65.971 65.0833C62.8005 68.2539 59.7032 73.4976 57.4919 83.75C55.6625 92.2325 54.676 103.127 54.3564 117.333H75.5544C75.638 117.333 75.7212 117.342 75.8044 117.344C77.2288 85.4021 86.2897 76.3411 118.231 74.9167C118.23 74.8335 118.221 74.7503 118.221 74.6667V53.4583ZM139.554 74.6667C139.554 74.7504 139.535 74.8334 139.534 74.9167C171.484 76.3396 180.536 85.399 181.961 117.344C182.047 117.342 182.134 117.333 182.221 117.333H203.419C203.099 103.127 202.113 92.2325 200.284 83.75C198.072 73.4976 194.975 68.2539 191.804 65.0833C188.634 61.9128 183.39 58.8155 173.138 56.6042C164.655 54.7748 153.761 53.7779 139.554 53.4583V74.6667Z" fill="black"/>
</svg>
