<svg width="256" height="256" viewBox="0 0 256 256" fill="none" xmlns="http://www.w3.org/2000/svg">
<path d="M152.458 3.12419C156.624 -1.0414 163.376 -1.0414 167.542 3.12419C171.707 7.28979 171.707 14.0419 167.542 18.2075L153.354 32.3846C238.134 35.1865 256 54.7891 256 127.999C256 183.089 245.881 207.818 204.75 217.885L212.781 241.958C214.644 247.545 211.628 253.583 206.042 255.447C200.454 257.31 194.416 254.294 192.552 248.708L183.49 221.53C168.224 223.297 149.914 223.999 128 223.999C106.081 223.999 87.7678 223.298 72.5 221.53L63.4479 248.708C61.5838 254.294 55.546 257.31 49.9583 255.447C44.3716 253.583 41.3562 247.545 43.2188 241.958L51.2396 217.885C10.1168 207.817 3.11331e-07 183.084 0 127.999C0 54.7921 17.8646 35.1877 102.635 32.3846L88.4583 18.2075C84.2927 14.0419 84.2927 7.28979 88.4583 3.12419C92.6239 -1.0414 99.3761 -1.0414 103.542 3.12419L127.99 27.5721L152.458 3.12419Z" fill="black"/>
</svg>
