<svg width="256" height="256" viewBox="0 0 256 256" fill="none" xmlns="http://www.w3.org/2000/svg">
<path d="M128 128C139.781 128.001 149.333 137.552 149.333 149.333C149.333 161.115 139.781 170.665 128 170.667C116.218 170.667 106.666 161.115 106.666 149.333C106.666 137.551 116.218 128 128 128Z" fill="black"/>
<path fill-rule="evenodd" clip-rule="evenodd" d="M160 0C165.891 0 170.666 4.77563 170.666 10.6667C170.666 16.5577 165.891 21.3333 160 21.3333H138.666V42.7708C218.328 44.2679 234.666 64.1204 234.666 149.333C234.666 238.222 216.889 256 128 256C39.1108 256 21.333 238.222 21.333 149.333C21.333 64.1204 37.671 44.2679 117.333 42.7708V21.3333H95.9997C90.1086 21.3333 85.333 16.5577 85.333 10.6667C85.333 4.77563 90.1086 0 95.9997 0H160ZM128 106.667C104.436 106.667 85.333 125.769 85.333 149.333C85.333 172.897 104.436 192 128 192C151.563 191.999 170.666 172.897 170.666 149.333C170.666 125.77 151.563 106.668 128 106.667Z" fill="black"/>
</svg>
