<svg width="256" height="256" viewBox="0 0 256 256" fill="none" xmlns="http://www.w3.org/2000/svg">
<path fill-rule="evenodd" clip-rule="evenodd" d="M128 0C212.253 0.000592471 232.607 14.3781 234.5 84.0104C234.43 83.9503 234.352 83.8931 234.281 83.8333C251.099 98.0609 256 121.686 256 160C256 240 234.667 256 128 256C21.3333 256 0 240 0 160C0 121.635 4.90975 97.9922 21.7813 83.7708C21.687 83.8503 21.5935 83.9304 21.5 84.0104C23.3932 14.3777 43.7458 0.000462722 128 0ZM128 85.3333C101.642 85.3333 81.6809 86.3416 66.4063 88.8125C51.0925 91.2898 42.2508 94.9772 36.8021 99.0625C27.2973 106.191 21.3333 119.839 21.3333 160C21.3333 200.161 27.2973 213.809 36.8021 220.938C42.2508 225.023 51.0925 228.71 66.4063 231.188C81.6809 233.658 101.642 234.667 128 234.667C154.358 234.667 174.319 233.658 189.594 231.188C204.907 228.71 213.749 225.023 219.198 220.938C228.703 213.809 234.667 200.161 234.667 160C234.667 119.839 228.703 106.191 219.198 99.0625C213.749 94.9772 204.907 91.2898 189.594 88.8125C174.319 86.3416 154.358 85.3333 128 85.3333ZM128 64C133.084 64 137.974 64.0471 142.677 64.125C141.199 64.1005 139.703 64.0686 138.188 64.0521L128 64Z" fill="black"/>
</svg>
