<svg width="256" height="256" viewBox="0 0 256 256" fill="none" xmlns="http://www.w3.org/2000/svg">
<path d="M96.4401 149.333C97.9933 165.534 104.322 170.031 123.253 170.604L128.003 170.667C150.378 170.667 157.714 166.909 159.503 149.948C191.731 151.075 223.911 153.954 255.909 158.542C254.369 239.463 230.879 256 128.003 256C25.1217 256 1.62423 239.462 0.0859375 158.531C32.0828 153.944 64.2645 151.075 96.4922 149.948C96.4708 149.745 96.46 149.54 96.4401 149.333Z" fill="black"/>
<path d="M128.003 128C132.838 128 136.036 128.208 138.159 128.5C138.451 130.623 138.669 133.823 138.669 138.667C138.669 143.503 138.451 146.7 138.159 148.823C136.036 149.115 132.839 149.333 128.003 149.333C123.159 149.333 119.959 149.115 117.836 148.823C117.544 146.7 117.336 143.502 117.336 138.667C117.336 133.824 117.543 130.623 117.836 128.5C119.959 128.208 123.16 128 128.003 128Z" fill="black"/>
<path d="M96.0026 138.667L96.013 140.042C96.0093 139.59 96.0026 139.131 96.0026 138.667Z" fill="black"/>
<path fill-rule="evenodd" clip-rule="evenodd" d="M134.503 0.0520833C183.592 0.854932 203.379 11.4005 210.211 51.0938C209.848 50.9734 209.475 50.8777 209.107 50.7604C243.865 61.8361 254.468 86.4121 255.826 136.969C223.886 132.5 191.767 129.707 159.607 128.604C158.153 111.911 151.917 107.309 132.753 106.729L128.003 106.667C104.894 106.667 97.8163 110.672 96.3359 129.094C96.3492 128.93 96.3531 128.766 96.3672 128.604C64.2138 129.707 32.1026 132.491 0.169271 136.958C1.52973 86.3297 12.1661 61.7479 47.0547 50.6979C46.6367 50.8302 46.2157 50.9471 45.8047 51.0833C52.933 9.69207 74.1433 0.000109835 128.003 0L134.503 0.0520833ZM128.003 21.3333C91.8417 21.3334 80.4124 26.3079 74.9922 32.7396C72.8164 35.3234 70.6018 39.3067 68.7526 45.9063C68.3821 45.9607 68.0152 46.0273 67.6484 46.0833C83.8447 43.6088 103.709 42.6667 128.003 42.6667C152.24 42.6667 172.068 43.601 188.242 46.0625C187.91 46.012 187.577 45.9554 187.242 45.9063C185.393 39.3085 183.188 35.3234 181.013 32.7396C175.593 26.3074 164.164 21.3337 128.003 21.3333Z" fill="black"/>
</svg>
