<svg width="256" height="256" viewBox="0 0 256 256" fill="none" xmlns="http://www.w3.org/2000/svg">
<path d="M0.916667 95.1875C85.5286 89.19 170.461 89.1901 255.073 95.1875C255.702 105.109 256 116.015 256 128C256 234.667 234.667 256 128 256C21.3333 256 0 234.667 0 128C0 116.015 0.287243 105.109 0.916667 95.1875Z" fill="black"/>
<path d="M77.2708 2.59375C81.313 24.9488 80.6993 47.9275 75.4479 70.0938C51.3209 70.7911 27.2051 71.9774 3.11458 73.6354C9.95566 27.4871 29.693 8.77598 77.2708 2.59375Z" fill="black"/>
<path d="M128 0C213.288 0 243.992 13.6429 252.885 73.6354C201.121 70.0725 149.239 68.7417 97.3854 69.6146C102.062 46.898 102.467 23.5358 98.5833 0.708333C107.583 0.221013 117.368 0 128 0Z" fill="black"/>
</svg>
