<svg width="256" height="256" viewBox="0 0 256 256" fill="none" xmlns="http://www.w3.org/2000/svg">
<path fill-rule="evenodd" clip-rule="evenodd" d="M133.698 0.0520833C174.342 0.852662 191.998 10.8437 198.844 47.3229C211.533 48.9572 224.18 51.0256 236.761 53.5417C242.536 54.6979 246.28 60.3178 245.125 66.0938C243.969 71.8691 238.349 75.6135 232.573 74.4583C229.124 73.7685 225.668 73.1209 222.209 72.5C231.715 88.7143 234.667 113.122 234.667 149.333C234.667 223.396 222.325 248.093 166.792 254.271C155.676 255.507 142.824 256 128 256C39.1124 256 21.3335 238.222 21.3335 149.333C21.3335 113.127 24.2779 88.7144 33.7814 72.5C30.326 73.1203 26.8729 73.7692 23.4272 74.4583C17.6517 75.6128 12.0313 71.8689 10.8752 66.0938C9.72019 60.3183 13.465 54.6984 19.2397 53.5417C31.8132 51.027 44.454 48.9568 57.1356 47.3229C64.2944 9.1804 83.3017 0 128.011 0L133.698 0.0520833ZM98.5731 96.3229C92.8594 94.8966 87.0749 98.37 85.646 104.083C78.2189 133.794 78.2189 164.873 85.646 194.583C87.0749 200.297 92.8594 203.77 98.5731 202.344C104.285 200.914 107.76 195.129 106.333 189.417C99.7549 163.102 99.7549 135.565 106.333 109.25C107.76 103.537 104.285 97.753 98.5731 96.3229ZM170.334 104.083C168.905 98.3704 163.119 94.8982 157.406 96.3229C151.693 97.752 148.219 103.536 149.646 109.25C156.224 135.564 156.224 163.102 149.646 189.417C148.219 195.131 151.693 200.915 157.406 202.344C163.119 203.769 168.905 200.296 170.334 194.583C177.76 164.874 177.76 133.793 170.334 104.083ZM128.011 21.3333C97.0905 21.3333 88.9865 26.2878 84.8231 32.2292C82.9803 34.8617 81.1316 38.8063 79.5314 44.8958C85.7857 44.3471 92.0471 43.9088 98.3127 43.5729C107.198 42.9349 117.06 42.6667 128 42.6667C138.935 42.6667 148.795 42.9355 157.677 43.5729C163.936 43.9083 170.19 44.3481 176.438 44.8958C174.84 38.8139 173.039 34.8605 171.198 32.2292C167.036 26.2864 158.931 21.3343 128.011 21.3333Z" fill="black"/>
</svg>
