<svg width="256" height="256" viewBox="0 0 256 256" fill="none" xmlns="http://www.w3.org/2000/svg">
<path fill-rule="evenodd" clip-rule="evenodd" d="M90.6667 21.332C138.89 21.332 162.454 27.8557 173.219 53.332C174.135 53.3266 175.063 53.332 176 53.332C242.666 53.3321 256 66.6666 256 133.332C256 173.422 251.164 194.2 232.823 204.415C227.505 221.922 211.244 234.665 192 234.665C175.934 234.665 161.945 225.785 154.667 212.665C151.922 212.476 149.297 212.271 146.792 211.988C133.443 214.139 115.259 213.04 90.6667 213.04C90.5937 213.04 90.5208 213.031 90.4479 213.03C83.1135 225.945 69.2474 234.665 53.3333 234.665C29.7692 234.665 10.6667 215.563 10.6667 191.999C10.6667 190.264 10.7779 188.554 10.9792 186.874C2.60496 172.309 0.000109167 150.217 0 117.186C0 37.3095 15.1111 21.332 90.6667 21.332ZM53.3333 170.665C41.5513 170.665 32 180.217 32 191.999C32 203.781 41.5513 213.332 53.3333 213.332C65.1154 213.332 74.6667 203.781 74.6667 191.999C74.6667 180.217 65.1154 170.665 53.3333 170.665ZM192 170.665C180.218 170.665 170.667 180.217 170.667 191.999C170.667 203.781 180.218 213.332 192 213.332C203.782 213.332 213.333 203.781 213.333 191.999C213.333 180.217 203.782 170.665 192 170.665ZM150.667 181.353C150.644 181.443 150.627 181.534 150.604 181.624C150.628 181.526 150.652 181.429 150.677 181.332L150.667 181.353ZM181.26 127.999C181.154 136.431 180.923 144.036 180.552 150.895C180.528 150.901 180.504 150.909 180.479 150.915C184.145 149.89 188.007 149.332 192 149.332C209.204 149.332 224.021 159.519 230.771 174.186C231.203 172.803 231.636 171.241 232.021 169.457C233.825 161.09 234.667 149.574 234.667 133.332C234.667 131.494 234.647 129.718 234.625 127.999H181.26ZM178.865 74.6758C180.257 83.7911 180.97 94.3809 181.219 106.665H233.49C233.098 103.126 232.621 99.9911 232.021 97.207C230.268 89.0806 227.92 85.4192 225.917 83.4154C223.913 81.4116 220.251 79.064 212.125 77.3112C204.258 75.6147 193.609 74.7708 178.865 74.6758Z" fill="black"/>
</svg>
