<svg width="256" height="256" viewBox="0 0 256 256" fill="none" xmlns="http://www.w3.org/2000/svg">
<path d="M234.667 32C240.558 32 245.334 36.7756 245.334 42.6667V64C245.334 69.891 240.558 74.6667 234.667 74.6667C228.776 74.6667 224 69.891 224 64V53.3333H138.667V213.333C144.558 213.333 149.334 218.109 149.334 224C149.334 229.891 144.558 234.667 138.667 234.667H117.334C111.443 234.667 106.667 229.891 106.667 224C106.667 218.478 110.863 213.933 116.24 213.385L117.334 213.333V53.3333H32.0003V64C32.0003 69.891 27.2247 74.6667 21.3337 74.6667C15.4426 74.6667 10.667 69.891 10.667 64V42.6667C10.667 36.7756 15.4426 32 21.3337 32H234.667Z" fill="black"/>
</svg>
