<svg width="256" height="256" viewBox="0 0 256 256" fill="none" xmlns="http://www.w3.org/2000/svg">
<path d="M128 0C133.891 0 138.667 4.77563 138.667 10.6667V21.4063C144.668 21.4977 150.375 21.6765 155.802 21.9479C161.502 22.233 166.893 22.6213 171.99 23.1354C177.088 23.6497 181.892 24.2878 186.417 25.0625C190.944 25.8376 195.192 26.7558 199.177 27.8229C204.154 29.1557 208.72 30.7298 212.906 32.5729C214.581 33.3103 216.195 34.0907 217.75 34.9167C222.416 37.3948 226.55 40.2796 230.208 43.625C231.428 44.74 232.593 45.9059 233.708 47.125C237.054 50.7829 239.939 54.9176 242.417 59.5833C243.243 61.1384 244.023 62.7522 244.76 64.4271C246.604 68.6134 248.178 73.179 249.51 78.1563C250.578 82.1415 251.496 86.3891 252.271 90.9167C253.046 95.4418 253.684 100.246 254.198 105.344C254.712 110.44 255.1 115.831 255.385 121.531C255.813 130.084 256 139.334 256 149.333C256 153.46 252.937 156.598 248.844 158.375C247.672 158.884 246.418 159.286 245.125 159.563C240.608 160.528 235.637 160.022 232.25 157.667C212.792 144.135 183.139 139.359 138.667 138.74V218.969C138.664 239.419 122.086 255.997 101.635 256C87.608 256 74.7738 248.077 68.5 235.531L65.125 228.771C62.4907 223.502 64.6272 217.093 69.8958 214.458C75.1649 211.824 81.5737 213.96 84.2083 219.229L87.5833 225.99C90.2435 231.308 95.6885 234.666 101.635 234.667C110.304 234.664 117.331 227.637 117.333 218.969V138.74C72.8576 139.359 43.1995 144.134 23.7396 157.667C22.287 158.677 20.5397 159.338 18.6667 159.698C16.1711 160.177 13.4441 160.115 10.8646 159.563C9.57512 159.287 8.32488 158.882 7.15625 158.375C5.98748 157.868 4.90122 157.252 3.94792 156.531C1.56276 154.727 0 152.282 0 149.333C6.54937e-07 46.3215 19.8964 22.8907 117.333 21.4063V10.6667C117.333 4.77584 122.109 0.000349085 128 0Z" fill="black"/>
<path d="M32 192C32 192 42.6639 198.856 42.6667 210.281C42.6667 219.424 37.891 224 32 224C26.109 224 21.3333 219.424 21.3333 210.281C21.3361 198.855 32 192 32 192Z" fill="black"/>
<path d="M224 192C224 192 234.664 198.855 234.667 210.281C234.667 219.424 229.891 224 224 224C218.109 224 213.333 219.424 213.333 210.281C213.336 198.856 224 192 224 192Z" fill="black"/>
<path d="M85.3333 160C85.3333 160 95.9972 166.856 96 178.281C96 187.424 91.2244 192 85.3333 192C79.4423 192 74.6667 187.424 74.6667 178.281C74.6694 166.855 85.3333 160 85.3333 160Z" fill="black"/>
<path d="M170.667 160C170.667 160 181.331 166.855 181.333 178.281C181.333 187.424 176.558 192 170.667 192C164.776 192 160 187.424 160 178.281C160.003 166.856 170.667 160 170.667 160Z" fill="black"/>
</svg>
