<svg width="256" height="256" viewBox="0 0 256 256" fill="none" xmlns="http://www.w3.org/2000/svg">
<path d="M128 0C133.891 0 138.667 4.77563 138.667 10.6667V21.4063C236.104 22.8907 256 46.3215 256 149.333C256 158.766 239.994 163.052 232.25 157.667C212.792 144.135 183.139 139.359 138.667 138.74V218.969C138.664 239.419 122.086 255.997 101.635 256C87.6078 256 74.7739 248.078 68.5 235.531L65.125 228.771C62.4904 223.502 64.6267 217.093 69.8958 214.458C75.1649 211.824 81.5738 213.96 84.2083 219.229L87.5833 225.99C90.2436 231.308 95.6883 234.667 101.635 234.667C110.304 234.664 117.331 227.637 117.333 218.969V138.74C72.8576 139.359 43.1995 144.134 23.7396 157.667C15.996 163.052 0 158.765 0 149.333C6.54937e-07 46.3215 19.8964 22.8907 117.333 21.4063V10.6667C117.333 4.77563 122.109 0 128 0Z" fill="black"/>
</svg>
