<svg width="256" height="256" viewBox="0 0 256 256" fill="none" xmlns="http://www.w3.org/2000/svg">
<path d="M245.333 117.336C251.223 117.336 255.999 122.112 256 128.002C256 152.657 254.781 173.124 251.177 189.836C247.547 206.667 241.344 220.407 230.875 230.877C220.405 241.347 206.665 247.549 189.833 251.179C173.121 254.784 152.656 256.002 128 256.002C103.344 256.002 82.8788 254.784 66.1667 251.179C49.3352 247.549 35.595 241.347 25.125 230.877C14.6557 220.407 8.45325 206.667 4.82292 189.836C1.21876 173.124 0 152.657 0 128.002C0.00144562 122.112 4.77652 117.336 10.6667 117.336C16.5568 117.336 21.3319 122.112 21.3333 128.002C21.3333 152.233 22.56 170.882 25.6771 185.336C28.7686 199.669 33.5682 209.153 40.2083 215.794C46.8491 222.435 56.3324 227.233 70.6667 230.325C85.121 233.443 103.767 234.669 128 234.669C152.233 234.669 170.879 233.443 185.333 230.325C199.668 227.233 209.151 222.435 215.792 215.794C222.432 209.153 227.231 199.669 230.323 185.336C233.44 170.882 234.667 152.233 234.667 128.002C234.668 122.112 239.443 117.336 245.333 117.336Z" fill="black"/>
<path d="M123.667 0.918901C126.424 -0.3063 129.576 -0.3063 132.333 0.918901L138.688 3.75223C167.937 16.752 190.749 40.9495 201.99 70.9189C204.058 76.4334 201.263 82.5884 195.75 84.6585C190.235 86.7265 184.08 83.9326 182.01 78.4189C173.918 56.8416 158.524 38.9072 138.667 27.6168V181.336C138.667 187.227 133.891 192.002 128 192.002C122.109 192.002 117.333 187.227 117.333 181.336V27.6168C97.4762 38.9072 82.0817 56.8416 73.9896 78.4189C71.9198 83.9326 65.7648 86.7265 60.25 84.6585C54.7369 82.5884 51.9425 76.4334 54.0104 70.9189C65.2507 40.9495 88.0631 16.752 117.313 3.75223L123.667 0.918901Z" fill="black"/>
</svg>
