<svg width="256" height="256" viewBox="0 0 256 256" fill="none" xmlns="http://www.w3.org/2000/svg">
<path d="M128.008 138.668C201.078 138.669 227.223 173.688 233.227 220.741C233.96 226.485 232.068 232.356 227.56 235.991C208.401 251.438 177.326 256.001 128.008 256.001C78.6894 256.001 47.6055 251.438 28.4458 235.991C23.9402 232.355 22.0571 226.484 22.7896 220.741C28.7938 173.687 54.9367 138.668 128.008 138.668Z" fill="black"/>
<path d="M128.008 10.668C157.462 10.6693 181.342 34.5469 181.342 64.0013C181.342 93.4557 157.462 117.333 128.008 117.335C98.5531 117.335 74.675 93.4565 74.675 64.0013C74.675 34.5461 98.5531 10.668 128.008 10.668Z" fill="black"/>
</svg>
