<svg width="256" height="256" viewBox="0 0 256 256" fill="none" xmlns="http://www.w3.org/2000/svg">
<path fill-rule="evenodd" clip-rule="evenodd" d="M170.662 160.001C235.165 160.001 253.963 194.11 255.839 237.626C256.021 241.843 253.528 245.734 249.547 247.137C230.736 253.765 205.161 256.001 170.662 256.001C156.852 256.001 144.469 255.626 133.381 254.772C134.739 254.667 136.081 254.538 137.402 254.418C125.283 255.522 111.552 256.001 96.0057 256.001L83.4849 255.897C57.239 255.416 36.703 253.28 20.7245 248.335L17.1203 247.137C13.1394 245.734 10.6469 241.843 10.8286 237.626C12.7047 194.11 31.5026 160.001 96.0057 160.001L101.922 160.105C114.297 160.529 124.861 162.312 133.86 165.22C133.681 165.162 133.499 165.1 133.318 165.043C143.616 161.787 155.95 160.002 170.662 160.001ZM181.11 239.189C180.993 240.213 180.72 241.2 180.308 242.116C180.929 240.74 181.241 239.208 181.172 237.626L181.11 239.189ZM96.0057 181.335C67.4147 181.335 53.1872 188.823 45.5474 197.033C38.8155 204.27 34.5513 214.874 32.8495 229.533C47.546 233.077 67.7449 234.668 96.0057 234.668C124.262 234.668 144.456 233.076 159.152 229.533C157.45 214.873 153.186 204.27 146.454 197.033C138.815 188.823 124.595 181.336 96.0057 181.335Z" fill="black"/>
<path d="M181.339 42.668C204.901 42.6703 224.006 61.7719 224.006 85.3346C224.006 108.897 204.901 127.999 181.339 128.001C157.775 128.001 138.672 108.899 138.672 85.3346C138.672 61.7705 157.775 42.668 181.339 42.668Z" fill="black"/>
<path fill-rule="evenodd" clip-rule="evenodd" d="M85.3391 10.668C114.792 10.6703 138.672 34.5476 138.672 64.0013C138.672 93.455 114.792 117.332 85.3391 117.335C55.8839 117.335 32.0057 93.4565 32.0057 64.0013C32.0057 34.5461 55.8839 10.668 85.3391 10.668ZM85.3391 32.0013C67.6659 32.0013 53.3391 46.3282 53.3391 64.0013C53.3391 81.6744 67.6659 96.0013 85.3391 96.0013C103.01 95.9989 117.339 81.673 117.339 64.0013C117.339 46.3296 103.01 32.0037 85.3391 32.0013Z" fill="black"/>
</svg>
