<svg width="256" height="256" viewBox="0 0 256 256" fill="none" xmlns="http://www.w3.org/2000/svg">
<path fill-rule="evenodd" clip-rule="evenodd" d="M128 0C143.752 0 159.482 5.18409 171.417 23.1563C192.573 18.88 207.369 26.3483 218.51 37.4896C229.65 48.6298 237.107 63.42 232.833 84.5729C250.815 96.509 256 112.245 256 128C256 143.754 250.811 159.481 232.833 171.417C237.108 192.57 229.65 207.36 218.51 218.5C207.37 229.64 192.58 237.096 171.427 232.823C159.49 250.811 143.758 256 128 256C112.241 256 96.4995 250.815 84.5625 232.823C63.4162 237.092 48.6277 229.648 37.4896 218.51C26.349 207.37 18.8818 192.571 23.1563 171.417C5.18409 159.482 1.20324e-06 143.752 0 128C6.88591e-07 112.247 5.18021 96.5084 23.1563 84.5729C18.8828 63.4207 26.3506 48.6296 37.4896 37.4896C48.6292 26.3499 63.4212 18.8841 84.5729 23.1563C96.5084 5.18021 112.247 5.56429e-07 128 0ZM189.865 78.9375C186.33 74.2252 179.65 73.2689 174.938 76.8021C146.934 97.8051 123.084 123.816 104.583 153.5L82.2083 131.125C78.0431 126.962 71.2901 126.962 67.125 131.125C62.9604 135.29 62.9614 142.043 67.125 146.208L99.125 178.208C101.447 180.53 104.709 181.651 107.969 181.25C111.228 180.849 114.122 178.972 115.813 176.156L120.375 168.552C137.786 139.535 160.658 114.168 187.729 93.8646C192.441 90.3304 193.398 83.6502 189.865 78.9375Z" fill="black"/>
</svg>
