<svg width="256" height="256" viewBox="0 0 256 256" fill="none" xmlns="http://www.w3.org/2000/svg">
<path fill-rule="evenodd" clip-rule="evenodd" d="M96 10.668C153.386 10.668 177.833 20.7322 187.073 62.5117C187.065 62.4738 187.06 62.435 187.052 62.3971C188.653 61.7493 190.315 61.1093 192 60.3971C245.326 37.8627 256 71.6628 256 128.001C256 184.34 245.332 218.141 192 195.605C190.313 194.893 188.655 194.243 187.052 193.595C187.057 193.575 187.058 193.553 187.063 193.533C177.816 235.277 153.367 245.335 96 245.335C16 245.335 0 225.779 0 128.001C2.77435e-07 30.2235 16 10.668 96 10.668ZM191.875 140.71C191.89 139.845 191.926 138.974 191.938 138.095L191.948 136.939C191.934 138.21 191.896 139.467 191.875 140.71ZM191.938 118.814V117.908C191.926 117.022 191.89 116.144 191.875 115.272C191.895 116.44 191.924 117.621 191.938 118.814Z" fill="black"/>
</svg>
