<svg width="256" height="256" viewBox="0 0 256 256" fill="none" xmlns="http://www.w3.org/2000/svg">
<path fill-rule="evenodd" clip-rule="evenodd" d="M128 0C223.037 0 250.302 16.9369 255.125 96.0729C251.973 96.0392 248.71 96 245.333 96C165.333 96 149.333 104.889 149.333 149.333L149.385 153.396C150.334 191.684 165.652 201.451 231.073 202.552L245.333 202.667C247.328 202.667 249.282 202.626 251.198 202.615C240.411 245.856 208.549 256 128 256C21.3333 256 0 238.222 0 149.333C0 145.869 0.0459702 142.512 0.114583 139.26C0.049865 135.617 0 131.865 0 128C0 21.3333 21.3333 0 128 0ZM128 21.3333C101.757 21.3333 82.2421 22.6747 67.5 25.8542C52.9976 28.9821 44.5872 33.5795 39.0833 39.0833C34.6477 43.519 30.828 49.8506 27.8646 59.7292C46.9752 46.5402 78.1823 42.6667 128 42.6667C177.812 42.6667 209.014 46.5442 228.125 59.7292C225.162 49.8522 221.352 43.5186 216.917 39.0833C211.413 33.5795 203.002 28.9821 188.5 25.8542C173.758 22.6747 154.243 21.3333 128 21.3333Z" fill="black"/>
<path fill-rule="evenodd" clip-rule="evenodd" d="M255.917 117.406C255.969 120.84 256 124.371 256 128C256 131.843 255.949 135.574 255.885 139.198C255.955 142.469 256 145.846 256 149.333C256 161.202 255.59 171.8 254.677 181.26C251.688 181.291 248.575 181.333 245.333 181.333C225.56 181.333 210.582 180.779 199.125 179.406C187.485 178.011 181.164 175.945 177.698 174.021C175.065 172.558 173.921 171.151 172.969 168.698C171.657 165.32 170.667 159.586 170.667 149.333C170.667 139.081 171.657 133.346 172.969 129.969C173.921 127.516 175.065 126.109 177.698 124.646C181.164 122.721 187.485 120.655 199.125 119.26C210.582 117.888 225.56 117.333 245.333 117.333C249.026 117.333 252.551 117.366 255.917 117.406ZM202.667 138.667C196.776 138.667 192 143.442 192 149.333C192 155.224 196.776 160 202.667 160C208.558 160 213.333 155.224 213.333 149.333C213.333 143.442 208.558 138.667 202.667 138.667Z" fill="black"/>
</svg>
