<svg width="256" height="256" viewBox="0 0 256 256" fill="none" xmlns="http://www.w3.org/2000/svg">
<path d="M128 170.667C134.667 170.667 136 172 136 178.667C136 185.333 134.667 186.667 128 186.667C121.333 186.667 120 185.333 120 178.667C120 172 121.333 170.667 128 170.667Z" fill="black"/>
<path d="M128 66.6665C132.418 66.6665 136 70.2482 136 74.6665V138.667C136 143.085 132.418 146.667 128 146.667C123.582 146.666 120 143.084 120 138.667V74.6665C120 70.2486 123.582 66.6671 128 66.6665Z" fill="black"/>
<path fill-rule="evenodd" clip-rule="evenodd" d="M128 10.6665C216.576 10.6665 283.595 176.886 244.698 216L242.792 217.802C201.634 254.511 54.3655 254.511 13.2083 217.802L11.3021 216C-27.5944 176.887 39.4238 10.6671 128 10.6665ZM128 26.6665C111.043 26.6666 93.877 34.6342 77.5833 49.1873C61.3255 63.7097 46.9924 83.9077 36.1875 105.76C25.3779 127.623 18.547 150.23 16.5833 169.073C14.508 188.99 18.2349 200.283 22.6458 204.719C29.1588 211.267 42.5853 217.74 62.3958 222.427C81.6144 226.974 104.656 229.333 128 229.333C151.344 229.333 174.386 226.974 193.604 222.427C213.414 217.74 226.841 211.267 233.354 204.719C237.765 200.283 241.492 188.989 239.417 169.073C237.453 150.23 230.622 127.623 219.812 105.76C209.008 83.9076 194.675 63.7096 178.417 49.1873C162.123 34.6342 144.957 26.6665 128 26.6665Z" fill="black"/>
</svg>
