<svg width="256" height="256" viewBox="0 0 256 256" fill="none" xmlns="http://www.w3.org/2000/svg">
<path d="M128.001 181.333C134.666 181.334 136.001 182.667 136.001 189.333C136.001 195.998 134.666 197.333 128.001 197.333C121.335 197.333 120.001 195.999 120.001 189.333C120.001 182.667 121.334 181.333 128.001 181.333Z" fill="black"/>
<path d="M128.001 56C132.419 56.0002 136.001 59.5818 136.001 64V149.333C136 153.751 132.419 157.333 128.001 157.333C123.583 157.333 120.002 153.751 120.001 149.333V64C120.001 59.5817 123.583 56 128.001 56Z" fill="black"/>
<path fill-rule="evenodd" clip-rule="evenodd" d="M137.751 0.0625C235.978 1.4146 256.001 24.6673 256.001 128L255.938 137.75C254.586 235.977 231.333 256 128.001 256L118.251 255.938C23.1904 254.629 1.37197 232.809 0.0634766 137.75L0.000976562 128C0.000976562 21.3343 21.3353 0 128.001 0L137.751 0.0625ZM128.001 16C101.653 16 81.6822 17.3345 66.376 20.6354C51.2493 23.898 41.7746 28.8513 35.3135 35.3125C28.8523 41.7737 23.899 51.2484 20.6364 66.375C17.3354 81.6812 16.001 101.652 16.001 128C16.001 154.348 17.3352 174.319 20.6364 189.625C23.899 204.752 28.8523 214.226 35.3135 220.688C41.7746 227.148 51.2502 232.092 66.376 235.354C81.6824 238.655 101.652 240 128.001 240C154.35 240 174.32 238.656 189.626 235.354C204.752 232.092 214.227 227.149 220.688 220.688C227.15 214.226 232.093 204.751 235.355 189.625C238.657 174.319 240.001 154.349 240.001 128C240.001 101.651 238.656 81.6814 235.355 66.375C232.093 51.2493 227.149 41.7736 220.688 35.3125C214.227 28.8513 204.753 23.898 189.626 20.6354C174.32 17.3342 154.349 16 128.001 16Z" fill="black"/>
</svg>
