<svg width="256" height="256" viewBox="0 0 256 256" fill="none" xmlns="http://www.w3.org/2000/svg">
<path fill-rule="evenodd" clip-rule="evenodd" d="M168.73 2.90621C173.014 1.83698 177.355 4.44517 178.427 8.72913C179.497 13.0144 176.89 17.3553 172.605 18.427L171.334 18.75C153.291 23.261 139.923 37.9381 136.73 55.75C154.411 43.9223 174.662 39.4802 194.198 45.052C217.101 51.5847 236.081 71.1519 246.729 96.6562C240.75 95.337 234.334 96.0052 228.552 98.8958L226.136 100.104C216.988 104.681 212.592 115.295 215.823 125L216.625 127.396C217.519 130.078 217.316 133.012 216.052 135.542L215.5 136.635C212.61 142.421 212.611 149.235 215.5 155.021L216.052 156.104C217.317 158.634 217.519 161.567 216.625 164.25L215.823 166.656C212.591 176.361 216.988 186.974 226.136 191.552L228.552 192.76C233.645 195.307 239.229 196.114 244.573 195.375C223.929 239.645 179.257 264.202 141.73 253.5C136.891 252.12 132.315 250.157 128 247.729C123.686 250.157 119.109 252.12 114.271 253.5C71.0114 265.837 18.2395 231.331 3.75034 173.771C-10.737 116.211 18.5433 57.3909 61.8024 45.052C81.7705 39.3571 102.494 44.1095 120.448 56.5312C123.501 31.001 142.01 9.59115 167.448 3.22913L168.73 2.90621ZM189.813 60.4375C173.259 55.7163 154.831 60.4997 138.386 74.5208C132.405 79.6207 123.596 79.6208 117.615 74.5208C101.17 60.5 82.7423 55.7162 66.1878 60.4375C50.1282 65.0193 35.1248 78.8111 25.6253 99.2083C16.2097 119.427 12.9539 144.765 19.2712 169.865C32.2353 221.365 77.7718 247.273 109.886 238.115C113.427 237.104 116.85 235.642 120.157 233.781L122.021 232.885C126.489 231.085 131.581 231.385 135.844 233.781C139.151 235.642 142.574 237.104 146.115 238.115C169.41 244.758 199.624 233.172 219.625 206.187L218.979 205.865C202.716 197.726 194.898 178.852 200.646 161.594L200.75 161.25C196.202 151.472 196.202 140.182 200.75 130.406L200.646 130.083V130.052C194.901 112.794 202.716 93.9289 218.979 85.7916L221.396 84.5833C221.504 84.5292 221.611 84.4697 221.719 84.4166C212.837 72.1663 201.614 63.8045 189.813 60.4375Z" fill="black"/>
</svg>
