<svg width="256" height="256" viewBox="0 0 256 256" fill="none" xmlns="http://www.w3.org/2000/svg">
<path fill-rule="evenodd" clip-rule="evenodd" d="M168.731 2.90595C173.015 1.83749 177.356 4.44511 178.428 8.72887C179.498 13.0137 176.89 17.3545 172.606 18.4268L171.335 18.7497C153.292 23.2607 139.924 37.9379 136.731 55.7497C154.412 43.9225 174.663 39.4795 194.199 45.0518C237.458 57.3907 266.747 116.211 252.262 173.771C237.773 231.331 184.99 265.837 141.731 253.5C136.892 252.12 132.316 250.157 128.001 247.729C123.687 250.157 119.11 252.12 114.272 253.5C71.0124 265.837 18.2406 231.331 3.75138 173.771C-10.7361 116.21 18.5443 57.3907 61.8035 45.0518C81.7717 39.3573 102.496 44.1087 120.449 56.531C123.502 31.0008 142.011 9.59088 167.449 3.22887L168.731 2.90595ZM189.814 60.4372C173.259 55.7155 154.832 60.4998 138.387 74.5205C132.406 79.6205 123.597 79.6205 117.616 74.5205C101.171 60.4993 82.7432 55.7166 66.1889 60.4372C50.1296 65.0189 35.1258 78.8114 25.6264 99.208C16.2107 119.427 12.9548 144.764 19.2722 169.864C32.2363 221.365 77.7728 247.273 109.887 238.114C113.427 237.104 116.851 235.642 120.158 233.781L122.022 232.885C126.49 231.086 131.582 231.384 135.845 233.781C139.152 235.642 142.574 237.104 146.116 238.114C178.231 247.273 223.777 221.363 236.741 169.864C243.057 144.766 239.804 119.427 230.387 99.208C220.885 78.8104 205.874 65.0192 189.814 60.4372Z" fill="black"/>
</svg>
