<svg width="256" height="256" viewBox="0 0 256 256" fill="none" xmlns="http://www.w3.org/2000/svg">
<path fill-rule="evenodd" clip-rule="evenodd" d="M128 0C234.667 0 256 21.3333 256 128C256 234.667 234.667 256 128 256C21.3333 256 0 234.667 0 128C0 21.3333 21.3333 0 128 0ZM17.2917 165.333C18.0394 174.531 19.1148 182.574 20.6354 189.625C23.8981 204.752 28.8513 214.226 35.3125 220.688C41.7737 227.149 51.2482 232.102 66.375 235.365C81.6814 238.666 101.652 240 128 240C154.348 240 174.319 238.666 189.625 235.365C204.752 232.102 214.226 227.149 220.688 220.688C227.149 214.226 232.102 204.752 235.365 189.625C236.885 182.574 237.961 174.531 238.708 165.333H194.583C188.22 165.335 182.114 167.865 177.615 172.365L175.031 174.948C167.531 182.448 157.357 186.665 146.75 186.667H109.25C98.6431 186.665 88.4691 182.448 80.9688 174.948L78.3854 172.365C73.8857 167.865 67.7801 165.335 61.4167 165.333H17.2917ZM128 16C101.652 16 81.6814 17.3344 66.375 20.6354C51.2482 23.8981 41.7737 28.8513 35.3125 35.3125C28.8513 41.7737 23.8981 51.2482 20.6354 66.375C17.3344 81.6814 16 101.652 16 128C16 135.633 16.1253 142.729 16.3646 149.333H61.4167C72.0236 149.335 82.1976 153.552 89.6979 161.052L92.2813 163.635C96.781 168.135 102.887 170.665 109.25 170.667H146.75C153.113 170.665 159.219 168.135 163.719 163.635L166.302 161.052C173.802 153.552 183.976 149.335 194.583 149.333H239.635C239.875 142.729 240 135.633 240 128C240 101.652 238.666 81.6814 235.365 66.375C232.102 51.2482 227.149 41.7737 220.688 35.3125C214.226 28.8513 204.752 23.8981 189.625 20.6354C174.319 17.3344 154.348 16 128 16Z" fill="black"/>
</svg>
