<svg width="256" height="256" viewBox="0 0 256 256" fill="none" xmlns="http://www.w3.org/2000/svg">
<path d="M181.333 96C185.752 96 189.333 99.5817 189.333 104C189.333 108.418 185.752 112 181.333 112H85.3333C80.9151 112 77.3333 108.418 77.3333 104C77.3333 99.5817 80.9151 96 85.3333 96H181.333Z" fill="black"/>
<path d="M128 53.3333C132.418 53.3333 136 56.9151 136 61.3333C136 65.7516 132.418 69.3333 128 69.3333H85.3333C80.9151 69.3333 77.3333 65.7516 77.3333 61.3333C77.3333 56.9151 80.9151 53.3333 85.3333 53.3333H128Z" fill="black"/>
<path fill-rule="evenodd" clip-rule="evenodd" d="M136.125 0.0520833C217.982 1.12237 234.667 19.5272 234.667 101.333L234.615 109.052C234.549 113.59 234.399 117.916 234.198 122.042C251.085 133.1 256 151.484 256 181.333L255.938 187.021C254.585 244.32 231.333 256 128 256L118.25 255.958C23.1901 255.195 1.37125 242.472 0.0625 187.021L0 181.333C0.000214304 151.481 4.91166 133.089 21.8021 122.031C21.4901 115.629 21.3333 108.742 21.3333 101.333C21.3333 16.8889 39.1111 0 128 0L136.125 0.0520833ZM239.427 166.385C238.093 167.381 236.459 168 234.667 168H194.583C188.22 168.001 182.114 170.532 177.615 175.031L175.031 177.615C167.531 185.114 157.356 189.332 146.75 189.333H109.25C98.6435 189.332 88.469 185.114 80.9688 177.615L78.3854 175.031C73.8858 170.532 67.7797 168.001 61.4167 168H21.3333C19.5379 168 17.8974 167.384 16.5625 166.385C16.1843 170.756 16 175.709 16 181.333C16.0001 196.281 17.3353 206.461 20.0104 213.698C22.4379 220.262 26.0503 224.67 32.0625 228.177C38.6871 232.041 48.8873 235.181 65 237.208C80.9833 239.219 101.512 240 128 240C154.488 240 175.017 239.219 191 237.208C207.113 235.181 217.313 232.041 223.938 228.177C229.95 224.67 233.562 220.262 235.99 213.698C238.665 206.461 240 196.281 240 181.333C240 175.709 239.805 170.756 239.427 166.385ZM128 16C106.077 16 89.593 17.0636 77.0417 19.6354C64.627 22.1797 57.2264 25.9755 52.3542 30.6042C47.5539 35.1652 43.7048 41.9627 41.1042 53.4167C38.4514 65.1008 37.3333 80.5581 37.3333 101.333C37.3333 122.109 38.4514 137.566 41.1042 149.25C41.3196 150.199 41.5481 151.114 41.7813 152H61.4167C72.0231 152.001 82.1977 156.219 89.6979 163.719L92.2813 166.302C96.7809 170.801 102.887 173.332 109.25 173.333H146.75C153.113 173.332 159.219 170.801 163.719 166.302L166.302 163.719C173.802 156.219 183.977 152.001 194.583 152H214.219C214.452 151.114 214.68 150.199 214.896 149.25C217.549 137.566 218.667 122.109 218.667 101.333C218.667 80.5581 217.549 65.1008 214.896 53.4167C212.295 41.9627 208.446 35.1652 203.646 30.6042C198.774 25.9755 191.373 22.1797 178.958 19.6354C166.407 17.0636 149.923 16 128 16ZM23.5729 142.052C22.1464 144.068 20.981 146.344 20.0104 148.969C19.6125 150.045 19.2553 151.194 18.9167 152.406C19.6819 152.163 20.4875 152 21.3333 152H25.3438C24.6562 148.87 24.0667 145.557 23.5729 142.052ZM232.396 142.031C231.901 145.545 231.315 148.863 230.625 152H234.667C235.509 152 236.31 152.165 237.073 152.406C236.735 151.195 236.387 150.044 235.99 148.969C235.014 146.332 233.832 144.054 232.396 142.031Z" fill="black"/>
</svg>
