<svg width="256" height="256" viewBox="0 0 256 256" fill="none" xmlns="http://www.w3.org/2000/svg">
<path d="M100.01 70.2292C102.461 66.5529 107.428 65.5596 111.104 68.0104C129.507 80.2788 145.688 95.5879 158.958 113.281L166.396 123.198C168.529 126.042 168.529 129.958 166.396 132.802L158.958 142.719C145.688 160.412 129.507 175.721 111.104 187.99C107.428 190.44 102.461 189.447 100.01 185.771C97.5596 182.095 98.5529 177.128 102.229 174.677C119.124 163.414 133.984 149.358 146.167 133.115L150.01 128L146.167 122.885C133.984 106.642 119.124 92.586 102.229 81.3229C98.5529 78.8721 97.5596 73.9054 100.01 70.2292Z" fill="black"/>
<path fill-rule="evenodd" clip-rule="evenodd" d="M128 0C234.667 0 256 21.3333 256 128C256 234.667 234.667 256 128 256C21.3333 256 0 234.667 0 128C0 21.3333 21.3333 0 128 0ZM128 16C101.652 16 81.6814 17.3344 66.375 20.6354C51.2482 23.8981 41.7737 28.8513 35.3125 35.3125C28.8513 41.7737 23.8981 51.2482 20.6354 66.375C17.3344 81.6814 16 101.652 16 128C16 154.348 17.3344 174.319 20.6354 189.625C23.8981 204.752 28.8513 214.226 35.3125 220.688C41.7737 227.149 51.2482 232.102 66.375 235.365C81.6814 238.666 101.652 240 128 240C154.348 240 174.319 238.666 189.625 235.365C204.752 232.102 214.226 227.149 220.688 220.688C227.149 214.226 232.102 204.752 235.365 189.625C238.666 174.319 240 154.348 240 128C240 101.652 238.666 81.6814 235.365 66.375C232.102 51.2482 227.149 41.7737 220.688 35.3125C214.226 28.8513 204.752 23.8981 189.625 20.6354C174.319 17.3344 154.348 16 128 16Z" fill="black"/>
</svg>
