<svg width="256" height="256" viewBox="0 0 256 256" fill="none" xmlns="http://www.w3.org/2000/svg">
<path d="M125.284 45.8125C127.33 45.0734 129.606 45.1934 131.576 46.1771L144.076 52.4271C165.29 63.0349 181.43 81.6341 188.93 104.135C190.326 108.326 188.057 112.862 183.868 114.26C179.676 115.658 175.14 113.389 173.743 109.198C167.584 90.7223 154.338 75.4496 136.92 66.7396L136.003 66.2708V202.667C136.003 207.084 132.42 210.665 128.003 210.667C123.585 210.667 120.003 207.085 120.003 202.667V66.2708L119.086 66.7396C101.667 75.4493 88.4223 90.7219 82.2633 109.198C80.8664 113.389 76.3292 115.656 72.1383 114.26C67.9468 112.863 65.6787 108.327 67.0758 104.135C74.5767 81.6337 90.7151 63.0346 111.93 52.4271L124.43 46.1771L125.284 45.8125Z" fill="black"/>
<path fill-rule="evenodd" clip-rule="evenodd" d="M137.753 0.0625C235.982 1.41443 256.003 24.666 256.003 128L255.94 137.75C254.588 235.979 231.337 256 128.003 256L118.253 255.938C20.024 254.586 0.00292969 231.334 0.00292969 128C0.00293037 21.3333 21.3363 0 128.003 0L137.753 0.0625ZM128.003 16C101.655 16 81.6844 17.3344 66.3779 20.6354C51.2511 23.8981 41.7767 28.8513 35.3154 35.3125C28.8542 41.7737 23.901 51.2482 20.6383 66.375C17.3373 81.6814 16.0029 101.652 16.0029 128C16.0029 154.348 17.3373 174.319 20.6383 189.625C23.901 204.752 28.8542 214.226 35.3154 220.688C41.7767 227.149 51.2511 232.102 66.3779 235.365C81.6844 238.666 101.655 240 128.003 240C154.351 240 174.321 238.666 189.628 235.365C204.755 232.102 214.229 227.149 220.69 220.688C227.152 214.226 232.105 204.752 235.367 189.625C238.669 174.319 240.003 154.348 240.003 128C240.003 101.652 238.669 81.6814 235.367 66.375C232.105 51.2482 227.152 41.7737 220.69 35.3125C214.229 28.8513 204.755 23.8981 189.628 20.6354C174.321 17.3344 154.351 16 128.003 16Z" fill="black"/>
</svg>
