<svg width="256" height="256" viewBox="0 0 256 256" fill="none" xmlns="http://www.w3.org/2000/svg">
<path d="M57.3438 70.2292C59.7946 66.5529 64.7613 65.5596 68.4375 68.0104C86.84 80.2788 103.021 95.5879 116.292 113.281L123.729 123.198C125.863 126.042 125.863 129.958 123.729 132.802L116.292 142.719C103.021 160.412 86.84 175.721 68.4375 187.99C64.7613 190.44 59.7946 189.447 57.3438 185.771C54.8929 182.095 55.8863 177.128 59.5625 174.677C76.4571 163.414 91.3171 149.358 103.5 133.115L107.344 128L103.5 122.885C91.3171 106.642 76.4571 92.586 59.5625 81.3229C55.8863 78.8721 54.8929 73.9054 57.3438 70.2292Z" fill="black"/>
<path d="M132.01 70.2292C134.461 66.5529 139.428 65.5596 143.104 68.0104C161.507 80.2788 177.688 95.5879 190.958 113.281L198.396 123.198C200.529 126.042 200.529 129.958 198.396 132.802L190.958 142.719C177.688 160.412 161.507 175.721 143.104 187.99C139.428 190.44 134.461 189.447 132.01 185.771C129.56 182.095 130.553 177.128 134.229 174.677C151.124 163.414 165.984 149.358 178.167 133.115L182.01 128L178.167 122.885C165.984 106.642 151.124 92.586 134.229 81.3229C130.553 78.8721 129.56 73.9054 132.01 70.2292Z" fill="black"/>
<path fill-rule="evenodd" clip-rule="evenodd" d="M128 0C234.667 0 256 21.3333 256 128C256 234.667 234.667 256 128 256C21.3333 256 0 234.667 0 128C0 21.3333 21.3333 0 128 0ZM128 16C101.652 16 81.6814 17.3344 66.375 20.6354C51.2482 23.8981 41.7737 28.8513 35.3125 35.3125C28.8513 41.7737 23.8981 51.2482 20.6354 66.375C17.3344 81.6814 16 101.652 16 128C16 154.348 17.3344 174.319 20.6354 189.625C23.8981 204.752 28.8513 214.226 35.3125 220.688C41.7737 227.149 51.2482 232.102 66.375 235.365C81.6814 238.666 101.652 240 128 240C154.348 240 174.319 238.666 189.625 235.365C204.752 232.102 214.226 227.149 220.688 220.688C227.149 214.226 232.102 204.752 235.365 189.625C238.666 174.319 240 154.348 240 128C240 101.652 238.666 81.6814 235.365 66.375C232.102 51.2482 227.149 41.7737 220.688 35.3125C214.226 28.8513 204.752 23.8981 189.625 20.6354C174.319 17.3344 154.348 16 128 16Z" fill="black"/>
</svg>
