<svg width="256" height="256" viewBox="0 0 256 256" fill="none" xmlns="http://www.w3.org/2000/svg">
<path d="M129.573 210.508C133.904 209.64 136.715 205.426 135.849 201.095C134.981 196.765 130.766 193.955 126.435 194.819C107.861 198.535 88.939 199.249 70.1615 197.147L208.32 58.9884C211.444 55.8642 211.444 50.7989 208.32 47.6747C205.195 44.5539 200.129 44.5516 197.006 47.6747L58.7447 185.936C56.5525 167.182 57.418 148.388 61.1827 129.567C62.0468 125.236 59.2366 121.021 54.9072 120.153C50.5758 119.287 46.3618 122.098 45.4938 126.429C40.3144 152.324 40.1644 178.324 45.5012 204.277C46.1516 207.44 48.6365 209.906 51.8062 210.523C77.509 215.516 103.81 215.661 129.573 210.508Z" fill="black"/>
</svg>
