<svg width="256" height="256" viewBox="0 0 256 256" fill="none" xmlns="http://www.w3.org/2000/svg">
<path d="M141.015 141.014C144.14 137.89 149.204 137.89 152.328 141.014L217.755 206.441C220.835 194.808 219.594 182.404 214.182 171.576C212.209 167.625 213.815 162.822 217.765 160.847C221.716 158.876 226.52 160.481 228.495 164.431C236.269 179.985 237.555 197.996 232.057 214.493L228.932 223.868C228.136 226.255 226.257 228.134 223.87 228.931L214.495 232.056C197.997 237.554 179.987 236.267 164.432 228.493C160.482 226.518 158.877 221.715 160.849 217.764C162.824 213.813 167.627 212.208 171.578 214.181C182.405 219.593 194.81 220.834 206.443 217.753L141.015 152.326C137.891 149.202 137.891 144.138 141.015 141.014Z" fill="black"/>
<path d="M98.3488 141.014C101.473 137.89 106.537 137.89 109.661 141.014C112.782 144.138 112.784 149.203 109.661 152.326L44.2342 217.753C55.8675 220.832 68.2717 219.594 79.0988 214.181C83.0497 212.209 87.8531 213.814 89.828 217.764C91.7971 221.714 90.1927 226.518 86.2446 228.493C70.6894 236.269 52.6806 237.543 36.1821 232.045L26.8071 228.931C24.4198 228.135 22.5418 226.255 21.7446 223.868L18.6196 214.493C13.1204 197.995 14.4059 179.986 22.1821 164.431C24.1575 160.48 28.9604 158.875 32.9113 160.847C36.8584 162.824 38.4666 167.627 36.4946 171.576C31.0807 182.404 29.841 194.807 32.9217 206.441L98.3488 141.014Z" fill="black"/>
<path d="M36.1821 18.6181C52.6804 13.12 70.6898 14.4045 86.2446 22.1806C90.1919 24.1572 91.7999 28.9602 89.828 32.9097C87.853 36.8576 83.0485 38.4621 79.0988 36.4931C68.2713 31.0793 55.868 29.8405 44.2342 32.9201L109.661 98.3472C112.782 101.472 112.784 106.537 109.661 109.66C106.538 112.783 101.473 112.78 98.3488 109.66L32.9217 44.2326C29.8421 55.8664 31.0809 68.2697 36.4946 79.0972C38.4637 83.0469 36.8592 87.8515 32.9113 89.8264C28.9618 91.7984 24.1587 90.1903 22.1821 86.2431C14.4061 70.6882 13.1216 52.6788 18.6196 36.1806L21.7446 26.8056C22.5409 24.4167 24.4183 22.5393 26.8071 21.7431L36.1821 18.6181Z" fill="black"/>
<path d="M164.432 22.1806C179.987 14.4043 197.996 13.1188 214.495 18.6181L223.87 21.7431C225.378 22.2468 226.689 23.1932 227.651 24.4306L228.495 25.7639C236.269 41.3184 237.555 59.3292 232.057 75.8264L228.932 85.2014C227.535 89.39 222.997 91.6576 218.807 90.2639C214.616 88.867 212.349 84.3298 213.745 80.1389L216.87 70.7639C219.786 62.0129 220.185 52.6974 218.13 43.8576L152.328 109.66C149.205 112.783 144.14 112.78 141.015 109.66C137.891 106.536 137.891 101.471 141.015 98.3472L206.443 32.9201C194.809 29.8394 182.406 31.0791 171.578 36.4931C167.629 38.465 162.826 36.8568 160.849 32.9097C158.876 28.9588 160.482 24.1559 164.432 22.1806Z" fill="black"/>
</svg>
