<svg width="256" height="256" viewBox="0 0 256 256" fill="none" xmlns="http://www.w3.org/2000/svg">
<path d="M123.084 36.3534C126.57 33.642 131.599 34.2655 134.313 37.7492C137.024 41.2354 136.4 46.2652 132.917 48.9784L130.073 51.1867C101.302 73.5649 75.3657 99.3644 52.8232 127.999C75.3659 156.634 101.301 182.433 130.073 204.812L132.917 207.02C136.401 209.733 137.024 214.763 134.313 218.249C131.599 221.732 126.569 222.356 123.084 219.645L120.25 217.437C89.7363 193.703 62.2961 166.263 38.5628 135.749C35.0177 131.191 35.0186 124.808 38.5628 120.249C62.2958 89.7356 89.7367 62.2949 120.25 38.5617L123.084 36.3534Z" fill="black"/>
<path d="M208.417 36.3534C211.903 33.6436 216.933 34.2661 219.646 37.7492C222.354 41.2347 221.731 46.2655 218.25 48.9784L215.406 51.1867C186.635 73.5649 160.699 99.3643 138.157 127.999C160.699 156.633 186.635 182.434 215.406 204.812L218.25 207.02C221.731 209.734 222.356 214.764 219.646 218.249C216.934 221.732 211.903 222.353 208.417 219.645L205.584 217.437C175.07 193.704 147.629 166.262 123.896 135.749C120.351 131.191 120.351 124.808 123.896 120.249C147.629 89.7355 175.07 62.2949 205.584 38.5617L208.417 36.3534Z" fill="black"/>
</svg>
