<svg width="256" height="256" viewBox="0 0 256 256" fill="none" xmlns="http://www.w3.org/2000/svg">
<path d="M89.6045 218.133C92.2561 221.665 97.2689 222.377 100.802 219.727C129.805 197.974 154.316 170.804 172.969 139.716L177.532 132.112C179.049 129.58 179.049 126.415 177.532 123.883L172.969 116.279C154.316 85.1911 129.805 58.0211 100.802 36.2683C97.2689 33.6181 92.2561 34.3303 89.6045 37.862C86.9543 41.3955 87.6665 46.4083 91.1982 49.0599C118.546 69.571 141.662 95.1946 159.25 124.508L161.334 127.997L159.25 131.487C141.662 160.8 118.546 186.424 91.1982 206.935C87.6665 209.587 86.9543 214.599 89.6045 218.133Z" fill="black"/>
</svg>
