<svg width="256" height="256" viewBox="0 0 256 256" fill="none" xmlns="http://www.w3.org/2000/svg">
<path d="M218.135 177.06C221.667 174.409 222.379 169.396 219.729 165.862C197.976 136.859 170.806 112.348 139.718 93.6956L132.114 89.1331C129.582 87.6155 126.417 87.6155 123.885 89.1331L116.281 93.6956C85.1933 112.348 58.0233 136.859 36.2705 165.862C33.6203 169.396 34.3325 174.409 37.8642 177.06C41.3977 179.71 46.4105 178.998 49.0621 175.466C69.5732 148.118 95.1968 125.003 124.51 107.414L128 105.331L131.489 107.414C160.802 125.003 186.426 148.118 206.937 175.466C209.589 178.998 214.602 179.71 218.135 177.06Z" fill="black"/>
</svg>
