<svg width="256" height="256" viewBox="0 0 256 256" fill="none" xmlns="http://www.w3.org/2000/svg">
<path d="M89.0944 43.8837C92.8405 41.5427 97.7732 42.6802 100.115 46.4253C102.457 50.1716 101.319 55.1041 97.5736 57.4462C82.5696 66.8236 70.5395 80.2003 62.7819 95.9983C96.7522 95.9983 127.972 95.9984 152.021 95.9983C182.955 95.998 207.999 121.076 208.001 151.998C208.001 182.926 182.928 207.997 152.001 207.998H136.001C131.583 207.998 128.001 204.416 128.001 199.998C128.002 195.582 131.584 191.998 136.001 191.998H152.001C174.092 191.997 192.001 174.089 192.001 151.998C191.999 129.902 174.107 111.998 152.021 111.998C127.97 111.998 96.7458 111.998 62.7715 111.998C70.5289 127.799 82.568 141.172 97.5736 150.55C101.319 152.892 102.456 157.825 100.115 161.571C97.7733 165.317 92.8408 166.454 89.0944 164.113C69.1729 151.661 53.7258 133.196 45.0006 111.384L43.2402 106.967C42.4786 105.061 42.4784 102.935 43.2402 101.03L45.0006 96.6128C53.726 74.8008 69.1729 56.3349 89.0944 43.8837Z" fill="black"/>
</svg>
