<svg width="256" height="256" viewBox="0 0 256 256" fill="none" xmlns="http://www.w3.org/2000/svg">
<path d="M37.8642 89.6069C34.3325 92.2585 33.6203 97.2713 36.2705 100.805C58.0233 129.808 85.1933 154.319 116.281 172.971L123.885 177.534C126.417 179.052 129.582 179.052 132.114 177.534L139.718 172.971C170.806 154.319 197.976 129.808 219.729 100.805C222.379 97.2713 221.667 92.2585 218.135 89.6069C214.602 86.9568 209.589 87.6689 206.937 91.2006C186.426 118.549 160.803 141.664 131.489 159.253L128 161.336L124.51 159.253C95.1968 141.664 69.5732 118.549 49.0621 91.2007C46.4105 87.6689 41.3977 86.9568 37.8642 89.6069Z" fill="black"/>
</svg>
