<svg width="256" height="256" viewBox="0 0 256 256" fill="none" xmlns="http://www.w3.org/2000/svg">
<path d="M25.6876 37.7491C28.4008 34.2655 33.4306 33.6422 36.9167 36.3533L39.7501 38.5616C70.2641 62.2949 97.7042 89.7351 121.438 120.249C124.983 124.807 124.983 131.191 121.438 135.749C97.7041 166.263 70.2642 193.703 39.7501 217.437L36.9167 219.645C33.4306 222.356 28.4009 221.733 25.6876 218.249C22.9765 214.763 23.5998 209.733 27.0834 207.02L29.9271 204.812C58.6994 182.433 84.6343 156.634 107.177 127.999C84.6343 99.364 58.6993 73.5649 29.9271 51.1866L27.0834 48.9783C23.6 46.2648 22.9762 41.2351 25.6876 37.7491Z" fill="black"/>
<path d="M121.688 37.7491C124.401 34.2655 129.431 33.6422 132.917 36.3533L135.75 38.5616C166.264 62.2949 193.704 89.7351 217.438 120.249C220.983 124.807 220.983 131.191 217.438 135.749C193.704 166.263 166.264 193.703 135.75 217.437L132.917 219.645C129.431 222.356 124.401 221.733 121.688 218.249C118.977 214.763 119.6 209.733 123.083 207.02L125.927 204.812C154.699 182.433 180.634 156.634 203.177 127.999C180.634 99.364 154.699 73.5649 125.927 51.1866L123.083 48.9783C119.6 46.2648 118.976 41.2351 121.688 37.7491Z" fill="black"/>
</svg>
