<svg width="256" height="256" viewBox="0 0 256 256" fill="none" xmlns="http://www.w3.org/2000/svg">
<path d="M126.428 210.508C122.098 209.64 119.286 205.426 120.152 201.095C121.02 196.764 125.241 193.96 129.573 194.827C148.142 198.54 167.053 199.247 185.825 197.147L47.681 58.9886C44.5569 55.8644 44.5568 50.7991 47.681 47.6749C50.8055 44.5537 55.8716 44.5517 58.9947 47.6749L197.256 185.951C199.451 167.194 198.59 148.399 194.826 129.574C193.959 125.243 196.763 121.021 201.094 120.153C205.426 119.287 209.648 122.104 210.514 126.436C215.693 152.329 215.836 178.326 210.5 204.277C209.849 207.44 207.364 209.906 204.195 210.523C178.492 215.516 152.191 215.661 126.428 210.508Z" fill="black"/>
</svg>
