<svg width="256" height="256" viewBox="0 0 256 256" fill="none" xmlns="http://www.w3.org/2000/svg">
<path d="M39.0938 152.843C54.6493 145.067 72.6575 143.782 89.1563 149.281L98.5313 152.406C100.92 153.202 102.798 155.079 103.594 157.468L106.719 166.843C112.218 183.342 110.933 201.35 103.156 216.906C101.181 220.856 96.3782 222.462 92.4271 220.489C88.4767 218.514 86.8711 213.711 88.8438 209.76C94.2579 198.932 95.4972 186.53 92.4167 174.895L26.9896 240.322C23.8654 243.446 18.8013 243.446 15.6771 240.322C12.5529 237.198 12.5529 232.134 15.6771 229.01L81.1042 163.583C69.4697 160.502 57.0679 161.741 46.2396 167.156C42.2886 169.128 37.4857 167.523 35.5105 163.572C33.5378 159.621 35.1434 154.818 39.0938 152.843Z" fill="black"/>
<path d="M166.844 149.281C183.343 143.782 201.351 145.067 216.906 152.843C220.857 154.818 222.462 159.621 220.49 163.572C218.514 167.523 213.712 169.128 209.76 167.156C198.932 161.741 186.53 160.502 174.896 163.583L240.323 229.01C243.447 232.134 243.447 237.198 240.323 240.322C237.199 243.446 232.135 243.446 229.01 240.322L163.583 174.895C160.503 186.53 161.742 198.932 167.156 209.76C169.129 213.711 167.523 218.514 163.573 220.489C159.622 222.462 154.819 220.856 152.844 216.906C145.067 201.35 143.782 183.342 149.281 166.843L152.406 157.468C153.203 155.079 155.08 153.202 157.469 152.406L166.844 149.281Z" fill="black"/>
<path d="M15.6771 15.6765C18.8013 12.5523 23.8654 12.5523 26.9896 15.6765L92.4167 81.1035C95.4972 69.4691 94.2579 57.0672 88.8438 46.239C86.8711 42.2879 88.4767 37.485 92.4271 35.5098C96.3782 33.5371 101.181 35.1427 103.156 39.0931C110.933 54.6487 112.218 72.6568 106.719 89.1556L103.594 98.5306C102.798 100.919 100.92 102.797 98.5313 103.593L89.1563 106.718C72.6575 112.217 54.6493 110.932 39.0938 103.156C35.1434 101.18 33.5378 96.3775 35.5105 92.4265C37.4857 88.476 42.2886 86.8704 46.2396 88.8431C57.0679 94.2573 69.4697 95.4966 81.1042 92.416L15.6771 26.989C12.5529 23.8648 12.5529 18.8007 15.6771 15.6765Z" fill="black"/>
<path d="M229.01 15.6765C232.135 12.5523 237.199 12.5523 240.323 15.6765C243.447 18.8007 243.447 23.8648 240.323 26.989L174.896 92.416C186.53 95.4966 198.932 94.2573 209.76 88.8431C213.712 86.8704 218.514 88.476 220.49 92.4265C222.462 96.3775 220.857 101.18 216.906 103.156C201.351 110.932 183.343 112.217 166.844 106.718L157.469 103.593C155.08 102.797 153.203 100.919 152.406 98.5306L149.281 89.1556C143.782 72.6568 145.067 54.6487 152.844 39.0931C154.819 35.1427 159.622 33.5371 163.573 35.5098C167.523 37.485 169.129 42.2879 167.156 46.239C161.742 57.0672 160.503 69.4691 163.583 81.1035L229.01 15.6765Z" fill="black"/>
</svg>
