<svg width="256" height="256" viewBox="0 0 256 256" fill="none" xmlns="http://www.w3.org/2000/svg">
<path d="M128 56C132.418 56.0007 136 59.5822 136 64V178.323C144.876 172.768 153.118 166.236 160.542 158.813L165.01 154.344C168.134 151.22 173.199 151.22 176.323 154.344C179.447 157.468 179.446 162.532 176.323 165.656L171.854 170.125C160.075 181.904 146.473 191.708 131.573 199.156L130.719 199.521C128.67 200.262 126.389 200.142 124.417 199.156C109.52 191.708 95.9231 181.902 84.1458 170.125L79.6771 165.656C76.5536 162.532 76.5531 157.468 79.6771 154.344C82.8011 151.22 87.8656 151.22 90.9896 154.344L95.4583 158.813C102.882 166.237 111.125 172.767 120 178.323V64C120 59.5817 123.582 56 128 56Z" fill="black"/>
<path fill-rule="evenodd" clip-rule="evenodd" d="M128 0C234.667 0 256 21.3333 256 128C256 234.667 234.667 256 128 256C21.3333 256 0 234.667 0 128C0 21.3333 21.3333 0 128 0ZM128 16C101.652 16 81.6814 17.3344 66.375 20.6354C51.2482 23.8981 41.7737 28.8513 35.3125 35.3125C28.8513 41.7737 23.8981 51.2482 20.6354 66.375C17.3344 81.6814 16 101.652 16 128C16 154.348 17.3344 174.319 20.6354 189.625C23.8981 204.752 28.8513 214.226 35.3125 220.688C41.7737 227.149 51.2482 232.102 66.375 235.365C81.6814 238.666 101.652 240 128 240C154.348 240 174.319 238.666 189.625 235.365C204.752 232.102 214.226 227.149 220.688 220.688C227.149 214.226 232.102 204.752 235.365 189.625C238.666 174.319 240 154.348 240 128C240 101.652 238.666 81.6814 235.365 66.375C232.102 51.2482 227.149 41.7737 220.688 35.3125C214.226 28.8513 204.752 23.8981 189.625 20.6354C174.319 17.3344 154.348 16 128 16Z" fill="black"/>
</svg>
