<svg width="256" height="256" viewBox="0 0 256 256" fill="none" xmlns="http://www.w3.org/2000/svg">
<path d="M164.01 70.2299C166.461 66.5537 171.428 65.5603 175.104 68.0112L176.042 68.6362C197.426 82.8923 215.775 101.242 230.031 122.626L230.656 123.563C232.448 126.25 232.448 129.751 230.656 132.438L230.031 133.376C215.775 154.76 197.426 173.109 176.042 187.365L175.104 187.99C171.428 190.441 166.461 189.448 164.01 185.772C161.56 182.095 162.553 177.129 166.229 174.678L167.167 174.053C182.843 163.602 196.737 150.75 208.365 136.001H32C27.5817 136.001 24 132.419 24 128.001C24 123.582 27.5817 120.001 32 120.001H208.365C196.737 105.251 182.843 92.3996 167.167 81.9487L166.229 81.3237C162.553 78.8728 161.56 73.9061 164.01 70.2299Z" fill="black"/>
</svg>
