<svg width="256" height="256" viewBox="0 0 256 256" fill="none" xmlns="http://www.w3.org/2000/svg">
<path d="M80.8957 68.0111C84.5719 65.5603 89.5386 66.5536 91.9894 70.2298C94.4403 73.9061 93.4469 78.8728 89.7707 81.3236L87.4998 82.834C72.2356 93.0103 58.7358 105.567 47.4998 120.001H224C228.418 120.001 232 123.582 232 128.001C232 132.419 228.418 136.001 224 136.001H47.4998C58.7358 150.434 72.2356 162.991 87.4998 173.167L89.7707 174.678C93.4469 177.129 94.4403 182.095 91.9894 185.772C89.5386 189.448 84.5719 190.441 80.8957 187.99L78.6248 186.48C58.12 172.81 40.5242 155.214 26.854 134.709L25.3436 132.438C23.5521 129.751 23.5521 126.25 25.3436 123.563L26.854 121.292C40.5242 100.787 58.12 83.1916 78.6248 69.5215L80.8957 68.0111Z" fill="black"/>
</svg>
