<svg width="256" height="256" viewBox="0 0 256 256" fill="none" xmlns="http://www.w3.org/2000/svg">
<path d="M107.51 4.4265C109.486 0.477362 114.289 -1.12924 118.24 0.843167C133.497 8.47205 146.078 20.9408 153.729 36.239C154.91 38.6015 154.909 41.3864 153.729 43.7494C146.079 59.0502 133.499 71.5256 118.24 79.1557C114.289 81.1282 109.486 79.5227 107.51 75.5723C105.538 71.6214 107.144 66.8183 111.094 64.8432C119.213 60.7827 126.36 54.9961 132.031 47.9994H125.333C101.026 47.9994 82.0621 49.0579 67.2188 51.8223C52.4054 54.5817 42.3165 58.9314 35.2292 65.0515C21.1774 77.1871 16.0001 98.85 16 141.333C16.0001 183.815 21.1779 205.478 35.2292 217.614C42.3165 223.734 52.4056 228.084 67.2188 230.843C82.0621 233.608 101.026 234.666 125.333 234.666C149.641 234.666 168.604 233.608 183.448 230.843C198.262 228.084 208.35 223.734 215.438 217.614C229.489 205.478 234.667 183.815 234.667 141.333C234.667 115.323 232.76 96.881 227.802 83.614C223.058 70.9227 215.484 62.8557 203.042 57.4786C198.987 55.7255 197.122 51.0131 198.875 46.9577C200.628 42.9054 205.332 41.0418 209.385 42.7911C225.887 49.9227 236.548 61.3062 242.792 78.0098C248.819 94.1382 250.667 115.043 250.667 141.333C250.667 183.291 246.064 212.299 225.896 229.718C215.872 238.375 202.726 243.526 186.375 246.572C170.054 249.612 149.909 250.666 125.333 250.666C100.754 250.666 80.6036 249.613 64.2813 246.572C47.9312 243.526 34.7937 238.374 24.7708 229.718C4.60199 212.299 6.60867e-05 183.291 0 141.333C0.000107108 99.3744 4.60222 70.3668 24.7708 52.9473C34.7936 44.2916 47.9316 39.139 64.2813 36.0932C80.6036 33.0528 100.755 31.9994 125.333 31.9994H132.031C126.36 25.0033 119.213 19.2158 111.094 15.1557C107.143 13.1804 105.538 8.37754 107.51 4.4265Z" fill="black"/>
</svg>
