<svg width="256" height="256" viewBox="0 0 256 256" fill="none" xmlns="http://www.w3.org/2000/svg">
<path d="M166.396 218.133C163.745 221.664 158.732 222.376 155.198 219.726C126.196 197.973 101.684 170.804 83.0318 139.716L78.4693 132.112C76.9516 129.58 76.9516 126.415 78.4693 123.883L83.0318 116.278C101.684 85.1909 126.196 58.0209 155.198 36.268C158.732 33.6179 163.745 34.33 166.396 37.8618C169.047 41.3953 168.334 46.4081 164.803 49.0597C137.455 69.5708 114.339 95.1943 96.7505 124.508L94.6672 127.997L96.7505 131.487C114.339 160.8 137.455 186.424 164.803 206.935C168.334 209.586 169.047 214.599 166.396 218.133Z" fill="black"/>
</svg>
