<svg width="256" height="256" viewBox="0 0 256 256" fill="none" xmlns="http://www.w3.org/2000/svg">
<path d="M154.344 79.6771C157.468 76.5531 162.532 76.5536 165.656 79.6771L170.125 84.1458C181.904 95.9247 191.708 109.527 199.156 124.427L199.521 125.281C200.262 127.33 200.142 129.611 199.156 131.583C191.708 146.48 181.902 160.077 170.125 171.854L165.656 176.323C162.532 179.446 157.468 179.447 154.344 176.323C151.22 173.199 151.22 168.134 154.344 165.01L158.813 160.542C166.237 153.118 172.767 144.875 178.323 136H64C59.5817 136 56 132.418 56 128C56.0008 123.582 59.5822 120 64 120H178.323C172.768 111.124 166.236 102.882 158.813 95.4583L154.344 90.9896C151.22 87.8656 151.22 82.8011 154.344 79.6771Z" fill="black"/>
<path fill-rule="evenodd" clip-rule="evenodd" d="M128 0C234.667 0 256 21.3333 256 128C256 234.667 234.667 256 128 256C21.3333 256 0 234.667 0 128C0 21.3333 21.3333 0 128 0ZM128 16C101.652 16 81.6814 17.3344 66.375 20.6354C51.2482 23.8981 41.7737 28.8513 35.3125 35.3125C28.8513 41.7737 23.8981 51.2482 20.6354 66.375C17.3344 81.6814 16 101.652 16 128C16 154.348 17.3344 174.319 20.6354 189.625C23.8981 204.752 28.8513 214.226 35.3125 220.688C41.7737 227.149 51.2482 232.102 66.375 235.365C81.6814 238.666 101.652 240 128 240C154.348 240 174.319 238.666 189.625 235.365C204.752 232.102 214.226 227.149 220.688 220.688C227.149 214.226 232.102 204.752 235.365 189.625C238.666 174.319 240 154.348 240 128C240 101.652 238.666 81.6814 235.365 66.375C232.102 51.2482 227.149 41.7737 220.688 35.3125C214.226 28.8513 204.752 23.8981 189.625 20.6354C174.319 17.3344 154.348 16 128 16Z" fill="black"/>
</svg>
