<svg width="256" height="256" viewBox="0 0 256 256" fill="none" xmlns="http://www.w3.org/2000/svg">
<path d="M225.708 85.4191C229.738 85.4191 233.148 88.435 233.489 92.4504C234.313 102.148 234.666 113.059 234.666 125.325C234.666 214.214 216.889 231.992 128 231.992C89.0027 231.992 63.7099 228.562 47.5934 217.211C49.0173 222.918 51.0392 228.477 53.6872 233.773L54.9684 236.315C56.9417 240.265 55.3329 245.067 51.3851 247.044C47.4336 249.019 42.6213 247.422 40.6455 243.471L39.3851 240.94C32.6505 227.472 29.1354 212.613 29.1351 197.555C29.1352 194.327 30.9674 191.374 33.8538 189.93L35.8122 188.95C49.4698 182.122 64.5322 178.566 79.8018 178.565C84.2199 178.565 87.8015 182.147 87.8018 186.565C87.8004 190.98 84.2272 194.562 79.8122 194.565C70.1755 194.565 60.6513 196.296 51.6455 199.586C51.9806 199.957 52.3 200.334 52.6455 200.68C57.5512 205.585 64.9146 209.538 77.208 212.19C89.6811 214.88 106.096 215.992 128 215.992C149.903 215.992 166.318 214.88 178.791 212.19C191.085 209.538 198.448 205.585 203.354 200.68C208.259 195.774 212.213 188.41 214.864 176.117C217.554 163.644 218.666 147.229 218.666 125.325C218.666 113.497 218.338 103.269 217.614 94.3983C217.225 89.628 220.923 85.4215 225.708 85.4191Z" fill="black"/>
<path d="M199.093 3.60664C203.044 1.63246 207.846 3.2295 209.823 7.17956L211.093 9.71081C217.828 23.1787 221.333 38.0385 221.333 53.0962C221.333 56.3235 219.51 59.2768 216.625 60.7212L214.656 61.7004C200.997 68.5294 185.937 72.0857 170.666 72.0858C166.249 72.0855 162.667 68.5036 162.666 64.0858C162.668 59.6695 166.25 56.0861 170.666 56.0858C181.739 56.0857 192.653 53.7974 202.812 49.4816C197.909 44.8117 190.656 41.0198 178.791 38.4608C166.318 35.7709 149.903 34.6587 128 34.6587C106.096 34.6587 89.6811 35.7709 77.208 38.4608C64.9147 41.1123 57.5512 45.0656 52.6455 49.9712C47.7399 54.8769 43.7866 62.2405 41.1351 74.5337C38.4452 87.0068 37.333 103.422 37.333 125.325C37.333 130.889 37.4078 136.101 37.5622 140.982C37.7056 145.566 34.0659 149.419 29.4788 149.419C25.2286 149.419 21.7097 146.094 21.5726 141.846C21.4055 136.633 21.333 131.13 21.333 125.325C21.3331 36.4368 39.1109 18.6587 128 18.6587C162.011 18.6587 185.607 21.2661 201.781 29.4608C200.468 25.1482 198.81 20.9352 196.781 16.8775L195.51 14.3358C193.536 10.3845 195.143 5.58221 199.093 3.60664Z" fill="black"/>
</svg>
