<svg width="256" height="256" viewBox="0 0 256 256" fill="none" xmlns="http://www.w3.org/2000/svg">
<path d="M126.428 45.7656C122.098 46.6341 119.287 50.8479 120.153 55.179C121.02 59.5091 125.236 62.3182 129.566 61.4545C148.133 57.7408 167.048 57.0209 185.818 59.1196L47.6818 197.005C44.5548 200.127 44.5531 205.199 47.6744 208.327C50.7949 211.45 55.8544 211.451 58.9808 208.334L197.25 70.3155C199.441 88.9957 198.59 107.616 194.826 126.435C193.96 130.767 196.769 134.981 201.102 135.848C205.433 136.713 209.649 133.904 210.515 129.572C215.694 103.678 215.837 77.9495 210.501 51.997C209.85 48.8336 207.366 46.3671 204.195 45.7509C178.493 40.7575 152.191 40.6125 126.428 45.7656Z" fill="black"/>
</svg>
