<svg width="256" height="256" viewBox="0 0 256 256" fill="none" xmlns="http://www.w3.org/2000/svg">
<path d="M90.3438 79.6771C93.468 76.5536 98.5323 76.5531 101.656 79.6771C104.78 82.8011 104.78 87.8656 101.656 90.9896L97.1875 95.4583C89.7635 102.882 83.2327 111.125 77.6771 120H192C196.418 120 200 123.582 200 128C199.999 132.418 196.418 136 192 136H77.6771C83.2324 144.876 89.7635 153.118 97.1875 160.542L101.656 165.01C104.78 168.134 104.78 173.199 101.656 176.323C98.5323 179.447 93.468 179.446 90.3438 176.323L85.875 171.854C74.0963 160.075 64.2922 146.473 56.8438 131.573L56.4792 130.719C55.7382 128.67 55.8577 126.389 56.8438 124.417C64.2925 109.52 74.0977 95.9231 85.875 84.1458L90.3438 79.6771Z" fill="black"/>
<path fill-rule="evenodd" clip-rule="evenodd" d="M128 0C234.667 0 256 21.3333 256 128C256 234.667 234.667 256 128 256C21.3333 256 0 234.667 0 128C0 21.3333 21.3333 0 128 0ZM128 16C101.652 16 81.6814 17.3344 66.375 20.6354C51.2482 23.8981 41.7737 28.8513 35.3125 35.3125C28.8513 41.7737 23.8981 51.2482 20.6354 66.375C17.3344 81.6814 16 101.652 16 128C16 154.348 17.3344 174.319 20.6354 189.625C23.8981 204.752 28.8513 214.226 35.3125 220.688C41.7737 227.149 51.2482 232.102 66.375 235.365C81.6814 238.666 101.652 240 128 240C154.348 240 174.319 238.666 189.625 235.365C204.752 232.102 214.226 227.149 220.688 220.688C227.149 214.226 232.102 204.752 235.365 189.625C238.666 174.319 240 154.348 240 128C240 101.652 238.666 81.6814 235.365 66.375C232.102 51.2482 227.149 41.7737 220.688 35.3125C214.226 28.8513 204.752 23.8981 189.625 20.6354C174.319 17.3344 154.348 16 128 16Z" fill="black"/>
</svg>
