<svg width="256" height="256" viewBox="0 0 256 256" fill="none" xmlns="http://www.w3.org/2000/svg">
<path d="M78.2292 118.677C81.9052 116.227 86.872 117.221 89.3229 120.896C91.7737 124.572 90.7801 129.539 87.1042 131.99C77.0366 138.702 65.4582 149.341 56.25 160H210.667C215.085 160 218.666 163.582 218.667 168C218.667 172.419 215.085 176 210.667 176H56.25C65.4581 186.659 77.0365 197.299 87.1042 204.011C90.7802 206.461 91.7732 211.428 89.3229 215.105C86.8721 218.781 81.9054 219.774 78.2292 217.323C62.4135 206.779 43.8875 188.253 33.3438 172.438C31.5528 169.751 31.5525 166.25 33.3438 163.563C43.8876 147.747 62.4136 129.221 78.2292 118.677Z" fill="black"/>
<path d="M161.344 35.5629C163.795 31.8872 168.762 30.8937 172.438 33.3441C188.253 43.8878 206.779 62.4139 217.323 78.2295C219.114 80.9165 219.114 84.4174 217.323 87.1045C206.779 102.92 188.253 121.446 172.438 131.99C168.761 134.441 163.795 133.447 161.344 129.771C158.893 126.095 159.886 121.128 163.563 118.677C173.63 111.966 185.209 101.326 194.417 90.667H40C35.5817 90.667 32 87.0853 32 82.667C32.0005 78.2491 35.582 74.667 40 74.667H194.417C185.208 64.0081 173.63 53.3683 163.563 46.6566C159.887 44.2057 158.893 39.2389 161.344 35.5629Z" fill="black"/>
</svg>
