<svg width="256" height="256" viewBox="0 0 256 256" fill="none" xmlns="http://www.w3.org/2000/svg">
<path d="M112.896 68.0104C116.572 65.5596 121.539 66.5529 123.99 70.2292C126.44 73.9054 125.447 78.8721 121.771 81.3229C104.876 92.586 90.0162 106.642 77.8333 122.885L73.9896 128L77.8333 133.115C90.0162 149.358 104.876 163.414 121.771 174.677C125.447 177.128 126.44 182.095 123.99 185.771C121.539 189.447 116.572 190.44 112.896 187.99C94.4933 175.721 78.3123 160.412 65.0417 142.719L57.6042 132.802C55.4708 129.958 55.4708 126.042 57.6042 123.198L65.0417 113.281C78.3123 95.5879 94.4933 80.2788 112.896 68.0104Z" fill="black"/>
<path d="M187.563 68.0104C191.239 65.5596 196.205 66.5529 198.656 70.2292C201.107 73.9054 200.114 78.8721 196.438 81.3229C179.543 92.586 164.683 106.642 152.5 122.885L148.656 128L152.5 133.115C164.683 149.358 179.543 163.414 196.438 174.677C200.114 177.128 201.107 182.095 198.656 185.771C196.205 189.447 191.239 190.44 187.563 187.99C169.16 175.721 152.979 160.412 139.708 142.719L132.271 132.802C130.138 129.958 130.138 126.042 132.271 123.198L139.708 113.281C152.979 95.5879 169.16 80.2788 187.563 68.0104Z" fill="black"/>
<path fill-rule="evenodd" clip-rule="evenodd" d="M128 0C234.667 0 256 21.3333 256 128C256 234.667 234.667 256 128 256C21.3333 256 0 234.667 0 128C0 21.3333 21.3333 0 128 0ZM128 16C101.652 16 81.6814 17.3344 66.375 20.6354C51.2482 23.8981 41.7737 28.8513 35.3125 35.3125C28.8513 41.7737 23.8981 51.2482 20.6354 66.375C17.3344 81.6814 16 101.652 16 128C16 154.348 17.3344 174.319 20.6354 189.625C23.8981 204.752 28.8513 214.226 35.3125 220.688C41.7737 227.149 51.2482 232.102 66.375 235.365C81.6814 238.666 101.652 240 128 240C154.348 240 174.319 238.666 189.625 235.365C204.752 232.102 214.226 227.149 220.688 220.688C227.149 214.226 232.102 204.752 235.365 189.625C238.666 174.319 240 154.348 240 128C240 101.652 238.666 81.6814 235.365 66.375C232.102 51.2482 227.149 41.7737 220.688 35.3125C214.226 28.8513 204.752 23.8981 189.625 20.6354C174.319 17.3344 154.348 16 128 16Z" fill="black"/>
</svg>
