<svg width="256" height="256" viewBox="0 0 256 256" fill="none" xmlns="http://www.w3.org/2000/svg">
<path d="M129.573 45.4947C133.904 46.363 136.715 50.5769 135.849 54.9081C134.981 59.2378 130.766 62.0475 126.435 61.1837C107.861 57.4683 88.939 56.7542 70.1615 58.8561L208.32 197.014C211.444 200.139 211.444 205.204 208.32 208.328C205.195 211.449 200.129 211.451 197.006 208.328L58.7447 70.0667C56.5525 88.8208 57.418 107.614 61.1827 126.436C62.0468 130.767 59.2366 134.982 54.9072 135.85C50.5758 136.716 46.3618 133.905 45.4938 129.574C40.3144 103.679 40.1644 77.6789 45.5012 51.7261C46.1516 48.563 48.6365 46.0966 51.8062 45.48C77.509 40.4866 103.81 40.3416 129.573 45.4947Z" fill="black"/>
</svg>
