<svg width="256" height="256" viewBox="0 0 256 256" fill="none" xmlns="http://www.w3.org/2000/svg">
<path d="M144.896 68.0104C148.572 65.5596 153.539 66.5529 155.99 70.2292C158.44 73.9054 157.447 78.8721 153.771 81.3229C136.876 92.586 122.016 106.642 109.833 122.885L105.99 128L109.833 133.115C122.016 149.358 136.876 163.414 153.771 174.677C157.447 177.128 158.44 182.095 155.99 185.771C153.539 189.447 148.572 190.44 144.896 187.99C126.493 175.721 110.312 160.412 97.0417 142.719L89.6042 132.802C87.4708 129.958 87.4708 126.042 89.6042 123.198L97.0417 113.281C110.312 95.5879 126.493 80.2788 144.896 68.0104Z" fill="black"/>
<path fill-rule="evenodd" clip-rule="evenodd" d="M128 0C234.667 0 256 21.3333 256 128C256 234.667 234.667 256 128 256C21.3333 256 0 234.667 0 128C0 21.3333 21.3333 0 128 0ZM128 16C101.652 16 81.6814 17.3344 66.375 20.6354C51.2482 23.8981 41.7737 28.8513 35.3125 35.3125C28.8513 41.7737 23.8981 51.2482 20.6354 66.375C17.3344 81.6814 16 101.652 16 128C16 154.348 17.3344 174.319 20.6354 189.625C23.8981 204.752 28.8513 214.226 35.3125 220.688C41.7737 227.149 51.2482 232.102 66.375 235.365C81.6814 238.666 101.652 240 128 240C154.348 240 174.319 238.666 189.625 235.365C204.752 232.102 214.226 227.149 220.688 220.688C227.149 214.226 232.102 204.752 235.365 189.625C238.666 174.319 240 154.348 240 128C240 101.652 238.666 81.6814 235.365 66.375C232.102 51.2482 227.149 41.7737 220.688 35.3125C214.226 28.8513 204.752 23.8981 189.625 20.6354C174.319 17.3344 154.348 16 128 16Z" fill="black"/>
</svg>
