<svg width="256" height="256" viewBox="0 0 256 256" fill="none" xmlns="http://www.w3.org/2000/svg">
<path fill-rule="evenodd" clip-rule="evenodd" d="M128 101.333C157.455 101.333 181.333 125.211 181.333 154.667C181.333 184.122 157.455 208 128 208C98.5445 208 74.6663 184.122 74.6663 154.667C74.6663 125.211 98.5445 101.333 128 101.333ZM128 117.333C107.381 117.333 90.6663 134.048 90.6663 154.667C90.6663 175.285 107.381 192 128 192C148.618 192 165.333 175.285 165.333 154.667C165.333 134.048 148.618 117.333 128 117.333Z" fill="black"/>
<path fill-rule="evenodd" clip-rule="evenodd" d="M128 0C177.298 0 202.661 34.3658 210.562 81.7917C225.627 100.185 234.666 123.703 234.666 149.333C234.666 234.667 210.963 256 128 256C45.0367 256 21.333 234.667 21.333 149.333C21.333 123.706 30.3646 100.184 45.4268 81.7917C53.3277 34.3649 78.701 1.77284e-06 128 0ZM128 16C107.481 16 93.1635 22.9623 82.9059 34C72.2456 45.4713 64.8426 62.6024 61.208 84.4167C60.7487 87.1737 59.5727 89.7646 57.8018 91.9271C44.9978 107.562 37.333 127.532 37.333 149.333C37.333 191.812 43.5657 212.257 54.7601 223.25C66.0326 234.318 86.5534 240 128 240C169.446 240 189.967 234.318 201.239 223.25C212.434 212.257 218.666 191.812 218.666 149.333C218.666 127.533 210.996 107.566 198.187 91.9271C196.416 89.7645 195.24 87.174 194.781 84.4167C191.146 62.6014 183.741 45.4711 173.083 34C162.828 22.9636 148.517 16 128 16Z" fill="black"/>
</svg>
