<svg width="256" height="256" viewBox="0 0 256 256" fill="none" xmlns="http://www.w3.org/2000/svg">
<path fill-rule="evenodd" clip-rule="evenodd" d="M128 0C165.906 0.000565599 182.223 8.98954 188.51 46.1042C243.299 54.5198 256 80.7538 256 149.333C256 238.222 234.667 256 128 256C21.3333 256 0 238.222 0 149.333C0 80.7666 12.6957 54.5249 67.4583 46.1042C73.7454 8.98524 90.0922 0.000617209 128 0ZM238.219 114.031C223.131 125.854 206.614 134.898 189.333 141.208V149.333C189.333 153.752 185.752 157.333 181.333 157.333C176.915 157.333 173.333 153.752 173.333 149.333V146.229C143.633 154.004 112.367 154.004 82.6667 146.229V149.333C82.6667 153.752 79.0849 157.333 74.6667 157.333C70.2484 157.333 66.6667 153.752 66.6667 149.333V141.208C49.384 134.897 32.8607 125.856 17.7708 114.031C16.5833 123.599 16 135.191 16 149.333C16 194.211 21.8893 213.415 34.2396 223.708C40.6352 229.038 50.2958 233.291 65.8333 236.083C81.4034 238.882 101.594 240 128 240C154.406 240 174.597 238.882 190.167 236.083C205.704 233.291 215.365 229.038 221.76 223.708C234.111 213.415 240 194.211 240 149.333C240 135.191 239.406 123.599 238.219 114.031ZM128 58.6667C101.594 58.6667 81.4034 59.7851 65.8333 62.5833C50.2958 65.376 40.6352 69.6287 34.2396 74.9583C28.1492 80.0344 23.6311 87.2778 20.6146 98.6979C22.6001 98.5185 24.6548 99.0738 26.3333 100.417C38.8236 110.409 52.4314 118.27 66.6667 124.063V117.333C66.6667 112.915 70.2484 109.333 74.6667 109.333C79.0849 109.333 82.6667 112.915 82.6667 117.333V129.615C112.258 138.187 143.742 138.187 173.333 129.615V117.333C173.333 112.915 176.915 109.333 181.333 109.333C185.752 109.333 189.333 112.915 189.333 117.333V124.063C203.569 118.27 217.176 110.409 229.667 100.417C231.342 99.0762 233.393 98.5214 235.375 98.6979C232.358 87.2792 227.85 80.0341 221.76 74.9583C215.365 69.6287 205.704 65.376 190.167 62.5833C174.597 59.7851 154.406 58.6667 128 58.6667ZM128 16C102.185 16.0005 94.3469 20.5179 89.7188 28.2292C87.5863 31.7839 85.6687 36.8386 84.1146 44.1563C96.8328 43.0914 111.381 42.6667 128 42.6667C144.61 42.6667 159.151 43.0927 171.865 44.1563C170.311 36.8409 168.413 31.7832 166.281 28.2292C161.653 20.5179 153.815 16.0004 128 16Z" fill="black"/>
</svg>
