<svg width="256" height="256" viewBox="0 0 256 256" fill="none" xmlns="http://www.w3.org/2000/svg">
<path fill-rule="evenodd" clip-rule="evenodd" d="M128 2.66675C157.53 2.66675 182.173 23.5388 188.01 51.3334C208.332 53.787 224.96 68.771 229.416 88.823L234.375 111.136C239.887 135.941 242.666 161.277 242.666 186.688C242.665 219.058 217.825 246.006 185.562 248.646L174.146 249.583C143.435 252.096 112.564 252.096 81.8538 249.583L70.4372 248.646C38.1748 246.006 13.3341 219.058 13.333 186.688C13.333 161.277 16.1124 135.941 21.6247 111.136L26.583 88.823C31.0383 68.7744 47.6621 53.7909 67.9788 51.3334C73.8154 23.5378 98.4688 2.66675 128 2.66675ZM173.333 66.0417C143.157 63.6642 112.842 63.6642 82.6663 66.0417V96.0001C82.6663 100.418 79.0846 104 74.6663 104C70.2481 104 66.6663 100.418 66.6663 96.0001V67.7709C54.5711 70.499 44.949 79.9604 42.208 92.2918L37.2497 114.604C31.9906 138.27 29.333 162.445 29.333 186.688C29.3341 210.727 47.7799 230.748 71.7393 232.708L83.1663 233.636C113.006 236.077 142.994 236.077 172.833 233.636L184.26 232.708C208.219 230.748 226.665 210.727 226.666 186.688C226.666 162.445 224.009 138.27 218.75 114.604L213.791 92.2918C211.05 79.9604 201.428 70.499 189.333 67.7709V96.0001C189.333 100.418 185.751 104 181.333 104C176.915 104 173.333 100.418 173.333 96.0001V66.0417ZM128 18.6667C107.919 18.6667 90.8928 31.7254 84.9372 49.8126C113.604 47.7259 142.385 47.7264 171.052 49.8126C165.095 31.7271 148.08 18.6667 128 18.6667Z" fill="black"/>
</svg>
