<svg width="256" height="256" viewBox="0 0 256 256" fill="none" xmlns="http://www.w3.org/2000/svg">
<path d="M106.667 173.333C113.333 173.333 114.667 174.667 114.667 181.333C114.667 188 113.333 189.333 106.667 189.333C100 189.333 98.6667 188 98.6667 181.333C98.6667 174.667 100 173.333 106.667 173.333Z" fill="black"/>
<path d="M149.333 173.333C156 173.333 157.333 174.667 157.333 181.333C157.333 188 156 189.333 149.333 189.333C142.667 189.333 141.333 188 141.333 181.333C141.333 174.667 142.667 173.333 149.333 173.333Z" fill="black"/>
<path d="M106.667 120C113.333 120 114.667 121.333 114.667 128C114.667 134.667 113.333 136 106.667 136C100 136 98.6667 134.667 98.6667 128C98.6667 121.333 100 120 106.667 120Z" fill="black"/>
<path d="M149.333 120C156 120 157.333 121.333 157.333 128C157.333 134.667 156 136 149.333 136C142.667 136 141.333 134.667 141.333 128C141.333 121.333 142.667 120 149.333 120Z" fill="black"/>
<path d="M106.667 66.6666C113.333 66.6666 114.667 67.9999 114.667 74.6666C114.667 81.3333 113.333 82.6666 106.667 82.6666C100 82.6666 98.6667 81.3333 98.6667 74.6666C98.6667 67.9999 100 66.6666 106.667 66.6666Z" fill="black"/>
<path d="M149.333 66.6666C156 66.6666 157.333 67.9999 157.333 74.6666C157.333 81.3333 156 82.6666 149.333 82.6666C142.667 82.6666 141.333 81.3333 141.333 74.6666C141.333 67.9999 142.667 66.6666 149.333 66.6666Z" fill="black"/>
<path fill-rule="evenodd" clip-rule="evenodd" d="M128 21.3333C234.667 21.3333 256 39.111 256 128L255.938 136.125C254.586 217.982 231.334 234.667 128 234.667L118.25 234.615C23.1891 233.524 1.37083 215.342 0.0625 136.125L0 128C0 39.111 21.3333 21.3333 128 21.3333ZM128 37.3333C104.754 37.3333 86.3254 38.2063 71.625 40.3228C71.9481 41.3714 72.0821 42.4968 71.9375 43.6562C64.9363 99.6656 64.9363 156.334 71.9375 212.344C72.0816 213.5 71.9459 214.621 71.625 215.667C86.3257 217.783 104.753 218.667 128 218.667C151.242 218.667 169.666 217.782 184.365 215.667C184.044 214.622 183.919 213.498 184.063 212.344C191.064 156.334 191.064 99.6656 184.063 43.6562C183.918 42.4979 184.042 41.3706 184.365 40.3228C169.666 38.2073 151.241 37.3333 128 37.3333ZM55.8438 43.4583C45.9482 46.1042 39.1359 49.5447 34.2396 53.6249C21.8893 63.9184 16 83.1226 16 128C16 172.877 21.8893 192.081 34.2396 202.375C39.1355 206.455 45.9496 209.885 55.8438 212.531C48.9732 156.383 48.9724 99.6067 55.8438 43.4583ZM200.146 43.4583C207.017 99.6075 207.017 156.382 200.146 212.531C210.045 209.885 216.863 206.456 221.76 202.375C234.111 192.081 240 172.877 240 128C240 83.1226 234.111 63.9184 221.76 53.6249C216.863 49.5433 210.047 46.1045 200.146 43.4583Z" fill="black"/>
</svg>
