<svg width="256" height="256" viewBox="0 0 256 256" fill="none" xmlns="http://www.w3.org/2000/svg">
<path fill-rule="evenodd" clip-rule="evenodd" d="M135.875 10.7084C235.725 11.7019 256 32.6776 256 128C256 223.323 235.724 244.288 135.875 245.281V245.333H119.875V245.281C20.2416 244.255 0 223.243 0 128C3.60323e-07 32.7572 20.2416 11.7449 119.875 10.7188V10.6667H135.875V10.7084ZM135.875 64.2188C135.689 64.2076 135.501 64.1979 135.313 64.1876C164.552 65.7828 170.667 78.5446 170.667 128C170.667 177.136 164.63 190.042 135.875 191.771V229.281C158.426 229.051 176.033 227.793 189.896 225.052C205.227 222.021 214.775 217.419 221.188 211.542C226.536 206.639 230.652 199.936 233.677 190.24C199.768 185.584 192 170.116 192 128C192 85.8867 199.764 70.3883 233.667 65.7292C230.643 56.0501 226.53 49.356 221.188 44.4584C214.775 38.5814 205.227 33.9792 189.896 30.948C176.033 28.2072 158.426 26.9391 135.875 26.7084V64.2188ZM119.875 64.2292V26.7188C97.4442 26.9563 79.9159 28.2173 66.1042 30.948C50.773 33.9792 41.2247 38.5814 34.8125 44.4584C29.4674 49.3581 25.3472 56.0538 22.3229 65.7397C56.2364 70.3949 63.9996 85.8825 64 128L63.9583 132.875C63.3403 171.327 54.8929 185.788 22.3229 190.26C25.3472 199.946 29.4674 206.642 34.8125 211.542C41.2247 217.419 50.773 222.021 66.1042 225.052C79.9158 227.783 97.4443 229.033 119.875 229.271V191.75C91.3355 189.961 85.3333 176.993 85.3333 128C85.3333 79.0059 91.3344 66.0183 119.875 64.2292ZM128 191.99L128.01 192C129.796 192 131.51 191.948 133.156 191.885C131.507 191.944 129.79 191.99 128 191.99ZM128 80.0001C110.558 80.0001 107.916 82.9698 106.646 84.8751C105.428 86.7017 103.902 90.3503 102.833 97.7813C101.778 105.125 101.333 114.873 101.333 128C101.333 141.127 101.778 150.876 102.833 158.219C103.902 165.65 105.428 169.298 106.646 171.125C107.916 173.03 110.558 176 128 176C145.443 176 148.084 173.03 149.354 171.125C150.572 169.298 152.098 165.65 153.167 158.219C154.222 150.876 154.667 141.127 154.667 128C154.667 114.873 154.222 105.125 153.167 97.7813C152.098 90.3503 150.572 86.7017 149.354 84.8751C148.084 82.9698 145.442 80.0001 128 80.0001ZM18.8021 81.3855C16.9242 93.4133 16 108.611 16 128C16 147.378 16.9161 162.569 18.7917 174.594C20.7666 174.349 22.6159 174.09 24.3438 173.771C32.7262 172.22 37.0751 170.001 39.5833 167.854C44.3099 163.799 47.9996 155.161 48 128C47.9997 100.832 44.3117 92.1995 39.5833 88.1459C37.0756 85.9981 32.7313 83.7805 24.3438 82.2292C22.618 81.9103 20.7742 81.6303 18.8021 81.3855ZM237.188 81.3855C235.221 81.6301 233.378 81.9111 231.656 82.2292C223.274 83.7797 218.925 85.9992 216.417 88.1459C211.69 92.2008 208 100.839 208 128C208 155.168 211.688 163.801 216.417 167.854C218.924 170.002 223.269 172.22 231.656 173.771C233.38 174.09 235.229 174.349 237.198 174.594C239.074 162.569 240 147.378 240 128C240 108.61 239.066 93.4136 237.188 81.3855Z" fill="black"/>
</svg>
