<svg width="256" height="256" viewBox="0 0 256 256" fill="none" xmlns="http://www.w3.org/2000/svg">
<path fill-rule="evenodd" clip-rule="evenodd" d="M128 0C234.667 0 256 21.3333 256 128C256 234.667 234.667 256 128 256C87.3308 256 59.0734 252.885 39.6667 243.135C39.5764 243.09 39.4857 243.046 39.3958 243C28.4052 237.42 20.2777 229.691 14.3542 219.146C14.2402 218.943 14.1331 218.736 14.0208 218.531C12.5332 215.817 11.1822 212.925 9.96875 209.833C9.85226 209.537 9.73907 209.238 9.625 208.938C9.32236 208.141 9.02545 207.333 8.73958 206.51C8.65543 206.269 8.57231 206.025 8.48958 205.781C7.76259 203.634 7.07808 201.406 6.45833 199.083C5.99998 197.367 5.59016 195.597 5.1875 193.781C5.06077 193.21 4.93388 192.634 4.8125 192.052C3.99953 188.158 3.30493 184.041 2.71875 179.688C2.68981 179.472 2.65342 179.258 2.625 179.042C2.33913 176.868 2.07827 174.636 1.84375 172.344C1.77611 171.682 1.71977 171.015 1.65625 170.344C1.34959 167.104 1.10077 163.748 0.885417 160.271C0.750568 158.092 0.622319 155.868 0.520833 153.594C0.460506 152.243 0.413665 150.875 0.364583 149.49C0.289419 147.367 0.227039 145.204 0.177083 143C0.148257 141.729 0.114565 140.444 0.09375 139.146C0.0359646 135.538 0 131.824 0 128C2.4336e-08 124.172 0.0358505 120.455 0.09375 116.844C0.114744 115.535 0.147947 114.24 0.177083 112.958C0.231394 110.57 0.301412 108.23 0.385417 105.938C0.429661 104.73 0.467965 103.535 0.520833 102.354C0.62065 100.124 0.743069 97.9405 0.875 95.8021C1.10842 92.0189 1.38744 88.3781 1.72917 84.875C1.76929 84.4637 1.80205 84.0534 1.84375 83.6458C2.0805 81.3318 2.34632 79.0791 2.63542 76.8854C2.66707 76.6452 2.69687 76.4054 2.72917 76.1667C3.31666 71.8238 4.01948 67.7178 4.83333 63.8333C4.94115 63.3187 5.05464 62.8089 5.16667 62.3021C5.64255 60.1492 6.15402 58.0665 6.70833 56.0521C7.18033 54.3367 7.67669 52.6698 8.20833 51.0521L8.59375 49.8958C8.67409 49.6613 8.76208 49.4304 8.84375 49.1979C9.07108 48.5509 9.30388 47.9123 9.54167 47.2813C9.70058 46.8595 9.84677 46.4355 10.0104 46.0208C10.388 45.064 10.7842 44.1282 11.1875 43.2083C11.25 43.0657 11.3118 42.923 11.375 42.7813C12.1715 40.9934 13.0179 39.2756 13.9167 37.625C14.0209 37.4336 14.1235 37.2417 14.2292 37.0521L14.8542 35.9583C15.0675 35.5921 15.2916 35.2343 15.5104 34.875C15.7056 34.5546 15.8941 34.2316 16.0938 33.9167C16.3374 33.5322 16.5933 33.1577 16.8438 32.7813C17.3398 32.0356 17.8521 31.3082 18.375 30.5938C18.7322 30.1057 19.0884 29.6196 19.4583 29.1458C19.6047 28.9584 19.7475 28.7685 19.8958 28.5833C20.3795 27.9796 20.8801 27.3929 21.3854 26.8125C21.5488 26.6249 21.7094 26.4352 21.875 26.25C22.3883 25.6761 22.9123 25.1135 23.4479 24.5625C23.5729 24.434 23.6967 24.3044 23.8229 24.1771L24 24C24.6474 23.3526 25.3097 22.7199 25.9896 22.1042C26.1263 21.9803 26.2682 21.8621 26.4063 21.7396C27.0514 21.1668 27.7109 20.6079 28.3854 20.0625C28.4853 19.9817 28.587 19.9031 28.6875 19.8229C29.2995 19.3349 29.9262 18.8621 30.5625 18.3958C30.8566 18.1803 31.1486 17.9609 31.4479 17.75C32.9706 16.677 34.5568 15.6556 36.2188 14.6979C36.6156 14.4692 37.0221 14.2536 37.4271 14.0313C37.9282 13.7562 38.4343 13.4841 38.9479 13.2188C39.2887 13.0427 39.6328 12.8698 39.9792 12.6979C59.3763 3.07283 87.5516 0 128 0ZM85.2708 136C84.7168 186.122 78.6597 216.154 59.5729 233.646C61.7068 234.251 63.9648 234.845 66.375 235.365C80.0927 238.323 97.5566 239.683 120 239.938V136H85.2708ZM136 136V239.938C158.443 239.683 175.907 238.323 189.625 235.365C192.032 234.846 194.286 234.25 196.417 233.646C177.336 216.152 171.283 186.116 170.729 136H136ZM16.0729 136C16.0846 137.017 16.0774 138.024 16.0938 139.021C16.3852 156.969 17.4362 171.637 19.5 183.698C19.9073 186.078 20.3578 188.35 20.8438 190.521C21.106 191.695 21.3836 192.832 21.6667 193.938C21.8877 194.799 22.1188 195.642 22.3542 196.469C25.4107 207.233 29.5451 214.598 34.6563 219.969C35.0789 220.412 35.5065 220.849 35.9479 221.271C36.4091 221.712 36.8832 222.146 37.375 222.573C37.704 222.859 38.036 223.141 38.375 223.417C38.9025 223.845 39.4474 224.264 40.0104 224.677C40.5404 225.066 41.0819 225.444 41.6354 225.813C41.974 226.038 42.326 226.248 42.6771 226.469C51.5297 220.909 57.4506 213.027 61.6042 200.906C66.6554 186.163 68.9221 165.509 69.2604 136H16.0729ZM186.74 136C187.078 165.49 189.34 186.142 194.385 200.885C198.533 213.006 204.44 220.898 213.271 226.458C222.1 220.897 228.008 213.005 232.156 200.885C237.202 186.142 239.464 165.489 239.802 136H186.74ZM42.6979 29.5104C39.9732 31.219 37.6197 33.0628 35.5729 35.0729C35.4469 35.1968 35.312 35.3118 35.1875 35.4375C28.8976 41.7844 24.0547 51.0224 20.8125 65.6042C20.2988 67.9111 19.8317 70.3325 19.4063 72.875C17.4067 84.8245 16.3809 99.3086 16.0938 116.969L16.0729 120H69.2604C68.9222 90.4872 66.6556 69.8294 61.6042 55.0833C57.4524 42.9644 51.545 35.0698 42.6979 29.5104ZM120 16.0521C97.5565 16.3064 80.0927 17.677 66.375 20.6354C63.9658 21.1551 61.706 21.7391 59.5729 22.3438C78.661 39.8375 84.7171 69.874 85.2708 120H120V16.0521ZM136 120H170.729C171.283 69.8838 177.327 39.8388 196.406 22.3438C194.279 21.7412 192.027 21.1535 189.625 20.6354C175.907 17.677 158.443 16.3064 136 16.0521V120ZM213.271 29.5313C204.437 35.0923 198.534 42.9907 194.385 55.1146C189.583 69.1525 187.272 88.5456 186.771 115.823L186.74 120H239.802C239.464 90.5099 237.201 69.8594 232.156 55.1146C228.008 42.9912 222.103 35.0925 213.271 29.5313Z" fill="black"/>
</svg>
