<svg width="256" height="256" viewBox="0 0 256 256" fill="none" xmlns="http://www.w3.org/2000/svg">
<path d="M45.4375 62.6873C46.1637 58.3303 50.2889 55.3797 54.6458 56.104C59.0029 56.8302 61.9534 60.9554 61.2292 65.3123C54.3119 106.816 54.3119 149.184 61.2292 190.687C61.9534 195.044 59.0029 199.169 54.6458 199.896C50.2889 200.62 46.1637 197.669 45.4375 193.312C38.2307 150.069 38.2307 105.93 45.4375 62.6873Z" fill="black"/>
<path d="M77.4375 62.6873C78.1637 58.3303 82.2889 55.3797 86.6458 56.104C91.0029 56.8302 93.9534 60.9554 93.2292 65.3123C86.3119 106.816 86.3119 149.184 93.2292 190.687C93.9534 195.044 91.0029 199.169 86.6458 199.896C82.2889 200.62 78.1637 197.669 77.4375 193.312C70.2307 150.069 70.2307 105.93 77.4375 62.6873Z" fill="black"/>
<path d="M109.438 62.6873C110.164 58.3303 114.289 55.3797 118.646 56.104C123.003 56.8302 125.953 60.9554 125.229 65.3123C118.312 106.816 118.312 149.184 125.229 190.687C125.953 195.044 123.003 199.169 118.646 199.896C114.289 200.62 110.164 197.669 109.438 193.312C102.231 150.069 102.231 105.93 109.438 62.6873Z" fill="black"/>
<path fill-rule="evenodd" clip-rule="evenodd" d="M117.333 10.6665C196.26 10.6665 224.205 23.4103 232.052 79.7498C251.091 86.2232 256 100.104 256 128L255.958 132.062C255.473 157.259 250.139 170.087 232.052 176.239C224.207 232.588 196.264 245.333 117.333 245.333C19.5556 245.333 0 225.778 0 128C3.39087e-07 30.2221 19.5556 10.6665 117.333 10.6665ZM117.333 26.6665C93.2073 26.6665 75.0148 27.8897 61.125 30.8853C47.4149 33.8423 38.996 38.2955 33.3125 43.979C27.629 49.6625 23.1758 58.0814 20.2188 71.7915C17.2232 85.6813 16 103.874 16 128C16 152.126 17.2232 170.318 20.2188 184.208C23.1758 197.918 27.629 206.337 33.3125 212.021C38.996 217.704 47.4149 222.157 61.125 225.114C75.0148 228.11 93.2073 229.333 117.333 229.333C141.459 229.333 159.652 228.11 173.542 225.114C187.252 222.157 195.671 217.704 201.354 212.021C207.038 206.337 211.491 197.918 214.448 184.208C217.443 170.318 218.667 152.126 218.667 128C218.667 103.874 217.443 85.6813 214.448 71.7915C211.491 58.0814 207.038 49.6625 201.354 43.979C195.671 38.2955 187.252 33.8423 173.542 30.8853C159.652 27.8897 141.459 26.6665 117.333 26.6665Z" fill="black"/>
</svg>
