<svg width="256" height="256" viewBox="0 0 256 256" fill="none" xmlns="http://www.w3.org/2000/svg">
<path fill-rule="evenodd" clip-rule="evenodd" d="M127.993 31.9973C199.103 31.9973 213.326 48.0007 213.327 127.997C213.327 130.755 213.3 133.441 213.264 136.049C226.159 144.654 234.659 159.332 234.66 175.997C234.66 202.507 213.17 223.997 186.66 223.997H167.462C163.861 249.917 153.238 255.997 126.4 255.997L120.066 255.862C97.8534 254.852 88.6613 247.768 85.358 223.997H69.3267C42.8189 223.995 21.3267 202.506 21.3267 175.997C21.3281 159.335 29.8216 144.655 42.7121 136.049C42.6766 133.441 42.6601 130.755 42.6601 127.997C42.6605 48.0022 56.8869 31.9979 127.993 31.9973ZM101.514 223.997C102.558 230.237 103.93 233.447 105.045 235.122C106.316 237.028 108.964 239.997 126.4 239.997C143.84 239.997 146.484 237.028 147.754 235.122C148.87 233.448 150.231 230.239 151.275 223.997H101.514ZM127.993 47.9973C91.8564 47.9976 77.7682 52.5814 70.6184 60.6223C67.0019 64.6908 63.85 71.1103 61.7121 82.2577C59.559 93.4883 58.6602 108.277 58.6601 127.997C58.6601 130.692 58.6777 133.305 58.7121 135.831C58.7861 141.254 56.1083 146.351 51.5976 149.362C42.9627 155.127 37.3281 164.908 37.3267 175.997C37.3267 193.669 51.6554 207.995 69.3267 207.997H186.66C204.333 207.997 218.66 193.67 218.66 175.997C218.659 164.909 213.021 155.129 204.379 149.362C199.87 146.35 197.19 141.252 197.264 135.831C197.299 133.26 197.327 130.654 197.327 127.997C197.327 108.277 196.428 93.4883 194.275 82.2577C192.137 71.1112 188.985 64.6907 185.368 60.6223C178.217 52.5836 164.127 47.9973 127.993 47.9973Z" fill="black"/>
<path d="M55.3371 2.53896C59.6011 1.398 63.9819 3.93361 65.1288 8.19521C66.2723 12.4629 63.7403 16.8538 59.4726 17.9973C49.5277 20.6632 40.4613 25.9044 33.1809 33.1848C25.9005 40.4652 20.6593 49.5316 17.9934 59.4765C16.8499 63.7442 12.459 66.2762 8.1913 65.1327C3.92971 63.9858 1.3941 59.605 2.53505 55.341C5.92755 42.682 12.5908 31.1291 21.858 21.8619C31.1252 12.5947 42.6781 5.93146 55.3371 2.53896Z" fill="black"/>
<path d="M190.858 8.19521C192.004 3.93398 196.386 1.40096 200.65 2.53896C213.308 5.93075 224.862 12.5961 234.129 21.8619C243.396 31.1286 250.059 42.6827 253.452 55.341C254.593 59.6066 252.06 63.9878 247.795 65.1327C243.529 66.2744 239.137 63.7433 237.993 59.4765C235.327 49.5324 230.086 40.4647 222.806 33.1848C215.526 25.9058 206.458 20.6625 196.514 17.9973C192.249 16.8518 189.715 12.4614 190.858 8.19521Z" fill="black"/>
</svg>
