<svg width="256" height="256" viewBox="0 0 256 256" fill="none" xmlns="http://www.w3.org/2000/svg">
<path fill-rule="evenodd" clip-rule="evenodd" d="M167.469 224C163.868 249.92 153.244 256 126.406 256L120.073 255.865C97.8571 254.856 88.6681 247.772 85.3646 224H53.3333C23.8781 224 0 200.122 0 170.667C0 152.636 8.9482 136.695 22.6458 127.042C21.7259 117.954 21.3333 107.657 21.3333 96C21.3333 16 39.1111 3.81498e-07 128 0C216.889 0 234.667 16 234.667 96C234.667 107.658 234.264 117.954 233.344 127.042C247.045 136.694 256 152.633 256 170.667C256 200.122 232.122 224 202.667 224H167.469ZM101.521 224C102.565 230.245 103.936 233.451 105.052 235.125C106.323 237.03 108.967 240 126.406 240C143.847 240 146.49 237.03 147.76 235.125C148.876 233.451 150.237 230.243 151.281 224H101.521ZM128 16C106.061 16 89.5154 17.007 76.8854 19.4583C64.3459 21.8925 56.8921 25.5309 52.0417 29.8958C42.3733 38.5973 37.3333 55.3851 37.3333 96C37.3333 107.332 37.715 117.053 38.5625 125.427C39.1443 131.175 36.5866 136.797 31.8646 140.125C22.2378 146.91 16 158.059 16 170.667C16 191.285 32.7147 208 53.3333 208H202.667C223.285 208 240 191.285 240 170.667C240 158.06 233.758 146.912 224.125 140.125C219.402 136.797 216.845 131.175 217.427 125.427C218.063 119.141 218.443 112.1 218.594 104.198L218.667 96C218.667 55.3851 213.627 38.5973 203.958 29.8958C199.108 25.5309 191.654 21.8925 179.115 19.4583C166.485 17.007 149.939 16 128 16Z" fill="black"/>
</svg>
