<svg width="256" height="257" viewBox="0 0 256 257" fill="none" xmlns="http://www.w3.org/2000/svg">
<path d="M197.081 256.01H58.9347C58.8384 256.01 58.7393 256.001 58.6431 256H197.351L197.081 256.01Z" fill="black"/>
<path fill-rule="evenodd" clip-rule="evenodd" d="M127.997 0C170.483 0.000240523 180.439 8.12461 181.237 47.6667C206.927 55.2878 213.331 73.2349 213.331 112C213.331 112.143 213.32 112.285 213.32 112.427C218.229 114.667 222.975 116.891 227.226 118.948C238.352 124.335 245.058 135.891 244.143 148.219L243.268 158.812C242.255 169.905 240.808 182.119 238.82 192.01C236.162 205.235 230.975 222.023 226.612 235.083C226.08 236.673 225.386 238.173 224.622 239.615C226.832 239.856 229.138 240 231.528 240C235.844 240 239.959 239.571 243.737 238.802C248.064 237.922 252.291 240.715 253.174 245.042C254.056 249.371 251.254 253.597 246.924 254.479C242.07 255.467 236.889 256 231.528 256C218.514 256 206.155 252.842 197.018 247.187C187.881 252.842 175.523 256 162.508 256C149.492 256 137.134 252.842 127.997 247.187C118.86 252.842 106.502 256 93.4868 256C80.4714 255.999 68.1132 252.842 58.9764 247.187C49.8392 252.841 37.4808 256 24.466 256C19.1057 256 13.9242 255.468 9.07014 254.479C4.74251 253.596 1.939 249.37 2.82014 245.042C3.70283 240.716 7.93121 237.924 12.2576 238.802C16.0353 239.571 20.1502 240 24.466 240C26.8443 240 29.1418 239.854 31.341 239.615C30.9615 238.896 30.6019 238.162 30.2785 237.406L29.4035 235.083C25.5866 223.657 21.1321 209.374 18.2993 197.125L17.1951 192.01C14.5452 178.824 12.8604 161.509 11.8722 148.219C11.0145 136.659 16.8449 125.783 26.7472 120.031L28.7889 118.948C33.0335 116.894 37.7645 114.673 42.6639 112.437C42.6637 112.292 42.6639 112.146 42.6639 112C42.6639 73.0293 49.1413 55.1036 75.1743 47.5521C75.0295 47.5941 74.8804 47.6344 74.7368 47.6771C75.5331 8.1264 85.5098 0.000536894 127.997 0ZM127.018 101.979C116.42 104.443 91.0791 110.585 74.7056 116.417C62.7837 120.664 47.6458 127.602 35.7576 133.354C30.5101 135.893 27.4051 141.28 27.8306 147.031C28.8113 160.221 30.4405 176.701 32.8826 188.854C35.3335 201.045 40.2487 217.053 44.5806 230.021C45.2309 231.961 46.2945 233.704 47.6639 235.177C50.0729 234.006 52.1205 232.691 53.7368 231.292C56.7431 228.686 61.2092 228.687 64.216 231.292C69.7708 236.104 80.3881 239.999 93.4868 240C106.585 240 117.202 236.104 122.758 231.292C125.764 228.686 130.23 228.687 133.237 231.292C138.792 236.104 149.409 239.999 162.508 240C175.606 240 186.223 236.104 191.778 231.292L192.966 230.437C195.876 228.726 199.626 229.012 202.258 231.292C203.871 232.689 205.916 234.007 208.32 235.177C209.698 233.703 210.783 231.968 211.435 230.021C215.767 217.052 220.682 201.046 223.133 188.854C225.575 176.701 227.204 160.221 228.185 147.031C228.61 141.283 225.5 135.895 220.258 133.354C208.372 127.603 193.231 120.664 181.31 116.417C164.941 110.586 139.601 104.444 128.997 101.979C128.344 101.828 127.671 101.829 127.018 101.979ZM127.997 58.6667C110.473 58.6667 97.3613 59.394 87.4243 61.1354C77.5083 62.8735 72.0439 65.4144 68.7576 68.0833C63.2402 72.5671 59.3319 81.2278 58.7472 105.417C62.4024 103.92 65.9777 102.542 69.341 101.344C86.6926 95.1633 112.876 88.8407 123.393 86.3958C126.431 85.6905 129.584 85.6896 132.622 86.3958C143.146 88.8425 169.328 95.1646 186.674 101.344C190.032 102.54 193.598 103.923 197.247 105.417C196.662 81.2259 192.755 72.5668 187.237 68.0833C183.95 65.4146 178.486 62.8733 168.57 61.1354C158.633 59.3942 145.522 58.6667 127.997 58.6667ZM127.997 16C117.208 16.0001 109.678 16.557 104.289 17.7187C99.0833 18.842 96.9933 20.296 95.9764 21.3125C94.9597 22.33 93.5056 24.4187 92.3826 29.625C91.5698 33.395 91.0676 38.2115 90.8306 44.4583C90.6668 44.4791 90.5036 44.4997 90.341 44.5208C100.649 43.1816 113.069 42.6667 127.997 42.6667C142.889 42.6667 155.287 43.1889 165.581 44.5208C165.44 44.5026 165.295 44.4763 165.153 44.4583C164.916 38.2115 164.425 33.395 163.612 29.625C162.488 24.4171 161.035 22.3296 160.018 21.3125C159.001 20.2959 156.911 18.8417 151.706 17.7187C146.316 16.5572 138.786 16.0001 127.997 16Z" fill="black"/>
</svg>
