<svg width="256" height="256" viewBox="0 0 256 256" fill="none" xmlns="http://www.w3.org/2000/svg">
<path d="M98.6663 130.667C103.085 130.667 106.666 134.248 106.666 138.667V202.667C106.666 207.085 103.085 210.667 98.6663 210.667C94.2481 210.667 90.6663 207.085 90.6663 202.667V138.667C90.6663 134.248 94.2481 130.667 98.6663 130.667Z" fill="black"/>
<path d="M157.333 130.667C161.751 130.667 165.333 134.248 165.333 138.667V202.667C165.333 207.085 161.751 210.667 157.333 210.667C152.915 210.667 149.333 207.085 149.333 202.667V138.667C149.333 134.248 152.915 130.667 157.333 130.667Z" fill="black"/>
<path fill-rule="evenodd" clip-rule="evenodd" d="M132.062 0.0625C156.486 0.802085 169.248 8.70254 175.614 35.0729C223.652 43.3271 234.666 70.5353 234.666 144L234.614 152.531C233.488 238.482 214.111 256 128 256L119.875 255.948C38.0172 254.765 21.333 234.417 21.333 144C21.333 70.5574 32.3422 43.3558 80.3434 35.0938C87.0519 7.27236 100.907 0 128 0L132.062 0.0625ZM217.729 113.052C159.351 94.4509 96.6378 94.4489 38.2601 113.052C37.6171 122.039 37.333 132.287 37.333 144C37.333 167.033 38.4538 184.4 41.1768 197.656C43.8717 210.775 47.9041 218.706 52.9163 223.969C57.8636 229.163 65.1953 233.265 77.3643 236.021C89.7608 238.828 106.112 240 128 240C149.887 240 166.239 238.828 178.635 236.021C190.804 233.265 198.136 229.163 203.083 223.969C208.095 218.706 212.128 210.775 214.823 197.656C217.546 184.4 218.666 167.033 218.666 144C218.666 132.287 218.372 122.039 217.729 113.052ZM128 48C106.112 48 89.7608 49.1717 77.3643 51.9792C65.1953 54.7354 57.8636 58.8368 52.9163 64.0313C47.9041 69.2941 43.8717 77.2253 41.1768 90.3438C40.8232 92.0649 40.4982 93.8556 40.1976 95.7188C97.516 78.8834 158.473 78.8853 215.791 95.7188C215.491 93.8562 215.176 92.0644 214.823 90.3438C212.128 77.2253 208.095 69.2941 203.083 64.0313C198.136 58.8367 190.804 54.7354 178.635 51.9792C166.239 49.1717 149.887 48 128 48ZM128 16C117.733 16 111.662 17.1953 107.771 19.0417C104.56 20.5661 101.776 23.0208 99.2288 28.625C98.6351 29.9318 98.0737 31.3925 97.5309 33.0208C106.618 32.3077 116.738 32 128 32L136.125 32.0521C144.182 32.1685 151.607 32.4741 158.448 33.0104C157.907 31.388 157.362 29.9276 156.771 28.625C154.223 23.0208 151.439 20.5661 148.229 19.0417C144.338 17.1953 138.266 16 128 16Z" fill="black"/>
</svg>
