<svg width="256" height="256" viewBox="0 0 256 256" fill="none" xmlns="http://www.w3.org/2000/svg">
<path d="M128 2.6665C148.288 2.6665 168.482 4.54552 188.719 7.40609C214.327 11.0259 233.918 31.18 238.469 56.1978C248.384 110.729 247.891 166.651 237.021 221L236.615 223.052C233.241 239.92 213.551 247.652 199.605 237.583L135.052 190.958C130.843 187.92 125.158 187.92 120.948 190.958L56.3962 237.583C42.4496 247.652 22.7594 239.92 19.3858 223.052L18.9795 221C8.10969 166.651 7.6168 110.729 17.5316 56.1978C22.0823 31.18 41.674 11.0259 67.2816 7.40609C87.5183 4.54552 107.712 2.6665 128 2.6665ZM128 18.6665C108.686 18.6665 89.2775 20.4572 69.5212 23.2498C51.1648 25.8446 36.6659 40.3962 33.2712 59.0623C23.7174 111.608 24.193 165.494 34.667 217.864L35.0733 219.916C36.1629 225.365 42.5268 227.866 47.0316 224.614L111.584 177.989C121.385 170.913 134.616 170.913 144.417 177.989L208.969 224.604C213.474 227.858 219.838 225.366 220.927 219.916L221.334 217.864C231.808 165.494 232.283 111.608 222.73 59.0623C219.335 40.3962 204.836 25.8446 186.48 23.2498C166.723 20.4572 147.315 18.6665 128 18.6665Z" fill="black"/>
</svg>
