<svg width="256" height="256" viewBox="0 0 256 256" fill="none" xmlns="http://www.w3.org/2000/svg">
<path fill-rule="evenodd" clip-rule="evenodd" d="M128.957 0C150.29 0 214.288 0.00160472 235.623 21.3333C255.857 41.5667 260.814 90.5652 247.623 104.667L248.915 107.333C251.745 113.645 253.331 120.635 253.332 128V197.333C253.331 203.199 251.212 208.56 247.717 212.729C244.632 220.258 240.608 227.004 235.623 231.99C214.289 253.321 150.292 253.323 128.957 253.323C107.618 253.323 43.6218 253.321 22.29 231.99C6.40506 216.096 -1.13092 182.464 2.66495 161.927V136.938C2.66511 130.16 3.7616 123.419 5.90453 116.99L9.61287 105.844C-5.01938 93.5418 1.44954 42.1764 22.29 21.3333C43.6222 0.000743866 107.62 2.6284e-08 128.957 0ZM82.665 189.333V197.333C82.6641 210.587 71.9193 221.333 58.665 221.333C45.8275 221.333 35.374 211.25 34.7275 198.573C32.2045 199.474 29.4974 200 26.665 200C25.0673 200 23.5086 199.829 21.9983 199.531C24.9048 208.475 29.0294 216.1 33.6025 220.677C36.3365 223.411 41.5663 226.43 49.8525 229.094C57.8922 231.678 67.4987 233.517 77.6129 234.781C97.8408 237.309 118.266 237.323 128.957 237.323C139.647 237.323 160.08 237.31 180.311 234.781C190.423 233.517 200.022 231.677 208.061 229.094C216.254 226.46 221.447 223.47 224.207 220.76C213.418 218.411 205.332 208.826 205.332 197.333V189.333H174.623C170.318 195.764 162.985 200 154.665 200C146.347 200 139.023 195.762 134.717 189.333H82.665ZM232.3 110C190.706 116.127 68.2783 116.209 25.0191 110.208L21.0816 122.052C19.4825 126.85 18.6651 131.88 18.665 136.938V176C18.6658 180.417 22.2478 183.999 26.665 184C31.0827 184 34.6641 180.418 34.665 176V149.333C34.6658 144.916 38.2478 141.334 42.665 141.333C47.0827 141.333 50.6641 144.916 50.665 149.333V197.333C50.6658 201.75 54.2478 205.333 58.665 205.333C63.0827 205.333 66.6641 201.751 66.665 197.333V170.667C66.6658 148.576 84.5747 130.667 106.665 130.667H111.998C131.144 130.667 146.664 146.188 146.665 165.333V176C146.666 180.417 150.248 183.999 154.665 184C159.083 184 162.664 180.418 162.665 176V149.333C162.666 133.134 175.799 120.001 191.998 120C208.198 120 221.331 133.134 221.332 149.333V197.333C221.332 201.75 224.914 205.333 229.332 205.333C233.749 205.333 237.331 201.751 237.332 197.333V128C237.331 121.409 235.494 115.246 232.3 110ZM106.665 146.667C93.4112 146.667 82.6658 157.413 82.665 170.667V173.333H130.665V165.333C130.664 155.025 122.307 146.667 111.998 146.667H106.665ZM191.998 136C184.636 136.001 178.666 141.971 178.665 149.333V173.333H205.332V149.333C205.331 141.97 199.362 136 191.998 136ZM128.957 16C118.267 16 97.8432 16.0131 77.6129 18.5417C67.4968 19.8062 57.8934 21.6445 49.8525 24.2292C41.5631 26.8938 36.3368 29.9114 33.6025 32.6458C26.4205 39.8293 20.3576 54.536 18.3525 70.0521C17.3862 77.5297 17.5215 84.0691 18.4358 88.7813C18.8671 91.0029 19.3838 92.3142 19.717 93.0313C21.3493 93.4265 23.7244 93.8737 26.915 94.3229C33.4281 95.2397 42.2557 96.0427 52.8212 96.6979C73.8894 98.0045 100.875 98.6666 127.998 98.6667C155.121 98.6667 182.107 98.0045 203.175 96.6979C213.742 96.0427 222.568 95.2398 229.082 94.3229C232.352 93.8625 234.769 93.4131 236.405 93.0104C236.781 92.2854 237.399 90.8671 237.946 88.3854C238.996 83.6203 239.317 77.0592 238.561 69.6146C236.986 54.1068 231.31 39.6444 224.311 32.6458C221.575 29.9115 216.35 26.8935 208.061 24.2292C200.021 21.6453 190.425 19.806 180.311 18.5417C160.078 16.0126 139.646 16 128.957 16Z" fill="black"/>
</svg>
