<svg width="256" height="256" viewBox="0 0 256 256" fill="none" xmlns="http://www.w3.org/2000/svg">
<path d="M165.667 119.083C169.117 116.323 174.157 116.883 176.917 120.333C179.677 123.783 179.117 128.823 175.667 131.583C158.721 145.14 144.189 161.462 132.688 179.865L124.115 193.573C122.717 195.808 120.311 197.21 117.677 197.323C115.043 197.435 112.52 196.244 110.938 194.135L106.469 188.187C99.3767 178.731 90.7308 170.546 80.8958 163.99C77.2196 161.539 76.2263 156.572 78.6771 152.896C81.1279 149.22 86.0946 148.226 89.7708 150.677C99.9471 157.461 109.011 165.762 116.677 175.271L119.115 171.385C131.573 151.452 147.312 133.767 165.667 119.083Z" fill="black"/>
<path fill-rule="evenodd" clip-rule="evenodd" d="M181.333 0C185.752 0 189.333 3.58172 189.333 8V12.1042C243.425 21.9397 256 52.1974 256 130.667L255.938 140.01C254.586 234.146 231.334 253.333 128 253.333L118.25 253.271C23.1891 252.017 1.37083 231.11 0.0625 140.01L0 130.667C0 52.1974 12.5751 21.9397 66.6667 12.1042V8C66.6667 3.58172 70.2484 0 74.6667 0C79.0849 0 82.6667 3.58172 82.6667 8V9.875C95.726 8.54557 110.746 8 128 8C145.254 8 160.274 8.54557 173.333 9.875V8C173.333 3.58172 176.915 0 181.333 0ZM239.115 100.365C165.589 87.566 90.4003 87.5648 16.875 100.365C16.284 109.325 16 119.375 16 130.667C16 155.89 17.3441 174.916 20.6146 189.448C23.8356 203.757 28.6995 212.673 35.0729 218.781C41.506 224.946 51.0108 229.727 66.2396 232.875C81.6111 236.052 101.636 237.333 128 237.333C154.364 237.333 174.389 236.052 189.76 232.875C204.989 229.727 214.494 224.946 220.927 218.781C227.3 212.673 232.164 203.757 235.385 189.448C238.656 174.916 240 155.89 240 130.667C240 119.374 239.706 109.326 239.115 100.365ZM128 24C110.16 24 95.224 24.6049 82.6667 25.9687V40C82.6667 44.4183 79.0849 48 74.6667 48C70.2484 48 66.6667 44.4183 66.6667 40V28.375C66.5242 28.404 66.3813 28.429 66.2396 28.4583C51.0108 31.6061 41.506 36.3875 35.0729 42.5521C28.6995 48.6599 23.8356 57.5759 20.6146 71.8854C19.784 75.5761 19.0708 79.5557 18.4792 83.8542C90.9864 71.7269 165.003 71.7281 237.51 83.8542C236.919 79.5563 236.216 75.5757 235.385 71.8854C232.164 57.5759 227.3 48.6599 220.927 42.5521C214.494 36.3875 204.989 31.6061 189.76 28.4583C189.619 28.429 189.476 28.404 189.333 28.375V40C189.333 44.4183 185.752 48 181.333 48C176.915 48 173.333 44.4183 173.333 40V25.9687C160.776 24.6049 145.84 24 128 24Z" fill="black"/>
</svg>
