<svg width="256" height="256" viewBox="0 0 256 256" fill="none" xmlns="http://www.w3.org/2000/svg">
<path d="M64 130.666C70.6667 130.666 72 132 72 138.666C72 145.333 70.6667 146.666 64 146.666C57.3333 146.666 56 145.333 56 138.666C56 132 57.3333 130.666 64 130.666Z" fill="black"/>
<path d="M128 130.666C134.667 130.666 136 132 136 138.666C136 145.333 134.667 146.666 128 146.666C121.333 146.666 120 145.333 120 138.666C120 132 121.333 130.666 128 130.666Z" fill="black"/>
<path d="M192 130.666C198.667 130.666 200 132 200 138.666C200 145.333 198.667 146.666 192 146.666C185.333 146.666 184 145.333 184 138.666C184 132 185.333 130.666 192 130.666Z" fill="black"/>
<path fill-rule="evenodd" clip-rule="evenodd" d="M181.333 2.6665C185.752 2.6665 189.333 6.24823 189.333 10.6665V14.7707C243.425 24.6062 256 54.8639 256 133.333L255.938 142.677C254.586 236.813 231.334 256 128 256L118.25 255.937C23.1891 254.684 1.37083 233.777 0.0625 142.677L0 133.333C0 54.8639 12.5751 24.6062 66.6667 14.7707V10.6665C66.6667 6.24823 70.2484 2.6665 74.6667 2.6665C79.0849 2.6665 82.6667 6.24823 82.6667 10.6665V12.5415C95.726 11.2121 110.746 10.6665 128 10.6665C145.254 10.6665 160.274 11.2121 173.333 12.5415V10.6665C173.333 6.24823 176.915 2.6665 181.333 2.6665ZM239.146 103.51C165.261 97.0977 90.7341 97.1042 16.8438 103.489C16.2735 112.334 16 122.233 16 133.333C16 158.556 17.3441 177.583 20.6146 192.114C23.8356 206.424 28.6995 215.34 35.0729 221.448C41.506 227.612 51.0108 232.394 66.2396 235.541C81.6111 238.719 101.636 240 128 240C136.124 240 143.645 239.855 150.615 239.594C156.63 184.515 178.546 165.697 239.271 161.187C239.756 152.854 240 143.608 240 133.333C240 122.242 239.715 112.35 239.146 103.51ZM237.208 177.406C209.674 179.769 194.167 185.182 184.667 193.719C175.734 201.747 169.763 214.745 166.833 238.562C194.378 236.201 209.885 230.806 219.385 222.271C228.317 214.242 234.281 201.237 237.208 177.406ZM128 26.6665C110.16 26.6665 95.224 27.2714 82.6667 28.6353V42.6665C82.6667 47.0848 79.0849 50.6665 74.6667 50.6665C70.2484 50.6665 66.6667 47.0848 66.6667 42.6665V31.0415C66.5242 31.0705 66.3813 31.0955 66.2396 31.1248C51.0108 34.2726 41.506 39.054 35.0729 45.2186C28.6995 51.3264 23.8356 60.2424 20.6146 74.5519C19.734 78.4647 18.9981 82.7041 18.3854 87.3019C91.2601 81.1691 164.729 81.1645 237.604 87.3227C236.991 82.7176 236.267 78.4701 235.385 74.5519C232.164 60.2424 227.3 51.3264 220.927 45.2186C214.494 39.054 204.989 34.2726 189.76 31.1248C189.619 31.0955 189.476 31.0705 189.333 31.0415V42.6665C189.333 47.0848 185.752 50.6665 181.333 50.6665C176.915 50.6665 173.333 47.0848 173.333 42.6665V28.6353C160.776 27.2714 145.84 26.6665 128 26.6665Z" fill="black"/>
</svg>
