<svg width="256" height="256" viewBox="0 0 256 256" fill="none" xmlns="http://www.w3.org/2000/svg">
<path fill-rule="evenodd" clip-rule="evenodd" d="M135.927 101.448C173.521 102.588 181.333 113.001 181.333 154.666L181.219 162.594C180.079 200.188 169.665 208 128 208L120.073 207.885C84.9864 206.821 75.8452 197.68 74.7813 162.594L74.6667 154.666C74.6667 110.222 83.5556 101.333 128 101.333L135.927 101.448ZM128 117.333C117.208 117.333 109.682 117.89 104.292 119.052C99.0815 120.176 96.996 121.629 95.9792 122.646C94.9624 123.662 93.5092 125.748 92.3854 130.958C91.2232 136.348 90.6667 143.874 90.6667 154.666C90.6667 165.459 91.2232 172.985 92.3854 178.375C93.5092 183.585 94.9624 185.671 95.9792 186.687C96.996 187.704 99.0815 189.157 104.292 190.281C109.682 191.443 117.208 192 128 192C138.792 192 146.318 191.443 151.708 190.281C156.918 189.157 159.004 187.704 160.021 186.687C161.038 185.671 162.491 183.585 163.615 178.375C164.777 172.985 165.333 165.459 165.333 154.666C165.333 143.874 164.777 136.348 163.615 130.958C162.491 125.748 161.038 123.662 160.021 122.646C159.004 121.629 156.918 120.176 151.708 119.052C146.318 117.89 138.792 117.333 128 117.333Z" fill="black"/>
<path fill-rule="evenodd" clip-rule="evenodd" d="M127.865 10.6665C172.289 10.6665 191.33 17.9198 198.594 47.9478C205.011 49.3508 210.745 51.0987 215.875 53.2082C215.942 48.8476 219.498 45.3332 223.875 45.3332C228.291 45.336 231.875 48.9166 231.875 53.3332V62.5832C250.636 78.1237 256 104.797 256 149.333C256 238.222 234.667 256 128 256C21.3333 256 4.06931e-07 238.222 0 149.333C0 85.306 11.0696 58.1787 57.125 48.0103C64.3767 17.93 83.4122 10.6671 127.865 10.6665ZM127.865 26.6665C105.756 26.6668 93.2479 28.6194 85.6667 32.3853C79.7556 35.3223 75.5093 40.0119 72.6771 51.7603C71.2433 57.7063 66.5456 62.3166 60.5729 63.6353C40.5211 68.0628 31.0839 75.324 25.4271 85.979C18.9207 98.2342 16 117.452 16 149.333C16 194.211 21.8893 213.415 34.2396 223.708C40.6352 229.038 50.2958 233.29 65.8333 236.083C81.4034 238.881 101.594 240 128 240C154.406 240 174.597 238.881 190.167 236.083C205.704 233.29 215.365 229.038 221.76 223.708C233.339 214.058 239.235 196.575 239.927 157.448L240 149.333C240 117.385 237.072 98.1546 230.542 85.9061C224.863 75.2581 215.369 67.9978 195.177 63.5832C189.194 62.2752 184.482 57.6608 183.042 51.7082C180.208 39.9943 175.968 35.3096 170.052 32.3748C162.467 28.6133 149.957 26.6665 127.865 26.6665Z" fill="black"/>
</svg>
