<svg width="256" height="256" viewBox="0 0 256 256" fill="none" xmlns="http://www.w3.org/2000/svg">
<path fill-rule="evenodd" clip-rule="evenodd" d="M197.33 117.333C213.432 117.333 228.011 123.831 238.612 134.333C240.036 132.13 242.512 130.668 245.33 130.667C249.749 130.667 253.33 134.248 253.33 138.667H253.205V214.677C252.566 218.455 249.29 221.333 245.33 221.333C242.508 221.332 240.035 219.864 238.612 217.656C228.01 228.162 213.435 234.667 197.33 234.667C164.931 234.665 138.664 208.4 138.664 176C138.664 143.6 164.931 117.335 197.33 117.333ZM197.33 133.333C173.767 133.335 154.664 152.437 154.664 176C154.664 199.563 173.767 218.665 197.33 218.667C215.673 218.667 231.3 207.087 237.33 190.844V161.146C231.297 144.907 215.669 133.333 197.33 133.333Z" fill="black"/>
<path fill-rule="evenodd" clip-rule="evenodd" d="M63.9971 24C80.941 24 93.9612 30.3269 103.32 42C112.322 53.2293 117.464 68.8071 120.549 86.6354C126.702 122.185 125.33 171.217 125.33 224C125.33 228.418 121.749 232 117.33 232C112.914 231.998 109.331 228.417 109.33 224C109.33 204.257 109.502 185.442 109.435 167.865C108.993 167.94 108.543 168 108.08 168H18.57C18.4827 185.759 18.6636 204.577 18.6638 224C18.6638 228.418 15.082 232 10.6638 232C6.24723 231.998 2.66382 228.417 2.66377 224C2.66324 173.863 1.29757 124.855 7.44502 88.6563C10.5252 70.5209 15.6416 54.4931 24.57 42.875C33.8517 30.7989 46.8781 24.0011 63.9971 24ZM63.9971 40C51.7882 40.0011 43.4744 44.5364 37.2575 52.625C30.6887 61.1725 26.1358 74.1502 23.2159 91.3438C20.2635 108.731 19.1338 129.306 18.7367 152H108.08C108.488 152 108.887 152.035 109.278 152.094C108.917 128.191 107.828 106.985 104.778 89.3646C101.864 72.5273 97.3376 60.1038 90.8409 52C84.7005 44.3423 76.3834 40 63.9971 40Z" fill="black"/>
</svg>
