<svg width="256" height="256" viewBox="0 0 256 256" fill="none" xmlns="http://www.w3.org/2000/svg">
<path d="M124.379 0C149.181 4.74873e-05 169.583 1.23106 186.14 4.80208C202.785 8.39278 216.089 14.4604 226.15 24.5208C236.211 34.5815 242.278 47.886 245.869 64.5312C249.44 81.0883 250.671 101.489 250.671 126.292C250.671 167.231 247.387 196.799 234.931 216.927C221.896 237.988 200.029 247.083 168.275 250.615C163.885 251.101 159.931 247.942 159.442 243.552C158.954 239.163 162.116 235.21 166.504 234.719C196.338 231.401 212.121 223.376 221.327 208.5C231.111 192.688 234.671 167.487 234.671 126.292C234.671 101.806 233.439 82.7701 230.233 67.9062C227.047 53.1332 222.027 43.0225 214.838 35.8333C207.648 28.6444 197.538 23.6241 182.765 20.4375C167.901 17.2317 148.864 16 124.379 16C83.1847 16 57.9831 19.5598 42.1709 29.3437C27.2953 38.5497 19.2704 54.3332 15.9522 84.1667C15.4612 88.5551 11.5083 91.7174 7.11884 91.2292C2.72932 90.74 -0.430561 86.7855 0.0563357 82.3958C3.58815 50.6419 12.6826 28.7752 33.7438 15.7396C53.8716 3.28361 83.4399 3.77702e-05 124.379 0Z" fill="black"/>
<path d="M3.15009 198.115C4.29587 193.854 8.679 191.321 12.9418 192.458C23.7914 195.365 33.6861 201.09 41.6292 209.031C49.572 216.974 55.2941 226.869 58.2022 237.719C59.3434 241.984 56.8094 246.365 52.5459 247.51C48.2795 248.651 43.887 246.12 42.7438 241.854C40.5624 233.719 36.2727 226.3 30.3168 220.344C24.3604 214.389 16.9417 210.097 8.80633 207.917C4.54194 206.771 2.00704 202.38 3.15009 198.115Z" fill="black"/>
<path d="M14.1918 156.906C15.3356 152.643 19.7192 150.112 23.9834 151.25C42.0674 156.096 58.5672 165.617 71.8063 178.854C85.045 192.093 94.564 208.593 99.4105 226.677C100.552 230.944 98.0204 235.325 93.7542 236.469C89.4879 237.609 85.0953 235.079 83.9522 230.812C79.8323 215.443 71.7457 201.419 60.4938 190.167C49.2416 178.916 35.2177 170.827 19.848 166.708C15.5836 165.562 13.0487 161.172 14.1918 156.906Z" fill="black"/>
<path d="M25.2334 115.698C26.3768 111.435 30.7615 108.895 35.0251 110.031C60.3434 116.815 83.438 130.154 101.973 148.687C120.508 167.222 133.844 190.317 140.629 215.635C141.769 219.901 139.228 224.284 134.963 225.427C130.697 226.565 126.314 224.036 125.171 219.771C119.113 197.166 107.209 176.548 90.6605 160C74.1116 143.453 53.4948 131.547 30.8897 125.49C26.6266 124.344 24.093 119.963 25.2334 115.698Z" fill="black"/>
</svg>
