<svg width="256" height="256" viewBox="0 0 256 256" fill="none" xmlns="http://www.w3.org/2000/svg">
<path d="M74.6666 120C81.3332 120 82.6666 121.333 82.6666 128C82.6666 134.667 81.3332 136 74.6666 136C67.9999 136 66.6666 134.667 66.6666 128C66.6666 121.333 67.9999 120 74.6666 120Z" fill="black"/>
<path d="M128 120C134.667 120 136 121.333 136 128C136 134.667 134.667 136 128 136C121.333 136 120 134.667 120 128C120 121.333 121.333 120 128 120Z" fill="black"/>
<path d="M181.333 120C188 120 189.333 121.333 189.333 128C189.333 134.667 188 136 181.333 136C174.667 136 173.333 134.667 173.333 128C173.333 121.333 174.667 120 181.333 120Z" fill="black"/>
<path fill-rule="evenodd" clip-rule="evenodd" d="M128 0C234.667 0 256 21.3333 256 128C256 234.667 234.667 256 128 256C99.4877 256 77.0819 254.438 59.5416 250.167C42.9895 256.038 25.0317 257.586 7.35405 254.302C1.48596 253.21 -1.71614 246.67 0.947801 241.219L5.28113 232.365C7.95722 226.897 10.3446 221.295 12.4895 215.604C3.02635 196.221 -0.000115823 168.159 -0.000115823 128C-0.000115314 21.3333 21.3332 5.08663e-07 128 0ZM128 16C101.652 16 81.6813 17.3344 66.3749 20.6354C51.2481 23.8981 41.7736 28.8513 35.3124 35.3125C28.8511 41.7737 23.8979 51.2482 20.6353 66.375C17.3342 81.6814 15.9999 101.652 15.9999 128C15.9999 168.19 19.186 192.854 26.8645 208.583C28.7972 212.542 29.0118 217.128 27.4582 221.25C25.1547 227.362 22.5753 233.431 19.6561 239.396L19.4791 239.75C31.3122 240.629 43.1138 239.011 54.1874 235.083C57.121 234.043 60.2984 233.889 63.3228 234.625C78.9536 238.431 99.8117 240 128 240C154.348 240 174.318 238.666 189.625 235.365C204.752 232.102 214.226 227.149 220.687 220.688C227.149 214.226 232.102 204.752 235.364 189.625C238.666 174.319 240 154.348 240 128C240 101.652 238.666 81.6814 235.364 66.375C232.102 51.2482 227.149 41.7737 220.687 35.3125C214.226 28.8513 204.752 23.8981 189.625 20.6354C174.318 17.3344 154.348 16 128 16Z" fill="black"/>
</svg>
