<svg width="256" height="256" viewBox="0 0 256 256" fill="none" xmlns="http://www.w3.org/2000/svg">
<path fill-rule="evenodd" clip-rule="evenodd" d="M170.667 0C241.778 3.64045e-07 256 14.2222 256 85.3333C256 111.166 254.101 129.481 248.302 142.344C249.097 146.809 250.287 151.063 252.302 154.75L255.333 160.292C257.201 163.71 254.962 167.814 250.854 168.5C237.63 170.7 218.996 171.698 202.688 169.146C193.569 170.218 182.971 170.667 170.667 170.667C170.667 241.778 156.444 256 85.3333 256C73.0294 256 62.4312 255.552 53.3125 254.479C37.004 257.031 18.3704 256.034 5.14583 253.833C1.0382 253.147 -1.20103 249.043 0.666667 245.625L3.69792 240.083C5.71251 236.396 6.90317 232.143 7.69792 227.677C1.89903 214.814 0 196.499 0 170.667C3.39086e-07 99.5556 14.2222 85.3333 85.3333 85.3333C85.3333 14.2222 99.5556 0 170.667 0ZM85.3333 101.333C67.874 101.333 55.0148 102.223 45.375 104.302C35.9149 106.343 30.6626 109.296 27.3125 112.646C23.9624 115.996 21.0092 121.248 18.9688 130.708C16.8899 140.348 16 153.207 16 170.667C16 196.452 18.0252 211.663 22.2813 221.104C23.605 224.041 24.0122 227.307 23.4479 230.479C22.9399 233.334 22.2326 236.422 21.2083 239.573C30.7816 240.243 41.3963 240.145 50.8438 238.667L53.0104 238.479C53.7336 238.466 54.4571 238.509 55.1771 238.594C63.4406 239.566 73.3618 240 85.3333 240C102.793 240 115.652 239.11 125.292 237.031C134.752 234.991 140.004 232.038 143.354 228.688C146.704 225.337 149.658 220.085 151.698 210.625C153.777 200.985 154.667 188.126 154.667 170.667C154.667 153.207 153.777 140.348 151.698 130.708C149.658 121.248 146.704 115.996 143.354 112.646C140.004 109.296 134.752 106.343 125.292 104.302C115.652 102.223 102.793 101.333 85.3333 101.333ZM170.667 16C153.207 16 140.348 16.8899 130.708 18.9688C121.248 21.0092 115.996 23.9624 112.646 27.3125C109.296 30.6626 106.343 35.9149 104.302 45.375C102.223 55.0148 101.333 67.874 101.333 85.3333C101.333 85.4342 101.333 85.5349 101.333 85.6354C101.153 85.628 100.973 85.6217 100.792 85.6146C153.541 87.6775 168.204 102.173 170.354 154.656C170.458 154.656 170.562 154.667 170.667 154.667C182.638 154.667 192.559 154.232 200.823 153.26C201.543 153.176 202.266 153.132 202.99 153.146L205.156 153.333C214.604 154.812 225.218 154.91 234.792 154.24C233.767 151.088 233.06 148.001 232.552 145.146C231.988 141.974 232.395 138.708 233.719 135.771C237.975 126.33 240 111.118 240 85.3333C240 67.874 239.11 55.0148 237.031 45.375C234.991 35.9149 232.038 30.6626 228.688 27.3125C225.337 23.9624 220.085 21.0092 210.625 18.9688C200.985 16.8899 188.126 16 170.667 16Z" fill="black"/>
</svg>
