<svg width="256" height="256" viewBox="0 0 256 256" fill="none" xmlns="http://www.w3.org/2000/svg">
<path d="M240.001 128C240.001 101.652 238.666 81.6814 235.365 66.375C232.103 51.2482 227.15 41.7737 220.688 35.3125C214.227 28.8513 204.753 23.8981 189.626 20.6354C174.319 17.3344 154.349 16 128.001 16C101.653 16 81.6823 17.3344 66.3759 20.6354C51.2491 23.8981 41.7746 28.8513 35.3134 35.3125C28.8521 41.7737 23.8989 51.2482 20.6363 66.375C17.3352 81.6814 16.0009 101.652 16.0009 128C16.0009 168.19 19.187 192.854 26.8654 208.583C28.7982 212.542 29.0128 217.128 27.4592 221.25C25.1557 227.362 22.5762 233.431 19.6571 239.396L19.48 239.75C31.3132 240.629 43.1148 239.011 54.1884 235.083C57.1219 234.043 60.2994 233.889 63.3238 234.625C78.9545 238.431 99.8126 240 128.001 240V256C99.4887 256 77.0829 254.438 59.5425 250.167C42.9905 256.038 25.0326 257.586 7.35503 254.302C1.48694 253.21 -1.71516 246.67 0.948777 241.219L5.28211 232.365C7.95819 226.897 10.3456 221.295 12.4904 215.604C3.02732 196.221 0.000860754 168.159 0.000860754 128C0.000861262 21.3333 21.3342 5.08663e-07 128.001 0C234.668 0 256.001 21.3333 256.001 128C256.001 234.667 234.668 256 128.001 256V240C154.349 240 174.319 238.666 189.626 235.365C204.753 232.102 214.227 227.149 220.688 220.688C227.15 214.226 232.103 204.752 235.365 189.625C238.666 174.319 240.001 154.348 240.001 128Z" fill="black"/>
</svg>
