<svg width="256" height="256" viewBox="0 0 256 256" fill="none" xmlns="http://www.w3.org/2000/svg">
<path d="M187.885 78.4694C191.673 76.1987 196.592 77.4317 198.864 81.2194C201.135 85.0076 199.902 89.926 196.114 92.1985C162.015 112.659 132.882 140.433 110.823 173.521L102.656 185.771C101.135 188.052 98.5528 189.398 95.8122 189.334C93.0707 189.269 90.5461 187.8 89.1352 185.449L83.031 175.271C77.1261 165.431 69.1112 157.023 59.5622 150.657C55.886 148.206 54.8927 143.239 57.3435 139.563C59.7943 135.887 64.761 134.894 68.4372 137.344C79.7447 144.883 89.2488 154.806 96.3331 166.396L97.5102 164.646C120.884 129.586 151.753 100.149 187.885 78.4694Z" fill="black"/>
</svg>
