<svg width="256" height="256" viewBox="0 0 256 256" fill="none" xmlns="http://www.w3.org/2000/svg">
<path d="M187.885 73.1354C191.674 70.8647 196.592 72.0978 198.865 75.8854C201.135 79.6736 199.902 84.592 196.115 86.8646C162.015 107.325 132.882 135.099 110.823 168.188L102.656 180.438C101.136 182.718 98.553 184.064 95.8125 184C93.0709 183.935 90.5464 182.466 89.1354 180.115L83.0313 169.938C77.1264 160.097 69.1115 151.689 59.5625 145.323C55.8863 142.872 54.8929 137.905 57.3438 134.229C59.7946 130.553 64.7613 129.56 68.4375 132.01C79.7449 139.549 89.2491 149.472 96.3333 161.063L97.5104 159.313C120.884 124.252 151.753 94.8149 187.885 73.1354Z" fill="black"/>
<path fill-rule="evenodd" clip-rule="evenodd" d="M128 0C234.667 0 256 21.3333 256 128C256 234.667 234.667 256 128 256C21.3333 256 0 234.667 0 128C0 21.3333 21.3333 0 128 0ZM128 16C101.652 16 81.6814 17.3344 66.375 20.6354C51.2482 23.8981 41.7737 28.8513 35.3125 35.3125C28.8513 41.7737 23.8981 51.2482 20.6354 66.375C17.3344 81.6814 16 101.652 16 128C16 154.348 17.3344 174.319 20.6354 189.625C23.8981 204.752 28.8513 214.226 35.3125 220.688C41.7737 227.149 51.2482 232.102 66.375 235.365C81.6814 238.666 101.652 240 128 240C154.348 240 174.319 238.666 189.625 235.365C204.752 232.102 214.226 227.149 220.688 220.688C227.149 214.226 232.102 204.752 235.365 189.625C238.666 174.319 240 154.348 240 128C240 101.652 238.666 81.6814 235.365 66.375C232.102 51.2482 227.149 41.7737 220.688 35.3125C214.226 28.8513 204.752 23.8981 189.625 20.6354C174.319 17.3344 154.348 16 128 16Z" fill="black"/>
</svg>
