<svg width="256" height="256" viewBox="0 0 256 256" fill="none" xmlns="http://www.w3.org/2000/svg">
<path fill-rule="evenodd" clip-rule="evenodd" d="M128 0C151.909 0 172.741 13.1181 183.729 32.5417C183.971 32.5104 184.216 32.4974 184.458 32.4688C185.359 32.3616 186.261 32.2667 187.167 32.1979C187.582 32.166 187.999 32.1385 188.417 32.1146C189.377 32.0605 190.339 32.0315 191.302 32.0208C191.534 32.0182 191.767 32 192 32H192.781C193.236 32.0055 193.691 32.0369 194.146 32.0521C194.675 32.0695 195.203 32.0844 195.729 32.1146C195.882 32.1235 196.035 32.1254 196.188 32.1354C196.556 32.1596 196.924 32.1986 197.292 32.2292C197.888 32.278 198.482 32.3308 199.073 32.3958C199.55 32.4488 200.025 32.5093 200.5 32.5729C201.156 32.66 201.809 32.7578 202.458 32.8646C202.845 32.9286 203.23 33.0019 203.615 33.0729C204.447 33.2255 205.273 33.3885 206.094 33.5729C206.212 33.5996 206.33 33.6289 206.448 33.6563C207.472 33.8925 208.485 34.1527 209.49 34.4375C209.538 34.4513 209.587 34.4652 209.635 34.4792C211.752 35.0847 213.823 35.7923 215.844 36.6042C215.92 36.6349 215.996 36.6669 216.073 36.6979C217.014 37.0805 217.946 37.4807 218.865 37.9063C218.976 37.9577 219.087 38.0104 219.198 38.0625C223.212 39.9499 226.995 42.2412 230.5 44.8854C230.834 45.1372 231.161 45.398 231.49 45.6563C231.987 46.047 232.483 46.4387 232.969 46.8438C233.321 47.1372 233.665 47.4387 234.01 47.7396C234.478 48.1468 234.941 48.5587 235.396 48.9792C235.74 49.2975 236.079 49.622 236.417 49.9479C236.874 50.3896 237.326 50.8367 237.771 51.2917C238.104 51.6326 238.435 51.9745 238.76 52.3229C239.21 52.8044 239.648 53.2964 240.083 53.7917C240.338 54.0821 240.594 54.3715 240.844 54.6667C241.327 55.2373 241.797 55.8187 242.26 56.4063C242.428 56.6196 242.605 56.8261 242.771 57.0417C242.815 57.099 242.852 57.1613 242.896 57.2188C248.232 64.2118 252.153 72.3323 254.25 81.1667C254.274 81.2682 254.31 81.3671 254.333 81.4688C254.353 81.5549 254.366 81.6429 254.385 81.7292C254.553 82.4639 254.702 83.2038 254.844 83.9479C254.935 84.4265 255.023 84.9053 255.104 85.3854C255.217 86.0624 255.315 86.7431 255.406 87.4271C255.463 87.8473 255.525 88.2665 255.573 88.6875C255.628 89.1686 255.675 89.6512 255.719 90.1354C255.783 90.8396 255.834 91.5444 255.875 92.25C255.9 92.6761 255.921 93.103 255.938 93.5313C255.962 94.1597 255.974 94.7879 255.979 95.4167C255.981 95.611 256 95.8053 256 96C256 96.5259 255.981 97.0501 255.969 97.5729C255.961 97.8715 255.959 98.1702 255.948 98.4688C255.512 109.95 252.046 120.647 246.333 129.802C246.114 130.155 245.893 130.506 245.667 130.854C245.223 131.535 244.76 132.202 244.292 132.865C244.196 133 244.117 133.147 244.021 133.281L243.99 133.323C243.423 134.11 242.83 134.876 242.229 135.635C242.022 135.897 241.815 136.158 241.604 136.417C241.286 136.806 240.962 137.191 240.635 137.573C239.336 139.094 237.965 140.548 236.531 141.938C236.302 142.16 236.066 142.375 235.833 142.594C233.699 144.602 231.435 146.467 229.042 148.167C228.627 148.462 228.204 148.746 227.781 149.031C227.379 149.303 226.982 149.581 226.573 149.844C226.017 150.201 225.453 150.545 224.885 150.885C224.589 151.063 224.3 151.254 224 151.427C223.862 151.507 223.714 151.565 223.573 151.635C220.317 153.486 216.893 155.079 213.313 156.344C213.319 157.547 213.333 158.766 213.333 160C213.333 240 199.111 256 128 256C56.8889 256 42.6667 240 42.6667 160C42.6667 158.766 42.6702 157.547 42.6771 156.344C41.67 155.988 40.6811 155.592 39.6979 155.188C39.6371 155.163 39.5711 155.15 39.5104 155.125C39.3942 155.077 39.2826 155.018 39.1667 154.969C38.2668 154.589 37.3784 154.19 36.5 153.771C36.3555 153.702 36.2065 153.643 36.0625 153.573C35.0969 153.104 34.146 152.609 33.2083 152.094C32.9534 151.954 32.7008 151.81 32.4479 151.667C31.7049 151.245 30.9741 150.804 30.25 150.354C29.961 150.175 29.6715 149.996 29.3854 149.813C28.6171 149.318 27.8598 148.808 27.1146 148.281C26.7955 148.056 26.4815 147.825 26.1667 147.594C25.565 147.152 24.9708 146.702 24.3854 146.24C24.129 146.037 23.8679 145.841 23.6146 145.635C22.856 145.018 22.1146 144.38 21.3854 143.729C21.0756 143.453 20.7733 143.168 20.4688 142.885C19.9178 142.374 19.3764 141.853 18.8438 141.323C18.6403 141.12 18.43 140.924 18.2292 140.719C17.5095 139.983 16.8088 139.228 16.125 138.458C16.0468 138.37 15.9632 138.287 15.8854 138.198C15.7928 138.092 15.7065 137.981 15.6146 137.875C14.2072 136.251 12.8862 134.552 11.6458 132.792C11.4807 132.557 11.3181 132.32 11.1563 132.083C9.91247 130.267 8.76292 128.382 7.70833 126.438C7.61074 126.257 7.51252 126.077 7.41667 125.896C3.03096 117.618 0.397837 108.268 0.0416667 98.3333C0.0311868 98.0452 0.0274212 97.757 0.0208333 97.4688C0.00983347 96.9805 0 96.4909 0 96C0 95.6974 0.0166457 95.3954 0.0208333 95.0938C0.0282536 94.5727 0.042357 94.0521 0.0625 93.5313C0.0875006 92.8723 0.121884 92.2163 0.166667 91.5625C0.200497 91.0761 0.23629 90.59 0.28125 90.1042C0.35753 89.2692 0.454454 88.44 0.5625 87.6146C0.596857 87.3546 0.618683 87.093 0.65625 86.8333C2.2388 75.8 6.64379 65.6843 13.1042 57.2188C13.1479 57.1613 13.1852 57.099 13.2292 57.0417C13.3421 56.8945 13.4588 56.7503 13.5729 56.6042C14.1601 55.8536 14.766 55.119 15.3854 54.3958C15.5599 54.192 15.7398 53.9932 15.9167 53.7917C16.4588 53.1746 17.0078 52.5645 17.5729 51.9688C17.8265 51.7014 18.0753 51.4295 18.3333 51.1667C18.9769 50.5112 19.6414 49.8774 20.3125 49.25C20.4506 49.1209 20.5795 48.982 20.7188 48.8542C22.4333 47.2793 24.2356 45.799 26.1146 44.4167C26.2993 44.281 26.4909 44.1545 26.6771 44.0208C27.4976 43.4306 28.3282 42.8537 29.1771 42.3021C29.2676 42.2434 29.3571 42.1832 29.4479 42.125C36.4256 37.6407 44.3309 34.4852 52.8125 32.9896C52.9513 32.9649 53.0902 32.9404 53.2292 32.9167C54.1085 32.7676 54.9943 32.644 55.8854 32.5313C56.2745 32.4814 56.662 32.4177 57.0521 32.375C57.8014 32.2941 58.5557 32.2423 59.3125 32.1875C59.7083 32.1584 60.1034 32.1155 60.5 32.0938C61.6587 32.0313 62.8257 32 64 32C66.7997 32 69.5556 32.193 72.2604 32.5417C83.2477 13.1156 104.089 0 128 0ZM128 16C110.092 16 94.4534 25.8034 86.1875 40.4167C82.9845 46.0798 76.6715 49.2367 70.2188 48.4063C68.1381 48.1381 66.0633 48 64 48C59.2594 48 54.6796 48.6885 50.3542 49.9688C47.7537 50.7393 45.2183 51.7411 42.7708 52.9479C41.9994 53.3283 41.2375 53.7256 40.4896 54.1458C39.5563 54.6712 38.6433 55.2278 37.75 55.8125C35.568 57.2381 33.5037 58.8354 31.5833 60.5938C28.8184 63.1266 26.3507 65.9801 24.2396 69.0938C20.6603 74.3848 18.1773 80.3511 16.9271 86.6354C16.5826 88.3674 16.3394 90.1134 16.1875 91.8646C16.0955 92.9419 16.0404 94.0286 16.0208 95.125C16.0112 95.646 16.0136 96.1666 16.0208 96.6875C16.0849 101.241 16.7914 105.637 18.0417 109.802C18.2448 110.478 18.4656 111.147 18.6979 111.813C23.3738 125.199 33.8016 135.878 47.0625 140.885C53.4611 143.3 60.2991 144.343 67.1354 143.896C74.4816 143.414 81.6242 141.254 88 137.573C91.8263 135.364 96.7179 136.674 98.9271 140.5C101.135 144.326 99.8259 149.218 96 151.427C87.499 156.335 77.9825 159.222 68.1875 159.865C65.0062 160.073 61.8255 160.015 58.6667 159.75C58.6666 159.833 58.6667 159.917 58.6667 160C58.6667 179.722 59.5655 194.508 61.7188 205.74C63.8567 216.889 67.0082 223.306 70.625 227.375C77.775 235.416 91.8597 240 128 240C164.14 240 178.225 235.416 185.375 227.375C188.992 223.306 192.143 216.889 194.281 205.74C196.435 194.508 197.333 179.722 197.333 160C197.333 158.821 197.32 157.767 197.313 156.438C197.273 149.623 201.555 143.532 207.979 141.26C226.502 134.718 239.749 117.165 239.969 96.5208C239.973 96.1769 239.983 95.8335 239.979 95.4896C239.932 90.9711 239.266 86.6058 238.052 82.4688C236.401 76.8515 233.734 71.5738 230.177 66.9063C228.018 64.0776 225.547 61.5035 222.823 59.2188C220.293 57.0988 217.551 55.2308 214.625 53.6667C213.133 52.8693 211.603 52.1538 210.042 51.5208C209.158 51.1621 208.263 50.8275 207.354 50.5208C205.903 50.0311 204.429 49.6093 202.938 49.2604C199.492 48.4572 195.905 48.0164 192.219 48C191.958 47.9988 191.698 48.0074 191.438 48.0104C189.717 48.0312 187.996 48.1486 186.271 48.3542C182.46 48.8112 178.706 49.7137 175.094 51.0729C168.699 53.4797 162.894 57.2312 158.063 62.0625C154.94 65.1853 149.875 65.1825 146.75 62.0625C143.626 58.9383 143.626 53.8742 146.75 50.75C152.71 44.7901 159.786 40.079 167.563 36.8646C158.889 24.2412 144.405 16 128 16Z" fill="black"/>
</svg>
