<svg width="256" height="256" viewBox="0 0 256 256" fill="none" xmlns="http://www.w3.org/2000/svg">
<path d="M170.666 160C175.085 160 178.666 163.582 178.666 168C178.666 172.418 175.085 176 170.666 176H85.333C80.9147 176 77.333 172.418 77.333 168C77.333 163.582 80.9147 160 85.333 160H170.666Z" fill="black"/>
<path d="M170.666 117.333C175.085 117.333 178.666 120.915 178.666 125.333C178.666 129.752 175.085 133.333 170.666 133.333H85.333C80.9147 133.333 77.333 129.752 77.333 125.333C77.333 120.915 80.9147 117.333 85.333 117.333H170.666Z" fill="black"/>
<path fill-rule="evenodd" clip-rule="evenodd" d="M139.093 0.09375C186.54 0.915462 200.099 7.7641 202.312 33.5208L204.666 34.9375C228.39 50.1119 234.666 80.5883 234.666 138.667L234.614 147.604C233.487 237.644 214.11 256 128 256L119.875 255.938C38.0184 254.698 21.3334 233.386 21.333 138.667C21.3333 78.7177 28.017 48.1707 53.6768 33.5104C56.0566 5.8556 71.5346 0 128 0L139.093 0.09375ZM202.146 53.4167C199.301 79.7023 183.362 85.3333 128 85.3333L116.906 85.25C70.459 84.4456 56.4778 77.8583 53.833 53.4167C53.6144 53.6427 53.3871 53.8625 53.1768 54.0938C48.0586 59.7247 43.9296 68.2357 41.1976 82.1667C38.4475 96.1974 37.3331 114.514 37.333 138.667C37.3331 162.819 38.4475 181.136 41.1976 195.167C43.9296 209.098 48.0586 217.609 53.1768 223.24C63.4332 234.516 82.9273 240 128 240C173.072 240 192.566 234.516 202.823 223.24C207.941 217.609 212.07 209.098 214.802 195.167C217.552 181.136 218.666 162.819 218.666 138.667C218.666 114.514 217.552 96.1974 214.802 82.1667C212.07 68.2357 207.941 59.7247 202.823 54.0938L202.146 53.4167ZM128 16C112.619 16 100.962 16.4424 92.0413 17.5417C82.9862 18.6577 78.0301 20.3189 75.2705 21.8958C73.1312 23.1188 72.0723 24.3853 71.2184 26.6458C70.1067 29.5913 69.333 34.3984 69.333 42.6667C69.333 50.9349 70.1067 55.7421 71.2184 58.6875C72.0723 60.948 73.1312 62.2146 75.2705 63.4375C78.0301 65.0144 82.9862 66.6756 92.0413 67.7917C100.962 68.891 112.619 69.3333 128 69.3333C143.381 69.3333 155.038 68.891 163.958 67.7917C173.013 66.6756 177.969 65.0144 180.729 63.4375C182.868 62.2146 183.927 60.948 184.781 58.6875C185.893 55.7421 186.666 50.9349 186.666 42.6667C186.666 34.3984 185.893 29.5913 184.781 26.6458C183.927 24.3853 182.868 23.1188 180.729 21.8958C177.969 20.3189 173.013 18.6577 163.958 17.5417C155.038 16.4424 143.381 16 128 16Z" fill="black"/>
</svg>
