<svg width="256" height="256" viewBox="0 0 256 256" fill="none" xmlns="http://www.w3.org/2000/svg">
<path d="M125.281 96.4795C127.328 95.7395 129.602 95.8601 131.573 96.8441L139.417 100.761C149.123 105.614 157.983 112.004 165.656 119.677C168.78 122.802 168.78 127.866 165.656 130.99C162.532 134.114 157.468 134.114 154.344 130.99C148.887 125.533 142.711 120.858 136 117.073V178.667C136 183.085 132.418 186.667 128 186.667C123.582 186.667 120 183.085 120 178.667V117.073C113.289 120.858 107.113 125.532 101.656 130.99C98.5324 134.114 93.4681 134.113 90.3438 130.99C87.2198 127.866 87.2202 122.802 90.3438 119.677C98.0159 112.004 106.877 105.613 116.583 100.761L124.427 96.8441L125.281 96.4795Z" fill="black"/>
<path fill-rule="evenodd" clip-rule="evenodd" d="M104 10.667C143.331 10.6674 176.223 38.1311 184.594 74.9274C221.584 77.9431 250.667 108.9 250.667 146.667C250.666 177.512 231.091 208.162 202.667 218.209C152.573 235.914 98.094 235.914 48 218.209C19.5773 208.162 0.000482066 177.512 0 146.667C0 126.641 8.17926 108.511 21.3646 95.4691C21.3465 94.7593 21.3333 94.0475 21.3333 93.3337C21.3333 47.6785 58.3448 10.667 104 10.667ZM104 26.667C67.1814 26.667 37.3333 56.515 37.3333 93.3337C37.3334 94.9745 37.3943 96.6 37.5104 98.2087C37.6896 100.69 36.7039 103.119 34.8438 104.771C23.2745 115.041 16 130 16 146.667C16.0005 171.552 32.0432 195.6 53.3333 203.125C99.9768 219.611 150.69 219.611 197.333 203.125C218.623 195.601 234.666 171.552 234.667 146.667C234.667 115.74 209.594 90.6678 178.667 90.667C178.445 90.667 178.221 90.6644 178 90.667C173.985 90.7124 170.558 87.7773 169.99 83.8024C165.371 51.5014 137.579 26.6674 104 26.667Z" fill="black"/>
</svg>
