<svg width="256" height="256" viewBox="0 0 256 256" fill="none" xmlns="http://www.w3.org/2000/svg">
<path d="M237.334 149.333C237.334 118.406 212.261 93.3339 181.334 93.333C181.112 93.333 180.888 93.3305 180.667 93.333C176.652 93.3784 173.225 90.4433 172.657 86.4684C168.038 54.1674 140.246 29.3334 106.667 29.333C69.8484 29.333 40.0003 59.1811 40.0003 95.9997C40.0003 97.6405 40.0613 99.2661 40.1774 100.875C40.3566 103.356 39.3709 105.785 37.5107 107.437C25.9415 117.707 18.667 132.666 18.667 149.333C18.6675 174.218 34.7102 198.266 56.0003 205.791C102.644 222.277 153.357 222.277 200 205.791C221.29 198.267 237.333 174.218 237.334 149.333ZM253.334 149.333C253.333 180.178 233.758 210.828 205.334 220.875C155.24 238.58 100.761 238.58 50.667 220.875C22.2443 210.828 2.66747 180.178 2.66699 149.333C2.66699 129.307 10.8463 111.177 24.0316 98.1351C24.0135 97.4253 24.0003 96.7135 24.0003 95.9997C24.0003 50.3445 61.0118 13.333 106.667 13.333C145.998 13.3334 178.89 40.7971 187.261 77.5934C224.251 80.6091 253.334 111.566 253.334 149.333Z" fill="black"/>
</svg>
