<svg width="256" height="256" viewBox="0 0 256 256" fill="none" xmlns="http://www.w3.org/2000/svg">
<path d="M128 85.3337C132.418 85.3337 136 88.9154 136 93.3337V154.927C142.711 151.143 148.887 146.468 154.344 141.011C157.468 137.887 162.532 137.887 165.656 141.011C168.78 144.135 168.78 149.199 165.656 152.323C157.983 159.997 149.123 166.387 139.417 171.24L131.573 175.157C129.602 176.141 127.328 176.261 125.281 175.521L124.427 175.157L116.583 171.24C106.877 166.388 98.0159 159.997 90.3438 152.323C87.2202 149.199 87.2198 144.135 90.3438 141.011C93.4681 137.887 98.5324 137.887 101.656 141.011C107.113 146.468 113.289 151.143 120 154.927V93.3337C120 88.9154 123.582 85.3337 128 85.3337Z" fill="black"/>
<path fill-rule="evenodd" clip-rule="evenodd" d="M104 10.667C143.331 10.6674 176.223 38.1311 184.594 74.9274C221.584 77.9431 250.667 108.9 250.667 146.667C250.666 177.512 231.091 208.162 202.667 218.209C152.573 235.914 98.094 235.914 48 218.209C19.5773 208.162 0.000482066 177.512 0 146.667C0 126.641 8.17926 108.511 21.3646 95.4691C21.3465 94.7593 21.3333 94.0475 21.3333 93.3337C21.3333 47.6785 58.3448 10.667 104 10.667ZM104 26.667C67.1814 26.667 37.3333 56.515 37.3333 93.3337C37.3334 94.9745 37.3943 96.6 37.5104 98.2087C37.6896 100.69 36.7039 103.119 34.8438 104.771C23.2745 115.041 16 130 16 146.667C16.0005 171.552 32.0432 195.6 53.3333 203.125C99.9768 219.611 150.69 219.611 197.333 203.125C218.623 195.601 234.666 171.552 234.667 146.667C234.667 115.74 209.594 90.6678 178.667 90.667C178.445 90.667 178.221 90.6644 178 90.667C173.985 90.7124 170.558 87.7773 169.99 83.8024C165.371 51.5014 137.579 26.6674 104 26.667Z" fill="black"/>
</svg>
