<svg width="256" height="256" viewBox="0 0 256 256" fill="none" xmlns="http://www.w3.org/2000/svg">
<path d="M163.51 135.094C165.486 131.143 170.289 129.538 174.24 131.51C189.511 139.146 202.085 151.618 209.74 166.927C210.917 169.282 210.917 172.052 209.74 174.406C202.085 189.715 189.511 202.187 174.24 209.823C170.289 211.796 165.486 210.19 163.51 206.24C161.538 202.289 163.143 197.486 167.094 195.51C178.139 189.987 187.389 181.285 193.563 170.667C187.389 160.048 178.139 151.347 167.094 145.823C163.143 143.848 161.538 139.045 163.51 135.094Z" fill="black"/>
<path d="M186.344 58.3438C189.468 55.2196 194.532 55.2196 197.656 58.3438C200.78 61.4679 200.78 66.5321 197.656 69.6563L69.6563 197.656C66.5321 200.78 61.4679 200.78 58.3438 197.656C55.2196 194.532 55.2196 189.468 58.3438 186.344L186.344 58.3438Z" fill="black"/>
<path d="M81.7604 46.1771C85.7115 44.2044 90.5144 45.81 92.4896 49.7604C94.4623 53.7115 92.8567 58.5144 88.9063 60.4896C77.8611 66.0132 68.6111 74.7152 62.4375 85.3333C68.6111 95.9515 77.8611 104.653 88.9063 110.177C92.8567 112.152 94.4623 116.955 92.4896 120.906C90.5144 124.857 85.7115 126.462 81.7604 124.49C66.4892 116.854 53.915 104.382 46.2604 89.0729C45.0833 86.7184 45.0833 83.9483 46.2604 81.5938C53.915 66.2846 66.4892 53.8127 81.7604 46.1771Z" fill="black"/>
<path fill-rule="evenodd" clip-rule="evenodd" d="M128 0C234.667 0 256 21.3333 256 128C256 234.667 234.667 256 128 256C21.3333 256 0 234.667 0 128C0 21.3333 21.3333 0 128 0ZM128 16C101.652 16 81.6814 17.3344 66.375 20.6354C51.2482 23.8981 41.7737 28.8513 35.3125 35.3125C28.8513 41.7737 23.8981 51.2482 20.6354 66.375C17.3344 81.6814 16 101.652 16 128C16 154.348 17.3344 174.319 20.6354 189.625C23.8981 204.752 28.8513 214.226 35.3125 220.688C41.7737 227.149 51.2482 232.102 66.375 235.365C81.6814 238.666 101.652 240 128 240C154.348 240 174.319 238.666 189.625 235.365C204.752 232.102 214.226 227.149 220.688 220.688C227.149 214.226 232.102 204.752 235.365 189.625C238.666 174.319 240 154.348 240 128C240 101.652 238.666 81.6814 235.365 66.375C232.102 51.2482 227.149 41.7737 220.688 35.3125C214.226 28.8513 204.752 23.8981 189.625 20.6354C174.319 17.3344 154.348 16 128 16Z" fill="black"/>
</svg>
