<svg width="256" height="256" viewBox="0 0 256 256" fill="none" xmlns="http://www.w3.org/2000/svg">
<path fill-rule="evenodd" clip-rule="evenodd" d="M106.667 82.6638C146.364 82.6638 194.292 82.1429 208.896 117.685L212.365 118.247C247.416 124.291 256.01 139.364 256.01 173.33L255.958 177.799C255.061 213.661 242.571 226.748 194.01 230.601C178.435 248.022 151.52 253.33 106.667 253.33C22.1207 253.33 1.28238 234.487 0.0625 151.164L0 142.903C0.00137617 81.916 59.2175 82.6638 106.667 82.6638ZM106.667 98.6638C81.9956 98.6638 58.4901 98.6827 40.9375 104.976C32.6417 107.951 26.759 112.001 22.8542 117.278C19.0102 122.476 16.0003 130.327 16 142.903C16.0002 165.111 17.2166 181.956 20.0312 194.862C22.8128 207.614 26.9458 215.531 32.1146 220.883C42.6641 231.804 62.6079 237.33 106.667 237.33C150.725 237.33 170.669 231.804 181.219 220.883C186.387 215.531 190.521 207.614 193.302 194.862C196.117 181.956 197.333 165.111 197.333 142.903C197.333 130.327 194.323 122.476 190.479 117.278C186.574 112.001 180.692 107.951 172.396 104.976C154.843 98.6827 131.338 98.6638 106.667 98.6638ZM212.948 134.726C213.201 137.321 213.333 140.044 213.333 142.903L213.271 151.164C212.856 179.468 210.16 200.326 203.49 215.539C203.791 214.852 204.1 214.156 204.385 213.445C216.111 211.864 223.529 209.602 228.302 206.976C232.809 204.495 235.265 201.57 236.948 197.278C238.904 192.287 240.01 184.895 240.01 173.33C240.01 161.765 238.904 154.374 236.948 149.383C235.265 145.09 232.81 142.166 228.302 139.685C224.811 137.765 219.903 136.036 212.937 134.622L212.948 134.726Z" fill="black"/>
<path d="M61.0312 0.570022C65.1323 -1.06881 69.7859 0.92817 71.4271 5.02836L73.2396 9.54919C79.7206 25.7542 78.9597 43.9589 71.1562 59.57C69.181 63.5205 64.3781 65.1261 60.4271 63.1534C56.4773 61.1779 54.8712 56.3749 56.8437 52.4242C62.6058 40.8989 63.1709 27.4505 58.3854 15.4867L56.5729 10.9659C54.9346 6.86447 56.9302 2.21045 61.0312 0.570022Z" fill="black"/>
<path d="M135.698 0.570022C139.799 -1.06881 144.453 0.92817 146.094 5.02836L147.906 9.54919C154.387 25.7542 153.626 43.9589 145.823 59.57C143.848 63.5205 139.045 65.1261 135.094 63.1534C131.144 61.1779 129.538 56.3749 131.51 52.4242C137.272 40.8989 137.838 27.4505 133.052 15.4867L131.24 10.9659C129.601 6.86447 131.597 2.21045 135.698 0.570022Z" fill="black"/>
</svg>
