<svg width="256" height="256" viewBox="0 0 256 256" fill="none" xmlns="http://www.w3.org/2000/svg">
<path fill-rule="evenodd" clip-rule="evenodd" d="M128 21.333C138.3 21.333 234.666 117.699 234.666 128C234.666 138.3 138.3 234.666 128 234.666C117.699 234.666 21.333 138.3 21.333 128C21.333 117.699 117.699 21.333 128 21.333ZM128 39.8538C125.177 42.0391 121.649 44.9799 117.541 48.583C107.405 57.4741 94.6526 69.5759 82.1143 82.1143C69.5759 94.6526 57.4741 107.405 48.583 117.541C44.9799 121.649 42.0391 125.177 39.8538 128C42.0391 130.822 44.9799 134.35 48.583 138.458C57.4741 148.594 69.5759 161.347 82.1143 173.885C94.6526 186.423 107.405 198.525 117.541 207.416C121.646 211.017 125.178 213.95 128 216.135C130.821 213.95 134.353 211.017 138.458 207.416C148.594 198.525 161.347 186.423 173.885 173.885C186.423 161.347 198.525 148.594 207.416 138.458C211.017 134.353 213.95 130.821 216.135 128C213.95 125.178 211.017 121.646 207.416 117.541C198.525 107.405 186.423 94.6526 173.885 82.1143C161.347 69.5759 148.594 57.4741 138.458 48.583C134.35 44.9799 130.822 42.0391 128 39.8538Z" fill="black"/>
</svg>
