<svg width="256" height="256" viewBox="0 0 256 256" fill="none" xmlns="http://www.w3.org/2000/svg">
<path fill-rule="evenodd" clip-rule="evenodd" d="M128 149.333C138.666 149.333 170.666 181.333 170.666 192C170.666 202.666 138.666 234.666 128 234.666C117.333 234.666 85.333 202.666 85.333 192C85.333 181.333 117.333 149.333 128 149.333ZM126.041 167.583C122.48 170.089 118.181 173.777 113.979 177.979C109.777 182.181 106.089 186.48 103.583 190.041C103.068 190.774 102.646 191.431 102.291 192C102.646 192.569 103.068 193.226 103.583 193.958C106.089 197.519 109.777 201.818 113.979 206.021C118.181 210.223 122.48 213.91 126.041 216.416C126.772 216.93 127.432 217.344 128 217.698C128.568 217.344 129.228 216.93 129.958 216.416C133.519 213.91 137.818 210.223 142.021 206.021C146.223 201.818 149.91 197.519 152.416 193.958C152.93 193.228 153.344 192.568 153.698 192C153.344 191.432 152.93 190.772 152.416 190.041C149.91 186.48 146.223 182.181 142.021 177.979C137.818 173.777 133.519 170.089 129.958 167.583C129.226 167.068 128.569 166.646 128 166.291C127.431 166.646 126.774 167.068 126.041 167.583Z" fill="black"/>
<path fill-rule="evenodd" clip-rule="evenodd" d="M63.9997 85.333C74.6663 85.333 106.666 117.333 106.666 128C106.666 138.666 74.6663 170.666 63.9997 170.666C53.333 170.666 21.333 138.666 21.333 128C21.333 117.333 53.333 85.333 63.9997 85.333ZM62.0413 103.583C58.4803 106.089 54.1809 109.777 49.9788 113.979C45.7768 118.181 42.0889 122.48 39.583 126.041C39.0677 126.774 38.6457 127.431 38.2913 128C38.6457 128.569 39.0677 129.226 39.583 129.958C42.0889 133.519 45.7768 137.818 49.9788 142.021C54.1809 146.223 58.4803 149.91 62.0413 152.416C62.7716 152.93 63.4317 153.344 63.9997 153.698C64.5677 153.344 65.2277 152.93 65.958 152.416C69.519 149.91 73.8184 146.223 78.0205 142.021C82.2226 137.818 85.9104 133.519 88.4163 129.958C88.9302 129.228 89.3438 128.568 89.6976 128C89.3438 127.432 88.9302 126.772 88.4163 126.041C85.9104 122.48 82.2226 118.181 78.0205 113.979C73.8184 109.777 69.519 106.089 65.958 103.583C65.2257 103.068 64.5688 102.646 63.9997 102.291C63.4306 102.646 62.7736 103.068 62.0413 103.583Z" fill="black"/>
<path fill-rule="evenodd" clip-rule="evenodd" d="M192 85.333C202.666 85.333 234.666 117.333 234.666 128C234.666 138.666 202.666 170.666 192 170.666C181.333 170.666 149.333 138.666 149.333 128C149.333 117.333 181.333 85.333 192 85.333ZM190.041 103.583C186.48 106.089 182.181 109.777 177.979 113.979C173.777 118.181 170.089 122.48 167.583 126.041C167.068 126.774 166.646 127.431 166.291 128C166.646 128.569 167.068 129.226 167.583 129.958C170.089 133.519 173.777 137.818 177.979 142.021C182.181 146.223 186.48 149.91 190.041 152.416C190.772 152.93 191.432 153.344 192 153.698C192.568 153.344 193.228 152.93 193.958 152.416C197.519 149.91 201.818 146.223 206.021 142.021C210.223 137.818 213.91 133.519 216.416 129.958C216.93 129.228 217.344 128.568 217.698 128C217.344 127.432 216.93 126.772 216.416 126.041C213.91 122.48 210.223 118.181 206.021 113.979C201.818 109.777 197.519 106.089 193.958 103.583C193.226 103.068 192.569 102.646 192 102.291C191.431 102.646 190.774 103.068 190.041 103.583Z" fill="black"/>
<path fill-rule="evenodd" clip-rule="evenodd" d="M128 21.333C138.666 21.333 170.666 53.333 170.666 63.9997C170.666 74.6663 138.666 106.666 128 106.666C117.333 106.666 85.333 74.6663 85.333 63.9997C85.333 53.333 117.333 21.333 128 21.333ZM126.041 39.583C122.48 42.0889 118.181 45.7768 113.979 49.9788C109.777 54.1809 106.089 58.4803 103.583 62.0413C103.068 62.7736 102.646 63.4306 102.291 63.9997C102.646 64.5688 103.068 65.2257 103.583 65.958C106.089 69.519 109.777 73.8184 113.979 78.0205C118.181 82.2226 122.48 85.9104 126.041 88.4163C126.772 88.9302 127.432 89.3438 128 89.6976C128.568 89.3438 129.228 88.9302 129.958 88.4163C133.519 85.9104 137.818 82.2226 142.021 78.0205C146.223 73.8184 149.91 69.519 152.416 65.958C152.93 65.2277 153.344 64.5677 153.698 63.9997C153.344 63.4317 152.93 62.7716 152.416 62.0413C149.91 58.4803 146.223 54.1809 142.021 49.9788C137.818 45.7768 133.519 42.0889 129.958 39.583C129.226 39.0677 128.569 38.6457 128 38.2913C127.431 38.6457 126.774 39.0677 126.041 39.583Z" fill="black"/>
</svg>
