<svg width="256" height="256" viewBox="0 0 256 256" fill="none" xmlns="http://www.w3.org/2000/svg">
<path d="M88.3024 4.28224C91.8282 1.62148 96.8487 2.3205 99.5107 5.84474C102.171 9.37068 101.473 14.3912 97.9482 17.0531C88.1839 24.4219 77.3922 34.2445 64.9691 46.6677C48.8666 62.7704 37.1905 76.0786 29.5524 87.9176C21.9656 99.678 18.6674 109.526 18.667 118.845C18.6671 128.165 21.9638 138.02 29.5524 149.782C37.1911 161.622 48.8657 174.929 64.9691 191.032C81.0725 207.136 94.3796 218.81 106.219 226.449C117.982 234.038 127.836 237.334 137.157 237.334C146.476 237.334 156.323 234.036 168.084 226.449C179.923 218.811 193.231 207.135 209.334 191.032C221.757 178.609 231.579 167.817 238.948 158.053C241.61 154.528 246.631 153.83 250.157 156.491C253.681 159.153 254.38 164.173 251.719 167.699C243.707 178.315 233.294 189.697 220.646 202.345C204.319 218.671 190.055 231.32 176.761 239.897C163.389 248.523 150.537 253.334 137.157 253.334C123.774 253.334 110.915 248.524 97.542 239.897C84.2473 231.319 69.9839 218.672 53.6566 202.345C37.3293 186.017 24.6822 171.754 16.1045 158.459C7.47696 145.087 2.66709 132.227 2.66699 118.845C2.66745 105.464 7.47829 92.6118 16.1045 79.2406C24.6816 65.9461 37.3298 51.6821 53.6566 35.3552C66.3048 22.707 77.6861 12.2943 88.3024 4.28224Z" fill="black"/>
<path d="M169.354 13.4385C190.034 9.99234 211.115 9.77674 231.844 12.7927L235.979 13.4385L236.104 13.4697C236.249 13.496 236.389 13.5397 236.532 13.5739L237.209 13.751C237.29 13.7783 237.368 13.815 237.448 13.8447C237.6 13.901 237.747 13.9665 237.896 14.0322C238.244 14.186 238.576 14.3639 238.896 14.5635C239.253 14.7867 239.602 15.0287 239.927 15.3135C239.974 15.3539 240.017 15.397 240.063 15.4385C240.149 15.5178 240.239 15.5942 240.323 15.6781C240.433 15.7883 240.533 15.9069 240.636 16.0218C240.68 16.0713 240.728 16.117 240.771 16.1677C240.979 16.4125 241.171 16.6657 241.344 16.9281C241.599 17.3131 241.804 17.729 241.99 18.1572C242.047 18.288 242.097 18.42 242.146 18.5531C242.257 18.8515 242.352 19.1554 242.427 19.4697C242.46 19.6053 242.496 19.7392 242.521 19.876C242.53 19.9253 242.555 19.9722 242.563 20.0218C246.238 42.0775 246.238 64.5912 242.563 86.6468C241.836 91.0036 237.711 93.9544 233.354 93.2301C228.998 92.504 226.047 88.3786 226.771 84.0218C229.275 68.9964 229.909 53.7399 228.709 38.5947L154.99 112.324C154.795 112.519 154.595 112.705 154.386 112.876C151.453 115.267 147.214 115.267 144.282 112.876C144.072 112.705 143.873 112.519 143.677 112.324C143.482 112.129 143.296 111.929 143.125 111.72C142.272 110.673 141.724 109.459 141.479 108.199C141.284 107.189 141.283 106.147 141.479 105.136C141.724 103.877 142.272 102.662 143.125 101.616C143.296 101.406 143.482 101.207 143.677 101.011L217.396 27.2822C202.255 26.0835 187.001 26.7265 171.979 29.2302C167.623 29.9544 163.498 27.0036 162.771 22.6468C162.047 18.2899 164.997 14.1647 169.354 13.4385Z" fill="black"/>
</svg>
