<svg width="256" height="256" viewBox="0 0 256 256" fill="none" xmlns="http://www.w3.org/2000/svg">
<path fill-rule="evenodd" clip-rule="evenodd" d="M206.219 47.4792C246.425 57.2007 256 84.1145 256 149.333C256 238.222 238.222 256 149.333 256C85.112 256 58.023 246.716 47.9271 208.042C10.9546 198.375 0.855705 173.182 0.0520833 114.792L0 106.667C0 17.7778 17.7778 0 106.667 0L114.792 0.0520833C173.183 0.855726 198.386 10.9522 208.052 47.9271C207.449 47.7696 206.836 47.6283 206.219 47.4792ZM149.333 58.6667C127.43 58.6667 111.015 59.7789 98.5417 62.4688C86.249 65.1203 78.8847 69.0736 73.9792 73.9792C69.0738 78.8849 65.1202 86.2488 62.4688 98.5417C59.7788 111.015 58.6667 127.43 58.6667 149.333C58.6667 171.237 59.7788 187.652 62.4688 200.125C65.1202 212.418 69.0738 219.782 73.9792 224.688C78.8847 229.593 86.249 233.546 98.5417 236.198C111.015 238.888 127.43 240 149.333 240C171.236 240 187.652 238.888 200.125 236.198C212.418 233.547 219.782 229.593 224.688 224.688C229.593 219.782 233.546 212.418 236.198 200.125C238.888 187.652 240 171.237 240 149.333C240 127.43 238.888 111.015 236.198 98.5417C233.546 86.2484 229.593 78.8848 224.688 73.9792C219.782 69.0738 212.418 65.1202 200.125 62.4688C187.652 59.779 171.236 58.6667 149.333 58.6667ZM106.667 16C84.7629 16 68.3481 17.1121 55.875 19.8021C43.5815 22.4536 36.2182 26.4068 31.3125 31.3125C26.4068 36.2182 22.4536 43.5815 19.8021 55.875C17.1121 68.3481 16 84.7629 16 106.667C16 128.57 17.1121 144.985 19.8021 157.458C22.4536 169.752 26.4068 177.115 31.3125 182.021C34.4989 185.207 38.7291 187.973 44.6667 190.26C44.6777 190.351 44.6868 190.441 44.6979 190.531C43.2532 178.872 42.6667 165.243 42.6667 149.333C42.6667 60.4449 60.4456 42.6668 149.333 42.6667C165.242 42.6667 178.872 43.2533 190.531 44.6979C190.441 44.6868 190.351 44.6777 190.26 44.6667C187.973 38.7291 185.207 34.4989 182.021 31.3125C177.115 26.4068 169.752 22.4536 157.458 19.8021C144.985 17.1121 128.57 16 106.667 16Z" fill="black"/>
</svg>
