<svg width="256" height="256" viewBox="0 0 256 256" fill="none" xmlns="http://www.w3.org/2000/svg">
<path d="M96 160C100.418 160 104 163.581 104 168C104 172.418 100.418 176 96 176H53.3333C48.9151 176 45.3333 172.418 45.3333 168C45.3333 163.581 48.9151 160 53.3333 160H96Z" fill="black"/>
<path d="M160 160C164.418 160 168 163.581 168 168C168 172.418 164.418 176 160 176H138.667C134.248 176 130.667 172.418 130.667 168C130.667 163.581 134.248 160 138.667 160H160Z" fill="black"/>
<path fill-rule="evenodd" clip-rule="evenodd" d="M128 21.333C234.667 21.333 256 39.1108 256 128L255.938 136.125C254.586 217.982 231.334 234.666 128 234.666L118.25 234.614C23.1891 233.524 1.37083 215.342 0.0625 136.125L0 128C0 39.1108 21.3333 21.333 128 21.333ZM239.24 103.968C165.247 96.9216 90.7531 96.9216 16.7604 103.968H16.7292C16.2511 111.037 16 119.002 16 128C16 172.877 21.8893 192.081 34.2396 202.375C40.6352 207.704 50.2958 211.957 65.8333 214.75C81.4034 217.548 101.594 218.666 128 218.666C154.406 218.666 174.597 217.548 190.167 214.75C205.704 211.957 215.365 207.704 221.76 202.375C234.111 192.081 240 172.877 240 128C240 119.002 239.739 111.037 239.26 103.968H239.24ZM128 37.333C101.594 37.333 81.4034 38.4514 65.8333 41.2497C50.2958 44.0424 40.6352 48.295 34.2396 53.6247C26.4796 60.0924 21.2691 70.0777 18.4688 87.7393C91.3302 81.0005 164.659 81.0011 237.521 87.7393C234.72 70.0787 229.52 60.0922 221.76 53.6247C215.365 48.295 205.704 44.0424 190.167 41.2497C174.597 38.4514 154.406 37.333 128 37.333Z" fill="black"/>
</svg>
