<svg width="256" height="256" viewBox="0 0 256 256" fill="none" xmlns="http://www.w3.org/2000/svg">
<path fill-rule="evenodd" clip-rule="evenodd" d="M106.667 21.3336C149.924 21.3336 202.945 20.5526 211.979 78.1773C247.353 84.1774 256 99.2435 256 133.334L255.948 137.802C255.106 171.436 244.077 185.061 202.646 189.802C189.314 224.837 161.281 234.667 106.667 234.667C19.3939 234.667 9.53329e-07 209.567 0 96.6252C0.00130723 20.3909 59.2175 21.3336 106.667 21.3336ZM106.667 37.3336C81.8284 37.3336 59.0405 37.3897 42.0833 44.9898C34.2422 48.5042 28.115 53.4971 23.7604 60.8544C19.3078 68.3795 16.0003 79.5906 16 96.6252C16 124.565 17.2129 146.225 20.1563 163.094C23.0998 179.963 27.5875 190.864 33.2708 198.219C43.9472 212.033 63.2021 218.667 106.667 218.667C150.131 218.667 169.386 212.033 180.063 198.219C185.746 190.864 190.234 179.963 193.177 163.094C196.12 146.225 197.333 124.565 197.333 96.6252C197.333 79.5906 194.026 68.3795 189.573 60.8544C185.218 53.4971 179.091 48.5042 171.25 44.9898C154.293 37.3897 131.505 37.3336 106.667 37.3336ZM213.333 96.6252C213.333 128.672 211.762 153.644 207.531 172.979C217.456 171.429 223.96 169.361 228.292 166.979C232.802 164.498 235.254 161.573 236.938 157.281C238.894 152.29 240 144.898 240 133.334C240 121.768 238.894 114.377 236.938 109.386C235.253 105.092 232.803 102.17 228.292 99.6877C224.862 97.8017 220.074 96.0984 213.302 94.6981C213.311 95.335 213.333 95.9772 213.333 96.6252Z" fill="black"/>
</svg>
