<svg width="256" height="256" viewBox="0 0 256 256" fill="none" xmlns="http://www.w3.org/2000/svg">
<path fill-rule="evenodd" clip-rule="evenodd" d="M21.3349 21.3328C48.0049 -5.33364 197.336 -5.33353 234.668 21.3328C256.001 42.6666 250.843 86.5004 245.335 127.999L244.127 136.197C237.574 176.466 223.094 206.342 192.002 234.666L188.179 238.01C169.366 253.788 154.195 255.999 128.002 255.999L122.897 255.968C99.7611 255.646 85.3734 252.738 67.814 238.01L64.0015 234.666C32.9087 206.342 18.4289 176.466 11.8765 136.197L10.6682 127.999C5.33247 87.7963 0.319328 45.401 19.4078 23.3953L21.3349 21.3328ZM189.054 117.843C177.142 115.858 164.946 116.342 153.231 119.27C136.666 123.411 119.337 123.411 102.772 119.27C91.0567 116.341 78.8613 115.858 66.9494 117.843L26.3557 124.604C26.4125 125.034 26.4652 125.465 26.5224 125.895C32.0166 167.293 44.8512 195.586 74.7724 222.843C83.7873 231.055 90.7645 234.928 97.8661 237.062C105.399 239.325 114.236 239.999 128.002 239.999C141.765 239.999 150.594 239.324 158.127 237.062C165.229 234.929 172.205 231.055 181.22 222.843C211.141 195.586 223.976 167.292 229.47 125.895C229.527 125.465 229.57 125.033 229.627 124.604L189.054 117.843ZM124.002 17.3328C102.016 17.3327 80.6802 18.955 63.5328 22.0724C54.9493 23.633 47.7563 25.5053 42.2099 27.5724C36.3998 29.7378 33.6226 31.6706 32.6474 32.6453C26.338 38.9548 22.5716 50.1232 21.9286 67.687C21.4728 80.1441 22.6228 94.042 24.3453 108.708L64.314 102.062C78.3898 99.7162 92.8034 100.289 106.647 103.749C120.665 107.254 135.338 107.254 149.356 103.749C163.2 100.289 177.613 99.716 191.689 102.062L231.637 108.708C233.363 94.0415 234.53 80.1445 234.074 67.687C233.462 50.9531 230.002 40.0347 224.22 33.5828C217.633 29.4133 204.853 25.1876 186.658 22.1036C168.048 18.9495 145.965 17.3329 124.002 17.3328Z" fill="black"/>
</svg>
