<svg width="256" height="256" viewBox="0 0 256 256" fill="none" xmlns="http://www.w3.org/2000/svg">
<path fill-rule="evenodd" clip-rule="evenodd" d="M106.667 85.3337C146.364 85.3337 194.292 84.8128 208.896 120.355L212.365 120.917C247.416 126.961 256.01 142.034 256.01 176L255.958 180.469C255.061 216.331 242.571 229.418 194.01 233.271C178.435 250.692 151.52 256 106.667 256C22.1207 256 1.28238 237.157 0.0625 153.834L0 145.573C0.00137617 84.5859 59.2175 85.3337 106.667 85.3337ZM104 101.344V139.261C110.477 140.611 112 144.604 112 154.667C112 167.999 109.329 170.666 96 170.667C82.6667 170.667 80 168 80 154.667C80 144.599 81.5146 140.609 88 139.261V101.448C70.3334 101.761 53.9895 102.966 40.9375 107.646C32.6417 110.621 26.759 114.671 22.8542 119.948C19.0102 125.146 16.0003 132.997 16 145.573C16.0002 167.781 17.2166 184.626 20.0312 197.532C22.8128 210.284 26.9458 218.201 32.1146 223.552C42.6641 234.474 62.6079 240 106.667 240C150.725 240 170.669 234.474 181.219 223.552C186.387 218.201 190.521 210.284 193.302 197.532C196.117 184.626 197.333 167.781 197.333 145.573C197.333 132.997 194.323 125.146 190.479 119.948C186.574 114.671 180.692 110.621 172.396 107.646C154.843 101.353 131.338 101.334 106.667 101.334C105.776 101.334 104.887 101.344 104 101.344ZM212.948 137.396C213.201 139.991 213.333 142.714 213.333 145.573L213.271 153.834C212.856 182.138 210.16 202.996 203.49 218.209C203.791 217.522 204.1 216.825 204.385 216.115C216.111 214.534 223.529 212.272 228.302 209.646C232.809 207.165 235.265 204.24 236.948 199.948C238.904 194.957 240.01 187.565 240.01 176C240.01 164.435 238.904 157.044 236.948 152.052C235.265 147.76 232.81 144.836 228.302 142.355C224.811 140.435 219.903 138.706 212.937 137.292L212.948 137.396Z" fill="black"/>
<path d="M61.0312 3.23994C65.1323 1.60111 69.7859 3.59809 71.4271 7.69828L73.2396 12.2191C79.7206 28.4241 78.9597 46.6288 71.1562 62.2399C69.181 66.1904 64.3781 67.796 60.4271 65.8233C56.4773 63.8478 54.8712 59.0449 56.8437 55.0941C62.6058 43.5688 63.1709 30.1204 58.3854 18.1566L56.5729 13.6358C54.9346 9.53439 56.9302 4.88037 61.0312 3.23994Z" fill="black"/>
<path d="M135.698 3.23994C139.799 1.60111 144.453 3.59809 146.094 7.69828L147.906 12.2191C154.387 28.4241 153.626 46.6288 145.823 62.2399C143.848 66.1904 139.045 67.796 135.094 65.8233C131.144 63.8478 129.538 59.0449 131.51 55.0941C137.272 43.5688 137.838 30.1204 133.052 18.1566L131.24 13.6358C129.601 9.53439 131.597 4.88037 135.698 3.23994Z" fill="black"/>
</svg>
