<svg width="256" height="256" viewBox="0 0 256 256" fill="none" xmlns="http://www.w3.org/2000/svg">
<path d="M56 162.666C62.6667 162.666 64 164 64 170.666C64 177.333 62.6667 178.666 56 178.666C49.3333 178.666 48 177.333 48 170.666C48 164 49.3333 162.666 56 162.666Z" fill="black"/>
<path d="M200 162.666C206.667 162.666 208 164 208 170.666C208 177.333 206.667 178.666 200 178.666C193.333 178.666 192 177.333 192 170.666C192 164 193.333 162.666 200 162.666Z" fill="black"/>
<path fill-rule="evenodd" clip-rule="evenodd" d="M128 85.333C151.564 85.333 170.667 104.436 170.667 128C170.667 151.564 151.564 170.666 128 170.666C104.436 170.666 85.3333 151.564 85.3333 128C85.3333 104.436 104.436 85.333 128 85.333ZM128 101.333C113.272 101.333 101.333 113.272 101.333 128C101.333 142.727 113.272 154.666 128 154.666C142.728 154.666 154.667 142.727 154.667 128C154.667 113.272 142.728 101.333 128 101.333Z" fill="black"/>
<path d="M56 77.333C62.6667 77.333 64 78.6663 64 85.333C64 91.9997 62.6667 93.333 56 93.333C49.3333 93.333 48 91.9997 48 85.333C48 78.6663 49.3333 77.333 56 77.333Z" fill="black"/>
<path d="M200 77.333C206.667 77.333 208 78.6663 208 85.333C208 91.9997 206.667 93.333 200 93.333C193.333 93.333 192 91.9997 192 85.333C192 78.6663 193.333 77.333 200 77.333Z" fill="black"/>
<path fill-rule="evenodd" clip-rule="evenodd" d="M128 21.333C234.667 21.333 256 39.1108 256 128C256 216.889 234.667 234.666 128 234.666C21.3333 234.666 0 216.889 0 128C0 39.1108 21.3333 21.333 128 21.333ZM128 37.333C101.594 37.333 81.4034 38.4514 65.8333 41.2497C50.2958 44.0424 40.6352 48.295 34.2396 53.6247C21.8893 63.9182 16 83.1223 16 128C16 172.877 21.8893 192.081 34.2396 202.375C40.6352 207.704 50.2958 211.957 65.8333 214.75C81.4034 217.548 101.594 218.666 128 218.666C154.406 218.666 174.597 217.548 190.167 214.75C205.704 211.957 215.365 207.704 221.76 202.375C234.111 192.081 240 172.877 240 128C240 83.1223 234.111 63.9182 221.76 53.6247C215.365 48.295 205.704 44.0424 190.167 41.2497C174.597 38.4514 154.406 37.333 128 37.333Z" fill="black"/>
</svg>
