<svg width="256" height="256" viewBox="0 0 256 256" fill="none" xmlns="http://www.w3.org/2000/svg">
<path fill-rule="evenodd" clip-rule="evenodd" d="M88.3323 21.2973C89.6031 12.7318 81.6255 5.10552 73.9052 9.02642C62.2047 14.9706 51.2201 22.8263 41.4364 32.6098C-8.54677 82.597 -8.54887 163.645 41.4364 213.631C91.4223 263.616 172.47 263.614 222.457 213.631C231.019 205.069 238.111 195.592 243.728 185.516L246.041 181.151C249.959 173.431 242.333 165.456 233.77 166.724C195.052 172.468 154.209 160.466 124.405 130.662C95.5307 101.787 83.353 62.5488 87.8427 24.9223L88.3323 21.2973ZM71.3948 28.9014C68.2341 69.3731 82.1001 110.981 113.093 141.974C144.084 172.966 185.688 186.822 226.155 183.662C221.916 190.26 216.929 196.533 211.145 202.318C167.407 246.052 96.4972 246.051 52.7593 202.318C9.02062 158.579 9.02062 87.661 52.7593 43.9223C58.5433 38.1387 64.8 33.1417 71.3948 28.9014Z" fill="black"/>
<path d="M193.311 38.2348C189.868 34.7916 184.287 34.7927 180.843 38.2348C179.68 39.3979 178.767 40.7932 178.176 42.3285L174.988 50.6306C174.761 51.2186 174.295 51.6846 173.707 51.9118L165.405 55.0993C163.87 55.6899 162.475 56.6028 161.311 57.766C157.869 61.21 157.868 66.7912 161.311 70.2348C162.474 71.3978 163.87 72.3004 165.405 72.891L173.707 76.0889C174.295 76.3165 174.762 76.7816 174.988 77.3702L178.176 85.6723C178.767 87.2075 179.68 88.6028 180.843 89.766C184.286 93.2068 189.868 93.2079 193.311 89.766C194.474 88.6035 195.377 87.2066 195.968 85.6723L199.166 77.3702C199.393 76.7812 199.858 76.316 200.447 76.0889L208.749 72.891C210.283 72.3004 211.68 71.3971 212.843 70.2348C216.284 66.7916 216.283 61.2096 212.843 57.766C211.68 56.6029 210.284 55.69 208.749 55.0993L200.447 51.9118C199.858 51.6851 199.393 51.219 199.166 50.6306L195.968 42.3285C195.377 40.7935 194.474 39.3977 193.311 38.2348Z" fill="black"/>
</svg>
