<svg width="256" height="256" viewBox="0 0 256 256" fill="none" xmlns="http://www.w3.org/2000/svg">
<path fill-rule="evenodd" clip-rule="evenodd" d="M73.9089 9.02999C81.6292 5.10908 89.6069 12.7353 88.336 21.3008L87.836 24.9258C83.3463 62.5526 95.534 101.79 124.409 130.665L127.242 133.405C156.769 161.197 196.258 172.29 233.763 166.728C242.328 165.457 249.963 173.434 246.044 181.155L243.721 185.52C238.907 194.154 233.019 202.349 226.044 209.905L222.461 213.634C173.254 262.838 93.9503 263.605 43.8048 215.936L41.4402 213.634C-7.76586 164.428 -8.53023 85.1244 39.1381 34.9779L41.4402 32.6133C51.2244 22.8293 62.2077 14.9743 73.9089 9.02999ZM71.3985 28.905C64.8026 33.1458 58.5375 38.1412 52.7527 43.9258L48.7839 48.1029C9.06174 92.0675 10.3846 159.939 52.7527 202.311C96.4914 246.05 167.41 246.05 211.149 202.311C216.932 196.527 221.92 190.263 226.159 183.665C185.691 186.827 144.089 172.969 113.096 141.978C82.1035 110.985 68.2378 69.3769 71.3985 28.905Z" fill="black"/>
<path d="M215.544 99.1237C217.266 97.4018 220.062 97.4018 221.784 99.1237C222.363 99.7041 222.812 100.4 223.107 101.165L224.701 105.311C224.814 105.606 225.052 105.843 225.346 105.957L229.492 107.551C230.26 107.846 230.963 108.303 231.544 108.884C233.266 110.606 233.266 113.402 231.544 115.124C230.963 115.705 230.259 116.152 229.492 116.447L225.346 118.051C225.053 118.165 224.814 118.392 224.701 118.686L223.107 122.842C222.812 123.607 222.363 124.304 221.784 124.884C220.062 126.606 217.266 126.606 215.544 124.884C214.964 124.303 214.506 123.609 214.211 122.842L212.617 118.686C212.503 118.392 212.266 118.164 211.971 118.051L207.826 116.447C207.06 116.152 206.364 115.703 205.784 115.124C204.062 113.402 204.062 110.606 205.784 108.884C206.365 108.304 207.059 107.846 207.826 107.551L211.971 105.957C212.267 105.844 212.504 105.606 212.617 105.311L214.211 101.165C214.506 100.398 214.964 99.705 215.544 99.1237Z" fill="black"/>
<path d="M217.763 6.23832C221.207 2.79616 226.788 2.79496 230.232 6.23832C231.395 7.40132 232.298 8.79716 232.888 10.3321L236.086 18.6342C236.314 19.2222 236.778 19.6889 237.367 19.9154L245.669 23.1029C247.204 23.6935 248.6 24.6068 249.763 25.7696C253.203 29.2132 253.204 34.7955 249.763 38.2383C248.601 39.4005 247.203 40.3039 245.669 40.8946L237.367 44.0925C236.778 44.3195 236.313 44.7843 236.086 45.3737L232.888 53.6758C232.297 55.2099 231.394 56.6072 230.232 57.7696C226.789 61.2111 221.207 61.2094 217.763 57.7696C216.6 56.6067 215.687 55.2106 215.096 53.6758L211.909 45.3737C211.682 44.7833 211.208 44.3196 210.617 44.0925L202.326 40.8946C200.791 40.3041 199.395 39.4011 198.232 38.2383C194.788 34.7947 194.789 29.2136 198.232 25.7696C199.395 24.6064 200.79 23.6935 202.326 23.1029L210.617 19.9154C211.207 19.6887 211.681 19.2231 211.909 18.6342L215.096 10.3321C215.687 8.7968 216.6 7.40148 217.763 6.23832Z" fill="black"/>
<path d="M140.878 13.7904C142.6 12.0684 145.395 12.0684 147.117 13.7904C147.696 14.3707 148.146 15.0669 148.44 15.8321L150.034 19.9779C150.147 20.2726 150.385 20.51 150.68 20.6237L154.826 22.2175C155.593 22.5128 156.296 22.9692 156.878 23.5508C158.599 25.2728 158.6 28.0686 156.878 29.7904C156.296 30.3712 155.593 30.8183 154.826 31.1133L150.68 32.7175C150.386 32.8314 150.147 33.0586 150.034 33.3529L148.44 37.5092C148.145 38.2738 147.697 38.971 147.117 39.5508C145.395 41.2727 142.6 41.2724 140.878 39.5508C140.297 38.9701 139.84 38.2755 139.544 37.5092L137.951 33.3529C137.837 33.0585 137.599 32.8308 137.305 32.7175L133.159 31.1133C132.394 30.8187 131.698 30.3697 131.117 29.7904C129.395 28.0684 129.395 25.2728 131.117 23.5508C131.698 22.9703 132.392 22.5124 133.159 22.2175L137.305 20.6237C137.6 20.5102 137.837 20.2731 137.951 19.9779L139.544 15.8321C139.839 15.0651 140.297 14.3717 140.878 13.7904Z" fill="black"/>
</svg>
