<svg width="256" height="256" viewBox="0 0 256 256" fill="none" xmlns="http://www.w3.org/2000/svg">
<path fill-rule="evenodd" clip-rule="evenodd" d="M128 0C234.667 0 256 21.3333 256 128C256 234.667 234.667 256 128 256C21.3333 256 0 234.667 0 128C0 21.3333 21.3333 0 128 0ZM233.604 71.9271C182.203 65.0741 130.135 64.9587 78.7083 71.5521C76.0376 127.001 77.3062 182.592 82.5104 237.906C95.0785 239.343 110.058 240 128 240C154.348 240 174.319 238.666 189.625 235.365C204.752 232.102 214.226 227.149 220.688 220.688C227.149 214.226 232.102 204.752 235.365 189.625C238.666 174.319 240 154.348 240 128C240 104.932 238.97 86.7534 236.5 72.3125L233.604 71.9271ZM66.2083 20.6667C51.178 23.9297 41.7501 28.8749 35.3125 35.3125C28.8513 41.7737 23.8981 51.2482 20.6354 66.375C17.3344 81.6814 16 101.652 16 128C16 154.348 17.3344 174.319 20.6354 189.625C23.8981 204.752 28.8513 214.226 35.3125 220.688C41.7498 227.125 51.1792 232.06 66.2083 235.323C59.7384 163.917 59.7378 92.0722 66.2083 20.6667ZM128 16C110.059 16 95.0783 16.6464 82.5104 18.0833C81.3439 30.4805 80.3855 42.8922 79.6146 55.3125C130.372 49.0546 181.723 49.169 232.458 55.6563C229.404 46.5183 225.465 40.0896 220.688 35.3125C214.226 28.8513 204.752 23.8981 189.625 20.6354C174.319 17.3344 154.348 16 128 16Z" fill="black"/>
</svg>
