<svg width="256" height="256" viewBox="0 0 256 256" fill="none" xmlns="http://www.w3.org/2000/svg">
<path fill-rule="evenodd" clip-rule="evenodd" d="M71.9274 138.782C109.522 139.922 117.334 150.335 117.334 192L117.219 199.927C116.079 237.522 105.665 245.334 64.0003 245.334L56.0732 245.219C20.9868 244.155 11.8455 235.014 10.7816 199.927L10.667 192C10.667 147.556 19.5559 138.667 64.0003 138.667L71.9274 138.782ZM64.0003 154.667C53.2079 154.667 45.6819 155.224 40.292 156.386C35.0819 157.509 32.9963 158.963 31.9795 159.979C30.9627 160.996 29.5095 163.082 28.3857 168.292C27.2235 173.682 26.667 181.208 26.667 192C26.667 202.793 27.2235 210.319 28.3857 215.709C29.5095 220.919 30.9627 223.004 31.9795 224.021C32.9963 225.038 35.0819 226.491 40.292 227.615C45.6819 228.777 53.2079 229.334 64.0003 229.334C74.7928 229.334 82.3187 228.777 87.7087 227.615C92.9188 226.491 95.0044 225.038 96.0212 224.021C97.0379 223.004 98.4912 220.919 99.6149 215.709C100.777 210.319 101.334 202.793 101.334 192C101.334 181.208 100.777 173.682 99.6149 168.292C98.4912 163.082 97.0379 160.996 96.0212 159.979C95.0044 158.963 92.9188 157.509 87.7087 156.386C82.3187 155.224 74.7928 154.667 64.0003 154.667Z" fill="black"/>
<path fill-rule="evenodd" clip-rule="evenodd" d="M199.927 138.782C237.522 139.922 245.334 150.335 245.334 192L245.219 199.927C244.079 237.522 233.665 245.334 192 245.334L184.073 245.219C148.987 244.155 139.845 235.014 138.782 199.927L138.667 192C138.667 147.556 147.556 138.667 192 138.667L199.927 138.782ZM192 154.667C181.208 154.667 173.682 155.224 168.292 156.386C163.082 157.509 160.996 158.963 159.979 159.979C158.963 160.996 157.509 163.082 156.386 168.292C155.224 173.682 154.667 181.208 154.667 192C154.667 202.793 155.224 210.319 156.386 215.709C157.509 220.919 158.963 223.004 159.979 224.021C160.996 225.038 163.082 226.491 168.292 227.615C173.682 228.777 181.208 229.334 192 229.334C202.793 229.334 210.319 228.777 215.709 227.615C220.919 226.491 223.004 225.038 224.021 224.021C225.038 223.004 226.491 220.919 227.615 215.709C228.777 210.319 229.334 202.793 229.334 192C229.334 181.208 228.777 173.682 227.615 168.292C226.491 163.082 225.038 160.996 224.021 159.979C223.004 158.963 220.919 157.509 215.709 156.386C210.319 155.224 202.793 154.667 192 154.667Z" fill="black"/>
<path fill-rule="evenodd" clip-rule="evenodd" d="M71.9274 10.7816C109.522 11.9215 117.334 22.3351 117.334 64.0003L117.219 71.9274C116.079 109.522 105.665 117.334 64.0003 117.334L56.0732 117.219C20.9868 116.155 11.8455 107.014 10.7816 71.9274L10.667 64.0003C10.667 19.5559 19.5559 10.667 64.0003 10.667L71.9274 10.7816ZM64.0003 26.667C53.2079 26.667 45.6819 27.2235 40.292 28.3857C35.0819 29.5095 32.9963 30.9627 31.9795 31.9795C30.9627 32.9963 29.5095 35.0819 28.3857 40.292C27.2235 45.6819 26.667 53.2079 26.667 64.0003C26.667 74.7928 27.2235 82.3187 28.3857 87.7087C29.5095 92.9188 30.9627 95.0044 31.9795 96.0212C32.9963 97.0379 35.0819 98.4912 40.292 99.6149C45.6819 100.777 53.2079 101.334 64.0003 101.334C74.7928 101.334 82.3187 100.777 87.7087 99.6149C92.9188 98.4912 95.0044 97.0379 96.0212 96.0212C97.0379 95.0044 98.4912 92.9188 99.6149 87.7087C100.777 82.3187 101.334 74.7928 101.334 64.0003C101.334 53.2079 100.777 45.6819 99.6149 40.292C98.4912 35.0819 97.0379 32.9963 96.0212 31.9795C95.0044 30.9627 92.9188 29.5095 87.7087 28.3857C82.3187 27.2235 74.7928 26.667 64.0003 26.667Z" fill="black"/>
<path d="M192 13.3337C196.419 13.3337 200 16.9154 200 21.3337V56.0003H234.667C239.085 56.0003 242.667 59.582 242.667 64.0003C242.667 68.4186 239.085 72.0003 234.667 72.0003H200V106.667C200 111.085 196.419 114.667 192 114.667C187.582 114.667 184 111.085 184 106.667V72.0003H149.334C144.915 72.0003 141.334 68.4186 141.334 64.0003C141.334 59.582 144.915 56.0003 149.334 56.0003H184V21.3337C184 16.9154 187.582 13.3337 192 13.3337Z" fill="black"/>
</svg>
