<svg width="256" height="256" viewBox="0 0 256 256" fill="none" xmlns="http://www.w3.org/2000/svg">
<path fill-rule="evenodd" clip-rule="evenodd" d="M128 0C234.667 0 256 17.7778 256 106.667L255.938 114.792C254.621 194.496 232.542 212.394 135.99 213.281L136 213.333V232.271C148.304 232.807 160.569 234.564 172.604 237.573C176.89 238.644 179.497 242.985 178.427 247.271C177.356 251.556 173.015 254.164 168.729 253.094C141.99 246.409 114.01 246.409 87.2708 253.094C82.9853 254.164 78.6443 251.556 77.5729 247.271C76.5029 242.985 79.1103 238.644 83.3958 237.573C95.4313 234.564 107.696 232.807 120 232.271V213.281H118.25C23.1891 212.191 1.37083 194.009 0.0625 114.792L0 106.667C0 17.7778 21.3333 0 128 0ZM128 16C101.594 16 81.4034 17.1184 65.8333 19.9167C50.2958 22.7094 40.6352 26.962 34.2396 32.2917C21.8893 42.5852 16 61.7893 16 106.667C16 151.544 21.8893 170.748 34.2396 181.042C40.6352 186.371 50.2958 190.624 65.8333 193.417C81.4034 196.215 101.594 197.333 128 197.333C154.406 197.333 174.597 196.215 190.167 193.417C205.704 190.624 215.365 186.371 221.76 181.042C234.111 170.748 240 151.544 240 106.667C240 61.7893 234.111 42.5852 221.76 32.2917C215.365 26.962 205.704 22.7094 190.167 19.9167C174.597 17.1184 154.406 16 128 16Z" fill="black"/>
</svg>
