<svg width="256" height="256" viewBox="0 0 256 256" fill="none" xmlns="http://www.w3.org/2000/svg">
<path d="M245.334 122.666C249.752 122.666 253.334 126.248 253.334 130.666C253.334 155.269 252.117 175.507 248.573 191.937C245.01 208.457 238.981 221.664 228.99 231.656C218.998 241.647 205.791 247.676 189.271 251.239C172.841 254.783 152.603 255.999 128 255.999C103.397 255.999 83.1594 254.783 66.7295 251.239C50.2096 247.676 37.0023 241.647 27.0107 231.656C17.0192 221.664 10.9905 208.457 7.42741 191.937C3.88369 175.507 2.66699 155.269 2.66699 130.666C2.66699 126.248 6.24871 122.666 10.667 122.666C15.0853 122.666 18.667 126.248 18.667 130.666C18.667 154.952 19.8948 173.825 23.0732 188.562C26.2323 203.209 31.2037 213.224 38.3232 220.343C45.4427 227.463 55.4578 232.434 70.1045 235.593C84.8412 238.772 103.714 239.999 128 239.999C152.286 239.999 171.159 238.772 185.896 235.593C200.543 232.434 210.558 227.463 217.677 220.343C224.797 213.224 229.768 203.209 232.927 188.562C236.106 173.825 237.334 154.952 237.334 130.666C237.334 126.248 240.915 122.666 245.334 122.666Z" fill="black"/>
<path d="M128 2.66602C132.419 2.66602 136 6.24774 136 10.666V171.676C156.594 156.545 173.364 136.719 184.844 113.76C186.819 109.809 191.622 108.204 195.573 110.176C199.524 112.152 201.129 116.955 199.157 120.906C184.548 150.123 162.159 174.748 134.459 192.062L132.24 193.447C129.646 195.069 126.355 195.069 123.761 193.447L121.542 192.062C93.8414 174.748 71.453 150.123 56.8441 120.906C54.8714 116.955 56.477 112.152 60.4274 110.176C64.3784 108.204 69.1814 109.809 71.1566 113.76C82.6371 136.719 99.407 156.545 120 171.676V10.666C120 6.24774 123.582 2.66602 128 2.66602Z" fill="black"/>
</svg>
