<svg width="256" height="256" viewBox="0 0 256 256" fill="none" xmlns="http://www.w3.org/2000/svg">
<path d="M128 87.9994C132.418 87.9994 136 91.5812 136 95.9994V117.333C136 121.751 132.418 125.333 128 125.333C123.582 125.333 120 121.751 120 117.333V95.9994C120 91.5812 123.582 87.9994 128 87.9994Z" fill="black"/>
<path d="M101.333 54.8432C105.752 54.8432 109.333 58.4249 109.333 62.8432C109.333 79.0434 96.2002 92.1765 80 92.1765H74.6667C70.2485 92.1765 66.6669 88.5946 66.6667 84.1765C66.6667 79.7582 70.2484 76.1765 74.6667 76.1765H80C87.3637 76.1765 93.3331 70.2068 93.3333 62.8432C93.3333 58.4249 96.9151 54.8432 101.333 54.8432Z" fill="black"/>
<path d="M160 54.8432C164.418 54.8432 168 58.4249 168 62.8432C168 70.2068 173.97 76.1765 181.333 76.1765H186.667C191.085 76.1765 194.667 79.7582 194.667 84.1765C194.666 88.5946 191.085 92.1765 186.667 92.1765H181.333C165.133 92.1765 152 79.0434 152 62.8432C152 58.4249 155.582 54.8432 160 54.8432Z" fill="black"/>
<path fill-rule="evenodd" clip-rule="evenodd" d="M117.083 1.24944C124.245 -0.416479 131.755 -0.416478 138.917 1.24944C220.728 20.2805 256 52.6956 256 142.458L255.938 151.02C254.584 237.264 231.331 254.843 128 254.843C24.6687 254.843 1.41553 237.264 0.0625 151.02L0 142.458C0 55.4993 33.1023 22.3603 109.552 3.07235L117.083 1.24944ZM135.292 16.8328C130.515 15.7216 125.485 15.7216 120.708 16.8328C80.7791 26.1212 55.5648 38.0176 39.8854 55.8849C24.4831 73.4389 16 99.4381 16 142.458C16.0004 189.843 21.9127 210.65 34.5521 221.749C40.952 227.369 50.5514 231.807 65.9792 234.729C81.4776 237.664 101.608 238.843 128 238.843C154.392 238.843 174.522 237.664 190.021 234.729C205.449 231.807 215.048 227.369 221.448 221.749C234.087 210.65 240 189.843 240 142.458C240 99.4381 231.517 73.4389 216.115 55.8849C200.435 38.0176 175.221 26.1212 135.292 16.8328Z" fill="black"/>
</svg>
