<svg width="256" height="256" viewBox="0 0 256 256" fill="none" xmlns="http://www.w3.org/2000/svg">
<path d="M32 112C45.3333 112 48 114.667 48 128C48 141.333 45.3333 144 32 144C18.6667 144 16 141.333 16 128C16 114.667 18.6667 112 32 112Z" fill="black"/>
<path d="M128 112C141.333 112 144 114.667 144 128C144 141.333 141.333 144 128 144C114.667 144 112 141.333 112 128C112 114.667 114.667 112 128 112Z" fill="black"/>
<path d="M224 112C237.333 112 240 114.667 240 128C240 141.333 237.333 144 224 144C210.667 144 208 141.333 208 128C208 114.667 210.667 112 224 112Z" fill="black"/>
</svg>
