<svg width="256" height="256" viewBox="0 0 256 256" fill="none" xmlns="http://www.w3.org/2000/svg">
<path d="M173.479 13.3756C194.657 12.8627 214.817 16.8032 227.094 29.0735C239.391 41.3666 243.226 61.5616 242.604 82.7402C241.97 104.358 236.643 129.06 228.344 152.605C220.041 176.159 208.605 199.01 195.427 216.844C182.481 234.366 166.839 248.412 149.729 251.834C117.824 258.212 94.274 243.216 79.3231 227.605C71.8494 219.801 66.3286 211.665 62.6773 205.521C60.8458 202.44 59.4632 199.828 58.5315 197.959C58.4988 197.894 58.4692 197.825 58.4377 197.761C58.3768 197.732 58.3128 197.708 58.2502 197.678C56.3669 196.781 53.7289 195.447 50.6252 193.667C44.4416 190.122 36.2647 184.713 28.4169 177.313C12.6733 162.469 -2.29169 138.922 4.21895 106.396C7.70425 88.9915 21.7514 73.1906 39.3335 60.1569C57.203 46.9104 80.0777 35.5178 103.636 27.3027C127.184 19.0915 151.873 13.8994 173.479 13.3756ZM173.865 29.3756C154.318 29.8495 131.301 34.6044 108.896 42.4173C86.5014 50.2271 65.1582 60.933 48.8648 73.011C32.2847 85.3017 22.2172 98.0507 19.9169 109.542C14.8584 134.813 26.0662 153.119 39.3856 165.678C46.0689 171.979 53.1455 176.664 58.5835 179.782C60.1257 180.666 61.5309 181.411 62.7398 182.032L100.625 144.167C103.749 141.045 108.814 141.045 111.938 144.167C115.061 147.292 115.062 152.356 111.938 155.48L74.1252 193.261C74.7658 194.455 75.527 195.84 76.4273 197.355C79.6542 202.784 84.4828 209.846 90.8856 216.532C103.688 229.9 122.016 241.056 146.584 236.146C157.709 233.922 170.299 223.931 182.563 207.334C194.596 191.048 205.351 169.691 213.25 147.282C221.153 124.862 226.04 101.83 226.615 82.2715C227.202 62.2771 223.249 47.8493 215.781 40.386C208.292 32.9001 193.841 28.8915 173.865 29.3756Z" fill="black"/>
</svg>
