<svg width="256" height="257" viewBox="0 0 256 257" fill="none" xmlns="http://www.w3.org/2000/svg">
<path fill-rule="evenodd" clip-rule="evenodd" d="M125.333 0.962891C149.936 0.962891 170.174 2.17959 186.604 5.72331C203.124 9.28644 216.331 15.3151 226.323 25.3066C236.314 35.2982 242.343 48.5055 245.906 65.0254C249.45 81.4553 250.667 101.693 250.667 126.296C250.667 134.806 250.507 142.821 250.167 150.359H250.292L249.76 157.817C249.621 159.913 249.447 161.967 249.271 163.984C249.218 164.591 249.171 165.196 249.115 165.796C249.002 166.988 248.877 168.164 248.75 169.327C248.661 170.143 248.565 170.952 248.469 171.755C248.357 172.687 248.247 173.611 248.125 174.525C247.985 175.575 247.831 176.613 247.677 177.64C247.534 178.588 247.384 179.525 247.229 180.452C247.093 181.273 246.949 182.085 246.802 182.89C246.627 183.85 246.44 184.797 246.25 185.734C246.089 186.529 245.932 187.318 245.76 188.098C245.565 188.984 245.355 189.858 245.146 190.723C244.95 191.534 244.751 192.336 244.542 193.13C244.332 193.923 244.118 194.708 243.896 195.484C243.635 196.396 243.353 197.293 243.073 198.182C242.88 198.794 242.692 199.404 242.49 200.005C242.189 200.896 241.873 201.773 241.552 202.64C241.316 203.278 241.081 203.911 240.833 204.536C240.555 205.236 240.262 205.925 239.969 206.609C239.652 207.347 239.334 208.078 239 208.796C238.734 209.37 238.455 209.933 238.177 210.494C237.786 211.283 237.393 212.063 236.979 212.827C236.654 213.428 236.309 214.013 235.969 214.598C235.654 215.14 235.369 215.695 235.042 216.223C234.965 216.347 234.879 216.465 234.802 216.588C234.722 216.716 234.644 216.846 234.563 216.973C233.859 218.077 233.129 219.145 232.375 220.182C232.305 220.278 232.227 220.367 232.156 220.463C225.471 229.546 216.823 236.065 206.104 240.734C205.938 240.806 205.772 240.881 205.604 240.952C204.394 241.47 203.158 241.96 201.896 242.432C201.738 242.49 201.585 242.561 201.427 242.619C200.069 243.118 198.679 243.577 197.26 244.025C197.18 244.051 197.102 244.083 197.021 244.109C195.606 244.552 194.163 244.973 192.688 245.369C192.587 245.396 192.486 245.426 192.385 245.452C185.258 247.345 177.436 248.731 168.885 249.682C164.488 250.171 159.867 250.513 155.021 250.807C154.451 250.841 153.878 250.868 153.302 250.9C150.786 251.04 148.211 251.17 145.573 251.265L139.042 251.546V251.463C134.635 251.56 130.067 251.63 125.333 251.63C100.73 251.63 80.4924 250.413 64.0625 246.869C47.5427 243.306 34.3353 237.277 24.3438 227.286C14.3522 217.294 8.32355 204.087 4.76042 187.567C1.2167 171.137 0 150.899 0 126.296C0 101.693 1.2167 81.4553 4.76042 65.0254C8.32355 48.5055 14.3522 35.2982 24.3438 25.3066C34.3353 15.3151 47.5427 9.28644 64.0625 5.72331C80.4924 2.17959 100.73 0.962891 125.333 0.962891ZM125.333 16.9629C101.047 16.9629 82.1742 18.1907 67.4375 21.3691C52.7908 24.5282 42.7758 29.4996 35.6563 36.6191C28.5367 43.7386 23.5653 53.7537 20.4063 68.4004C17.2278 83.1371 16 102.01 16 126.296C16 150.582 17.2278 169.455 20.4063 184.192C23.5653 198.839 28.5367 208.854 35.6563 215.973C42.7758 223.093 52.7908 228.064 67.4375 231.223C82.1742 234.402 101.047 235.63 125.333 235.63C130.558 235.63 135.536 235.542 140.281 235.421C143.04 206.996 149.914 186.163 165.51 172.286C180.99 158.516 203.574 152.977 234.104 151.109C234.477 143.565 234.667 135.318 234.667 126.296C234.667 102.01 233.439 83.1371 230.26 68.4004C227.101 53.7537 222.13 43.7386 215.01 36.6191C207.891 29.4996 197.876 24.5282 183.229 21.3691C168.492 18.1907 149.619 16.9629 125.333 16.9629ZM232.875 167.223C204.532 169.171 187.195 174.406 176.146 184.234C165.38 193.811 159.203 209.033 156.448 234.671C184.801 232.725 202.138 227.5 213.188 217.671C223.954 208.094 230.122 192.873 232.875 167.223Z" fill="black"/>
</svg>
