<svg width="256" height="256" viewBox="0 0 256 256" fill="none" xmlns="http://www.w3.org/2000/svg">
<path d="M165.01 79.6771C168.135 76.5534 173.199 76.5534 176.323 79.6771C179.447 82.8012 179.447 87.8654 176.323 90.9896L139.313 128L176.323 165.01C179.447 168.134 179.447 173.199 176.323 176.323C173.199 179.447 168.135 179.447 165.01 176.323L128 139.313L90.9896 176.323C87.8654 179.447 82.8013 179.447 79.6771 176.323C76.5533 173.199 76.553 168.134 79.6771 165.01L116.688 128L79.6771 90.9896C76.5533 87.8654 76.553 82.8012 79.6771 79.6771C82.8012 76.5534 87.8655 76.5534 90.9896 79.6771L128 116.688L165.01 79.6771Z" fill="black"/>
<path fill-rule="evenodd" clip-rule="evenodd" d="M128 0C198.692 0 256 57.3076 256 128C256 198.692 198.692 256 128 256C57.3076 256 0 198.692 0 128C0 57.3076 57.3076 0 128 0ZM128 16C66.1441 16 16 66.1441 16 128C16 189.856 66.1441 240 128 240C189.856 240 240 189.856 240 128C240 66.1441 189.856 16 128 16Z" fill="black"/>
</svg>
