<svg width="256" height="256" viewBox="0 0 256 256" fill="none" xmlns="http://www.w3.org/2000/svg">
<path d="M175.677 69.0104C178.801 65.8864 183.865 65.8863 186.99 69.0104C190.114 72.1346 190.114 77.1988 186.99 80.3229L139.313 128L186.99 175.677C190.114 178.801 190.114 183.865 186.99 186.99C183.865 190.114 178.801 190.114 175.677 186.99L128 139.313L80.3229 186.99C77.1988 190.114 72.1346 190.114 69.0104 186.99C65.8862 183.865 65.8862 178.801 69.0104 175.677L116.688 128L69.0104 80.3229C65.8862 77.1987 65.8862 72.1346 69.0104 69.0104C72.1346 65.8864 77.1988 65.8863 80.3229 69.0104L128 116.688L175.677 69.0104Z" fill="black"/>
<path fill-rule="evenodd" clip-rule="evenodd" d="M137.75 0.0625C235.979 1.41443 256 24.666 256 128L255.938 137.75C254.586 235.979 231.334 256 128 256L118.25 255.938C20.0211 254.586 0 231.334 0 128C6.78174e-07 21.3333 21.3334 0 128 0L137.75 0.0625ZM128 16C101.652 16 81.6814 17.3344 66.375 20.6354C51.2482 23.8981 41.7737 28.8513 35.3125 35.3125C28.8513 41.7737 23.8981 51.2482 20.6354 66.375C17.3344 81.6814 16 101.652 16 128C16 154.348 17.3344 174.319 20.6354 189.625C23.8981 204.752 28.8513 214.226 35.3125 220.688C41.7737 227.149 51.2482 232.102 66.375 235.365C81.6814 238.666 101.652 240 128 240C154.348 240 174.319 238.666 189.625 235.365C204.752 232.102 214.226 227.149 220.688 220.688C227.149 214.226 232.102 204.752 235.365 189.625C238.666 174.319 240 154.348 240 128C240 101.652 238.666 81.6814 235.365 66.375C232.102 51.2482 227.149 41.7737 220.688 35.3125C214.226 28.8513 204.752 23.8981 189.625 20.6354C174.319 17.3344 154.348 16 128 16Z" fill="black"/>
</svg>
