<svg width="256" height="256" viewBox="0 0 256 256" fill="none" xmlns="http://www.w3.org/2000/svg">
<path d="M228.336 88.4324C231.04 84.9413 236.072 84.2941 239.565 86.9949C243.059 89.6964 243.701 94.7292 241.003 98.224C239.362 100.346 237.628 102.444 235.826 104.516L250.982 119.672C254.105 122.795 254.113 127.86 250.993 130.984C247.87 134.107 242.805 134.114 239.68 130.995L224.68 115.995C215.393 124.583 204.647 132.322 192.68 138.589L209.326 163.557C211.776 167.232 210.78 172.199 207.107 174.651C203.431 177.102 198.464 176.109 196.013 172.432L177.92 145.297C165.001 150.297 150.954 153.557 136.003 154.422V189.328C136.003 193.745 132.42 197.326 128.003 197.328C123.585 197.328 120.003 193.746 120.003 189.328V154.422C105.048 153.558 90.9973 150.298 78.0759 145.297L59.9926 172.432C57.5419 176.108 52.575 177.101 48.8988 174.651C45.2226 172.2 44.2293 167.234 46.6801 163.557L63.3155 138.599C51.3445 132.33 40.6043 124.576 31.3155 115.984L16.3155 130.995C13.1909 134.113 8.12508 134.106 5.003 130.984C1.88455 127.86 1.89124 122.794 5.01341 119.672L20.1592 104.516C18.3594 102.446 16.642 100.344 15.003 98.224C12.3017 94.7289 12.9458 89.6972 16.4405 86.9949C19.9353 84.297 24.9682 84.9395 27.6697 88.4324C48.6995 115.628 84.6023 138.662 128.003 138.662C171.402 138.66 207.307 115.627 228.336 88.4324Z" fill="black"/>
</svg>
