<svg width="256" height="256" viewBox="0 0 256 256" fill="none" xmlns="http://www.w3.org/2000/svg">
<path d="M128 117.333C145.673 117.333 160 131.66 160 149.333C160 167.006 145.673 181.333 128 181.333C110.327 181.333 95.9996 167.006 95.9996 149.333C95.9996 131.66 110.327 117.333 128 117.333Z" fill="black"/>
<path fill-rule="evenodd" clip-rule="evenodd" d="M128 24C132.418 24 136 27.5817 136 32V53.3333C136 53.4242 135.982 53.5141 135.979 53.6042C163.483 55.4183 187.462 66.4867 205.916 81.4271L218.343 69.0104C221.468 65.8862 226.532 65.8863 229.656 69.0104C232.78 72.1346 232.78 77.1987 229.656 80.3229L217.718 92.25C229.517 104.527 237.955 118.28 242.198 131.302C245.112 130.062 248.612 130.634 250.989 133.01C254.113 136.135 254.113 141.199 250.989 144.323L245.656 149.656C245.544 149.768 245.419 149.865 245.302 149.969L245.187 152.99C242.253 191.279 194.304 245.333 128 245.333L124.802 245.292C60.1586 243.592 13.699 190.661 10.8121 152.99L10.6871 149.969C10.5722 149.866 10.4536 149.766 10.3434 149.656L5.01006 144.323C1.88597 141.199 1.88597 136.135 5.01006 133.01C7.38549 130.635 10.8783 130.076 13.7913 131.312C18.0317 118.289 26.4712 104.53 38.2705 92.25L26.3434 80.3229C23.2193 77.1987 23.2193 72.1346 26.3434 69.0104C29.4676 65.8862 34.5317 65.8863 37.6559 69.0104L50.0726 81.4271C68.5249 66.486 92.5069 55.4207 120.01 53.6042C120.007 53.5142 120 53.424 120 53.3333V32C120 27.5818 123.581 24.0001 128 24ZM128 69.3333C98.3911 69.3334 72.8046 81.7918 54.5205 98.6875C35.7356 116.048 26.6663 136.091 26.6663 149.333C26.6663 162.576 35.7356 182.619 54.5205 199.979C72.8046 216.875 98.3911 229.333 128 229.333C157.608 229.333 183.195 216.875 201.479 199.979C220.264 182.619 229.333 162.576 229.333 149.333C229.333 136.091 220.264 116.048 201.479 98.6875C183.195 81.7918 157.608 69.3333 128 69.3333Z" fill="black"/>
</svg>
