<svg width="256" height="256" viewBox="0 0 256 256" fill="none" xmlns="http://www.w3.org/2000/svg">
<path d="M128 96.0007C145.673 96.0007 160 110.328 160 128.001C160 145.674 145.673 160.001 128 160.001C110.327 160.001 96 145.674 96 128.001C96 110.328 110.327 96.0007 128 96.0007Z" fill="black"/>
<path fill-rule="evenodd" clip-rule="evenodd" d="M128 21.334C202.667 21.334 256 85.334 256 128.001C256 170.667 202.667 234.667 128 234.667C53.3333 234.667 0 170.667 0 128.001C0 85.334 53.3333 21.334 128 21.334ZM128 37.334C95.3758 37.334 67.1632 51.317 46.9688 70.3236C26.2974 89.7794 16 112.512 16 128.001C16 143.49 26.2974 166.222 46.9688 185.678C67.1632 204.684 95.3758 218.667 128 218.667C160.624 218.667 188.837 204.684 209.031 185.678C229.703 166.222 240 143.49 240 128.001C240 112.512 229.703 89.7794 209.031 70.3236C188.837 51.317 160.624 37.334 128 37.334Z" fill="black"/>
</svg>
