<svg width="256" height="256" viewBox="0 0 256 256" fill="none" xmlns="http://www.w3.org/2000/svg">
<path d="M160 194.667C164.418 194.667 168 198.248 168 202.667C168 207.085 164.418 210.667 160 210.667H96C91.5817 210.667 88 207.085 88 202.667C88 198.248 91.5817 194.667 96 194.667H160Z" fill="black"/>
<path fill-rule="evenodd" clip-rule="evenodd" d="M128 0C234.667 0 256 18.6667 256 112C256 121.32 255.76 129.894 255.271 137.781C255.766 144.575 256 151.964 256 160L255.938 167.313C254.586 240.984 231.334 256 128 256L118.25 255.948C23.1891 254.967 1.37082 238.608 0.0625 167.313L0 160C0 151.981 0.215133 144.604 0.708333 137.823C0.217327 129.925 0 121.336 0 112C0 18.6667 21.3333 0 128 0ZM128 80C101.565 80 81.258 81.001 65.5521 83.5417C49.8168 86.0873 40.0236 89.9881 33.6042 94.8021C21.8089 103.649 16 119.879 16 160C16 200.121 21.8089 216.351 33.6042 225.198C40.0236 230.012 49.8168 233.913 65.5521 236.458C81.258 238.999 101.565 240 128 240C154.435 240 174.742 238.999 190.448 236.458C206.183 233.913 215.976 230.012 222.396 225.198C234.191 216.351 240 200.121 240 160C240 119.879 234.191 103.649 222.396 94.8021C215.976 89.9881 206.183 86.0873 190.448 83.5417C174.742 81.001 154.435 80 128 80ZM128 16C101.608 16 81.4719 17.1681 65.9688 20.0938C50.5333 23.0068 40.9306 27.4423 34.5313 33.0417C24.1951 42.0878 18.3569 57.6094 16.5833 88.875C16.5316 88.9343 16.4785 88.9925 16.4271 89.0521C33.4867 69.3015 66.6094 64 128 64C189.189 64 222.287 69.2737 239.396 88.8646C237.621 57.6067 231.804 42.0866 221.469 33.0417C215.069 27.4423 205.467 23.0068 190.031 20.0938C174.528 17.1681 154.392 16 128 16Z" fill="black"/>
</svg>
