<svg width="256" height="256" viewBox="0 0 256 256" fill="none" xmlns="http://www.w3.org/2000/svg">
<path fill-rule="evenodd" clip-rule="evenodd" d="M58.6667 10.666C83.8541 10.666 98.6418 14.9194 107.073 29.9785C109.412 26.5338 112.242 23.5957 115.667 21.1868C124.616 14.8929 136.161 13.3327 149.333 13.3327C162.506 13.3327 174.051 14.8929 183 21.1868C191.248 26.9879 196.003 35.8754 198.865 47.4681C244.93 56.618 256 81.0368 256 138.666C256 205.324 241.185 227.544 174.542 233.104C161.203 234.216 145.788 234.666 128 234.666C21.3333 234.666 0 218.666 0 138.666C0 134.038 0.0740034 129.625 0.229167 125.416C0.0753545 119.595 0 113.354 0 106.666C0 26.666 9.77778 10.666 58.6667 10.666ZM58.6667 26.666C34.9732 26.666 28.4595 30.7871 24.6563 37.0098C22.0648 41.2503 19.7121 48.2058 18.1563 60.0098C16.6161 71.6963 16 86.8537 16 106.666C16 113.234 16.0693 119.331 16.2188 124.989C16.2277 125.326 16.2312 125.673 16.2188 126.01C16.0719 129.995 16 134.209 16 138.666C16 178.787 21.8089 195.017 33.6042 203.864C40.0236 208.678 49.8168 212.579 65.5521 215.124C81.258 217.665 101.565 218.666 128 218.666C145.559 218.666 160.486 218.217 173.208 217.156C205.797 214.437 220.279 207.866 227.917 198.614C235.986 188.835 240 171.98 240 138.666C240 98.5451 234.191 82.3145 222.396 73.4681C215.976 68.6541 206.183 64.7533 190.448 62.2077C174.742 59.667 154.435 58.666 128 58.666C122.583 58.666 117.388 58.7211 112.406 58.8119C106.885 58.9124 101.846 56.1729 98.875 51.791L98.8229 51.7806C98.8277 51.7565 98.8286 51.7317 98.8333 51.7077C97.8853 50.292 97.1425 48.7136 96.6771 46.9994C93.9382 36.9137 90.3866 33.1893 86.6458 31.0827C81.851 28.383 73.78 26.666 58.6667 26.666ZM149.333 29.3327C136.824 29.3327 129.571 30.9693 124.875 34.2702C122.364 36.0362 120.139 38.6406 118.229 42.7493C121.404 42.7134 124.66 42.666 128 42.666C148.896 42.666 166.516 43.2958 181.344 44.8848C179.256 39.507 176.713 36.3246 173.792 34.2702C169.095 30.9693 161.842 29.3327 149.333 29.3327Z" fill="black"/>
</svg>
