<svg width="256" height="256" viewBox="0 0 256 256" fill="none" xmlns="http://www.w3.org/2000/svg">
<path d="M181.333 170.667C187.224 170.667 192 175.443 192 181.333C192 187.224 187.224 192 181.333 192H74.6663C68.7753 192 63.9997 187.224 63.9997 181.333C63.9997 175.442 68.7753 170.667 74.6663 170.667H181.333Z" fill="black"/>
<path d="M181.333 128C187.224 128 192 132.776 192 138.667C192 144.557 187.224 149.333 181.333 149.333H74.6663C68.7753 149.333 63.9997 144.558 63.9997 138.667C63.9997 132.776 68.7753 128 74.6663 128H181.333Z" fill="black"/>
<path d="M117.333 85.3333C123.224 85.3337 128 90.1092 128 96C128 101.891 123.224 106.666 117.333 106.667H74.6663C68.7753 106.667 63.9997 101.891 63.9997 96C63.9997 90.109 68.7753 85.3333 74.6663 85.3333H117.333Z" fill="black"/>
<path fill-rule="evenodd" clip-rule="evenodd" d="M135.479 0.0520847C137.891 0.0883906 140.251 0.143527 142.552 0.218751C143.199 0.240061 143.842 0.291459 144.479 0.375001C144.58 0.388325 144.68 0.412214 144.781 0.427085C145.275 0.499695 145.765 0.589031 146.25 0.697918C146.538 0.762696 146.819 0.8498 147.104 0.927085C147.404 1.00864 147.704 1.09225 148 1.1875C148.294 1.28222 148.585 1.38162 148.875 1.48958C149.058 1.55786 149.246 1.614 149.427 1.6875V1.70833C152.074 2.78524 154.504 4.39929 156.541 6.47917L227.823 79.2292C229.552 80.9947 230.948 83.0363 231.958 85.25L231.968 85.2604C232.991 87.5039 233.61 89.9259 233.76 92.4271C233.911 94.9496 234.035 97.5426 234.146 100.198C234.157 100.478 234.165 100.76 234.177 101.042C234.249 102.844 234.32 104.677 234.375 106.542H234.354C234.553 113.28 234.666 120.425 234.666 128C234.666 234.667 216.889 256 128 256C39.1108 256 21.333 234.667 21.333 128C21.333 21.3333 39.1108 1.37758e-06 128 1.37758e-06C128.024 1.37758e-06 128.048 -1.72197e-06 128.073 1.37758e-06L135.479 0.0520847ZM128 21.3333C82.9747 21.3333 66.2573 27.4095 57.7184 37.6563C53.2055 43.0722 49.2046 51.724 46.4997 66.7708C43.7867 81.8646 42.6663 101.679 42.6663 128C42.6663 154.321 43.7867 174.135 46.4997 189.229C49.2046 204.276 53.2055 212.928 57.7184 218.344C66.2573 228.59 82.9747 234.667 128 234.667C173.025 234.667 189.742 228.59 198.281 218.344C202.794 212.928 206.795 204.276 209.5 189.229C212.213 174.135 213.333 154.321 213.333 128C213.333 120.329 213.217 113.184 213.01 106.521C198.311 106.125 186.04 104.858 175.833 102.24C162.788 98.8933 153.106 93.3524 146 84.6667C144.774 83.169 143.628 81.5754 142.552 79.8854C142.092 79.1637 141.641 78.4248 141.208 77.6667C136.861 70.0618 133.812 60.6054 131.75 48.9167C130.323 40.8337 129.37 31.6816 128.781 21.3333C128.521 21.3329 128.261 21.3333 128 21.3333ZM150.906 31.2083C151.377 36.1304 151.967 40.6239 152.677 44.7292C152.704 44.8895 152.732 45.0492 152.76 45.2083C154.868 57.1556 157.837 64.4836 161.083 69.2396C161.554 69.9297 162.029 70.5683 162.51 71.1563C166.013 75.4379 171.264 78.984 180.708 81.4583C186.485 82.9718 193.833 84.0734 203.312 84.7083L150.906 31.2083Z" fill="black"/>
</svg>
