<svg width="256" height="256" viewBox="0 0 256 256" fill="none" xmlns="http://www.w3.org/2000/svg">
<path fill-rule="evenodd" clip-rule="evenodd" d="M42.667 181.333C60.4448 181.333 64.0003 184.889 64.0003 202.667C64.0003 220.444 60.4448 224 42.667 224C27.9632 224 22.9998 221.566 21.7191 210.667H10.667C6.24871 210.667 2.66699 207.085 2.66699 202.667C2.66699 198.248 6.24871 194.667 10.667 194.667H21.7191C22.9998 183.767 27.9632 181.333 42.667 181.333ZM42.667 197.333C40.4173 197.333 38.7432 197.409 37.5003 197.51C37.3994 198.752 37.3337 200.424 37.3337 202.667C37.3337 204.916 37.399 206.591 37.5003 207.833C38.7431 207.935 40.4178 208 42.667 208C44.9099 208 46.5815 207.934 47.8232 207.833C47.9246 206.59 48.0003 204.916 48.0003 202.667C48.0003 200.423 47.9242 198.752 47.8232 197.51C46.5814 197.41 44.9104 197.333 42.667 197.333Z" fill="black"/>
<path d="M245.334 194.667C249.752 194.667 253.334 198.248 253.334 202.667C253.334 207.085 249.752 210.667 245.334 210.667H85.3337C80.9154 210.667 77.3337 207.085 77.3337 202.667C77.3337 198.248 80.9154 194.667 85.3337 194.667H245.334Z" fill="black"/>
<path fill-rule="evenodd" clip-rule="evenodd" d="M213.334 106.667C228.037 106.667 233.001 109.1 234.282 120H245.334C249.752 120 253.334 123.582 253.334 128C253.334 132.418 249.752 136 245.334 136H234.282C233.001 146.9 228.037 149.333 213.334 149.333C195.556 149.333 192 145.778 192 128C192 110.222 195.556 106.667 213.334 106.667ZM213.334 122.667C211.09 122.667 209.419 122.743 208.177 122.844C208.076 124.086 208 125.757 208 128C208 130.25 208.076 131.924 208.177 133.167C209.419 133.268 211.091 133.333 213.334 133.333C215.583 133.333 217.258 133.268 218.5 133.167C218.602 131.924 218.667 130.249 218.667 128C218.667 125.757 218.601 124.085 218.5 122.844C217.257 122.742 215.583 122.667 213.334 122.667Z" fill="black"/>
<path d="M170.667 120C175.085 120 178.667 123.582 178.667 128C178.667 132.418 175.085 136 170.667 136H10.667C6.24871 136 2.66699 132.418 2.66699 128C2.66699 123.582 6.24871 120 10.667 120H170.667Z" fill="black"/>
<path fill-rule="evenodd" clip-rule="evenodd" d="M42.667 32C60.4448 32 64.0003 35.5556 64.0003 53.3333C64.0003 71.1111 60.4448 74.6667 42.667 74.6667C27.9632 74.6667 22.9998 72.233 21.7191 61.3333H10.667C6.24871 61.3333 2.66699 57.7516 2.66699 53.3333C2.66699 48.9151 6.24871 45.3333 10.667 45.3333H21.7191C22.9998 34.4336 27.9632 32 42.667 32ZM42.667 48C40.4173 48 38.7432 48.0757 37.5003 48.1771C37.3994 49.4188 37.3337 51.0904 37.3337 53.3333C37.3337 55.5825 37.399 57.2572 37.5003 58.5C38.7431 58.6013 40.4178 58.6667 42.667 58.6667C44.9099 58.6667 46.5815 58.6009 47.8232 58.5C47.9246 57.2571 48.0003 55.583 48.0003 53.3333C48.0003 51.0899 47.9242 49.4189 47.8232 48.1771C46.5814 48.0762 44.9104 48 42.667 48Z" fill="black"/>
<path d="M245.334 45.3333C249.752 45.3333 253.334 48.9151 253.334 53.3333C253.334 57.7516 249.752 61.3333 245.334 61.3333H85.3337C80.9154 61.3333 77.3337 57.7516 77.3337 53.3333C77.3337 48.9151 80.9154 45.3333 85.3337 45.3333H245.334Z" fill="black"/>
</svg>
