<svg width="256" height="256" viewBox="0 0 256 256" fill="none" xmlns="http://www.w3.org/2000/svg">
<path fill-rule="evenodd" clip-rule="evenodd" d="M107.802 22.0741C114.177 10.9603 127.816 4.2304 139.271 9.96992C178.36 29.5562 256 77.5012 256 149.334C256 220.027 198.692 256.001 128 256.001L121.417 255.897C53.7839 253.721 0.000336794 217.819 0 149.334C0.000303899 128.001 21.3338 85.3344 64 64.0012C84.9738 53.5142 98.2178 37.873 106.26 24.6783L107.802 22.0741ZM134.99 109.751C134.375 109.418 133.203 109.047 130.802 109.98C128.212 110.988 125.285 113.211 123.115 116.199C116.468 125.352 106.631 135.243 92.4896 142.314C81.1146 148.001 72.4497 156.618 66.6458 165.324C60.5528 174.465 58.6682 182.042 58.6667 184.887C58.6668 203.593 65.9971 216.647 77.4167 225.439C89.3332 234.611 106.922 240.001 128 240.001C149.078 240.001 166.667 234.611 178.583 225.439C190.003 216.647 197.333 203.593 197.333 184.887C197.332 168.57 189.296 153.743 176.646 140.47C163.997 127.199 147.925 116.786 134.99 109.751ZM132.104 24.272C131.221 23.8295 129.886 23.5955 127.792 24.4699C125.54 25.4105 123.186 27.4019 121.677 30.0324C112.761 45.5795 97.1299 65.3268 71.1563 78.3137C52.6703 87.5567 38.672 101.504 29.3125 115.543C19.6604 130.021 16.0002 142.936 16 149.334C16.0002 179.824 28.1079 201.766 47.25 216.501C48.5387 217.493 49.8674 218.453 51.2292 219.387C51.7073 220.226 52.2149 221.044 52.7292 221.855C46.3188 211.747 42.6668 199.423 42.6667 184.887C42.669 170.663 56.8914 142.222 85.3333 128.001C96.7317 122.302 104.705 114.314 110.167 106.793C117.696 96.4267 131.38 89.5784 142.635 95.6991C169.963 110.561 213.331 141.052 213.333 184.887C213.333 198.255 210.241 209.751 204.76 219.376C206.123 218.442 207.46 217.494 208.75 216.501C227.892 201.766 240 179.824 240 149.334C240 119.534 223.912 93.4834 201.188 71.5845C178.544 49.7638 150.971 33.7257 132.104 24.272Z" fill="black"/>
</svg>
