<svg width="256" height="256" viewBox="0 0 256 256" fill="none" xmlns="http://www.w3.org/2000/svg">
<path d="M128 152C132.418 152 136 155.582 136 160V173.333H149.333C153.752 173.333 157.333 176.915 157.333 181.333C157.333 185.752 153.752 189.333 149.333 189.333H136V202.667C136 207.085 132.418 210.667 128 210.667C123.582 210.666 120 207.085 120 202.667V189.333H106.667C102.249 189.333 98.6667 185.751 98.6667 181.333C98.6667 176.915 102.249 173.334 106.667 173.333H120V160C120 155.582 123.582 152 128 152Z" fill="black"/>
<path fill-rule="evenodd" clip-rule="evenodd" d="M133.688 0.0520833C174.6 0.856761 192.238 10.969 198.99 48.0313C197.325 47.6622 195.613 47.3215 193.854 47C244.133 56.3114 256 83.0413 256 149.333L255.938 157.458C254.586 239.316 231.334 256 128 256L118.25 255.948C23.1891 254.858 1.37083 236.676 0.0625 157.458L0 149.333C0 82.9813 11.8878 56.2571 62.2813 46.9688C60.4676 47.2982 58.7038 47.651 56.9896 48.0313C64.0456 9.293 83.0169 0.000382792 128 0L133.688 0.0520833ZM238.188 113.802C237.35 114.216 236.443 114.527 235.458 114.625C216.559 116.515 197.621 117.881 178.667 118.771V128C178.667 132.418 175.085 136 170.667 136C166.249 136 162.667 132.418 162.667 128V119.396C139.561 120.138 116.439 120.138 93.3333 119.396V128C93.3333 132.418 89.7516 136 85.3333 136C80.9154 136 77.3333 132.418 77.3333 128V118.771C58.3793 117.881 39.4408 116.515 20.5417 114.625C19.5537 114.526 18.6422 114.218 17.8021 113.802C16.5953 123.414 16 135.078 16 149.333C16 194.211 21.8893 213.415 34.2396 223.708C40.6352 229.038 50.2958 233.291 65.8333 236.083C81.4034 238.882 101.594 240 128 240C154.406 240 174.597 238.882 190.167 236.083C205.704 233.291 215.365 229.038 221.76 223.708C234.111 213.415 240 194.211 240 149.333C240 135.078 239.394 123.414 238.188 113.802ZM128 58.6667C101.594 58.6667 81.4034 59.7851 65.8333 62.5833C50.2958 65.376 40.6352 69.6287 34.2396 74.9583C28.1497 80.0341 23.6415 87.2792 20.625 98.6979C21.1155 98.6548 21.6171 98.6579 22.125 98.7083C40.4971 100.546 58.9074 101.882 77.3333 102.76V96C77.3333 91.582 80.9154 88.0004 85.3333 88C89.7516 88 93.3333 91.5817 93.3333 96V103.396C116.439 104.149 139.561 104.149 162.667 103.396V96C162.667 91.582 166.249 88.0004 170.667 88C175.085 88 178.667 91.5817 178.667 96V102.76C197.093 101.882 215.503 100.546 233.875 98.7083C234.379 98.6582 234.877 98.6558 235.365 98.6979C232.348 87.2807 227.85 80.0337 221.76 74.9583C215.365 69.6287 205.704 65.376 190.167 62.5833C174.597 59.7851 154.406 58.6667 128 58.6667ZM73.9375 45.2188C88.9137 43.3888 106.765 42.6667 128 42.6667C149.226 42.6667 167.07 43.3906 182.042 45.2188C180.249 37.7778 178.041 32.7192 175.563 29.1771C169.719 20.8303 158.976 16.0002 128 16C97.0243 16.0003 86.2809 20.8301 80.4375 29.1771C77.9585 32.7199 75.7299 37.7756 73.9375 45.2188Z" fill="black"/>
</svg>
