<svg width="256" height="256" viewBox="0 0 256 256" fill="none" xmlns="http://www.w3.org/2000/svg">
<path fill-rule="evenodd" clip-rule="evenodd" d="M107.875 9.4488C136.412 -0.408848 167.103 -2.27306 196.625 4.05297L228.021 10.7717C231.107 11.433 233.579 13.7487 234.448 16.7821C248.75 66.8387 249.636 119.787 237.01 170.293L234.427 180.605C233.859 182.879 232.318 184.792 230.219 185.834C228.119 186.875 225.664 186.945 223.51 186.022L193.396 173.115C166.822 161.728 136.812 161.358 109.969 172.095C85.7178 181.795 59.2637 184.659 33.5 180.365L16 177.449V242.668C16 247.086 12.4183 250.668 8 250.668C3.58172 250.668 0 247.086 0 242.668V19.1155C0.000801589 16.754 1.04637 14.5099 2.85417 12.9905C4.66193 11.4721 7.04932 10.8245 9.375 11.2301L33.2708 15.4071C58.2411 19.7734 83.9153 17.7258 107.875 9.4488ZM193.271 19.6884C166.602 13.9742 138.873 15.6683 113.094 24.5738C86.5717 33.7354 58.1509 36.0008 30.5104 31.1676L16 28.6259V161.22L36.1354 164.584C59.009 168.396 82.49 165.852 104.021 157.24C134.804 144.927 169.224 145.348 199.698 158.407L221.187 167.605L221.49 166.407C233.076 120.059 232.594 71.55 220.208 25.4592L193.271 19.6884Z" fill="black"/>
</svg>
