<svg width="256" height="256" viewBox="0 0 256 256" fill="none" xmlns="http://www.w3.org/2000/svg">
<path fill-rule="evenodd" clip-rule="evenodd" d="M128 85.3333C163.556 85.3333 170.667 92.4444 170.667 128C170.667 163.556 163.556 170.667 128 170.667C92.4444 170.667 85.3333 163.556 85.3333 128C85.3333 92.4444 92.4444 85.3333 128 85.3333ZM128 101.333C119.43 101.333 113.682 101.779 109.708 102.635C105.915 103.454 104.885 104.407 104.646 104.646C104.407 104.885 103.454 105.915 102.635 109.708C101.779 113.682 101.333 119.43 101.333 128C101.333 136.57 101.779 142.318 102.635 146.292C103.454 150.085 104.407 151.115 104.646 151.354C104.885 151.593 105.915 152.546 109.708 153.365C113.682 154.221 119.43 154.667 128 154.667C136.57 154.667 142.318 154.221 146.292 153.365C150.085 152.546 151.115 151.593 151.354 151.354C151.593 151.115 152.546 150.085 153.365 146.292C154.221 142.318 154.667 136.57 154.667 128C154.667 119.43 154.221 113.682 153.365 109.708C152.546 105.915 151.593 104.885 151.354 104.646C151.115 104.407 150.085 103.454 146.292 102.635C142.318 101.779 136.57 101.333 128 101.333Z" fill="black"/>
<path fill-rule="evenodd" clip-rule="evenodd" d="M128 0C150.104 2.02371e-07 163.403 5.28148 171.198 23.7083C189.74 16.1901 202.88 21.8593 218.51 37.4896C234.139 53.1184 239.796 66.2521 232.281 84.7917C250.718 92.5862 256 105.891 256 128C256 150.108 250.715 163.403 232.281 171.198C239.801 189.742 234.141 202.88 218.51 218.51C202.88 234.141 189.741 239.801 171.198 232.281C163.403 250.715 150.108 256 128 256C105.891 256 92.5862 250.718 84.7917 232.281C66.2518 239.797 53.1185 234.139 37.4896 218.51C21.8591 202.88 16.1898 189.741 23.7083 171.198C5.28148 163.403 -6.01872e-07 150.104 0 128C9.6605e-07 105.899 5.27822 92.5979 23.6979 84.8021C16.1812 66.261 21.86 53.1192 37.4896 37.4896C53.1175 21.862 66.2533 16.1943 84.7917 23.7083C92.5867 5.27846 105.894 0 128 0ZM128 16C117.902 16 112.057 17.2683 108.333 19.1771C105.224 20.7719 102.259 23.4892 99.5313 29.9375C96.1258 37.989 86.8833 41.8246 78.7813 38.5417C72.2897 35.9105 68.2725 36.0864 64.9479 37.1563C60.9691 38.4376 55.9393 41.6651 48.8021 48.8021C41.6617 55.9425 38.429 60.9754 37.1458 64.9583C36.0743 68.2854 35.8905 72.3031 38.5208 78.7917C41.805 86.8925 37.9871 96.1341 29.9375 99.5417C23.4922 102.27 20.7718 105.226 19.1771 108.333C17.2685 112.055 16 117.903 16 128C16 138.095 17.2694 143.936 19.1771 147.656C20.7714 150.763 23.4884 153.729 29.9375 156.458C37.9897 159.865 41.8165 169.106 38.5313 177.208C35.8995 183.699 36.0771 187.717 37.1458 191.042C38.4266 195.022 41.6614 200.057 48.8021 207.198C55.941 214.337 60.971 217.565 64.9479 218.844C68.2703 219.911 72.2874 220.09 78.7813 217.458L80.3125 216.917C88.0167 214.661 96.3394 218.502 99.5313 226.052C102.261 232.508 105.225 235.228 108.333 236.823C112.055 238.732 117.9 240 128 240C138.096 240 143.938 238.731 147.656 236.823C150.762 235.228 153.728 232.508 156.458 226.052L157.167 224.594C161.017 217.547 169.611 214.378 177.208 217.458C183.706 220.093 187.727 219.912 191.052 218.844C195.03 217.565 200.059 214.336 207.198 207.198C214.336 200.06 217.564 195.03 218.844 191.052C219.912 187.727 220.093 183.705 217.458 177.208C214.173 169.105 217.998 159.864 226.052 156.458C232.508 153.728 235.228 150.763 236.823 147.656C238.492 144.403 239.668 139.524 239.938 131.594L240 128C240 117.9 238.732 112.055 236.823 108.333C235.228 105.225 232.508 102.261 226.052 99.5313C217.998 96.1264 214.174 86.8847 217.458 78.7813C220.09 72.2877 219.911 68.2705 218.844 64.9479C217.565 60.9709 214.337 55.9408 207.198 48.8021C200.057 41.6616 195.022 38.4267 191.042 37.1458C187.717 36.0771 183.698 35.8998 177.208 38.5313C169.106 41.8164 159.865 37.9896 156.458 29.9375C153.729 23.4884 150.763 20.7714 147.656 19.1771C144.402 17.5081 139.523 16.3318 131.594 16.0625L128 16Z" fill="black"/>
</svg>
