<svg width="256" height="256" viewBox="0 0 256 256" fill="none" xmlns="http://www.w3.org/2000/svg">
<path fill-rule="evenodd" clip-rule="evenodd" d="M138.792 120C140.136 78.2052 152.746 64 186.667 64C220.588 64 233.188 78.2054 234.532 120H245.334C249.752 120 253.334 123.582 253.334 128C253.334 132.418 249.752 136 245.334 136H234.532L234.521 136.625C233.072 177.937 220.418 192 186.667 192C152.916 192 140.262 177.937 138.813 136.625L138.802 136H117.198L117.188 136.625C115.738 177.937 103.085 192 69.3337 192C35.5826 192 22.929 177.937 21.4795 136.625L21.4691 136H10.667C6.24871 136 2.66699 132.418 2.66699 128C2.66699 123.582 6.24871 120 10.667 120H21.4587C22.8025 78.2052 35.413 64 69.3337 64C103.254 64 115.854 78.2054 117.198 120H138.792ZM69.3337 80C53.3214 80 47.6623 83.5687 44.6357 87.6042C40.5375 93.0699 37.3337 104.288 37.3337 128C37.3337 151.712 40.5375 162.93 44.6357 168.396C47.6623 172.431 53.3214 176 69.3337 176C85.3459 176 91.005 172.431 94.0316 168.396C98.1298 162.93 101.334 151.712 101.334 128C101.334 104.288 98.1298 93.0699 94.0316 87.6042C91.005 83.5687 85.3459 80 69.3337 80ZM186.667 80C170.655 80 164.996 83.5687 161.969 87.6042C157.871 93.0699 154.667 104.288 154.667 128C154.667 151.712 157.871 162.93 161.969 168.396C164.996 172.431 170.655 176 186.667 176C202.679 176 208.338 172.431 211.365 168.396C215.463 162.93 218.667 151.712 218.667 128C218.667 104.288 215.463 93.0699 211.365 87.6042C208.338 83.5687 202.679 80 186.667 80Z" fill="black"/>
</svg>
