<svg width="256" height="256" viewBox="0 0 256 256" fill="none" xmlns="http://www.w3.org/2000/svg">
<path fill-rule="evenodd" clip-rule="evenodd" d="M128 0C234.667 0 256 21.3333 256 128C256 234.667 234.667 256 128 256C21.3333 256 0 234.667 0 128C0 21.3333 21.3333 0 128 0ZM88.9792 191.042C84.6288 188.739 80.7425 187.988 76.75 189.063C72.6614 190.163 69.422 193.796 67.0313 201.375C64.6619 208.887 63.8516 218.04 63.125 226.667C62.9112 229.205 62.6766 231.867 62.3854 234.406C63.6718 234.731 64.9968 235.067 66.375 235.365C81.6814 238.666 101.652 240 128 240C154.348 240 174.319 238.666 189.625 235.365C190.313 235.216 190.981 235.03 191.646 234.875C191.635 234.837 191.626 234.798 191.615 234.76L189.469 227.26C188.381 223.576 187.21 220.111 185.635 217.115C183.582 213.207 181.363 211.114 178.802 210.26C171.683 207.887 165.695 209.576 156.969 212.323C151.626 214.005 145.038 216.125 137.708 216.354C130.077 216.592 122.006 214.803 113.219 209.531C109.558 207.335 105.817 204.051 102.573 201.24C97.8728 197.166 93.5403 193.456 88.9792 191.042ZM187.667 20.25C192.496 27.8542 197.614 38.3902 199.885 52.0208C201.661 62.6757 200.252 71.2124 194.188 76.9479C188.911 81.9363 181.439 83.1212 177.229 83.9271C173.679 84.6068 171.425 85.0814 169.719 85.8854C168.412 86.5012 167.88 87.0935 167.51 88.0938C166.28 91.4353 166.664 94.7288 168.656 98.7917C170.796 103.153 174.345 107.525 178.604 112.698C182.736 117.715 187.9 123.877 190.604 130.417C192.03 133.868 192.94 137.779 192.573 142.01C192.2 146.307 190.552 150.372 187.729 154.135C183.576 159.672 178.473 163.178 172.677 164.667C167.026 166.118 161.448 165.469 156.51 164.021C146.943 161.214 137.759 154.75 131.615 150.49C128.179 148.108 125.939 146.58 124.427 145.823C122.209 144.714 118.568 143.794 113.083 142.479C107.36 141.107 100.032 139.38 93.6771 136.365C87.2314 133.306 80.5699 128.355 77.7396 119.865C76.2351 115.351 75.4924 111.587 74.9063 108.656C73.9872 104.061 73.5362 102.377 72.2813 100.677C70.9453 98.8684 68.0563 96.3094 60.4167 92.4896C53.6793 89.1194 49.623 82.8825 47.1667 76.5313C44.6918 70.1297 43.466 62.6891 42.9479 55.3646C42.322 46.5153 42.6931 37.2233 43.4896 29C40.304 30.9106 37.6141 33.0109 35.3125 35.3125C28.8513 41.7737 23.8981 51.2482 20.6354 66.375C17.3344 81.6814 16 101.652 16 128C16 154.348 17.3344 174.319 20.6354 189.625C23.8981 204.752 28.8513 214.226 35.3125 220.688C38.3818 223.757 42.142 226.464 46.8542 228.833C46.9518 227.749 47.0815 226.582 47.1875 225.323C47.8807 217.093 48.7682 206.082 51.7708 196.563C54.752 187.111 60.559 176.843 72.5833 173.604C81.6742 171.157 89.8026 173.377 96.4688 176.906C102.924 180.325 108.624 185.308 113.052 189.146C116.649 192.263 119.241 194.477 121.448 195.802C127.677 199.54 132.729 200.493 137.208 200.354C141.992 200.205 146.525 198.838 152.167 197.063C160.472 194.448 171.222 190.859 183.865 195.073C191.868 197.741 196.731 203.823 199.802 209.667C202.826 215.421 204.614 221.931 205.948 226.698C206.28 227.883 206.575 228.944 206.854 229.896C212.66 227.287 217.138 224.237 220.688 220.688C227.149 214.226 232.102 204.752 235.365 189.625C238.666 174.319 240 154.348 240 128C240 101.652 238.666 81.6814 235.365 66.375C232.102 51.2482 227.149 41.7737 220.688 35.3125C214.226 28.8513 204.752 23.8981 189.625 20.6354C188.982 20.4967 188.326 20.3818 187.667 20.25ZM128 16C101.652 16 81.6814 17.3344 66.375 20.6354C64.2941 21.0842 62.3218 21.571 60.4479 22.0833C59.105 31.1973 58.1409 43.2713 58.9167 54.2396C59.3761 60.7317 60.4158 66.4201 62.0938 70.7604C63.7912 75.1495 65.7801 77.2791 67.5729 78.1771C75.9311 82.3562 81.5542 86.2983 85.1563 91.1771C88.8363 96.1627 89.7631 101.357 90.5938 105.51C91.1741 108.412 91.7656 111.318 92.9271 114.802C93.8154 117.467 96.0616 119.78 100.542 121.906C105.113 124.075 110.731 125.459 116.813 126.917C121.579 128.059 127.332 129.391 131.573 131.51C134.356 132.902 137.713 135.252 140.729 137.344C147.385 141.958 154.394 146.725 161.01 148.667C164.165 149.592 166.684 149.694 168.698 149.177C170.566 148.697 172.703 147.511 174.938 144.531C176.181 142.872 176.551 141.602 176.635 140.625C176.725 139.584 176.535 138.28 175.813 136.531C174.213 132.663 170.854 128.466 166.25 122.875C162.278 118.052 157.402 112.198 154.281 105.833C151.013 99.1687 149.302 91.2151 152.49 82.5625C154.6 76.8376 158.619 73.4328 162.896 71.4167C166.773 69.5887 171.141 68.7974 174.219 68.2083C179.714 67.1564 181.973 66.4817 183.198 65.3229C183.635 64.909 185.496 62.9988 184.104 54.6458C181.075 36.4784 171.891 25.1332 167.063 19.1979C166.548 18.5651 166.022 17.9047 165.552 17.3021C154.732 16.414 142.307 16 128 16Z" fill="black"/>
</svg>
