<svg width="256" height="256" viewBox="0 0 256 256" fill="none" xmlns="http://www.w3.org/2000/svg">
<path fill-rule="evenodd" clip-rule="evenodd" d="M128 0C147.556 0 256 35.9506 256 74.6667C256 83.1682 241.806 96.6695 222.771 110.458C222.846 110.404 222.925 110.356 223 110.302C223.693 120.278 224 131.467 224 144L223.948 152.531C222.934 238.479 205.499 256 128 256L120.688 255.948C49.3928 254.803 33.0337 235.707 32.0521 152.531L32 144C32.0001 131.467 32.2963 120.278 32.9896 110.302C33.167 110.431 33.353 110.548 33.5313 110.677C26.9991 105.957 21.0333 101.263 16 96.7917V186.667C16 191.085 12.4183 194.667 8 194.667C3.58172 194.667 0 191.085 0 186.667V74.6667C0 35.9506 108.444 0 128 0ZM48.4167 120.875C48.1263 127.887 48 135.574 48 144C48.0001 167.063 49.0011 184.563 51.4792 197.969C53.9472 211.315 57.6657 219.354 62.1458 224.583C70.8664 234.755 87.4969 240 128 240C168.503 240 185.134 234.755 193.854 224.583C198.334 219.354 202.053 211.315 204.521 197.969C206.999 184.563 208 167.063 208 144C208 135.577 207.853 127.895 207.563 120.885C175.972 141.49 138.696 160 128 160C117.302 160 80.0111 141.485 48.4167 120.875ZM127.823 16.0104C127.705 16.0163 127.54 16.0233 127.333 16.0417C126.909 16.0794 126.343 16.1482 125.646 16.25C124.242 16.4551 122.453 16.7791 120.302 17.25C115.994 18.193 110.594 19.6221 104.458 21.5104C92.1721 25.2917 77.4817 30.7368 63.4479 37.3021C49.2722 43.934 36.508 51.3677 27.5521 58.9063C19.2942 65.8572 16.7038 70.8231 16.1354 73.5208C16.3865 73.9413 16.7973 74.5592 17.4271 75.3854C19.5064 78.1123 22.926 81.651 27.75 85.8438C37.3344 94.1733 50.7217 103.598 65.125 112.563C79.4617 121.485 94.3231 129.656 106.635 135.531C112.808 138.477 118.131 140.746 122.292 142.24C125.795 143.497 127.549 143.856 128 143.958C128.451 143.856 130.205 143.497 133.708 142.24C137.869 140.746 143.192 138.477 149.365 135.531C161.677 129.656 176.538 121.485 190.875 112.563C205.278 103.598 218.666 94.1733 228.25 85.8438C233.074 81.651 236.494 78.1123 238.573 75.3854C239.2 74.5622 239.603 73.9412 239.854 73.5208C239.285 70.8226 236.704 65.8554 228.448 58.9063C219.492 51.3677 206.728 43.934 192.552 37.3021C178.518 30.7368 163.828 25.2917 151.542 21.5104C145.406 19.6221 140.006 18.193 135.698 17.25C133.547 16.7791 131.758 16.4551 130.354 16.25C129.657 16.1482 129.091 16.0794 128.667 16.0417C128.46 16.0233 128.295 16.0163 128.177 16.0104C128.121 16.0076 128.072 16.0008 128.042 16H127.958C127.928 16.0008 127.88 16.0076 127.823 16.0104Z" fill="black"/>
</svg>
