<svg width="256" height="256" viewBox="0 0 256 256" fill="none" xmlns="http://www.w3.org/2000/svg">
<path d="M7.27098 192.03C85.814 184.89 164.853 184.89 243.396 192.03C247.794 192.433 251.035 196.33 250.636 200.728C250.233 205.126 246.336 208.368 241.938 207.968C164.361 200.916 86.3055 200.916 8.72931 207.968C4.33114 208.367 0.433985 205.126 0.0313965 200.728C-0.368456 196.33 2.87352 192.433 7.27098 192.03Z" fill="black"/>
<path d="M7.27098 117.364C85.814 110.223 164.853 110.223 243.396 117.364C247.794 117.766 251.035 121.663 250.636 126.062C250.233 130.459 246.336 133.701 241.938 133.301C164.361 126.249 86.3055 126.249 8.72931 133.301C4.33114 133.701 0.433983 130.459 0.0313965 126.062C-0.368456 121.663 2.87352 117.766 7.27098 117.364Z" fill="black"/>
<path d="M7.27098 42.697C85.814 35.5567 164.853 35.5567 243.396 42.697C247.794 43.0993 251.035 46.9963 250.636 51.3949C250.233 55.7923 246.336 59.0343 241.938 58.6345C164.361 51.5824 86.3055 51.5824 8.72931 58.6345C4.33114 59.034 0.433983 55.7922 0.0313965 51.3949C-0.368456 46.9965 2.87352 43.0996 7.27098 42.697Z" fill="black"/>
</svg>
