<svg width="256" height="256" viewBox="0 0 256 256" fill="none" xmlns="http://www.w3.org/2000/svg">
<path fill-rule="evenodd" clip-rule="evenodd" d="M169.677 34.7283C174.06 34.1818 178.056 37.2934 178.604 41.6762C179.953 52.4673 181.034 63.2841 181.875 74.1137C192.709 74.9548 203.528 76.0456 214.323 77.3949C218.706 77.9428 221.817 81.9392 221.271 86.322C220.723 90.7053 216.727 93.8164 212.344 93.2699C202.556 92.0465 192.748 91.0449 182.927 90.2491C184.293 115.395 184.293 140.593 182.927 165.739C192.748 164.943 202.557 163.952 212.344 162.728C216.727 162.182 220.723 165.293 221.271 169.676C221.817 174.059 218.706 178.055 214.323 178.603C203.528 179.953 192.708 181.033 181.875 181.874C181.034 192.707 179.954 203.527 178.604 214.322C178.056 218.705 174.06 221.816 169.677 221.27C165.294 220.722 162.183 216.726 162.729 212.343C163.953 202.556 164.944 192.747 165.74 182.926C140.594 184.292 115.396 184.292 90.2501 182.926C91.0459 192.747 92.0475 202.555 93.2709 212.343C93.8174 216.726 90.7063 220.722 86.323 221.27C81.9401 221.816 77.9438 218.705 77.3959 214.322C76.0466 203.527 74.9558 192.708 74.1147 181.874C63.2851 181.033 52.4683 179.952 41.6772 178.603C37.2944 178.055 34.1828 174.059 34.7292 169.676C35.2775 165.294 39.2738 162.182 43.6563 162.728C53.4399 163.951 63.2459 164.943 73.0626 165.739C71.6971 140.593 71.6966 115.394 73.0626 90.2491C63.2455 91.0448 53.4402 92.047 43.6563 93.2699C39.2735 93.816 35.2771 90.7051 34.7292 86.322C34.1833 81.9395 37.2946 77.9432 41.6772 77.3949C52.4686 76.0461 63.2848 74.9547 74.1147 74.1137C74.9557 63.2838 76.047 52.4676 77.3959 41.6762C77.9441 37.2936 81.9405 34.1824 86.323 34.7283C90.7061 35.2762 93.817 39.2725 93.2709 43.6554C92.0479 53.4392 91.0458 63.2445 90.2501 73.0616C115.395 71.6957 140.594 71.6961 165.74 73.0616C164.944 63.2449 163.952 53.4389 162.729 43.6554C162.183 39.2728 165.295 35.2765 169.677 34.7283ZM166.844 89.1449C140.965 87.6643 115.024 87.6639 89.1459 89.1449C87.6649 115.023 87.6653 140.964 89.1459 166.843C115.025 168.324 140.965 168.324 166.844 166.843C168.324 140.964 168.325 115.024 166.844 89.1449Z" fill="black"/>
</svg>
