<svg width="256" height="256" viewBox="0 0 256 256" fill="none" xmlns="http://www.w3.org/2000/svg">
<path fill-rule="evenodd" clip-rule="evenodd" d="M128 0C208 0 224 16 224 96C224 99.8291 223.934 103.511 223.854 107.052C245.9 108.896 250.666 118.215 250.666 149.333L250.593 155.677C249.795 185.751 242.498 192 213.333 192L207.791 191.917C181.469 191.006 176 182.669 176 149.333C176 115.779 181.541 107.569 208.312 106.75C208.163 106.747 208.014 106.742 207.864 106.74C207.94 103.337 208 99.7608 208 96C208 76.3185 206.999 61.6815 204.614 50.625C202.268 39.7482 198.815 33.4404 194.687 29.3125C190.559 25.1846 184.251 21.7314 173.375 19.3854C162.318 17.001 147.681 16 128 16C108.318 16 93.6812 17.001 82.6247 19.3854C71.7479 21.7314 65.4401 25.1846 61.3122 29.3125C57.1843 33.4404 53.7311 39.7482 51.3851 50.625C49.0007 61.6815 47.9997 76.3185 47.9997 96C47.9997 99.7607 48.0489 103.337 48.1247 106.74C47.9714 106.742 47.8187 106.747 47.6663 106.75L48.208 106.76C74.5301 107.671 79.9997 115.998 79.9997 149.333L79.9268 155.677C79.207 182.795 73.2013 190.51 50.6455 191.771C50.6477 191.847 50.6663 191.923 50.6663 192C50.6663 203.707 53.2584 210.535 56.5726 214.625C59.8231 218.636 64.6581 221.111 71.5622 222.24C78.5905 223.388 87.1085 223.026 96.7601 221.854C106.451 220.677 116.402 218.814 126.739 217.167C131.102 216.471 135.2 219.449 135.896 223.812C136.588 228.174 133.621 232.273 129.26 232.969C119.52 234.521 108.761 236.516 98.6872 237.74C88.5748 238.967 78.2636 239.549 68.9788 238.031C59.5726 236.493 50.6087 232.695 44.1351 224.708C37.724 216.798 34.6663 205.892 34.6663 192C34.6663 191.923 34.6746 191.847 34.6768 191.771C10.4617 190.414 5.33301 181.608 5.33301 149.333C5.33301 118.225 10.0961 108.89 32.1247 107.042C32.0458 103.504 31.9997 99.8252 31.9997 96C31.9997 16 47.9997 0 128 0ZM42.6663 122.667C26.6411 122.667 24.5485 124.999 24.3747 125.198C24.2197 125.375 23.2843 126.533 22.5101 130.635C21.7234 134.805 21.333 140.719 21.333 149.333C21.333 157.947 21.7234 163.861 22.5101 168.031C23.2843 172.133 24.2197 173.292 24.3747 173.469C24.5485 173.667 26.6411 176 42.6663 176C58.6916 176 60.7842 173.667 60.958 173.469C61.113 173.292 62.0484 172.133 62.8226 168.031C63.6093 163.861 63.9997 157.947 63.9997 149.333C63.9997 140.719 63.6093 134.805 62.8226 130.635C62.0484 126.533 61.113 125.375 60.958 125.198C60.7842 124.999 58.6916 122.667 42.6663 122.667ZM213.333 122.667C197.308 122.667 195.215 124.999 195.041 125.198C194.886 125.375 193.951 126.533 193.177 130.635C192.39 134.805 192 140.719 192 149.333C192 157.947 192.39 163.861 193.177 168.031C193.951 172.133 194.886 173.292 195.041 173.469C195.215 173.667 197.308 176 213.333 176C229.358 176 231.451 173.667 231.625 173.469C231.78 173.292 232.715 172.133 233.489 168.031C234.276 163.861 234.666 157.947 234.666 149.333C234.666 140.719 234.276 134.805 233.489 130.635C232.715 126.533 231.78 125.375 231.625 125.198C231.451 124.999 229.358 122.667 213.333 122.667Z" fill="black"/>
</svg>
