<svg width="256" height="256" viewBox="0 0 256 256" fill="none" xmlns="http://www.w3.org/2000/svg">
<path fill-rule="evenodd" clip-rule="evenodd" d="M128 0C234.667 0 256 21.3333 256 128C256 234.667 234.667 256 128 256C21.3333 256 0 234.667 0 128C0 21.3333 21.3333 0 128 0ZM238.896 92.8125C165.098 86.4348 90.8912 86.4342 17.0938 92.8125C16.3354 103.069 16 114.725 16 128C16 154.348 17.3344 174.319 20.6354 189.625C23.8981 204.752 28.8513 214.226 35.3125 220.688C41.7737 227.149 51.2482 232.102 66.375 235.365C81.6814 238.666 101.652 240 128 240C154.348 240 174.319 238.666 189.625 235.365C204.752 232.102 214.226 227.149 220.688 220.688C227.149 214.226 232.102 204.752 235.365 189.625C238.666 174.319 240 154.348 240 128C240 114.725 239.654 103.069 238.896 92.8125ZM79.4063 18.4375C74.7216 19.044 70.3877 19.77 66.375 20.6354C51.2482 23.8981 41.7737 28.8513 35.3125 35.3125C28.8513 41.7737 23.8981 51.2482 20.6354 66.375C19.9454 69.5745 19.3677 72.9815 18.8438 76.6042C40.154 74.8141 61.4963 73.5315 82.8542 72.7917C85.795 54.6289 84.612 36.053 79.4063 18.4375ZM176.583 18.4375C171.378 36.0516 170.195 54.6304 173.135 72.7917C194.493 73.5313 215.836 74.8143 237.146 76.6042C236.622 72.9821 236.055 69.574 235.365 66.375C232.102 51.2482 227.149 41.7737 220.688 35.3125C214.226 28.8513 204.752 23.8981 189.625 20.6354C185.609 19.7694 181.272 19.0442 176.583 18.4375ZM128 16C115.914 16 105.171 16.2942 95.6042 16.9167C100.494 34.9468 101.696 53.7921 99.1146 72.3229C118.366 71.8964 137.624 71.8966 156.875 72.3229C154.294 53.7934 155.496 34.9455 160.385 16.9167C150.821 16.2946 140.081 16 128 16Z" fill="black"/>
</svg>
