<svg width="258" height="256" viewBox="0 0 258 256" fill="none" xmlns="http://www.w3.org/2000/svg">
<path d="M135.597 27.0321C167.741 1.27506 214.642 6.49146 240.357 38.6883C266.073 70.8889 260.368 137.677 235.67 170.667L233.201 173.834C206.948 206.353 156.891 232.198 137.18 241.553C132.567 243.742 127.399 244.012 122.649 242.365L120.649 241.542C100.971 232.181 51.0335 206.346 24.7948 173.834L22.3365 170.667C-2.36226 137.677 -7.94198 70.8892 17.774 38.6883C43.4901 6.48821 90.4001 1.27159 122.545 27.0321L128.909 32.0008L135.597 27.0321ZM227.857 48.6779C207.659 23.3856 170.834 19.2972 145.597 39.5217L145.368 39.6987L145.139 39.8654L138.462 44.8342C132.684 49.1322 124.743 49.0455 119.066 44.6154L112.701 39.6467L112.534 39.5217C87.2983 19.2982 50.4832 23.3874 30.2844 48.6779C20.8424 60.5009 15.9633 80.7186 17.1282 103.574C18.2833 126.225 25.2135 147.814 35.1386 161.074C46.1889 175.834 63.8475 189.919 82.1386 201.813C100.195 213.555 117.734 222.438 127.524 227.095C128.447 227.533 129.402 227.533 130.326 227.095C140.133 222.44 157.705 213.564 175.795 201.824C194.126 189.926 211.809 175.832 222.857 161.074C232.792 147.803 239.755 126.205 240.941 103.553C242.137 80.6951 237.289 60.4893 227.857 48.6779Z" fill="black"/>
</svg>
