<svg width="258" height="256" viewBox="0 0 258 256" fill="none" xmlns="http://www.w3.org/2000/svg">
<path fill-rule="evenodd" clip-rule="evenodd" d="M135.595 27.0321C167.739 1.27505 214.639 6.49146 240.355 38.6883C266.071 70.889 260.366 137.677 235.668 170.667L233.199 173.834C206.946 206.353 156.889 232.198 137.178 241.553C132.565 243.742 127.397 244.012 122.647 242.365L120.647 241.542C100.969 232.181 51.0315 206.346 24.7927 173.834L22.3344 170.667C-2.36428 137.677 -7.94378 70.8893 17.7719 38.6883C43.488 6.48821 90.398 1.27159 122.543 27.0321L128.907 32.0008L135.595 27.0321ZM227.855 48.6779C207.657 23.3856 170.832 19.2972 145.595 39.5217L145.366 39.6987L145.136 39.8654L138.459 44.8342C132.682 49.132 124.741 49.0453 119.064 44.6154L112.699 39.6467L112.532 39.5217C87.2962 19.2982 50.4811 23.3874 30.2823 48.6779C20.8405 60.501 15.9612 80.7188 17.1261 103.574C17.2333 105.675 17.4008 107.767 17.6052 109.845H54.2927C56.8108 109.845 59.1777 111.038 60.6886 113.053L82.6365 142.313L99.5531 83.1362L99.9698 81.9904C101.15 79.4221 103.626 77.6326 106.501 77.3654C109.786 77.0605 112.922 78.8107 114.397 81.7612L133.522 120.001H171.241C175.659 120.001 179.241 123.583 179.241 128.001C179.24 132.419 175.659 136.001 171.241 136.001H128.574C125.544 136.001 122.773 134.284 121.418 131.574L109.272 107.292L93.5948 162.199C92.7597 165.119 90.3422 167.314 87.3552 167.865C84.3705 168.415 81.3337 167.23 79.5115 164.803L50.2927 125.845H20.1781C23.3157 139.834 28.5585 152.285 35.1365 161.074C46.1868 175.834 63.8455 189.919 82.1365 201.813C100.193 213.555 117.732 222.438 127.522 227.095C128.445 227.533 129.4 227.533 130.324 227.095C140.131 222.44 157.703 213.564 175.793 201.824C194.124 189.926 211.806 175.831 222.855 161.074C232.79 147.803 239.753 126.205 240.939 103.553C242.134 80.6953 237.287 60.4893 227.855 48.6779Z" fill="black"/>
</svg>
