<svg width="258" height="256" viewBox="0 0 258 256" fill="none" xmlns="http://www.w3.org/2000/svg">
<path fill-rule="evenodd" clip-rule="evenodd" d="M135.595 27.0301C167.739 1.2731 214.639 6.4895 240.355 38.6864C266.071 70.887 260.366 137.675 235.668 170.666L233.199 173.832C206.946 206.351 156.889 232.196 137.178 241.551C132.565 243.74 127.397 244.01 122.647 242.363L120.647 241.541C100.969 232.179 51.0315 206.344 24.7927 173.832L22.3344 170.666C-2.36428 137.675 -7.94377 70.8874 17.7719 38.6864C43.488 6.48626 90.398 1.26964 122.543 27.0301L128.907 31.9989L135.595 27.0301ZM112.532 39.5197C87.2962 19.2963 50.4811 23.3854 30.2823 48.676C20.8405 60.499 15.9612 80.7169 17.1261 103.572C18.2813 126.223 25.2114 147.812 35.1365 161.072C46.1868 175.832 63.8455 189.917 82.1365 201.811C98.2171 212.268 113.902 220.428 124.053 225.384L137.532 191.707C140.078 185.343 139.774 178.192 136.709 172.061L128.959 156.551C123.331 145.291 123.331 132.04 128.959 120.78L136.709 105.27C139.774 99.1389 140.078 91.9877 137.532 85.6239L121.803 46.3218C120.85 45.849 119.927 45.2876 119.064 44.6135L112.699 39.6447L112.532 39.5197ZM227.855 48.676C207.657 23.3837 170.831 19.2952 145.595 39.5197L145.366 39.6968L145.136 39.8634L138.459 44.8322H138.439L152.386 79.6864C156.628 90.2931 156.13 102.208 151.022 112.426L143.272 127.936C139.895 134.692 139.895 142.64 143.272 149.395L151.022 164.905C156.13 175.123 156.629 187.038 152.386 197.645L143.157 220.697C152.488 215.859 164.035 209.453 175.793 201.822C194.124 189.924 211.806 175.829 222.855 161.072C232.79 147.801 239.753 126.203 240.939 103.551C242.134 80.6933 237.287 60.4874 227.855 48.676Z" fill="black"/>
</svg>
