<svg width="256" height="256" viewBox="0 0 256 256" fill="none" xmlns="http://www.w3.org/2000/svg">
<path fill-rule="evenodd" clip-rule="evenodd" d="M137.75 0.0625C235.979 1.41443 256 24.666 256 128L255.938 137.75C254.586 235.979 231.334 256 128 256L118.25 255.938C20.0211 254.586 0 231.334 0 128C6.78174e-07 21.3333 21.3333 0 128 0L137.75 0.0625ZM53.3333 136H16.0521C16.3064 158.443 17.677 175.907 20.6354 189.625C23.8981 204.752 28.8513 214.226 35.3125 220.688C41.7737 227.149 51.2482 232.102 66.375 235.365C80.0927 238.323 97.5566 239.683 120 239.938V202.573C67.2643 201.498 54.4896 188.731 53.4167 135.99C53.3889 135.99 53.3612 136 53.3333 136ZM202.573 135.99C201.5 188.734 188.734 201.5 135.99 202.573C135.99 202.604 136 202.635 136 202.667V239.938C158.443 239.683 175.907 238.323 189.625 235.365C204.752 232.102 214.226 227.149 220.688 220.688C227.149 214.226 232.102 204.752 235.365 189.625C238.323 175.907 239.694 158.443 239.948 136H202.667C202.635 136 202.604 135.99 202.573 135.99ZM128 69.3333C112.763 69.3333 101.682 70.1121 93.4583 71.8854C85.4149 73.6203 81.2182 76.0735 78.6458 78.6458C76.0735 81.2182 73.6203 85.4149 71.8854 93.4583C70.1121 101.682 69.3333 112.763 69.3333 128C69.3333 143.237 70.1121 154.318 71.8854 162.542C73.6203 170.585 76.0735 174.782 78.6458 177.354C81.2182 179.927 85.4149 182.38 93.4583 184.115C101.682 185.888 112.763 186.667 128 186.667C143.237 186.667 154.318 185.888 162.542 184.115C170.585 182.38 174.782 179.927 177.354 177.354C179.927 174.782 182.38 170.585 184.115 162.542C185.888 154.318 186.667 143.237 186.667 128C186.667 112.763 185.888 101.682 184.115 93.4583C182.38 85.4149 179.927 81.2182 177.354 78.6458C174.782 76.0735 170.585 73.6203 162.542 71.8854C154.318 70.1121 143.237 69.3333 128 69.3333ZM120 16.0521C97.5565 16.3064 80.0927 17.677 66.375 20.6354C51.2482 23.8981 41.7737 28.8513 35.3125 35.3125C28.8513 41.7737 23.8981 51.2482 20.6354 66.375C17.677 80.0927 16.3064 97.5565 16.0521 120H53.4167C54.4911 67.2676 67.2676 54.4911 120 53.4167V16.0521ZM136 53.3333C136 53.3612 135.99 53.3889 135.99 53.4167C188.731 54.4896 201.498 67.2643 202.573 120H239.948C239.694 97.5565 238.323 80.0927 235.365 66.375C232.102 51.2482 227.149 41.7737 220.688 35.3125C214.226 28.8513 204.752 23.8981 189.625 20.6354C175.907 17.677 158.443 16.3064 136 16.0521V53.3333Z" fill="black"/>
</svg>
