<svg width="256" height="256" viewBox="0 0 256 256" fill="none" xmlns="http://www.w3.org/2000/svg">
<path d="M145.76 88.8438C149.711 86.871 154.514 88.4766 156.49 92.4271C158.462 96.3781 156.857 101.181 152.906 103.156C144.755 107.233 137.637 112.998 131.969 120H192C196.418 120 200 123.582 200 128C200 132.418 196.418 136 192 136H131.969C137.637 143.002 144.755 148.767 152.906 152.844C156.857 154.819 158.462 159.622 156.49 163.573C154.514 167.523 149.711 169.129 145.76 167.156C130.365 159.458 117.875 146.969 110.177 131.573C110.135 131.488 110.102 131.399 110.063 131.313C109.999 131.172 109.941 131.03 109.885 130.885C109.729 130.483 109.599 130.074 109.51 129.656C109.398 129.122 109.333 128.568 109.333 128C109.333 127.447 109.393 126.907 109.5 126.385L109.542 126.177C109.627 125.813 109.748 125.457 109.885 125.104C109.942 124.96 109.998 124.817 110.063 124.677C110.101 124.594 110.136 124.509 110.177 124.427C117.875 109.031 130.365 96.5417 145.76 88.8438Z" fill="black"/>
<path fill-rule="evenodd" clip-rule="evenodd" d="M128 0C234.667 0 256 21.3333 256 128C256 234.667 234.667 256 128 256C21.3333 256 0 234.667 0 128C0 21.3333 21.3333 0 128 0ZM128 16C110.059 16 95.0783 16.6464 82.5104 18.0833C75.6309 91.1965 75.6315 164.793 82.5104 237.906C95.0785 239.343 110.058 240 128 240C154.348 240 174.319 238.666 189.625 235.365C204.752 232.102 214.226 227.149 220.688 220.688C227.149 214.226 232.102 204.752 235.365 189.625C238.666 174.319 240 154.348 240 128C240 101.652 238.666 81.6814 235.365 66.375C232.102 51.2482 227.149 41.7737 220.688 35.3125C214.226 28.8513 204.752 23.8981 189.625 20.6354C174.319 17.3344 154.348 16 128 16ZM66.2083 20.6667C51.178 23.9297 41.7501 28.8749 35.3125 35.3125C28.8513 41.7737 23.8981 51.2482 20.6354 66.375C17.3344 81.6814 16 101.652 16 128C16 154.348 17.3344 174.319 20.6354 189.625C23.8981 204.752 28.8513 214.226 35.3125 220.688C41.7498 227.125 51.1792 232.06 66.2083 235.323C59.7384 163.917 59.7378 92.0722 66.2083 20.6667Z" fill="black"/>
</svg>
