<svg width="256" height="256" viewBox="0 0 256 256" fill="none" xmlns="http://www.w3.org/2000/svg">
<path d="M128 109.333C128.292 109.333 128.581 109.345 128.865 109.375C128.984 109.388 129.1 109.419 129.219 109.438C129.366 109.46 129.512 109.48 129.656 109.51C130.074 109.599 130.483 109.729 130.885 109.885C131.03 109.941 131.172 109.999 131.313 110.063C131.399 110.102 131.488 110.135 131.573 110.177C146.969 117.875 159.458 130.365 167.156 145.76C169.129 149.711 167.523 154.514 163.573 156.49C159.622 158.462 154.819 156.857 152.844 152.906C148.767 144.755 143.002 137.637 136 131.969V192C136 196.418 132.418 200 128 200C123.582 200 120 196.418 120 192V131.969C112.998 137.637 107.233 144.755 103.156 152.906C101.181 156.857 96.3781 158.462 92.4271 156.49C88.4766 154.514 86.871 149.711 88.8438 145.76C96.5417 130.365 109.031 117.875 124.427 110.177C124.509 110.136 124.594 110.101 124.677 110.063C124.817 109.998 124.96 109.942 125.104 109.885C125.457 109.748 125.813 109.627 126.177 109.542L126.385 109.5C126.516 109.473 126.649 109.458 126.781 109.438C126.896 109.42 127.009 109.388 127.125 109.375C127.412 109.344 127.705 109.333 128 109.333Z" fill="black"/>
<path fill-rule="evenodd" clip-rule="evenodd" d="M128 0C234.667 0 256 21.3333 256 128C256 234.667 234.667 256 128 256C21.3333 256 0 234.667 0 128C0 21.3333 21.3333 0 128 0ZM237.906 82.5104C164.793 75.6315 91.1965 75.6309 18.0833 82.5104C16.6464 95.0783 16 110.059 16 128C16 154.348 17.3344 174.319 20.6354 189.625C23.8981 204.752 28.8513 214.226 35.3125 220.688C41.7737 227.149 51.2482 232.102 66.375 235.365C81.6814 238.666 101.652 240 128 240C154.348 240 174.319 238.666 189.625 235.365C204.752 232.102 214.226 227.149 220.688 220.688C227.149 214.226 232.102 204.752 235.365 189.625C238.666 174.319 240 154.348 240 128C240 110.058 239.343 95.0785 237.906 82.5104ZM128 16C101.652 16 81.6814 17.3344 66.375 20.6354C51.2482 23.8981 41.7737 28.8513 35.3125 35.3125C28.8749 41.7501 23.9297 51.178 20.6667 66.2083C92.0722 59.7378 163.917 59.7384 235.323 66.2083C232.06 51.1792 227.125 41.7498 220.688 35.3125C214.226 28.8513 204.752 23.8981 189.625 20.6354C174.319 17.3344 154.348 16 128 16Z" fill="black"/>
</svg>
