<svg width="256" height="256" viewBox="0 0 256 256" fill="none" xmlns="http://www.w3.org/2000/svg">
<path d="M128 56C132.418 56 136 59.5817 136 64V124.021C143 118.353 148.768 111.243 152.844 103.094C154.819 99.1433 159.622 97.5377 163.573 99.5104C167.523 101.486 169.129 106.289 167.156 110.24C159.458 125.635 146.969 138.125 131.573 145.823C131.489 145.865 131.397 145.888 131.313 145.927C131.172 145.991 131.03 146.048 130.885 146.104C130.482 146.261 130.074 146.391 129.656 146.479C129.511 146.51 129.366 146.54 129.219 146.563C129.101 146.581 128.983 146.602 128.865 146.615C128.58 146.645 128.292 146.667 128 146.667L127.177 146.625L127.125 146.615C127.01 146.602 126.896 146.58 126.781 146.563C126.63 146.539 126.481 146.511 126.333 146.479C125.915 146.39 125.507 146.261 125.104 146.104C124.96 146.048 124.817 145.991 124.677 145.927C124.595 145.89 124.508 145.863 124.427 145.823C109.031 138.125 96.5417 125.636 88.8438 110.24C86.871 106.289 88.4766 101.486 92.4271 99.5104C96.3781 97.5377 101.181 99.1433 103.156 103.094C107.232 111.243 113 118.353 120 124.021V64C120 59.5817 123.582 56 128 56Z" fill="black"/>
<path fill-rule="evenodd" clip-rule="evenodd" d="M128 0C234.667 0 256 21.3333 256 128C256 234.667 234.667 256 128 256C21.3333 256 0 234.667 0 128C0 21.3333 21.3333 0 128 0ZM232.635 199.833C163.047 192.957 92.9421 192.956 23.3542 199.833C26.4317 209.246 30.446 215.821 35.3125 220.688C41.7737 227.149 51.2482 232.102 66.375 235.365C81.6814 238.666 101.652 240 128 240C154.348 240 174.319 238.666 189.625 235.365C204.752 232.102 214.226 227.149 220.688 220.688C225.553 215.822 229.558 209.245 232.635 199.833ZM128 16C101.652 16 81.6814 17.3344 66.375 20.6354C51.2482 23.8981 41.7737 28.8513 35.3125 35.3125C28.8513 41.7737 23.8981 51.2482 20.6354 66.375C17.3344 81.6814 16 101.652 16 128C16 151.341 17.0495 169.676 19.5833 184.198C19.8957 184.128 20.2152 184.074 20.5417 184.042C92.0026 176.896 163.997 176.896 235.458 184.042C235.781 184.074 236.097 184.129 236.406 184.198C238.94 169.675 240 151.341 240 128C240 101.652 238.666 81.6814 235.365 66.375C232.102 51.2482 227.149 41.7737 220.688 35.3125C214.226 28.8513 204.752 23.8981 189.625 20.6354C174.319 17.3344 154.348 16 128 16Z" fill="black"/>
</svg>
