<svg width="256" height="256" viewBox="0 0 256 256" fill="none" xmlns="http://www.w3.org/2000/svg">
<path d="M99.5104 92.4271C101.486 88.4766 106.289 86.871 110.24 88.8438C125.636 96.5417 138.125 109.031 145.823 124.427C145.863 124.508 145.89 124.595 145.927 124.677C145.991 124.817 146.048 124.96 146.104 125.104C146.261 125.507 146.39 125.915 146.479 126.333C146.593 126.872 146.667 127.427 146.667 128C146.667 128.569 146.592 129.121 146.479 129.656C146.391 130.074 146.261 130.482 146.104 130.885C146.048 131.03 145.991 131.172 145.927 131.313C145.888 131.397 145.865 131.489 145.823 131.573C138.125 146.969 125.636 159.458 110.24 167.156C106.289 169.129 101.486 167.523 99.5104 163.573C97.5377 159.622 99.1433 154.819 103.094 152.844C111.245 148.767 118.363 143.002 124.031 136H64C59.5817 136 56 132.418 56 128C56 123.582 59.5817 120 64 120H124.031C118.363 112.998 111.245 107.233 103.094 103.156C99.1433 101.181 97.5377 96.3781 99.5104 92.4271Z" fill="black"/>
<path fill-rule="evenodd" clip-rule="evenodd" d="M128 0C234.667 0 256 21.3333 256 128C256 234.667 234.667 256 128 256C21.3333 256 0 234.667 0 128C0 21.3333 21.3333 0 128 0ZM128 16C101.652 16 81.6814 17.3344 66.375 20.6354C51.2482 23.8981 41.7737 28.8513 35.3125 35.3125C28.8513 41.7737 23.8981 51.2482 20.6354 66.375C17.3344 81.6814 16 101.652 16 128C16 154.348 17.3344 174.319 20.6354 189.625C23.8981 204.752 28.8513 214.226 35.3125 220.688C41.7737 227.149 51.2482 232.102 66.375 235.365C81.6814 238.666 101.652 240 128 240C145.937 240 160.913 239.342 173.479 237.906C180.358 164.792 180.359 91.1972 173.479 18.0833C160.913 16.6472 145.936 16 128 16ZM189.781 20.6667C196.252 92.0729 196.251 163.917 189.781 235.323C204.816 232.06 214.249 227.126 220.688 220.688C227.149 214.226 232.102 204.752 235.365 189.625C238.666 174.319 240 154.348 240 128C240 101.652 238.666 81.6814 235.365 66.375C232.102 51.2482 227.149 41.7737 220.688 35.3125C214.248 28.8735 204.817 23.9297 189.781 20.6667Z" fill="black"/>
</svg>
