<svg width="256" height="256" viewBox="0 0 256 256" fill="none" xmlns="http://www.w3.org/2000/svg">
<path fill-rule="evenodd" clip-rule="evenodd" d="M124.434 3.50154C127.047 2.20119 130.21 2.42394 132.642 4.15779L151.736 17.7932C189.209 44.5602 222.811 76.3748 251.579 112.335C254.34 115.785 253.78 120.825 250.329 123.585C246.879 126.344 241.839 125.784 239.079 122.335C237.201 119.987 235.302 117.657 233.382 115.345C234.268 125.32 234.663 136.596 234.663 149.335C234.663 234.574 218.315 254.401 138.59 255.887C143.393 255.79 147.327 252.092 147.725 247.304C148.422 238.925 149.329 226.152 149.329 216.616C149.329 208.591 148.684 198.27 148.069 190.21C147.465 182.295 142.153 175.568 134.652 172.97C130.342 171.479 125.65 171.478 121.34 172.97C113.84 175.568 108.527 182.295 107.923 190.21C107.308 198.27 106.663 208.591 106.663 216.616C106.663 224.798 107.33 235.365 107.954 243.491C108.417 249.527 103.862 254.76 97.9857 254.981L96.7878 254.96C34.7844 250.151 21.3294 226.654 21.3294 149.335C21.3295 136.601 21.7246 125.328 22.6107 115.356C20.6921 117.665 18.7892 119.989 16.9128 122.335C14.1525 125.784 9.11253 126.345 5.66278 123.585C2.2152 120.825 1.65429 115.784 4.41278 112.335C33.1811 76.3745 66.7828 44.5605 104.257 17.7932L123.35 4.15779L124.434 3.50154ZM113.559 30.814C87.9188 49.1283 64.1646 69.8944 42.6003 92.7828C42.0808 94.5738 41.5753 96.4857 41.1315 98.5432C38.4416 111.016 37.3295 127.432 37.3294 149.335C37.3294 188.366 41.0354 208.715 48.9857 220.262C55.303 229.435 66.3966 235.668 91.5378 238.387C91.2211 233.657 90.943 228.495 90.7878 223.585L90.6628 216.616C90.663 207.945 91.3457 197.11 91.9649 188.991C93.0667 174.557 102.745 162.474 116.111 157.845C123.808 155.182 132.184 155.183 139.882 157.845L139.892 157.856C153.254 162.485 162.925 174.558 164.027 188.991C164.492 195.08 164.992 202.698 165.215 209.783L165.329 216.616C165.329 223.305 164.902 231.308 164.423 238.397C186.527 236.009 197.851 230.937 204.569 223.387C209.077 218.319 212.731 210.785 215.173 198.595C217.638 186.292 218.663 170.321 218.663 149.335C218.663 127.432 217.551 111.016 214.861 98.5432C214.418 96.4892 213.91 94.5816 213.392 92.7932C191.827 69.9034 168.075 49.1293 142.434 30.814L127.996 20.4911L113.559 30.814Z" fill="black"/>
</svg>
