<svg width="256" height="256" viewBox="0 0 256 256" fill="none" xmlns="http://www.w3.org/2000/svg">
<path fill-rule="evenodd" clip-rule="evenodd" d="M128 0C168.479 0 221.249 55.3014 244.333 81.9583C252.097 90.9236 256 102.432 256 114.292V170.667C256 233.593 241.202 243.458 174.635 245.01C171.995 245.072 169.274 245.128 166.469 245.167C164.254 245.197 161.987 245.221 159.667 245.24C157.415 245.258 155.113 245.271 152.76 245.281C145.067 245.313 136.826 245.333 128 245.333C119.17 245.333 110.926 245.313 103.229 245.281C100.876 245.271 98.5745 245.258 96.3229 245.24C94.0062 245.221 91.7428 245.197 89.5313 245.167C86.6853 245.127 83.926 245.063 81.25 245C14.7814 243.439 0 233.556 0 170.667V114.292C0.000246596 103.171 3.43217 92.3622 10.2604 83.6667L11.6667 81.9583C34.7511 55.3014 87.5206 0 128 0ZM128 144C106.418 144 101.21 147.729 98.2396 152.479C96.0896 155.919 94.0003 161.779 92.6042 172.135C91.2228 182.382 90.6667 195.746 90.6667 213.333C90.6667 219.036 90.7254 224.309 90.8542 229.187C101.782 229.327 114.076 229.333 128 229.333C141.92 229.333 154.21 229.327 165.135 229.187C165.267 224.306 165.333 219.033 165.333 213.333C165.333 195.746 164.777 182.382 163.396 172.135C162 161.779 159.91 155.919 157.76 152.479C154.976 148.025 150.224 144.468 131.854 144.042L128 144ZM128 16C121.357 16 113.042 18.3265 103.25 23.3125C93.5852 28.2337 83.4366 35.2561 73.3958 43.4062C53.3037 59.7153 35.0367 79.4161 23.7604 92.4375C18.7443 98.2311 16.0003 105.918 16 114.292V170.667C16 189.232 17.3775 201.077 20.1146 208.948C22.5059 215.823 25.7901 219.374 31.0833 221.99C37.443 225.132 47.4517 227.253 64.0313 228.323C67.4408 228.543 71.0397 228.699 74.8438 228.833C74.724 223.994 74.6667 218.834 74.6667 213.333C74.6667 142.222 83.5556 128 128 128C172.444 128 181.333 142.222 181.333 213.333C181.333 218.834 181.258 223.994 181.135 228.833C184.947 228.698 188.553 228.543 191.969 228.323C208.548 227.253 218.557 225.132 224.917 221.99C230.21 219.374 233.494 215.823 235.885 208.948C238.623 201.077 240 189.232 240 170.667V114.292C240 105.918 237.256 98.2311 232.24 92.4375C220.963 79.4161 202.696 59.7153 182.604 43.4062C172.563 35.2561 162.415 28.2337 152.75 23.3125C142.958 18.3265 134.643 16 128 16Z" fill="black"/>
</svg>
