<svg width="256" height="256" viewBox="0 0 256 256" fill="none" xmlns="http://www.w3.org/2000/svg">
<path fill-rule="evenodd" clip-rule="evenodd" d="M124.434 3.50154C127.047 2.20119 130.21 2.42394 132.642 4.15779L151.736 17.7932C189.209 44.5602 222.811 76.3748 251.579 112.335C254.34 115.785 253.78 120.825 250.329 123.585C246.879 126.344 241.839 125.784 239.079 122.335C237.201 119.987 235.302 117.656 233.382 115.345C234.268 125.32 234.663 136.596 234.663 149.335C234.663 233.85 218.594 254.059 140.611 255.845C139.736 255.866 138.855 255.892 137.965 255.908C134.747 255.964 131.423 256.002 127.996 256.002C124.565 256.002 121.239 255.964 118.017 255.908C117.124 255.892 116.238 255.866 115.361 255.845C37.4007 254.055 21.3294 233.84 21.3294 149.335C21.3295 136.601 21.7246 125.328 22.6107 115.356C20.6921 117.665 18.7892 119.989 16.9128 122.335C14.1525 125.784 9.11253 126.345 5.66278 123.585C2.2152 120.825 1.65429 115.784 4.41278 112.335C33.1811 76.3744 66.7828 44.5605 104.257 17.7932L123.35 4.15779L124.434 3.50154ZM134.527 167.564C130.781 166.592 126.867 166.47 123.079 167.199L121.465 167.564C111.114 170.253 103.843 178.784 102.954 188.72C102.051 198.848 101.33 209.667 101.329 218.262C101.33 224.488 101.727 231.858 102.277 239.262C107.948 239.615 114.104 239.851 120.788 239.949C123.122 239.978 125.524 240.002 127.996 240.002C130.471 240.002 132.878 239.979 135.215 239.949C141.892 239.851 148.039 239.615 153.704 239.262C154.036 234.826 154.322 230.401 154.486 226.231L154.663 218.262C154.663 209.667 153.941 198.848 153.038 188.72C152.205 179.406 145.764 171.325 136.434 168.137L134.527 167.564ZM113.559 30.814C87.9188 49.1283 64.1646 69.8943 42.6003 92.7828C42.0808 94.5738 41.5753 96.4857 41.1315 98.5432C38.4416 111.016 37.3295 127.432 37.3294 149.335C37.3294 171.238 38.4418 187.654 41.1315 200.127C43.7827 212.418 47.7372 219.783 52.6419 224.689C57.5472 229.594 64.913 233.548 77.2044 236.199C79.9774 236.797 82.9519 237.294 86.1315 237.741C85.6653 230.959 85.3296 224.192 85.3294 218.262C85.3297 208.947 86.1005 197.564 87.0169 187.293C88.5383 170.268 100.899 156.371 117.444 152.074C124.362 150.278 131.63 150.279 138.548 152.074C155.094 156.37 167.454 170.267 168.975 187.293C169.892 197.564 170.663 208.947 170.663 218.262C170.663 224.192 170.319 230.958 169.85 237.741C173.035 237.294 176.011 236.798 178.788 236.199C191.08 233.548 198.445 229.594 203.35 224.689C208.256 219.783 212.209 212.42 214.861 200.127C217.551 187.653 218.663 171.239 218.663 149.335C218.663 127.432 217.551 111.016 214.861 98.5432C214.418 96.4892 213.91 94.5816 213.392 92.7932C191.827 69.9034 168.075 49.1292 142.434 30.814L127.996 20.4911L113.559 30.814Z" fill="black"/>
</svg>
