<svg width="256" height="256" viewBox="0 0 256 256" fill="none" xmlns="http://www.w3.org/2000/svg">
<path fill-rule="evenodd" clip-rule="evenodd" d="M71.9274 138.781C109.522 139.921 117.334 150.334 117.334 191.999L117.219 199.926C116.079 237.521 105.665 245.333 64.0003 245.333L56.0732 245.218C20.9868 244.154 11.8455 235.013 10.7816 199.926L10.667 191.999C10.667 147.555 19.5559 138.666 64.0003 138.666L71.9274 138.781ZM64.0003 154.666C53.2079 154.666 45.6819 155.223 40.292 156.385C35.0819 157.509 32.9963 158.962 31.9795 159.979C30.9627 160.995 29.5095 163.081 28.3857 168.291C27.2235 173.681 26.667 181.207 26.667 191.999C26.667 202.792 27.2235 210.318 28.3857 215.708C29.5095 220.918 30.9627 223.003 31.9795 224.02C32.9963 225.037 35.0819 226.49 40.292 227.614C45.6819 228.776 53.2079 229.333 64.0003 229.333C74.7928 229.333 82.3187 228.776 87.7087 227.614C92.9188 226.49 95.0044 225.037 96.0212 224.02C97.0379 223.003 98.4912 220.918 99.6149 215.708C100.777 210.318 101.334 202.792 101.334 191.999C101.334 181.207 100.777 173.681 99.6149 168.291C98.4912 163.081 97.0379 160.995 96.0212 159.979C95.0044 158.962 92.9188 157.509 87.7087 156.385C82.3187 155.223 74.7928 154.666 64.0003 154.666Z" fill="black"/>
<path fill-rule="evenodd" clip-rule="evenodd" d="M199.927 138.781C237.522 139.921 245.334 150.334 245.334 191.999L245.219 199.926C244.079 237.521 233.665 245.333 192 245.333L184.073 245.218C148.987 244.154 139.845 235.013 138.782 199.926L138.667 191.999C138.667 147.555 147.556 138.666 192 138.666L199.927 138.781ZM192 154.666C181.208 154.666 173.682 155.223 168.292 156.385C163.082 157.509 160.996 158.962 159.979 159.979C158.963 160.995 157.509 163.081 156.386 168.291C155.224 173.681 154.667 181.207 154.667 191.999C154.667 202.792 155.224 210.318 156.386 215.708C157.509 220.918 158.963 223.003 159.979 224.02C160.996 225.037 163.082 226.49 168.292 227.614C173.682 228.776 181.208 229.333 192 229.333C202.793 229.333 210.319 228.776 215.709 227.614C220.919 226.49 223.004 225.037 224.021 224.02C225.038 223.003 226.491 220.918 227.615 215.708C228.777 210.318 229.334 202.792 229.334 191.999C229.334 181.207 228.777 173.681 227.615 168.291C226.491 163.081 225.038 160.995 224.021 159.979C223.004 158.962 220.919 157.509 215.709 156.385C210.319 155.223 202.793 154.666 192 154.666Z" fill="black"/>
<path fill-rule="evenodd" clip-rule="evenodd" d="M71.9274 10.7806C109.522 11.9205 117.334 22.3342 117.334 63.9993L117.219 71.9264C116.079 109.521 105.665 117.333 64.0003 117.333L56.0732 117.218C20.9868 116.154 11.8455 107.013 10.7816 71.9264L10.667 63.9993C10.667 19.5549 19.5559 10.666 64.0003 10.666L71.9274 10.7806ZM64.0003 26.666C53.2079 26.666 45.6819 27.2226 40.292 28.3848C35.0819 29.5085 32.9963 30.9617 31.9795 31.9785C30.9627 32.9953 29.5095 35.0809 28.3857 40.291C27.2235 45.6809 26.667 53.2069 26.667 63.9993C26.667 74.7918 27.2235 82.3177 28.3857 87.7077C29.5095 92.9178 30.9627 95.0034 31.9795 96.0202C32.9963 97.037 35.0819 98.4902 40.292 99.6139C45.6819 100.776 53.2079 101.333 64.0003 101.333C74.7928 101.333 82.3187 100.776 87.7087 99.6139C92.9188 98.4902 95.0044 97.037 96.0212 96.0202C97.0379 95.0034 98.4912 92.9178 99.6149 87.7077C100.777 82.3177 101.334 74.7918 101.334 63.9993C101.334 53.2069 100.777 45.6809 99.6149 40.291C98.4912 35.0809 97.0379 32.9953 96.0212 31.9785C95.0044 30.9617 92.9188 29.5085 87.7087 28.3848C82.3187 27.2226 74.7928 26.666 64.0003 26.666Z" fill="black"/>
<path fill-rule="evenodd" clip-rule="evenodd" d="M199.927 10.7806C237.522 11.9205 245.334 22.3342 245.334 63.9993L245.219 71.9264C244.079 109.521 233.665 117.333 192 117.333L184.073 117.218C148.987 116.154 139.845 107.013 138.782 71.9264L138.667 63.9993C138.667 19.5549 147.556 10.666 192 10.666L199.927 10.7806ZM192 26.666C181.208 26.666 173.682 27.2226 168.292 28.3848C163.082 29.5085 160.996 30.9617 159.979 31.9785C158.963 32.9953 157.509 35.0809 156.386 40.291C155.224 45.6809 154.667 53.2069 154.667 63.9993C154.667 74.7918 155.224 82.3177 156.386 87.7077C157.509 92.9178 158.963 95.0034 159.979 96.0202C160.996 97.037 163.082 98.4902 168.292 99.6139C173.682 100.776 181.208 101.333 192 101.333C202.793 101.333 210.319 100.776 215.709 99.6139C220.919 98.4902 223.004 97.037 224.021 96.0202C225.038 95.0034 226.491 92.9178 227.615 87.7077C228.777 82.3177 229.334 74.7918 229.334 63.9993C229.334 53.2069 228.777 45.6809 227.615 40.291C226.491 35.0809 225.038 32.9953 224.021 31.9785C223.004 30.9617 220.919 29.5085 215.709 28.3848C210.319 27.2226 202.793 26.666 192 26.666Z" fill="black"/>
</svg>
