<svg width="256" height="256" viewBox="0 0 256 256" fill="none" xmlns="http://www.w3.org/2000/svg">
<path fill-rule="evenodd" clip-rule="evenodd" d="M128 0C158.633 0 184.945 18.4524 196.458 44.8437C218.546 51.3642 234.666 71.7987 234.666 96C234.666 121.212 217.168 142.322 193.656 147.885C193.633 147.926 193.617 147.97 193.593 148.01L134.927 249.344C133.496 251.814 130.854 253.333 128 253.333C125.145 253.333 122.503 251.814 121.073 249.344L62.4059 148.01C62.3817 147.969 62.3564 147.927 62.333 147.885C38.826 142.319 21.333 121.209 21.333 96C21.333 71.8022 37.4476 51.3673 59.5309 44.8437C71.0432 18.4503 97.3652 0 128 0ZM166.385 147.198C155.69 155.23 142.405 160 128 160C113.592 160 100.3 155.233 89.6038 147.198C86.9513 147.971 84.2107 148.517 81.4059 148.875L128 229.354L174.583 148.875C171.778 148.517 169.038 147.971 166.385 147.198ZM128 16C103.956 16 83.2584 30.4679 74.1976 51.2396C72.3076 55.5725 68.5957 58.8483 64.0622 60.1875C48.5941 64.7575 37.333 79.0851 37.333 96C37.333 116.619 54.0477 133.333 74.6663 133.333C78.2913 133.333 81.7934 132.803 85.1247 131.833C89.9618 130.424 95.1901 131.38 99.2184 134.406C107.244 140.433 117.183 144 128 144C138.811 144 148.752 140.436 156.781 134.406L158.343 133.365C162.107 131.176 166.633 130.6 170.864 131.833C174.192 132.803 177.698 133.333 181.333 133.333C201.952 133.333 218.666 116.619 218.666 96C218.666 79.0836 207.4 64.7553 191.927 60.1875C187.393 58.8486 183.682 55.5726 181.791 51.2396C172.728 30.4666 152.038 16 128 16Z" fill="black"/>
</svg>
