<svg width="256" height="256" viewBox="0 0 256 256" fill="none" xmlns="http://www.w3.org/2000/svg">
<path d="M197.333 173.334C201.752 173.334 205.333 176.916 205.333 181.334C205.333 185.752 201.752 189.334 197.333 189.334H53.3333C48.9151 189.334 45.3333 185.752 45.3333 181.334C45.3333 176.916 48.9151 173.334 53.3333 173.334H197.333Z" fill="black"/>
<path d="M62.6667 117.334C72.6667 117.334 74.6667 118.667 74.6667 125.334C74.6667 132.001 72.6667 133.334 62.6667 133.334C52.6667 133.334 50.6667 132.001 50.6667 125.334C50.6667 118.667 52.6667 117.334 62.6667 117.334Z" fill="black"/>
<path d="M112 117.334C118.667 117.334 120 118.667 120 125.334C120 132.001 118.667 133.334 112 133.334C105.333 133.334 104 132.001 104 125.334C104 118.667 105.333 117.334 112 117.334Z" fill="black"/>
<path d="M154.667 117.334C161.333 117.334 162.667 118.667 162.667 125.334C162.667 132.001 161.333 133.334 154.667 133.334C148 133.334 146.667 132.001 146.667 125.334C146.667 118.667 148 117.334 154.667 117.334Z" fill="black"/>
<path d="M197.333 117.334C204 117.334 205.333 118.667 205.333 125.334C205.333 132.001 204 133.334 197.333 133.334C190.667 133.334 189.333 132.001 189.333 125.334C189.333 118.667 190.667 117.334 197.333 117.334Z" fill="black"/>
<path d="M58.6667 74.6673C65.3333 74.6673 66.6667 76.0007 66.6667 82.6673C66.6667 89.334 65.3333 90.6673 58.6667 90.6673C52 90.6673 50.6667 89.334 50.6667 82.6673C50.6667 76.0007 52 74.6673 58.6667 74.6673Z" fill="black"/>
<path d="M101.333 74.6673C108 74.6673 109.333 76.0007 109.333 82.6673C109.333 89.334 108 90.6673 101.333 90.6673C94.6667 90.6673 93.3333 89.334 93.3333 82.6673C93.3333 76.0007 94.6667 74.6673 101.333 74.6673Z" fill="black"/>
<path d="M144 74.6673C150.667 74.6673 152 76.0007 152 82.6673C152 89.334 150.667 90.6673 144 90.6673C137.333 90.6673 136 89.334 136 82.6673C136 76.0007 137.333 74.6673 144 74.6673Z" fill="black"/>
<path d="M190.667 74.6673C200.667 74.6673 202.667 76.0007 202.667 82.6673C202.667 89.334 200.667 90.6673 190.667 90.6673C180.667 90.6673 178.667 89.334 178.667 82.6673C178.667 76.0007 180.667 74.6673 190.667 74.6673Z" fill="black"/>
<path fill-rule="evenodd" clip-rule="evenodd" d="M128 21.334C234.667 21.334 256 39.1118 256 128.001L255.938 136.126C254.586 217.983 231.334 234.667 128 234.667L118.25 234.615C23.1891 233.525 1.37083 215.343 0.0625 136.126L0 128.001C0 39.1118 21.3333 21.334 128 21.334ZM128 37.334C101.594 37.334 81.4034 38.4524 65.8333 41.2507C50.2958 44.0433 40.6352 48.296 34.2396 53.6257C21.8893 63.9191 16 83.1233 16 128.001C16 172.878 21.8893 192.082 34.2396 202.376C40.6352 207.705 50.2958 211.958 65.8333 214.751C81.4034 217.549 101.594 218.667 128 218.667C154.406 218.667 174.597 217.549 190.167 214.751C205.704 211.958 215.365 207.705 221.76 202.376C234.111 192.082 240 172.878 240 128.001C240 83.1233 234.111 63.9191 221.76 53.6257C215.365 48.296 205.704 44.0433 190.167 41.2507C174.597 38.4524 154.406 37.334 128 37.334Z" fill="black"/>
</svg>
