<svg width="256" height="256" viewBox="0 0 256 256" fill="none" xmlns="http://www.w3.org/2000/svg">
<path d="M234.667 240C239.085 240 242.667 243.582 242.667 248C242.667 252.418 239.085 256 234.667 256H21.3333C16.9151 256 13.3333 252.418 13.3333 248C13.3333 243.582 16.9151 240 21.3333 240H234.667Z" fill="black"/>
<path fill-rule="evenodd" clip-rule="evenodd" d="M128 0C234.667 0 256 17.7778 256 106.667C256 195.556 234.667 213.333 128 213.333C21.3333 213.333 0 195.556 0 106.667C0 17.7778 21.3333 0 128 0ZM128 16C101.594 16 81.4034 17.1184 65.8333 19.9167C50.2958 22.7094 40.6352 26.962 34.2396 32.2917C21.8893 42.5852 16 61.7893 16 106.667C16 151.544 21.8893 170.748 34.2396 181.042C40.6352 186.371 50.2958 190.624 65.8333 193.417C81.4034 196.215 101.594 197.333 128 197.333C154.406 197.333 174.597 196.215 190.167 193.417C205.704 190.624 215.365 186.371 221.76 181.042C234.111 170.748 240 151.544 240 106.667C240 61.7893 234.111 42.5852 221.76 32.2917C215.365 26.962 205.704 22.7094 190.167 19.9167C174.597 17.1184 154.406 16 128 16Z" fill="black"/>
</svg>
