<svg width="256" height="257" viewBox="0 0 256 257" fill="none" xmlns="http://www.w3.org/2000/svg">
<path d="M128.002 226.999C132.42 226.999 136.002 230.581 136.002 234.999V245.666C136.002 250.084 132.42 253.665 128.002 253.666C123.584 253.666 120.002 250.084 120.002 245.666V234.999C120.002 230.58 123.584 226.999 128.002 226.999Z" fill="currentColor"/>
<path d="M46.9189 198.098C50.0431 194.975 55.1084 194.974 58.2324 198.098C61.3565 201.222 61.3564 206.288 58.2324 209.413L50.6895 216.955C47.5653 220.079 42.5002 220.079 39.376 216.955C36.2519 213.83 36.2518 208.765 39.376 205.641L46.9189 198.098Z" fill="currentColor"/>
<path d="M197.771 198.098C200.895 194.974 205.96 194.975 209.084 198.098L216.627 205.641C219.751 208.765 219.751 213.83 216.627 216.955C213.503 220.079 208.438 220.079 205.313 216.955L197.771 209.413C194.647 206.288 194.646 201.222 197.771 198.098Z" fill="currentColor"/>
<path fill-rule="evenodd" clip-rule="evenodd" d="M129.049 53.6715C173.266 54.1336 202.668 83.8827 202.668 128.333L202.663 129.297C202.201 170.09 172.452 202.998 128.002 202.999L126.954 202.994C83.0849 202.535 53.7994 173.249 53.3408 129.379L53.335 128.333C53.335 83.5326 83.202 53.6656 128.002 53.6656L129.049 53.6715ZM128.002 69.6656C109.238 69.6656 94.8438 75.8501 85.1816 85.5123C75.5195 95.1745 69.335 109.569 69.335 128.333C69.3351 147.096 75.5196 161.49 85.1816 171.152C94.8438 180.814 109.238 186.999 128.002 186.999C163.464 186.998 186.668 161.243 186.668 128.333C186.668 109.569 180.483 95.1745 170.821 85.5123C161.159 75.8503 146.766 69.6657 128.002 69.6656Z" fill="currentColor"/>
<path d="M21.335 120.332C25.753 120.332 29.3347 123.914 29.335 128.332C29.335 132.75 25.7532 136.332 21.335 136.332H10.668C6.24984 136.331 2.66797 132.75 2.66797 128.332C2.66819 123.914 6.24997 120.332 10.668 120.332H21.335Z" fill="currentColor"/>
<path d="M245.335 120.332C249.753 120.332 253.335 123.914 253.335 128.332C253.335 132.75 249.753 136.332 245.335 136.332H234.668C230.25 136.331 226.668 132.75 226.668 128.332C226.668 123.914 230.25 120.332 234.668 120.332H245.335Z" fill="currentColor"/>
<path d="M39.375 39.7076C42.4991 36.5839 47.5643 36.584 50.6885 39.7076L58.2314 47.2506C61.3555 50.3747 61.3553 55.4399 58.2314 58.5641C55.1073 61.6882 50.0422 61.6882 46.918 58.5641L39.375 51.0221C36.251 47.8979 36.2509 42.8317 39.375 39.7076Z" fill="currentColor"/>
<path d="M205.314 39.7076C208.439 36.584 213.504 36.5839 216.628 39.7076C219.752 42.8317 219.752 47.8979 216.628 51.0221L209.085 58.5641C205.961 61.6882 200.896 61.6882 197.771 58.5641C194.648 55.4399 194.647 50.3747 197.771 47.2506L205.314 39.7076Z" fill="currentColor"/>
<path d="M128.002 2.99863C132.42 2.99889 136.002 6.58055 136.002 10.9986V21.6656C136.002 26.0836 132.42 29.6654 128.002 29.6656C123.584 29.6656 120.002 26.0837 120.002 21.6656V10.9986C120.002 6.58039 123.584 2.99863 128.002 2.99863Z" fill="currentColor"/>
</svg>
