<svg width="256" height="256" viewBox="0 0 256 256" fill="none" xmlns="http://www.w3.org/2000/svg">
<path d="M128 13.3279C132.416 13.3279 135.997 16.9119 136 21.3279C136 25.7462 132.418 29.3279 128 29.3279C105.937 29.3279 88.8404 30.4446 75.5205 33.3175C62.2923 36.1707 53.3309 40.6437 46.9893 46.9842C40.6482 53.3252 36.1762 62.288 33.3226 75.5154C30.4498 88.8344 29.3332 105.933 29.333 127.995C29.333 150.056 30.4503 167.154 33.3226 180.474C36.1758 193.702 40.6488 202.663 46.9893 209.005C53.3309 215.347 62.2911 219.818 75.5205 222.672C88.8405 225.545 105.936 226.661 128 226.661C150.063 226.661 167.159 225.545 180.479 222.672C193.708 219.818 202.668 215.347 209.01 209.005C215.351 202.663 219.824 193.702 222.677 180.474C225.549 167.154 226.666 150.056 226.666 127.995C226.669 123.579 230.25 119.995 234.666 119.995C239.083 119.995 242.664 123.579 242.666 127.995C242.666 150.373 241.56 168.836 238.323 183.849C235.065 198.95 229.535 211.104 220.323 220.317C211.109 229.531 198.956 235.06 183.854 238.317C168.841 241.556 150.38 242.661 128 242.661C105.619 242.661 87.1588 241.556 72.1455 238.317C57.0429 235.06 44.8903 229.531 35.6768 220.317C26.4645 211.104 20.9341 198.95 17.6768 183.849C14.4393 168.836 13.333 150.373 13.333 127.995C13.3332 105.616 14.4388 87.1526 17.6768 72.1404C20.9345 57.0395 26.464 44.8845 35.6768 35.6717C44.8902 26.4594 57.0438 20.929 72.1455 17.6717C87.1586 14.4336 105.62 13.3279 128 13.3279Z" fill="black"/>
<path d="M179.76 13.4842C197.235 9.98928 215.203 9.76932 232.739 12.8279L236.239 13.4842L237.385 13.8071C237.449 13.8301 237.51 13.8658 237.573 13.8904C237.661 13.9249 237.746 13.9673 237.833 14.005C238.198 14.1626 238.551 14.339 238.885 14.5467C238.975 14.6026 239.068 14.6535 239.156 14.7133C239.209 14.7496 239.26 14.7904 239.312 14.8279C239.664 15.0798 240.006 15.3558 240.323 15.6717C240.418 15.767 240.504 15.8749 240.593 15.9737C240.656 16.043 240.721 16.1106 240.781 16.1821C240.936 16.3658 241.072 16.5612 241.208 16.755C241.515 17.1934 241.774 17.6636 241.989 18.1612C242.033 18.2628 242.085 18.3603 242.125 18.4633C242.285 18.879 242.42 19.3084 242.51 19.755C246.238 38.3926 246.237 57.5965 242.51 76.2342C241.642 80.5643 237.425 83.3712 233.093 82.505C228.764 81.6361 225.956 77.419 226.823 73.0883C229.11 61.6494 229.778 49.9744 228.906 38.3904L122.989 144.317C122.795 144.512 122.593 144.699 122.385 144.87C120.918 146.067 119.125 146.661 117.333 146.661C116.82 146.661 116.307 146.614 115.802 146.515C114.542 146.271 113.328 145.724 112.281 144.87C112.073 144.699 111.871 144.512 111.677 144.317C111.482 144.122 111.295 143.923 111.125 143.713C108.735 140.782 108.735 136.551 111.125 133.62C111.296 133.409 111.481 133.201 111.677 133.005L217.593 27.0779C206.012 26.2071 194.342 26.8848 182.906 29.1717C178.575 30.0379 174.357 27.2311 173.489 22.9008C172.626 18.5715 175.432 14.3524 179.76 13.4842Z" fill="black"/>
</svg>
