<svg width="256" height="256" viewBox="0 0 256 256" fill="none" xmlns="http://www.w3.org/2000/svg">
<path fill-rule="evenodd" clip-rule="evenodd" d="M128 138.667C154.666 138.667 160 144 160 170.667C160 195.668 155.312 201.921 132.75 202.604L128 202.667C102.998 202.667 96.7451 197.979 96.0622 175.417L95.9997 170.667C95.9997 145.665 100.688 139.412 123.25 138.729L128 138.667ZM128 154.667C121.652 154.667 117.682 155.001 115.125 155.552C114.261 155.738 113.715 155.927 113.396 156.052C113.27 156.37 113.074 156.916 112.885 157.792C112.334 160.349 112 164.319 112 170.667C112 177.014 112.334 180.985 112.885 183.542C113.072 184.409 113.27 184.952 113.396 185.271C113.714 185.396 114.257 185.594 115.125 185.781C117.682 186.332 121.652 186.667 128 186.667C134.347 186.667 138.318 186.332 140.875 185.781C141.75 185.592 142.297 185.396 142.614 185.271C142.739 184.951 142.928 184.406 143.114 183.542C143.665 180.985 144 177.014 144 170.667C144 164.319 143.665 160.349 143.114 157.792C142.926 156.919 142.74 156.37 142.614 156.052C142.296 155.927 141.747 155.74 140.875 155.552C138.318 155.001 134.347 154.667 128 154.667Z" fill="black"/>
<path fill-rule="evenodd" clip-rule="evenodd" d="M128 0C170.666 0 213.333 16 213.333 96C213.333 97.448 213.311 98.8749 213.302 100.281C229.965 112.563 234.666 134.091 234.666 170.667C234.666 241.778 216.889 256 128 256C39.1108 256 21.333 241.778 21.333 170.667C21.333 126.501 28.1948 104.291 54.6872 93.7917C50.1297 95.5946 46.1467 97.7305 42.6872 100.281C42.6776 98.8749 42.6663 97.448 42.6663 96C42.6663 16 85.333 0 128 0ZM128 101.333C106.025 101.333 89.3427 102.23 76.5518 104.438C63.7726 106.643 56.1773 109.949 51.333 113.823C42.313 121.039 37.333 134.788 37.333 170.667C37.333 206.546 42.313 220.294 51.333 227.51C56.1773 231.384 63.7726 234.691 76.5518 236.896C89.3427 239.103 106.025 240 128 240C149.974 240 166.657 239.103 179.448 236.896C192.227 234.691 199.822 231.384 204.666 227.51C213.686 220.294 218.666 206.546 218.666 170.667C218.666 134.788 213.686 121.039 204.666 113.823C199.822 109.949 192.227 106.643 179.448 104.438C166.657 102.23 149.974 101.333 128 101.333ZM128 16C108.219 16 91.5773 19.7928 79.8643 30.0417C68.9294 39.6114 59.348 57.4688 58.7184 92.3229C58.3551 92.4427 58.0023 92.585 57.6455 92.7083C73.675 87.1624 96.3162 85.3333 128 85.3333C161.015 85.3333 184.216 87.3065 200.343 93.4167C199.345 93.039 198.323 92.6697 197.271 92.3229C196.641 57.4689 187.07 39.6114 176.135 30.0417C164.422 19.7928 147.781 16 128 16Z" fill="black"/>
</svg>
