<svg width="256" height="256" viewBox="0 0 256 256" fill="none" xmlns="http://www.w3.org/2000/svg">
<path d="M117.333 66.6667C121.752 66.6667 125.333 70.2484 125.333 74.6667V109.333H160C164.418 109.333 168 112.915 168 117.333C168 121.752 164.418 125.333 160 125.333H125.333V160C125.333 164.418 121.752 168 117.333 168C112.915 168 109.333 164.418 109.333 160V125.333H74.6667C70.2484 125.333 66.6667 121.752 66.6667 117.333C66.6667 112.915 70.2484 109.333 74.6667 109.333H109.333V74.6667C109.333 70.2484 112.915 66.6667 117.333 66.6667Z" fill="black"/>
<path fill-rule="evenodd" clip-rule="evenodd" d="M117.333 0C182.135 0 234.667 52.5319 234.667 117.333C234.667 146.87 223.723 173.832 205.708 194.458L250.99 239.729C254.111 242.852 254.109 247.918 250.99 251.042C247.866 254.165 242.801 254.164 239.677 251.042L194.396 205.771C173.778 223.751 146.838 234.667 117.333 234.667C52.5319 234.667 0 182.135 0 117.333C0 52.5319 52.5319 0 117.333 0ZM117.333 16C61.3685 16 16 61.3685 16 117.333C16 173.298 61.3685 218.667 117.333 218.667C173.298 218.667 218.667 173.298 218.667 117.333C218.667 61.3685 173.298 16 117.333 16Z" fill="black"/>
</svg>
