<svg width="256" height="256" viewBox="0 0 256 256" fill="none" xmlns="http://www.w3.org/2000/svg">
<path fill-rule="evenodd" clip-rule="evenodd" d="M117.333 0C182.135 0 234.667 52.5319 234.667 117.333C234.667 146.854 223.737 173.805 205.74 194.427L250.99 239.667C254.109 242.789 254.106 247.855 250.99 250.979C247.866 254.103 242.802 254.101 239.677 250.979L194.427 205.74C173.805 223.737 146.854 234.667 117.333 234.667C52.5319 234.667 0 182.135 0 117.333C0 52.5319 52.5319 0 117.333 0ZM117.333 16C61.3685 16 16 61.3685 16 117.333C16 173.298 61.3685 218.667 117.333 218.667C173.298 218.667 218.667 173.298 218.667 117.333C218.667 61.3685 173.298 16 117.333 16Z" fill="black"/>
</svg>
