<svg width="256" height="256" viewBox="0 0 256 256" fill="none" xmlns="http://www.w3.org/2000/svg">
<path fill-rule="evenodd" clip-rule="evenodd" d="M128 10.666C234.667 10.666 256 30.2216 256 127.999C256 225.777 234.667 245.333 128 245.333C21.3333 245.333 0 225.777 0 127.999C3.69913e-07 30.2216 21.3333 10.666 128 10.666ZM156.135 135.301C147.135 139.014 137.669 141.332 128 141.333C118.328 141.333 108.858 139.015 99.8542 135.301C81.8995 151.61 63.9932 169.527 50.4271 183.531C43.4656 190.717 37.6642 196.857 33.6042 201.197C31.9606 202.954 30.596 204.414 29.5625 205.531C31.1702 207.793 32.9024 209.79 34.8125 211.541C41.2247 217.418 50.773 222.02 66.1042 225.051C81.5413 228.103 101.621 229.333 128 229.333C154.379 229.333 174.459 228.103 189.896 225.051C205.227 222.02 214.775 217.418 221.188 211.541C223.096 209.791 224.82 207.791 226.427 205.531C225.394 204.415 224.037 202.952 222.396 201.197C218.336 196.857 212.534 190.717 205.573 183.531C192.005 169.525 174.092 151.611 156.135 135.301ZM21.7604 67.5202C17.8613 81.0893 16 100.255 16 127.999C16 156.757 18.0224 176.292 22.2188 189.937C26.3143 185.561 32.0713 179.483 38.9375 172.395C51.5044 159.423 67.8546 143.026 84.625 127.551C71.4797 119.62 59.3669 109.211 49.1354 98.9993C38.8212 88.7046 30.2353 78.4367 24.2396 70.7598C23.3534 69.6251 22.5337 68.5367 21.7604 67.5202ZM231.76 70.7598C225.764 78.4368 217.181 88.7041 206.865 98.9993C196.632 109.211 184.51 119.609 171.365 127.541C188.139 143.019 204.493 159.42 217.063 172.395C223.926 179.48 229.676 185.562 233.771 189.937C237.968 176.292 240 156.759 240 127.999C240 100.254 238.129 81.0895 234.229 67.5202C233.457 68.5352 232.645 69.627 231.76 70.7598ZM128 26.666C101.621 26.666 81.5413 27.8952 66.1042 30.9473C50.773 33.9784 41.2247 38.5807 34.8125 44.4577C32.8065 46.2965 30.9956 48.4055 29.3229 50.8118C29.5918 51.1912 29.8958 51.6245 30.2396 52.1035C31.7545 54.2138 33.9909 57.2526 36.8438 60.9056C42.5627 68.2283 50.715 77.9619 60.4375 87.666C70.1858 97.3958 81.3462 106.928 93.0833 113.979C104.865 121.056 116.721 125.333 128 125.333C139.277 125.331 151.125 121.054 162.906 113.979C174.644 106.928 185.813 97.3959 195.563 87.666C205.285 77.9629 213.426 68.2277 219.146 60.9056C222.001 57.2507 224.245 54.2146 225.76 52.1035C226.103 51.6266 226.399 51.19 226.667 50.8118C224.995 48.4076 223.192 46.2953 221.188 44.4577C214.775 38.5807 205.227 33.9784 189.896 30.9473C174.459 27.8952 154.379 26.666 128 26.666Z" fill="black"/>
</svg>
