<svg width="256" height="256" viewBox="0 0 256 256" fill="none" xmlns="http://www.w3.org/2000/svg">
<path fill-rule="evenodd" clip-rule="evenodd" d="M41.6169 15.9988C84.2841 -5.33465 169.619 -5.33642 212.284 15.9988C243.579 31.6493 267.391 93.2067 245.263 124.905L245.325 133.343L245.263 142.686C244.077 232.685 224.545 254.161 140.044 255.874C139.839 255.878 139.635 255.88 139.429 255.884C135.741 255.955 131.93 256.009 127.992 256.009L119.054 255.947C31.9187 254.693 11.9213 233.779 10.721 142.686L10.6585 133.343C10.6585 131.406 10.6753 129.491 10.6898 127.613C10.7872 127.731 10.893 127.841 10.9918 127.957C-14.5286 97.9725 8.29701 34.8408 39.6273 17.0613L41.6169 15.9988ZM128.002 175.999C121.156 175.999 117.533 176.926 115.429 178.009C113.786 178.856 111.885 180.389 109.888 184.686C107.697 189.401 105.706 196.841 104.242 208.603C103.197 216.997 102.482 227.108 102.023 239.29C109.851 239.74 118.475 239.999 127.992 239.999C137.503 239.999 146.124 239.74 153.95 239.29C153.491 227.108 152.796 216.997 151.752 208.603C150.289 196.838 148.296 189.391 146.106 184.676C144.11 180.379 142.205 178.854 140.565 178.009C138.727 177.062 135.727 176.234 130.419 176.04L128.002 175.999ZM164.106 129.124C154.514 138.326 141.404 143.998 126.95 143.999L124.252 143.936C110.866 143.28 98.7776 137.752 89.7835 129.124C80.2464 138.324 67.1831 143.999 52.7731 143.999C41.638 143.998 32.5363 142.041 25.2106 138.634C25.6994 138.862 26.1849 139.108 26.6898 139.322C26.8746 161.645 28.1266 178.921 30.9085 192.405C33.9051 206.924 38.4426 215.905 44.221 221.947C49.9421 227.926 58.3337 232.548 71.9293 235.613C76.2095 236.578 80.9077 237.338 86.0648 237.968C88.5393 174.181 98.3912 159.999 128.002 159.999C157.61 160 167.436 174.184 169.909 237.968C175.07 237.338 179.771 236.579 184.054 235.613C197.649 232.548 206.042 227.926 211.763 221.947C217.541 215.905 222.079 206.924 225.075 192.405C227.897 178.728 229.127 161.151 229.284 138.363C221.859 141.943 212.552 143.999 201.117 143.999L198.429 143.936C185.087 143.279 173.047 137.749 164.106 129.124ZM126.95 15.9988C96.1715 15.9998 66.9786 21.2086 48.7731 30.3113C41.9006 33.7478 34.1227 41.5627 27.6481 52.9259C21.2911 64.0834 17.0854 77.1378 16.1793 89.1967C15.2644 101.384 17.7874 110.879 22.6898 117.02C27.2 122.666 35.7376 127.998 52.7731 127.999C62.9098 127.999 72.0303 124.028 78.6793 117.613L79.8773 116.561C86.0729 111.665 95.052 112.005 100.867 117.582C107.575 124.016 116.753 127.998 126.95 127.999C137.147 127.998 146.326 124.017 153.034 117.582L154.231 116.54C160.44 111.659 169.41 112.021 175.211 117.613C181.859 124.027 190.981 127.998 201.117 127.999C218.152 127.998 226.689 122.666 231.2 117.02C236.104 110.879 238.635 101.385 237.721 89.1967C236.816 77.1365 232.609 64.0741 226.252 52.9155C219.779 41.5547 211.998 33.7477 205.127 30.3113C186.924 21.2083 157.73 15.998 126.95 15.9988Z" fill="black"/>
</svg>
