<svg width="256" height="256" viewBox="0 0 256 256" fill="none" xmlns="http://www.w3.org/2000/svg">
<path fill-rule="evenodd" clip-rule="evenodd" d="M170.667 42.6667C194.231 42.6667 213.333 61.7692 213.333 85.3333C213.333 108.897 194.231 128 170.667 128C147.103 128 128 108.897 128 85.3333C128 61.7692 147.103 42.6667 170.667 42.6667ZM170.667 58.6667C155.939 58.6667 144 70.6057 144 85.3333C144 100.061 155.939 112 170.667 112C185.394 112 197.333 100.061 197.333 85.3333C197.333 70.6057 185.394 58.6667 170.667 58.6667Z" fill="black"/>
<path fill-rule="evenodd" clip-rule="evenodd" d="M128 0C234.667 0 256 21.3333 256 128C256 205.278 244.794 237.735 198.063 249.771C197.089 250.022 196.098 250.256 195.094 250.49C194.192 250.699 193.282 250.919 192.354 251.115C190.594 251.486 188.791 251.843 186.938 252.167C185.827 252.36 184.696 252.521 183.552 252.698C182.751 252.822 181.943 252.957 181.125 253.073C179.787 253.263 178.426 253.435 177.042 253.604C176.183 253.709 175.315 253.809 174.438 253.906C173.208 254.042 171.963 254.181 170.698 254.302C169.452 254.422 168.187 254.519 166.906 254.625C165.178 254.767 163.418 254.903 161.625 255.021C159.965 255.13 158.279 255.244 156.563 255.333C155.175 255.405 153.769 255.461 152.344 255.521C151.407 255.56 150.463 255.602 149.51 255.635C147.841 255.695 146.147 255.748 144.427 255.792C143.163 255.824 141.885 255.851 140.594 255.875C139.244 255.9 137.88 255.921 136.5 255.938C133.745 255.97 130.93 255.989 128.052 255.99C128.035 255.99 128.017 256 128 256L127.99 255.99C125.21 255.99 122.488 255.968 119.823 255.938C117.858 255.915 115.924 255.883 114.021 255.844C113.09 255.824 112.166 255.805 111.25 255.781C109.491 255.736 107.758 255.677 106.052 255.615C104.997 255.576 103.952 255.535 102.917 255.49C101.459 255.426 100.022 255.358 98.6042 255.281C97.2351 255.207 95.885 255.118 94.5521 255.031C93.3753 254.954 92.2115 254.889 91.0625 254.802C89.0117 254.646 87.0053 254.472 85.0417 254.281C84.377 254.217 83.7173 254.152 83.0625 254.083C81.1023 253.878 79.1856 253.66 77.3125 253.417C76.3345 253.29 75.3713 253.138 74.4167 253C73.2254 252.828 72.0512 252.658 70.8958 252.469C69.928 252.311 68.9742 252.139 68.0313 251.969C66.8557 251.756 65.6998 251.534 64.5625 251.302C63.6724 251.12 62.7941 250.934 61.9271 250.74C60.8099 250.489 59.7148 250.219 58.6354 249.948C57.7355 249.722 56.8428 249.512 55.9688 249.271C55.902 249.252 55.8374 249.227 55.7708 249.208C52.7193 248.36 49.8276 247.417 47.0833 246.375C46.8122 246.272 46.539 246.178 46.2708 246.073C44.9579 245.559 43.6815 245.02 42.4375 244.458C42.3397 244.414 42.2432 244.367 42.1458 244.323C39.5217 243.125 37.0557 241.812 34.7292 240.385C34.6148 240.315 34.4991 240.248 34.3854 240.177C33.2526 239.473 32.1477 238.752 31.0833 237.99C31.015 237.941 30.9534 237.883 30.8854 237.833C27.5549 235.427 24.5585 232.734 21.8646 229.719C21.8024 229.649 21.739 229.58 21.6771 229.51C19.9501 227.558 18.3473 225.476 16.8646 223.25C16.7729 223.112 16.6845 222.972 16.5938 222.833C12.0683 215.919 8.6757 207.668 6.16667 197.854C5.97583 197.107 5.80556 196.348 5.625 195.583C4.23276 189.688 3.12424 183.256 2.29167 176.229C2.2307 175.715 2.16239 175.198 2.10417 174.677L2.11458 174.656C0.621621 161.291 0 145.84 0 128C0 21.3333 21.3333 0 128 0ZM86.6458 155.656C67.7835 152.013 48.0474 158.262 19.1458 181.365C20.0798 187.357 21.2418 192.621 22.6042 197.271C23.152 199.137 23.73 200.897 24.3438 202.563C25.852 206.658 27.5674 210.197 29.5 213.281C29.5616 213.38 29.6255 213.476 29.6875 213.573C31.0499 215.712 32.5199 217.624 34.0938 219.354C34.3421 219.626 34.5802 219.904 34.8333 220.167C35.2666 220.617 35.7179 221.044 36.1667 221.469C37.3427 222.577 38.608 223.641 39.9896 224.656C40.4728 225.012 40.9599 225.362 41.4583 225.698C47.3634 229.671 55.139 232.864 65.7396 235.208C66.3083 235.334 66.885 235.453 67.4688 235.573C71.4161 236.389 75.6665 237.072 80.25 237.646C83.2303 238.017 86.3655 238.345 89.6667 238.625C100.667 239.559 113.341 239.989 127.99 239.99C155.512 239.99 175.71 238.464 190.729 235.083C185.663 229.662 180.19 223.993 174.271 218.073C134.823 178.625 108.914 159.961 86.6458 155.656ZM128 16C101.652 16 81.6814 17.3344 66.375 20.6354C51.2482 23.8981 41.7737 28.8513 35.3125 35.3125C28.8513 41.7737 23.8981 51.2482 20.6354 66.375C17.3344 81.6814 16 101.652 16 128C16 141.114 16.3339 152.647 17.0729 162.813C75.4465 119.727 113.178 134.355 185.583 206.76C193.595 214.773 200.87 222.389 207.458 229.635C212.973 227.084 217.261 224.114 220.688 220.688C227.149 214.226 232.102 204.752 235.365 189.625C238.666 174.319 240 154.348 240 128C240 101.652 238.666 81.6814 235.365 66.375C232.102 51.2482 227.149 41.7737 220.688 35.3125C214.226 28.8513 204.752 23.8981 189.625 20.6354C174.319 17.3344 154.348 16 128 16Z" fill="black"/>
</svg>
