<svg width="256" height="256" viewBox="0 0 256 256" fill="none" xmlns="http://www.w3.org/2000/svg">
<path fill-rule="evenodd" clip-rule="evenodd" d="M128 85.3333C148.412 85.3333 156.297 91.5859 158.885 118.438C185.747 121.025 192 128.918 192 149.333C192 169.748 185.746 177.631 158.885 180.219C156.298 207.079 148.415 213.333 128 213.333C107.585 213.333 99.6918 207.08 97.1042 180.219C70.2525 177.63 64 169.745 64 149.333C64 128.921 70.2517 121.026 97.1042 118.438C99.6928 91.585 107.588 85.3333 128 85.3333ZM128 101.333C118.687 101.333 117.353 102.959 117.26 103.052C116.584 103.742 114.28 107.019 113.031 119.969C112.296 127.592 106.258 133.63 98.6354 134.365C85.6861 135.613 82.4084 137.917 81.7188 138.594C81.6253 138.686 80 140.02 80 149.333C80 158.616 81.6084 159.966 81.7083 160.063C82.3891 160.733 85.6584 163.04 98.6354 164.292C106.259 165.027 112.297 171.064 113.031 178.688C114.279 191.641 116.583 194.923 117.26 195.615C117.352 195.708 118.686 197.333 128 197.333C137.294 197.333 138.635 195.721 138.729 195.625C139.401 194.943 141.707 191.671 142.958 178.688L143.156 177.271C144.453 170.325 150.208 164.98 157.354 164.292C170.338 163.041 173.61 160.734 174.292 160.063C174.388 159.969 176 158.627 176 149.333C176 140.019 174.374 138.685 174.281 138.594C173.59 137.916 170.308 135.613 157.354 134.365C149.731 133.63 143.693 127.592 142.958 119.969C141.707 106.992 139.4 103.722 138.729 103.042C138.632 102.942 137.283 101.333 128 101.333Z" fill="black"/>
<path fill-rule="evenodd" clip-rule="evenodd" d="M133.688 0.0520833C174.6 0.856763 192.238 10.9689 198.99 48.0313C197.308 47.6585 195.579 47.3138 193.802 46.9896C244.124 56.2922 256 83.0184 256 149.333L255.938 157.458C254.586 239.316 231.334 256 128 256L118.25 255.948C23.1891 254.858 1.37083 236.676 0.0625 157.458L0 149.333C0 82.9813 11.8878 56.2571 62.2813 46.9688C60.4684 47.2981 58.7035 47.6511 56.9896 48.0313C64.0456 9.29277 83.0163 0.000268971 128 0L133.688 0.0520833ZM128 58.6667C101.594 58.6667 81.4034 59.7851 65.8333 62.5833C50.2958 65.376 40.6352 69.6287 34.2396 74.9583C21.8893 85.2518 16 104.456 16 149.333C16 194.211 21.8893 213.415 34.2396 223.708C40.6352 229.038 50.2958 233.291 65.8333 236.083C81.4034 238.882 101.594 240 128 240C154.406 240 174.597 238.882 190.167 236.083C205.704 233.291 215.365 229.038 221.76 223.708C234.111 213.415 240 194.211 240 149.333C240 104.456 234.111 85.2518 221.76 74.9583C215.365 69.6287 205.704 65.376 190.167 62.5833C174.597 59.7851 154.406 58.6667 128 58.6667ZM73.9375 45.2188C88.9137 43.3888 106.765 42.6667 128 42.6667C149.226 42.6667 167.07 43.3906 182.042 45.2188C180.249 37.7777 178.041 32.7192 175.563 29.1771C169.719 20.83 158.976 16.0002 128 16C97.0236 16.0002 86.281 20.83 80.4375 29.1771C77.9584 32.72 75.73 37.7751 73.9375 45.2188Z" fill="black"/>
</svg>
