<svg width="256" height="259" viewBox="0 0 256 259" fill="none" xmlns="http://www.w3.org/2000/svg">
<path fill-rule="evenodd" clip-rule="evenodd" d="M184.857 5.38992C212.061 -1.85931 239.853 14.9279 246.097 42.3795C256.129 86.5205 256.128 132.363 246.097 176.504L245.451 179.046C238.358 204.148 212.929 219.501 187.409 214.098L184.857 213.494L181.524 212.609C165.888 208.439 150.593 203.091 135.764 196.629L129.43 193.796L106.67 183.286C106.667 183.559 106.67 183.833 106.67 184.109C106.67 246.329 119.999 258.775 80.0032 258.775C40.0032 258.775 32.0032 246.331 32.0032 184.109C32.0033 178.936 32.0871 174.104 32.2116 169.598C37.4458 170.927 42.7597 171.916 48.1178 172.557C48.0419 176.147 48.0033 179.993 48.0032 184.109C48.0032 199.465 48.5023 211.028 49.722 219.827C50.9553 228.722 52.7682 233.482 54.4616 236.119C56.588 239.427 60.5033 242.775 80.0032 242.775C84.6691 242.775 88.055 242.584 90.5241 242.254C91.3684 242.142 92.0437 242.007 92.5761 241.89C93.0033 238.512 92.7964 233.142 92.1595 223.036C91.5364 213.149 90.6699 200.23 90.6699 184.109C90.6699 181.288 90.7145 178.567 90.7636 175.942L85.6491 173.588C85.4454 173.494 85.2171 173.442 84.9928 173.442H63.2324L58.1282 173.338C47.9373 172.927 37.8323 171.286 28.0345 168.452L23.1595 166.942C15.4353 164.366 9.68345 157.843 8.08656 149.859L7.02406 144.536C2.68135 122.819 2.41149 100.495 6.21156 78.7024L7.02406 74.3482L8.08656 69.0253C9.68499 61.0433 15.437 54.5174 23.1595 51.942C34.4624 48.1748 46.2406 46.0253 58.1282 45.5462L63.2324 45.442H84.9928L85.6491 45.2962L129.43 25.0878C146.223 17.3378 163.654 11.0408 181.524 6.27533L184.857 5.38992ZM230.493 45.9316C226.261 27.3203 207.415 15.9327 188.972 20.8482L185.649 21.7441C168.666 26.2732 152.098 32.2536 136.139 39.6191L102.972 54.9212C97.3095 91.0008 97.2996 127.909 103.003 163.973L136.139 179.265C152.099 186.631 168.664 192.61 185.649 197.14L188.972 198.036C207.417 202.953 226.262 191.567 230.493 172.952C239.993 131.147 239.994 87.7372 230.493 45.9316ZM84.9928 61.442H63.2324C51.3351 61.442 39.5089 63.3573 28.222 67.1191C25.945 67.8781 24.2467 69.8079 23.7741 72.1607L22.7116 77.4837C18.4927 98.5779 18.4933 120.306 22.7116 141.4L23.7741 146.723C24.2451 149.079 25.9433 151.005 28.222 151.765C39.5098 155.527 51.334 157.442 63.2324 157.442H84.9928C85.2921 157.442 85.5904 157.468 85.8886 157.484C81.6648 125.625 81.66 93.2475 85.8574 61.3899C85.5692 61.4042 85.282 61.4419 84.9928 61.442Z" fill="black"/>
</svg>
