<svg width="256" height="256" viewBox="0 0 256 256" fill="none" xmlns="http://www.w3.org/2000/svg">
<path d="M32.9516 98.6771C37.3596 98.4226 41.1513 101.79 41.4099 106.198C43.6987 145.538 50.1785 166.663 62.337 178.49C74.3893 190.209 93.9638 194.667 128.389 194.667C161.182 194.666 180.515 190.624 192.691 180.094C204.738 169.672 211.678 151.192 214.618 116.656C214.993 112.254 218.872 108.99 223.274 109.365C227.672 109.744 230.939 113.612 230.566 118.01C227.572 153.188 220.279 177.382 203.149 192.198C187.492 205.737 165.214 209.993 136.056 210.583L136.316 240H171.045C175.464 240 179.045 243.582 179.045 248C179.045 252.418 175.464 256 171.045 256H85.712C81.2944 255.999 77.712 252.418 77.712 248C77.712 243.582 81.2944 240.001 85.712 240H120.306L120.056 210.563C89.6881 209.888 66.82 205.167 51.1807 189.958C34.2496 173.49 27.7276 146.609 25.4307 107.135C25.1742 102.726 28.5427 98.9357 32.9516 98.6771Z" fill="black"/>
<path fill-rule="evenodd" clip-rule="evenodd" d="M128.379 0C181.712 0 192.379 14.2222 192.379 85.3333C192.379 156.444 181.712 170.667 128.379 170.667C75.0467 170.666 64.3786 156.444 64.3786 85.3333C64.3786 14.223 75.0467 0.000291168 128.379 0ZM128.379 16C101.592 16.0002 93.3604 20.0312 89.1807 25.6042C86.7001 28.9128 84.2991 34.4847 82.6703 44.5521C81.0463 54.5913 80.3786 67.787 80.3786 85.3333C80.3786 102.88 81.0463 116.075 82.6703 126.115C84.2991 136.182 86.7001 141.754 89.1807 145.063C93.3604 150.635 101.592 154.667 128.379 154.667C155.165 154.667 163.397 150.635 167.577 145.063C170.057 141.754 172.458 136.183 174.087 126.115C175.711 116.075 176.379 102.88 176.379 85.3333C176.379 67.7868 175.711 54.5914 174.087 44.5521C172.458 34.4841 170.057 28.9127 167.577 25.6042C163.397 20.0315 155.165 16 128.379 16Z" fill="black"/>
</svg>
