<svg width="256" height="257" viewBox="0 0 256 257" fill="none" xmlns="http://www.w3.org/2000/svg">
<path d="M128.002 226.999C132.42 226.999 136.002 230.581 136.002 234.999V245.666C136.002 250.084 132.42 253.665 128.002 253.666C123.584 253.666 120.002 250.084 120.002 245.666V234.999C120.002 230.58 123.584 226.999 128.002 226.999Z" fill="currentColor"/>
<path d="M46.9189 198.098C50.0432 194.975 55.1084 194.974 58.2324 198.098C61.3564 201.222 61.3561 206.288 58.2324 209.412L50.6895 216.955C47.5653 220.079 42.5002 220.079 39.376 216.955C36.2518 213.831 36.2518 208.765 39.376 205.641L46.9189 198.098Z" fill="currentColor"/>
<path d="M197.771 198.098C200.895 194.974 205.96 194.975 209.084 198.098L216.627 205.641C219.751 208.765 219.751 213.831 216.627 216.955C213.503 220.079 208.438 220.079 205.313 216.955L197.771 209.412C194.647 206.288 194.646 201.222 197.771 198.098Z" fill="currentColor"/>
<path fill-rule="evenodd" clip-rule="evenodd" d="M128.001 42.9987C179.201 42.9987 213.335 77.1319 213.335 128.332L213.328 129.435C212.8 176.055 178.801 213.666 128.001 213.666L126.805 213.659C76.2703 213.131 42.668 179.132 42.668 128.332C42.6681 77.1321 76.8014 42.9989 128.001 42.9987ZM128.001 58.9987C106.037 58.9988 88.977 66.2502 77.4482 77.779C65.9195 89.3078 58.668 106.368 58.668 128.332C58.668 150.296 65.9194 167.357 77.4482 178.885C88.977 190.414 106.037 197.666 128.001 197.666C169.863 197.666 197.335 167.133 197.335 128.332C197.335 106.368 190.083 89.3078 178.555 77.779C167.026 66.2501 149.965 58.9987 128.001 58.9987Z" fill="currentColor"/>
<path d="M21.335 120.332C25.7531 120.332 29.3348 123.914 29.335 128.332C29.335 132.75 25.7532 136.332 21.335 136.332H10.668C6.24984 136.332 2.66797 132.75 2.66797 128.332C2.6681 123.914 6.24992 120.332 10.668 120.332H21.335Z" fill="currentColor"/>
<path d="M245.335 120.332C249.753 120.332 253.335 123.914 253.335 128.332C253.335 132.75 249.753 136.332 245.335 136.332H234.668C230.25 136.332 226.668 132.75 226.668 128.332C226.668 123.914 230.25 120.332 234.668 120.332H245.335Z" fill="currentColor"/>
<path d="M39.375 39.7077C42.4991 36.5838 47.5643 36.5839 50.6885 39.7077L58.2314 47.2507C61.3555 50.3748 61.3554 55.44 58.2314 58.5641C55.1073 61.6883 50.0422 61.6882 46.918 58.5641L39.375 51.0212C36.2512 47.8969 36.2509 42.8318 39.375 39.7077Z" fill="currentColor"/>
<path d="M205.314 39.7077C208.439 36.5839 213.504 36.5838 216.628 39.7077C219.752 42.8318 219.752 47.8969 216.628 51.0212L209.085 58.5641C205.961 61.6882 200.896 61.6883 197.771 58.5641C194.648 55.44 194.647 50.3748 197.771 47.2507L205.314 39.7077Z" fill="currentColor"/>
<path d="M128.002 2.9987C132.42 2.99897 136.002 6.58059 136.002 10.9987V21.6657C136.002 26.0836 132.42 29.6654 128.002 29.6657C123.584 29.6657 120.002 26.0838 120.002 21.6657V10.9987C120.002 6.58042 123.584 2.9987 128.002 2.9987Z" fill="currentColor"/>
</svg>
