<svg width="256" height="256" viewBox="0 0 256 256" fill="none" xmlns="http://www.w3.org/2000/svg">
<path d="M128 226.666C132.419 226.666 136 230.248 136 234.666V245.333C136 249.751 132.419 253.333 128 253.333C123.582 253.333 120 249.751 120 245.333V234.666C120 230.248 123.582 226.666 128 226.666Z" fill="black"/>
<path d="M46.917 197.77C50.0412 194.646 55.1053 194.646 58.2295 197.77C61.3537 200.894 61.3537 205.958 58.2295 209.083L50.6878 216.624C47.5634 219.746 42.4986 219.748 39.3753 216.624C36.252 213.501 36.2537 208.436 39.3753 205.312L46.917 197.77Z" fill="black"/>
<path d="M197.771 197.77C200.895 194.646 205.959 194.646 209.084 197.77L216.625 205.312C219.748 208.436 219.749 213.501 216.625 216.624C213.502 219.747 208.437 219.746 205.313 216.624L197.771 209.083C194.647 205.959 194.648 200.894 197.771 197.77Z" fill="black"/>
<path fill-rule="evenodd" clip-rule="evenodd" d="M132.157 53.416C174.638 55.2103 202.667 84.5994 202.667 127.999L202.584 131.843C200.789 171.294 171.4 202.666 128 202.666L123.844 202.583C82.733 200.846 55.1534 173.267 53.417 132.156L53.3337 127.999C53.3337 83.1993 83.2003 53.3327 128 53.3327L132.157 53.416ZM128 69.3327C109.236 69.3327 94.8396 75.5142 85.1774 85.1764C75.5152 94.8386 69.3337 109.235 69.3337 127.999C69.3337 146.763 75.5152 161.16 85.1774 170.822C94.8396 180.484 109.236 186.666 128 186.666C163.463 186.666 186.667 160.91 186.667 127.999C186.667 109.235 180.485 94.8386 170.823 85.1764C161.161 75.5142 146.764 69.3327 128 69.3327Z" fill="black"/>
<path d="M21.3337 119.999C25.7519 119.999 29.3337 123.581 29.3337 127.999C29.3337 132.418 25.7519 135.999 21.3337 135.999H10.667C6.24871 135.999 2.66699 132.418 2.66699 127.999C2.66699 123.581 6.24871 119.999 10.667 119.999H21.3337Z" fill="black"/>
<path d="M245.334 119.999C249.752 119.999 253.334 123.581 253.334 127.999C253.334 132.418 249.752 135.999 245.334 135.999H234.667C230.249 135.999 226.667 132.418 226.667 127.999C226.667 123.581 230.249 119.999 234.667 119.999H245.334Z" fill="black"/>
<path d="M39.3753 39.3743C42.4989 36.2508 47.5635 36.252 50.6878 39.3743L58.2295 46.916C61.3537 50.0402 61.3537 55.1043 58.2295 58.2285C55.1053 61.3527 50.0412 61.3527 46.917 58.2285L39.3753 50.6868C36.2529 47.5625 36.2517 42.4979 39.3753 39.3743Z" fill="black"/>
<path d="M205.313 39.3743C208.437 36.2517 213.502 36.251 216.625 39.3743C219.749 42.498 219.748 47.5625 216.625 50.6868L209.084 58.2285C205.959 61.3527 200.895 61.3527 197.771 58.2285C194.647 55.1043 194.647 50.0401 197.771 46.916L205.313 39.3743Z" fill="black"/>
<path d="M128 2.66602C132.419 2.66602 136 6.24774 136 10.666V21.3327C136 25.751 132.419 29.3327 128 29.3327C123.582 29.3327 120 25.751 120 21.3327V10.666C120 6.24774 123.582 2.66602 128 2.66602Z" fill="black"/>
</svg>
