<svg width="256" height="256" viewBox="0 0 256 256" fill="none" xmlns="http://www.w3.org/2000/svg">
<path d="M117.333 34.6667C121.751 34.6667 125.333 38.2484 125.333 42.6667V85.3333C125.333 89.7516 121.751 93.3333 117.333 93.3333C112.915 93.3333 109.333 89.7516 109.333 85.3333V42.6667C109.333 38.2484 112.915 34.6667 117.333 34.6667Z" fill="black"/>
<path fill-rule="evenodd" clip-rule="evenodd" d="M136.125 0.0625C217.982 1.41443 234.666 24.666 234.666 128L234.614 137.75C233.488 235.979 214.111 256 128 256L119.875 255.938C38.0172 254.586 21.333 231.334 21.333 128C21.333 21.3333 39.1108 0 128 0L136.125 0.0625ZM128 16C83.1223 16 63.9182 21.8893 53.6247 34.2396C48.295 40.6352 44.0424 50.2958 41.2497 65.8333C38.4514 81.4034 37.333 101.594 37.333 128C37.333 154.406 38.4514 174.597 41.2497 190.167C44.0424 205.704 48.295 215.365 53.6247 221.76C63.9182 234.111 83.1223 240 128 240C172.877 240 192.081 234.111 202.375 221.76C207.704 215.365 211.957 205.704 214.75 190.167C217.548 174.597 218.666 154.406 218.666 128C218.666 101.594 217.548 81.4034 214.75 65.8333C211.957 50.2958 207.704 40.6352 202.375 34.2396C192.081 21.8893 172.877 16 128 16Z" fill="black"/>
</svg>
