<svg width="256" height="256" viewBox="0 0 256 256" fill="none" xmlns="http://www.w3.org/2000/svg">
<path fill-rule="evenodd" clip-rule="evenodd" d="M181.333 74.6667C193.115 74.6667 202.667 84.2179 202.667 96C202.667 107.782 193.115 117.333 181.333 117.333C169.551 117.333 160 107.782 160 96C160 84.2181 169.551 74.6669 181.333 74.6667ZM181.333 90.6667C178.388 90.6669 176 93.0546 176 96C176 98.9454 178.388 101.333 181.333 101.333C184.279 101.333 186.667 98.9455 186.667 96C186.667 93.0545 184.279 90.6667 181.333 90.6667Z" fill="black"/>
<path d="M85.3333 77.3333C89.7511 77.3339 93.3333 80.9154 93.3333 85.3333C93.3333 89.7513 89.7511 93.3328 85.3333 93.3333C80.915 93.3333 77.3333 89.7516 77.3333 85.3333C77.3333 80.9151 80.915 77.3333 85.3333 77.3333Z" fill="black"/>
<path fill-rule="evenodd" clip-rule="evenodd" d="M125.573 0C257.399 0 279.379 125.392 235.437 156.74L231.375 159.49C223.97 164.272 217.183 167.239 210.792 168.906C211.541 168.711 212.302 168.503 213.062 168.271C210.852 240.797 193.744 255.998 128.01 256C62.889 256 45.4817 241.09 43.0104 170.313C34.82 169.324 26.8061 166.163 18.8125 159.49L15.7187 156.74C-17.2373 125.392 -6.24918 0.00311827 125.573 0ZM125.573 156.74C100.482 156.741 78.972 166.945 59 169.875C59.4329 182.149 60.3213 192.319 61.7812 200.781C63.9864 213.556 67.294 221.156 71.1667 226C78.3839 235.017 92.1387 240 128.01 240C163.881 239.999 177.639 235.019 184.854 226C188.725 221.156 192.035 213.553 194.24 200.781C195.668 192.498 196.526 182.572 196.969 170.646L197 170.635C175.363 170.564 156.634 158.006 129.635 156.823L125.573 156.74ZM146.594 17.2292C146.45 20.6616 145.754 24.05 144.437 27.2292C142.963 30.7871 140.796 34.0163 138.073 36.7396C135.35 39.4627 132.12 41.6301 128.562 43.1042C125.004 44.5782 121.185 45.3332 117.333 45.3333C113.482 45.3333 109.663 44.5781 106.104 43.1042C102.546 41.6301 99.317 39.4627 96.5937 36.7396C93.8705 34.0163 91.7033 30.7872 90.2292 27.2292C89.3009 24.9881 88.6823 22.6404 88.3333 20.25C52.7824 29.1131 33.1088 50.6294 23.5625 72.9167C19.3639 82.7203 17.0495 92.8708 16.2917 102.5C19.7488 100.138 23.5907 98.3634 27.6667 97.2708C33.9966 95.5747 40.67 95.5748 47 97.2708C53.3286 98.9672 59.0961 102.305 63.7292 106.938C68.3622 111.571 71.6994 117.338 73.3958 123.667C75.092 129.997 75.092 136.67 73.3958 143C72.6305 145.855 71.5057 148.582 70.1042 151.156C76.2408 149.547 82.2326 147.726 90.625 145.625C100.974 143.035 112.712 140.74 125.573 140.74C138.517 140.74 149.655 143.053 159.333 145.708C164.084 147.012 168.688 148.459 172.74 149.698C176.919 150.976 180.622 152.074 184.208 152.927C191.25 154.601 197.212 155.171 203.312 154.167C209.383 153.167 216.752 150.409 226.146 143.708C232.458 139.204 237.788 130.186 239.469 117C241.124 104.008 238.958 88.4321 231.927 73.3854C219.933 47.7162 193.427 22.9522 146.594 17.2292ZM42.8542 112.729C39.2371 111.76 35.4295 111.76 31.8125 112.729C28.1955 113.698 24.8979 115.602 22.25 118.25C20.2124 120.288 18.6111 122.708 17.5417 125.365C19.5528 135.092 23.2204 141.789 26.75 145.146C32.6899 150.795 37.9643 153.147 42.8958 154.094L42.8542 153.938C46.4712 152.968 49.7687 151.065 52.4167 148.417C55.0646 145.769 56.9683 142.471 57.9375 138.854C58.9067 135.237 58.9067 131.43 57.9375 127.813C56.9683 124.195 55.0646 120.898 52.4167 118.25C49.7687 115.602 46.4712 113.698 42.8542 112.729ZM125.573 16C117.919 16.0002 110.758 16.4572 104.062 17.3125C104.19 18.6138 104.508 19.8921 105.01 21.1042C105.68 22.7217 106.668 24.1891 107.906 25.4271C109.144 26.665 110.612 27.6529 112.229 28.3229C113.847 28.9927 115.583 29.3333 117.333 29.3333C119.084 29.3332 120.82 28.9928 122.437 28.3229C124.055 27.6529 125.522 26.665 126.76 25.4271C127.998 24.1891 128.986 22.7216 129.656 21.1042C130.317 19.5091 130.647 17.7989 130.656 16.0729C128.984 16.0277 127.29 16 125.573 16Z" fill="black"/>
</svg>
