<svg width="256" height="256" viewBox="0 0 256 256" fill="none" xmlns="http://www.w3.org/2000/svg">
<path d="M138.667 170.665C143.085 170.665 146.667 174.247 146.667 178.665C146.667 183.084 143.085 186.665 138.667 186.665H53.3333C48.9151 186.665 45.3333 183.084 45.3333 178.665C45.3333 174.247 48.9151 170.665 53.3333 170.665H138.667Z" fill="black"/>
<path d="M202.667 119.999C207.085 119.999 210.667 123.58 210.667 127.999C210.667 132.417 207.085 135.999 202.667 135.999H53.3333C48.9151 135.999 45.3333 132.417 45.3333 127.999C45.3333 123.58 48.9151 119.999 53.3333 119.999H202.667Z" fill="black"/>
<path d="M202.667 74.6654C207.085 74.6654 210.667 78.2471 210.667 82.6654C210.667 87.0836 207.085 90.6654 202.667 90.6654H128C123.582 90.6654 120 87.0836 120 82.6654C120 78.2471 123.582 74.6654 128 74.6654H202.667Z" fill="black"/>
<path fill-rule="evenodd" clip-rule="evenodd" d="M128 21.332C234.667 21.332 256 39.1098 256 127.999C256 216.888 234.667 234.665 128 234.665C21.3333 234.665 0 216.888 0 127.999C0 39.1098 21.3333 21.332 128 21.332ZM128 37.332C101.594 37.332 81.4034 38.4504 65.8333 41.2487C50.2958 44.0414 40.6352 48.294 34.2396 53.6237C21.8893 63.9172 16 83.1213 16 127.999C16 172.876 21.8893 192.08 34.2396 202.374C40.6352 207.703 50.2958 211.956 65.8333 214.749C81.4034 217.547 101.594 218.665 128 218.665C154.406 218.665 174.597 217.547 190.167 214.749C205.704 211.956 215.365 207.703 221.76 202.374C234.111 192.08 240 172.876 240 127.999C240 83.1213 234.111 63.9172 221.76 53.6237C215.365 48.294 205.704 44.0414 190.167 41.2487C174.597 38.4504 154.406 37.332 128 37.332Z" fill="black"/>
</svg>
