<svg width="256" height="256" viewBox="0 0 256 256" fill="none" xmlns="http://www.w3.org/2000/svg">
<path d="M145.219 4.15593C147.657 2.41563 150.868 2.18098 153.531 3.55176C156.194 4.92359 157.865 7.67094 157.865 10.6663V87.9997H222.177C229.033 87.9997 233.659 95.0111 230.959 101.312C210.033 150.141 178.417 193.653 138.438 228.635L112.469 251.354C110.008 253.507 106.487 253.941 103.573 252.458C100.66 250.975 98.9364 247.87 99.2294 244.614L108.052 146.666H31.469C28.6027 146.666 25.9575 145.132 24.5315 142.646C23.1062 140.159 23.1152 137.098 24.5627 134.625C53.9604 84.4317 93.6258 41.0084 140.959 7.1976L145.219 4.15593ZM141.865 26.3851C103.817 55.0992 71.2767 90.4341 45.7502 130.666H116.802C119.048 130.667 121.194 131.613 122.709 133.271C124.222 134.928 124.972 137.149 124.771 139.385L116.948 226.166L127.896 216.593C163.602 185.351 192.323 146.982 212.24 104H149.865C145.447 103.999 141.865 100.418 141.865 95.9997V26.3851Z" fill="black"/>
</svg>
