<svg width="256" height="256" viewBox="0 0 256 256" fill="none" xmlns="http://www.w3.org/2000/svg">
<path d="M181.334 154.667C185.752 154.667 189.334 158.248 189.334 162.667C189.334 167.085 185.752 170.667 181.334 170.667H85.3337C80.9154 170.667 77.3337 167.085 77.3337 162.667C77.3337 158.248 80.9154 154.667 85.3337 154.667H181.334Z" fill="black"/>
<path d="M181.334 90.6667C185.752 90.6667 189.334 94.2484 189.334 98.6667C189.334 103.085 185.752 106.667 181.334 106.667H85.3337C80.9154 106.667 77.3337 103.085 77.3337 98.6667C77.3337 94.2484 80.9154 90.6667 85.3337 90.6667H181.334Z" fill="black"/>
<path fill-rule="evenodd" clip-rule="evenodd" d="M142.677 0.0625C236.813 1.41443 256 24.666 256 128L255.938 137.75C254.642 235.979 232.362 256 133.334 256L123.99 255.938C52.4332 254.91 24.2063 241.224 14.7712 189.333H10.667C6.24871 189.333 2.66699 185.752 2.66699 181.333C2.66699 176.915 6.24871 173.333 10.667 173.333H12.5524C11.4326 162.334 10.8667 149.945 10.7191 136H10.667C6.24871 136 2.66699 132.418 2.66699 128C2.66699 123.582 6.24871 120 10.667 120H10.7191C10.8667 106.056 11.4223 93.6658 12.542 82.6667H10.667C6.24871 82.6667 2.66699 79.0849 2.66699 74.6667C2.66699 70.2484 6.24871 66.6667 10.667 66.6667H14.7816C24.6175 12.5767 54.8652 0 133.334 0L142.677 0.0625ZM133.334 16C108.111 16 89.0839 17.3441 74.5524 20.6146C60.2429 23.8356 51.3269 28.6995 45.2191 35.0729C39.0545 41.506 34.2731 51.0108 31.1253 66.2396C31.096 66.3813 31.071 66.5242 31.042 66.6667H42.667C47.0853 66.6667 50.667 70.2484 50.667 74.6667C50.667 79.0849 47.0853 82.6667 42.667 82.6667H28.6462C27.4912 93.2996 26.8751 105.636 26.7191 120H42.667C47.0853 120 50.667 123.582 50.667 128C50.667 132.418 47.0853 136 42.667 136H26.7191C26.8751 150.364 27.4912 162.7 28.6462 173.333H42.667C47.0853 173.333 50.667 176.915 50.667 181.333C50.667 185.752 47.0853 189.333 42.667 189.333H31.042C31.071 189.476 31.096 189.619 31.1253 189.76C34.2731 204.989 39.0545 214.494 45.2191 220.927C51.3269 227.3 60.2429 232.164 74.5524 235.385C89.0839 238.656 108.111 240 133.334 240C158.557 240 177.583 238.656 192.115 235.385C206.424 232.164 215.34 227.3 221.448 220.927C227.613 214.494 232.394 204.989 235.542 189.76C238.719 174.389 240 154.364 240 128C240 101.636 238.719 81.6111 235.542 66.2396C232.394 51.0108 227.613 41.506 221.448 35.0729C215.34 28.6995 206.424 23.8356 192.115 20.6146C177.583 17.3441 158.557 16 133.334 16Z" fill="black"/>
</svg>
