<svg width="256" height="256" viewBox="0 0 256 256" fill="none" xmlns="http://www.w3.org/2000/svg">
<path fill-rule="evenodd" clip-rule="evenodd" d="M170.667 45.3333C192.758 45.3333 210.667 63.2419 210.667 85.3333V91.5833C210.666 96.5335 208.698 101.281 205.198 104.781L126.021 183.958C115.97 194.007 103.166 200.859 89.2292 203.646L70.5938 207.375C57.5323 209.987 46.0127 198.468 48.625 185.406L52.3542 166.771C55.1415 152.834 61.9927 140.03 72.0417 129.979L151.219 50.8021C154.719 47.3018 159.467 45.3338 164.417 45.3333H170.667ZM83.3542 141.292C75.5388 149.109 70.2095 159.067 68.0417 169.906L64.3125 188.542C63.9393 190.408 65.5924 192.061 67.4583 191.688L86.0938 187.958C96.9329 185.791 106.891 180.461 114.708 172.646L170.021 117.333L138.667 85.9792L83.3542 141.292ZM164.417 61.3333C163.71 61.3338 163.031 61.6149 162.531 62.1146L149.979 74.6667L181.333 106.021L193.885 93.4688C194.385 92.969 194.666 92.29 194.667 91.5833V85.3333C194.667 72.0785 183.922 61.3333 170.667 61.3333H164.417Z" fill="black"/>
<path fill-rule="evenodd" clip-rule="evenodd" d="M128 0C234.667 0 256 21.3333 256 128C256 155.974 254.485 178.068 250.396 195.458C250.345 195.674 250.301 195.89 250.25 196.104C238.616 244.481 206.346 256 128 256C21.3333 256 0 234.667 0 128C0 21.3333 21.3333 0 128 0ZM128 16C101.652 16 81.6814 17.3344 66.375 20.6354C51.2482 23.8981 41.7737 28.8513 35.3125 35.3125C28.8513 41.7737 23.8981 51.2482 20.6354 66.375C17.3344 81.6814 16 101.652 16 128C16 154.348 17.3344 174.319 20.6354 189.625C23.8981 204.752 28.8513 214.226 35.3125 220.688C41.7737 227.149 51.2482 232.102 66.375 235.365C81.6814 238.666 101.652 240 128 240C136.54 240 144.409 239.833 151.667 239.531C158.178 185.053 180.219 166.062 239.01 161.333C239.677 151.532 240 140.482 240 128C240 101.652 238.666 81.6814 235.365 66.375C232.102 51.2482 227.149 41.7737 220.688 35.3125C214.226 28.8513 204.752 23.8981 189.625 20.6354C174.319 17.3344 154.348 16 128 16ZM237.396 177.531C210.853 179.957 195.645 185.371 186.177 193.885C177.2 201.96 171.079 214.958 167.917 238.448C194.268 236.042 209.435 230.692 218.917 222.292C219.126 222.107 219.328 221.917 219.531 221.729C228.29 213.63 234.282 200.687 237.396 177.531Z" fill="black"/>
</svg>
