<svg width="256" height="256" viewBox="0 0 256 256" fill="none" xmlns="http://www.w3.org/2000/svg">
<path d="M181.334 112.001C185.752 112.001 189.334 115.583 189.334 120.001C189.334 124.42 185.752 128.001 181.334 128.001H74.667C70.2487 128.001 66.667 124.42 66.667 120.001C66.667 115.583 70.2487 112.001 74.667 112.001H181.334Z" fill="black"/>
<path d="M138.667 69.3346C143.085 69.3346 146.667 72.9164 146.667 77.3346C146.667 81.7529 143.085 85.3346 138.667 85.3346H74.667C70.2487 85.3346 66.667 81.7529 66.667 77.3346C66.667 72.9164 70.2487 69.3346 74.667 69.3346H138.667Z" fill="black"/>
<path fill-rule="evenodd" clip-rule="evenodd" d="M128 2.66797C152.603 2.66797 172.841 3.88467 189.271 7.42839C205.791 10.9915 218.998 17.0202 228.99 27.0117C238.981 37.0033 245.01 50.2106 248.573 66.7305C252.117 83.1604 253.334 103.398 253.334 128.001C253.334 136.511 253.174 144.526 252.834 152.064H252.959L252.427 159.522C252.288 161.618 252.114 163.672 251.938 165.689C251.885 166.296 251.838 166.901 251.782 167.501C251.669 168.693 251.544 169.869 251.417 171.033C251.328 171.848 251.232 172.657 251.136 173.46C251.024 174.392 250.914 175.316 250.792 176.23C250.652 177.28 250.498 178.318 250.344 179.345C250.201 180.293 250.051 181.23 249.896 182.158C249.759 182.978 249.616 183.79 249.469 184.595C249.294 185.555 249.107 186.502 248.917 187.439C248.756 188.234 248.599 189.023 248.427 189.803C248.232 190.69 248.022 191.563 247.813 192.428C247.617 193.239 247.418 194.041 247.209 194.835C246.999 195.628 246.785 196.413 246.563 197.189C246.302 198.101 246.02 198.998 245.74 199.887C245.547 200.499 245.359 201.109 245.157 201.71C244.856 202.601 244.54 203.478 244.219 204.345C243.983 204.983 243.748 205.617 243.5 206.241C243.222 206.941 242.929 207.63 242.636 208.314C242.319 209.052 242.001 209.783 241.667 210.501C241.401 211.075 241.122 211.638 240.844 212.199C240.453 212.988 240.06 213.768 239.646 214.533C239.321 215.133 238.976 215.718 238.636 216.303C238.321 216.845 238.036 217.4 237.709 217.928C237.632 218.052 237.546 218.17 237.469 218.293C237.389 218.421 237.311 218.551 237.229 218.678C236.526 219.782 235.796 220.85 235.042 221.887C234.972 221.983 234.894 222.072 234.823 222.168C228.138 231.251 219.49 237.77 208.771 242.439C208.605 242.511 208.439 242.586 208.271 242.658C207.061 243.175 205.825 243.665 204.563 244.137C204.405 244.195 204.252 244.266 204.094 244.324C202.736 244.823 201.346 245.282 199.927 245.73C199.847 245.756 199.769 245.789 199.688 245.814C198.273 246.257 196.83 246.678 195.354 247.074C195.254 247.101 195.153 247.131 195.052 247.158C187.925 249.051 180.103 250.436 171.552 251.387C167.155 251.876 162.534 252.218 157.688 252.512C157.118 252.546 156.545 252.573 155.969 252.605C153.453 252.745 150.878 252.876 148.24 252.97L141.709 253.251V253.168C137.302 253.265 132.734 253.335 128 253.335C103.397 253.335 83.1594 252.118 66.7295 248.574C50.2096 245.011 37.0023 238.982 27.0107 228.991C17.0192 218.999 10.9905 205.792 7.42741 189.272C3.88369 172.842 2.66699 152.604 2.66699 128.001C2.66699 103.398 3.88369 83.1604 7.42741 66.7305C10.9905 50.2106 17.0192 37.0033 27.0107 27.0117C37.0023 17.0202 50.2096 10.9915 66.7295 7.42839C83.1594 3.88467 103.397 2.66797 128 2.66797ZM128 18.668C103.714 18.668 84.8412 19.8957 70.1045 23.0742C55.4578 26.2333 45.4427 31.2047 38.3232 38.3242C31.2037 45.4437 26.2323 55.4587 23.0732 70.1055C19.8948 84.8422 18.667 103.715 18.667 128.001C18.667 152.287 19.8948 171.16 23.0732 185.897C26.2323 200.544 31.2037 210.559 38.3232 217.678C45.4427 224.798 55.4578 229.769 70.1045 232.928C84.8412 236.107 103.714 237.335 128 237.335C133.225 237.335 138.203 237.247 142.948 237.126C145.707 208.701 152.581 187.868 168.177 173.991C183.657 160.221 206.241 154.682 236.771 152.814C237.144 145.27 237.334 137.023 237.334 128.001C237.334 103.715 236.106 84.8422 232.927 70.1055C229.768 55.4587 224.797 45.4437 217.677 38.3242C210.558 31.2047 200.543 26.2333 185.896 23.0742C171.159 19.8957 152.286 18.668 128 18.668ZM235.542 168.928C207.199 170.876 189.862 176.111 178.813 185.939C168.047 195.516 161.87 210.738 159.115 236.376C187.468 234.43 204.805 229.205 215.854 219.376C226.621 209.799 232.789 194.579 235.542 168.928Z" fill="black"/>
</svg>
