<svg width="256" height="256" viewBox="0 0 256 256" fill="none" xmlns="http://www.w3.org/2000/svg">
<path d="M125.271 56.4792C127.316 55.7397 129.592 55.8615 131.563 56.8438C146.958 64.5414 159.448 77.032 167.146 92.4271C169.119 96.3781 167.513 101.181 163.563 103.156C159.612 105.126 154.808 103.522 152.833 99.5729C148.756 91.4205 142.991 84.2968 135.99 78.625V138.667C135.989 143.084 132.408 146.667 127.99 146.667C123.574 146.664 119.99 143.083 119.99 138.667V78.625C112.99 84.2968 107.223 91.421 103.146 99.5729C101.17 103.522 96.367 105.129 92.4167 103.156C88.4698 101.18 86.863 96.3764 88.8333 92.4271C96.5306 77.0326 109.023 64.5419 124.417 56.8438L125.271 56.4792Z" fill="black"/>
<path fill-rule="evenodd" clip-rule="evenodd" d="M128 0C234.667 0 256 21.3333 256 128C256 234.667 234.667 256 128 256C21.3333 256 0 234.667 0 128C0 21.3333 21.3333 0 128 0ZM17.7604 170.667C18.475 177.68 19.4161 183.971 20.6354 189.625C23.8981 204.752 28.8513 214.226 35.3125 220.688C41.7737 227.149 51.2482 232.102 66.375 235.365C81.6814 238.666 101.652 240 128 240C154.348 240 174.319 238.666 189.625 235.365C204.752 232.102 214.226 227.149 220.688 220.688C227.149 214.226 232.102 204.752 235.365 189.625C236.584 183.971 237.525 177.68 238.24 170.667H194.594C188.23 170.667 182.126 173.199 177.625 177.698L175.031 180.281C167.531 187.781 157.357 191.999 146.75 192H109.26C98.6531 192 88.4804 187.781 80.9792 180.281L78.3854 177.698C73.8858 173.198 67.7799 170.668 61.4167 170.667H17.7604ZM128 16C101.652 16 81.6814 17.3344 66.375 20.6354C51.2482 23.8981 41.7737 28.8513 35.3125 35.3125C28.8513 41.7737 23.8981 51.2482 20.6354 66.375C17.3344 81.6814 16 101.652 16 128C16 137.73 16.1876 146.59 16.5833 154.667H61.4167C72.0234 154.668 82.1977 158.885 89.6979 166.385L92.2917 168.969C96.7923 173.468 102.897 176 109.26 176H146.75C153.113 175.999 159.219 173.468 163.719 168.969L166.313 166.385C173.814 158.886 183.986 154.667 194.594 154.667H239.417C239.812 146.59 240 137.73 240 128C240 101.652 238.666 81.6814 235.365 66.375C232.102 51.2482 227.149 41.7737 220.688 35.3125C214.226 28.8513 204.752 23.8981 189.625 20.6354C174.319 17.3344 154.348 16 128 16Z" fill="black"/>
</svg>
