<svg width="256" height="256" viewBox="0 0 256 256" fill="none" xmlns="http://www.w3.org/2000/svg">
<path d="M142.365 92.0729C144.532 88.2262 149.411 86.8662 153.26 89.0313C173.227 100.264 189.039 117.638 198.344 138.573L199.313 140.75C200.232 142.819 200.232 145.181 199.313 147.25L198.344 149.427C189.039 170.362 173.227 187.736 153.26 198.969C149.411 201.134 144.532 199.774 142.365 195.927C140.199 192.078 141.56 187.199 145.406 185.031C162.029 175.681 175.243 161.307 183.208 144C175.243 126.693 162.029 112.319 145.406 102.969C141.56 100.801 140.199 95.922 142.365 92.0729Z" fill="black"/>
<path d="M102.74 57.0313C106.589 54.8662 111.468 56.2262 113.635 60.0729C115.801 63.922 114.44 68.8011 110.594 70.9688C93.9712 80.319 80.7572 94.6935 72.7917 112C80.7572 129.307 93.9712 143.681 110.594 153.031C114.44 155.199 115.801 160.078 113.635 163.927C111.468 167.774 106.589 169.134 102.74 166.969C82.7727 155.736 66.9609 138.362 57.6563 117.427L56.6875 115.25C55.7682 113.181 55.7682 110.819 56.6875 108.75L57.6563 106.573C66.9609 85.6377 82.7727 68.2642 102.74 57.0313Z" fill="black"/>
<path fill-rule="evenodd" clip-rule="evenodd" d="M128 0C234.667 0 256 21.3333 256 128C256 234.667 234.667 256 128 256C21.3333 256 0 234.667 0 128C0 21.3333 21.3333 0 128 0ZM128 16C101.652 16 81.6814 17.3344 66.375 20.6354C51.2482 23.8981 41.7737 28.8513 35.3125 35.3125C28.8513 41.7737 23.8981 51.2482 20.6354 66.375C17.3344 81.6814 16 101.652 16 128C16 154.348 17.3344 174.319 20.6354 189.625C23.8981 204.752 28.8513 214.226 35.3125 220.688C41.7737 227.149 51.2482 232.102 66.375 235.365C81.6814 238.666 101.652 240 128 240C154.348 240 174.319 238.666 189.625 235.365C204.752 232.102 214.226 227.149 220.688 220.688C227.149 214.226 232.102 204.752 235.365 189.625C238.666 174.319 240 154.348 240 128C240 101.652 238.666 81.6814 235.365 66.375C232.102 51.2482 227.149 41.7737 220.688 35.3125C214.226 28.8513 204.752 23.8981 189.625 20.6354C174.319 17.3344 154.348 16 128 16Z" fill="black"/>
</svg>
