<svg width="256" height="257" viewBox="0 0 256 257" fill="none" xmlns="http://www.w3.org/2000/svg">
<path fill-rule="evenodd" clip-rule="evenodd" d="M117.333 0.957031C190.93 0.957031 210.35 6.97654 212.989 35.6237H234.666C239.085 35.6237 242.666 39.2054 242.666 43.6237V107.624C242.666 111.49 239.897 114.807 236.093 115.499L125.333 135.634V150.665C145.1 152.68 149.333 164.038 149.333 203.624C149.333 248.068 144 256.957 117.333 256.957C90.6663 256.957 85.333 248.068 85.333 203.624C85.333 164.038 89.5661 152.68 109.333 150.665V128.957C109.333 125.091 112.102 121.774 115.906 121.082L226.666 100.936V51.6237H212.989C210.35 80.2709 190.93 86.2904 117.333 86.2904C37.333 86.2904 21.333 79.1793 21.333 43.6237C21.333 8.06814 37.333 0.957031 117.333 0.957031ZM117.333 166.29C111.256 166.29 108.13 166.841 106.5 167.426C105.528 167.775 105.381 167.971 105.052 168.52C104.362 169.668 103.245 172.432 102.448 178.592C101.666 184.631 101.333 192.695 101.333 203.624C101.333 214.552 101.666 222.616 102.448 228.655C103.245 234.816 104.362 237.579 105.052 238.728C105.381 239.277 105.528 239.472 106.5 239.822C108.13 240.406 111.256 240.957 117.333 240.957C123.41 240.957 126.536 240.406 128.166 239.822C129.138 239.472 129.285 239.277 129.614 238.728C130.304 237.579 131.421 234.816 132.218 228.655C133 222.616 133.333 214.552 133.333 203.624C133.333 192.695 133 184.631 132.218 178.592C131.421 172.432 130.304 169.668 129.614 168.52C129.285 167.971 129.138 167.775 128.166 167.426C126.536 166.841 123.41 166.29 117.333 166.29ZM117.333 16.957C97.4693 16.957 82.0845 17.4036 70.1143 18.5508C57.9774 19.7142 50.4905 21.5121 45.833 23.582C41.7326 25.4044 40.3348 27.1828 39.4788 28.9466C38.3005 31.3764 37.333 35.6095 37.333 43.6237C37.333 51.6379 38.3005 55.871 39.4788 58.3008C40.3348 60.0646 41.7326 61.843 45.833 63.6654C50.4905 65.7353 57.9774 67.5332 70.1143 68.6966C82.0845 69.8438 97.4693 70.2904 117.333 70.2904C137.197 70.2904 152.582 69.8438 164.552 68.6966C176.689 67.5332 184.176 65.7353 188.833 63.6654C192.933 61.843 194.331 60.0646 195.187 58.3008C196.366 55.871 197.333 51.6379 197.333 43.6237C197.333 35.6095 196.366 31.3764 195.187 28.9466C194.331 27.1828 192.933 25.4044 188.833 23.582C184.176 21.5121 176.689 19.7142 164.552 18.5508C152.582 17.4036 137.197 16.957 117.333 16.957Z" fill="black"/>
</svg>
