<svg width="256" height="256" viewBox="0 0 256 256" fill="none" xmlns="http://www.w3.org/2000/svg">
<path fill-rule="evenodd" clip-rule="evenodd" d="M233.255 127.999C229.245 165.626 215.656 182.181 180.422 188.541C177.294 243.715 164.931 255.999 127.995 255.999C91.058 255.999 78.6852 243.715 75.5573 188.541C40.3298 182.18 26.7437 165.623 22.7344 127.999H22.6406C21.9084 120.913 21.5143 113.08 21.3802 104.427L21.3281 97.2078C21.3281 76.4476 23.7655 60.0761 28.599 47.2182L29.599 44.6869C43.9713 10.1407 85.3323 39.2716 159.995 7.67653C234.66 -23.9192 234.661 49.1018 234.661 97.2078L234.609 104.427C234.475 113.08 234.071 120.913 233.339 127.999H233.255ZM38.8385 127.999C40.2205 139.841 42.5642 148.219 45.9531 154.333C50.5426 162.608 58.1138 168.54 74.9115 172.114L78.401 172.791L79.7448 173.093C86.3424 174.878 91.1437 180.709 91.5365 187.635C93.1074 215.345 97.0014 227.32 101.516 232.874C104.811 236.925 110.585 239.999 127.995 239.999C145.41 239.999 151.181 236.925 154.474 232.874C158.986 227.32 162.872 215.344 164.443 187.635C164.862 180.247 170.297 174.106 177.578 172.791C196.846 169.313 205.14 163.16 210.036 154.333C213.425 148.22 215.747 139.84 217.13 127.999H38.8385ZM198.557 16.8953C193.097 15.2561 183.206 15.2346 166.234 22.4161C126.032 39.4288 94.4627 40.0747 72.9115 41.0619C61.6521 41.5778 55.4058 42.1736 51.099 43.7703C48.2896 44.8126 46.292 46.2121 44.3698 50.8328C39.9825 61.3836 37.3281 76.2154 37.3281 97.2078C37.3282 102.545 37.4411 107.463 37.6198 111.999H218.37C218.548 107.463 218.661 102.545 218.661 97.2078C218.661 85.0679 218.65 72.1867 217.557 59.8953C216.451 47.4593 214.323 36.9405 210.786 29.239C207.408 21.8838 203.393 18.348 198.557 16.8953Z" fill="black"/>
</svg>
