<svg width="256" height="256" viewBox="0 0 256 256" fill="none" xmlns="http://www.w3.org/2000/svg">
<path d="M91.4583 66.7083C95.8512 67.1498 99.062 71.0651 98.625 75.4583C95.1313 110.396 95.1313 145.604 98.625 180.542C99.0615 184.935 95.851 188.85 91.4583 189.292C87.0655 189.727 83.1482 186.518 82.7083 182.125C79.1093 146.132 79.1093 109.868 82.7083 73.875C83.1478 69.4814 87.0653 66.2734 91.4583 66.7083Z" fill="black"/>
<path d="M164.542 66.7083C168.934 66.2734 172.852 69.4818 173.292 73.875C176.891 109.868 176.891 146.132 173.292 182.125C172.852 186.519 168.935 189.727 164.542 189.292C160.149 188.85 156.938 184.935 157.375 180.542C160.869 145.604 160.869 110.396 157.375 75.4583C156.938 71.0653 160.149 67.1496 164.542 66.7083Z" fill="black"/>
<path fill-rule="evenodd" clip-rule="evenodd" d="M128 0C234.667 0 256 21.3333 256 128C256 234.667 234.667 256 128 256C21.3333 256 0 234.667 0 128C0 21.3333 21.3333 0 128 0ZM128 16C101.652 16 81.6814 17.3344 66.375 20.6354C51.2482 23.8981 41.7737 28.8513 35.3125 35.3125C28.8513 41.7737 23.8981 51.2482 20.6354 66.375C17.3344 81.6814 16 101.652 16 128C16 154.348 17.3344 174.319 20.6354 189.625C23.8981 204.752 28.8513 214.226 35.3125 220.688C41.7737 227.149 51.2482 232.102 66.375 235.365C81.6814 238.666 101.652 240 128 240C154.348 240 174.319 238.666 189.625 235.365C204.752 232.102 214.226 227.149 220.688 220.688C227.149 214.226 232.102 204.752 235.365 189.625C238.666 174.319 240 154.348 240 128C240 101.652 238.666 81.6814 235.365 66.375C232.102 51.2482 227.149 41.7737 220.688 35.3125C214.226 28.8513 204.752 23.8981 189.625 20.6354C174.319 17.3344 154.348 16 128 16Z" fill="black"/>
</svg>
