<svg width="256" height="256" viewBox="0 0 256 256" fill="none" xmlns="http://www.w3.org/2000/svg">
<path fill-rule="evenodd" clip-rule="evenodd" d="M199.729 69.47C209.281 70.3238 221.807 73.4552 231.51 83.1575C241.212 92.8599 244.344 105.387 245.198 114.939C246.442 128.871 239.084 140.74 230.75 149.074L149.239 230.574C138.539 241.275 124.76 248.368 109.833 250.855L80.5205 255.741C67.8201 257.856 56.8117 246.847 58.9268 234.147L63.8122 204.835C66.3001 189.908 73.3932 176.129 84.0934 165.428L165.593 83.918C173.927 75.5841 185.796 68.2261 199.729 69.47ZM95.4059 176.741C87.0641 185.083 81.5333 195.823 79.5934 207.46L74.708 236.772C74.3958 238.645 76.0224 240.272 77.8955 239.96L107.208 235.074C118.845 233.134 129.585 227.604 137.927 219.262L204.937 152.251L162.416 109.73L95.4059 176.741ZM198.312 85.4075C191.074 84.7606 183.612 88.5362 176.916 95.2305L173.729 98.418L216.25 140.939L219.437 137.751C226.132 131.056 229.907 123.593 229.26 116.355C228.575 108.697 226.18 100.452 220.198 94.47C214.215 88.488 205.971 86.0927 198.312 85.4075Z" fill="black"/>
<path d="M61.333 26.668C65.7513 26.668 69.333 30.2497 69.333 34.668V58.668H93.333C97.7511 58.668 101.333 62.25 101.333 66.668C101.333 71.0862 97.7513 74.668 93.333 74.668H69.333V98.668C69.333 103.086 65.7513 106.668 61.333 106.668C56.9147 106.668 53.333 103.086 53.333 98.668V74.668H29.333C24.9147 74.668 21.333 71.0862 21.333 66.668C21.3334 62.25 24.9149 58.668 29.333 58.668H53.333V34.668C53.333 30.2497 56.9147 26.668 61.333 26.668Z" fill="black"/>
</svg>
