<svg width="256" height="256" viewBox="0 0 256 256" fill="none" xmlns="http://www.w3.org/2000/svg">
<path fill-rule="evenodd" clip-rule="evenodd" d="M29.8849 11.8002C73.6331 8.8967 190.869 7.06096 226.562 66.5398C242.327 92.8116 239.427 128.61 232.406 158.279C257.414 187.735 254.724 202.555 228.635 228.644C202.544 254.735 187.723 257.422 158.26 232.404C128.599 239.418 92.8218 242.296 66.562 226.54C7.08881 190.852 8.89856 73.6335 11.7912 29.894C12.4419 20.0808 20.0714 12.4517 29.8849 11.8002ZM128.583 31.5502C95.27 25.9363 60.8711 26.1967 38.6349 27.3211L107.895 96.5815C109.711 96.2897 111.79 96.1117 114.166 96.0398L117.333 95.9982C135.108 95.9985 138.666 99.5574 138.666 117.331C138.666 135.109 135.109 138.665 117.333 138.665L114.166 138.623C99.1248 138.168 95.9995 133.999 95.9995 117.331L96.0412 114.165C96.1133 111.784 96.2792 109.702 96.5724 107.884L27.3224 38.6336C26.2031 60.8652 25.9418 95.261 31.562 128.571C38.0555 167.053 51.5112 198.85 74.7912 212.821C95.3133 225.135 125.591 223.687 154.583 216.831L156.447 216.509C160.812 216.011 165.223 217.328 168.614 220.206C182.868 232.31 189.623 234.029 193.499 233.738C197.787 233.413 204.344 230.31 217.322 217.331C230.295 204.359 233.401 197.806 233.729 193.519C234.022 189.645 232.311 182.889 220.208 168.634C216.916 164.756 215.662 159.541 216.833 154.592C223.697 125.585 225.162 95.2977 212.843 74.769C198.87 51.4878 167.071 38.0367 128.583 31.5502ZM111.999 117.331C111.999 119.573 112.076 121.246 112.177 122.488C113.418 122.589 115.091 122.665 117.333 122.665C119.581 122.665 121.257 122.589 122.499 122.488C122.6 121.246 122.666 119.572 122.666 117.331C122.666 115.084 122.601 113.407 122.499 112.165C121.257 112.064 119.581 111.998 117.333 111.998C115.268 111.998 113.685 112.056 112.479 112.144C112.425 112.201 112.378 112.265 112.322 112.321C112.271 112.372 112.208 112.417 112.156 112.467C112.066 113.675 112 115.259 111.999 117.331Z" fill="black"/>
</svg>
