<svg width="256" height="256" viewBox="0 0 256 256" fill="none" xmlns="http://www.w3.org/2000/svg">
<path d="M234.666 240.001C239.084 240.001 242.665 243.584 242.666 248.001C242.666 252.419 239.085 256.001 234.666 256.001H21.333C16.9147 256.001 13.333 252.419 13.333 248.001C13.3341 243.584 16.9154 240.001 21.333 240.001H234.666Z" fill="black"/>
<path fill-rule="evenodd" clip-rule="evenodd" d="M197.062 13.4697C206.613 14.3238 219.142 17.4573 228.843 27.1572C238.544 36.859 241.677 49.3874 242.531 58.9384C243.775 72.8701 236.416 84.74 228.083 93.0739L146.573 174.574C135.873 185.273 122.092 192.367 107.166 194.855L77.8538 199.741C65.1545 201.854 54.1452 190.846 56.2601 178.147L61.1455 148.834C63.6335 133.909 70.7272 120.128 81.4268 109.428L162.927 27.9176C171.26 19.5848 183.132 12.2271 197.062 13.4697ZM92.7393 120.741C84.3981 129.082 78.8667 139.823 76.9268 151.459L72.0413 180.772C71.7293 182.644 73.3569 184.269 75.2288 183.959L104.541 179.074C116.177 177.134 126.919 171.602 135.26 163.261L196.937 101.584L154.416 59.0634L92.7393 120.741ZM195.646 29.4072C188.409 28.7616 180.944 32.5374 174.25 39.2301L165.729 47.7509L208.25 90.2718L216.771 81.7509C223.464 75.0555 227.24 67.5924 226.593 60.3551C225.908 52.6978 223.512 44.4514 217.531 38.4697C211.55 32.4898 203.302 30.0926 195.646 29.4072Z" fill="black"/>
</svg>
