<svg width="256" height="256" viewBox="0 0 256 256" fill="none" xmlns="http://www.w3.org/2000/svg">
<path fill-rule="evenodd" clip-rule="evenodd" d="M199.729 69.4687C209.281 70.3225 221.808 73.4539 231.51 83.1562C241.213 92.8586 244.344 105.386 245.198 114.937C246.442 128.87 239.084 140.739 230.75 149.073L149.24 230.573C138.539 241.273 124.76 248.366 109.833 250.854L80.5208 255.74C67.8204 257.855 56.812 246.846 58.9271 234.146L63.8125 204.833C66.3004 189.907 73.3936 176.127 84.0938 165.427L165.594 83.9167C173.928 75.5828 185.797 68.2248 199.729 69.4687ZM95.4063 176.74C87.0645 185.081 81.5336 195.822 79.5938 207.458L74.7083 236.771C74.3961 238.644 76.0228 240.27 77.8958 239.958L107.208 235.073C118.845 233.133 129.585 227.602 137.927 219.26L204.938 152.25L162.417 109.729L95.4063 176.74ZM198.313 85.4062C191.075 84.7593 183.612 88.5349 176.917 95.2292L173.729 98.4167L216.25 140.937L219.438 137.75C226.132 131.054 229.907 123.592 229.26 116.354C228.575 108.696 226.18 100.451 220.198 94.4687C214.216 88.4867 205.971 86.0914 198.313 85.4062Z" fill="black"/>
<path d="M74.6667 56C79.0849 56 82.6667 59.5817 82.6667 64C82.6667 68.4183 79.0849 72 74.6667 72H32C27.5817 72 24 68.4183 24 64C24 59.5817 27.5817 56 32 56H74.6667Z" fill="black"/>
</svg>
