<svg width="256" height="256" viewBox="0 0 256 256" fill="none" xmlns="http://www.w3.org/2000/svg">
<path d="M127.99 205.333C132.408 205.333 135.99 208.915 135.99 213.333C135.99 217.752 132.408 221.333 127.99 221.333C123.573 221.331 119.99 217.75 119.99 213.333C119.99 208.916 123.573 205.336 127.99 205.333Z" fill="black"/>
<path d="M104.719 34.9063C119.997 31.0872 135.983 31.0879 151.261 34.9063C155.546 35.9776 158.154 40.3186 157.084 44.6042C156.012 48.8891 151.671 51.497 147.386 50.4271C134.654 47.2449 121.325 47.2442 108.594 50.4271C104.31 51.4945 99.9671 48.8884 98.896 44.6042C97.827 40.3203 100.436 35.9793 104.719 34.9063Z" fill="black"/>
<path fill-rule="evenodd" clip-rule="evenodd" d="M125.271 0C198.035 0.000341011 223.128 14.2989 229.844 78C232.249 79.0466 234.1 81.2429 234.563 84.0208C238.238 106.076 238.238 128.59 234.563 150.646C234.207 152.782 233.023 154.568 231.406 155.76C228.6 223.252 213.356 247.346 164.063 253.927L159.813 254.438C149.704 255.545 138.243 256 125.271 256C48.3918 256 24.7158 240.041 19.719 166.719C18.5348 165.966 17.5171 164.919 16.844 163.573C12.3632 154.608 12.3632 144.059 16.844 135.094C17.2995 134.183 17.9141 133.407 18.6252 132.76C18.617 131.193 18.6044 129.606 18.6044 128C18.6044 122.687 18.6554 117.585 18.7502 112.688C17.9842 112.02 17.3263 111.204 16.844 110.24C12.3632 101.275 12.3632 90.7252 16.844 81.7604C17.6927 80.063 19.0763 78.8274 20.6773 78.0938C27.3782 14.3116 52.4691 0 125.271 0ZM125.271 16C80.3952 16 61.1898 21.8902 50.896 34.2396C45.5664 40.6351 41.3137 50.2961 38.521 65.8333C35.7228 81.4034 34.6044 101.594 34.6044 128C34.6044 154.406 35.7228 174.597 38.521 190.167C41.3137 205.704 45.5664 215.365 50.896 221.76C61.1898 234.11 80.3952 240 125.271 240C139.733 240 151.801 239.415 161.938 238.063C174.64 236.367 183.56 233.552 190.052 229.781C196.252 226.179 200.921 221.32 204.604 214.177C212.623 198.627 215.938 172.756 215.938 128C215.938 101.594 214.819 81.4033 212.021 65.8333C209.229 50.2969 204.975 40.6352 199.646 34.2396C189.353 21.8895 170.147 16.0002 125.271 16Z" fill="black"/>
</svg>
