<svg width="256" height="256" viewBox="0 0 256 256" fill="none" xmlns="http://www.w3.org/2000/svg">
<path fill-rule="evenodd" clip-rule="evenodd" d="M128 0C216.889 1.69544e-07 234.666 8.88889 234.666 53.3333C234.666 80.4818 228.026 94.3383 202.604 101.031C202.638 102.855 202.666 104.733 202.666 106.667C202.666 157.634 191.301 169.598 135.989 170.562C135.99 170.597 136 170.632 136 170.667V245.333C136 249.752 132.418 253.333 128 253.333C123.581 253.333 120 249.752 120 245.333V170.562C64.6971 169.597 53.333 157.631 53.333 106.667C53.333 104.733 53.3506 102.855 53.3851 101.031C27.9706 94.3373 21.333 80.4783 21.333 53.3333C21.333 8.88889 39.1108 0 128 0ZM128 16C105.93 16 88.8434 16.5564 75.5518 17.9896C62.1026 19.44 53.7547 21.6798 48.4893 24.3125C43.842 26.6361 41.6445 29.206 40.1872 32.5833C38.4245 36.6695 37.333 42.9631 37.333 53.3333C37.333 66.132 39.0201 72.5851 41.3747 76.3333C43.2946 79.3881 47.0451 82.8196 57.458 85.5625C64.5942 87.4421 69.5244 93.9551 69.3851 101.333C69.3526 103.052 69.333 104.829 69.333 106.667C69.333 133.839 73.0207 142.467 77.7497 146.521C80.2577 148.669 84.5982 150.886 92.9893 152.437C101.438 153.999 112.711 154.667 128 154.667C143.288 154.667 154.561 153.999 163.01 152.437C171.401 150.886 175.742 148.669 178.25 146.521C182.979 142.467 186.666 133.839 186.666 106.667C186.666 104.881 186.638 103.118 186.604 101.333C186.465 93.9546 191.394 87.4416 198.531 85.5625C208.951 82.8193 212.704 79.3877 214.625 76.3333C216.685 73.0547 218.238 67.705 218.593 57.8437L218.666 53.3333C218.666 42.9631 217.575 36.6695 215.812 32.5833C214.355 29.206 212.157 26.6361 207.51 24.3125C202.245 21.6798 193.897 19.44 180.448 17.9896C170.479 16.9147 158.375 16.3386 143.635 16.1146L128 16Z" fill="black"/>
</svg>
