<svg width="256" height="256" viewBox="0 0 256 256" fill="none" xmlns="http://www.w3.org/2000/svg">
<path fill-rule="evenodd" clip-rule="evenodd" d="M127.995 64C151.559 64 170.662 83.1025 170.662 106.667C170.662 130.231 151.559 149.333 127.995 149.333C104.431 149.333 85.3283 130.231 85.3283 106.667C85.3283 83.1025 104.431 64 127.995 64ZM127.995 80C113.267 80 101.328 91.9391 101.328 106.667C101.328 121.394 113.267 133.333 127.995 133.333C142.723 133.333 154.662 121.394 154.662 106.667C154.662 91.9391 142.723 80 127.995 80Z" fill="black"/>
<path fill-rule="evenodd" clip-rule="evenodd" d="M128.016 0C216.905 0 245.297 53.3333 234.683 128C226.191 187.734 163.017 233.812 138.089 249.854L136.912 250.562C131.33 253.616 124.711 253.607 119.13 250.552L117.943 249.854C93.0322 233.807 29.9234 187.727 21.3492 128C10.6304 53.3335 39.1274 0.000218851 128.016 0ZM128.016 16C86.6986 16.0001 63.0465 28.2774 50.1617 45.5625C36.8532 63.4171 32.1143 90.4245 37.1825 125.729C40.7916 150.865 56.1812 174.368 75.12 194.281C93.8728 213.999 114.721 228.748 126.61 236.406C127.127 236.739 127.608 236.843 128.016 236.844C128.425 236.844 128.912 236.741 129.432 236.406C141.33 228.75 162.195 213.999 180.953 194.281C199.898 174.368 215.266 150.874 218.839 125.75C223.86 90.4323 219.129 63.4216 205.828 45.5625C192.956 28.2799 169.332 16 128.016 16Z" fill="black"/>
</svg>
