<svg width="256" height="256" viewBox="0 0 256 256" fill="none" xmlns="http://www.w3.org/2000/svg">
<path fill-rule="evenodd" clip-rule="evenodd" d="M93.3337 98.6667C109.534 98.6667 122.667 111.8 122.667 128C122.667 144.2 109.534 157.333 93.3337 157.333C77.1333 157.333 64.0003 144.2 64.0003 128C64.0003 111.8 77.1333 98.6667 93.3337 98.6667ZM93.3337 114.667C85.9699 114.667 80.0003 120.636 80.0003 128C80.0003 135.364 85.9699 141.333 93.3337 141.333C100.697 141.333 106.667 135.364 106.667 128C106.667 120.636 100.697 114.667 93.3337 114.667Z" fill="black"/>
<path fill-rule="evenodd" clip-rule="evenodd" d="M128 0C193.185 0 245.334 25.6 245.334 64C245.334 72.5641 243.745 83.1456 241.271 94.4167L239.99 99.9062C226.03 156.433 190.03 204.637 148.719 245.948L146.49 247.958C135.749 256.717 120.251 256.717 109.511 247.958L107.282 245.948C65.9708 204.637 29.9709 156.433 16.0107 99.9062L14.7295 94.4167C12.2561 83.1456 10.667 72.5641 10.667 64C10.667 25.6 62.8151 0 128 0ZM221.886 105.437C167.94 59.0055 88.0529 59.0076 34.1045 105.437C48.5685 153.971 80.5992 196.64 118.594 234.635C123.788 239.829 132.212 239.829 137.407 234.635C144.753 227.289 151.85 219.746 158.667 212.042C156.742 210.273 154.963 208.343 153.365 206.26C149.742 201.538 147.082 196.145 145.542 190.396C144.002 184.647 143.609 178.651 144.386 172.75C145.163 166.848 147.097 161.156 150.073 156C153.05 150.844 157.017 146.322 161.74 142.698C166.462 139.075 171.856 136.415 177.604 134.875C183.353 133.335 189.35 132.942 195.25 133.719C200.131 134.361 204.862 135.808 209.271 137.969C214.308 127.424 218.563 116.587 221.886 105.437ZM193.167 149.583C189.348 149.081 185.461 149.336 181.74 150.333C178.02 151.33 174.535 153.052 171.479 155.396C168.423 157.741 165.853 160.664 163.927 164C162.002 167.334 160.753 171.016 160.25 174.833C159.748 178.652 160.003 182.54 161 186.26C161.997 189.98 163.719 193.466 166.063 196.521C166.973 197.707 167.998 198.792 169.073 199.823C181.508 184.652 192.664 168.805 201.917 152.187C199.155 150.875 196.208 149.984 193.167 149.583ZM128 16C97.2439 16 70.6493 22.0835 52.3649 31.75C33.8914 41.5175 26.667 53.1328 26.667 64C26.667 70.2919 27.7998 78.602 29.8128 88.2812C87.4732 43.3953 168.52 43.4005 226.177 88.2917C228.192 78.6073 229.334 70.2945 229.334 64C229.334 53.1328 222.109 41.5175 203.636 31.75C185.351 22.0835 158.757 16 128 16Z" fill="black"/>
</svg>
