<svg width="256" height="256" viewBox="0 0 256 256" fill="none" xmlns="http://www.w3.org/2000/svg">
<path d="M53.7599 32.0618C55.4461 26.8066 61.0201 23.7919 66.3432 25.2493L67.4786 25.6243L75.0932 28.6764C132.658 51.7025 186.941 82.2063 236.541 119.406C242.268 123.701 242.268 132.298 236.541 136.593C186.941 173.792 132.658 204.296 75.0932 227.322L67.4786 230.374C61.4621 232.781 54.7395 229.135 53.4682 222.781C40.9546 160.213 40.9546 95.7861 53.4682 33.2181L53.7599 32.0618ZM67.9057 43.0306C57.5181 99.2009 57.5193 156.787 67.9057 212.958L69.1557 212.468C123.219 190.842 174.304 162.444 221.229 127.999C174.304 93.5545 123.219 65.1564 69.1557 43.5306L67.9057 43.0306Z" fill="black"/>
</svg>
