<svg width="256" height="256" viewBox="0 0 256 256" fill="none" xmlns="http://www.w3.org/2000/svg">
<path d="M128 66.6667C132.418 66.6667 136 70.2484 136 74.6667V120H181.333C185.752 120 189.333 123.582 189.333 128C189.333 132.418 185.751 136 181.333 136H136V181.333C135.999 185.751 132.418 189.333 128 189.333C123.582 189.333 120.001 185.751 120 181.333V136H74.6667C70.2488 136 66.6674 132.418 66.6667 128C66.6667 123.582 70.2484 120 74.6667 120H120V74.6667C120 70.2484 123.582 66.6667 128 66.6667Z" fill="black"/>
<path fill-rule="evenodd" clip-rule="evenodd" d="M137.75 0.0625C235.977 1.4146 256 24.6673 256 128L255.938 137.75C254.585 235.977 231.332 256 128 256L118.25 255.938C23.1894 254.629 1.37099 232.809 0.0625 137.75L0 128C0 21.3343 21.3343 0 128 0L137.75 0.0625ZM128 16C101.652 16 81.6812 17.3345 66.375 20.6354C51.2484 23.898 41.7737 28.8513 35.3125 35.3125C28.8513 41.7737 23.898 51.2484 20.6354 66.375C17.3345 81.6812 16 101.652 16 128C16 154.348 17.3342 174.319 20.6354 189.625C23.898 204.752 28.8513 214.226 35.3125 220.688C41.7736 227.148 51.2493 232.092 66.375 235.354C81.6814 238.655 101.651 240 128 240C154.349 240 174.319 238.656 189.625 235.354C204.751 232.092 214.226 227.149 220.688 220.688C227.149 214.226 232.092 204.751 235.354 189.625C238.656 174.319 240 154.349 240 128C240 101.651 238.655 81.6814 235.354 66.375C232.092 51.2493 227.148 41.7736 220.688 35.3125C214.226 28.8513 204.752 23.898 189.625 20.6354C174.319 17.3342 154.348 16 128 16Z" fill="black"/>
</svg>
