<svg width="256" height="256" viewBox="0 0 256 256" fill="none" xmlns="http://www.w3.org/2000/svg">
<path d="M128 109.333C132.418 109.333 136 112.915 136 117.333V141.333H160C164.418 141.333 168 144.915 168 149.333C168 153.752 164.418 157.333 160 157.333H136V181.333C136 185.752 132.418 189.333 128 189.333C123.581 189.333 120 185.752 120 181.333V157.333H95.9997C91.5814 157.333 87.9997 153.752 87.9997 149.333C87.9997 144.915 91.5814 141.333 95.9997 141.333H120V117.333C120 112.915 123.581 109.333 128 109.333Z" fill="black"/>
<path fill-rule="evenodd" clip-rule="evenodd" d="M128 0C204.937 2.21409e-05 213.354 11.4185 213.666 61.7083C230.027 77.1172 234.666 103.956 234.666 149.333C234.666 238.222 216.889 256 128 256C39.1108 256 21.333 238.222 21.333 149.333C21.333 103.961 25.966 77.118 42.3226 61.7083C42.6354 11.4184 51.0625 1.85326e-09 128 0ZM201.489 72.2188C152.722 78.9691 103.256 78.9709 54.4893 72.2188L53.2913 73.3542C48.1643 78.185 44.0708 85.457 41.3122 97.7813C38.5035 110.329 37.333 126.96 37.333 149.333C37.333 171.237 38.4451 187.652 41.1351 200.125C43.7866 212.418 47.7398 219.782 52.6455 224.688C57.5512 229.593 64.9145 233.546 77.208 236.198C89.6811 238.888 106.096 240 128 240C149.903 240 166.318 238.888 178.791 236.198C191.085 233.546 198.448 229.593 203.354 224.688C208.26 219.782 212.213 212.418 214.864 200.125C217.218 189.211 218.364 175.278 218.614 157.292L218.666 149.333C218.666 126.959 217.497 110.328 214.687 97.7813C211.927 85.4577 207.828 78.1857 202.698 73.3542L201.489 72.2188ZM128 16C108.988 16 95.0587 16.7141 84.7288 18.3646C74.3321 20.0262 69.0905 22.4195 66.2497 24.625C63.8723 26.4724 61.9425 29.1271 60.5413 34.7292C59.2312 39.9685 58.6218 46.9214 58.4163 56.6042C64.7109 57.4542 71.0185 58.1731 77.333 58.7917V53.3333C77.333 48.9151 80.9147 45.3333 85.333 45.3333C89.7513 45.3333 93.333 48.9151 93.333 53.3333V60.125C102.213 60.719 111.105 61.0707 120 61.2083V53.3333C120 48.9151 123.581 45.3333 128 45.3333C132.418 45.3333 136 48.9151 136 53.3333V61.2083C144.894 61.0722 153.786 60.7075 162.666 60.1146V53.3333C162.666 48.9151 166.248 45.3333 170.666 45.3333C175.085 45.3333 178.666 48.9151 178.666 53.3333V58.7917C184.974 58.1743 191.275 57.4634 197.562 56.6146C197.357 46.9263 196.758 39.9709 195.448 34.7292C194.047 29.1255 192.126 26.4718 189.75 24.625C186.912 22.4193 181.672 20.0271 171.271 18.3646C163.525 17.1267 153.754 16.4148 141.333 16.1354L128 16Z" fill="black"/>
</svg>
