<svg width="256" height="256" viewBox="0 0 256 256" fill="none" xmlns="http://www.w3.org/2000/svg">
<path fill-rule="evenodd" clip-rule="evenodd" d="M32.1354 57.0833C32.0493 55.8444 32 54.5942 32 53.3333C32 23.8781 42.6667 0 85.3333 0C106.667 0 120 13.3333 128 26.6667C136 13.3333 149.333 0 170.667 0C213.333 0 224 23.8781 224 53.3333C224 54.5982 223.93 55.8509 223.844 57.0938C223.719 57.07 223.594 57.0443 223.469 57.0208C247.854 61.5676 255.999 71.7237 256 94.4375C256 107.988 252.506 116.15 244.406 121.042C245.041 129.561 245.333 138.962 245.333 149.333C245.333 238.22 225.777 256 128 256C30.2233 256 10.6671 238.22 10.6667 149.333C10.6667 138.959 10.9412 129.553 11.5729 121.031C3.48816 116.137 0 107.976 0 94.4375C0.00105785 71.8464 8.05616 61.666 32.1354 57.0833ZM27.2917 126.177C26.8897 133.038 26.6667 140.718 26.6667 149.333C26.6669 194.405 32.1501 213.9 43.4271 224.156C49.0584 229.275 57.5667 233.403 71.5 236.135C83.9395 238.574 99.7431 239.718 120 239.948V127.365C75.8641 127.565 46.1249 129.243 27.2917 126.177ZM228.688 126.177C211.202 129.017 184.323 127.762 145.26 127.406L136 127.365V239.948C156.257 239.718 172.06 238.574 184.5 236.135C198.433 233.403 206.942 229.275 212.573 224.156C223.85 213.9 229.333 194.405 229.333 149.333C229.333 140.718 229.093 133.038 228.688 126.177ZM120 69.3438C98.2481 69.3515 80.4852 69.4081 65.8646 69.9688C49.3297 70.6028 37.9781 71.848 30.1146 73.9375C22.4681 75.9698 19.9462 78.3172 18.8229 79.9063C17.5109 81.7638 16.0005 85.5648 16 94.4375C16 102.976 17.7188 105.464 18.4063 106.229C19.2326 107.149 21.785 109.156 30.4375 110.49C38.9998 111.81 50.7937 112.098 67.375 111.969C81.5817 111.858 99.4263 111.457 120 111.365V69.3438ZM136 111.365C156.574 111.457 174.418 111.858 188.625 111.969C205.206 112.098 217 111.81 225.563 110.49C234.215 109.156 236.767 107.149 237.594 106.229C238.281 105.464 240 102.976 240 94.4375C240 85.5648 238.489 81.7638 237.177 79.9063C236.054 78.3172 233.532 75.9698 225.885 73.9375C218.022 71.848 206.67 70.6028 190.135 69.9688C175.515 69.4081 157.752 69.3515 136 69.3438V111.365ZM85.3333 16C66.9564 16 58.9592 21.0451 54.9896 25.8333C50.5133 31.2336 48 40.0257 48 53.3333C48 53.8884 48.0177 54.4404 48.0417 54.9896C46.3789 55.1345 44.7684 55.2955 43.2083 55.4688C62.7247 53.3274 90.1555 53.3333 128 53.3333C124.352 53.3333 120.801 53.3523 117.344 53.3542C117.337 53.3402 117.333 53.3333 117.333 53.3333C117.333 53.3333 117.958 50.2499 119.49 45.5625C118.164 42.2339 116.461 38.5283 114.281 34.8958C107.727 23.9733 98.7137 16 85.3333 16ZM170.667 16C157.286 16 148.273 23.9733 141.719 34.8958C139.539 38.5283 137.836 42.2339 136.51 45.5625C138.042 50.2499 138.667 53.3333 138.667 53.3333C138.667 53.3333 138.654 53.3375 138.646 53.3542C135.192 53.3523 131.644 53.3333 128 53.3333C165.798 53.3333 193.207 53.3353 212.719 55.4688C211.178 55.2981 209.589 55.1325 207.948 54.9896C207.972 54.4403 208 53.8886 208 53.3333C208 40.0257 205.487 31.2336 201.01 25.8333C197.041 21.0451 189.044 16 170.667 16Z" fill="black"/>
</svg>
