<svg width="256" height="256" viewBox="0 0 256 256" fill="none" xmlns="http://www.w3.org/2000/svg">
<path d="M192 98.6667C196.418 98.6667 200 102.248 200 106.667C200 111.085 196.418 114.667 192 114.667H181.333C176.915 114.667 173.333 111.085 173.333 106.667C173.333 102.248 176.915 98.6667 181.333 98.6667H192Z" fill="black"/>
<path fill-rule="evenodd" clip-rule="evenodd" d="M126.635 0C193.198 0.000590887 215.424 11.6973 221.021 64.2708C248.651 76.1393 256 99.6593 256 144C256 193.525 246.824 217.044 210.469 227.396C202.24 249.948 175.913 256 128 256L121.646 255.958C77.7563 255.417 53.4055 248.929 45.5417 227.406C9.17596 217.056 0 193.53 0 144C0 101.255 6.82775 77.8551 32.0729 65.5938C37.4384 11.8891 59.5132 0 126.635 0ZM66.6354 168C64.2925 173.956 62.2628 181.047 60.7083 189.542C55.7621 216.575 60.5531 225.463 66.3542 229.896C70.1918 232.828 76.5511 235.538 87.125 237.385C97.6204 239.219 111.044 240 128 240C144.956 240 158.38 239.219 168.875 237.385C179.449 235.538 185.808 232.828 189.646 229.896C195.447 225.463 200.238 216.575 195.292 189.542C193.737 181.047 191.708 173.956 189.365 168H66.6354ZM128 69.3333C101.551 69.3333 81.1912 70.2776 65.4167 72.6875C49.5836 75.1064 39.6999 78.8178 33.25 83.3854C21.7353 91.5416 16 106.308 16 144C16 181.692 21.7353 196.458 33.25 204.615C35.7991 206.42 38.8995 208.053 42.6771 209.563C42.633 204.25 43.1041 198.366 44.0938 191.854L44.9688 186.667C46.2817 179.491 47.9357 173.024 49.8958 167.198C47.2037 165.91 45.3333 163.184 45.3333 160C45.3333 155.582 48.9151 152 53.3333 152H202.667C207.085 152 210.667 155.582 210.667 160C210.667 163.187 208.79 165.912 206.094 167.198C208.054 173.025 209.718 179.489 211.031 186.667C212.607 195.279 213.368 202.874 213.313 209.563C217.094 208.052 220.199 206.421 222.75 204.615C234.265 196.458 240 181.692 240 144C240 106.308 234.265 91.5416 222.75 83.3854C216.3 78.8178 206.416 75.1064 190.583 72.6875C174.809 70.2776 154.449 69.3333 128 69.3333ZM126.635 16C106.975 16 92.4083 17.0654 81.4375 19.5625C70.7008 22.007 64.4249 25.5951 60.25 30C56.0036 34.4823 52.4563 41.3688 50.0625 53.0833C49.6371 55.1655 49.2664 57.3657 48.9271 59.6875C67.757 54.9541 93.3804 53.3333 128 53.3333C160.892 53.3333 185.668 54.7763 204.208 58.9792C203.902 56.9179 203.59 54.9514 203.208 53.0833C200.815 41.3704 197.266 34.4825 193.021 30C188.847 25.5946 182.569 22.0074 171.833 19.5625C160.863 17.0649 146.296 16.0002 126.635 16Z" fill="black"/>
</svg>
