<svg width="256" height="256" viewBox="0 0 256 256" fill="none" xmlns="http://www.w3.org/2000/svg">
<path d="M47.3652 142.031C47.3649 127.948 35.9431 116.522 21.8444 116.521H10.9277C8.6653 116.521 6.50697 115.564 4.99023 113.885C3.47337 112.205 2.73869 109.96 2.9694 107.708C5.31738 84.7912 10.8954 67.3788 23.3652 55.375C34.5115 44.6456 50.0154 39.3503 69.9798 36.8542C72.2943 16.1181 89.8845 1.8661e-06 111.24 0C132.71 0.000685749 150.381 16.2911 152.542 37.1875C171.709 39.8629 186.635 45.3179 197.376 56.0521C208.119 66.7899 213.563 81.711 216.24 100.875C237.087 103.086 253.334 120.715 253.334 142.146C253.332 163.461 237.259 181.002 216.574 183.365C214.075 203.353 208.782 218.872 198.021 230.021C185.992 242.485 168.544 248.059 145.574 250.396C143.323 250.625 141.075 249.891 139.396 248.375C137.718 246.859 136.762 244.699 136.761 242.438V231.385C136.761 217.302 125.339 205.876 111.24 205.875C97.1406 205.875 85.7199 217.302 85.7194 231.385V242.667C85.7194 244.913 84.7728 247.057 83.1152 248.573C81.4578 250.088 79.2369 250.836 77.0007 250.635C53.1574 248.487 35.0791 243.115 22.6361 230.656C10.1946 218.199 4.83708 200.106 2.69857 176.25C2.49945 174.016 3.24861 171.802 4.76107 170.146C6.27663 168.488 8.42138 167.542 10.6673 167.542H21.8444C35.9433 167.54 47.3652 156.115 47.3652 142.031ZM63.3652 142.031C63.3652 164.958 44.7727 183.54 21.8444 183.542H19.6256C22.0643 201.079 26.6956 212.07 33.959 219.344C41.2212 226.615 52.1995 231.251 69.7194 233.698V231.385C69.7199 208.458 88.3112 189.875 111.24 189.875C134.169 189.876 152.761 208.459 152.761 231.385V233.333C169.214 230.75 179.593 226.084 186.511 218.917C194.635 210.5 199.388 197.216 201.396 174.938L201.678 173.438C202.644 170.071 205.743 167.647 209.365 167.646H211.813C225.911 167.644 237.332 156.228 237.334 142.146C237.334 128.063 225.912 116.637 211.813 116.635H209.136C205.033 116.635 201.595 113.53 201.178 109.448C199.009 88.1685 194.159 75.4557 186.063 67.3646C177.966 59.273 165.242 54.4269 143.949 52.2604C139.867 51.8429 136.761 48.4053 136.761 44.3021V41.5104C136.761 27.4268 125.34 16.0007 111.24 16C97.1403 16 85.7194 27.4263 85.7194 41.5104V44.0729C85.7185 48.2105 82.5585 51.6679 78.4382 52.0417C56.1694 54.0484 42.8812 58.7988 34.459 66.9063C27.2968 73.8023 22.6233 84.1374 20.0319 100.521H21.8444C44.7725 100.522 63.3649 119.105 63.3652 142.031Z" fill="black"/>
</svg>
