<svg width="256" height="256" viewBox="0 0 256 256" fill="none" xmlns="http://www.w3.org/2000/svg">
<path d="M127.998 186.675C132.416 186.675 135.998 190.257 135.998 194.675C135.995 199.091 132.414 202.675 127.998 202.675C123.583 202.673 120 199.09 119.998 194.675C119.998 190.258 123.581 186.677 127.998 186.675Z" fill="black"/>
<path d="M117.591 43.6958C127.354 41.7539 137.473 42.5858 146.789 46.0917C156.104 49.5982 164.251 55.6436 170.31 63.5396C176.369 71.4363 180.095 80.8738 181.071 90.7792C182.045 100.684 180.233 110.675 175.831 119.602C171.428 128.525 164.614 136.045 156.164 141.3C149.995 145.136 143.126 147.636 135.998 148.717V160.008C135.995 164.425 132.414 168.008 127.998 168.008C123.583 168.006 120 164.423 119.998 160.008V141.342C119.998 137.199 123.151 133.792 127.185 133.383C127.453 133.356 127.723 133.342 127.998 133.342L130.602 133.248C136.659 132.826 142.539 130.935 147.716 127.717C153.632 124.038 158.395 118.766 161.477 112.519C164.558 106.271 165.835 99.2842 165.154 92.3521C164.471 85.418 161.854 78.8071 157.612 73.2792C153.371 67.7526 147.664 63.5249 141.144 61.0708C134.624 58.6181 127.548 58.0351 120.716 59.3938C113.884 60.7536 107.561 63.9964 102.477 68.7583C97.3941 73.5203 93.7385 79.6142 91.9352 86.3417C90.7898 90.6051 86.4084 93.1387 82.1435 91.9979C77.8798 90.8541 75.3387 86.4708 76.4769 82.2063C79.0528 72.5928 84.2761 63.8855 91.5394 57.0813C98.8034 50.2779 107.83 45.6384 117.591 43.6958Z" fill="black"/>
</svg>
