<svg width="256" height="256" viewBox="0 0 256 256" fill="none" xmlns="http://www.w3.org/2000/svg">
<path d="M128 186.667C132.418 186.667 136 190.248 136 194.667C136 199.085 132.418 202.667 128 202.667C123.582 202.667 120 199.085 120 194.667C120 190.248 123.582 186.667 128 186.667Z" fill="black"/>
<path d="M117.594 43.6875C127.357 41.7455 137.475 42.5769 146.792 46.0833C156.106 49.5899 164.253 55.6353 170.313 63.5313C176.372 71.4282 180.097 80.865 181.073 90.7708C182.049 100.677 180.236 110.666 175.833 119.594C171.431 128.519 164.618 136.036 156.167 141.292C149.997 145.128 143.129 147.627 136 148.708V160C136 164.418 132.418 168 128 168C123.582 168 120 164.418 120 160V141.333C120 136.915 123.582 133.333 128 133.333C134.968 133.333 141.801 131.388 147.719 127.708C153.636 124.029 158.397 118.76 161.479 112.51C164.561 106.262 165.839 99.2772 165.156 92.3438C164.473 85.4092 161.857 78.799 157.615 73.2708C153.373 67.7442 147.666 63.5166 141.146 61.0625C134.626 58.6092 127.551 58.0267 120.719 59.3854C113.885 60.7448 107.565 63.9871 102.479 68.75C97.3943 73.5125 93.7413 79.604 91.9375 86.3333C90.7943 90.5999 86.4125 93.1308 82.1458 91.9896C77.879 90.8463 75.3374 86.4648 76.4792 82.1979C79.0556 72.5826 84.2763 63.8777 91.5417 57.0729C98.8068 50.2685 107.831 45.6296 117.594 43.6875Z" fill="black"/>
<path fill-rule="evenodd" clip-rule="evenodd" d="M128 0C198.692 0 256 57.3076 256 128C256 198.692 198.692 256 128 256C57.3076 256 0 198.692 0 128C0 57.3076 57.3076 0 128 0ZM128 16C66.1441 16 16 66.1441 16 128C16 189.856 66.1441 240 128 240C189.856 240 240 189.856 240 128C240 66.1441 189.856 16 128 16Z" fill="black"/>
</svg>
