<svg width="256" height="256" viewBox="0 0 256 256" fill="none" xmlns="http://www.w3.org/2000/svg">
<path d="M128 186.667C132.418 186.667 136 190.248 136 194.667C136 199.085 132.418 202.667 128 202.667C123.582 202.667 120 199.085 120 194.667C120 190.248 123.582 186.667 128 186.667Z" fill="black"/>
<path d="M117.594 43.6875C127.357 41.7455 137.475 42.5769 146.792 46.0833C156.106 49.5899 164.253 55.6353 170.313 63.5313C176.372 71.4282 180.097 80.865 181.073 90.7708C182.049 100.677 180.236 110.666 175.833 119.594C171.431 128.519 164.618 136.036 156.167 141.292C149.997 145.128 143.129 147.627 136 148.708V160C136 164.418 132.418 168 128 168C123.582 168 120 164.418 120 160V141.333C120 136.915 123.582 133.333 128 133.333C134.968 133.333 141.801 131.388 147.719 127.708C153.636 124.029 158.397 118.76 161.479 112.51C164.561 106.262 165.839 99.2772 165.156 92.3438C164.473 85.4092 161.857 78.799 157.615 73.2708C153.373 67.7442 147.666 63.5166 141.146 61.0625C134.626 58.6092 127.551 58.0267 120.719 59.3854C113.885 60.7448 107.565 63.9871 102.479 68.75C97.3943 73.5125 93.7413 79.604 91.9375 86.3333C90.7943 90.5999 86.4125 93.1308 82.1458 91.9896C77.879 90.8463 75.3374 86.4648 76.4792 82.1979C79.0556 72.5826 84.2763 63.8777 91.5417 57.0729C98.8068 50.2685 107.831 45.6296 117.594 43.6875Z" fill="black"/>
<path fill-rule="evenodd" clip-rule="evenodd" d="M137.75 0.0625C235.979 1.41443 256 24.666 256 128L255.938 137.75C254.586 235.979 231.334 256 128 256L118.25 255.938C20.0211 254.586 0 231.334 0 128C6.76816e-07 21.3333 21.3333 0 128 0L137.75 0.0625ZM128 16C101.652 16 81.6814 17.3344 66.375 20.6354C51.2482 23.8981 41.7737 28.8513 35.3125 35.3125C28.8513 41.7737 23.8981 51.2482 20.6354 66.375C17.3344 81.6814 16 101.652 16 128C16 154.348 17.3344 174.319 20.6354 189.625C23.8981 204.752 28.8513 214.226 35.3125 220.688C41.7737 227.149 51.2482 232.102 66.375 235.365C81.6814 238.666 101.652 240 128 240C154.348 240 174.319 238.666 189.625 235.365C204.752 232.102 214.226 227.149 220.688 220.688C227.149 214.226 232.102 204.752 235.365 189.625C238.666 174.319 240 154.348 240 128C240 101.652 238.666 81.6814 235.365 66.375C232.102 51.2482 227.149 41.7737 220.688 35.3125C214.226 28.8513 204.752 23.8981 189.625 20.6354C174.319 17.3344 154.348 16 128 16Z" fill="black"/>
</svg>
