<svg width="256" height="256" viewBox="0 0 256 256" fill="none" xmlns="http://www.w3.org/2000/svg">
<path fill-rule="evenodd" clip-rule="evenodd" d="M85.3333 117.335C108.897 117.335 128 136.437 128 160.001C128 183.565 108.897 202.668 85.3333 202.668C61.7692 202.668 42.6667 183.565 42.6667 160.001C42.6667 136.437 61.7692 117.335 85.3333 117.335ZM85.3333 133.335C70.6057 133.335 58.6667 145.274 58.6667 160.001C58.6667 174.729 70.6057 186.668 85.3333 186.668C100.061 186.668 112 174.729 112 160.001C112 145.274 100.061 133.335 85.3333 133.335Z" fill="black"/>
<path d="M158.688 120.105C163.044 119.381 167.17 122.332 167.896 126.689C171.571 148.745 171.571 171.258 167.896 193.314C167.17 197.671 163.044 200.621 158.688 199.897C154.33 199.171 151.38 195.046 152.104 190.689C155.49 170.372 155.49 149.63 152.104 129.314C151.38 124.957 154.33 120.832 158.688 120.105Z" fill="black"/>
<path d="M201.354 120.105C205.711 119.381 209.836 122.332 210.563 126.689C214.238 148.745 214.238 171.258 210.563 193.314C209.836 197.671 205.711 200.621 201.354 199.897C196.997 199.171 194.047 195.046 194.771 190.689C198.157 170.372 198.157 149.63 194.771 129.314C194.047 124.957 196.997 120.832 201.354 120.105Z" fill="black"/>
<path fill-rule="evenodd" clip-rule="evenodd" d="M45.3333 2.66797C49.7492 2.67078 53.3333 6.25143 53.3333 10.668V69.6367C71.6994 65.4635 96.0093 64.0013 128 64.0013C234.667 64.0013 256 80.0013 256 160.001C256 240.001 234.667 256.001 128 256.001C21.3333 256.001 0 240.001 0 160.001C0 111.525 7.84404 86.5749 37.75 74.418C37.6111 74.4744 37.4713 74.5276 37.3333 74.5846V10.668C37.3333 6.24969 40.9151 2.66797 45.3333 2.66797ZM128 80.0013C101.565 80.0013 81.258 81.0023 65.5521 83.543C49.8168 86.0886 40.0236 89.9894 33.6042 94.8034C21.8089 103.65 16 119.88 16 160.001C16 200.122 21.8089 216.353 33.6042 225.199C40.0236 230.013 49.8168 233.914 65.5521 236.46C81.258 239 101.565 240.001 128 240.001C154.435 240.001 174.742 239 190.448 236.46C206.183 233.914 215.976 230.013 222.396 225.199C234.191 216.353 240 200.122 240 160.001C240 119.88 234.191 103.65 222.396 94.8034C215.976 89.9894 206.183 86.0886 190.448 83.543C174.742 81.0023 154.435 80.0013 128 80.0013Z" fill="black"/>
</svg>
