<svg width="256" height="256" viewBox="0 0 256 256" fill="none" xmlns="http://www.w3.org/2000/svg">
<path d="M79.6771 69.0104C82.8013 65.8862 87.8654 65.8862 90.9896 69.0104C94.1138 72.1346 94.1138 77.1987 90.9896 80.3229C80.0261 91.2864 71.4041 104.365 65.6458 118.76L61.9583 128L65.6458 137.24C71.4041 151.635 80.0261 164.714 90.9896 175.677C94.1138 178.801 94.1138 183.865 90.9896 186.99C87.8654 190.114 82.8013 190.114 79.6771 186.99C67.1824 174.495 57.3547 159.594 50.7917 143.188L45.9063 130.969C45.1443 129.063 45.1443 126.937 45.9063 125.031L50.7917 112.813C57.3547 96.4065 67.1824 81.5051 79.6771 69.0104Z" fill="black"/>
<path d="M145.094 67.8854C148.84 65.5439 153.773 66.6811 156.115 70.4271C158.456 74.1735 157.319 79.106 153.573 81.4479C138.607 90.8016 126.593 104.129 118.833 119.875C129.7 119.677 139.366 119.294 148.552 119.167C160.553 119 171.494 119.286 180.604 121.563C190.053 123.925 198.106 128.582 203.479 137.313C208.614 145.658 210.667 156.75 210.667 170.677C210.662 175.091 207.082 178.677 202.667 178.677C198.25 178.677 194.669 175.083 194.667 170.667C194.666 157.932 192.718 150.341 189.854 145.688C187.228 141.422 183.276 138.731 176.729 137.094C169.842 135.372 160.775 135 148.781 135.167C140.231 135.285 129.962 135.686 118.719 135.885C126.474 151.735 138.532 165.151 153.573 174.552C157.319 176.894 158.456 181.827 156.115 185.573C153.773 189.319 148.84 190.456 145.094 188.115C125.172 175.663 109.725 157.198 101 135.385L99.3125 131.156C99.2965 131.119 99.2863 131.079 99.2708 131.042L99.2396 130.969C99.1477 130.739 99.101 130.496 99.0313 130.26C98.819 129.542 98.6671 128.787 98.6667 128C98.6672 127.216 98.8099 126.466 99.0208 125.75C99.0914 125.51 99.1461 125.265 99.2396 125.031L101 120.615C109.725 98.8022 125.172 80.3368 145.094 67.8854Z" fill="black"/>
<path fill-rule="evenodd" clip-rule="evenodd" d="M128 0C234.667 0 256 21.3333 256 128C256 234.667 234.667 256 128 256C21.3333 256 0 234.667 0 128C0 21.3333 21.3333 0 128 0ZM128 16C101.652 16 81.6814 17.3344 66.375 20.6354C51.2482 23.8981 41.7737 28.8513 35.3125 35.3125C28.8513 41.7737 23.8981 51.2482 20.6354 66.375C17.3344 81.6814 16 101.652 16 128C16 154.348 17.3344 174.319 20.6354 189.625C23.8981 204.752 28.8513 214.226 35.3125 220.688C41.7737 227.149 51.2482 232.102 66.375 235.365C81.6814 238.666 101.652 240 128 240C154.348 240 174.319 238.666 189.625 235.365C204.752 232.102 214.226 227.149 220.688 220.688C227.149 214.226 232.102 204.752 235.365 189.625C238.666 174.319 240 154.348 240 128C240 101.652 238.666 81.6814 235.365 66.375C232.102 51.2482 227.149 41.7737 220.688 35.3125C214.226 28.8513 204.752 23.8981 189.625 20.6354C174.319 17.3344 154.348 16 128 16Z" fill="black"/>
</svg>
