<svg width="256" height="256" viewBox="0 0 256 256" fill="none" xmlns="http://www.w3.org/2000/svg">
<path d="M102.427 67.8854C106.173 65.5439 111.106 66.6811 113.448 70.4271C115.789 74.1735 114.652 79.106 110.906 81.4479C95.9073 90.8222 83.8725 104.188 76.1146 119.979C94.3834 119.938 110.445 119.143 124.865 118.75C139.386 118.354 152.455 118.37 163.292 120.354C174.287 122.368 184.003 126.596 190.719 135.406C197.301 144.042 200 155.796 200 170.667C200 175.085 196.418 178.667 192 178.667C187.582 178.667 184 175.085 184 170.667C184 157.396 181.537 149.745 178 145.104C174.597 140.639 169.238 137.711 160.406 136.094C151.416 134.447 139.897 134.352 125.292 134.75C111.323 135.131 94.6721 135.938 76.1042 135.979C83.8614 151.787 95.8954 165.17 110.906 174.552C114.652 176.894 115.789 181.827 113.448 185.573C111.106 189.319 106.173 190.456 102.427 188.115C82.5054 175.663 67.0586 157.198 58.3333 135.385L56.5729 130.969C55.811 129.063 55.811 126.937 56.5729 125.031L58.3333 120.615C67.0586 98.8022 82.5054 80.3368 102.427 67.8854Z" fill="black"/>
<path fill-rule="evenodd" clip-rule="evenodd" d="M128 0C234.667 0 256 21.3333 256 128C256 234.667 234.667 256 128 256C21.3333 256 0 234.667 0 128C0 21.3333 21.3333 0 128 0ZM128 16C101.652 16 81.6814 17.3344 66.375 20.6354C51.2482 23.8981 41.7737 28.8513 35.3125 35.3125C28.8513 41.7737 23.8981 51.2482 20.6354 66.375C17.3344 81.6814 16 101.652 16 128C16 154.348 17.3344 174.319 20.6354 189.625C23.8981 204.752 28.8513 214.226 35.3125 220.688C41.7737 227.149 51.2482 232.102 66.375 235.365C81.6814 238.666 101.652 240 128 240C154.348 240 174.319 238.666 189.625 235.365C204.752 232.102 214.226 227.149 220.688 220.688C227.149 214.226 232.102 204.752 235.365 189.625C238.666 174.319 240 154.348 240 128C240 101.652 238.666 81.6814 235.365 66.375C232.102 51.2482 227.149 41.7737 220.688 35.3125C214.226 28.8513 204.752 23.8981 189.625 20.6354C174.319 17.3344 154.348 16 128 16Z" fill="black"/>
</svg>
