<svg width="256" height="256" viewBox="0 0 256 256" fill="none" xmlns="http://www.w3.org/2000/svg">
<path d="M205.333 184.001C209.749 184.003 213.333 187.584 213.333 192.001C213.333 196.417 209.749 199.998 205.333 200.001C200.915 200.001 197.333 196.419 197.333 192.001C197.333 187.582 200.915 184.001 205.333 184.001Z" fill="black"/>
<path d="M205.333 141.334C209.749 141.337 213.333 144.917 213.333 149.334C213.333 153.751 209.749 157.331 205.333 157.334C200.915 157.334 197.333 153.752 197.333 149.334C197.333 144.916 200.915 141.334 205.333 141.334Z" fill="black"/>
<path d="M205.333 98.6674C209.749 98.6702 213.333 102.251 213.333 106.667C213.333 111.084 209.749 114.665 205.333 114.667C200.915 114.667 197.333 111.086 197.333 106.667C197.333 102.249 200.915 98.6674 205.333 98.6674Z" fill="black"/>
<path fill-rule="evenodd" clip-rule="evenodd" d="M154.344 5.01111C157.468 1.88692 162.532 1.88692 165.656 5.01111C168.78 8.13531 168.78 13.1994 165.656 16.3236L139.229 42.7403C236.18 44.0454 256 63.6563 256 149.334C256 238.223 234.667 256.001 128 256.001C21.3333 256.001 0 238.223 0 149.334C0 63.6594 19.8184 44.0467 116.76 42.7403L90.3438 16.3236C87.2196 13.1994 87.2196 8.13531 90.3438 5.01111C93.4679 1.88692 98.5321 1.88692 101.656 5.01111L128 31.3549L154.344 5.01111ZM128 58.6674C101.594 58.6674 81.4034 59.7857 65.8333 62.584C50.2958 65.3767 40.6352 69.6294 34.2396 74.959C21.8893 85.2525 16 104.457 16 149.334C16 194.211 21.8893 213.416 34.2396 223.709C40.6352 229.039 50.2958 233.291 65.8333 236.084C81.4034 238.882 101.594 240.001 128 240.001C136.865 240.001 145.028 239.857 152.552 239.584C158.875 179.578 158.875 119.079 152.552 59.0736C145.028 58.8003 136.864 58.6674 128 58.6674ZM168.729 59.9694C174.813 119.387 174.812 179.27 168.729 238.688C176.713 238.068 183.824 237.224 190.167 236.084C205.704 233.291 215.365 229.039 221.76 223.709C234.111 213.416 240 194.211 240 149.334C240 104.457 234.111 85.2525 221.76 74.959C215.365 69.6294 205.704 65.3767 190.167 62.584C183.824 61.4441 176.714 60.5898 168.729 59.9694Z" fill="black"/>
</svg>
