<svg width="256" height="256" viewBox="0 0 256 256" fill="none" xmlns="http://www.w3.org/2000/svg">
<path fill-rule="evenodd" clip-rule="evenodd" d="M128 64C145.673 64 160 78.3269 160 96C160 113.673 145.673 128 128 128C110.327 128 96.0002 113.673 96.0002 96C96.0002 78.3269 110.327 64.0001 128 64ZM128 80C119.164 80.0001 112 87.1635 112 96C112 104.837 119.164 112 128 112C136.837 112 144 104.837 144 96C144 87.1634 136.837 80 128 80Z" fill="black"/>
<path fill-rule="evenodd" clip-rule="evenodd" d="M128 0C157.759 0 205.935 18.452 212.542 106.823C218.42 109.246 224.223 111.864 229.938 114.677L236.052 117.688L238.157 118.885C242.872 121.944 246.155 126.837 247.167 132.438L248.209 138.51C253.077 168.956 253.332 199.975 248.969 230.521L247.427 241.354L247.157 242.667C245.542 248.613 239.142 251.965 233.334 249.906L232.094 249.385L211.657 239.156C206.891 236.773 202.199 234.251 197.563 231.635C185.153 250.593 163.783 256 128 256C92.2177 256 70.8476 250.593 58.4377 231.635C58.4744 231.692 58.505 231.757 58.5419 231.813C55.224 233.621 51.882 235.392 48.5002 237.083L23.9065 249.385L22.6669 249.906C16.8605 251.963 10.4599 248.61 8.84399 242.667L8.57315 241.354L7.03149 230.521C2.66827 199.976 2.92376 168.955 7.7919 138.51L8.83357 132.438C9.84474 126.837 13.1295 121.945 17.844 118.885L19.9482 117.688L26.0627 114.677C31.774 111.865 37.5735 109.245 43.4482 106.823C50.0551 18.4514 98.2415 3.6788e-05 128 0ZM128 16C115.404 16 98.7229 20.1765 85.0627 34.8854C71.3581 49.6443 58.6669 77.1919 58.6669 128C58.6669 154.46 59.5558 174.876 61.8336 190.719C64.1243 206.65 67.6506 216.632 71.9794 223.125C79.4718 234.364 92.78 240 128 240C163.22 240 176.529 234.364 184.021 223.125C188.35 216.632 191.876 206.65 194.167 190.719C196.445 174.876 197.334 154.46 197.334 128C197.334 77.1919 184.642 49.6442 170.938 34.8854C157.278 20.1765 140.596 16 128 16ZM42.6982 124.552C39.4845 125.982 36.2952 127.476 33.1357 129.031L27.0107 132.042C25.7326 132.672 24.8264 133.879 24.5732 135.281C19.0312 165.981 18.4532 197.378 22.8648 228.26L23.3648 231.76L41.344 222.771C44.805 221.04 48.2241 219.225 51.6148 217.365C51.6565 217.484 51.7082 217.6 51.7502 217.719C44.8725 198.279 42.6669 169.652 42.6669 128C42.6669 126.216 42.7207 124.456 42.7502 122.719C42.7339 123.325 42.7089 123.94 42.6982 124.552ZM213.334 128C213.334 169.267 211.166 197.749 204.438 217.177C209.157 219.862 213.952 222.424 218.813 224.854L232.636 231.76L233.136 228.26C237.547 197.377 236.97 165.982 231.427 135.281C231.173 133.879 230.268 132.671 228.99 132.042L222.865 129.031C219.7 127.473 216.501 125.984 213.282 124.552C213.28 124.469 213.273 124.385 213.271 124.302C213.285 125.523 213.334 126.756 213.334 128Z" fill="black"/>
</svg>
