<svg width="256" height="256" viewBox="0 0 256 256" fill="none" xmlns="http://www.w3.org/2000/svg">
<path d="M202.667 175.999C207.085 175.999 210.667 179.58 210.667 183.999C210.667 188.417 207.085 191.999 202.667 191.999H53.3333C48.9151 191.999 45.3333 188.417 45.3333 183.999C45.3333 179.58 48.9151 175.999 53.3333 175.999H202.667Z" fill="black"/>
<path fill-rule="evenodd" clip-rule="evenodd" d="M239.677 37.0091C242.802 33.8876 247.877 33.8857 251 37.0091C254.117 40.132 254.117 45.1988 251 48.3216L190.052 109.249C243.538 115.319 256 133.78 256 181.332L255.938 187.02C254.586 244.32 231.334 255.999 128 255.999L118.25 255.957C23.1891 255.194 1.37082 242.472 0.0625 187.02L0 181.332C0 133.786 12.4584 115.322 65.9271 109.249L5 48.3216C1.87926 45.1981 1.87926 40.1327 5 37.0091C8.12333 33.8858 13.1881 33.8875 16.3125 37.0091L85.6458 106.342C86.0319 106.729 86.376 107.144 86.6667 107.582C98.7699 106.94 112.482 106.665 128 106.665C143.51 106.665 157.214 106.941 169.313 107.582C169.604 107.142 169.956 106.73 170.344 106.342L239.677 37.0091ZM128 122.665C101.512 122.665 80.9834 123.446 65 125.457C48.8866 127.484 38.6871 130.624 32.0625 134.488C26.0493 137.996 22.438 142.402 20.0104 148.967C17.3347 156.205 16 166.382 16 181.332C16 196.282 17.3347 206.459 20.0104 213.697C22.438 220.262 26.0493 224.668 32.0625 228.176C38.6871 232.04 48.8866 235.18 65 237.207C80.9834 239.218 101.512 239.999 128 239.999C154.488 239.999 175.017 239.218 191 237.207C207.113 235.18 217.313 232.04 223.938 228.176C229.951 224.668 233.562 220.262 235.99 213.697C238.665 206.459 240 196.282 240 181.332C240 166.382 238.665 156.205 235.99 148.967C233.562 142.402 229.951 137.996 223.938 134.488C217.313 130.624 207.113 127.484 191 125.457C175.017 123.446 154.488 122.665 128 122.665Z" fill="black"/>
<path d="M128 47.9987C134.302 47.9987 140.542 49.2435 146.365 51.6549C152.188 54.0672 157.48 57.604 161.938 62.0612C165.062 65.1854 165.062 70.2495 161.938 73.3737C158.813 76.4949 153.748 76.4969 150.625 73.3737C147.655 70.4033 144.131 68.0443 140.25 66.4362C136.368 64.8281 132.202 63.9987 128 63.9987C123.798 63.9987 119.632 64.828 115.75 66.4362C111.869 68.0443 108.345 70.4033 105.375 73.3737C102.252 76.4969 97.1869 76.4949 94.0625 73.3737C90.9383 70.2495 90.9383 65.1854 94.0625 62.0612C98.5197 57.604 103.812 54.0672 109.635 51.6549C115.458 49.2435 121.698 47.9987 128 47.9987Z" fill="black"/>
<path d="M128 5.33203C139.907 5.33203 151.698 7.68186 162.698 12.2383C173.697 16.7947 183.696 23.4656 192.115 31.8841C195.237 35.0069 195.235 40.0721 192.115 43.1966C188.99 46.3208 183.926 46.3208 180.802 43.1966C173.869 36.2634 165.632 30.7719 156.573 27.0195C147.514 23.2672 137.805 21.332 128 21.332C118.195 21.332 108.486 23.2672 99.4271 27.0195C90.3684 30.7719 82.1312 36.2634 75.1979 43.1966C72.0737 46.3208 67.0096 46.3208 63.8854 43.1966C60.7654 40.0721 60.7626 35.0069 63.8854 31.8841C72.3039 23.4656 82.303 16.7947 93.3021 12.2383C104.302 7.68185 116.093 5.33203 128 5.33203Z" fill="black"/>
</svg>
