<svg width="256" height="256" viewBox="0 0 256 256" fill="none" xmlns="http://www.w3.org/2000/svg">
<path fill-rule="evenodd" clip-rule="evenodd" d="M135.927 149.396C173.52 150.08 181.333 156.337 181.333 181.333L181.219 186.083C180.08 208.645 169.669 213.333 128 213.333L120.073 213.271C82.4786 212.587 74.6667 206.332 74.6667 181.333C74.6674 154.669 83.5573 149.333 128 149.333L135.927 149.396ZM128 165.333C117.072 165.333 109.008 165.666 102.969 166.448C96.8107 167.245 94.0455 168.363 92.8958 169.052C92.3476 169.381 92.1507 169.531 91.8021 170.5C91.2174 172.13 90.6669 175.258 90.6667 181.333C90.6667 187.407 91.2177 190.536 91.8021 192.167C92.151 193.137 92.3482 193.286 92.8958 193.615C94.0446 194.304 96.8084 195.421 102.969 196.219C109.008 197 117.071 197.333 128 197.333C138.929 197.333 146.992 197 153.031 196.219C159.192 195.421 161.955 194.304 163.104 193.615C163.652 193.286 163.849 193.137 164.198 192.167C164.782 190.536 165.333 187.407 165.333 181.333C165.333 175.258 164.783 172.13 164.198 170.5C163.849 169.531 163.652 169.381 163.104 169.052C161.955 168.363 159.189 167.245 153.031 166.448C146.992 165.666 138.928 165.333 128 165.333Z" fill="black"/>
<path fill-rule="evenodd" clip-rule="evenodd" d="M239.677 37.0104C242.802 33.8905 247.877 33.8875 251 37.0104C254.118 40.1327 254.116 45.1994 251 48.3229L190.052 109.25C243.537 115.32 255.999 133.783 256 181.333L255.938 187.021C254.586 244.321 231.334 256 128 256L118.25 255.958C23.1891 255.195 1.37082 242.473 0.0625 187.021L0 181.333C0.000557939 133.786 12.4611 115.321 65.9375 109.25L5.01042 48.3229C1.88967 45.1994 1.88972 40.1339 5.01042 37.0104C8.13507 33.8905 13.2107 33.8875 16.3333 37.0104L85.6563 106.344C86.0399 106.728 86.3669 107.148 86.6563 107.583C98.762 106.941 112.477 106.667 128 106.667C143.514 106.667 157.222 106.942 169.323 107.583C169.613 107.146 169.958 106.729 170.344 106.344L239.677 37.0104ZM128 122.667C101.512 122.667 80.9833 123.448 65 125.458C48.8877 127.486 38.6871 130.626 32.0625 134.49C26.0502 137.997 22.438 142.405 20.0104 148.969C17.3349 156.206 16.0002 166.385 16 181.333C16 196.281 17.3354 206.46 20.0104 213.698C22.4378 220.263 26.0501 224.669 32.0625 228.177C38.687 232.041 48.8868 235.181 65 237.208C80.9834 239.219 101.512 240 128 240C154.488 240 175.017 239.219 191 237.208C207.113 235.181 217.313 232.041 223.938 228.177C229.95 224.669 233.562 220.263 235.99 213.698C238.665 206.46 240 196.281 240 181.333C240 166.385 238.665 156.206 235.99 148.969C233.562 142.405 229.95 137.997 223.938 134.49C217.313 130.626 207.112 127.486 191 125.458C175.017 123.448 154.488 122.667 128 122.667Z" fill="black"/>
<path d="M81.7604 67.5104C110.869 52.9583 145.131 52.9583 174.24 67.5104C178.189 69.4852 179.794 74.289 177.823 78.2396C175.848 82.19 171.045 83.7956 167.094 81.8229C142.487 69.5202 113.513 69.5202 88.9063 81.8229C84.9552 83.7956 80.1523 82.19 78.1771 78.2396C76.2063 74.289 77.8108 69.4852 81.7604 67.5104Z" fill="black"/>
<path d="M60.4271 24.8438C102.962 3.57656 153.037 3.57968 195.573 24.8438C199.523 26.8185 201.127 31.6223 199.156 35.5729C197.181 39.5235 192.378 41.129 188.427 39.1563C150.393 20.1411 105.605 20.1391 67.5729 39.1563C63.622 41.1289 58.8191 39.5232 56.8438 35.5729C54.8731 31.6225 56.4776 26.8186 60.4271 24.8438Z" fill="black"/>
</svg>
