<svg width="256" height="256" viewBox="0 0 256 256" fill="none" xmlns="http://www.w3.org/2000/svg">
<path d="M96 213.333C107.782 213.333 117.333 222.885 117.333 234.667C117.333 246.449 107.782 256 96 256C84.2179 256 74.6667 246.449 74.6667 234.667C74.6667 222.885 84.2179 213.333 96 213.333Z" fill="black"/>
<path d="M181.333 213.333C193.115 213.333 202.667 222.885 202.667 234.667C202.667 246.449 193.115 256 181.333 256C169.551 256 160 246.449 160 234.667C160 222.885 169.551 213.333 181.333 213.333Z" fill="black"/>
<path d="M106.667 85.3333C112.558 85.3333 117.333 90.109 117.333 96V128C117.333 133.891 112.558 138.667 106.667 138.667C100.776 138.667 96 133.891 96 128V96C96 90.109 100.776 85.3333 106.667 85.3333Z" fill="black"/>
<path d="M149.333 85.3333C155.224 85.3333 160 90.109 160 96V128C160 133.891 155.224 138.667 149.333 138.667C143.442 138.667 138.667 133.891 138.667 128V96C138.667 90.109 143.442 85.3333 149.333 85.3333Z" fill="black"/>
<path d="M192 85.3333C197.891 85.3333 202.667 90.109 202.667 96V128C202.667 133.891 197.891 138.667 192 138.667C186.109 138.667 181.333 133.891 181.333 128V96C181.333 90.109 186.109 85.3333 192 85.3333Z" fill="black"/>
<path fill-rule="evenodd" clip-rule="evenodd" d="M10.6667 0C33.2649 0 52.565 14.061 60.3333 33.9063C74.8359 24.6871 101.243 21.3333 149.333 21.3333L159.021 21.3854C255.999 22.4091 256 39.706 256 98.2604C256 158.705 232.296 202.667 149.333 202.667L141.729 202.542C64.9122 199.906 42.6667 156.816 42.6667 98.2604V53.3333C42.6667 35.6602 28.3398 21.3333 10.6667 21.3333C4.77563 21.3333 0 16.5577 0 10.6667C0 4.77563 4.77563 0 10.6667 0ZM149.333 42.6667C122.956 42.6667 104.374 43.7018 91.1563 45.8958C77.7658 48.1189 72.3585 51.1572 70.0521 53.1771C68.3761 54.6449 66.5643 57.064 65.375 64.2292C64.0603 72.1535 64 82.5153 64 98.2604C64 126.306 69.6081 146.183 80.9167 159.052C91.7436 171.371 111.45 181.333 149.333 181.333C187.216 181.333 206.923 171.372 217.75 159.052C229.059 146.183 234.667 126.306 234.667 98.2604C234.667 82.5153 234.606 72.1535 233.292 64.2292C232.102 57.064 230.291 54.6449 228.615 53.1771C226.308 51.1572 220.901 48.1189 207.51 45.8958C194.293 43.7018 175.711 42.6667 149.333 42.6667Z" fill="black"/>
</svg>
