<svg width="256" height="256" viewBox="0 0 256 256" fill="none" xmlns="http://www.w3.org/2000/svg">
<path fill-rule="evenodd" clip-rule="evenodd" d="M180.542 66.7083C184.935 66.2714 188.851 69.4812 189.292 73.875C192.891 109.867 192.891 146.133 189.292 182.125C188.852 186.52 184.936 189.729 180.542 189.292C176.145 188.852 172.935 184.928 173.375 180.531C174.79 166.383 175.617 152.19 175.885 137.99C148.958 157.762 119.642 174.068 88.6146 186.479L84.3854 188.177C78.9793 190.339 72.9342 187.063 71.7917 181.354C64.7481 146.135 64.7478 109.865 71.7917 74.6458L72.0625 73.6042C73.5798 68.887 78.5847 66.1728 83.3646 67.4792L84.3854 67.8229L88.6146 69.5208C119.64 81.931 148.959 98.2299 175.885 118C175.617 103.8 174.79 89.606 173.375 75.4583C172.939 71.0645 176.147 67.1478 180.542 66.7083ZM86.0313 85.7396C81.3496 113.715 81.3509 142.274 86.0313 170.25C113.041 159.146 138.675 144.97 162.427 128C138.674 111.029 113.042 96.844 86.0313 85.7396Z" fill="black"/>
<path fill-rule="evenodd" clip-rule="evenodd" d="M128 0C234.667 0 256 21.3333 256 128C256 234.667 234.667 256 128 256C21.3333 256 0 234.667 0 128C0 21.3333 21.3333 0 128 0ZM128 16C101.652 16 81.6814 17.3344 66.375 20.6354C51.2482 23.8981 41.7737 28.8513 35.3125 35.3125C28.8513 41.7737 23.8981 51.2482 20.6354 66.375C17.3344 81.6814 16 101.652 16 128C16 154.348 17.3344 174.319 20.6354 189.625C23.8981 204.752 28.8513 214.226 35.3125 220.688C41.7737 227.149 51.2482 232.102 66.375 235.365C81.6814 238.666 101.652 240 128 240C154.348 240 174.319 238.666 189.625 235.365C204.752 232.102 214.226 227.149 220.688 220.688C227.149 214.226 232.102 204.752 235.365 189.625C238.666 174.319 240 154.348 240 128C240 101.652 238.666 81.6814 235.365 66.375C232.102 51.2482 227.149 41.7737 220.688 35.3125C214.226 28.8513 204.752 23.8981 189.625 20.6354C174.319 17.3344 154.348 16 128 16Z" fill="black"/>
</svg>
