<svg width="256" height="256" viewBox="0 0 256 256" fill="none" xmlns="http://www.w3.org/2000/svg">
<path fill-rule="evenodd" clip-rule="evenodd" d="M187.597 21.5198C191.908 20.5629 196.189 23.2823 197.149 27.5927C211.454 91.9642 211.454 158.7 197.149 223.072C196.189 227.382 191.908 230.102 187.597 229.145C183.286 228.185 180.566 223.905 181.524 219.593C187.249 193.831 190.582 167.677 191.555 141.457C150.319 171.054 105.65 195.584 58.4928 214.447L51.722 217.155C45.8588 219.5 39.3062 215.951 38.0657 209.759C26.9195 154.028 26.9195 96.6363 38.0657 40.9052L38.3574 39.7802C40.0021 34.66 45.4307 31.7141 50.6178 33.1344L51.722 33.5094L58.4928 36.2177C105.648 55.0801 150.32 79.6022 191.555 109.197C190.581 82.9809 187.248 56.8305 181.524 31.0719C180.566 26.7599 183.286 22.4797 187.597 21.5198ZM52.4407 51.0302C43.488 100.159 43.4892 150.495 52.4407 199.624L52.5449 199.593C100.16 180.547 145.182 155.585 186.566 125.332C145.182 95.0791 100.16 70.118 52.5449 51.0719L52.4407 51.0302Z" fill="black"/>
</svg>
