<svg width="256" height="256" viewBox="0 0 256 256" fill="none" xmlns="http://www.w3.org/2000/svg">
<path fill-rule="evenodd" clip-rule="evenodd" d="M78.1146 66.7083C82.509 67.1478 85.7175 71.0644 85.2813 75.4583C83.8664 89.606 83.0397 103.8 82.7708 118C109.697 98.2303 139.017 81.931 170.042 69.5208L174.271 67.8229L175.292 67.4792C180.071 66.1728 185.076 68.8875 186.594 73.6042L186.865 74.6458C193.908 109.865 193.908 146.135 186.865 181.354C185.722 187.063 179.677 190.339 174.271 188.177L170.042 186.479C139.015 174.068 109.698 157.761 82.7708 137.99C83.0397 152.19 83.8667 166.383 85.2813 180.531C85.7209 184.928 82.5109 188.852 78.1146 189.292C73.7213 189.727 69.804 186.519 69.3646 182.125C65.7657 146.133 65.7655 109.867 69.3646 73.875C69.8048 69.4821 73.722 66.2733 78.1146 66.7083ZM172.625 85.7396C145.615 96.8439 119.982 111.03 96.2292 128C119.981 144.969 145.617 159.146 172.625 170.25C177.305 142.274 177.307 113.715 172.625 85.7396Z" fill="black"/>
<path fill-rule="evenodd" clip-rule="evenodd" d="M128 0C234.667 0 256 21.3333 256 128C256 234.667 234.667 256 128 256C21.3333 256 0 234.667 0 128C0 21.3333 21.3333 0 128 0ZM128 16C101.652 16 81.6814 17.3344 66.375 20.6354C51.2482 23.8981 41.7737 28.8513 35.3125 35.3125C28.8513 41.7737 23.8981 51.2482 20.6354 66.375C17.3344 81.6814 16 101.652 16 128C16 154.348 17.3344 174.319 20.6354 189.625C23.8981 204.752 28.8513 214.226 35.3125 220.688C41.7737 227.149 51.2482 232.102 66.375 235.365C81.6814 238.666 101.652 240 128 240C154.348 240 174.319 238.666 189.625 235.365C204.752 232.102 214.226 227.149 220.688 220.688C227.149 214.226 232.102 204.752 235.365 189.625C238.666 174.319 240 154.348 240 128C240 101.652 238.666 81.6814 235.365 66.375C232.102 51.2482 227.149 41.7737 220.688 35.3125C214.226 28.8513 204.752 23.8981 189.625 20.6354C174.319 17.3344 154.348 16 128 16Z" fill="black"/>
</svg>
