<svg width="256" height="256" viewBox="0 0 256 256" fill="none" xmlns="http://www.w3.org/2000/svg">
<path fill-rule="evenodd" clip-rule="evenodd" d="M42.8585 27.5931C43.8191 23.2828 48.0991 20.5621 52.4106 21.5202C56.7185 22.482 59.4405 26.7623 58.4835 31.0722C52.7595 56.8311 49.4056 82.9811 48.4314 109.197C89.6698 79.5994 134.356 55.0819 181.515 36.2181L188.286 33.5097L189.39 33.1347C194.576 31.7176 200.006 34.6616 201.65 39.7806L201.942 40.9056C213.088 96.636 213.088 154.029 201.942 209.76C200.702 215.95 194.148 219.497 188.286 217.156L181.515 214.447C134.353 195.583 89.6713 171.057 48.4314 141.458C49.4051 167.678 52.7587 193.831 58.4835 219.593C59.4409 223.903 56.7187 228.183 52.4106 229.145C48.0989 230.103 43.8187 227.383 42.8585 223.072C28.5537 158.7 28.5537 91.9649 42.8585 27.5931ZM187.463 51.0722C139.848 70.1179 94.8256 95.0802 53.4419 125.333C94.8258 155.585 139.848 180.547 187.463 199.593L187.567 199.624C196.518 150.496 196.519 100.159 187.567 51.0306L187.463 51.0722Z" fill="black"/>
</svg>
