<svg width="256" height="256" viewBox="0 0 256 256" fill="none" xmlns="http://www.w3.org/2000/svg">
<path d="M173.75 157.458C175.152 153.275 179.677 151.01 183.865 152.406C188.056 153.803 190.324 158.34 188.927 162.531L181.333 160C188.923 162.53 188.918 162.537 188.917 162.542L188.906 162.573C188.901 162.588 188.892 162.606 188.885 162.625C188.872 162.664 188.863 162.717 188.844 162.771C188.805 162.881 188.751 163.02 188.688 163.188C188.56 163.525 188.381 163.982 188.146 164.531C187.675 165.63 186.968 167.125 185.99 168.885C184.036 172.402 180.946 177.034 176.323 181.656C166.924 191.056 151.594 200 128 200C104.406 200 89.0764 191.056 79.6771 181.656C75.0544 177.034 71.9641 172.402 70.0104 168.885C69.0324 167.125 68.3251 165.63 67.8542 164.531C67.6186 163.982 67.4401 163.525 67.3125 163.188C67.2492 163.02 67.1952 162.881 67.1563 162.771C67.137 162.717 67.1281 162.664 67.1146 162.625C67.1081 162.606 67.0989 162.588 67.0938 162.573L67.0833 162.552C67.0818 162.547 67.0772 162.53 74.6667 160L67.0729 162.531C65.6757 158.34 67.9439 153.803 72.1354 152.406C76.3228 151.01 80.848 153.275 82.25 157.458C82.2569 157.477 82.2697 157.501 82.2813 157.531C82.3306 157.662 82.4241 157.896 82.5625 158.219C82.8414 158.87 83.3026 159.878 83.9896 161.115C85.3693 163.598 87.6131 166.967 90.9896 170.344C97.5903 176.944 108.927 184 128 184C147.073 184 158.41 176.944 165.01 170.344C168.387 166.967 170.631 163.598 172.01 161.115C172.697 159.878 173.159 158.87 173.438 158.219C173.576 157.896 173.669 157.662 173.719 157.531L173.75 157.458Z" fill="black"/>
<path d="M80 53.3333C93.3333 53.3333 96 59.5556 96 90.6667L95.9688 96.2083C95.6273 122.531 92.5007 128 80 128L77.625 127.927C67.0951 127.183 64.35 120.778 64.0313 96.2083L64 90.6667C64 59.5556 66.6667 53.3333 80 53.3333Z" fill="black"/>
<path d="M176 53.3333C189.333 53.3333 192 59.5556 192 90.6667L191.969 96.2083C191.627 122.531 188.501 128 176 128L173.625 127.927C163.095 127.183 160.35 120.778 160.031 96.2083L160 90.6667C160 59.5556 162.667 53.3333 176 53.3333Z" fill="black"/>
<path fill-rule="evenodd" clip-rule="evenodd" d="M128 0C234.667 0 256 21.3333 256 128C256 234.667 234.667 256 128 256C21.3333 256 0 234.667 0 128C0 21.3333 21.3333 0 128 0ZM128 16C101.652 16 81.6814 17.3344 66.375 20.6354C51.2482 23.8981 41.7737 28.8513 35.3125 35.3125C28.8513 41.7737 23.8981 51.2482 20.6354 66.375C17.3344 81.6814 16 101.652 16 128C16 154.348 17.3344 174.319 20.6354 189.625C23.8981 204.752 28.8513 214.226 35.3125 220.688C41.7737 227.149 51.2482 232.102 66.375 235.365C81.6814 238.666 101.652 240 128 240C154.348 240 174.319 238.666 189.625 235.365C204.752 232.102 214.226 227.149 220.688 220.688C227.149 214.226 232.102 204.752 235.365 189.625C238.666 174.319 240 154.348 240 128C240 101.652 238.666 81.6814 235.365 66.375C232.102 51.2482 227.149 41.7737 220.688 35.3125C214.226 28.8513 204.752 23.8981 189.625 20.6354C174.319 17.3344 154.348 16 128 16Z" fill="black"/>
</svg>
