<svg width="256" height="256" viewBox="0 0 256 256" fill="none" xmlns="http://www.w3.org/2000/svg">
<path fill-rule="evenodd" clip-rule="evenodd" d="M123.698 21.332C172.096 21.332 172.096 234.665 123.698 234.665C102.443 234.664 79.2005 222.392 61.4271 202.634C10.3221 202.225 1.42965e-07 189.207 0 127.999C0 66.7903 10.322 53.7615 61.4271 53.3529C79.1998 33.5983 102.445 21.3335 123.698 21.332ZM123.698 37.332C108.263 37.3335 89.0379 46.5846 73.3229 64.0508C70.3184 67.3904 66.0442 69.3169 61.5521 69.3529C35.7597 69.5594 27.7373 73.3532 23.9271 78.0091C21.8153 80.5907 19.6603 85.0211 18.1563 93.3945C16.6455 101.807 16 112.967 16 127.999C16 143.028 16.6462 154.182 18.1563 162.592C19.6599 170.965 21.8163 175.397 23.9271 177.978C27.7366 182.632 35.7574 186.428 61.5521 186.634C66.0445 186.67 70.3184 188.596 73.3229 191.936C89.0411 209.409 108.264 218.664 123.698 218.665C123.706 218.663 123.839 218.627 124.073 218.488C124.578 218.189 125.589 217.422 126.948 215.676C129.784 212.029 132.856 205.783 135.604 196.697C141.049 178.696 144 153.717 144 127.999C144 102.281 141.049 77.3012 135.604 59.3008C132.856 50.2145 129.784 43.9684 126.948 40.3216C125.589 38.575 124.578 37.808 124.073 37.5091C123.839 37.3708 123.706 37.3344 123.698 37.332Z" fill="black"/>
<path d="M219.698 67.6549C222.822 64.5353 227.888 64.5323 231.01 67.6549C238.934 75.5784 245.212 84.9901 249.5 95.3425C253.788 105.696 256 116.793 256 127.999C256 139.205 253.788 150.302 249.5 160.655C245.212 171.007 238.934 180.419 231.01 188.342C227.888 191.465 222.822 191.462 219.698 188.342C216.574 185.218 216.574 180.154 219.698 177.03C226.136 170.592 231.234 162.942 234.719 154.53C238.203 146.118 240 137.104 240 127.999C240 118.894 238.203 109.879 234.719 101.467C231.234 93.0555 226.136 85.4056 219.698 78.9674C216.574 75.8433 216.574 70.7791 219.698 67.6549Z" fill="black"/>
<path d="M189.521 97.832C192.645 94.7078 197.709 94.7078 200.833 97.832C204.795 101.794 207.939 106.499 210.083 111.676C212.227 116.851 213.333 122.397 213.333 127.999C213.333 133.601 212.227 139.146 210.083 144.322C207.939 149.498 204.795 154.203 200.833 158.165C197.709 161.29 192.645 161.29 189.521 158.165C186.399 155.041 186.398 149.976 189.521 146.853C191.996 144.378 193.962 141.441 195.302 138.207C196.642 134.972 197.333 131.501 197.333 127.999C197.333 124.497 196.642 121.026 195.302 117.79C193.962 114.556 191.996 111.62 189.521 109.145C186.398 106.021 186.399 100.956 189.521 97.832Z" fill="black"/>
</svg>
