<svg width="256" height="256" viewBox="0 0 256 256" fill="none" xmlns="http://www.w3.org/2000/svg">
<path d="M165.01 79.8333C168.135 76.7091 173.199 76.7091 176.323 79.8333C179.447 82.9575 179.447 88.0216 176.323 91.1458L139.313 128.156L176.323 165.167C179.447 168.291 179.447 173.355 176.323 176.479C173.199 179.603 168.135 179.603 165.01 176.479L128 139.469L90.9896 176.479C87.8654 179.603 82.8013 179.603 79.6771 176.479C76.5529 173.355 76.5529 168.291 79.6771 165.167L116.688 128.156L79.6771 91.1458C76.5529 88.0216 76.5529 82.9575 79.6771 79.8333C82.8013 76.7091 87.8654 76.7091 90.9896 79.8333L128 116.844L165.01 79.8333Z" fill="black"/>
<path fill-rule="evenodd" clip-rule="evenodd" d="M128 0.15625C133.137 0.15625 137.91 2.59648 141.49 6.28125C156.991 22.2351 178.664 32.1563 202.667 32.1563C207.067 32.1563 211.386 31.8148 215.604 31.1667L219.792 30.4167C228.5 28.6287 238.181 30.4689 242.365 38.3125C252.732 57.7523 256 86.4209 256 128.156C256 224.352 151.897 251.146 131.458 255.479L129.729 255.75C128.002 255.934 126.27 255.846 124.542 255.479C104.103 251.146 0 224.352 0 128.156C0 86.4239 3.27143 57.7535 13.6354 38.3125C17.8194 30.4679 27.4987 28.6286 36.2083 30.4167C41.74 31.552 47.4656 32.1563 53.3333 32.1563C75.8335 32.1563 96.2808 23.4326 111.521 9.19792L114.5 6.28125C118.085 2.5941 122.858 0.15625 128 0.15625ZM127.448 16.3229C127.062 16.504 126.532 16.8581 125.969 17.4375C107.588 36.3508 81.8385 48.1563 53.3333 48.1563C46.3711 48.1563 39.5668 47.4438 32.9896 46.0938C30.659 45.6153 28.8215 45.779 27.8438 46.0729C27.7395 46.1044 27.6498 46.1303 27.5833 46.1563C19.4205 61.7154 16 86.5958 16 128.156C16 169.35 37.8822 195.698 63.5521 213C89.6435 230.585 118.458 237.829 127.865 239.823C127.95 239.841 128 239.844 128 239.844C128 239.844 128.05 239.841 128.135 239.823C137.542 237.829 166.356 230.585 192.448 213C218.118 195.698 240 169.35 240 128.156C240 86.5869 236.564 61.7132 228.396 46.1563C228.332 46.1317 228.253 46.1023 228.156 46.0729C227.18 45.7786 225.342 45.615 223.01 46.0938C216.435 47.4444 209.63 48.1563 202.667 48.1563C174.156 48.1563 148.395 36.3503 130.01 17.4271C129.451 16.8508 128.924 16.5026 128.542 16.3229C128.181 16.1539 128 16.1563 128 16.1563C128 16.1563 127.812 16.1524 127.448 16.3229Z" fill="black"/>
</svg>
