<svg width="256" height="256" viewBox="0 0 256 256" fill="none" xmlns="http://www.w3.org/2000/svg">
<path d="M215.102 198.226C218.546 194.785 224.127 194.783 227.57 198.226C228.733 199.389 229.636 200.785 230.227 202.32L233.424 210.622C233.652 211.21 234.117 211.677 234.706 211.904L243.008 215.091C244.542 215.682 245.939 216.595 247.102 217.758C250.541 221.201 250.542 226.784 247.102 230.226C245.939 231.389 244.541 232.292 243.008 232.883L234.706 236.081C234.116 236.308 233.652 236.772 233.424 237.362L230.227 245.664C229.636 247.198 228.733 248.595 227.57 249.758C224.128 253.2 218.546 253.197 215.102 249.758C213.939 248.595 213.026 247.199 212.435 245.664L209.247 237.362C209.02 236.771 208.546 236.308 207.956 236.081L199.664 232.883C198.129 232.292 196.733 231.389 195.57 230.226C192.127 226.783 192.127 221.202 195.57 217.758C196.733 216.595 198.129 215.682 199.664 215.091L207.956 211.904C208.545 211.677 209.02 211.211 209.247 210.622L212.435 202.32C213.026 200.785 213.938 199.39 215.102 198.226Z" fill="black"/>
<path fill-rule="evenodd" clip-rule="evenodd" d="M86.1432 27.8618C101.894 12.1116 127.433 12.1129 143.185 27.8618C148.24 32.9172 152.18 38.981 154.747 45.6535L166.456 76.0806C166.476 76.1321 166.519 76.1746 166.57 76.1952L196.997 87.9035C203.67 90.4704 209.733 94.411 214.789 99.466C230.541 115.218 230.54 140.756 214.789 156.508C209.733 161.564 203.671 165.503 196.997 168.07L166.57 179.779C166.519 179.799 166.476 179.842 166.456 179.893L154.747 210.32C152.18 216.994 148.241 223.056 143.185 228.112C127.433 243.864 101.895 243.864 86.1432 228.112C81.0883 223.056 77.1477 216.993 74.5808 210.32L62.8724 179.893C62.8517 179.842 62.8092 179.798 62.7578 179.779L32.3308 168.07C25.658 165.503 19.5947 161.563 14.5391 156.508C-1.21005 140.755 -1.21184 115.217 14.5391 99.466C19.5951 94.4102 25.6574 90.4708 32.3308 87.9035L62.7578 76.1952C62.8104 76.175 62.8522 76.1331 62.8724 76.0806L74.5808 45.6535C77.1482 38.9805 81.0875 32.9175 86.1432 27.8618ZM131.872 39.1743C122.369 29.6738 106.959 29.6725 97.4558 39.1743C93.9833 42.6468 91.2716 46.8099 89.5078 51.3931L77.8099 81.8306C76.1645 86.106 72.7832 89.4872 68.5078 91.1327L38.0703 102.831C33.4868 104.594 29.3244 107.306 25.8516 110.779C16.349 120.281 16.3508 135.691 25.8516 145.195C29.3239 148.668 33.4874 151.379 38.0703 153.143L68.5078 164.841C72.782 166.486 76.164 169.869 77.8099 174.143L89.5078 204.581C91.2711 209.163 93.984 213.327 97.4558 216.799C106.959 226.303 122.369 226.303 131.872 216.799C135.345 213.326 138.057 209.164 139.82 204.581L151.518 174.143C153.164 169.869 156.546 166.486 160.82 164.841L191.258 153.143C195.842 151.379 200.003 148.668 203.477 145.195C212.979 135.692 212.98 120.282 203.477 110.779C200.004 107.307 195.841 104.594 191.258 102.831L160.82 91.1327C156.546 89.4868 153.163 86.105 151.518 81.8306L139.82 51.3931C138.057 46.8105 135.345 42.6465 131.872 39.1743Z" fill="black"/>
<path d="M215.102 6.22642C218.546 2.78463 224.127 2.78318 227.57 6.22642C228.733 7.38936 229.636 8.78536 230.227 10.3202L233.424 18.6223C233.652 19.2103 234.117 19.677 234.706 19.9035L243.008 23.091C244.542 23.6816 245.939 24.595 247.102 25.7577C250.541 29.2012 250.542 34.7836 247.102 38.2264C245.939 39.3885 244.541 40.292 243.008 40.8827L234.706 44.0806C234.116 44.3075 233.652 44.7724 233.424 45.3618L230.227 53.6639C229.636 55.1982 228.733 56.5952 227.57 57.7577C224.128 61.1995 218.546 61.1974 215.102 57.7577C213.939 56.5948 213.026 55.1987 212.435 53.6639L209.247 45.3618C209.02 44.7714 208.546 44.3077 207.956 44.0806L199.664 40.8827C198.129 40.2922 196.733 39.3891 195.57 38.2264C192.127 34.7827 192.127 29.2017 195.57 25.7577C196.733 24.5945 198.129 23.6816 199.664 23.091L207.956 19.9035C208.545 19.6767 209.02 19.2113 209.247 18.6223L212.435 10.3202C213.026 8.78489 213.938 7.38957 215.102 6.22642Z" fill="black"/>
</svg>
