<svg width="256" height="256" viewBox="0 0 256 256" fill="none" xmlns="http://www.w3.org/2000/svg">
<path d="M186.479 58.6667C189.429 58.6675 192.258 59.8411 194.344 61.9271C202.44 70.0239 208.546 79.8975 212.167 90.7604L212.781 92.625C214.644 98.2127 211.628 104.25 206.042 106.115C200.454 107.977 194.416 104.962 192.552 99.375L191.927 97.5C191.045 94.8541 189.942 92.299 188.656 89.8438C174.385 139.579 134.306 178.26 83.2604 190.271L77.1146 191.719C71.3815 193.068 65.6323 189.513 64.2813 183.781C62.9323 178.048 66.4867 172.299 72.2188 170.948L78.375 169.5C122.756 159.058 157.43 124.955 168.906 81.3229C165.278 81.8727 161.671 82.5771 158.104 83.4688L151.917 85.0104C146.202 86.4376 140.418 82.9643 138.99 77.25C137.562 71.5357 141.036 65.7515 146.75 64.3229L152.927 62.7708C163.835 60.0439 175.038 58.6668 186.281 58.6667H186.479Z" fill="black"/>
<path fill-rule="evenodd" clip-rule="evenodd" d="M128 0C234.667 0 256 21.3333 256 128C256 234.667 234.667 256 128 256C21.3333 256 0 234.667 0 128C6.78175e-07 21.3333 21.3333 0 128 0ZM128 21.3333C101.757 21.3333 82.2421 22.6747 67.5 25.8542C52.9976 28.9821 44.5872 33.5795 39.0833 39.0833C33.5795 44.5872 28.9821 52.9976 25.8542 67.5C22.6747 82.2421 21.3333 101.757 21.3333 128C21.3333 154.243 22.6747 173.758 25.8542 188.5C28.9821 203.002 33.5795 211.413 39.0833 216.917C44.5872 222.421 52.9976 227.018 67.5 230.146C82.2421 233.325 101.757 234.667 128 234.667C154.243 234.667 173.758 233.325 188.5 230.146C203.002 227.018 211.413 222.421 216.917 216.917C222.421 211.413 227.018 203.002 230.146 188.5C233.325 173.758 234.667 154.243 234.667 128C234.667 101.757 233.325 82.2421 230.146 67.5C227.018 52.9976 222.421 44.5872 216.917 39.0833C211.413 33.5795 203.002 28.9821 188.5 25.8542C173.758 22.6747 154.243 21.3333 128 21.3333Z" fill="black"/>
</svg>
