<svg width="256" height="256" viewBox="0 0 256 256" fill="none" xmlns="http://www.w3.org/2000/svg">
<path fill-rule="evenodd" clip-rule="evenodd" d="M128.001 74.6667C172.444 74.6668 181.334 83.556 181.334 128C181.334 172.443 172.444 181.333 128.001 181.333C83.5569 181.333 74.6678 172.443 74.6676 128C74.6676 83.5556 83.5565 74.6667 128.001 74.6667ZM128.001 90.6667C117.209 90.6667 109.683 91.2234 104.293 92.3854C99.0827 93.5091 96.997 94.9624 95.9801 95.9792C94.9633 96.996 93.5101 99.0815 92.3864 104.292C91.2243 109.682 90.6676 117.208 90.6676 128C90.6677 138.792 91.2242 146.319 92.3864 151.708C93.5101 156.917 94.9634 159.004 95.9801 160.021C96.9974 161.038 99.0846 162.491 104.293 163.615C109.682 164.777 117.21 165.333 128.001 165.333C138.793 165.333 146.32 164.777 151.709 163.615C156.919 162.491 159.005 161.038 160.022 160.021C161.039 159.004 162.492 156.918 163.616 151.708C164.778 146.319 165.334 138.792 165.334 128C165.334 117.208 164.778 109.682 163.616 104.292C162.492 99.0836 161.039 96.9964 160.022 95.9792C159.005 94.9625 156.918 93.5091 151.709 92.3854C146.32 91.2233 138.793 90.6667 128.001 90.6667Z" fill="black"/>
<path fill-rule="evenodd" clip-rule="evenodd" d="M137.751 0.0625C235.978 1.4146 256.001 24.6673 256.001 128L255.938 137.75C254.586 235.977 231.333 256 128.001 256L118.251 255.938C23.1904 254.629 1.37197 232.809 0.0634766 137.75L0.000976562 128C0.000976562 21.3343 21.3353 0 128.001 0L137.751 0.0625ZM128.001 16C101.653 16 81.6822 17.3345 66.376 20.6354C51.2493 23.898 41.7746 28.8513 35.3135 35.3125C28.8523 41.7737 23.899 51.2484 20.6364 66.375C17.3354 81.6812 16.001 101.652 16.001 128C16.001 154.348 17.3352 174.319 20.6364 189.625C23.899 204.752 28.8523 214.226 35.3135 220.688C41.7746 227.148 51.2502 232.092 66.376 235.354C81.6824 238.655 101.652 240 128.001 240C154.35 240 174.32 238.656 189.626 235.354C204.752 232.092 214.227 227.149 220.688 220.688C227.15 214.226 232.093 204.751 235.355 189.625C238.657 174.319 240.001 154.349 240.001 128C240.001 101.651 238.656 81.6814 235.355 66.375C232.093 51.2493 227.149 41.7736 220.688 35.3125C214.227 28.8513 204.753 23.898 189.626 20.6354C174.32 17.3342 154.349 16 128.001 16Z" fill="black"/>
</svg>
