<svg width="256" height="256" viewBox="0 0 256 256" fill="none" xmlns="http://www.w3.org/2000/svg">
<path d="M218.666 127.999C218.666 106.095 217.554 89.6802 214.864 77.207C212.213 64.9136 208.26 57.5502 203.354 52.6445C198.448 47.7388 191.085 43.7856 178.791 41.1341C166.318 38.4442 149.903 37.332 128 37.332C106.096 37.332 89.6811 38.4442 77.208 41.1341C64.9145 43.7856 57.5512 47.7388 52.6455 52.6445C47.7398 57.5502 43.7866 64.9136 41.1351 77.207C38.4451 89.6802 37.333 106.095 37.333 127.999C37.333 149.902 38.4451 166.317 41.1351 178.79C43.7866 191.084 47.7398 198.447 52.6455 203.353C57.5512 208.259 64.9146 212.212 77.208 214.863C89.6811 217.553 106.096 218.665 128 218.665V234.665L119.875 234.613C40.6572 233.523 22.4754 215.341 21.3851 136.124L21.333 127.999C21.333 39.1098 39.1108 21.332 128 21.332L136.125 21.3841C217.982 22.5107 234.666 41.887 234.666 127.999L234.614 136.124C233.488 217.981 214.111 234.665 128 234.665V218.665C149.903 218.665 166.318 217.553 178.791 214.863C191.085 212.212 198.448 208.259 203.354 203.353C208.26 198.447 212.213 191.084 214.864 178.79C217.554 166.317 218.666 149.902 218.666 127.999Z" fill="black"/>
</svg>
