<svg width="256" height="256" viewBox="0 0 256 256" fill="none" xmlns="http://www.w3.org/2000/svg">
<path fill-rule="evenodd" clip-rule="evenodd" d="M128.002 53.3333C154.668 53.3335 160.002 58.667 160.002 85.3333C160.002 112 154.668 117.333 128.002 117.333C101.336 117.333 96.0023 112 96.0023 85.3333C96.0023 58.6667 101.336 53.3333 128.002 53.3333ZM128.002 69.3333C121.655 69.3333 117.684 69.6677 115.127 70.2188C114.256 70.4067 113.706 70.5934 113.388 70.7188C113.262 71.0368 113.076 71.5861 112.888 72.4583C112.337 75.0152 112.002 78.9857 112.002 85.3333C112.002 91.681 112.337 95.6515 112.888 98.2083C113.074 99.0724 113.262 99.6182 113.388 99.9375C113.705 100.063 114.252 100.259 115.127 100.448C117.684 100.999 121.655 101.333 128.002 101.333C134.349 101.333 138.321 100.999 140.877 100.448C141.744 100.261 142.288 100.063 142.606 99.9375C142.732 99.6186 142.93 99.0754 143.117 98.2083C143.668 95.6515 144.002 91.6808 144.002 85.3333C144.002 78.9859 143.668 75.0152 143.117 72.4583C142.928 71.583 142.732 71.0363 142.606 70.7188C142.287 70.5936 141.741 70.4051 140.877 70.2188C138.321 69.6676 134.349 69.3334 128.002 69.3333Z" fill="black"/>
<path fill-rule="evenodd" clip-rule="evenodd" d="M128.002 0C138.684 0.00694932 245.336 42.6689 245.336 85.3333L245.544 134.01C245.836 235.583 240 256 128.002 256L116.398 255.948C0.657247 254.863 10.6689 235.165 10.6689 85.3333C10.6689 42.6654 117.336 0 128.002 0ZM124.742 17.1667C121.297 18.2601 116.649 19.9368 111.179 22.1563C100.242 26.5945 86.5665 32.9663 73.2731 40.5625C59.8588 48.228 47.5048 56.7665 38.721 65.4063C29.4964 74.48 26.6689 81.2167 26.6689 85.3333C26.6689 124.579 26.0116 153.767 26.9919 176.563C27.9851 199.659 30.6412 212.696 35.2314 220.729C39.0112 227.343 45.0922 232.225 59.2627 235.49C74.2517 238.943 95.8592 240 128.002 240C159.871 240 181.298 238.291 196.023 234.177C209.893 230.302 216.46 224.714 220.596 217.063C225.406 208.164 228.025 194.519 229.013 172.052C229.503 160.908 229.587 148.372 229.544 134.052L229.336 85.3333C229.336 81.217 226.507 74.4793 217.284 65.4063C208.5 56.7668 196.145 48.2278 182.731 40.5625C169.437 32.9657 155.752 26.5947 144.815 22.1563C139.347 19.9375 134.707 18.26 131.263 17.1667C129.903 16.7351 128.816 16.4401 128.002 16.2292C127.189 16.4399 126.102 16.735 124.742 17.1667Z" fill="black"/>
</svg>
