<svg width="256" height="256" viewBox="0 0 256 256" fill="none" xmlns="http://www.w3.org/2000/svg">
<path fill-rule="evenodd" clip-rule="evenodd" d="M127.888 2.66797C132.306 2.66797 135.888 6.24969 135.888 10.668V32.0638C206.373 33.1376 222.752 49.5165 223.826 120.001H245.221C249.64 120.001 253.221 123.583 253.221 128.001C253.221 132.42 249.64 136.001 245.221 136.001H223.826C222.752 206.486 206.373 222.855 135.888 223.928V245.335C135.888 249.753 132.306 253.335 127.888 253.335C123.47 253.335 119.888 249.753 119.888 245.335V223.928C49.4034 222.855 33.0243 206.486 31.9505 136.001H10.5547C6.13641 136.001 2.55469 132.42 2.55469 128.001C2.55469 123.583 6.13641 120.001 10.5547 120.001H31.9505C33.0243 49.5165 49.4032 33.1376 119.888 32.0638V10.668C119.888 6.24969 123.47 2.66797 127.888 2.66797ZM135.888 74.668C135.888 79.0862 132.306 82.668 127.888 82.668C123.47 82.668 119.888 79.0862 119.888 74.668V48.0638C104.165 48.312 92.0163 49.3373 82.513 51.3867C71.6362 53.7327 65.3284 57.1859 61.2005 61.3138C57.0726 65.4417 53.6194 71.7495 51.2734 82.6263C49.224 92.1295 48.2092 104.278 47.9609 120.001H74.5547C78.973 120.001 82.5547 123.583 82.5547 128.001C82.5547 132.42 78.973 136.001 74.5547 136.001H47.9609C48.2092 151.724 49.224 163.873 51.2734 173.376C53.6194 184.253 57.0726 190.561 61.2005 194.689C65.3284 198.817 71.6362 202.27 82.513 204.616C92.0162 206.665 104.165 207.68 119.888 207.928V181.335C119.888 176.916 123.47 173.335 127.888 173.335C132.306 173.335 135.888 176.916 135.888 181.335V207.928C151.611 207.68 163.76 206.665 173.263 204.616C184.14 202.27 190.448 198.817 194.576 194.689C198.703 190.561 202.157 184.253 204.503 173.376C206.552 163.873 207.567 151.724 207.815 136.001H181.221C176.803 136.001 173.221 132.42 173.221 128.001C173.221 123.583 176.803 120.001 181.221 120.001H207.815C207.567 104.278 206.552 92.1295 204.503 82.6263C202.157 71.7495 198.703 65.4417 194.576 61.3138C190.448 57.1859 184.14 53.7327 173.263 51.3867C163.76 49.3373 151.611 48.312 135.888 48.0638V74.668Z" fill="black"/>
</svg>
