<svg width="256" height="256" viewBox="0 0 256 256" fill="none" xmlns="http://www.w3.org/2000/svg">
<path fill-rule="evenodd" clip-rule="evenodd" d="M154.344 5.01084C157.468 1.88955 162.544 1.88721 165.667 5.01084C168.784 8.13379 168.784 13.2005 165.667 16.3233L149.698 32.2713C237.623 34.6357 256 53.7495 256 128L255.938 135.313C255 186.392 243.53 209.249 202.146 218.48L210.26 242.803C211.658 246.994 209.389 251.53 205.198 252.928C201.006 254.325 196.47 252.057 195.073 247.865L186.188 221.209C170.394 223.22 151.221 224 128 224L118.25 223.948C99.3442 223.753 83.3391 222.921 69.8125 221.198L60.9271 247.865C59.5299 252.057 54.9936 254.325 50.8021 252.928C46.6105 251.53 44.3424 246.994 45.7396 242.803L53.8333 218.49C12.4633 209.258 0.999705 186.385 0.0625 135.313L0 128C0 53.7524 18.376 34.6369 106.292 32.2713L90.3438 16.3233C87.22 13.199 87.2198 8.13477 90.3438 5.01084C93.4681 1.88713 98.5323 1.88689 101.656 5.01084L128 31.3546L154.344 5.01084ZM128 48.0004C101.565 48.0004 81.258 49.0014 65.5521 51.5421C49.8168 54.0877 40.0236 57.9885 33.6042 62.8025C21.8089 71.649 16 87.8795 16 128C16 168.121 21.8089 184.352 33.6042 193.198C40.0236 198.012 49.8168 201.913 65.5521 204.459C81.258 206.999 101.565 208 128 208C154.435 208 174.742 206.999 190.448 204.459C206.183 201.913 215.976 198.012 222.396 193.198C234.191 184.352 240 168.121 240 128C240 87.8795 234.191 71.649 222.396 62.8025C215.976 57.9885 206.183 54.0877 190.448 51.5421C174.742 49.0014 154.435 48.0004 128 48.0004Z" fill="black"/>
</svg>
