<svg width="256" height="256" viewBox="0 0 256 256" fill="none" xmlns="http://www.w3.org/2000/svg">
<path fill-rule="evenodd" clip-rule="evenodd" d="M128 117.335C145.673 117.335 160 131.662 160 149.335C160 167.008 145.673 181.335 128 181.335C110.327 181.335 95.9997 167.008 95.9997 149.335C95.9997 131.662 110.327 117.335 128 117.335ZM128 133.335C119.163 133.335 112 140.498 112 149.335C112 158.171 119.163 165.335 128 165.335C136.836 165.335 144 158.171 144 149.335C144 140.498 136.836 133.335 128 133.335Z" fill="black"/>
<path fill-rule="evenodd" clip-rule="evenodd" d="M160 2.66797C164.418 2.66797 168 6.24969 168 10.668C168 15.0862 164.418 18.668 160 18.668H136L135.989 42.7096L136.125 42.72C217.982 43.8467 234.666 63.2229 234.666 149.335L234.614 157.46C233.488 239.317 214.111 256.001 128 256.001L119.875 255.949C40.6572 254.859 22.4754 236.677 21.3851 157.46L21.333 149.335C21.333 63.1791 38.0341 43.8182 120 42.7096V18.668H95.9997C91.5814 18.668 87.9997 15.0862 87.9997 10.668C87.9997 6.24969 91.5814 2.66797 95.9997 2.66797H160ZM128 58.668C106.096 58.668 89.6811 59.7801 77.208 62.47C64.9145 65.1216 57.5512 69.0748 52.6455 73.9805C47.7398 78.8861 43.7866 86.2495 41.1351 98.543C38.4451 111.016 37.333 127.431 37.333 149.335C37.333 171.238 38.4451 187.653 41.1351 200.126C43.7866 212.42 47.7398 219.783 52.6455 224.689C57.5512 229.594 64.9146 233.548 77.208 236.199C89.6811 238.889 106.096 240.001 128 240.001C149.903 240.001 166.318 238.889 178.791 236.199C191.085 233.548 198.448 229.594 203.354 224.689C208.26 219.783 212.213 212.42 214.864 200.126C217.554 187.653 218.666 171.238 218.666 149.335C218.666 127.431 217.554 111.016 214.864 98.543C212.213 86.2495 208.26 78.8861 203.354 73.9805C198.448 69.0748 191.085 65.1216 178.791 62.47C166.318 59.7801 149.903 58.668 128 58.668Z" fill="black"/>
</svg>
