<svg width="256" height="256" viewBox="0 0 256 256" fill="none" xmlns="http://www.w3.org/2000/svg">
<path fill-rule="evenodd" clip-rule="evenodd" d="M136.125 0.0520833C213.576 1.01214 232.669 16.6738 234.5 84.0104C234.422 83.944 234.339 83.8785 234.26 83.8125C251.096 98.038 256 121.669 256 160C256 240 234.667 256 128 256C21.3333 256 0 240 0 160C0 121.643 4.90838 98.0037 21.7708 83.7813C21.6803 83.8575 21.5898 83.9336 21.5 84.0104C23.3932 14.3777 43.7458 0.000463011 128 0L136.125 0.0520833ZM128 80C101.565 80 81.258 81.001 65.5521 83.5417C49.8168 86.0873 40.0236 89.9881 33.6042 94.8021C21.8089 103.649 16 119.879 16 160C16 200.121 21.8089 216.351 33.6042 225.198C40.0236 230.012 49.8168 233.913 65.5521 236.458C81.258 238.999 101.565 240 128 240C154.435 240 174.742 238.999 190.448 236.458C206.183 233.913 215.976 230.012 222.396 225.198C234.191 216.351 240 200.121 240 160C240 119.879 234.191 103.649 222.396 94.8021C215.976 89.9881 206.183 86.0873 190.448 83.5417C174.742 81.001 154.435 80 128 80ZM128 16C106.066 16.0001 89.514 17.0078 76.8854 19.4583C64.3508 21.892 56.8917 25.5325 52.0417 29.8958C44.3105 36.8554 39.5383 48.9897 37.9375 74.3438C57.3824 66.4979 86.1026 64 128 64C169.891 64 198.607 66.5007 218.052 74.3438C216.451 48.9907 211.689 36.8555 203.958 29.8958C199.108 25.5324 191.649 21.8921 179.115 19.4583C166.486 17.0077 149.934 16.0002 128 16Z" fill="black"/>
</svg>
