<svg width="256" height="256" viewBox="0 0 256 256" fill="none" xmlns="http://www.w3.org/2000/svg">
<path fill-rule="evenodd" clip-rule="evenodd" d="M134.497 0.0520833C183.587 0.854932 203.373 11.4005 210.205 51.0938C209.924 51.0004 209.636 50.9249 209.351 50.8333C246.637 62.8191 255.997 90.4767 255.997 149.333L255.935 157.458C254.583 239.316 231.331 256 127.997 256L118.247 255.948C20.0182 254.821 -0.00292969 235.445 -0.00292969 149.333C-0.00291185 88.4493 10.0076 60.9341 50.5908 49.6354C48.945 50.0946 47.3459 50.5706 45.7992 51.0833C52.9274 9.69204 74.1377 9.76313e-05 127.997 0L134.497 0.0520833ZM96.2575 147.542C69.4099 148.858 42.626 151.851 16.0596 156.51C16.6736 196.297 22.5659 213.981 34.2367 223.708C40.6322 229.038 50.2929 233.291 65.8304 236.083C81.4004 238.882 101.591 240 127.997 240C154.403 240 174.594 238.882 190.164 236.083C205.701 233.291 215.362 229.038 221.757 223.708C233.427 213.982 239.309 196.3 239.924 156.521C213.357 151.862 186.574 148.858 159.726 147.542C158.367 166.561 151.395 170.667 127.997 170.667L123.247 170.604C103.635 170.01 97.5195 165.208 96.2575 147.542ZM127.997 122.667C121.649 122.667 117.679 123.001 115.122 123.552C114.25 123.74 113.701 123.927 113.382 124.052C113.257 124.37 113.071 124.919 112.882 125.792C112.331 128.349 111.997 132.319 111.997 138.667C111.997 145.014 112.331 148.985 112.882 151.542C113.069 152.406 113.257 152.951 113.382 153.271C113.7 153.396 114.246 153.592 115.122 153.781C117.679 154.332 121.649 154.667 127.997 154.667C134.345 154.667 138.315 154.332 140.872 153.781C141.739 153.594 142.282 153.396 142.601 153.271C142.727 152.952 142.925 152.409 143.112 151.542C143.663 148.985 143.997 145.014 143.997 138.667C143.997 132.319 143.663 128.349 143.112 125.792C142.923 124.916 142.727 124.37 142.601 124.052C142.282 123.927 141.736 123.738 140.872 123.552C138.315 123.001 134.345 122.667 127.997 122.667ZM127.997 58.6667C101.591 58.6667 81.4004 59.7851 65.8304 62.5833C50.293 65.376 40.6322 69.6287 34.2367 74.9583C22.7529 84.5296 16.8619 101.805 16.0908 140.26C42.6275 135.724 69.3716 132.807 96.1742 131.521C96.1636 131.724 96.163 131.929 96.1533 132.135C97.1187 111.107 103.668 106.667 127.997 106.667L132.747 106.729C152.984 107.342 158.817 112.437 159.81 131.521C186.612 132.807 213.356 135.724 239.893 140.26C239.122 101.805 233.241 84.5296 221.757 74.9583C215.362 69.6287 205.701 65.376 190.164 62.5833C174.594 59.7851 154.403 58.6667 127.997 58.6667ZM127.997 16C91.9867 16.0001 78.0794 20.785 70.9033 29.3021C67.8199 32.9638 65.094 38.3599 63.0075 46.8229C61.0539 47.1739 59.1605 47.5642 57.32 47.9688C75.1762 44.0536 98.2727 42.6667 127.997 42.6667L137.747 42.7188C162.277 43.0001 181.93 44.4167 197.612 47.7292C196.104 47.4096 194.559 47.1071 192.976 46.8229C190.89 38.3615 188.174 32.9636 185.091 29.3021C177.915 20.7842 164.007 16.0003 127.997 16Z" fill="black"/>
</svg>
