<svg width="256" height="256" viewBox="0 0 256 256" fill="none" xmlns="http://www.w3.org/2000/svg">
<path fill-rule="evenodd" clip-rule="evenodd" d="M128 0C234.667 0 256 21.3333 256 128C256 234.667 234.667 256 128 256C21.3333 256 0 234.667 0 128C0 21.3333 21.3333 0 128 0ZM238.896 92.8125C165.101 86.4345 90.8884 86.435 17.0938 92.8125C16.3354 103.069 16 114.725 16 128C16 154.348 17.3344 174.319 20.6354 189.625C23.8981 204.752 28.8513 214.226 35.3125 220.688C41.7737 227.149 51.2482 232.102 66.375 235.365C81.6814 238.666 101.652 240 128 240C154.348 240 174.319 238.666 189.625 235.365C204.752 232.102 214.226 227.149 220.688 220.688C227.149 214.226 232.102 204.752 235.365 189.625C238.666 174.319 240 154.348 240 128C240 114.725 239.654 103.069 238.896 92.8125ZM89.6875 17.3646C80.8966 18.1102 73.1748 19.1689 66.375 20.6354C51.2482 23.8981 41.7737 28.8513 35.3125 35.3125C28.8513 41.7737 23.8981 51.2482 20.6354 66.375C19.9454 69.5745 19.3677 72.9815 18.8438 76.6042C42.4604 74.6205 66.118 73.2771 89.7917 72.5833C94.8916 54.499 94.8387 35.38 89.6875 17.3646ZM128 16C120.11 16 112.792 16.1291 106 16.3854C110.633 34.672 110.775 53.8231 106.406 72.2083C150.016 71.4863 193.651 72.9507 237.146 76.6042C236.622 72.9821 236.055 69.574 235.365 66.375C232.102 51.2482 227.149 41.7737 220.688 35.3125C214.226 28.8513 204.752 23.8981 189.625 20.6354C174.319 17.3344 154.348 16 128 16Z" fill="black"/>
</svg>
