<svg width="256" height="256" viewBox="0 0 256 256" fill="none" xmlns="http://www.w3.org/2000/svg">
<path d="M96.79 88.0417C101.185 88.4812 104.394 92.397 103.957 96.7917L102.238 114.042C99.891 137.51 99.891 161.157 102.238 184.625L103.957 201.875C104.394 206.27 101.185 210.186 96.79 210.625C92.3959 211.061 88.4794 207.853 88.04 203.458L86.3108 186.219C83.8581 161.692 83.8581 136.975 86.3108 112.448L88.04 95.2083C88.4794 90.8139 92.3959 87.6054 96.79 88.0417Z" fill="black"/>
<path d="M159.207 88.0417C163.601 87.6045 167.517 90.8134 167.957 95.2083L169.686 112.448C172.139 136.975 172.139 161.691 169.686 186.219L167.957 203.458C167.517 207.853 163.601 211.062 159.207 210.625C154.812 210.185 151.603 206.269 152.04 201.875L153.759 184.625C156.106 161.156 156.106 137.51 153.759 114.042L152.04 96.7917C151.603 92.3976 154.812 88.4819 159.207 88.0417Z" fill="black"/>
<path fill-rule="evenodd" clip-rule="evenodd" d="M133.696 0.0520833C175.344 0.87238 192.857 11.3418 199.332 50.0729C211.682 51.6826 223.991 53.707 236.238 56.1563C240.568 57.0245 243.375 61.2418 242.509 65.5729C241.64 69.903 237.423 72.71 233.092 71.8438C228.822 70.9897 224.544 70.1864 220.259 69.4375C231.311 85.587 234.665 110.763 234.665 149.333C234.665 223.396 222.323 248.093 166.79 254.271L162.54 254.698C152.431 255.621 140.971 256 127.998 256C39.1107 256 21.3316 238.222 21.3316 149.333C21.3316 110.768 24.6789 85.5873 35.7275 69.4375C31.4463 70.1858 27.1711 70.9905 22.9045 71.8438C18.5739 72.709 14.3561 69.9026 13.4879 65.5729C12.6219 61.2424 15.4294 57.0252 19.7587 56.1563C31.9979 53.7084 44.3014 51.6821 56.6441 50.0729C63.407 9.61843 82.2441 0 128.009 0L133.696 0.0520833ZM187.165 64.7083C147.839 60.3399 108.147 60.3389 68.8212 64.7083C61.3621 67.1662 56.315 70.3083 52.6441 73.9792C47.7388 78.8849 43.7851 86.2489 41.1337 98.5417C38.4438 111.015 37.3316 127.43 37.3316 149.333C37.3316 171.237 38.4438 187.652 41.1337 200.125C43.7851 212.418 47.7388 219.782 52.6441 224.688C57.5496 229.593 64.914 233.546 77.2066 236.198C89.6795 238.888 106.095 240 127.998 240C142.524 240 154.723 239.51 165.019 238.365C190.86 235.49 201.748 228.857 207.946 218.844C215.303 206.956 218.665 186.623 218.665 149.333C218.665 127.43 217.553 111.015 214.863 98.5417C212.211 86.2484 208.258 78.8848 203.352 73.9792C199.68 70.3066 194.63 67.1667 187.165 64.7083ZM65.592 48.9792L65.6441 48.9688C66.3231 48.7618 67.0079 48.5492 67.7066 48.3542C66.9908 48.5546 66.2871 48.7661 65.592 48.9792ZM190.342 48.9688L190.405 48.9792C189.811 48.7979 189.211 48.62 188.602 48.4479C189.19 48.6142 189.768 48.794 190.342 48.9688ZM128.009 16C97.035 16 86.2903 20.8319 80.4462 29.1771C77.7849 32.9799 75.4032 38.5236 73.5504 46.8958C71.924 47.2509 70.3422 47.6325 68.8108 48.0417C83.7305 44.0676 103.067 42.6667 127.998 42.6667C151.675 42.6667 170.3 43.9591 184.894 47.4896C184.088 47.2946 183.277 47.0771 182.446 46.8958C180.594 38.5275 178.231 32.9796 175.571 29.1771C169.728 20.8301 158.981 16.0009 128.009 16Z" fill="black"/>
</svg>
