<svg width="256" height="256" viewBox="0 0 256 256" fill="none" xmlns="http://www.w3.org/2000/svg">
<path fill-rule="evenodd" clip-rule="evenodd" d="M97.5729 21.3841C141.176 22.0185 163.014 29.0957 173.25 53.332C174.156 53.3267 175.073 53.332 176 53.332C242.666 53.3321 256 66.6666 256 133.332C256 173.422 251.164 194.2 232.823 204.415C227.505 221.922 211.244 234.665 192 234.665C175.934 234.665 161.945 225.785 154.667 212.665C151.933 212.477 149.319 212.269 146.823 211.988C138.594 213.318 128.528 213.424 116.25 213.29L90.6667 213.04C90.5937 213.04 90.5208 213.031 90.4479 213.03C83.1135 225.945 69.2474 234.665 53.3333 234.665C29.7692 234.665 10.6667 215.563 10.6667 191.999C10.6667 190.26 10.7771 188.547 10.9792 186.863C3.2404 173.398 0.41964 153.509 0.0416667 124.488L0 117.186C0 37.3095 15.1111 21.332 90.6667 21.332L97.5729 21.3841ZM53.3333 165.332C38.6057 165.332 26.6667 177.271 26.6667 191.999C26.6667 206.726 38.6057 218.665 53.3333 218.665C68.0609 218.665 80 206.726 80 191.999C80 177.271 68.0609 165.332 53.3333 165.332ZM192 165.332C177.272 165.332 165.333 177.271 165.333 191.999C165.333 206.726 177.272 218.665 192 218.665C206.728 218.665 218.667 206.726 218.667 191.999C218.667 177.271 206.728 165.332 192 165.332ZM90.6667 37.332C72.1153 37.332 58.4376 38.3362 48.1771 40.6758C38.1519 42.9624 32.412 46.2972 28.625 50.3008C24.764 54.3827 21.461 60.7168 19.2188 71.707C16.9498 82.8285 16 97.5149 16 117.186C16.0001 136.856 16.9498 151.544 19.2188 162.665C19.4222 163.662 19.6441 164.618 19.8646 165.54C19.8124 165.606 19.7601 165.672 19.7083 165.738C27.5177 155.753 39.6743 149.332 53.3333 149.332C76.8975 149.332 96 168.435 96 191.999C96 193.716 95.8847 195.408 95.6875 197.072C112.99 197.162 125.314 197.642 135.823 197.061C142.222 196.707 146.48 195.941 149.438 194.999C149.442 195.068 149.453 195.137 149.458 195.207C149.38 194.148 149.333 193.078 149.333 191.999C149.333 179.002 155.147 167.366 164.313 159.54C164.174 159.659 164.033 159.774 163.896 159.895C164.873 148.891 165.333 134.947 165.333 117.186C165.333 97.5149 164.384 82.8285 162.115 71.707C159.872 60.7168 156.569 54.3827 152.708 50.3008C148.921 46.2972 143.181 42.9624 133.156 40.6758C122.896 38.3362 109.218 37.332 90.6667 37.332ZM181.302 125.332L181.292 126.832C181.203 135.723 180.961 143.706 180.573 150.874C184.209 149.865 188.043 149.332 192 149.332C212.041 149.332 228.848 163.152 233.427 181.78C234.876 179.02 236.195 175.424 237.24 170.582C239.165 161.651 240 149.679 240 133.332C240 130.54 239.967 127.876 239.917 125.332H181.302ZM177.948 69.3424C180.079 80.2015 181.054 93.3806 181.281 109.332H239.115C238.67 104.289 238.064 99.9059 237.24 96.082C235.352 87.3311 232.649 82.6056 229.688 79.6445C226.726 76.6835 222.001 73.98 213.25 72.0924C204.677 70.2437 193.304 69.4072 177.948 69.3424Z" fill="black"/>
</svg>
