<svg width="256" height="256" viewBox="0 0 256 256" fill="none" xmlns="http://www.w3.org/2000/svg">
<path d="M232 32C236.419 32 240 35.5817 240 40V61.3333C240 65.7516 236.419 69.3333 232 69.3333C227.582 69.3333 224 65.7516 224 61.3333V48H133.334V213.333H136C140.419 213.333 144 216.915 144 221.333C144 225.752 140.419 229.333 136 229.333H114.667C110.249 229.333 106.667 225.752 106.667 221.333C106.667 216.915 110.249 213.333 114.667 213.333H117.334V48H26.667V61.3333C26.667 65.7516 23.0853 69.3333 18.667 69.3333C14.2487 69.3333 10.667 65.7516 10.667 61.3333V40C10.667 35.5817 14.2487 32 18.667 32H232Z" fill="black"/>
</svg>
