<svg width="256" height="256" viewBox="0 0 256 256" fill="none" xmlns="http://www.w3.org/2000/svg">
<path fill-rule="evenodd" clip-rule="evenodd" d="M128 0C132.418 0.000599183 136 3.58209 136 8V18.7083L128 18.6667C234.667 18.6667 256 40 256 146.667C256 155.511 241.93 159.831 233.792 155.896L232.25 155C212.406 141.2 181.957 136.507 136 136.042V216.302C135.997 235.28 120.613 250.663 101.635 250.667C88.6181 250.666 76.7071 243.31 70.8854 231.667L67.5104 224.906C65.5385 220.956 67.1446 216.153 71.0938 214.177C75.0444 212.205 79.8476 213.811 81.8229 217.76L85.1979 224.51C88.3094 230.733 94.6784 234.666 101.635 234.667C111.776 234.663 119.997 226.443 120 216.302V136.042C74.0397 136.507 43.5858 141.199 23.7396 155L22.1979 155.896C14.0609 159.83 0 155.51 0 146.667C6.78175e-07 40 21.3333 18.6667 128 18.6667C125.279 18.6667 122.611 18.6795 120 18.7083V8C120 3.58231 123.583 0.000947163 128 0ZM128 34.6667C101.652 34.6667 81.6814 36.001 66.375 39.3021C51.2482 42.5647 41.7737 47.5179 35.3125 53.9792C28.8513 60.4404 23.8981 69.9149 20.6354 85.0417C17.5797 99.2103 16.2187 117.375 16.0313 140.896C41.5912 123.919 78.8469 120 128 120C177.15 120 214.401 123.921 239.958 140.896C239.771 117.375 238.42 99.2103 235.365 85.0417C232.102 69.9149 227.149 60.4404 220.688 53.9792C214.226 47.5179 204.752 42.5647 189.625 39.3021C174.319 36.001 154.348 34.6667 128 34.6667Z" fill="black"/>
</svg>
