<svg width="256" height="256" viewBox="0 0 256 256" fill="none" xmlns="http://www.w3.org/2000/svg">
<path fill-rule="evenodd" clip-rule="evenodd" d="M128 2.66797C132.418 2.66857 136 6.25006 136 10.668V21.3763L128 21.3346C234.667 21.3346 256 42.668 256 149.335C256 158.179 241.93 162.499 233.792 158.564L232.25 157.668C212.406 143.868 181.957 139.175 136 138.71V218.97C135.997 237.948 120.613 253.331 101.635 253.335C88.6181 253.334 76.7071 245.978 70.8854 234.335L67.5104 227.574C65.5385 223.624 67.1446 218.821 71.0938 216.845C75.0444 214.873 79.8476 216.479 81.8229 220.428L85.1979 227.178C88.3094 233.401 94.6784 237.334 101.635 237.335C111.776 237.331 119.997 229.111 120 218.97V138.71C74.0397 139.175 43.5858 143.866 23.7396 157.668L22.1979 158.564C14.0609 162.498 0 158.178 0 149.335C6.78175e-07 42.668 21.3333 21.3346 128 21.3346C125.279 21.3346 122.611 21.3475 120 21.3763V10.668C120 6.25027 123.583 2.66892 128 2.66797ZM128 37.3346C101.652 37.3346 81.6814 38.669 66.375 41.97C51.2482 45.2327 41.7737 50.1859 35.3125 56.6471C28.8513 63.1084 23.8981 72.5828 20.6354 87.7096C17.5797 101.878 16.2187 120.043 16.0313 143.564C41.5912 126.587 78.8469 122.668 128 122.668C177.15 122.668 214.401 126.589 239.958 143.564C239.771 120.043 238.42 101.878 235.365 87.7096C232.102 72.5828 227.149 63.1084 220.688 56.6471C214.226 50.1859 204.752 45.2327 189.625 41.97C174.319 38.669 154.348 37.3346 128 37.3346Z" fill="black"/>
<path d="M34.6667 192.001C34.6667 192.001 42.6667 197.149 42.6667 205.72C42.6651 212.574 39.084 216.001 34.6667 216.001C30.2493 216.001 26.6682 212.574 26.6667 205.72C26.6667 197.149 34.6667 192.001 34.6667 192.001Z" fill="black"/>
<path d="M221.333 192.001C221.333 192.001 229.333 197.149 229.333 205.72C229.332 212.574 225.751 216.001 221.333 216.001C216.916 216.001 213.335 212.574 213.333 205.72C213.333 197.149 221.333 192.001 221.333 192.001Z" fill="black"/>
<path d="M88 160.001C88 160.001 96 165.149 96 173.72C95.9984 180.574 92.4173 184.001 88 184.001C83.5827 184.001 80.0016 180.574 80 173.72C80 165.149 88 160.001 88 160.001Z" fill="black"/>
<path d="M168 160.001C168 160.001 176 165.149 176 173.72C175.998 180.574 172.417 184.001 168 184.001C163.583 184.001 160.002 180.574 160 173.72C160 165.149 168 160.001 168 160.001Z" fill="black"/>
</svg>
