<svg width="256" height="256" viewBox="0 0 256 256" fill="none" xmlns="http://www.w3.org/2000/svg">
<path fill-rule="evenodd" clip-rule="evenodd" d="M176.579 160.105C236.322 162.149 254.011 195.471 255.829 237.626C256.01 241.843 253.527 245.733 249.547 247.137L245.943 248.335C227.507 254.041 203.004 256.001 170.662 256.001L156.693 255.866C148.332 255.692 140.554 255.33 133.329 254.772C134.499 254.682 135.656 254.561 136.797 254.46C124.826 255.524 111.294 256.001 96.0057 256.001L83.4849 255.897C57.239 255.416 36.703 253.28 20.7245 248.335L17.1203 247.137C13.1394 245.734 10.6469 241.843 10.8286 237.626C12.7047 194.11 31.5026 160.001 96.0057 160.001L101.922 160.105C114.297 160.529 124.861 162.312 133.86 165.22C133.681 165.162 133.499 165.1 133.318 165.043C143.616 161.787 155.95 160.002 170.662 160.001L176.579 160.105ZM96.0057 176.001C66.4997 176.001 50.6199 183.748 41.6411 193.397C33.1192 202.558 28.4793 215.907 27.1099 233.522C42.9021 238.092 64.8807 240.001 96.0057 240.001C127.126 240.001 149.1 238.091 164.891 233.522C163.522 215.906 158.883 202.558 150.36 193.397C141.382 183.748 125.51 176.002 96.0057 176.001ZM170.662 176.001C165.291 176.001 160.371 176.263 155.86 176.741C173.461 190.85 180.097 212.69 181.172 237.626C181.206 238.401 181.103 239.158 180.964 239.897C206.716 239.502 225.558 237.569 239.547 233.522C238.178 215.905 233.54 202.558 225.016 193.397C216.037 183.749 200.166 176.002 170.662 176.001Z" fill="black"/>
<path fill-rule="evenodd" clip-rule="evenodd" d="M181.339 42.668C204.901 42.6703 224.006 61.7719 224.006 85.3346C224.006 108.897 204.901 127.999 181.339 128.001C157.775 128.001 138.672 108.899 138.672 85.3346C138.672 61.7705 157.775 42.668 181.339 42.668ZM181.339 58.668C166.611 58.668 154.672 70.607 154.672 85.3346C154.672 100.062 166.611 112.001 181.339 112.001C196.065 111.999 208.006 100.061 208.006 85.3346C208.006 70.6085 196.065 58.6703 181.339 58.668Z" fill="black"/>
<path fill-rule="evenodd" clip-rule="evenodd" d="M85.3391 10.668C114.792 10.6703 138.672 34.5476 138.672 64.0013C138.672 93.455 114.792 117.332 85.3391 117.335C55.8839 117.335 32.0057 93.4565 32.0057 64.0013C32.0057 34.5461 55.8839 10.668 85.3391 10.668ZM85.3391 26.668C64.7204 26.668 48.0057 43.3827 48.0057 64.0013C48.0057 84.6199 64.7204 101.335 85.3391 101.335C105.956 101.332 122.672 84.6185 122.672 64.0013C122.672 43.3841 105.956 26.6703 85.3391 26.668Z" fill="black"/>
</svg>
