<svg width="256" height="256" viewBox="0 0 256 256" fill="none" xmlns="http://www.w3.org/2000/svg">
<path fill-rule="evenodd" clip-rule="evenodd" d="M139.094 133.427C191.729 134.339 202.667 142.667 202.667 176L202.625 179.25C201.836 211.993 188.278 218.667 128 218.667L116.906 218.583C64.2706 217.672 53.3333 209.333 53.3333 176C53.3333 140.444 65.7778 133.333 128 133.333L139.094 133.427ZM128 149.333C112.619 149.333 100.962 149.776 92.0417 150.875C82.9865 151.991 78.0305 153.652 75.2708 155.229C73.1315 156.452 72.0726 157.719 71.2188 159.979C70.107 162.925 69.3333 167.732 69.3333 176C69.3333 184.268 70.107 189.075 71.2188 192.021C72.0726 194.281 73.1315 195.548 75.2708 196.771C78.0305 198.348 82.9865 200.009 92.0417 201.125C100.962 202.224 112.619 202.667 128 202.667C143.381 202.667 155.038 202.224 163.958 201.125C173.013 200.009 177.97 198.348 180.729 196.771C182.868 195.548 183.927 194.281 184.781 192.021C185.893 189.075 186.667 184.268 186.667 176C186.667 167.732 185.893 162.925 184.781 159.979C183.927 157.719 182.868 156.452 180.729 155.229C177.97 153.652 173.013 151.991 163.958 150.875C155.038 149.776 143.381 149.333 128 149.333Z" fill="black"/>
<path fill-rule="evenodd" clip-rule="evenodd" d="M128 37.3333C145.673 37.3333 160 51.6602 160 69.3333C160 87.0064 145.673 101.333 128 101.333C110.327 101.333 96 87.0064 96 69.3333C96 51.6602 110.327 37.3333 128 37.3333ZM128 53.3333C119.163 53.3333 112 60.4968 112 69.3333C112 78.1699 119.163 85.3333 128 85.3333C136.837 85.3333 144 78.1699 144 69.3333C144 60.4968 136.837 53.3333 128 53.3333Z" fill="black"/>
<path fill-rule="evenodd" clip-rule="evenodd" d="M128 0C234.667 0 256 21.3333 256 128C256 234.667 234.667 256 128 256C21.3333 256 0 234.667 0 128C0 21.3333 21.3333 0 128 0ZM128 16C101.652 16 81.6814 17.3344 66.375 20.6354C51.2482 23.8981 41.7737 28.8513 35.3125 35.3125C28.8513 41.7737 23.8981 51.2482 20.6354 66.375C17.3344 81.6814 16 101.652 16 128C16 154.348 17.3344 174.319 20.6354 189.625C23.8981 204.752 28.8513 214.226 35.3125 220.688C41.7737 227.149 51.2482 232.102 66.375 235.365C81.6814 238.666 101.652 240 128 240C154.348 240 174.319 238.666 189.625 235.365C204.752 232.102 214.226 227.149 220.688 220.688C227.149 214.226 232.102 204.752 235.365 189.625C238.666 174.319 240 154.348 240 128C240 101.652 238.666 81.6814 235.365 66.375C232.102 51.2482 227.149 41.7737 220.688 35.3125C214.226 28.8513 204.752 23.8981 189.625 20.6354C174.319 17.3344 154.348 16 128 16Z" fill="black"/>
</svg>
