<svg width="256" height="256" viewBox="0 0 256 256" fill="none" xmlns="http://www.w3.org/2000/svg">
<path fill-rule="evenodd" clip-rule="evenodd" d="M127.992 138.668C201.064 138.668 227.207 173.688 233.211 220.741C233.944 226.485 232.062 232.356 227.555 235.991L225.721 237.408C206.433 251.719 175.77 256.001 127.992 256.001C78.6779 256.001 47.5988 251.437 28.4402 235.991C24.4981 232.81 22.5601 227.917 22.6277 222.897L22.7735 220.741C28.7775 173.689 54.9265 138.67 127.992 138.668ZM127.992 154.668C93.9056 154.669 73.4312 162.823 60.8881 174.001C48.3377 185.189 41.3608 201.51 38.6485 222.762C38.5932 223.195 38.6453 223.517 38.6902 223.689C45.5005 229.11 55.2147 233.308 69.8673 236.064C84.7313 238.859 103.663 240.001 127.992 240.001C152.324 240.001 171.262 238.859 186.128 236.064C200.776 233.309 210.484 229.107 217.294 223.689C217.34 223.518 217.402 223.198 217.346 222.762C214.634 201.509 207.658 185.189 195.107 174.001C182.563 162.822 162.082 154.668 127.992 154.668Z" fill="black"/>
<path fill-rule="evenodd" clip-rule="evenodd" d="M128.003 10.668C157.457 10.6693 181.336 34.5469 181.336 64.0013C181.336 93.4557 157.457 117.333 128.003 117.335C98.5475 117.335 74.6693 93.4565 74.6693 64.0013C74.6693 34.5461 98.5475 10.668 128.003 10.668ZM128.003 26.668C107.384 26.668 90.6693 43.3827 90.6693 64.0013C90.6693 84.6199 107.384 101.335 128.003 101.335C148.62 101.333 165.336 84.6191 165.336 64.0013C165.336 43.3835 148.62 26.6693 128.003 26.668Z" fill="black"/>
</svg>
