<svg width="256" height="256" viewBox="0 0 256 256" fill="none" xmlns="http://www.w3.org/2000/svg">
<path d="M176.531 78.9375C180.065 76.2874 185.078 76.9995 187.729 80.5313C190.379 84.0648 189.667 89.0776 186.135 91.7292C158.787 112.24 135.672 137.864 118.083 167.177L113.531 174.781C112.264 176.893 110.09 178.303 107.646 178.604C105.201 178.905 102.752 178.065 101.01 176.323L69.0104 144.323C65.8882 141.199 65.8871 136.134 69.0104 133.01C72.1341 129.889 77.1991 129.889 80.3229 133.01L105.083 157.771C123.646 127.176 147.896 100.415 176.531 78.9375Z" fill="black"/>
<path fill-rule="evenodd" clip-rule="evenodd" d="M128 0C143.752 0 159.482 5.18409 171.417 23.1563C192.573 18.88 207.369 26.3483 218.51 37.4896C229.65 48.6298 237.107 63.42 232.833 84.5729C250.815 96.509 256 112.245 256 128C256 143.754 250.811 159.481 232.833 171.417C237.108 192.57 229.65 207.36 218.51 218.5C207.37 229.64 192.58 237.096 171.427 232.823C159.49 250.811 143.758 256 128 256C112.241 256 96.4995 250.815 84.5625 232.823C63.4162 237.092 48.6277 229.648 37.4896 218.51C26.349 207.37 18.8818 192.571 23.1563 171.417C5.18409 159.482 1.20324e-06 143.752 0 128C6.88591e-07 112.247 5.18021 96.5084 23.1563 84.5729C18.8828 63.4207 26.3506 48.6296 37.4896 37.4896C48.6292 26.3499 63.4212 18.8841 84.5729 23.1563C96.5084 5.18021 112.247 5.56429e-07 128 0ZM128 16C116.454 16 106.291 19.3816 97.9063 32.0104C94.308 37.429 87.7821 40.1308 81.4063 38.8438C66.5463 35.8424 56.9663 40.6379 48.8021 48.8021C40.6372 56.9679 35.8419 66.5479 38.8438 81.4063C40.1308 87.7821 37.429 94.3079 32.0104 97.9063C20.1699 105.768 16.4585 115.192 16.0417 125.854L16 128C16 139.539 19.3809 149.696 32.0104 158.083C37.4289 161.682 40.1308 168.208 38.8438 174.583C35.8406 189.446 40.6378 199.034 48.8021 207.198C56.9544 215.349 66.5283 220.137 81.3958 217.135C87.7741 215.848 94.2984 218.557 97.8958 223.979C106.284 236.621 116.454 240 128 240C139.539 240 149.703 236.621 158.094 223.979L158.802 222.99C162.506 218.231 168.615 215.929 174.594 217.135C189.46 220.139 199.039 215.347 207.198 207.188C215.358 199.026 220.15 189.448 217.146 174.583C215.859 168.207 218.561 161.682 223.979 158.083C236.617 149.693 240 139.536 240 128C240 116.459 236.622 106.294 223.99 97.9063C218.569 94.3083 215.859 87.7832 217.146 81.4063C220.149 66.5412 215.358 56.9628 207.198 48.8021C199.032 40.6361 189.447 35.8395 174.583 38.8438C168.208 40.1307 161.682 37.429 158.083 32.0104C149.696 19.3809 139.539 16 128 16Z" fill="black"/>
</svg>
