<svg width="256" height="256" viewBox="0 0 256 256" fill="none" xmlns="http://www.w3.org/2000/svg">
<path fill-rule="evenodd" clip-rule="evenodd" d="M96 10.668C153.4 10.668 177.838 20.7384 187.073 62.543C187.062 62.4951 187.063 62.4449 187.052 62.3971L192 60.3971C245.324 37.8645 256 71.6645 256 128.001L255.865 138.293C254.497 188.344 241.998 216.731 192 195.605C190.312 194.892 188.656 194.233 187.052 193.585V193.564C177.8 235.281 153.353 245.335 96 245.335C16 245.335 0 225.779 0 128.001C2.77435e-07 30.2235 16 10.668 96 10.668ZM96 26.668C55.6134 26.668 39.137 32.1071 30.3854 42.8034C25.7885 48.4223 22.0087 57.0425 19.5104 71.1992C17.0084 85.3774 16 103.811 16 128.001C16 152.192 17.0084 170.625 19.5104 184.803C22.0087 198.96 25.7885 207.58 30.3854 213.199C39.137 223.896 55.6134 229.335 96 229.335C136.387 229.335 152.863 223.896 161.615 213.199C166.211 207.58 169.991 198.96 172.49 184.803C174.992 170.625 176 152.192 176 128.001C176 103.811 174.992 85.3774 172.49 71.1992C169.991 57.0425 166.211 48.4223 161.615 42.8034C152.863 32.1071 136.387 26.668 96 26.668ZM222.854 69.4388C218.144 68.9511 210.353 70.0137 198.229 75.1367C195.274 76.3855 192.422 77.5072 189.708 78.5742C191.344 92.2759 192 108.597 192 128.001C192 147.396 191.342 163.71 189.708 177.408C192.425 178.476 195.271 179.616 198.229 180.866C210.355 185.99 218.143 187.051 222.854 186.564C226.742 186.16 229.047 184.704 231.115 181.897C233.66 178.439 236.085 172.439 237.729 162.814C239.342 153.361 240 141.7 240 128.001C240 114.302 239.343 102.642 237.729 93.1888C236.085 83.5614 233.66 77.5638 231.115 74.1055C229.046 71.2968 226.742 69.8428 222.854 69.4388Z" fill="black"/>
</svg>
