<svg width="256" height="256" viewBox="0 0 256 256" fill="none" xmlns="http://www.w3.org/2000/svg">
<path d="M202.667 141.333C207.083 141.336 210.667 144.917 210.667 149.333C210.667 153.75 207.083 157.331 202.667 157.333C198.248 157.333 194.667 153.752 194.667 149.333C194.667 144.915 198.248 141.333 202.667 141.333Z" fill="black"/>
<path fill-rule="evenodd" clip-rule="evenodd" d="M128 0C234.667 0 256 21.3333 256 128C256 131.821 255.949 135.531 255.885 139.135C255.956 142.426 256 145.824 256 149.333L255.969 152.375C255.972 153.133 256 153.897 256 154.667C256 173.98 254.852 189.752 251.854 202.604C251.643 202.606 251.431 202.602 251.219 202.604C240.435 245.858 208.558 256 128 256L118.25 255.948C23.1891 254.858 1.37083 236.676 0.0625 157.458L0 149.333C0 145.824 0.0441508 142.426 0.114583 139.135C0.0511809 135.531 0 131.821 0 128C0 21.3333 21.3333 0 128 0ZM128 58.6667C101.594 58.6667 81.4034 59.7851 65.8333 62.5833C50.2958 65.376 40.6352 69.6287 34.2396 74.9583C21.8893 85.2518 16 104.456 16 149.333C16 194.211 21.8893 213.415 34.2396 223.708C40.6352 229.038 50.2958 233.291 65.8333 236.083C81.4034 238.882 101.594 240 128 240C154.406 240 174.597 238.882 190.167 236.083C205.704 233.291 215.365 229.038 221.76 223.708C227.373 219.03 231.627 212.505 234.625 202.573C163.886 201.733 149.333 191.719 149.333 149.333C149.333 106.947 163.886 96.9231 234.625 96.0833C231.628 86.1568 227.371 79.6348 221.76 74.9583C215.365 69.6287 205.704 65.376 190.167 62.5833C174.597 59.7851 154.406 58.6667 128 58.6667ZM236.667 112.063C220.985 112.211 208.492 112.77 198.49 113.969C186.568 115.397 179.453 117.573 175.104 119.99C171.379 122.059 169.402 124.431 168 128.042C166.329 132.346 165.333 138.866 165.333 149.333L165.375 153.073C165.588 161.394 166.538 166.858 168 170.625C169.402 174.236 171.379 176.608 175.104 178.677C179.453 181.093 186.568 183.269 198.49 184.698C208.763 185.929 221.663 186.476 237.948 186.604C239.233 177.22 239.899 165.808 239.969 151.823C239.862 135.083 238.822 122.167 236.667 112.063ZM128 16C101.652 16 81.6814 17.3344 66.375 20.6354C51.2482 23.8981 41.7737 28.8513 35.3125 35.3125C28.9712 41.6538 24.0969 50.9007 20.8333 65.5417C38.9642 47.6535 71.5177 42.6667 128 42.6667C184.477 42.6667 217.024 47.6577 235.156 65.5417C231.893 50.902 227.028 41.6535 220.688 35.3125C214.226 28.8513 204.752 23.8981 189.625 20.6354C174.319 17.3344 154.348 16 128 16Z" fill="black"/>
</svg>
